<svg width="30" height="30" viewBox="0 0 30 30" fill="none" xmlns="http://www.w3.org/2000/svg">
<g id="Frame 2119">
<g id="&#240;&#159;&#166;&#134; emoji &#34;crying face&#34;">
<path id="Vector" d="M15.3432 25.6863C21.0555 25.6863 25.6863 21.0555 25.6863 15.3432C25.6863 9.63079 21.0555 5 15.3432 5C9.63079 5 5 9.63079 5 15.3432C5 21.0555 9.63079 25.6863 15.3432 25.6863Z" fill="#FFDD67"/>
<path id="Vector_2" d="M18.3076 20.3066C16.4458 19.4447 14.2393 19.4447 12.3775 20.3066C11.9293 20.5135 12.481 21.7546 12.9636 21.5133C14.2048 20.9272 16.0321 20.7203 17.756 21.5133C18.2042 21.7202 18.7903 20.5479 18.3076 20.3066Z" fill="#664E27"/>
<path id="Vector_3" d="M22.9285 14.9975C22.9285 16.7213 21.5495 18.1004 19.8256 18.1004C18.1017 18.1004 16.7227 16.7213 16.7227 14.9975C16.7227 13.2736 18.1017 11.8945 19.8256 11.8945C21.5495 11.8945 22.9285 13.2736 22.9285 14.9975Z" fill="white"/>
<path id="Vector_4" d="M19.8245 17.0669C20.967 17.0669 21.8931 16.1408 21.8931 14.9983C21.8931 13.8558 20.967 12.9297 19.8245 12.9297C18.682 12.9297 17.7559 13.8558 17.7559 14.9983C17.7559 16.1408 18.682 17.0669 19.8245 17.0669Z" fill="#664E27"/>
<g id="Group">
<path id="Vector_5" d="M20.3775 17.6519C20.9106 17.6519 21.3428 17.1579 21.3428 16.5486C21.3428 15.9393 20.9106 15.4453 20.3775 15.4453C19.8443 15.4453 19.4121 15.9393 19.4121 16.5486C19.4121 17.1579 19.8443 17.6519 20.3775 17.6519Z" fill="white"/>
<path id="Vector_6" d="M19.0673 15.6539C19.3719 15.6539 19.6189 15.3606 19.6189 14.9988C19.6189 14.637 19.3719 14.3438 19.0673 14.3438C18.7626 14.3438 18.5156 14.637 18.5156 14.9988C18.5156 15.3606 18.7626 15.6539 19.0673 15.6539Z" fill="white"/>
<path id="Vector_7" d="M13.9647 14.9975C13.9647 16.7213 12.5856 18.1004 10.8617 18.1004C9.13788 18.1004 7.75879 16.7213 7.75879 14.9975C7.75879 13.2736 9.13788 11.8945 10.8617 11.8945C12.5856 11.8945 13.9647 13.2736 13.9647 14.9975Z" fill="white"/>
</g>
<path id="Vector_8" d="M10.8606 17.0669C12.0031 17.0669 12.9293 16.1408 12.9293 14.9983C12.9293 13.8558 12.0031 12.9297 10.8606 12.9297C9.71815 12.9297 8.79199 13.8558 8.79199 14.9983C8.79199 16.1408 9.71815 17.0669 10.8606 17.0669Z" fill="#664E27"/>
<g id="Group_2">
<path id="Vector_9" d="M11.4126 17.6558C11.9458 17.6558 12.378 17.1618 12.378 16.5525C12.378 15.9432 11.9458 15.4492 11.4126 15.4492C10.8795 15.4492 10.4473 15.9432 10.4473 16.5525C10.4473 17.1618 10.8795 17.6558 11.4126 17.6558Z" fill="white"/>
<path id="Vector_10" d="M10.1024 15.6539C10.4071 15.6539 10.6541 15.3606 10.6541 14.9988C10.6541 14.637 10.4071 14.3438 10.1024 14.3438C9.79776 14.3438 9.55078 14.637 9.55078 14.9988C9.55078 15.3606 9.79776 15.6539 10.1024 15.6539Z" fill="white"/>
</g>
<path id="Vector_11" d="M20.514 16.7227C18.7557 19.0671 17.7559 21.2047 17.7559 22.963C17.7559 24.48 18.997 25.6867 20.514 25.6867C22.031 25.6867 23.2722 24.48 23.2722 22.963C23.2722 21.2047 22.2379 19.0326 20.514 16.7227Z" fill="#65B1EF"/>
<path id="Vector_12" d="M22.6528 11.4494C21.5495 10.5185 20.067 10.1048 18.6189 10.3806C18.4121 10.4151 18.2397 9.69105 18.481 9.62209C20.1359 9.3118 21.8598 9.79448 23.1354 10.8633C23.3423 11.0357 22.7907 11.5873 22.6528 11.4494ZM12.0683 10.3116C10.6202 10.0703 9.1377 10.4495 8.03443 11.3804C7.89652 11.5183 7.34488 10.9667 7.55175 10.7943C8.8274 9.69105 10.5513 9.24284 12.2062 9.55314C12.4475 9.62209 12.2751 10.3461 12.0683 10.3116Z" fill="#917524"/>
</g>
</g>
</svg>
