<svg xmlns="http://www.w3.org/2000/svg" width="19" height="19" viewBox="0 0 19 19" fill="none">
  <path fill-rule="evenodd" clip-rule="evenodd" d="M6 9.5C6 10.3284 5.32843 11 4.5 11C3.67157 11 3 10.3284 3 9.5C3 8.67157 3.67157 8 4.5 8C5.32843 8 6 8.67157 6 9.5ZM11 9.5C11 10.3284 10.3284 11 9.5 11C8.67157 11 8 10.3284 8 9.5C8 8.67157 8.67157 8 9.5 8C10.3284 8 11 8.67157 11 9.5ZM14.5 11C15.3284 11 16 10.3284 16 9.5C16 8.67157 15.3284 8 14.5 8C13.6716 8 13 8.67157 13 9.5C13 10.3284 13.6716 11 14.5 11Z" fill="#BABDC1"/>
</svg>