<svg width="22" height="22" viewBox="0 0 22 22" fill="none" xmlns="http://www.w3.org/2000/svg">
<path fill-rule="evenodd" clip-rule="evenodd" d="M9.61528 3.38462C9.61528 2.61991 10.2352 2 10.9999 2C11.7646 2 12.3845 2.61991 12.3845 3.38462V3.55535C13.275 3.71225 14.2695 4.02899 15.1591 4.58413C16.5833 5.47283 17.731 6.97321 17.731 9.3283V16.9283H20V17.9283L13.0773 17.9283C13.0745 19.073 12.1457 20 11.0004 20C9.85507 20 8.92628 19.073 8.92346 17.9283L2 17.9283V16.9283H4.26943V9.3283C4.26943 8.33233 4.60954 6.86332 5.63099 5.6338C6.47401 4.61907 7.75616 3.79795 9.61528 3.52519V3.38462ZM5.26943 9.3283C5.26943 8.52428 5.5524 7.2933 6.40018 6.27282C7.23134 5.27237 8.64277 4.42832 11.0002 4.42832C11.9718 4.42832 13.431 4.6845 14.6297 5.43251C15.8017 6.1638 16.731 7.36341 16.731 9.3283V16.9283L5.26943 16.9283V9.3283Z" fill="#C1C6CF"/>
</svg>
