<svg width="30" height="30" viewBox="0 0 30 30" fill="none" xmlns="http://www.w3.org/2000/svg">
<g id="Frame 2118">
<g id="&#240;&#159;&#166;&#134; emoji &#34;smiling face with heart-shaped eyes&#34;">
<path id="Vector" d="M25.6871 15.344C25.6871 21.0612 21.072 25.6763 15.3548 25.6763C9.63755 25.6763 5.02246 21.0612 5.02246 15.344C5.02246 9.62681 9.63755 5.01172 15.3548 5.01172C21.072 5.01172 25.6871 9.62681 25.6871 15.344Z" fill="#FFDD67"/>
<path id="Vector_2" d="M25.6174 8.8701C25.4452 7.94019 24.9286 7.18249 24.0676 6.9414C23.1377 6.70032 22.3111 7.04473 21.5189 7.87131C21.0712 6.63143 20.3824 5.70153 19.2803 5.21935C18.1782 4.73718 17.0761 5.08159 16.3872 5.94261C15.664 6.83808 15.3884 8.25016 16.1461 10.0755C16.8694 11.7976 20.0724 15.2417 20.1757 15.345C20.3135 15.2761 23.8954 13.0375 24.7564 11.9353C25.6174 10.8677 25.7896 9.80001 25.6174 8.8701ZM14.3208 5.94261C13.632 5.08159 12.5298 4.73718 11.4277 5.21935C10.3256 5.70153 9.6368 6.63143 9.18906 7.87131C8.36248 7.07917 7.5359 6.70032 6.60599 6.97584C5.77941 7.21693 5.22835 7.97463 5.05614 8.90454C4.88394 9.80001 5.09059 10.9021 5.91717 11.9698C6.81264 13.0375 10.3945 15.2761 10.5323 15.345C10.6356 15.2417 13.8386 11.7976 14.5619 10.0755C15.3196 8.25016 15.044 6.87252 14.3208 5.94261Z" fill="#F46767"/>
<path id="Vector_3" d="M21.209 17.4444C21.209 17.1689 21.0368 16.8245 20.589 16.7212C19.3836 16.4801 17.6271 16.2734 15.354 16.2734C13.0809 16.2734 11.3244 16.5145 10.119 16.7212C9.63679 16.8245 9.49902 17.1689 9.49902 17.4444C9.49902 19.9586 11.4277 22.4728 15.354 22.4728C19.2803 22.4384 21.209 19.9242 21.209 17.4444Z" fill="#664E27"/>
<path id="Vector_4" d="M19.7281 17.5163C18.9704 17.3785 17.3861 17.1719 15.3541 17.1719C13.3221 17.1719 11.7378 17.3785 10.9801 17.5163C10.5324 17.5852 10.4979 17.7574 10.5324 18.0329C10.5668 18.1707 10.5668 18.3773 10.6357 18.584C10.6701 18.7906 10.739 18.8939 11.0834 18.8595C11.7378 18.7906 19.0049 18.7906 19.6592 18.8595C20.0036 18.8939 20.0381 18.7906 20.107 18.584C20.1414 18.3773 20.1758 18.2051 20.2103 18.0329C20.2103 17.7574 20.1758 17.5852 19.7281 17.5163Z" fill="white"/>
</g>
</g>
</svg>
