<svg width="32" height="32" viewBox="0 0 32 32" fill="none" xmlns="http://www.w3.org/2000/svg">
<g id="mood_24dp_5F6368_FILL0_wght300_GRAD0_opsz24 1">
<path id="Vector" d="M20.3023 14.494C20.7621 14.494 21.1519 14.3331 21.4717 14.0112C21.7915 13.6895 21.9514 13.2988 21.9514 12.8393C21.9514 12.3797 21.7905 11.99 21.4688 11.6702C21.1472 11.3502 20.7564 11.1902 20.2966 11.1902C19.8371 11.1902 19.4474 11.3512 19.1276 11.6731C18.8078 11.9947 18.6479 12.3854 18.6479 12.8449C18.6479 13.3045 18.8087 13.6942 19.1304 14.014C19.4521 14.334 19.8427 14.494 20.3023 14.494ZM11.7034 14.494C12.1629 14.494 12.5526 14.3331 12.8724 14.0112C13.1922 13.6895 13.3521 13.2988 13.3521 12.8393C13.3521 12.3797 13.1913 11.99 12.8696 11.6702C12.5479 11.3502 12.1573 11.1902 11.6977 11.1902C11.2379 11.1902 10.8481 11.3512 10.5283 11.6731C10.2085 11.9947 10.0486 12.3854 10.0486 12.8449C10.0486 13.3045 10.2095 13.6942 10.5312 14.014C10.8528 14.334 11.2436 14.494 11.7034 14.494ZM16 22.5586C17.3181 22.5586 18.5229 22.1898 19.6145 21.4521C20.7061 20.7144 21.5109 19.7392 22.0291 18.5263H9.97095C10.4891 19.7392 11.2939 20.7144 12.3855 21.4521C13.4771 22.1898 14.6819 22.5586 16 22.5586ZM16.0022 28C14.3424 28 12.7823 27.6851 11.3219 27.0552C9.86147 26.4253 8.59116 25.5704 7.51095 24.4906C6.43074 23.4108 5.57547 22.1411 4.94516 20.6813C4.31505 19.2215 4 17.6618 4 16.0022C4 14.3424 4.31495 12.7823 4.94484 11.3219C5.57474 9.86147 6.42958 8.59116 7.50937 7.51095C8.58916 6.43074 9.85895 5.57547 11.3187 4.94516C12.7785 4.31505 14.3382 4 15.9978 4C17.6576 4 19.2177 4.31495 20.6781 4.94484C22.1385 5.57474 23.4088 6.42958 24.4891 7.50937C25.5693 8.58916 26.4245 9.85895 27.0548 11.3187C27.6849 12.7785 28 14.3382 28 15.9978C28 17.6576 27.6851 19.2177 27.0552 20.6781C26.4253 22.1385 25.5704 23.4088 24.4906 24.4891C23.4108 25.5693 22.1411 26.4245 20.6813 27.0548C19.2215 27.6849 17.6618 28 16.0022 28ZM16 26.1053C18.8211 26.1053 21.2105 25.1263 23.1684 23.1684C25.1263 21.2105 26.1053 18.8211 26.1053 16C26.1053 13.1789 25.1263 10.7895 23.1684 8.83158C21.2105 6.87368 18.8211 5.89474 16 5.89474C13.1789 5.89474 10.7895 6.87368 8.83158 8.83158C6.87368 10.7895 5.89474 13.1789 5.89474 16C5.89474 18.8211 6.87368 21.2105 8.83158 23.1684C10.7895 25.1263 13.1789 26.1053 16 26.1053Z" fill="white"/>
</g>
</svg>
