<svg width="50" height="50" viewBox="0 0 50 50" fill="none" xmlns="http://www.w3.org/2000/svg">
<path d="M37.5595 20.5632C38.028 20.0494 38.3409 19.3941 38.0742 19.1603C38.3085 18.4281 37.6874 17.9128 37.1388 17.6006C36.5902 17.2883 36.1063 17.1945 35.966 17.1868C35.8258 17.1791 35.966 17.4591 35.966 17.4591C35.4821 17.2253 35.5992 17.4898 35.6686 17.576C35.1215 17.3729 35.3958 17.8405 35.4266 17.8559C35.1292 17.919 34.9581 18.0743 34.8564 18.2066C34.7547 18.3389 34.7732 18.4558 34.5759 18.6019C34.3787 18.7481 34.1491 18.8819 34.0242 19.1742C33.8994 19.4649 33.7946 19.7664 33.7946 19.7664C33.7946 19.7664 33.1905 19.1526 32.8884 19.008C32.5864 18.8619 31.4829 18.2082 30.7956 18.0836C30.1083 17.959 30.3888 17.7406 29.1405 17.4606C27.8906 17.1806 27.547 17.2114 26.9228 17.0545C26.2987 16.8992 25.1413 16.5238 25.1413 16.5238L25.0165 16.8038C25.0165 16.8038 24.2505 16.4146 24.0795 16.227C23.9084 16.0393 24.0641 15.5717 23.9547 15.4163C23.8452 15.261 23.4553 15.4163 23.4553 15.4163C23.1749 15.0579 22.7218 15.1194 22.6586 15.2456L22.5954 15.3702C22.5954 15.3702 22.3149 15.5409 22.3612 15.7763C22.1901 16.0255 22.3565 16.1393 22.3565 16.1393C22.1531 16.2531 22.2995 16.3777 22.4243 16.4931C22.5492 16.6069 22.8096 16.7638 23.0485 16.7946C23.2874 16.8253 24.4124 17.9482 24.4124 17.9482L24.3291 18.4574C24.3291 18.4574 22.9606 17.6775 22.2548 17.0222C21.549 16.3669 20.2683 14.8087 19.581 14.0289C18.8937 13.249 18.362 12.9998 18.362 12.9998L18.0815 13.2182C18.0815 13.2182 16.5188 12.4076 16.2075 12.0338C15.8947 11.66 15.9101 11.3016 15.5048 11.0986C15.0979 10.8955 15.1919 11.0678 14.708 10.7402C14.2226 10.4141 13.9097 10.188 13.5969 10.0464C13.2841 9.90647 13.2301 10.1172 13.3241 10.2264C13.4181 10.3356 13.4721 10.3818 13.4721 10.3818C13.1669 10.171 13.019 10.1095 12.8942 10.1634C12.7693 10.2172 12.8942 10.4049 12.8942 10.4049C12.5813 10.2018 12.4411 10.2649 12.418 10.3587C12.3948 10.4525 12.5197 10.6156 12.5197 10.6156C12.2145 10.4448 11.8786 10.5448 12.0435 10.8417C12.2068 11.1386 12.794 11.1616 13.0436 11.4185C13.2933 11.6754 14.1132 11.9954 14.4645 12.2215C14.8159 12.4476 15.8084 13.2351 16.058 13.5551C16.3077 13.875 16.9673 14.5395 16.9673 14.5395L16.6961 15.3502C16.6961 15.3502 17.5082 16.9515 18.4668 17.8236C19.4254 18.6973 19.7998 18.9665 20.2159 19.5495C20.632 20.1309 21.643 21.6707 22.4243 22.3567C23.2057 23.0427 23.1117 22.8243 23.2673 23.4165C23.3706 23.8088 23.5709 24.6271 23.8021 25.5239C23.6511 25.9853 23.5016 26.5806 23.4446 27.2513C23.3089 28.811 22.2363 29.1848 22.2363 29.1848L22.6108 29.6832C22.6108 29.6832 23.705 29.4648 23.9547 27.3128C23.9886 27.0205 24.0271 26.7606 24.0687 26.5252C24.1041 26.6544 24.138 26.7821 24.1735 26.9067C24.548 28.248 23.6418 33.2364 23.423 33.5794C23.7666 34.2347 25.0858 34.5777 25.0858 34.5777C25.0858 34.5777 25.6252 36.6359 25.6252 37.3219C25.6252 38.0079 25.3756 38.4294 25.4696 39.0062C25.5636 39.5831 25.7824 39.4277 26.1107 39.4892C26.4389 39.5523 27.0954 39.4262 27.5007 39.66C27.9076 39.8938 29.1405 40.0968 29.4533 39.9507C29.7662 39.8046 29.6829 39.5969 29.2653 39.4308C28.8492 39.2647 28.3591 38.9324 27.9631 38.5263C27.567 38.1202 27.2233 38.111 27.1817 37.4142C27.1401 36.7174 27.1185 34.8777 27.1185 34.8777L27.3898 34.8669C27.3898 34.8669 27.453 31.6136 27.453 30.5846C27.453 29.5555 27.5778 29.3678 27.5778 28.5895C27.5778 27.8112 27.6718 26.2837 27.6718 26.2837C27.6718 26.2837 28.3591 26.3899 28.5471 26.2837C28.7352 26.1776 29.1929 26.2837 29.1929 26.2837C29.1929 26.2837 29.6722 27.0298 29.7554 27.0928C29.4425 28.3188 29.0896 28.9018 29.4641 28.9633C29.8386 29.0264 31.9422 28.9848 32.8592 28.8387C33.7761 28.6926 33.9426 28.6926 34.317 28.1942C34.6915 27.6958 35.6917 26.3853 35.8998 25.9899C36.1078 25.5946 36.2742 24.4102 36.2326 23.8272C36.191 23.2442 36.0246 23.1197 36.1278 22.8289C36.2326 22.5382 36.3575 21.8106 36.3575 21.8106L36.0662 21.603L36.1078 21.26C36.1078 21.26 37.0926 21.0723 37.5611 20.5585L37.5595 20.5632ZM32.3968 27.119C32.3968 27.119 31.147 26.5545 31.1778 26.5575C32.1456 26.6514 32.8961 26.1438 32.9424 26.0976C32.9886 26.0515 32.3953 27.119 32.3953 27.119H32.3968Z" fill="white"/>
</svg>
