<svg width="30" height="30" viewBox="0 0 30 30" fill="none" xmlns="http://www.w3.org/2000/svg">
<g id="Frame 2117">
<g id="&#240;&#159;&#166;&#134; emoji &#34;loudly crying face&#34;">
<g id="Group">
<path id="Vector" d="M10.3438 25.4796C12.724 25.4796 14.6535 25.2481 14.6535 24.9625C14.6535 24.6769 12.724 24.4453 10.3438 24.4453C7.96367 24.4453 6.03418 24.6769 6.03418 24.9625C6.03418 25.2481 7.96367 25.4796 10.3438 25.4796Z" fill="#65B1EF"/>
<path id="Vector_2" d="M19.4803 25.6865C22.9077 25.6865 25.6862 25.4086 25.6862 25.0659C25.6862 24.7232 22.9077 24.4453 19.4803 24.4453C16.0529 24.4453 13.2744 24.7232 13.2744 25.0659C13.2744 25.4086 16.0529 25.6865 19.4803 25.6865Z" fill="#65B1EF"/>
</g>
<path id="Vector_3" d="M15.3432 25.6863C21.0555 25.6863 25.6863 21.0555 25.6863 15.3432C25.6863 9.63079 21.0555 5 15.3432 5C9.63079 5 5 9.63079 5 15.3432C5 21.0555 9.63079 25.6863 15.3432 25.6863Z" fill="#FFDD67"/>
<path id="Vector_4" d="M19.7219 20.1702C19.2392 18.929 18.0669 18.1016 15.3432 18.1016C12.5851 18.1016 11.4473 18.929 10.9646 20.1702C10.7233 20.8253 11.0681 21.8941 11.0681 21.8941C11.5163 23.2387 11.4473 23.6179 15.3432 23.6179C19.2392 23.6179 19.1702 23.2387 19.6184 21.8941C19.6184 21.8941 19.9977 20.8253 19.7219 20.1702Z" fill="#664E27"/>
<path id="Vector_5" d="M18.4461 19.8234C18.4806 19.7199 18.4461 19.6165 18.3772 19.5476C18.3772 19.5476 17.6876 18.7891 15.3432 18.7891C12.9987 18.7891 12.3092 19.5476 12.3092 19.5476C12.2402 19.582 12.2402 19.7199 12.2402 19.8234L12.3092 20.0302C12.3437 20.1337 12.4126 20.2026 12.4816 20.2026H18.2048C18.2737 20.2026 18.3772 20.1337 18.3772 20.0302L18.4461 19.8234Z" fill="white"/>
<path id="Vector_6" d="M19.6531 25.1687H21.9976C24.8247 21.7555 21.4804 18.2733 22.3079 14.8945C21.5149 14.8945 20.7219 15.7565 19.9634 15.7565C18.8602 19.0318 22.4803 21.7555 19.6531 25.1687ZM11.0338 25.1687H8.6894C5.86227 21.7555 9.20656 18.2733 8.37911 14.8945C9.17208 14.8945 9.96506 15.7565 10.7236 15.7565C11.8268 19.0318 8.20672 21.7555 11.0338 25.1687Z" fill="#65B1EF"/>
<path id="Vector_7" d="M18.3418 10.6182C19.3761 11.6525 20.8241 12.1697 22.2722 12.0318C22.479 11.9973 22.5825 12.7558 22.3411 12.7903C20.6517 12.9282 18.9968 12.3421 17.8246 11.1354C17.6178 10.963 18.2039 10.4803 18.3418 10.6182ZM8.44683 12.0318C9.89487 12.1697 11.3429 11.6525 12.3772 10.6182C12.5151 10.4803 13.1012 10.963 12.9289 11.1354C11.7566 12.3421 10.0673 12.9282 8.41235 12.7903C8.10206 12.7903 8.23996 12.0318 8.44683 12.0318Z" fill="#917524"/>
<path id="Vector_8" d="M16.6874 14.7549C18.1355 17.5131 21.066 17.5131 22.5141 14.7549C22.583 14.617 22.4106 14.5481 22.1693 14.4102C20.7213 15.5479 18.3423 15.4445 17.0322 14.4102C16.8253 14.5481 16.6185 14.617 16.6874 14.7549ZM8.17157 14.7549C9.61961 17.5131 12.5502 17.5131 13.9982 14.7549C14.0672 14.617 13.8948 14.5481 13.6534 14.4102C12.2054 15.5479 9.82648 15.4445 8.51634 14.4102C8.275 14.5481 8.10262 14.617 8.17157 14.7549Z" fill="#664E27"/>
</g>
</g>
</svg>
