<svg width="30" height="30" viewBox="0 0 30 30" fill="none" xmlns="http://www.w3.org/2000/svg">
<g id="Frame 2124">
<g id="&#240;&#159;&#166;&#134; emoji &#34;grinning face with smiling eyes&#34;">
<path id="Vector" d="M15.3432 25.6863C21.0555 25.6863 25.6863 21.0555 25.6863 15.3432C25.6863 9.63079 21.0555 5 15.3432 5C9.63079 5 5 9.63079 5 15.3432C5 21.0555 9.63079 25.6863 15.3432 25.6863Z" fill="#FFDD67"/>
<path id="Vector_2" d="M14.1361 13.9282C13.481 12.1698 12.5157 11.2734 11.5503 11.2734C10.5849 11.2734 9.61958 12.1698 8.96451 13.9282C8.89556 14.1006 9.24033 14.4109 9.41272 14.2385C10.0333 13.5834 10.7918 13.3076 11.5503 13.3076C12.3088 13.3076 13.0673 13.5834 13.6879 14.2385C13.8947 14.4453 14.205 14.1006 14.1361 13.9282ZM21.6866 13.9282C21.0315 12.1698 20.0662 11.2734 19.1008 11.2734C18.1354 11.2734 17.1701 12.1698 16.515 13.9282C16.4461 14.1006 16.7908 14.4109 16.9632 14.2385C17.5838 13.5834 18.3423 13.3076 19.1008 13.3076C19.8593 13.3076 20.6178 13.5834 21.2384 14.2385C21.4108 14.4453 21.7555 14.1006 21.6866 13.9282ZM22.9278 17.2035C22.9278 16.9277 22.7209 16.5829 22.1003 16.4795C20.5833 16.2726 18.2734 16.0313 15.3428 16.0313C12.4122 16.0313 10.1023 16.2726 8.58526 16.4795C7.99915 16.5829 7.75781 16.9277 7.75781 17.2035C7.75781 20.5133 8.96451 21.5476 13.8947 21.5476H16.7908C21.7211 21.5476 22.9278 20.5133 22.9278 17.2035Z" fill="#664E27"/>
<path id="Vector_3" d="M21.1699 17.4812C21.2389 17.3088 21.1355 17.1364 20.9976 17.1019C20.9976 17.1019 18.4462 16.7227 15.3433 16.7227C12.2404 16.7227 9.68904 17.1019 9.68904 17.1019C9.51666 17.1364 9.4477 17.3088 9.51666 17.4812L9.89591 18.481C9.96486 18.6534 10.1717 18.7913 10.3441 18.7913H20.377C20.5494 18.7913 20.7562 18.6534 20.8252 18.481L21.1699 17.4812ZM15.3433 20.8599C17.5498 20.8599 20.6873 20.8599 20.5838 20.1359C20.5838 19.998 20.5494 19.8601 20.4804 19.6877C20.4114 19.5153 20.377 19.4464 19.9977 19.4464H10.6544C10.2752 19.4464 10.2407 19.4808 10.1717 19.6877C10.1372 19.8601 10.1028 19.998 10.0683 20.1359C9.99934 20.8599 13.1368 20.8599 15.3433 20.8599Z" fill="white"/>
</g>
</g>
</svg>
