<svg width="30" height="30" viewBox="0 0 30 30" fill="none" xmlns="http://www.w3.org/2000/svg">
<g id="Frame 2116">
<g id="&#240;&#159;&#166;&#134; emoji &#34;face with tears of joy&#34;">
<path id="Vector" d="M15.3432 25.6863C21.0555 25.6863 25.6863 21.0555 25.6863 15.3432C25.6863 9.63079 21.0555 5 15.3432 5C9.63079 5 5 9.63079 5 15.3432C5 21.0555 9.63079 25.6863 15.3432 25.6863Z" fill="#FFDD67"/>
<path id="Vector_2" d="M21.4455 16.172C21.3076 15.9996 21.0663 16.0341 20.7905 16.0341H9.89567C9.61985 16.0341 9.37851 15.9996 9.2406 16.172C7.89599 17.8958 9.48194 22.9295 15.3431 22.9295C21.2042 22.9295 22.7901 17.8958 21.4455 16.172Z" fill="#664E27"/>
<path id="Vector_3" d="M15.9633 18.6875C15.7565 18.6875 15.4462 18.8599 15.5841 19.377C15.653 19.6184 15.9978 19.9287 15.9978 20.3424C15.9978 21.1699 14.6877 21.1699 14.6877 20.3424C14.6877 19.9287 15.0325 19.6529 15.1014 19.377C15.2048 18.8944 14.8945 18.6875 14.7222 18.6875C14.1705 18.6875 13.3086 19.2736 13.3086 20.2734C13.3086 21.3767 14.2395 22.2731 15.3772 22.2731C16.515 22.2731 17.4459 21.3767 17.4459 20.2734C17.4114 19.3081 16.515 18.722 15.9633 18.6875Z" fill="#4C3526"/>
<path id="Vector_4" d="M12.6885 21.7892C13.447 22.134 14.3434 22.3064 15.3432 22.3064C16.3431 22.3064 17.2395 22.0995 17.998 21.7892C17.2739 21.41 16.3775 21.2031 15.3432 21.2031C14.3089 21.2031 13.4125 21.41 12.6885 21.7892Z" fill="#FF717F"/>
<path id="Vector_5" d="M20.5143 16.7227H10.2056C9.48159 16.7227 9.48159 18.1017 10.1711 18.1017H20.5143C21.2038 18.1017 21.2038 16.7227 20.5143 16.7227Z" fill="white"/>
<path id="Vector_6" d="M24.7906 17.0342C27.3075 19.6889 23.8942 23.2745 21.3774 20.6198C19.5501 18.6891 19.4467 15 19.4467 15C19.4467 15 22.9633 15.1034 24.7906 17.0342ZM9.31037 20.6198C6.79354 23.2745 3.3803 19.6889 5.89713 17.0342C7.72442 15.1034 11.2411 15 11.2411 15C11.2411 15 11.1377 18.6891 9.31037 20.6198Z" fill="#65B1EF"/>
<path id="Vector_7" d="M14.1366 14.2055C13.4816 12.4472 12.5162 11.5508 11.5508 11.5508C10.5855 11.5508 9.62011 12.4472 8.96505 14.2055C8.89609 14.3779 9.24086 14.6882 9.41325 14.5158C10.0338 13.8608 10.7923 13.5849 11.5508 13.5849C12.3093 13.5849 13.0678 13.8608 13.6884 14.5158C13.8953 14.6882 14.2056 14.3779 14.1366 14.2055ZM21.6871 14.2055C21.0321 12.4472 20.0667 11.5508 19.1013 11.5508C18.136 11.5508 17.1706 12.4472 16.5155 14.2055C16.4466 14.3779 16.7914 14.6882 16.9638 14.5158C17.5843 13.8608 18.3428 13.5849 19.1013 13.5849C19.8598 13.5849 20.6183 13.8608 21.2389 14.5158C21.4113 14.6882 21.7561 14.3779 21.6871 14.2055Z" fill="#664E27"/>
</g>
</g>
</svg>
