<svg width="50" height="50" viewBox="0 0 50 50" fill="none" xmlns="http://www.w3.org/2000/svg">
<path d="M35.2811 30.1648C35.2089 29.79 35.0039 29.4523 34.7729 29.1473C34.6184 28.9435 34.4466 28.7454 34.2257 28.6129C33.9384 28.4404 33.5876 28.3906 33.2527 28.4219C32.9177 28.4533 32.5943 28.5587 32.2796 28.677C31.679 28.9022 31.0986 29.1772 30.5457 29.5007C29.9075 29.8741 29.2795 30.3216 28.5504 30.4427C28.4046 29.4737 28.2689 28.506 28.1332 27.5369C28.4537 26.8272 28.7049 26.0904 28.9417 25.3494C29.1871 24.5798 29.4196 23.8031 29.5351 23.005C29.652 22.207 29.6491 21.3832 29.4326 20.6051C29.2983 20.1249 28.8305 19.8213 28.4133 19.5805C27.9239 19.2983 27.3594 19.2612 26.8237 19.0902C26.3011 18.9235 25.7323 18.9862 25.2443 18.6898C25.1938 18.6598 25.1389 18.6242 25.0826 18.6C25.1837 18.5031 25.2703 18.3891 25.3439 18.2708C25.4897 18.0342 25.5966 17.7762 25.7005 17.5197C26.0196 16.7373 26.2766 15.9378 26.5437 15.1355C26.6086 14.9403 26.6736 14.745 26.7039 14.5426C26.7342 14.3403 26.727 14.1279 26.6519 13.937C26.6101 13.8301 26.548 13.7346 26.483 13.6405C26.6029 13.5622 26.7487 13.5237 26.8902 13.5379C26.779 13.518 26.6707 13.4838 26.5581 13.4795C26.5234 13.4795 26.4888 13.4795 26.4541 13.4866C26.5653 13.3883 26.6967 13.3128 26.8396 13.2714C26.7039 13.2828 26.5668 13.3085 26.4455 13.3698C26.4094 13.3869 26.3762 13.4082 26.3444 13.4325C26.3978 13.223 26.4902 13.0235 26.6173 12.8482C26.5003 12.9494 26.3935 13.0691 26.3156 13.2016C26.317 13.1802 26.3199 13.1603 26.3199 13.1389C26.3285 12.9921 26.3213 12.8396 26.2578 12.7071C26.2679 12.8653 26.2506 13.0249 26.2087 13.1774C26.2044 13.1574 26.2001 13.136 26.1986 13.1161C26.1928 13.0035 26.1712 12.9166 26.0932 12.8268C26.0846 12.8168 26.0744 12.8068 26.0658 12.7969C26.0557 12.757 26.0412 12.7185 26.0225 12.6814C25.9662 12.5717 25.8738 12.4805 25.7612 12.4263C25.7164 12.405 25.6688 12.3879 25.6255 12.3636C25.5287 12.3081 25.4609 12.2083 25.445 12.0986C25.4334 12.1826 25.4334 12.2724 25.4811 12.3437C25.5157 12.3964 25.5706 12.4306 25.6096 12.4791C25.6182 12.4905 25.6269 12.5019 25.6341 12.5133C25.4854 12.4292 25.3353 12.3465 25.1866 12.2624C25.048 12.1855 24.905 12.1057 24.7477 12.0829C24.7101 12.0772 24.6711 12.0758 24.6336 12.0758C24.5571 12.0444 24.4777 12.0216 24.3954 12.0088C24.2886 11.9931 24.1759 11.9974 24.0734 12.0302C24.1399 12.0487 24.2005 12.0786 24.2568 12.1171C24.2424 12.1185 24.2279 12.1214 24.2135 12.1228C23.763 12.1741 23.2808 12.0615 22.8694 12.2482C22.6297 12.3565 22.4435 12.5574 22.3092 12.7812C22.1749 13.0049 22.0898 13.2543 22.0075 13.5009C21.9194 13.7674 21.8328 14.0353 21.7981 14.3132C21.7895 14.3788 21.7851 14.4457 21.7837 14.5127C21.7736 14.4999 21.7635 14.4871 21.7534 14.4757C21.736 14.4557 21.7173 14.4358 21.6913 14.4315C21.6321 14.4201 21.5946 14.4928 21.5787 14.5498C21.4906 14.8747 21.4199 15.2096 21.4444 15.5459C21.4646 15.8281 21.5599 16.1117 21.7433 16.3269C21.7375 16.3925 21.736 16.4609 21.7303 16.5278C21.687 17.1378 21.6422 17.7492 21.5989 18.3591C21.5917 18.466 21.583 18.5757 21.5426 18.6755C21.4733 18.8422 21.326 18.9563 21.1874 19.0774C21.0979 19.0646 21.007 19.056 20.916 19.0517C20.7991 19.0475 20.6807 19.0517 20.571 19.0874C20.428 19.1344 20.3096 19.2299 20.197 19.3296C19.9574 19.5406 19.7553 19.7914 19.5113 19.9952C19.2702 20.1975 18.9785 20.3315 18.6912 20.4569C18.2956 20.6293 17.8813 20.7989 17.5868 21.111C17.1638 21.5599 17.0641 22.234 17.1782 22.8369C17.2995 23.4767 17.6388 24.0154 17.9246 24.5869C18.235 25.2054 18.5541 25.8211 18.9266 26.4054C19.0984 26.6747 19.286 26.9441 19.517 27.1621C19.6571 27.5526 19.8101 27.9388 19.9141 28.3393C20.0397 28.8224 20.0916 29.3368 19.9617 29.8171C19.5214 29.4822 19.0724 29.1587 18.6017 28.8651C17.9376 28.4504 17.158 28.0856 16.3928 28.258C15.9871 28.3492 15.6248 28.5986 15.3837 28.9307C15.105 29.3169 15.0314 29.8314 15.0068 30.2945C14.9895 30.6038 14.9996 30.9202 15.1021 31.2123C15.1945 31.4745 15.3577 31.7054 15.5367 31.9206C15.85 32.2968 16.2124 32.6317 16.6152 32.9125C17.0078 33.1875 17.4352 33.4113 17.8293 33.6849C18.3144 34.0212 18.7548 34.4345 19.2471 34.7523C19.1792 34.7951 19.1171 34.8435 19.0594 34.9005C18.941 35.016 18.8515 35.157 18.7721 35.301C18.5757 35.6615 18.4415 36.0563 18.3722 36.4596C18.3289 36.7133 18.3086 36.9741 18.3649 37.2249C18.4213 37.4757 18.5599 37.7151 18.7793 37.8548C18.8934 37.9261 19.0363 37.9688 19.1633 37.9232C19.5416 37.7864 19.8895 37.7337 20.2779 37.6254C20.6951 37.5085 21.1355 37.5028 21.5686 37.4814C22.198 37.4501 22.829 37.3845 23.4584 37.3888C23.5566 37.4985 23.6634 37.5997 23.789 37.6767C24.0287 37.8235 24.3174 37.8705 24.5975 37.9047C24.8877 37.9417 25.1793 37.9688 25.471 37.9959C25.5172 38.0002 25.5648 38.0044 25.6081 37.9902C25.6933 37.9617 25.7366 37.8719 25.7886 37.7992C25.868 37.6866 25.9777 37.6011 26.0817 37.5099C26.4859 37.557 26.8902 37.604 27.2958 37.6496C27.4186 37.6638 27.5413 37.6781 27.6654 37.6724C27.6741 37.6923 27.6828 37.7137 27.6943 37.7337C27.7203 37.7836 27.7506 37.8334 27.7983 37.8619C27.8517 37.8947 27.9181 37.8961 27.9816 37.8961C28.1505 37.8961 28.318 37.8919 28.4869 37.8833C28.689 37.8733 28.8363 37.9004 29.0384 37.8947C29.6015 37.8805 30.1602 37.7836 30.7218 37.7893C31.3628 37.7964 32.0082 37.9389 32.6391 37.8263C32.821 37.7935 33.0014 37.7394 33.1516 37.6339C33.4707 37.413 33.6064 36.994 33.5659 36.6121C33.5255 36.2287 33.335 35.8767 33.1112 35.5618C32.9495 35.3352 32.7632 35.1186 32.5164 34.9875C32.268 34.8549 31.975 34.8207 31.6949 34.8506C31.4148 34.8806 31.1448 34.9718 30.8835 35.0772C30.7175 35.1442 30.5413 35.2198 30.3638 35.1913C30.2656 35.1756 30.1761 35.1285 30.0895 35.0829C30.0606 35.0687 30.0317 35.053 30.0043 35.0388C30.7824 34.6084 31.5563 34.1723 32.3243 33.7234C32.8383 33.4227 33.3537 33.1148 33.7984 32.7187C34.2228 32.3424 34.6848 32.0503 34.9909 31.5572C35.2479 31.1425 35.3807 30.6408 35.2869 30.1634L35.2811 30.1648Z" fill="white"/>
</svg>
