<svg width="30" height="30" viewBox="0 0 30 30" fill="none" xmlns="http://www.w3.org/2000/svg">
<g id="Frame 2126">
<g id="&#240;&#159;&#166;&#134; emoji &#34;clapping hands sign&#34;">
<path id="Vector" d="M21.0573 13.3719C21.0573 13.3719 19.3901 12.0011 18.5009 10.6674C18.1675 10.1857 17.0931 10.2598 16.7226 11.186L10.943 13.409L7.12691 11.3713C6.53413 11.0008 5.7561 11.2601 5.42266 11.9641C5.08922 12.631 5.27446 13.4831 5.90429 13.8536L6.49708 14.187C5.97839 14.1129 5.42266 14.3723 5.16332 14.8909C4.82987 15.5578 5.01512 16.41 5.64495 16.7804L6.97871 17.5585C6.38593 17.188 5.6079 17.4473 5.27446 18.1513C4.94102 18.8181 5.12627 19.6703 5.7561 20.0408C5.7561 20.0408 12.462 24.1902 14.759 25.4129C16.5744 26.4132 20.1681 26.8948 22.4281 24.1532C23.1691 23.1899 21.0573 13.3719 21.0573 13.3719Z" fill="#D99B57"/>
<g id="Group">
<path id="Vector_2" d="M23.8358 13.3729C22.6502 12.5578 21.8351 11.4834 21.2423 9.85324C21.0201 9.29751 20.205 9.18636 19.7233 10.1126C19.0194 11.4463 19.6863 12.5208 20.0568 13.0024L20.242 13.2247C20.242 13.2247 20.3532 13.6322 20.5384 14.1139C19.5381 13.8916 18.4266 14.4473 17.6486 15.4847C16.8335 16.5591 14.907 18.4116 14.0919 19.486C13.0916 20.7827 13.3509 22.6351 14.4624 23.4502C14.4624 23.4502 20.2791 27.7108 24.1322 22.4869C27.1702 18.4116 25.0213 14.188 23.8358 13.3729Z" fill="#FFDD67"/>
<path id="Vector_3" d="M21.8723 14.9288C22.4651 15.3734 22.6133 16.2255 22.1687 16.8924C21.7611 17.5593 20.909 17.7445 20.3162 17.2999L11.091 10.6681C10.4982 10.2236 10.35 9.37144 10.7946 8.70455C11.2022 8.03767 12.0543 7.85243 12.6471 8.29702L21.8723 14.9288Z" fill="#FFDD67"/>
</g>
<path id="Vector_4" d="M17.093 14.1865L11.2022 9.92586C10.8687 9.70357 10.6464 9.33308 10.7576 8.77734C10.3501 9.51832 10.6094 10.2593 11.091 10.6298L16.9818 14.8904C17.5746 15.335 17.6858 14.6311 17.093 14.1865Z" fill="#EBA352"/>
<path id="Vector_5" d="M18.8713 16.2275C19.4641 16.6721 19.6123 17.5243 19.1677 18.1911C18.7602 18.858 17.908 19.0433 17.3152 18.5987L8.09005 11.9299C7.49727 11.4853 7.34907 10.6332 7.79366 9.96627C8.2012 9.29939 9.05332 9.11415 9.64611 9.55873L18.8713 16.2275Z" fill="#FFDD67"/>
<path id="Vector_6" d="M15.3147 16.3725L8.20132 11.2227C7.86788 11.0004 7.64558 10.5559 7.75673 10.0742C7.34919 10.8152 7.57148 11.6303 8.09017 12.0008L15.2406 17.0765C15.7964 17.5211 15.9075 16.7801 15.3147 16.3725Z" fill="#EBA352"/>
<path id="Vector_7" d="M18.2795 19.1885C18.8723 19.6331 19.0205 20.4852 18.5759 21.1521C18.1684 21.819 17.3162 22.0042 16.7234 21.5596L7.49825 14.8908C6.90547 14.4462 6.75727 13.5941 7.20186 12.9272C7.6094 12.2603 8.46153 12.0751 9.05431 12.5197L18.2795 19.1885Z" fill="#FFDD67"/>
<path id="Vector_8" d="M13.9069 18.7445L7.60862 14.2245C7.27518 14.0022 7.05288 13.4835 7.20108 12.9648C6.71944 13.6688 6.90469 14.595 7.42337 14.9655L13.7958 19.4484C14.3886 19.893 14.4997 19.1891 13.9069 18.7445Z" fill="#EBA352"/>
<path id="Vector_9" d="M18.0198 22.5225C18.6126 22.9671 14.389 23.4117 13.7962 22.9671L7.2756 18.2619C6.68281 17.8173 6.53462 16.9652 6.97921 16.2983C7.38674 15.6314 8.23887 15.4462 8.83165 15.8908L18.0198 22.5225Z" fill="#FFDD67"/>
<path id="Vector_10" d="M25.6519 18.6698C25.6519 18.6698 25.0221 21.9301 22.4287 23.8937C20.1317 25.635 16.575 24.116 14.8707 23.0045C13.0923 21.7819 12.2032 21.1891 7.90549 17.9288C7.09041 17.299 6.86812 16.8915 6.97927 16.2246C6.34944 16.8915 6.68288 17.9288 7.20156 18.2993L7.64615 18.5957C7.64615 18.5957 12.796 22.3747 14.5373 23.5603C16.1304 24.6718 20.2428 26.4131 22.8362 24.3383C25.7631 22.0783 25.6519 18.6698 25.6519 18.6698ZM21.2431 14.4092C20.5021 13.6312 20.4651 12.5197 20.4651 12.5197L20.2798 12.2974C19.9835 11.9269 19.5018 11.1489 19.6871 10.2227C18.9831 11.5194 19.6871 12.5567 20.0205 13.0013L20.2057 13.2236C20.2057 13.2236 20.1687 13.5571 20.3539 13.8164L21.2431 14.4092Z" fill="#EBA352"/>
<path id="Vector_11" d="M17.4632 4L18.5747 8.51997L20.7606 4.33344L17.4632 4ZM22.9465 5.33376L21.2793 9.07571L25.1694 8.07539L22.9465 5.33376ZM14.6475 4.55573L15.6849 8.63112L12.2764 6.44523L14.6475 4.55573Z" fill="#42ADE2"/>
</g>
</g>
</svg>
