<svg width="30" height="30" viewBox="0 0 30 30" fill="none" xmlns="http://www.w3.org/2000/svg">
<g id="Frame 2125">
<g id="&#240;&#159;&#166;&#134; emoji &#34;thumbs up sign&#34;">
<path id="Vector" d="M14.9602 13.0498C14.9602 13.0498 13.1925 13.4113 14.6388 10.3983C15.6833 8.22894 15.5628 5.698 14.6388 4.37226C13.1122 2.24306 10.1795 2.92601 10.5009 4.1714C11.5454 8.38964 9.17515 9.67519 7.96994 12.3267C6.72456 15.0183 6.84508 18.875 7.40751 22.2897C7.76907 24.4189 8.69307 27.0704 12.0275 27.0704H16.6475L14.9602 13.0498Z" fill="#FFDD67"/>
<path id="Vector_2" d="M12.5497 26.467C9.21532 26.467 8.4922 23.8156 8.13064 21.6864C7.5682 18.2716 7.48786 15.5398 8.57255 12.7678C9.77776 9.75477 11.0231 9.67443 11.0231 3.72872C11.0231 3.4475 11.1838 3.24663 11.3445 3.08594C10.7821 3.28681 10.4607 3.6082 10.4607 4.09028C10.4607 8.54956 9.21533 9.63425 8.01011 12.3259C6.72456 15.0175 6.84508 18.8742 7.40751 22.289C7.76907 24.4182 8.69307 27.0696 12.0275 27.0696H16.6475V26.467H12.5497Z" fill="#EBA352"/>
<path id="Vector_3" d="M20.6644 16.5459H14.9597C12.951 16.5459 12.951 13.0508 14.9597 13.0508H20.6644C22.6731 13.0508 22.6731 16.5459 20.6644 16.5459Z" fill="#FFDD67"/>
<path id="Vector_4" d="M21.1064 15.9824H15.4017C14.0358 15.9824 13.6341 14.3754 14.076 13.3711C12.9913 14.2147 13.3127 16.585 14.9197 16.585H20.6645C21.3073 16.585 21.7492 16.2234 21.9902 15.7012C21.7492 15.8619 21.468 15.9824 21.1064 15.9824Z" fill="#EBA352"/>
<path id="Vector_5" d="M21.2672 20.081H14.4377C12.0273 20.081 12.0273 16.5859 14.4377 16.5859H21.3074C23.6776 16.5859 23.6776 20.081 21.2672 20.081Z" fill="#FFDD67"/>
<path id="Vector_6" d="M21.8295 19.4785H14.9598C13.3529 19.4785 12.8306 17.8715 13.393 16.8672C12.1075 17.7108 12.469 20.0811 14.4375 20.0811H21.3072C22.0705 20.0811 22.5928 19.7195 22.874 19.1973C22.5928 19.358 22.2312 19.4785 21.8295 19.4785Z" fill="#EBA352"/>
<path id="Vector_7" d="M20.6245 23.5732H14.8395C12.8308 23.5732 12.8308 20.0781 14.8395 20.0781H20.6245C22.6733 20.0781 22.6733 23.5732 20.6245 23.5732Z" fill="#FFDD67"/>
<path id="Vector_8" d="M21.1065 22.9718H15.2814C13.9155 22.9718 13.4735 21.3648 13.9556 20.3203C12.8709 21.164 13.1522 23.5342 14.8394 23.5342H20.6245C21.2672 23.5342 21.7092 23.1726 21.9502 22.6504C21.7493 22.8914 21.4279 22.9718 21.1065 22.9718Z" fill="#EBA352"/>
<path id="Vector_9" d="M20.0224 27.0693H16.2862C14.1168 27.0693 14.1168 23.5742 16.2862 23.5742H20.0224C22.1918 23.5742 22.1918 27.0693 20.0224 27.0693Z" fill="#FFDD67"/>
<path id="Vector_10" d="M20.5047 26.5069H16.7686C15.3223 26.5069 14.8402 24.9 15.3625 23.8555C14.1974 24.6991 14.5188 27.0694 16.2865 27.0694H20.0226C20.7458 27.0694 21.1877 26.7078 21.4287 26.1855C21.1877 26.3864 20.8663 26.5069 20.5047 26.5069Z" fill="#EBA352"/>
</g>
</g>
</svg>
