<svg width="30" height="30" viewBox="0 0 30 30" fill="none" xmlns="http://www.w3.org/2000/svg">
<g id="Frame 2123">
<g id="&#240;&#159;&#166;&#134; emoji &#34;pouting face&#34;">
<path id="Vector" d="M15.3432 25.6863C21.0555 25.6863 25.6863 21.0555 25.6863 15.3432C25.6863 9.63079 21.0555 5 15.3432 5C9.63079 5 5 9.63079 5 15.3432C5 21.0555 9.63079 25.6863 15.3432 25.6863Z" fill="#EF5350"/>
<path id="Vector_2" d="M18.4457 21.447C16.446 19.7921 14.2395 19.7921 12.2398 21.447C11.9985 21.6539 11.7916 21.3091 11.964 20.9988C12.5846 19.8266 13.7913 18.7578 15.3428 18.7578C16.8942 18.7578 18.1354 19.8266 18.7215 20.9988C18.8939 21.2746 18.6871 21.6194 18.4457 21.447Z" fill="#302424"/>
<path id="Vector_3" d="M7.82698 12.8945C7.30982 14.515 8.03385 16.3422 9.65427 17.0663C11.2402 17.8248 13.102 17.2387 14.0329 15.7906L11.6539 13.1359L7.82698 12.8945Z" fill="white"/>
<g id="Group">
<path id="Vector_4" d="M9.20662 13.2068C8.72394 14.2067 9.17215 15.4134 10.172 15.8616C11.1718 16.3443 12.3785 15.8961 12.8267 14.8962C13.1715 14.2412 9.51692 12.5518 9.20662 13.2068Z" fill="#302424"/>
<path id="Vector_5" d="M7.82715 12.8961C8.37878 12.5513 9.03385 12.3789 9.68892 12.3789C10.344 12.3789 10.999 12.5513 11.6196 12.8271C12.2057 13.1029 12.7574 13.5167 13.2056 13.9993C13.6193 14.5165 13.9641 15.1026 14.033 15.7577C13.5848 15.3095 13.1366 14.9302 12.654 14.5854C12.1713 14.2407 11.6886 13.9649 11.2059 13.758C10.6888 13.5167 10.1716 13.3443 9.61996 13.1719C8.99937 13.0685 8.44774 12.965 7.82715 12.8961Z" fill="#302424"/>
</g>
<path id="Vector_6" d="M22.8592 12.8945C23.3764 14.515 22.6523 16.3422 21.0319 17.0663C19.446 17.8248 17.5842 17.2387 16.6533 15.7906L19.0322 13.1359L22.8592 12.8945Z" fill="white"/>
<g id="Group_2">
<path id="Vector_7" d="M21.4809 13.2068C21.9636 14.2067 21.5154 15.4134 20.5156 15.8616C19.5157 16.3443 18.309 15.8961 17.8608 14.8962C17.516 14.2412 21.1706 12.5518 21.4809 13.2068Z" fill="#302424"/>
<path id="Vector_8" d="M22.8602 12.8961C22.3086 12.5513 21.6535 12.3789 20.9984 12.3789C20.3434 12.3789 19.6883 12.5513 19.0677 12.8271C18.4816 13.1029 17.93 13.5167 17.4817 13.9993C17.068 14.5165 16.7233 15.1026 16.6543 15.7577C17.1025 15.3095 17.5507 14.9302 18.0334 14.5854C18.5161 14.2407 18.9987 13.9649 19.4814 13.758C19.9986 13.5167 20.5157 13.3443 21.0674 13.1719C21.688 13.0685 22.2396 12.965 22.8602 12.8961Z" fill="#302424"/>
</g>
</g>
</g>
</svg>
