<svg width="50" height="50" viewBox="0 0 50 50" fill="none" xmlns="http://www.w3.org/2000/svg">
<path d="M33.2376 40.0368C33.1708 39.8466 32.7829 39.8029 32.6839 39.8362C32.5728 39.8736 32.6851 39.751 32.2834 39.6541C32.1097 39.6122 32.3304 39.3337 32.0533 39.3418C31.8486 39.3479 32.29 38.847 31.5089 38.6437C30.8826 38.4808 31.9353 38.4889 31.3391 37.2737C31.1358 36.8596 31.0416 36.436 31.1151 35.9786C31.2424 35.1862 30.8248 34.6466 30.6366 33.4934C30.5899 33.2082 30.633 32.6277 30.3813 32.0666C30.1599 31.5733 30.3421 31.4091 30.2223 30.9302C30.2214 30.9268 29.3993 27.7118 29.2954 26.586C29.243 26.0201 29.4857 26.3463 29.3463 25.8975C28.9525 24.632 29.2771 23.9779 29.4638 23.4449C29.499 23.344 30.2753 28.098 30.5348 28.5703C30.5956 28.6813 30.5499 28.7704 30.4782 28.8532C30.3731 28.9745 30.4315 29.239 30.5896 29.2914C30.9166 29.3999 30.7573 29.6286 31.3554 29.7011C31.6083 29.7318 31.8393 29.6768 31.8633 29.4483C31.9028 29.0724 32.0262 28.9802 31.8898 28.7128C31.62 28.1831 31.153 27.3511 31.187 26.3285C31.2427 24.6629 30.7676 24.2134 30.9931 23.4836C31.2018 22.8086 30.8889 22.4227 31.2442 21.5834C31.2557 21.5562 31.2638 21.508 31.2807 21.5051C31.4978 21.4687 31.433 21.3031 31.4511 21.1892C31.6261 20.0774 30.6812 19.1244 29.8751 18.902C29.5161 18.803 29.4532 18.5497 29.4671 18.2665C29.4839 17.9168 29.477 17.5653 29.558 17.2195C29.564 17.1944 29.7905 16.5507 29.8275 16.567C29.9799 16.633 30.0208 16.5942 30.2671 15.8702C30.3072 15.7526 30.2617 15.6842 30.1909 15.6844C30.197 15.6829 30.203 15.6813 30.2093 15.6803C30.2732 15.67 30.2385 15.675 30.2632 15.6315C30.2801 15.6019 30.2831 15.6095 30.259 15.5689C30.2415 15.5391 30.2551 15.51 30.2409 15.4796C30.2277 15.4505 30.2156 15.428 30.2217 15.395C30.2298 15.3887 30.2388 15.3832 30.2485 15.3787C30.2223 15.3518 30.2147 15.3394 30.2168 15.2923C30.2174 15.2789 30.2247 15.2737 30.2355 15.2729C30.2611 15.2996 30.2927 15.3227 30.3295 15.3358C30.3701 15.3512 30.4153 15.3505 30.4547 15.3405C30.3969 15.3447 30.3463 15.3245 30.3081 15.2926C30.3171 15.2957 30.3249 15.2981 30.3295 15.2978C30.3283 15.2355 30.2635 15.2119 30.2482 15.1535C30.2421 15.1309 30.2159 15.0165 30.2307 14.9986C30.2388 14.9981 30.2457 14.9994 30.2515 15.0018C30.2783 15.0558 30.3066 15.1123 30.3647 15.1461C30.312 15.0971 30.2984 15.0324 30.2719 14.9693C30.2692 14.9465 30.2668 14.9258 30.2668 14.9258C30.2725 14.9266 30.2783 14.9279 30.2837 14.9292C30.3156 14.9428 30.3457 14.9614 30.3725 14.985C30.4376 15.0395 30.4897 15.1108 30.5448 15.1783C30.5183 15.1228 30.4918 15.0665 30.4556 15.0136C30.4562 15.0107 30.4562 15.0078 30.4565 15.0049C30.4966 15.0319 30.5396 15.0565 30.5899 15.0649C30.5288 15.0408 30.4887 14.9963 30.4427 14.9533C30.4183 14.9138 30.3668 14.8842 30.3213 14.864C30.2725 14.8352 30.2211 14.8106 30.169 14.7888C30.1398 14.7768 30.1102 14.7652 30.0807 14.7545L30.0771 14.7621C30.0744 14.7582 30.072 14.754 30.0708 14.7493C30.1247 14.722 30.1632 14.6819 30.203 14.644C30.1593 14.6702 30.1163 14.6998 30.0711 14.7184C30.0663 14.7076 30.0509 14.7066 30.0244 14.7152C30.0226 14.6963 30.0118 14.6846 29.9913 14.6804C29.963 14.6712 29.9236 14.6466 29.9395 14.6172C29.9696 14.6162 30 14.6125 30.0292 14.6031C30.0726 14.59 30.1081 14.5588 30.122 14.5224C30.0747 14.5897 29.9859 14.5892 29.9097 14.5777C29.8718 14.5672 29.8254 14.5659 29.8124 14.5334C29.8251 14.5384 29.8389 14.5426 29.8552 14.5431C29.8778 14.5457 29.9028 14.5287 29.9073 14.5114C29.9187 14.4779 29.9118 14.4472 29.9064 14.4171C29.9046 14.447 29.9025 14.4797 29.8874 14.503C29.873 14.5263 29.8465 14.5125 29.8212 14.496C29.7718 14.4609 29.7293 14.4134 29.6869 14.3673C29.6658 14.344 29.645 14.3204 29.6233 14.2966C29.6125 14.2846 29.6017 14.2728 29.5896 14.2605C29.583 14.2542 29.5779 14.2484 29.5664 14.24C29.5484 14.2293 29.5472 14.2298 29.5366 14.2246C29.518 14.2162 29.4984 14.2091 29.4788 14.2028C29.4595 14.1897 29.44 14.1769 29.4198 14.1646C29.4571 14.1253 29.4541 14.0708 29.4475 14.0286C29.4442 14.0747 29.4297 14.1263 29.393 14.1486C29.2942 14.0912 29.1876 14.0457 29.0768 14.0119C29.1187 13.938 29.125 13.8607 29.1416 13.7858C29.1057 13.8589 29.0795 13.9396 29.0304 13.9982C28.9958 13.9888 28.9609 13.9804 28.926 13.9734C28.9049 13.9328 28.8754 13.8935 28.8468 13.8961C28.8417 13.8937 28.8359 13.8916 28.8296 13.8901C28.8161 13.8877 28.8043 13.8882 28.7941 13.8901C28.8064 13.8649 28.8194 13.8395 28.8314 13.8133C28.8612 13.7504 28.8826 13.6737 28.854 13.6077C28.8672 13.7151 28.7926 13.7931 28.739 13.8869C28.7354 13.8848 28.7314 13.8827 28.7275 13.8814C28.7152 13.8439 28.7043 13.8065 28.7016 13.7669C28.7188 13.7578 28.736 13.7473 28.751 13.7326C28.7676 13.7145 28.7769 13.6978 28.7868 13.6794C28.8058 13.6433 28.8179 13.6053 28.8272 13.5673C28.8088 13.6024 28.7884 13.6367 28.764 13.6677C28.7396 13.7012 28.7143 13.7211 28.6739 13.7339C28.6634 13.7379 28.6522 13.7415 28.6408 13.7457C28.6694 13.6776 28.68 13.604 28.6649 13.5351C28.6604 13.6137 28.6312 13.6849 28.5863 13.7468C28.5821 13.7489 28.5776 13.7512 28.5722 13.7544C28.5571 13.7633 28.5432 13.7722 28.5303 13.7813C28.4978 13.6991 28.4348 13.6168 28.3406 13.5919C28.4291 13.6386 28.4659 13.7248 28.4842 13.8078C28.4848 13.8102 28.4851 13.8128 28.4857 13.8151C28.4656 13.8319 28.4466 13.8497 28.4261 13.8701C28.4114 13.8851 28.3885 13.9079 28.3638 13.9283C28.3511 13.9283 28.3388 13.9283 28.3261 13.9283C28.2774 13.9278 28.2265 13.9293 28.1759 13.9343C28.1166 13.9293 28.0572 13.9293 27.9988 13.932C28.0286 13.9369 28.0581 13.9419 28.088 13.9472C28.0624 13.9521 28.0371 13.9584 28.0124 13.966C27.9636 13.9796 27.9166 13.9933 27.869 13.9885C27.8212 13.9841 27.7739 13.9626 27.729 13.9401C27.7673 13.9713 27.8088 14.0022 27.8627 14.0163C27.9175 14.031 27.9747 14.0221 28.0253 14.0142C28.072 14.0053 28.1187 14.0011 28.1653 13.999C28.0584 14.0294 27.9564 14.0719 27.8627 14.1261C27.8435 14.1169 27.8236 14.1083 27.8016 14.1017C27.7643 14.0902 27.7354 14.0933 27.7043 14.0954C27.6751 14.0983 27.6474 14.1038 27.6206 14.1093C27.5983 14.0829 27.5767 14.0512 27.5544 14.037C27.5571 14.0438 27.5598 14.0504 27.5628 14.0569C27.5381 14.0237 27.5176 13.9875 27.5038 13.9482C27.5086 14.0082 27.5324 14.0663 27.5658 14.1195C27.5562 14.1211 27.5469 14.1221 27.5375 14.1229C27.4848 14.1297 27.4306 14.1117 27.396 14.0695C27.4171 14.1172 27.4761 14.1528 27.5375 14.1541C27.5553 14.1554 27.5728 14.1554 27.5899 14.1549C27.6026 14.1724 27.6164 14.1892 27.6306 14.2054C27.6435 14.2199 27.6571 14.2337 27.6715 14.2474C27.5989 14.2484 27.5237 14.2345 27.4502 14.2154C27.5104 14.2458 27.5785 14.2725 27.6504 14.2846C27.6372 14.2971 27.6242 14.31 27.6116 14.3233C27.5854 14.3307 27.5598 14.339 27.536 14.35C27.4951 14.359 27.4553 14.3686 27.4162 14.3755C27.3626 14.3851 27.309 14.3904 27.2569 14.3794C27.2048 14.3694 27.1569 14.3411 27.1172 14.3042C27.1464 14.348 27.1891 14.388 27.246 14.409C27.3023 14.431 27.3656 14.4331 27.424 14.4294C27.433 14.4289 27.4421 14.4281 27.4511 14.4271C27.4168 14.4517 27.3873 14.4784 27.3575 14.5036C27.2945 14.5575 27.2201 14.6089 27.1262 14.5958C27.1687 14.6107 27.2189 14.6117 27.2644 14.5979C27.3078 14.5858 27.346 14.5641 27.3815 14.5413L27.3837 14.546C27.3864 14.5421 27.39 14.5379 27.3942 14.5332C27.4297 14.5101 27.465 14.4836 27.4996 14.464C27.4773 14.4978 27.4568 14.5334 27.4382 14.5706C27.4261 14.5779 27.4138 14.5855 27.4014 14.5926C27.349 14.6235 27.34 14.6636 27.3017 14.7008C27.2954 14.7071 27.2885 14.7134 27.2813 14.7199C27.2331 14.7244 27.1855 14.7262 27.1443 14.7005C27.1671 14.7265 27.2063 14.7362 27.2418 14.739C27.2475 14.7396 27.253 14.7398 27.2587 14.7401C27.2391 14.7576 27.2192 14.776 27.2033 14.7954C27.1629 14.8438 27.2054 14.8538 27.206 14.8761C27.2015 14.8758 27.197 14.8753 27.1924 14.8745C27.1087 14.8582 27.0654 14.7611 27.0452 14.6764C27.0449 14.7215 27.0491 14.7676 27.0669 14.8124C27.0789 14.8444 27.1012 14.8774 27.1349 14.9002C27.1343 14.9198 27.1557 14.9318 27.1735 14.9494C27.1774 14.9533 27.1786 14.9586 27.178 14.9649C27.1428 14.9835 27.1054 14.9958 27.069 14.9913C27.047 14.968 27.0241 14.9455 26.9976 14.9261C26.997 14.9455 27.0106 14.9625 27.0277 14.9785C26.9744 14.9525 26.932 14.9028 26.8925 14.8551C26.9205 14.9117 26.9519 14.9709 27.016 15.0104C27.0365 15.0227 27.0618 15.0301 27.0877 15.0319C27.0937 15.0398 27.0973 15.0474 27.0967 15.0555C27.0925 15.0618 27.0874 15.0673 27.0822 15.0728C27.0798 15.0733 27.0771 15.0738 27.0747 15.0741C27.0172 15.084 26.9564 15.111 26.9193 15.1527C26.882 15.193 26.8543 15.2355 26.8206 15.2761C26.8633 15.2436 26.9019 15.2053 26.9431 15.1747C26.9576 15.1637 26.9729 15.155 26.9889 15.1482C26.9787 15.1592 26.9705 15.1718 26.9657 15.1867C26.9344 15.2182 26.9091 15.2538 26.8928 15.292C26.9341 15.2362 26.9877 15.1977 27.0473 15.1681C27.0467 15.1731 27.0458 15.1778 27.0452 15.1828C27.0322 15.2611 27.0154 15.3405 26.972 15.4049C26.9503 15.4366 26.9196 15.4631 26.8796 15.4754C26.8395 15.4882 26.7935 15.4867 26.7489 15.4783C26.7902 15.4953 26.8371 15.5068 26.8865 15.4998C26.9359 15.4935 26.9811 15.4654 27.0115 15.4306C27.0458 15.3913 27.0684 15.3473 27.0846 15.3017C27.0831 15.3342 27.0786 15.3656 27.0624 15.3942C27.0491 15.4172 27.0024 15.4956 26.9859 15.5482C26.9832 15.5506 26.9802 15.5527 26.9774 15.555C26.9422 15.5815 26.9046 15.609 26.8573 15.6158C26.9007 15.6187 26.9425 15.6022 26.9802 15.5833C26.9805 15.587 26.9817 15.5901 26.9832 15.5925C26.9817 15.5904 26.9817 15.5865 26.9832 15.5818C26.9871 15.5799 26.9907 15.5778 26.9946 15.576C27.0365 15.5535 27.0753 15.527 27.112 15.499C27.1208 15.4922 27.1295 15.4854 27.1382 15.4785C27.15 15.5288 27.1599 15.5723 27.1437 15.6323C27.0253 15.5613 26.9928 15.6213 27.0061 15.7051C27.0184 15.7824 27.1129 16.354 27.2286 16.4562C27.3126 16.5306 27.5959 17.3107 27.6014 17.3539C27.6447 17.7096 27.1693 18.1371 26.9702 17.9006C26.3355 17.1467 26.1473 17.3785 26.0172 16.9554C25.9067 16.596 25.5956 16.6935 25.5387 16.3304C25.3999 15.4458 25.2689 15.1726 24.8699 14.6172C24.4372 14.0153 24.6263 13.2357 23.8055 11.4324C23.7191 11.2427 23.5998 10.8438 23.6284 10.5716L23.6854 10.5514C23.682 10.5294 23.6923 10.5074 23.7058 10.4883C23.7248 10.4621 23.7474 10.4341 23.7766 10.4184C24.0506 10.2696 24.1951 10.0003 24.4743 9.85595C24.5562 9.81351 24.6287 9.75588 24.6995 9.6993C24.7612 9.65005 24.838 9.59007 24.7751 9.51174C24.7179 9.44101 24.6224 9.43551 24.5288 9.46538C24.4138 9.50205 24.3207 9.56282 24.2337 9.63984C23.9621 9.87926 23.5824 9.83604 23.3867 9.54894C23.2785 9.39019 23.2114 9.21757 23.1569 9.0397C23.0485 8.68658 22.9235 8.33766 22.7606 8H22.6158C22.5297 8.09116 22.573 8.1873 22.6013 8.28317C22.6944 8.59726 22.7859 8.91134 22.8799 9.22516C22.8937 9.27153 22.9229 9.32209 22.854 9.34723C22.7886 9.37107 22.754 9.3213 22.7278 9.28148C22.5809 9.05935 22.4336 8.83721 22.293 8.61193C22.2033 8.46811 22.0907 8.33923 21.9735 8.21271C21.9247 8.15979 21.8657 8.12338 21.7868 8.16739C21.7004 8.21559 21.714 8.28003 21.7612 8.34395C21.9997 8.66615 22.1768 9.01638 22.377 9.35614C22.4092 9.41063 22.4893 9.48686 22.405 9.53636C22.3174 9.58797 22.2686 9.49576 22.2252 9.44494C22.006 9.18823 21.7919 8.92837 21.5742 8.67087C21.5387 8.62895 21.4993 8.58809 21.4544 8.55403C21.4092 8.52024 21.3535 8.51946 21.3056 8.55456C21.2617 8.58704 21.2656 8.62948 21.2903 8.66903C21.3249 8.7243 21.3629 8.77774 21.4014 8.83092C21.5884 9.08737 21.7769 9.3433 21.9627 9.60028C21.9871 9.63407 22.0383 9.67572 22.0078 9.71161C21.9636 9.76348 21.91 9.71004 21.8633 9.69511C21.6592 9.62962 21.52 9.48686 21.3601 9.36898C21.2954 9.3213 21.2331 9.27205 21.1542 9.24271C21.1066 9.2249 21.0596 9.21914 21.0247 9.26131C20.9952 9.2972 21.0087 9.33597 21.0398 9.36164C21.2261 9.51672 21.3529 9.72392 21.5869 9.83683C21.7332 9.90755 21.8437 10.0071 21.9323 10.13C22.1238 10.3961 22.2918 10.6748 22.5023 10.9305C22.9482 12.519 23.0211 13.9291 23.3433 14.7377C23.7314 15.7127 23.739 16.4368 23.7868 16.7915C23.8844 17.5129 23.7302 17.2687 23.8175 17.6727C23.9308 18.1969 24.0907 18.3247 24.0596 18.7098C24.0112 19.3117 24.3562 19.6093 24.371 19.9973C24.3915 20.5455 24.6284 21.7065 24.2262 22.9154C23.8943 23.9122 23.9196 24.3339 23.7185 24.8686C23.5646 25.277 23.3303 25.8053 23.4854 25.9769C23.7221 26.2386 21.7459 30.3819 21.7079 30.9302C21.6772 31.3703 21.5785 31.1605 21.1078 32.4179C20.7962 33.2509 21.0663 32.8496 20.9557 33.2962C20.7206 34.246 20.2186 35.176 20.1732 36.0326C20.1129 37.1689 19.5821 37.7869 19.4372 38.3362C19.2611 39.005 19.8202 38.9408 19.3252 39.2431C19.0476 39.4126 18.5778 39.5925 18.6077 40.2136C18.614 40.3423 18.5646 40.3886 18.4282 40.3973C18.3192 40.4041 18.2177 40.6414 18.3038 40.6752C18.4544 40.7339 18.2852 40.8648 18.0952 40.8795C17.7709 40.9047 17.9657 41.1218 17.8145 41.0975C17.6299 41.0676 17.4767 41.1653 17.3062 41.1918C17.0699 41.2287 17.0708 41.2337 17 41.4239V41.8451C17.2421 41.9444 17.5047 41.9499 17.7615 41.9669C18.7697 42.0334 19.1448 42.024 19.8862 41.7065C20.4198 41.4778 20.5218 41.5575 21.143 41.2981C21.405 41.1889 21.337 40.8724 21.5017 40.7834C21.6543 40.7006 22.4755 35.4557 25.3216 30.2497C25.7134 29.5332 26.4975 29.6073 26.7983 30.4611C27.0964 31.3069 27.0329 31.8607 27.4285 32.2625C27.845 32.6853 27.5276 32.9208 28.1105 33.7664C28.3292 34.0836 28.4553 35.9836 28.8612 36.568C28.9464 36.6906 28.9094 37.8076 29.408 39.3162C29.4358 39.3997 29.4613 39.4854 29.4722 39.5718C29.5134 39.8998 29.7811 39.9247 29.8429 40.0855C30.0551 40.6364 30.5186 40.479 31.0332 40.7831C31.6574 41.1522 33.0118 40.6288 33.346 40.4761V40.3708C33.2831 40.2671 33.2768 40.1481 33.2379 40.0379L33.2376 40.0368Z" fill="white"/>
</svg>
