<svg xmlns="http://www.w3.org/2000/svg" width="12" height="11" viewBox="0 0 12 11" fill="none">
  <path d="M6.39981 10.1673L6.04578 9.86231C5.00517 8.95744 4.14425 8.18475 3.46302 7.54423C2.7818 6.9037 2.2454 6.34197 1.85383 5.85904C1.46226 5.37611 1.18869 4.94147 1.03314 4.55512C0.877582 4.16877 0.799805 3.78242 0.799805 3.39608C0.799805 2.67422 1.05996 2.06674 1.58026 1.57364C2.10057 1.08053 2.74157 0.833984 3.50325 0.833984C4.07184 0.833984 4.60287 0.978865 5.09636 1.26863C5.58984 1.55839 6.02433 2.14146 6.39981 2.70065C6.77528 2.14146 7.36081 1.55839 7.8543 1.26863C8.34779 0.978865 8.79593 0.833984 9.36451 0.833984C10.1262 0.833984 10.699 1.08053 11.2193 1.57364C11.7397 2.06674 11.9998 2.67422 11.9998 3.39608C11.9998 3.78242 11.922 4.16877 11.7665 4.55512C11.6109 4.94147 11.3374 5.37611 10.9458 5.85904C10.5542 6.34197 10.0205 6.9037 9.34463 7.54423C8.66877 8.18475 7.80517 8.95744 6.75383 9.86231L6.39981 10.1673Z" fill="#FC2D7C"/>
</svg>