<svg width="50" height="50" viewBox="0 0 50 50" fill="none" xmlns="http://www.w3.org/2000/svg">
<path d="M32.5242 23.1352C32.4888 23.0195 32.4457 22.9065 32.4067 22.7917C32.3954 22.7585 32.3822 22.7266 32.3663 22.6965C32.36 22.6842 32.3532 22.6719 32.3455 22.6605C32.3491 22.6582 32.3518 22.6541 32.3504 22.6487C32.3445 22.6186 32.3423 22.589 32.3409 22.5589C32.34 22.5403 32.3396 22.5216 32.3391 22.5034C32.3391 22.4829 32.3382 22.4628 32.3377 22.4423C32.3994 22.4068 32.4167 22.3758 32.4167 22.3758L32.4131 22.2646C32.5433 22.1963 32.6109 22.1389 32.6109 22.1389C32.6435 21.6136 32.1091 18.2633 31.6554 16.9877L31.6467 16.9913C31.3278 16.2323 30.8609 15.6219 30.7479 15.4843C30.4875 15.1677 29.9313 14.3868 29.3414 13.8898C28.7516 13.3927 27.1759 11.5144 26.3628 11.1185C25.9245 10.9048 25.4518 11.0283 25.018 11.3208C24.6523 11.5672 23.95 11.9016 23.4695 12.0474C23.4436 12.0424 23.4169 12.0378 23.3892 12.0337C23.3883 12.0337 23.3869 12.0337 23.386 12.0333C23.3701 12.031 23.3533 12.0287 23.3365 12.0269C23.3288 12.026 23.3207 12.0251 23.3125 12.0242C23.2971 12.0224 23.2816 12.021 23.2658 12.0192C23.2431 12.0169 23.2195 12.0151 23.1954 12.0137C23.1846 12.0128 23.1732 12.0123 23.1619 12.0114C23.1419 12.0101 23.1215 12.0091 23.1002 12.0082C23.0906 12.0078 23.0811 12.0073 23.0711 12.0069C23.0398 12.0055 23.0076 12.0041 22.9736 12.0032C22.5639 11.9914 22.308 12.0515 22.1823 12.0925C22.1555 12.0501 22.1319 12.0087 22.1133 11.97C21.9772 11.6884 21.7608 11.5659 21.646 11.467C21.5712 11.2114 21.5807 11.1477 21.3248 10.8561C21.4668 10.7231 21.1188 10.5559 21.1188 10.5559C21.1238 10.5522 21.1279 10.5481 21.131 10.5445C21.1329 10.5422 21.1333 10.5404 21.1347 10.5381C21.1356 10.5363 21.1374 10.5344 21.1379 10.5322C21.1388 10.529 21.1388 10.5262 21.1388 10.5231C21.1388 10.5221 21.1392 10.5208 21.1388 10.5199C21.1388 10.5162 21.1369 10.5126 21.1356 10.5085C21.1356 10.508 21.131 10.5108 21.1306 10.5103C21.1283 10.5062 21.1206 10.5053 21.1174 10.5007C21.1174 10.5007 21.1174 10.5007 21.1174 10.5003C21.0766 10.4447 20.9228 10.3818 20.6828 10.3226C20.3389 10.2374 19.0403 9.5381 18.5145 10.5117C17.9219 10.4971 17.6406 10.9313 17.4759 11.4492C17.4705 11.467 17.4655 11.4834 17.4596 11.4998C17.4578 11.5048 17.456 11.5098 17.4542 11.5148C17.4501 11.5258 17.4465 11.5367 17.4424 11.5472C17.4401 11.5527 17.4378 11.5581 17.436 11.5636C17.4324 11.5732 17.4283 11.5827 17.4242 11.5918C17.422 11.5973 17.4197 11.6023 17.4174 11.6078C17.4133 11.6169 17.4092 11.6256 17.4056 11.6342C17.4034 11.6388 17.4011 11.6438 17.3988 11.6483C17.3947 11.657 17.3902 11.6656 17.3861 11.6743C17.3843 11.6779 17.382 11.682 17.3802 11.6857C17.3748 11.6957 17.3698 11.7053 17.3643 11.7144C17.3634 11.7162 17.3625 11.718 17.3612 11.7199C17.348 11.7426 17.3348 11.7631 17.3212 11.7823C17.3199 11.7841 17.319 11.7855 17.3176 11.7873C17.3122 11.795 17.3067 11.8023 17.3013 11.8096C17.2999 11.8114 17.2981 11.8133 17.2967 11.8155C17.2917 11.8224 17.2863 11.8287 17.2808 11.8351C17.2795 11.8369 17.2781 11.8383 17.2768 11.8401C17.2713 11.8465 17.2654 11.8529 17.26 11.8588C17.2591 11.8597 17.2582 11.8611 17.2573 11.862C17.2246 11.8971 17.1924 11.9235 17.162 11.944C17.1638 11.9426 17.1661 11.9417 17.1679 11.9404C17.1652 11.9422 17.1624 11.944 17.1597 11.9458C17.1583 11.9467 17.157 11.9472 17.1556 11.9481C17.1465 11.954 17.1375 11.9599 17.1284 11.965C17.1261 11.9663 17.1234 11.9677 17.1211 11.9691C17.1125 11.9736 17.1044 11.9782 17.0966 11.9823C17.0957 11.9827 17.0944 11.9836 17.0935 11.9841C17.0935 11.9841 17.0939 11.9841 17.0944 11.9836C17.0513 12.0046 17.0177 12.0155 17 12.0287C17.0935 12.0538 17.2636 12.0037 17.2636 12.0037C17.2636 12.0037 16.7682 12.9927 17.1652 13.5854C17.3317 13.9148 17.4047 14.2191 17.5572 14.4273C17.5735 14.9622 17.8766 15.2474 18.0213 15.2911C18.255 15.533 18.3707 15.4857 18.3707 15.4857C18.6651 15.6825 18.8743 15.6601 18.9319 15.6364C18.6642 15.4761 18.5276 15.1622 18.5276 15.1622C19.0018 15.6314 19.279 15.5226 19.5603 15.3194C19.5603 15.3194 19.6719 15.2911 19.7295 15.2351C19.8126 15.2155 19.9237 15.2169 20.0521 15.2893C20.0866 15.3084 20.1224 15.3276 20.1592 15.3458C20.1565 15.364 20.1533 15.3827 20.151 15.4014C20.1574 15.385 20.1624 15.3686 20.1678 15.3517C20.1764 15.3581 20.186 15.364 20.1964 15.3704C20.2096 15.3759 20.2227 15.3795 20.2368 15.3822C20.2885 15.405 20.3416 15.4264 20.396 15.4456C20.3752 15.4401 20.3625 15.4369 20.3625 15.4369C20.3625 15.4369 20.3997 15.4579 20.4596 15.482C20.519 15.5057 20.6016 15.5317 20.6869 15.5444C20.7295 15.5508 20.7726 15.5544 20.8135 15.5531C20.8339 15.554 20.8534 15.5503 20.872 15.5485C20.8906 15.5472 20.9078 15.5408 20.9237 15.5376C20.9396 15.5349 20.9532 15.5267 20.9654 15.5216C20.9723 15.5189 20.9781 15.5162 20.9836 15.513C20.9968 15.5103 21.0099 15.508 21.0226 15.5048C21.0485 15.5198 21.0716 15.5308 21.0934 15.5385C21.1079 15.5444 21.1224 15.549 21.1379 15.5522C21.1515 15.5549 21.166 15.5563 21.1801 15.5554C21.1873 15.5544 21.1946 15.5554 21.2014 15.5522C21.2082 15.5499 21.2154 15.5485 21.2222 15.5458L21.2413 15.5353C21.2477 15.5317 21.254 15.5276 21.2594 15.5235C21.2717 15.5148 21.2776 15.5007 21.2889 15.492L21.288 15.4898C21.2912 15.4834 21.2944 15.4756 21.298 15.4693C21.2985 15.4683 21.2985 15.467 21.2989 15.4665C21.3107 15.446 21.3243 15.4269 21.3416 15.4155C21.3647 15.4014 21.3974 15.4091 21.4296 15.4128C21.4618 15.4173 21.4958 15.4196 21.5285 15.4196C21.5612 15.42 21.5938 15.4205 21.6265 15.4205C21.6365 15.4205 21.6465 15.4205 21.6564 15.42C21.6129 15.5804 21.5285 15.9335 21.5947 16.0428C21.5975 16.0474 21.6011 16.0528 21.6052 16.0583C21.6065 16.0601 21.6084 16.062 21.6097 16.0642C21.6129 16.0683 21.6161 16.0724 21.6197 16.0765C21.622 16.0788 21.6238 16.0815 21.626 16.0838C21.6297 16.0879 21.6338 16.0925 21.6378 16.097C21.6401 16.0998 21.6433 16.1025 21.646 16.1057C21.6505 16.1102 21.6551 16.1153 21.6601 16.1203C21.6633 16.1235 21.666 16.1266 21.6692 16.1298C21.6741 16.1353 21.68 16.1408 21.6855 16.1462C21.6887 16.1494 21.6923 16.1531 21.6955 16.1563C21.7018 16.1622 21.7082 16.1686 21.7145 16.1749C21.7182 16.1781 21.7213 16.1818 21.725 16.185C21.7322 16.1918 21.7395 16.1986 21.7472 16.2059C21.7508 16.2096 21.7549 16.2128 21.7585 16.2164C21.7667 16.2241 21.7753 16.2319 21.7844 16.2401C21.788 16.2433 21.7912 16.2465 21.7948 16.2497C21.8053 16.2592 21.8166 16.2692 21.828 16.2793C21.8302 16.2811 21.832 16.2829 21.8343 16.2852C21.862 16.3098 21.8919 16.3358 21.9237 16.3631C21.9278 16.3667 21.9319 16.3699 21.9359 16.3736C21.9477 16.3836 21.9595 16.3936 21.9718 16.4041C21.9781 16.4096 21.9849 16.415 21.9913 16.4205C22.0017 16.4292 22.0117 16.4378 22.0221 16.4469C22.0303 16.4538 22.0385 16.461 22.0471 16.4679C22.0562 16.4756 22.0648 16.4829 22.0743 16.4907C22.0843 16.4989 22.0943 16.5075 22.1047 16.5162C22.1124 16.5225 22.1206 16.5294 22.1283 16.5358C22.1401 16.5458 22.1519 16.5558 22.1642 16.5658C22.1701 16.5704 22.1759 16.5754 22.1818 16.5804C22.1905 16.5872 22.2004 16.5927 22.2068 16.6014C22.4849 16.8264 22.827 17.1089 23.2036 17.4182C24.1945 18.2319 24.7086 18.9836 24.9794 19.1225C24.9826 19.3508 25.2276 19.4583 25.3932 19.5558C25.4209 20.6428 25.6087 21.6428 25.6645 21.9721C25.6654 21.9785 25.6668 21.9845 25.6677 21.9904C25.689 22.0081 25.709 22.0236 25.7281 22.0378L25.7476 22.1958C25.7476 22.1958 25.773 22.2068 25.812 22.2213C25.7929 22.2733 25.7607 22.3585 25.7108 22.4842C25.6269 22.6947 25.6292 22.9161 25.631 23.0942C25.631 23.1184 25.6314 23.1421 25.6314 23.1648C25.6314 23.353 25.5997 23.6792 25.5543 23.8464C25.5262 23.9507 25.5302 24.0341 25.5656 24.081C25.596 24.1211 25.6473 24.1311 25.7086 24.1079C25.8061 24.071 25.925 23.8833 25.9821 23.7835C25.998 23.9061 26.0325 24.1553 26.0683 24.2509C26.1133 24.3708 26.2153 24.5935 26.3496 24.8628C26.4363 25.0368 26.513 25.1307 26.5838 25.1493C26.8923 26.7808 27.3351 28.9953 27.5279 29.5498C27.5606 29.9639 27.6087 30.4677 27.6595 31.0017C27.7861 32.3329 27.9295 33.8417 27.9136 34.7155C27.8918 35.89 27.8705 35.9383 27.7902 36.1173L27.7793 36.1419C27.6867 36.3511 27.7303 36.6221 27.7321 36.6335L27.7348 36.6476L27.7484 36.6517C27.7484 36.6517 27.7775 36.6659 27.8564 36.7059C27.8201 36.8326 27.7357 37.0367 27.5393 37.1734C27.4953 37.2189 27.4458 37.2403 27.39 37.2745C27.3728 37.285 27.3551 37.2932 27.3369 37.3041C27.3297 37.3087 27.322 37.3119 27.3142 37.316C27.3029 37.3223 27.292 37.3287 27.2802 37.3351C27.2707 37.3406 27.2616 37.3456 27.2521 37.351C27.2421 37.3565 27.2326 37.3624 27.2226 37.3679C27.2108 37.3747 27.199 37.3811 27.1872 37.3879C27.1795 37.3925 27.1718 37.3966 27.1641 37.4012C27.0289 37.4786 26.8796 37.562 26.7321 37.6508C26.7285 37.6531 26.7249 37.6554 26.7212 37.6572C26.7022 37.6686 26.6831 37.68 26.6645 37.6918C26.6586 37.6955 26.6532 37.6991 26.6473 37.7023C26.6305 37.7128 26.6137 37.7232 26.5974 37.7337C26.591 37.7378 26.5842 37.7419 26.5779 37.7465C26.562 37.7565 26.5461 37.767 26.5307 37.777C26.5239 37.7816 26.5175 37.7857 26.5107 37.7902C26.4953 37.8007 26.4794 37.8112 26.4644 37.8212L26.4454 37.834C26.429 37.8453 26.4132 37.8563 26.3973 37.8677C26.3923 37.8713 26.3873 37.8745 26.3823 37.8781C26.3633 37.8918 26.3447 37.9055 26.3265 37.9191C26.3247 37.9205 26.3233 37.9214 26.322 37.9228C26.1582 38.0463 26.0221 38.1752 25.9436 38.3082C25.9436 38.3082 25.9436 38.3087 25.9436 38.3091C25.9381 38.3178 25.9336 38.3269 25.9286 38.336C25.9268 38.3392 25.9254 38.3424 25.9236 38.3456C25.9168 38.3592 25.9105 38.3729 25.905 38.3866C25.9027 38.392 25.9005 38.398 25.8982 38.4034C25.8959 38.4098 25.8937 38.4166 25.8914 38.423C25.8887 38.4321 25.886 38.4408 25.8837 38.4499C25.8823 38.4549 25.881 38.4599 25.8801 38.4654C25.8778 38.4768 25.876 38.4882 25.8746 38.4996C25.8746 38.5037 25.8737 38.5073 25.8733 38.5114C25.8719 38.5251 25.8714 38.5383 25.8714 38.5519C25.8714 38.5688 25.8733 38.5847 25.876 38.6007C25.9431 39.0599 26.7834 39.2362 27.5293 39.187C27.6101 39.1815 27.6895 39.1692 27.7675 39.1519C27.7611 39.1651 27.7548 39.1784 27.7498 39.1916C27.7475 39.197 27.7453 39.2025 27.7435 39.2075C27.7412 39.2139 27.7389 39.2207 27.7366 39.2276C27.7339 39.2367 27.7312 39.2453 27.7289 39.2544C27.7276 39.2595 27.7267 39.264 27.7253 39.269C27.723 39.2804 27.7212 39.2923 27.7199 39.3041C27.7199 39.3077 27.719 39.3118 27.7185 39.3155C27.7171 39.3292 27.7167 39.3428 27.7171 39.3565C27.7171 39.3733 27.719 39.3893 27.7217 39.4057C27.7888 39.8649 28.6291 40.0412 29.375 39.992C30.1468 39.941 30.8174 39.2804 30.9693 39.09L31.0451 39.2298C31.0451 39.2298 31.8169 39.0011 31.8677 38.6964C31.8727 38.6704 31.8772 38.6444 31.8813 38.618C31.9326 38.2941 31.9362 37.9305 31.9339 37.7479C32.0043 37.6964 32.0587 37.6417 32.0882 37.5879C32.1145 37.5397 32.1195 37.4936 32.1018 37.4545C32.061 37.3638 32.0415 36.8531 32.0233 36.3597C32.0088 35.9725 31.9938 35.5725 31.9675 35.3356C31.9521 35.198 31.9339 35.0987 31.9162 35.0025C31.8636 34.7174 31.8223 34.4918 31.9072 33.4873C32.0174 32.1798 31.8237 30.4404 31.6372 29.978C31.6817 29.8851 31.8446 29.527 31.7824 29.4331C31.6985 29.3069 31.5619 29.0145 31.5896 28.475C31.5991 28.2905 31.6082 27.9826 31.6191 27.6263C31.6377 27.0081 31.6603 26.2728 31.6935 25.8095C31.7148 25.8733 31.7552 25.9252 31.8296 25.9288C31.8391 25.9288 31.845 25.9206 31.8446 25.9124C31.9153 25.8874 31.9403 25.7789 31.9544 25.7133C31.9639 25.6705 31.9716 25.6272 31.9789 25.584C32.0006 25.5307 32.0247 25.4787 32.0496 25.4268C32.09 25.4004 32.1481 25.4127 32.188 25.3803C32.2343 25.343 32.2547 25.2887 32.2751 25.2345C32.2856 25.2072 32.2965 25.1799 32.3078 25.1525C32.3246 25.1366 32.3414 25.1202 32.3577 25.1033C32.3636 25.0979 32.369 25.0915 32.3749 25.086C32.3854 25.0751 32.3963 25.0641 32.4067 25.0532C32.414 25.0455 32.4212 25.0373 32.4285 25.0291C32.4371 25.0195 32.4457 25.0104 32.4539 25.0008C32.4621 24.9917 32.4698 24.9821 32.4775 24.973C32.4847 24.9644 32.4915 24.9557 32.4988 24.9466C32.507 24.9366 32.5147 24.9261 32.5219 24.9156C32.5283 24.907 32.5342 24.8988 32.5401 24.8901C32.5478 24.8792 32.5551 24.8678 32.5619 24.8569C32.5673 24.8487 32.5719 24.84 32.5768 24.8313C32.5837 24.8195 32.5905 24.8077 32.5968 24.7954C32.6013 24.7867 32.605 24.778 32.6091 24.7694C32.615 24.7566 32.6209 24.7443 32.6258 24.7316C32.6268 24.7298 32.6272 24.7284 32.6281 24.727V24.7261C32.6349 24.7083 32.6417 24.6901 32.6472 24.6714C32.6531 24.6509 32.6576 24.63 32.6621 24.6086C32.6635 24.6031 32.6644 24.5972 32.6653 24.5913C32.6685 24.5726 32.6717 24.5534 32.6739 24.5343C32.6739 24.532 32.6744 24.5298 32.6748 24.5275C32.6776 24.5061 32.6794 24.4842 32.6807 24.4623C32.6807 24.4569 32.6817 24.4514 32.6817 24.4464C32.6853 24.3903 32.6866 24.3339 32.6885 24.2792C32.6935 24.1443 32.7084 24.0099 32.7116 23.8751C32.7175 23.6154 32.5968 23.3803 32.5229 23.1371L32.5242 23.1352ZM22.5276 12.5226C22.5335 12.5235 22.5394 12.5249 22.5448 12.5258C22.5507 12.5267 22.5571 12.528 22.563 12.5294C22.5512 12.5271 22.5389 12.5249 22.5267 12.5226H22.5276ZM22.6396 12.5463C22.631 12.544 22.6224 12.5422 22.6138 12.5404C22.6097 12.5394 22.6056 12.5385 22.602 12.5376H22.6024C22.6065 12.5385 22.6102 12.5394 22.6138 12.5404C22.6233 12.5426 22.6328 12.5445 22.6424 12.5467C22.6415 12.5467 22.6406 12.5467 22.6396 12.5463ZM22.7041 12.5631L22.6954 12.5609C22.6927 12.5599 22.69 12.5595 22.6873 12.5586C22.6927 12.5599 22.6982 12.5618 22.7036 12.5631C22.7054 12.5636 22.7072 12.564 22.7091 12.5645C22.7113 12.565 22.7136 12.5659 22.7163 12.5663C22.7122 12.565 22.7077 12.564 22.7036 12.5627L22.7041 12.5631Z" fill="white"/>
</svg>
