<svg width="30" height="30" viewBox="0 0 30 30" fill="none" xmlns="http://www.w3.org/2000/svg">
<g id="Frame 2121">
<g id="&#240;&#159;&#166;&#134; emoji &#34;fire&#34;">
<path id="Vector" d="M25.3165 12.6563C25.3165 12.6563 24.1194 13.7736 22.0844 15.0903C21.5258 11.8583 19.9696 7.86805 16.937 3C16.937 3 15.9395 8.22717 12.6276 13.1351C11.1911 10.9006 10.5527 9.14492 10.5527 9.14492C0.178148 19.5594 8.797 26.9412 14.2237 26.9412C21.1666 26.9412 27.2717 23.5895 25.3165 12.6563Z" fill="#FF9D33"/>
<path id="Vector_2" d="M21.2067 21.9123C21.8053 20.5955 22.2442 18.8797 22.324 16.725C22.324 16.725 21.4861 17.4433 20.0496 18.361C19.6506 16.2063 18.5732 13.5728 16.4584 10.3008C16.4584 10.3008 15.7801 13.7723 13.4657 17.0841C12.4682 15.6078 12.0293 14.4107 12.0293 14.4107C10.3135 17.124 9.63515 19.2787 9.59524 20.9945C8.63759 20.6354 8.03906 20.3561 8.03906 20.3561C9.67505 25.2242 13.0667 26.3015 14.583 26.3015C17.2963 26.3015 20.0496 25.5035 22.7629 21.633C22.7629 21.5931 22.1644 21.7527 21.2067 21.9123Z" fill="#FFCE31"/>
<path id="Vector_3" d="M11.3106 19.7181C11.3106 19.7181 12.4279 21.2344 13.2658 20.8752C13.2658 20.8752 14.8619 18.3614 17.1762 16.9648C17.1762 16.9648 16.6974 20.7954 17.256 21.4738C17.9742 22.3915 19.9294 20.4762 19.9294 20.4762C19.9294 22.7506 17.4555 25.5837 15.221 25.5837C13.0663 25.5837 9.95393 23.1098 11.3106 19.7181Z" fill="#FFDF85"/>
<path id="Vector_4" d="M22.4436 9.42278C23.2815 8.22571 23.8401 6.94885 23.8401 6.94885C25.2367 9.26317 24.3988 10.6597 23.8002 11.0987C22.9623 11.7371 21.4859 10.8193 22.4436 9.42278ZM7.20098 9.02376C6.36304 7.62718 6.28323 5.87149 6.28323 5.87149C4.28813 8.86415 5.04627 10.54 5.7246 11.0189C6.60245 11.6972 8.11873 10.6597 7.20098 9.02376ZM11.8296 5.91139C11.9493 4.95374 11.5503 3.99609 11.5503 3.99609C13.4257 5.23306 13.4257 6.27051 13.1863 6.70944C12.8272 7.22816 11.7099 6.98875 11.8296 5.91139Z" fill="#FF9D33"/>
</g>
</g>
</svg>
