<svg width="30" height="30" viewBox="0 0 30 30" fill="none" xmlns="http://www.w3.org/2000/svg">
<g id="Frame 2122">
<g id="&#240;&#159;&#166;&#134; emoji &#34;smiling face with smiling eyes&#34;">
<path id="Vector" d="M15.3432 25.6863C21.0555 25.6863 25.6863 21.0555 25.6863 15.3432C25.6863 9.63079 21.0555 5 15.3432 5C9.63079 5 5 9.63079 5 15.3432C5 21.0555 9.63079 25.6863 15.3432 25.6863Z" fill="#FFDD67"/>
<g id="Group">
<path id="Vector_2" opacity="0.8" d="M21.8236 19.4812C23.3469 19.4812 24.5818 18.2463 24.5818 16.723C24.5818 15.1997 23.3469 13.9648 21.8236 13.9648C20.3003 13.9648 19.0654 15.1997 19.0654 16.723C19.0654 18.2463 20.3003 19.4812 21.8236 19.4812Z" fill="#FF717F"/>
<path id="Vector_3" opacity="0.8" d="M8.86071 19.4812C10.384 19.4812 11.6189 18.2463 11.6189 16.723C11.6189 15.1997 10.384 13.9648 8.86071 13.9648C7.33742 13.9648 6.10254 15.1997 6.10254 16.723C6.10254 18.2463 7.33742 19.4812 8.86071 19.4812Z" fill="#FF717F"/>
</g>
<g id="Group_2">
<path id="Vector_4" d="M19.6879 18.2046C16.8952 20.1698 13.7923 20.1353 10.9996 18.2046C10.6549 17.9633 10.379 18.377 10.5859 18.7562C11.4478 20.1353 13.1372 21.411 15.3438 21.411C17.5503 21.411 19.2397 20.1698 20.1016 18.7562C20.3085 18.377 20.0326 17.9633 19.6879 18.2046Z" fill="#664E27"/>
<path id="Vector_5" d="M14.1366 13.5844C13.4816 11.8261 12.5162 10.9297 11.5508 10.9297C10.5855 10.9297 9.62011 11.8261 8.96505 13.5844C8.89609 13.7568 9.24086 14.0671 9.41325 13.8947C10.0338 13.2397 10.7923 12.9638 11.5508 12.9638C12.3093 12.9638 13.0678 13.2397 13.6884 13.8947C13.8953 14.0671 14.2056 13.7568 14.1366 13.5844Z" fill="#664E27"/>
<path id="Vector_6" d="M21.6874 13.5844C21.0323 11.8261 20.067 10.9297 19.1016 10.9297C18.1363 10.9297 17.1709 11.8261 16.5158 13.5844C16.4469 13.7568 16.7916 14.0671 16.964 13.8947C17.5846 13.2397 18.3431 12.9638 19.1016 12.9638C19.8601 12.9638 20.6186 13.2397 21.2392 13.8947C21.4116 14.0671 21.7564 13.7568 21.6874 13.5844Z" fill="#664E27"/>
</g>
</g>
</g>
</svg>
