<svg width="50" height="50" viewBox="0 0 50 50" fill="none" xmlns="http://www.w3.org/2000/svg">
<path d="M37.822 37.5416C37.6124 37.2302 37.6124 36.9039 37.225 36.5626C36.8359 36.2213 36.0444 35.2274 36.0444 35.2274L36.2238 34.961C36.2238 34.961 34.3607 33.2578 33.6446 32.432C32.9268 31.6045 32.4891 31.5263 32.0313 31.3082C31.5735 31.0901 31.5131 31.2682 31.3337 30.9719C31.1543 30.6755 31.114 30.4974 30.7954 30.1611C30.4767 29.8248 29.9787 29.1322 29.8797 28.8958C29.7808 28.6577 29.7003 28.4812 29.7003 28.4812L30.4566 28.2431C30.4566 28.2431 29.7841 26.6864 29.4404 26.182C29.0966 25.6775 28.3252 24.7834 28.3252 24.7834L28.4057 24.2107C28.4057 24.2107 28.7042 23.8944 28.7042 23.5381C29.4806 23.0237 31.114 21.482 31.384 20.4131C31.6523 19.3459 30.3979 18.8115 30.1296 18.4252C29.8613 18.0389 29.8613 17.5644 29.4119 17.2981C28.9624 17.0317 29.0228 17.1199 28.6354 16.6154C28.2463 16.111 27.381 15.6665 26.8729 15.5183L26.3647 15.3701L26.2155 14.6292L25.8566 14.7574V14.1847C25.8566 14.1847 26.3647 12.2567 25.8566 12.0187C25.6168 11.396 24.5117 10.8166 23.7201 11.0547C22.9286 11.2928 21.8972 11.351 21.8083 11.351C22.0616 11.6774 22.137 11.6923 22.137 11.6923C21.8687 11.7073 21.8083 11.6324 21.8083 11.6324C22.0481 11.9288 22.4959 11.9288 22.1219 11.9437C21.748 11.9587 21.6138 11.9138 21.6138 11.9138C21.867 12.1519 22.0314 12.2401 22.0314 12.2401C21.8972 12.7446 21.7178 13.1891 21.8368 13.4122C21.9559 13.6353 22.1504 13.5454 21.971 13.8417C21.7916 14.1381 21.5819 14.2813 21.6121 14.4011C21.6423 14.5193 21.8905 14.5793 21.8905 14.5793C21.9207 14.7574 21.9207 14.9056 21.9207 14.9755C22.0012 15.0738 22.449 15.0937 22.558 15.2719C22.667 15.45 22.2393 15.5383 22.2695 15.5982C22.2997 15.6581 22.3399 15.6382 22.4389 15.6864C22.5378 15.7364 22.5278 15.8945 22.568 16.0827C22.6083 16.2708 23.0057 16.2109 23.155 16.1709C23.3042 16.131 23.3243 16.2891 23.3243 16.2891C23.3243 16.2891 22.7273 16.6754 22.3886 16.9617C22.0498 17.2481 21.6121 17.5844 21.2533 17.5162C20.8944 17.4462 20.2471 17.7243 19.8194 17.7243C19.3918 17.7243 15.9154 17.7043 15.7963 17.7243C15.6772 17.7443 15.637 17.9224 15.637 17.9224C15.637 17.9224 14.1528 17.7742 13.7738 17.9224C13.3948 18.0706 13.316 18.1305 13.0561 18.1305C12.7961 18.1305 12.1539 18.1089 12.0499 18.3087C11.9459 18.5084 12.0197 19.5024 12.1321 19.7022C12.2444 19.902 12.6553 19.8504 12.6553 19.8504C12.7525 20.0501 12.9387 20.0801 13.103 20.0069C13.2674 19.9319 13.2741 19.8587 13.5894 19.6739C13.903 19.4891 13.8426 19.1844 14.0522 19.1178C14.2618 19.0512 15.3217 19.266 15.3217 19.266C15.3217 19.266 15.59 20.5113 15.8969 20.5862C16.2038 20.6612 16.6147 20.5862 16.6147 20.5862C16.6147 20.5862 18.3822 20.4297 19.0413 20.4447C19.7004 20.4597 21.2834 20.4148 21.2834 20.4148C21.2834 20.4148 21.5819 21.8083 21.9559 22.4759C22.3299 23.1435 22.5244 23.2767 22.3601 23.8261C22.1957 24.3755 22.4942 24.612 22.4942 24.612C22.4942 24.612 20.4617 25.8573 20.1632 26.3035C19.8647 26.748 18.9977 27.0311 18.5047 27.3424C18.0116 27.6537 17.9814 27.8619 17.9814 27.8619L18.295 28.3513C18.295 28.3513 17.21 29.0389 17.1295 29.5917C17.049 30.1461 16.8511 31.2266 17.0893 32.437C17.3274 33.6474 17.3676 36.198 17.3676 36.198L18.6623 36.3362C18.6623 36.3362 18.6925 37.137 18.6522 37.3351C18.612 37.5333 17.906 37.7114 17.4565 38.0078C17.0088 38.3041 16.5795 38.2458 16.2223 38.3541C15.8634 38.4623 15.7846 38.6404 16.0126 38.7786C16.2424 38.9168 16.7203 38.8186 17.0691 38.8385C17.418 38.8585 19.7188 38.8102 20.1867 38.8552C20.6546 38.8985 20.8642 38.5522 20.7837 38.2458C20.7032 37.9395 20.6546 37.445 20.6445 36.9905C20.6344 36.536 20.6244 36.3578 20.6244 36.3578L20.8726 36.3179C20.8726 36.3179 20.8323 34.8195 20.668 34.0336C20.5036 33.2478 20.3997 33.0247 20.7133 33.0247C21.0269 33.0247 21.0872 32.8615 21.1023 32.6101C21.1174 32.3587 21.4008 32.387 21.5501 32.2389C21.6993 32.0907 21.5048 32.0308 21.6993 31.7794C21.8939 31.528 21.8939 31.6462 22.4322 31.4381C22.9705 31.2299 25.0013 30.1927 25.0013 30.1927C25.0013 30.1927 25.9723 30.8803 26.4503 31.5912C26.9282 32.3038 27.6057 32.7383 28.1038 33.2528C28.6019 33.7672 29.6969 34.34 30.0759 34.7562C30.4549 35.1708 33.5423 37.445 33.6027 37.465C33.663 37.485 34.8772 36.3978 34.8772 36.3978C34.8772 36.3978 35.8935 36.9705 36.0125 37.2286C36.1316 37.485 35.9136 37.8413 35.4742 38.0594C35.0348 38.2775 34.9158 38.3557 34.577 38.4556C34.2383 38.5538 34.0991 38.672 34.4781 38.8602C34.8571 39.0483 35.1606 38.8602 35.1606 38.8602C35.4591 39.0183 35.5933 38.9434 35.5933 38.9434C35.8331 39.0483 36.4301 38.9784 36.9969 38.9617C37.5637 38.9451 38.476 38.9751 38.58 38.5888C38.684 38.2025 38.0266 37.8612 37.8187 37.5499L37.822 37.5416Z" fill="white"/>
</svg>
