<svg width="28" height="28" viewBox="0 0 28 28" fill="none" xmlns="http://www.w3.org/2000/svg">
<g id="i-screen-fit">
<path id="Union" fill-rule="evenodd" clip-rule="evenodd" d="M15.75 11.5C15.75 11.9142 16.0858 12.25 16.5 12.25H20.5C20.9142 12.25 21.25 11.9142 21.25 11.5C21.25 11.0858 20.9142 10.75 20.5 10.75H17.25V7.5C17.25 7.08579 16.9142 6.75 16.5 6.75C16.0858 6.75 15.75 7.08579 15.75 7.5V11.5ZM10.5 12.2501C10.9142 12.2501 11.25 11.9143 11.25 11.5001L11.25 7.50009C11.25 7.08587 10.9142 6.75009 10.5 6.75009C10.0858 6.75009 9.75003 7.08587 9.75003 7.50009L9.75003 10.7501L6.50003 10.7501C6.08582 10.7501 5.75003 11.0859 5.75003 11.5001C5.75003 11.9143 6.08582 12.2501 6.50003 12.2501L10.5 12.2501ZM16.5 16.75C16.0858 16.75 15.75 17.0858 15.75 17.5V21.5C15.75 21.9142 16.0858 22.25 16.5 22.25C16.9142 22.25 17.25 21.9142 17.25 21.5V18.25H20.5C20.9142 18.25 21.25 17.9142 21.25 17.5C21.25 17.0858 20.9142 16.75 20.5 16.75H16.5ZM10.5 16.75C10.9142 16.75 11.25 17.0858 11.25 17.5V21.5C11.25 21.9142 10.9142 22.25 10.5 22.25C10.0858 22.25 9.75 21.9142 9.75 21.5V18.25H6.5C6.08579 18.25 5.75 17.9142 5.75 17.5C5.75 17.0858 6.08579 16.75 6.5 16.75H10.5Z" fill="white"/>
</g>
</svg>
