<svg width="28" height="28" viewBox="0 0 28 28" fill="none" xmlns="http://www.w3.org/2000/svg">
<g id="i-screen-full">
<path id="Union" fill-rule="evenodd" clip-rule="evenodd" d="M21.25 7.5C21.25 7.08579 20.9142 6.75 20.5 6.75L16.5 6.75C16.0858 6.75 15.75 7.08579 15.75 7.5C15.75 7.91421 16.0858 8.25 16.5 8.25L19.75 8.25V11.5C19.75 11.9142 20.0858 12.25 20.5 12.25C20.9142 12.25 21.25 11.9142 21.25 11.5V7.5ZM6.5 6.75C6.08579 6.75 5.75 7.08579 5.75 7.5V11.5C5.75 11.9142 6.08579 12.25 6.5 12.25C6.91421 12.25 7.25 11.9142 7.25 11.5V8.25H10.5C10.9142 8.25 11.25 7.91421 11.25 7.5C11.25 7.08579 10.9142 6.75 10.5 6.75H6.5ZM20.5 22.25C20.9142 22.25 21.25 21.9142 21.25 21.5V17.5C21.25 17.0858 20.9142 16.75 20.5 16.75C20.0858 16.75 19.75 17.0858 19.75 17.5V20.75H16.5C16.0858 20.75 15.75 21.0858 15.75 21.5C15.75 21.9142 16.0858 22.25 16.5 22.25H20.5ZM6.5 22.25C6.08579 22.25 5.75 21.9142 5.75 21.5L5.75 17.5C5.75 17.0858 6.08579 16.75 6.5 16.75C6.91421 16.75 7.25 17.0858 7.25 17.5L7.25 20.75H10.5C10.9142 20.75 11.25 21.0858 11.25 21.5C11.25 21.9142 10.9142 22.25 10.5 22.25H6.5Z" fill="white"/>
</g>
</svg>
