<svg width="50" height="50" viewBox="0 0 50 50" fill="none" xmlns="http://www.w3.org/2000/svg">
<g clip-path="url(#clip0_4089_63297)">
<path d="M31.9669 12.7737C31.9177 12.4321 31.8763 12.0804 31.8842 11.7347C31.8881 11.5497 31.9157 11.4237 31.7898 11.2773C31.6284 11.0882 31.4257 10.9703 31.2467 10.8035C31.1325 10.6978 31.0184 10.5921 30.8984 10.4904C30.8354 10.4376 30.7488 10.3969 30.6996 10.3339C30.8098 9.91708 30.3671 9.56941 30.0759 9.3722C29.8043 9.18921 29.5761 9.14041 29.2593 9.11602C28.9405 9.09162 28.6138 8.99606 28.299 9.00013C27.9901 9.00419 27.8759 9.18514 27.7067 9.42506C27.6162 9.55315 27.565 9.69954 27.5099 9.84796C27.447 10.0187 27.3624 10.1672 27.26 10.3176C27.1715 10.4457 27.0574 10.5128 26.9393 10.6084C26.8016 10.7182 26.6697 10.834 26.532 10.9438C26.3096 11.1187 26.105 11.2651 26.1817 11.5883C26.2309 11.7978 26.3549 11.9523 26.5438 12.0356C26.6127 12.0661 26.7051 12.0702 26.7524 12.1129C26.896 12.2491 26.9452 12.4199 26.8488 12.5907C26.7917 12.6924 26.6579 12.8936 26.53 12.9018C26.3647 12.9119 26.3018 12.8103 26.2585 12.6619C26.1857 12.4097 25.9928 12.1251 25.7173 12.117C25.5973 12.1129 25.4694 12.1251 25.371 12.0438C25.2352 11.9299 25.1624 11.7998 24.9853 11.7368C24.639 11.6127 24.2947 11.8242 23.9582 11.7327C23.3049 11.5578 23.055 12.3914 22.4745 12.4992C22.382 12.5155 22.3604 12.5073 22.2856 12.5683C22.2502 12.5968 22.2443 12.6212 22.199 12.6375C22.0731 12.6802 21.9491 12.6334 21.8193 12.6903C21.6914 12.7452 21.5792 12.8367 21.4552 12.8977C21.1758 13.0339 20.9161 13.2311 20.6091 13.286C20.4773 13.3104 20.3435 13.3247 20.2156 13.3694C20.0798 13.4182 19.9519 13.4894 19.8161 13.5361C19.5229 13.6357 19.1983 13.6398 18.8933 13.654C18.6217 13.6662 18.3443 13.6886 18.0727 13.6479C17.9015 13.6235 17.7264 13.5971 17.5532 13.5808C17.4489 13.5707 17.3722 13.6215 17.4175 13.7435C17.4745 13.896 17.6044 13.9387 17.7421 13.9732C17.8818 14.0078 18.0255 14.0139 18.1672 14.0464C18.2223 14.0586 18.2774 14.0688 18.3325 14.081C18.3679 14.0871 18.3856 14.0973 18.4072 14.1257C18.3777 14.327 18.1042 14.4693 17.9527 14.5771C17.8031 14.6828 17.6595 14.7764 17.4883 14.8394C17.3407 14.8922 17.0711 14.9004 17.0121 15.0813C16.9669 15.2216 17.0731 15.3497 17.1951 15.4046C17.2541 15.431 17.3643 15.427 17.3919 15.5022C17.4234 15.5856 17.3604 15.6404 17.4548 15.7116C17.5572 15.7889 17.691 15.7665 17.8031 15.734C18.118 15.6445 18.4348 15.5632 18.7575 15.5022C18.9346 15.4697 19.1058 15.4209 19.2789 15.3843C19.395 15.3599 19.5367 15.3375 19.6528 15.3721C19.9893 15.4717 20.0542 15.8682 20.3041 16.0755C20.4497 16.1955 20.6367 16.2402 20.8177 16.1833C20.92 16.1508 21.0164 16.045 20.9535 15.9332C20.92 15.8743 20.861 15.86 20.8079 15.8275C20.7449 15.7868 20.6819 15.734 20.6406 15.6689C20.5599 15.5368 20.5284 15.3497 20.6072 15.2155C20.737 14.9919 21.229 14.6564 21.0794 14.3413C21.1463 14.2945 21.2998 14.3413 21.3726 14.3535C21.5221 14.3738 21.6697 14.4104 21.8134 14.4531C21.8645 14.4693 21.9255 14.4836 21.9747 14.5059C22.0397 14.5344 22.0279 14.5364 22.0416 14.6178C22.0633 14.7418 22.1066 14.8678 22.0849 14.9959C22.0515 15.187 21.9019 15.3375 21.8291 15.5124C21.7445 15.7197 21.8449 15.8641 21.8842 16.0613C21.9236 16.2606 21.7898 16.4008 21.6697 16.5391C21.6087 16.6103 21.5497 16.6794 21.53 16.775C21.5123 16.8603 21.53 16.9478 21.5143 17.0332C21.4848 17.1877 21.3116 17.2426 21.2821 17.389C21.2644 17.4805 21.29 17.6106 21.2959 17.7041C21.3057 17.8383 21.2329 17.9013 21.2034 18.0274C21.1699 18.1717 21.1975 18.2917 21.2112 18.436C21.223 18.5601 21.1837 18.6922 21.1581 18.8142C21.1325 18.9301 21.107 19.0582 21.0322 19.1517C20.9653 19.2351 20.863 19.2839 20.7803 19.3489C20.6603 19.4404 20.5422 19.5319 20.434 19.6397C20.2372 19.8328 20.2077 20.0097 20.1939 20.2822C20.188 20.3838 20.1861 20.4672 20.129 20.5526C20.0523 20.6664 19.9716 20.7742 19.8968 20.888C19.8358 20.9836 19.7512 21.0629 19.6902 21.1585C19.6115 21.2845 19.5741 21.437 19.5013 21.5671C19.3321 21.8701 19.1432 22.173 18.9956 22.4881C18.9011 22.6935 18.8618 22.907 18.8637 23.1347C18.8637 23.3014 18.8815 23.4641 18.846 23.6267C18.7752 23.95 18.3895 24.3668 18.6689 24.6738C18.8401 24.8609 19.0763 24.9422 19.0979 25.2289C19.1077 25.3691 19.09 25.5216 19.1569 25.6497C19.2219 25.7778 19.3576 25.8449 19.4914 25.8693C19.6016 25.8896 19.7807 25.8225 19.8752 25.8937C19.9499 26.278 20.2057 26.5606 20.4458 26.8432C20.8157 27.2803 21.1306 27.7459 21.3982 28.2583C21.7209 28.8764 22.0908 29.5148 22.6319 29.9519C22.7953 30.0841 22.9074 30.2081 22.9055 30.4277C22.9055 30.5639 22.8189 30.7855 22.9212 30.8994C23.0255 31.0152 23.4112 31.0132 23.5607 31.0356C23.6945 31.0539 23.846 30.9908 23.9739 31.0396C24.0743 31.0783 24.2081 31.247 24.1373 31.3629C24.0822 31.4524 23.8972 31.4544 23.8106 31.5012C23.6925 31.5642 23.6099 31.6699 23.5312 31.7797C23.3521 32.0318 23.2242 32.2087 22.9606 32.3734C22.6969 32.5381 22.4785 32.7455 22.3781 33.0545C22.3053 33.2782 22.3092 33.4571 22.1144 33.6136C21.9826 33.7194 21.8212 33.7478 21.6973 33.8678C21.5221 34.0345 21.5359 34.2846 21.3844 34.4513C21.1975 34.6566 20.8531 34.5469 20.6426 34.7237C20.1979 34.5164 19.5465 34.6851 19.2907 35.1629C19.1491 35.4252 19.1687 35.7322 19.1786 36.0209C19.1884 36.3564 19.1668 36.6918 19.1628 37.0273C19.1569 37.4441 19.0881 37.8528 18.9661 38.2493C18.8893 38.5054 18.8421 38.7291 18.848 38.9995C18.8578 39.4082 18.9169 39.7619 19.1648 40.0933C19.3557 40.3475 19.6213 40.563 19.883 40.7338C20.2589 40.9778 20.8039 41.24 20.981 40.6464C21.0617 40.3759 20.9968 40.0852 21.0401 39.8087C21.0814 39.5301 21.166 39.2638 21.2171 38.9873C21.2506 38.8043 21.2801 38.5603 21.4415 38.4424C21.5871 38.3346 21.7681 38.3936 21.9295 38.3672C22.2089 38.3224 22.3624 38.0439 22.5198 37.8325C22.7421 37.5376 22.8897 37.3221 23.1947 37.1249C23.541 36.9013 23.8775 36.6491 24.2022 36.393C24.3852 36.2506 24.5524 35.9518 24.765 35.8704C24.8752 36.1693 24.8535 36.5882 24.6705 36.8504C24.4442 37.1757 24.0192 37.2347 23.8303 37.5925C23.663 37.9117 23.7122 38.3082 23.6729 38.6559C23.6355 38.9893 23.5666 39.1845 23.3797 39.4529C23.2715 39.6094 23.0117 39.951 23.0314 40.1482C23.0589 40.441 23.4348 40.5528 23.6552 40.6077C24.4403 40.8009 25.2274 40.8415 26.0322 40.8822C26.6166 40.9127 27.201 40.9859 27.7854 40.931C28.2459 40.8883 28.7713 40.8863 29.2199 40.7704C29.7099 40.6443 29.8397 39.9449 29.3773 39.6948C29.1864 39.5911 28.9759 39.4996 28.7634 39.4631C28.48 39.4143 28.1868 39.4244 27.9251 39.2862C27.7146 39.1764 27.5887 38.9934 27.443 38.8084C27.321 38.6559 27.0357 38.5339 26.9708 38.3529C26.8901 38.1334 27.1636 37.7633 27.2817 37.6068C27.6123 37.1676 28.0826 36.7305 28.2242 36.1775C28.3069 35.8521 28.2892 35.4882 28.3167 35.1548C28.3521 34.7156 28.4033 34.2785 28.4367 33.8393C28.482 33.2558 28.5922 32.6723 28.7221 32.103C28.8086 31.7228 28.7673 31.3243 28.7417 30.9095C28.7083 30.3992 28.6847 29.9011 28.7004 29.3887C28.7103 29.0715 28.6985 28.671 28.5961 28.366C28.4918 28.057 28.24 27.7764 28.055 27.5202C27.7638 27.1197 27.5355 26.6785 27.2935 26.2454C26.9944 25.7087 26.8763 25.0906 26.5831 24.5538C26.473 24.3505 26.3844 23.9683 26.2132 23.8341C26.0676 23.7202 26.2703 23.4864 26.3037 23.3055C26.3765 22.9171 26.3549 22.6142 26.5812 22.2869C26.8429 21.9087 26.9531 21.4716 27.1243 21.0487C27.1892 20.888 27.2679 20.7315 27.3289 20.5688C27.3742 20.4489 27.3702 20.2883 27.447 20.1866C27.5493 20.0544 27.687 20.1419 27.8523 20.1256C28.1003 20.1032 28.3246 20.0666 28.5705 20.0321C29.1432 19.9508 29.7709 20.087 30.3474 20.087C30.5304 20.087 30.8472 20.2252 31.0145 20.1744C31.1975 20.1195 31.3037 19.7556 31.3726 19.5868C31.5261 19.2066 31.6127 18.8041 31.6678 18.3974C31.6953 18.1941 31.715 17.9888 31.7268 17.7834C31.7406 17.5699 31.8232 17.6309 31.9787 17.5293C32.142 17.4235 32.1656 17.021 32.1853 16.8441C32.2168 16.5655 32.2108 16.285 32.2227 16.0044C32.2659 14.9065 32.1144 13.8533 31.959 12.7737H31.9669ZM31.0086 15.2013C30.9928 15.4758 30.92 15.7482 30.8118 16.0003C30.7921 16.045 30.7469 16.2016 30.7055 16.226C30.6485 16.2606 30.5678 16.2077 30.4989 16.2341C30.4143 16.2667 30.3533 16.3561 30.2628 16.3622C30.1388 16.3704 29.9991 16.2931 29.8693 16.3012C29.7728 16.3073 29.6213 16.3419 29.5308 16.3826C29.4127 16.4354 29.3773 16.5757 29.275 16.6489C29.1727 16.7221 29.1609 16.6672 29.0763 16.6164C28.9641 16.5472 28.8362 16.6082 28.7103 16.5777C28.4092 16.5045 28.4604 16.106 28.4505 15.8621C28.4426 15.6933 28.4564 15.5164 28.3305 15.3883C28.2813 15.3395 28.2124 15.309 28.177 15.246C28.1317 15.1667 28.1632 15.1037 28.1672 15.0183C28.1711 14.8902 28.1672 14.9227 28.2223 14.8129C28.2833 14.6869 28.3305 14.5263 28.4072 14.4104C28.4643 14.325 28.5056 14.3596 28.604 14.3616C28.7772 14.3657 28.9425 14.2742 29.0664 14.1562C29.2258 14.0037 29.3754 13.8086 29.517 13.6378C29.6016 13.5361 29.6941 13.4406 29.7709 13.3328C29.8142 13.2718 29.8023 13.2535 29.8771 13.2433C29.9401 13.2352 30.0267 13.2718 30.0916 13.2738C30.2077 13.2799 30.3218 13.2576 30.4301 13.2169C30.6681 13.1315 30.8315 12.9851 30.8138 12.7168C30.7901 12.3427 30.436 11.9746 30.5658 11.5883C30.617 11.7998 30.8571 11.8588 30.9377 12.0356C30.9771 12.119 30.9574 12.2491 30.9633 12.3406C30.983 12.6334 30.9869 12.9262 30.9948 13.221C31.0125 13.8757 31.046 14.5446 31.0105 15.1992L31.0086 15.2013Z" fill="white"/>
</g>
<defs>
<clipPath id="clip0_4089_63297">
<rect width="15.2381" height="32" fill="white" transform="translate(17 9)"/>
</clipPath>
</defs>
</svg>
