<svg xmlns="http://www.w3.org/2000/svg" width="49" height="49" viewBox="0 0 49 49" fill="none">
  <path d="M20.537 41.4531C15.1557 40.5718 11.5557 38.5281 10.0557 35.5093C8.94949 33.2968 8.72449 31.8906 8.74324 27.1843C8.76199 24.0906 8.87449 21.8968 9.24949 18.4281C9.53074 15.8781 9.75574 13.4593 9.75574 13.0281C9.75574 12.4843 9.83074 12.2781 10.037 12.2781C10.187 12.2781 10.3182 12.3343 10.3182 12.4281C10.5432 16.1218 12.0057 19.8718 14.0682 22.0843C14.6682 22.7406 15.362 23.3781 15.6245 23.5093C16.1682 23.8093 16.5432 23.6406 19.0182 21.9718C21.5682 20.2656 22.487 19.9093 24.4932 19.8156C26.9682 19.7031 27.8495 20.0031 29.8182 21.6531C32.237 23.6968 33.2682 24.0718 34.4682 23.4531C35.7807 22.7781 36.3432 21.7093 37.412 18.1093C38.3307 14.9781 38.8557 13.9656 39.6057 13.9656C39.887 13.9656 39.9432 14.1156 39.9432 14.8093C39.9432 15.2781 40.1682 18.1656 40.4307 21.2218C40.7682 25.2718 40.8807 27.7093 40.8432 30.0906C40.787 33.3718 40.787 33.3906 40.1682 34.6281C38.6682 37.7031 34.937 40.0656 29.912 41.1718C27.7182 41.6593 22.6932 41.8093 20.537 41.4531ZM22.9745 29.7156C23.6495 29.4156 24.4182 29.1531 24.6807 29.1531C24.9432 29.1531 25.7307 29.4156 26.4432 29.7156C27.887 30.3531 29.1245 30.4468 29.7995 29.9781C30.1932 29.6968 30.2307 29.5468 30.1557 28.5906C30.062 27.2593 29.3682 26.0781 28.562 25.8906C28.2807 25.8343 26.6495 25.7218 24.9432 25.6656C22.0557 25.5343 21.7932 25.5531 21.0995 25.9281C20.687 26.1343 20.162 26.5093 19.937 26.7531C19.4495 27.2781 19.037 28.7781 19.2057 29.4343C19.4495 30.4281 21.137 30.5593 22.9745 29.7156Z" fill="#FC2D7C"/>
</svg>