<svg xmlns="http://www.w3.org/2000/svg" width="49" height="49" viewBox="0 0 49 49" fill="none">
  <g clip-path="url(#clip0_3_2152)">
    <mask id="mask0_3_2152" style="mask-type:luminance" maskUnits="userSpaceOnUse" x="0" y="0" width="49" height="49">
      <path d="M48.7559 0.840576H0.755859V48.8406H48.7559V0.840576Z" fill="white"/>
    </mask>
    <g mask="url(#mask0_3_2152)">
      <path fill-rule="evenodd" clip-rule="evenodd" d="M20.2602 45.2407L24.9642 20.9176L30.4523 45.2407L41.5563 44.4561L37.1952 13.3825C31.0518 12.8446 28.4345 8.69958 27.8374 6.15157C27.2111 6.20688 26.5842 6.24456 25.9563 6.26481V16.4407H23.5563V6.25787C22.7382 6.2271 21.9171 6.1675 21.0916 6.0795C20.545 8.54125 18.0798 12.5776 12.2879 13.321L9.15625 43.6714L20.2602 45.2407ZM13.2042 4.44067C15.0712 5.00412 16.8997 5.4414 18.7026 5.74819C18.2784 7.33051 16.6249 10.1072 12.5427 10.8523L13.2042 4.44067ZM30.2391 5.85229C30.7251 7.51211 32.5085 10.3348 36.8508 10.9289L35.9403 4.44067C34.0278 5.07867 32.1327 5.54739 30.2391 5.85229Z" fill="#FC2D7C"/>
    </g>
  </g>
  <defs>
    <clipPath id="clip0_3_2152">
      <rect width="48" height="48" fill="#FC2D7C" transform="translate(0.755859 0.840576)"/>
    </clipPath>
  </defs>
</svg>