<svg width="17" height="40" viewBox="0 0 17 40" fill="none" xmlns="http://www.w3.org/2000/svg">
<g filter="url(#filter0_d_0_121)">
<path d="M7.05568 7.0092L7.1113 5.88128C7.11361 5.81583 7.07422 5.72537 7.02555 5.6734C6.74746 5.39045 6.5273 5.02667 6.39288 4.61284C6.25615 4.52622 6.12638 4.25098 6.07539 3.91606C6.01746 3.54265 6.08003 3.22121 6.21212 3.14422C6.21444 2.37238 6.48558 0.998077 8.46469 1C10.4415 1.00193 10.7126 2.3743 10.7196 3.14422C10.854 3.22121 10.9143 3.54265 10.8563 3.91606C10.8053 4.2529 10.6732 4.52815 10.5365 4.61284C10.4021 5.02667 10.1843 5.39045 9.90616 5.6734C9.85749 5.72344 9.81578 5.81583 9.81809 5.87935L9.87371 7.00728C9.87603 7.07272 9.9247 7.16126 9.98727 7.20168C10.0684 7.25558 12.5875 8.04089 12.9189 8.49514C14.1494 10.1813 13.5353 10.9146 14.5249 14.6256C14.7821 15.5899 15.278 16.381 15.2549 18.4117C15.2549 18.5426 15.2919 18.7466 15.3267 18.8736C15.4495 19.3163 15.6071 20.3653 14.9003 21.6742C14.8354 21.7935 14.7033 21.8012 14.6222 21.6915C14.3093 21.2623 13.6813 20.1844 14.1958 19.0276C14.2514 18.9063 14.2375 18.7216 14.1587 18.608C13.8203 18.121 12.9907 16.8083 12.6825 15.2666C12.6825 15.2666 11.9919 12.7162 11.9919 11.6845C11.9919 11.6845 11.6605 14.922 11.876 15.563C11.9826 15.8806 12.8424 16.8064 13.0649 18.8428C14.1911 21.2411 13.1019 24.7827 11.3963 28.9884C11.3476 29.1116 11.3314 29.3137 11.3592 29.4427C11.4843 30.0567 11.7439 31.8025 11.0533 33.5213C10.1958 35.6559 10.4508 36.3065 10.4508 36.3065C10.4508 36.3065 11.3453 37.7693 11.3082 38.1908C11.2642 38.6971 10.0684 39.3938 9.23641 38.724C8.96527 38.5046 8.94209 37.4479 8.94673 36.9686C8.94673 36.8377 8.86098 36.6549 8.80768 36.5317C8.75901 36.42 8.60374 36.2661 8.68717 36.0851C8.74279 35.9639 8.81695 35.7733 8.80768 35.6443L8.63155 32.6686C8.63155 32.6686 8.83781 30.253 8.95136 29.4542C8.9699 29.3253 8.97685 29.1154 8.95831 28.9865C8.80768 27.9933 8.38127 24.0802 8.68717 21.8859H8.24917C8.55508 24.0802 8.13098 27.9933 7.97803 28.9865C7.95717 29.1154 7.96876 29.3233 7.98962 29.4523C8.12171 30.2742 8.30247 32.6667 8.30247 32.6667L8.12635 35.6424C8.11939 35.7714 8.06146 35.9619 8.11708 36.0832C8.2005 36.2641 8.17501 36.4181 8.12635 36.5297C8.07304 36.651 7.98498 36.8358 7.9873 36.9667C7.99193 37.4459 7.97108 38.5027 7.69762 38.7221C6.86333 39.3919 5.66984 38.6932 5.6258 38.1889C5.58872 37.7674 6.48326 36.3045 6.48326 36.3045C6.48326 36.3045 6.73819 35.6559 5.88072 33.5194C5.19244 31.8025 5.30599 30.0605 5.37784 29.4427C5.39174 29.3137 5.36857 29.1077 5.3199 28.9846C3.57948 24.5498 2.80082 21.0948 3.83904 18.8409C4.20057 16.6678 5.08352 15.8652 5.18549 15.5611C5.17622 15.5899 4.80542 11.0147 4.93057 11.6826C4.93057 12.7143 4.24923 15.2646 4.24923 15.2646C3.94101 16.8064 3.11136 18.1191 2.77301 18.6061C2.69421 18.7196 2.68958 18.9006 2.75215 19.0199C3.30834 20.0997 2.63396 21.2392 2.30952 21.6877C2.2284 21.7993 2.09863 21.7916 2.03374 21.6723C1.32459 20.3634 1.4845 19.3144 1.60733 18.8717C1.64209 18.7447 1.68148 18.5406 1.67917 18.4097C1.65831 16.3791 2.15193 15.5899 2.40917 14.6237C3.65364 9.95414 2.37904 10.3814 4.01517 8.49322C4.34193 8.11404 6.86796 7.25173 6.94676 7.19976C7.00701 7.15934 7.058 7.0708 7.06031 7.00535L7.05568 7.0092Z" fill="#FC2D7C"/>
</g>
<defs>
<filter id="filter0_d_0_121" x="0.5" y="0" width="15.9333" height="40" filterUnits="userSpaceOnUse" color-interpolation-filters="sRGB">
<feFlood flood-opacity="0" result="BackgroundImageFix"/>
<feColorMatrix in="SourceAlpha" type="matrix" values="0 0 0 0 0 0 0 0 0 0 0 0 0 0 0 0 0 0 127 0" result="hardAlpha"/>
<feOffset/>
<feGaussianBlur stdDeviation="0.5"/>
<feComposite in2="hardAlpha" operator="out"/>
<feColorMatrix type="matrix" values="0 0 0 0 0 0 0 0 0 0 0 0 0 0 0 0 0 0 0.45 0"/>
<feBlend mode="normal" in2="BackgroundImageFix" result="effect1_dropShadow_0_121"/>
<feBlend mode="normal" in="SourceGraphic" in2="effect1_dropShadow_0_121" result="shape"/>
</filter>
<linearGradient id="paint0_linear_0_121" x1="4.0453" y1="24.1283" x2="23.9996" y2="0.105444" gradientUnits="userSpaceOnUse">
<stop stop-color="white"/>
<stop offset="1" stop-color="#E5E5E7"/>
</linearGradient>
</defs>
</svg>
