<svg xmlns="http://www.w3.org/2000/svg" width="49" height="49" viewBox="0 0 49 49" fill="none">
  <path d="M39.9995 35.7717C39.7932 35.5842 38.9495 34.6842 38.1432 33.7467C37.3557 32.828 36.212 31.553 35.6495 30.9342C35.0682 30.3155 34.2245 29.3405 33.7557 28.778C31.6182 26.153 28.112 22.9655 26.4432 22.1217C25.1495 21.4655 22.2057 20.5467 20.4432 20.2467C19.562 20.0967 16.2432 19.8342 13.037 19.6842C9.83073 19.5155 7.14948 19.3092 7.07448 19.2342C6.71823 18.8967 7.82448 18.0717 9.32448 17.528C10.187 17.228 10.8807 17.0217 10.8807 17.0592C10.8807 17.1155 11.087 17.0592 11.3307 16.9655C13.262 16.2342 20.8745 15.8967 24.5682 16.3842C26.987 16.703 30.2682 17.9405 32.1995 19.2342C36.9432 22.403 42.9995 28.1217 43.5057 29.8842C43.712 30.5967 42.9245 32.9217 41.8745 34.7405C41.1057 36.1092 40.6557 36.353 39.9995 35.7717Z" fill="white"/>
</svg>