<svg xmlns="http://www.w3.org/2000/svg" width="49" height="49" viewBox="0 0 49 49" fill="none">
  <g clip-path="url(#clip0_3_1427)">
    <path d="M22.2348 37.6549C21.3775 37.0701 19.7156 35.4884 18.8319 34.4118C17.7108 33.0161 17.1436 31.7534 16.7216 29.7331C16.471 28.4837 16.3523 28.2976 15.917 28.3906C15.0597 28.5501 14.8618 28.2311 14.3474 25.8918C13.899 23.8847 13.8462 22.9277 14.1364 22.3562C14.3738 21.8777 14.7167 21.7713 15.3498 21.9441C15.6136 22.0239 15.8642 22.0505 15.9038 22.0106C15.9434 21.9707 16.0225 20.9339 16.0621 19.7244C16.1544 17.3452 16.2335 16.9597 16.9194 15.4843C17.6185 14.009 18.9638 12.9855 21.1533 12.2677C23.4879 11.4968 25.2553 11.4437 27.6426 12.0684C29.2122 12.4804 30.2673 12.9988 31.3093 13.8495C31.9688 14.3811 32.2194 14.7001 32.5887 15.4843C33.2746 16.9597 33.3537 17.3452 33.4461 19.7244C33.4856 20.9339 33.5648 21.9707 33.6175 22.0239C33.6703 22.077 33.9209 22.0505 34.1715 21.9574C34.7782 21.758 35.1211 21.8777 35.3718 22.3562C35.6619 22.9277 35.6224 23.672 35.1607 25.812C34.8046 27.5001 34.6991 27.7792 34.3561 28.1115C34.0396 28.4172 33.8945 28.4704 33.5384 28.4039C33.1163 28.3109 33.1031 28.3242 32.9449 28.9622C32.2986 31.4876 31.7974 32.6971 30.9005 33.9731C30.2278 34.9301 27.9987 37.11 27.1414 37.6549C26.5611 38.0271 26.5083 38.0404 24.6881 38.0404C22.8416 38.0404 22.8152 38.0404 22.2348 37.6549Z" fill="white"/>
    <path d="M43.306 23.2407C43.4441 23.2407 43.556 23.1288 43.556 22.9907V20.6442C43.556 20.4215 43.8253 20.31 43.9828 20.4675L48.1793 24.6639C48.2769 24.7615 48.2769 24.9198 48.1793 25.0175L43.9828 29.2139C43.8253 29.3714 43.556 29.2599 43.556 29.0371V26.6907C43.556 26.5526 43.4441 26.4407 43.306 26.4407H40.606C40.468 26.4407 40.356 26.3288 40.356 26.1907V23.4907C40.356 23.3526 40.468 23.2407 40.606 23.2407H43.306Z" fill="white"/>
    <path d="M28.9525 43.6407H26.606C26.4679 43.6407 26.356 43.5288 26.356 43.3907V40.6907C26.356 40.5526 26.2441 40.4407 26.106 40.4407H23.406C23.2679 40.4407 23.156 40.5526 23.156 40.6907V43.3907C23.156 43.5288 23.0441 43.6407 22.906 43.6407H20.5596C20.3368 43.6407 20.2253 43.91 20.3828 44.0675L24.5792 48.2639C24.6769 48.3616 24.8352 48.3616 24.9328 48.2639L29.1292 44.0675C29.2867 43.91 29.1752 43.6407 28.9525 43.6407Z" fill="white"/>
    <path d="M20.5596 5.64054H22.906C23.0441 5.64054 23.156 5.75247 23.156 5.89054V8.59054C23.156 8.72861 23.2679 8.84054 23.406 8.84054H26.106C26.2441 8.84054 26.356 8.72861 26.356 8.59054V5.89054C26.356 5.75247 26.4679 5.64054 26.606 5.64054H28.9525C29.1752 5.64054 29.2867 5.37125 29.1292 5.21376L24.9328 1.01732C24.8352 0.919684 24.6769 0.919684 24.5792 1.01732L20.3828 5.21376C20.2253 5.37125 20.3368 5.64054 20.5596 5.64054Z" fill="white"/>
    <path d="M5.55582 29.0371V26.6907C5.55582 26.5526 5.66775 26.4407 5.80582 26.4407H8.50582C8.64389 26.4407 8.75582 26.3288 8.75582 26.1907V23.4907C8.75582 23.3526 8.64389 23.2407 8.50582 23.2407H5.80582C5.66775 23.2407 5.55582 23.1288 5.55582 22.9907V20.6442C5.55582 20.4215 5.28653 20.31 5.12904 20.4675L0.932598 24.6639C0.834967 24.7615 0.834967 24.9198 0.932598 25.0175L5.12904 29.2139C5.28653 29.3714 5.55582 29.2599 5.55582 29.0371Z" fill="white"/>
  </g>
  <defs>
    <clipPath id="clip0_3_1427">
      <rect width="48" height="48" fill="white" transform="translate(0.755859 0.840576)"/>
    </clipPath>
  </defs>
</svg>