<svg width="23" height="28" viewBox="0 0 23 28" fill="none" xmlns="http://www.w3.org/2000/svg">
<g clip-path="url(#clip0_0_130)">
<g filter="url(#filter0_d_0_130)">
<path d="M20.922 12.1721C20.9757 11.7246 21.0259 11.2806 21.0724 10.8474C21.3552 8.19457 21.1691 5.58109 19.7728 3.57265C18.5091 1.75038 16.2607 0.440061 12.4873 0.06773C11.9646 0.0176085 11.5207 -0.00745219 11.066 -0.000291985C10.6829 0.00686822 10.2963 0.031929 9.85236 0.0784703C6.14695 0.468702 3.93445 1.77186 2.68141 3.57265C1.28517 5.58109 1.099 8.19457 1.38183 10.8474C1.43195 11.3272 1.48923 11.8176 1.5501 12.3153C0.919998 11.5813 -0.0215696 11.8105 -8.90051e-05 13.1924C0.0070712 13.7008 0.135955 14.1662 0.329281 14.6209C0.612109 15.2796 1.24221 16.2713 1.66108 16.9551C1.86873 17.2916 2.07995 17.6317 2.29476 17.9754C2.40932 18.7845 2.64561 18.9743 2.8998 19.0208C3.21485 20.1163 3.42607 21.441 3.86284 22.3789C4.44282 23.632 5.18032 24.4232 6.16127 25.3433C7.47517 26.5748 9.04326 28.0391 11.066 28.0033C11.1197 28.0033 11.1734 28.0033 11.2307 27.9961C13.3286 28.1214 14.9468 26.607 16.2965 25.3433C17.2775 24.4268 18.015 23.632 18.595 22.3789C19.0353 21.4302 19.2466 20.0841 19.5688 18.9814C19.7693 18.8883 19.9483 18.6413 20.0413 17.9754C20.2561 17.6353 20.4674 17.2952 20.675 16.9551C21.0975 16.2713 21.7276 15.2796 22.0068 14.6209C22.2001 14.1662 22.3254 13.7008 22.3362 13.1924C22.3577 11.9107 21.545 11.6207 20.9256 12.1721H20.922Z" fill="white"/>
</g>
</g>
<defs>
<filter id="filter0_d_0_130" x="-1.00045" y="-1.0015" width="24.3371" height="30.0054" filterUnits="userSpaceOnUse" color-interpolation-filters="sRGB">
<feFlood flood-opacity="0" result="BackgroundImageFix"/>
<feColorMatrix in="SourceAlpha" type="matrix" values="0 0 0 0 0 0 0 0 0 0 0 0 0 0 0 0 0 0 127 0" result="hardAlpha"/>
<feOffset/>
<feGaussianBlur stdDeviation="0.5"/>
<feComposite in2="hardAlpha" operator="out"/>
<feColorMatrix type="matrix" values="0 0 0 0 0 0 0 0 0 0 0 0 0 0 0 0 0 0 0.45 0"/>
<feBlend mode="normal" in2="BackgroundImageFix" result="effect1_dropShadow_0_130"/>
<feBlend mode="normal" in="SourceGraphic" in2="effect1_dropShadow_0_130" result="shape"/>
</filter>
<clipPath id="clip0_0_130">
<rect width="22.3363" height="28" fill="white"/>
</clipPath>
</defs>
</svg>
