<svg width="16" height="42" viewBox="0 0 16 42" fill="none" xmlns="http://www.w3.org/2000/svg">
<g filter="url(#filter0_d_0_128)">
<path d="M1.09539 19.8143C1.12866 19.6806 1.16636 19.4659 1.16414 19.3281C1.14418 17.1905 1.86718 16.3598 2.11335 15.3427C3.15571 11.0393 1.97961 10.0729 2.76471 8.88962C2.84233 8.77211 3.7035 8.67283 3.84322 8.62218C5.28921 8.10147 5.93237 7.72664 6.20515 7.52809C6.26503 7.48554 6.31161 7.39234 6.31382 7.32345L6.36705 6.13616C6.37148 6.06727 6.33156 5.97204 6.28499 5.91937C6.01886 5.62153 5.81039 5.2386 5.68176 4.80299C5.55091 4.71181 5.42449 4.42208 5.3757 4.06954C5.32026 3.67647 5.38014 3.33812 5.50655 3.25707C5.51099 2.44461 5.77047 1.00203 7.66445 1C9.55621 1.00203 9.81569 2.44663 9.82235 3.25707C9.95098 3.33812 10.0086 3.67647 9.9532 4.06954C9.9044 4.4241 9.77799 4.71384 9.64714 4.80299C9.51851 5.2386 9.31004 5.62153 9.04391 5.91937C8.99733 5.97204 8.95741 6.0693 8.95963 6.13616L9.01286 7.32345C9.01508 7.39234 9.06387 7.48554 9.12153 7.52809C9.39653 7.72664 10.0397 8.10147 11.4835 8.62218C11.6232 8.67283 12.355 8.77211 12.4326 8.88962C13.2177 10.0729 12.171 11.0393 13.2133 15.3427C13.4595 16.3578 14.1825 17.1905 14.1625 19.3281C14.1625 19.4659 14.198 19.6806 14.2313 19.8143C14.3488 20.2803 14.4996 21.3846 13.8232 22.7623C13.7611 22.8879 13.6347 22.896 13.5571 22.7805C13.2577 22.3287 12.6567 21.1941 13.1512 19.9764C13.2022 19.8488 13.1911 19.6543 13.1157 19.5347C12.7919 19.0221 11.9958 17.6403 11.703 16.0174C11.703 16.0174 11.0421 12.9783 11.0421 11.8903C11.0421 11.8903 10.8248 15.6467 10.8736 18.3799C10.9157 20.72 12.7831 20.9165 10.3457 30.4615C10.3125 30.5952 10.2836 30.8039 10.3103 30.9396C10.43 31.586 10.6784 33.4236 10.0175 35.2329C9.19693 37.4799 9.5673 38.1647 9.5673 38.1647C9.5673 38.1647 10.4211 39.7045 10.3879 40.1483C10.3457 40.6811 9.20137 41.4146 8.40519 40.7095C8.14571 40.4785 8.12353 39.3662 8.12796 38.8617C8.12796 38.7239 8.04591 38.5314 7.99268 38.4018C7.94611 38.2843 7.92171 38.1222 8.00155 37.9317C8.05478 37.8041 8.12575 37.6035 8.11909 37.4677L7.95054 34.3354C7.95054 34.3354 8.14792 31.7926 8.2566 30.9518C8.27434 30.8161 8.28099 30.5952 8.26325 30.4595C8.11909 29.414 7.58683 25.2949 7.87957 22.9852H7.46041C7.75316 25.2949 7.22089 29.414 7.07674 30.4595C7.05678 30.5952 7.06343 30.814 7.08117 30.9518C7.18985 31.7906 7.38723 34.3354 7.38723 34.3354L7.21868 37.4677C7.21202 37.6035 7.28299 37.8041 7.33622 37.9317C7.41606 38.1222 7.39166 38.2843 7.34509 38.4018C7.29408 38.5294 7.20981 38.7239 7.21202 38.8617C7.21646 39.3662 7.1965 40.4785 6.9348 40.7095C6.1364 41.4146 4.99425 40.6791 4.94989 40.1483C4.91441 39.7045 5.77047 38.1647 5.77047 38.1647C5.77047 38.1647 6.13862 37.4819 5.32026 35.2329C4.65936 33.4236 4.90553 31.586 5.02751 30.9396C5.05191 30.8039 5.02751 30.5952 4.98981 30.4615C2.29299 20.3067 4.1648 20.8801 4.20915 18.5399C4.27347 15.051 4.29343 11.8923 4.29343 11.8923C4.29343 12.9783 3.63253 16.0195 3.63253 16.0195C3.33757 17.6424 2.5436 19.0242 2.21981 19.5368C2.1444 19.6563 2.13331 19.8488 2.18432 19.9785C2.67667 21.1941 2.07565 22.3287 1.77625 22.7826C1.69863 22.9001 1.57222 22.89 1.51012 22.7643C0.833696 21.3866 0.984505 20.2824 1.10205 19.8164L1.09539 19.8143Z" fill="url(#paint0_linear_0_128)"/>
</g>
<defs>
<filter id="filter0_d_0_128" x="0" y="0" width="15.3333" height="42" filterUnits="userSpaceOnUse" color-interpolation-filters="sRGB">
<feFlood flood-opacity="0" result="BackgroundImageFix"/>
<feColorMatrix in="SourceAlpha" type="matrix" values="0 0 0 0 0 0 0 0 0 0 0 0 0 0 0 0 0 0 127 0" result="hardAlpha"/>
<feOffset/>
<feGaussianBlur stdDeviation="0.5"/>
<feComposite in2="hardAlpha" operator="out"/>
<feColorMatrix type="matrix" values="0 0 0 0 0 0 0 0 0 0 0 0 0 0 0 0 0 0 0.45 0"/>
<feBlend mode="normal" in2="BackgroundImageFix" result="effect1_dropShadow_0_128"/>
<feBlend mode="normal" in="SourceGraphic" in2="effect1_dropShadow_0_128" result="shape"/>
</filter>
<linearGradient id="paint0_linear_0_128" x1="3.28656" y1="25.4813" x2="24.5648" y2="2.1901" gradientUnits="userSpaceOnUse">
<stop stop-color="white"/>
<stop offset="1" stop-color="#E5E5E7"/>
</linearGradient>
</defs>
</svg>