<svg width="36" height="13" viewBox="0 0 36 13" fill="none" xmlns="http://www.w3.org/2000/svg">
<g filter="url(#filter0_d_0_141)">
<path d="M35.5515 4.95192H35.0758C34.9398 3.60634 34.5321 2.40121 33.9748 1.65819C32.8422 0.15404 29.118 -0.258243 25.5797 0.267304V0H10.4158V0.267304C6.87742 -0.253713 3.15328 0.15404 2.02064 1.66272C1.46338 2.40574 1.05563 3.60634 0.919708 4.95646H0.443997C0.199346 4.95646 0 5.1558 0 5.40045C0 5.6451 0.199346 5.84898 0.443997 5.84898H0.874402C0.85628 8.21847 1.69444 10.8145 3.99597 12.0921C7.03146 13.782 10.2391 12.9439 12.586 10.6016C14.9328 8.25925 15.7256 6.30657 16.002 4.70727C16.0111 4.66197 16.0156 4.62119 16.0201 4.57589H16.0383C16.1334 4.56683 16.2059 4.48527 16.1968 4.39013C16.1379 3.66524 16.4234 3.29373 16.7949 3.09892C17.189 2.89504 17.6874 2.87692 18 2.87692C18.3126 2.87692 18.8155 2.89504 19.2097 3.09892C19.5857 3.29373 19.8711 3.66524 19.8032 4.39013C19.7941 4.48527 19.8621 4.56683 19.9572 4.57589C19.9617 4.57589 19.9708 4.57589 19.9753 4.57589C19.9799 4.62119 19.9889 4.66197 19.9935 4.70727C20.2744 6.30657 21.0627 8.26378 23.4095 10.6016C25.7564 12.9439 28.964 13.7775 31.9995 12.0921C34.2965 10.8145 35.1392 8.21847 35.1211 5.84898H35.5515C35.7961 5.84898 35.9955 5.64963 35.9955 5.40045C35.9955 5.15127 35.7961 4.95646 35.5515 4.95646V4.95192ZM22.2316 1.09187C20.9177 1.56758 20.1837 2.35137 19.9844 3.3934C19.8394 3.11251 19.6174 2.92222 19.3682 2.79084C18.9016 2.55072 18.3443 2.52806 18 2.52806C17.6557 2.52806 17.0984 2.55072 16.6363 2.79084C16.3826 2.92222 16.1606 3.11704 16.0156 3.40247C15.8208 2.3559 15.0868 1.57211 13.7684 1.09187C12.9529 0.797382 12.0604 0.561792 11.1407 0.38963H24.8638C23.9441 0.561792 23.0516 0.797382 22.2361 1.09187H22.2316Z" fill="white"/>
</g>
<defs>
<filter id="filter0_d_0_141" x="-1" y="-1" width="37.9955" height="14.9821" filterUnits="userSpaceOnUse" color-interpolation-filters="sRGB">
<feFlood flood-opacity="0" result="BackgroundImageFix"/>
<feColorMatrix in="SourceAlpha" type="matrix" values="0 0 0 0 0 0 0 0 0 0 0 0 0 0 0 0 0 0 127 0" result="hardAlpha"/>
<feOffset/>
<feGaussianBlur stdDeviation="0.5"/>
<feComposite in2="hardAlpha" operator="out"/>
<feColorMatrix type="matrix" values="0 0 0 0 0 0 0 0 0 0 0 0 0 0 0 0 0 0 0.45 0"/>
<feBlend mode="normal" in2="BackgroundImageFix" result="effect1_dropShadow_0_141"/>
<feBlend mode="normal" in="SourceGraphic" in2="effect1_dropShadow_0_141" result="shape"/>
</filter>
</defs>
</svg>
