<svg width="26" height="28" viewBox="0 0 26 28" fill="none" xmlns="http://www.w3.org/2000/svg">
<g clip-path="url(#clip0_0_133)">
<g filter="url(#filter0_d_0_133)">
<path d="M25.5311 18.5032C25.5311 18.5032 25.5311 18.4964 25.5311 18.4931C25.5311 18.4525 25.5311 18.4119 25.5311 18.3713C25.5311 18.3443 25.5311 18.3138 25.5277 18.2868C25.5176 18.0906 25.4905 17.8877 25.4466 17.6814C25.4466 17.678 25.4466 17.6746 25.4466 17.6712C25.433 17.607 25.4195 17.5427 25.4026 17.4784C25.3992 17.4615 25.3958 17.4446 25.3891 17.4277C25.3721 17.3635 25.3552 17.2992 25.3383 17.2349C25.3349 17.218 25.3282 17.2011 25.3248 17.1808C25.3045 17.1098 25.2842 17.0354 25.2639 16.961C25.2639 16.9542 25.2639 16.9508 25.2605 16.9441C25.2064 16.7547 25.1523 16.5653 25.0982 16.3725C25.0914 16.3455 25.0847 16.3184 25.0779 16.2947C25.0779 16.2913 25.0779 16.288 25.0779 16.2812C25.0644 16.2271 25.0475 16.173 25.0339 16.1155C25.0272 16.0918 25.0238 16.0715 25.017 16.0478C25.0001 15.9836 24.9866 15.9159 24.9697 15.8517C24.9629 15.8212 24.9562 15.7942 24.9494 15.7637C24.9291 15.6691 24.9122 15.571 24.8953 15.4763C24.8953 15.4695 24.8953 15.4594 24.8953 15.4526C24.8818 15.3613 24.8682 15.2666 24.8581 15.1753C24.8513 15.1009 24.8445 15.0298 24.8412 14.9554C24.8412 14.9521 24.8412 14.9453 24.8412 14.9419C24.8344 14.7965 24.831 14.6443 24.8243 14.4887C24.8243 14.4447 24.8243 14.4008 24.8209 14.3568C24.8209 14.3501 24.8209 14.3399 24.8209 14.3331C24.8209 14.3061 24.8209 14.279 24.8175 14.252C24.8175 14.1742 24.8107 14.0964 24.8073 14.0186C24.8073 13.9713 24.8006 13.9273 24.7972 13.8799C24.7938 13.8055 24.7871 13.7345 24.7803 13.6601C24.7803 13.6331 24.7769 13.606 24.7735 13.5756C24.6653 12.3005 24.3271 10.7211 23.0081 8.68173C22.8356 8.41455 22.6733 8.15075 22.5143 7.89033C22.4839 7.8396 22.4534 7.79225 22.423 7.74152C22.2708 7.49125 22.1254 7.24098 21.9799 6.99409C20.7015 4.79576 19.6599 2.79697 17.8674 1.47458C15.7671 -0.074396 12.3851 -0.588468 9.82824 0.838758C9.82486 0.838758 9.81809 0.84214 9.81471 0.845522C9.80795 0.845522 9.80118 0.852286 9.79442 0.855668C9.79442 0.855668 9.79442 0.855668 9.79104 0.855668C9.77413 0.862432 9.7606 0.872578 9.74707 0.882724C9.73692 0.886106 9.72678 0.89287 9.71663 0.896252C9.69972 0.906399 9.68958 0.916545 9.67267 0.926691C9.59826 0.970658 9.52724 1.01801 9.4596 1.06874C9.40548 1.10594 9.34799 1.13638 9.29387 1.17358C9.29387 1.17358 9.28711 1.1702 9.27697 1.16682C9.27358 1.16682 9.2702 1.16343 9.26344 1.16005C9.24991 1.15329 9.22962 1.14314 9.20594 1.133C9.19918 1.12961 9.18903 1.12623 9.18227 1.12285C9.16197 1.1127 9.1383 1.10256 9.11125 1.09241C9.09772 1.08565 9.08419 1.08227 9.06728 1.0755C9.03008 1.06197 8.99287 1.04506 8.94891 1.03153C8.932 1.02477 8.9117 1.01801 8.89141 1.01124C8.86097 1.0011 8.82715 0.99095 8.79333 0.980804C8.76966 0.97404 8.74598 0.967276 8.72231 0.960511C8.67158 0.946983 8.61747 0.933455 8.55997 0.919927C8.53291 0.913163 8.50586 0.909781 8.4788 0.903017C8.43822 0.896252 8.39425 0.886106 8.35028 0.879342C8.31985 0.87596 8.29279 0.869196 8.26235 0.865814C8.19809 0.85905 8.13045 0.852286 8.05943 0.845522C8.02899 0.845522 7.99517 0.845522 7.96473 0.84214C7.91062 0.84214 7.85312 0.84214 7.79563 0.84214C7.76519 0.84214 7.73475 0.84214 7.70431 0.84214C7.62991 0.845522 7.55212 0.855668 7.47433 0.865814C7.44051 0.869196 7.41007 0.87596 7.37625 0.879342C7.35596 0.882724 7.33567 0.886106 7.31538 0.889488C7.31538 0.889488 7.31538 0.889488 7.31876 0.889488C6.72013 1.00448 6.06402 1.32239 5.45525 2.0563C4.4271 3.29751 3.84539 4.38991 3.31441 5.33012C3.23324 5.47555 3.15207 5.6176 3.0709 5.75626C3.06076 5.77317 3.05061 5.7867 3.04384 5.80361C2.97282 5.92536 2.89842 6.04712 2.82401 6.16211C2.81048 6.18578 2.79357 6.20945 2.78004 6.23313C2.70226 6.35488 2.62109 6.47664 2.53654 6.59163C2.51963 6.6153 2.49933 6.64236 2.48242 6.66603C2.39449 6.78778 2.30318 6.90277 2.2051 7.01776C2.16451 7.06511 2.12054 7.12261 2.07658 7.18687C2.06305 7.20378 2.0529 7.22069 2.03938 7.24098C2.00217 7.29509 1.96835 7.35259 1.93115 7.41346C1.921 7.43037 1.91424 7.4439 1.90409 7.45743C1.86013 7.53522 1.81278 7.61977 1.76543 7.71108C1.75528 7.72799 1.74514 7.74829 1.73837 7.7652C1.69779 7.84298 1.66059 7.92415 1.62 8.00871C1.60986 8.03238 1.59971 8.05605 1.58618 8.07973C1.4881 8.2928 1.3934 8.52954 1.29532 8.78658C1.28856 8.80687 1.27841 8.83054 1.27165 8.85084C1.2243 8.97935 1.17695 9.10787 1.13299 9.24315C1.13299 9.24315 1.13299 9.24992 1.13299 9.2533C1.08226 9.40211 1.03152 9.5543 0.984176 9.71326C0.984176 9.72002 0.984176 9.7234 0.980794 9.73017C0.933445 9.88236 0.886096 10.0413 0.84213 10.2037C0.84213 10.2104 0.838748 10.2172 0.835365 10.2273C0.740668 10.5655 0.652735 10.9173 0.568183 11.2859C0.568183 11.2859 0.568183 11.2927 0.568183 11.2961C0.358496 12.2227 0.189394 13.2374 0.0946963 14.2858V14.2926C-0.0338216 15.7164 -0.0270575 17.2011 0.202922 18.6047C0.341586 19.4536 0.49716 20.2991 0.696701 21.1108C0.700083 21.1277 0.706847 21.1446 0.71023 21.1615C0.723758 21.219 0.737286 21.2731 0.754196 21.3306C0.774489 21.405 0.791399 21.476 0.811691 21.5471C0.828601 21.6045 0.84213 21.662 0.85904 21.7195C0.879332 21.7939 0.899624 21.865 0.919917 21.936C0.936827 21.9901 0.950355 22.0442 0.967265 22.0983C0.994322 22.1863 1.02138 22.2742 1.05182 22.3621C1.06873 22.4129 1.08226 22.4602 1.09917 22.5076C1.13299 22.609 1.17019 22.7105 1.20401 22.8119C1.22092 22.8593 1.23783 22.9066 1.25812 22.954C1.28518 23.025 1.31223 23.096 1.33929 23.1637C1.35958 23.2144 1.37988 23.2651 1.40017 23.3125C1.42722 23.3801 1.45766 23.4444 1.48472 23.5086C1.50501 23.556 1.52869 23.6067 1.54898 23.6541C1.57942 23.7251 1.61324 23.7927 1.64706 23.8604C1.66735 23.901 1.68764 23.9415 1.70793 23.9821C1.76205 24.087 1.81616 24.1884 1.87027 24.2865C1.88718 24.317 1.90748 24.3474 1.92439 24.3778C1.96497 24.4489 2.00894 24.5199 2.0529 24.5909C2.07658 24.6315 2.10363 24.6687 2.12731 24.7059C2.16789 24.7668 2.2051 24.8243 2.24568 24.8818C2.27274 24.919 2.29979 24.9595 2.32685 24.9967C2.37082 25.0542 2.4114 25.1117 2.45537 25.1658C2.48242 25.1997 2.50948 25.2335 2.53654 25.2673C2.59065 25.335 2.64814 25.3992 2.70564 25.4601C2.72255 25.4804 2.74284 25.5007 2.75975 25.521C2.83416 25.6021 2.91194 25.6799 2.99311 25.7543C3.02017 25.778 3.04723 25.8017 3.07428 25.8287C3.13178 25.8795 3.18927 25.9302 3.24677 25.9775C3.28059 26.0046 3.31441 26.0317 3.34823 26.0587C3.40572 26.1027 3.45984 26.1433 3.52071 26.1872C3.55453 26.2109 3.59174 26.238 3.62556 26.2616C3.68982 26.3056 3.75408 26.3462 3.82172 26.3834C3.85215 26.4037 3.88259 26.4206 3.91641 26.4409C4.01449 26.495 4.11595 26.5491 4.21742 26.5998C4.23094 26.6066 4.24786 26.6134 4.26138 26.6201C4.3527 26.6607 4.44401 26.7013 4.53871 26.7385C4.57591 26.752 4.61312 26.7656 4.65032 26.7791C4.72472 26.8061 4.80251 26.8332 4.8803 26.8569C4.92427 26.8704 4.96823 26.8805 5.0122 26.8941C5.08999 26.9144 5.17115 26.9347 5.25232 26.9516C5.29629 26.9617 5.33688 26.9719 5.38084 26.9786C5.47892 26.9989 5.577 27.0124 5.67846 27.0294C5.7089 27.0327 5.73596 27.0395 5.76301 27.0429C5.89491 27.0598 6.02681 27.0733 6.16548 27.0801C6.1993 27.0801 6.2365 27.0801 6.2737 27.0835C6.37855 27.0869 6.48339 27.0902 6.59162 27.0902C6.64235 27.0902 6.69308 27.0902 6.74381 27.0902C6.84189 27.0902 6.93997 27.0835 7.04143 27.0801C7.09554 27.0801 7.15304 27.0733 7.20715 27.0699C7.31199 27.0632 7.4236 27.0497 7.53183 27.0361C7.58256 27.0294 7.62991 27.026 7.68064 27.0192C7.84298 26.9989 8.00531 26.9719 8.17442 26.9414C8.17442 26.9414 4.10243 25.9944 3.3347 22.281C3.58497 22.9134 4.01449 23.4748 4.51842 23.9179C4.38652 23.6642 4.25124 23.4139 4.11934 23.1603C4.63003 23.8367 5.22527 24.4421 5.88477 24.9562C5.72581 24.6856 5.56347 24.415 5.40452 24.1445C5.56009 24.2189 5.71905 24.2831 5.86448 24.3305C5.96594 24.3575 6.06402 24.388 6.15871 24.4015C6.20606 24.4117 6.25003 24.4184 6.29738 24.4252C6.34135 24.4286 6.38531 24.4353 6.42928 24.4387C6.45295 24.4387 6.46986 24.4387 6.49354 24.4421C6.52398 24.4658 6.55103 24.4894 6.57809 24.5131C6.5578 24.4894 6.54089 24.4658 6.52398 24.4455C6.57132 24.4455 6.62205 24.4522 6.66602 24.4556C6.74043 24.459 6.80807 24.4556 6.86894 24.4556C6.9907 24.4556 7.0854 24.4421 7.15304 24.4319C7.2173 24.4252 7.25112 24.4218 7.25112 24.4218C7.25112 24.4218 7.2173 24.4218 7.14965 24.4286C7.0854 24.4319 6.9907 24.4421 6.86894 24.4387C6.80807 24.4387 6.74043 24.4387 6.6694 24.4319C6.61529 24.4286 6.5578 24.4218 6.49692 24.415C5.78331 23.5628 5.17454 22.6192 4.68752 21.6079C4.81266 21.7094 4.93779 21.8142 5.06293 21.9157C4.92088 21.679 4.78222 21.4388 4.64017 21.2021C4.72134 21.2494 4.80251 21.3002 4.88368 21.3475C4.81604 21.2697 4.7484 21.1953 4.68076 21.1175C4.89721 21.3441 5.11366 21.5741 5.33011 21.8007C4.8803 21.1412 4.35608 20.4107 4.21065 19.5956C4.14978 19.2608 4.14978 18.9158 4.07875 18.581C3.98067 18.1278 3.83186 17.6814 3.70334 17.2383C3.6932 17.2045 3.68305 17.1673 3.65938 17.1402C3.62894 17.1064 3.58835 17.0929 3.54439 17.0963C4.01111 14.4312 4.79913 12.3986 4.80589 11.5734C4.80589 11.1337 4.90059 10.5858 5.06293 10.021C5.24218 9.75384 5.45187 9.50357 5.66832 9.26683C6.20268 8.68511 6.79792 8.1406 7.16995 7.44052C7.19024 7.40332 7.20715 7.36612 7.22406 7.32891C7.22406 7.94783 7.35934 8.59042 7.62991 9.23301C7.62991 9.23301 7.62991 9.22963 7.62652 9.22624C7.62991 9.23301 7.63667 9.24315 7.64005 9.24992C7.69755 9.38858 7.76857 9.52386 7.83959 9.66253C7.86665 9.71326 7.88694 9.76399 7.91738 9.81472C7.99517 9.95338 8.07972 10.0887 8.17103 10.2239C8.20485 10.2747 8.23191 10.3254 8.26573 10.3761C8.35705 10.5114 8.46189 10.6433 8.56673 10.7752C8.60732 10.826 8.64452 10.8801 8.68511 10.9308C8.79333 11.0593 8.9117 11.1845 9.03008 11.3096C9.08081 11.3637 9.12477 11.4144 9.1755 11.4685C9.29726 11.5903 9.42916 11.7087 9.56106 11.827C9.62193 11.8812 9.67605 11.9353 9.73692 11.9894C9.87221 12.1044 10.021 12.216 10.1664 12.3276C10.2341 12.3817 10.2983 12.4358 10.3694 12.4865C10.5283 12.6015 10.7008 12.7131 10.8699 12.8214C10.8868 12.8315 10.9037 12.845 10.9206 12.8552C11.2386 13.1427 11.5734 13.4504 11.9251 13.7413C11.9691 13.7852 12.0097 13.8292 12.057 13.8799C12.2126 14.0355 12.3885 14.208 12.5914 14.3873C12.7943 14.5665 13.0175 14.7525 13.261 14.9419C13.5079 15.1279 13.7683 15.3241 14.0457 15.5135C14.6003 15.8956 15.2091 16.2744 15.8212 16.6465C16.4334 17.0185 17.0489 17.3905 17.6442 17.7017C17.7727 17.7693 17.8978 17.8302 18.0229 17.8911C18.0838 17.9384 18.1447 17.9824 18.209 18.0297C18.3172 18.1041 18.4288 18.1785 18.537 18.2563C18.652 18.3273 18.767 18.4017 18.882 18.4762C19.0004 18.5472 19.1221 18.6148 19.2405 18.6858C19.2506 19.0917 19.2608 19.4942 19.1593 19.8831C18.9767 20.6035 18.4559 21.1818 18.1312 21.8514C17.9181 22.2877 17.7321 22.8255 17.2688 22.9743C17.7896 22.9371 18.2935 22.6902 18.6419 22.3013C18.7366 22.4602 18.1785 23.0081 18.1041 23.1772C18.3341 23.0927 18.5573 22.981 18.7602 22.8424C18.6689 22.9574 18.5911 23.0825 18.5235 23.2144C18.5505 23.1603 18.5675 23.0994 18.5742 23.0385C18.4186 23.4376 18.0804 23.7623 17.6746 23.9043C18.2563 23.9483 18.8346 23.7217 19.2777 23.3395C19.0037 23.8063 18.6317 24.2087 18.1819 24.5097C18.094 24.4658 18.0094 24.415 17.935 24.3575C17.8234 24.2764 17.7253 24.1851 17.6408 24.0904C17.4649 23.9043 17.3364 23.7014 17.2349 23.5222C17.1335 23.3395 17.0624 23.1704 17.0083 23.0284C16.9035 22.7443 16.8697 22.5752 16.8697 22.5752C16.8697 22.5752 16.8967 22.7477 16.9948 23.0318C17.0455 23.1738 17.1098 23.3463 17.2079 23.5357C17.306 23.7217 17.4277 23.9314 17.6002 24.1276C17.6847 24.2256 17.7828 24.3237 17.8944 24.4117C17.9621 24.4658 18.0365 24.5131 18.1109 24.5605C18.1041 24.5672 18.094 24.574 18.0872 24.5774C18.0974 24.574 18.1075 24.5672 18.1176 24.5638C18.165 24.5909 18.2157 24.6213 18.2665 24.645C18.3375 24.6788 18.4119 24.7093 18.4897 24.7329C18.4423 24.7668 18.4017 24.8006 18.351 24.831C18.4051 24.804 18.4559 24.7701 18.51 24.7397C18.5742 24.76 18.6419 24.7769 18.7095 24.7904C18.7873 24.8074 18.8685 24.8141 18.9496 24.8209C19.0308 24.8209 19.112 24.8276 19.1898 24.8209C18.8888 25.1861 18.5032 25.4838 18.0669 25.6698C18.7332 25.4533 19.4096 25.1422 19.8797 24.6416C19.9744 24.5909 20.0657 24.5334 20.1503 24.459C20.2855 24.3406 20.3971 24.1952 20.4817 24.0362C20.5696 23.8807 20.6339 23.7116 20.6846 23.5391C20.7827 23.1975 20.8233 22.8424 20.8334 22.4974C20.8334 22.4771 20.8334 22.4602 20.8334 22.4399C20.8842 22.2573 20.9281 22.0713 20.962 21.8853C21.0634 21.3374 21.0871 20.7658 21.0161 20.2145C21.0161 20.042 21.0059 19.8729 20.9924 19.7005C21.0161 19.7985 21.0397 19.9 21.0634 20.0082C21.0871 20.1266 21.1108 20.2517 21.1344 20.3802C21.1547 20.5088 21.1784 20.644 21.1953 20.7793C21.2325 21.0533 21.263 21.3475 21.2799 21.6485C21.2934 21.9495 21.3002 22.264 21.2765 22.582C21.2663 22.7544 21.2494 22.9303 21.2257 23.1062C21.1919 23.2415 21.1581 23.3734 21.1141 23.5053C21.0296 23.7691 20.9247 24.0227 20.7895 24.2595C20.6576 24.4962 20.4986 24.7127 20.3329 24.9156C20.1672 25.1151 19.9947 25.3045 19.829 25.4736C19.6599 25.6427 19.4874 25.7915 19.3183 25.9099C18.9767 26.15 18.6351 26.2549 18.3916 26.2819C18.2698 26.2955 18.1751 26.2955 18.1075 26.2887C18.0432 26.2853 18.006 26.2785 18.006 26.2785C18.006 26.2785 18.0399 26.2853 18.1041 26.2921C18.1684 26.2988 18.2665 26.3022 18.3882 26.2921C18.51 26.2819 18.6588 26.2515 18.8211 26.1974C18.9835 26.1399 19.1593 26.0553 19.3352 25.9403C19.511 25.8253 19.6903 25.6799 19.8662 25.5142C20.042 25.3485 20.2179 25.1658 20.3904 24.9663C20.5629 24.7668 20.7286 24.5503 20.874 24.3102C20.9315 24.2155 20.9789 24.1174 21.0262 24.0193C21.0025 24.0971 20.9721 24.1681 20.945 24.2425C20.9247 24.2831 20.9045 24.3237 20.8842 24.3609C20.8233 24.4624 20.7658 24.5638 20.7083 24.6619C20.6474 24.7566 20.5865 24.8479 20.5257 24.9393C20.4682 25.0272 20.4005 25.1084 20.343 25.1895C20.3126 25.2301 20.2855 25.2673 20.2551 25.3045C20.2247 25.3417 20.1942 25.3755 20.1672 25.4094C20.1097 25.4804 20.0522 25.5446 20.0014 25.6055C19.8898 25.7239 19.7951 25.8253 19.714 25.9099C19.555 26.0587 19.4637 26.1466 19.4536 26.1568C19.3555 26.2177 19.2574 26.2752 19.1559 26.3225C19.1018 26.3496 19.0477 26.3766 18.9936 26.4003C18.9395 26.4206 18.8854 26.4409 18.8346 26.4612C18.7839 26.4815 18.7366 26.4984 18.6892 26.5187C18.4356 26.5423 18.1921 26.5525 17.9621 26.5423C17.6543 26.5288 17.377 26.4848 17.1335 26.4341C16.89 26.3868 16.6803 26.3191 16.5112 26.265C16.3421 26.2041 16.2102 26.1568 16.1222 26.1162C16.0343 26.079 15.987 26.0587 15.987 26.0587C15.987 26.0587 16.0343 26.079 16.1222 26.1196C16.2102 26.1602 16.3387 26.2177 16.5078 26.2819C16.6769 26.3428 16.8832 26.4138 17.1301 26.4713C17.3736 26.5288 17.6543 26.5829 17.9621 26.6032C18.094 26.6134 18.2326 26.6167 18.3713 26.6167C18.2495 26.6472 18.1346 26.6742 18.0399 26.6945C17.8978 26.7216 17.7862 26.7317 17.7118 26.7453C17.634 26.7554 17.5934 26.7622 17.5934 26.7622C17.5934 26.7622 17.634 26.7588 17.7118 26.7486C17.7862 26.7385 17.9012 26.7351 18.0432 26.7114C18.1718 26.6878 18.3273 26.6641 18.4998 26.6167C18.652 26.6134 18.8042 26.6032 18.9632 26.5863C19.3149 26.5457 19.6903 26.4578 20.0488 26.3259C20.201 26.2684 20.3532 26.2008 20.502 26.123C20.4716 26.1602 20.4411 26.2008 20.4107 26.238C20.2078 26.4713 19.9879 26.6709 19.7613 26.8501C18.0669 27.5671 16.2744 26.9516 15.9058 26.2244C15.9058 26.2244 15.9633 26.3699 16.0918 26.5728C16.0309 26.5221 15.9903 26.4882 15.9903 26.4882C15.9903 26.4882 16.0309 26.522 16.0986 26.5795C16.288 26.8772 16.6397 27.2965 17.1943 27.6009C17.1876 27.6009 17.1774 27.6009 17.1707 27.5975C17.0827 27.5772 17.0388 27.5671 17.0388 27.5671C17.0388 27.5671 17.0861 27.5772 17.1707 27.5975C17.1774 27.5975 17.191 27.6009 17.2011 27.6043C17.2958 27.655 17.3939 27.7024 17.5021 27.7464C17.4514 27.7396 17.3973 27.7328 17.3567 27.7227C17.1876 27.6821 17.0658 27.6212 16.9847 27.5806C16.9035 27.5333 16.8629 27.5096 16.8629 27.5096C16.8629 27.5096 16.9035 27.5367 16.9813 27.5874C17.0624 27.6314 17.1842 27.6956 17.3533 27.7396C17.4277 27.7599 17.5123 27.7768 17.6002 27.7903C18.209 28.0135 19.0071 28.0913 20.0454 27.8241C21.7635 27.3777 22.352 26.5897 22.795 25.7104C22.9032 25.5987 23.0047 25.477 23.096 25.3485C23.2076 25.1895 23.2956 25.0137 23.3767 24.8378C23.4985 24.5706 23.6101 24.3 23.6946 24.0193C23.8063 23.8638 23.9348 23.7082 24.0802 23.556C24.0802 23.583 24.0802 23.6101 24.0734 23.6372C24.1377 23.5661 24.2053 23.4985 24.2797 23.4275C24.388 23.326 24.4827 23.2246 24.574 23.1231C24.574 23.1231 24.574 23.1265 24.574 23.1299C24.5909 23.1096 24.6044 23.0927 24.6213 23.0724C24.645 23.0453 24.6653 23.0182 24.6856 22.9946C24.716 22.9574 24.7431 22.9202 24.7701 22.883C24.7904 22.8559 24.8073 22.8322 24.8276 22.8052C24.8547 22.768 24.8784 22.7308 24.902 22.6902C24.919 22.6665 24.9325 22.6428 24.9494 22.6158C24.9731 22.5752 24.9967 22.5346 25.017 22.494C25.0272 22.4737 25.0407 22.4501 25.0509 22.4298C25.0745 22.379 25.0982 22.3283 25.1185 22.281C25.1219 22.2708 25.1286 22.2573 25.132 22.2471C25.1557 22.1863 25.1794 22.1254 25.1997 22.0645C25.2064 22.0476 25.2098 22.0307 25.2166 22.0138C25.2301 21.9698 25.2436 21.9258 25.2538 21.8819C25.2605 21.8582 25.2639 21.8379 25.2707 21.8142C25.2808 21.777 25.2876 21.7398 25.2944 21.7026C25.2977 21.679 25.3045 21.6553 25.3079 21.6316C25.3147 21.5978 25.3214 21.5606 25.3248 21.5268C25.3282 21.5031 25.3316 21.476 25.3349 21.4524C25.3383 21.4185 25.3417 21.3847 25.3451 21.3509C25.3451 21.3272 25.3485 21.3035 25.3519 21.2765C25.3519 21.2427 25.3552 21.2088 25.3586 21.1716C25.3586 21.148 25.3586 21.1243 25.3586 21.1006C25.3586 21.0668 25.3586 21.0296 25.3586 20.9958C25.3586 20.9721 25.3586 20.9518 25.3586 20.9281C25.3586 20.8909 25.3586 20.8537 25.3586 20.8199C25.3586 20.7996 25.3586 20.7793 25.3586 20.759C25.3586 20.7151 25.3586 20.6745 25.3586 20.6339C25.3586 20.6204 25.3586 20.6068 25.3586 20.5933C25.3586 20.5392 25.3552 20.4851 25.3519 20.4276C25.3383 20.3701 25.3248 20.3092 25.3113 20.2517C25.3113 20.2213 25.3113 20.1942 25.3113 20.1638C25.3113 20.1097 25.3113 20.0556 25.3113 20.0015C25.3113 19.9744 25.3113 19.9507 25.3113 19.9271C25.3113 19.8932 25.3113 19.8594 25.3113 19.8256C25.3113 19.7918 25.3113 19.7579 25.3147 19.7275C25.3147 19.6971 25.318 19.67 25.3214 19.6396C25.3248 19.5922 25.3316 19.5483 25.3383 19.5009C25.3383 19.4806 25.3417 19.4637 25.3451 19.4434C25.3485 19.4164 25.3519 19.3893 25.3586 19.3622C25.3755 19.2743 25.3958 19.1864 25.4263 19.1018C25.4533 19.0207 25.4736 18.9395 25.4905 18.8549C25.4905 18.8482 25.4905 18.838 25.4905 18.8313C25.4905 18.8177 25.4973 18.8076 25.4973 18.7941C25.5007 18.7704 25.5007 18.7501 25.504 18.7264C25.5108 18.6858 25.5142 18.6419 25.5176 18.6013C25.5176 18.6013 25.5176 18.5776 25.5176 18.5641C25.5176 18.5438 25.5176 18.5235 25.521 18.5032H25.5311ZM21.7736 21.0803C21.7703 21.5673 21.706 22.0949 21.5809 22.6023C21.5369 22.7815 21.4862 22.9574 21.4287 23.1332C21.4591 22.9608 21.4794 22.7883 21.4963 22.6158C21.4997 22.5752 21.4997 22.5312 21.5031 22.4906C21.5369 22.308 21.5707 22.1254 21.5978 21.9495C21.6384 21.6925 21.6823 21.4388 21.706 21.1953C21.7263 20.9924 21.7263 20.7996 21.7161 20.6136C21.7229 20.644 21.7297 20.6779 21.7364 20.7083C21.7466 20.759 21.7601 20.8131 21.7703 20.8639C21.7703 20.9349 21.7736 21.0093 21.7703 21.0803H21.7736ZM21.4794 20.7624C21.4659 20.6204 21.4456 20.4817 21.4287 20.3498C21.4084 20.2213 21.3881 20.0962 21.3678 19.9744C21.3678 19.9778 21.3678 19.9812 21.3712 19.9845C21.4219 20.1469 21.476 20.3228 21.5031 20.5257C21.5301 20.7218 21.5335 20.945 21.5166 21.1784C21.5166 21.1919 21.5166 21.2055 21.5132 21.219C21.5031 21.0634 21.4929 20.9078 21.476 20.759L21.4794 20.7624ZM18.4051 18.0466C18.3612 18.0162 18.3138 17.9858 18.2698 17.9553C18.165 17.8775 18.0602 17.8031 17.9587 17.7321C17.8606 17.6543 17.7625 17.5799 17.6678 17.5089C17.4818 17.3601 17.3093 17.2146 17.1571 17.0726C17.1504 17.0658 17.1436 17.0625 17.1369 17.0557C17.218 17.0929 17.2992 17.1267 17.3804 17.1639C17.908 17.5596 18.4119 17.9316 18.8955 18.2563C18.7771 18.209 18.6554 18.1616 18.5303 18.1075C18.4897 18.0906 18.4457 18.0669 18.4051 18.05V18.0466ZM12.2532 13.9374C12.2126 13.8969 12.1686 13.8529 12.1314 13.8157C12.057 13.7379 11.9894 13.6635 11.9251 13.5925C11.8642 13.5214 11.8067 13.4572 11.756 13.3963C11.7323 13.3693 11.7154 13.3456 11.6917 13.3185C11.7459 13.3456 11.7932 13.3794 11.8473 13.4065C11.8541 13.4065 11.8575 13.4132 11.8642 13.4166V13.4234C11.8642 13.4234 11.8913 13.4437 11.9488 13.4809C12.0063 13.5181 12.0942 13.5688 12.1991 13.6398C12.4121 13.7785 12.7131 13.9882 13.0615 14.2554C13.3929 14.509 13.7649 14.81 14.1708 15.1347C13.65 14.8574 13.1122 14.5597 12.6083 14.2046C12.4865 14.1201 12.3715 14.0288 12.2566 13.9374H12.2532ZM21.8616 24.7904C21.8007 24.8716 21.7297 24.9426 21.6654 25.0204C21.6756 25.0001 21.6857 24.9798 21.6925 24.9595C21.7331 24.8648 21.7669 24.7735 21.8041 24.6788C21.9394 24.3 22.0307 23.9043 22.0916 23.5154C22.1524 23.1265 22.1863 22.7409 22.2032 22.3655C22.2133 22.1119 22.2133 21.8683 22.2099 21.6282C22.3148 22.5955 22.2979 23.742 21.9089 24.7262C21.8954 24.7465 21.8819 24.7701 21.865 24.7904H21.8616ZM21.4693 19.4975C21.4693 19.4975 21.4625 19.4705 21.4591 19.4569C21.4963 19.4637 21.5335 19.4705 21.5673 19.4739C21.5741 19.4908 21.5775 19.5111 21.5842 19.5314C21.5673 19.528 21.5504 19.5246 21.5369 19.5178C21.5132 19.5111 21.4895 19.5043 21.4693 19.4975ZM7.82607 5.16102C7.82607 5.16102 7.84298 5.14411 7.84974 5.13396C7.83959 5.14749 7.83283 5.1644 7.82268 5.17793C7.82268 5.17116 7.82268 5.16778 7.82268 5.16102H7.82607ZM13.234 14.2046C13.2678 14.2249 13.2982 14.2452 13.332 14.2655C13.5316 14.3906 13.7277 14.5158 13.9205 14.6443C13.9611 14.6713 13.9983 14.695 14.0389 14.7221C14.2249 14.8472 14.4075 14.9723 14.5902 15.0975C14.6375 15.1313 14.6815 15.1617 14.7288 15.1956C14.9013 15.3173 15.0704 15.4391 15.2361 15.5574C15.2936 15.598 15.3511 15.642 15.4086 15.6826C15.4932 15.7435 15.5743 15.8043 15.6589 15.8686C15.3105 15.7164 14.9419 15.5372 14.5597 15.341C14.4718 15.27 14.3771 15.1956 14.2892 15.1245C13.863 14.7762 13.4707 14.4447 13.1224 14.1742C13.0513 14.1167 12.9803 14.0626 12.9127 14.0118C13.0209 14.0761 13.1291 14.1404 13.234 14.2046ZM21.6045 19.8628C21.5707 19.7749 21.5369 19.6937 21.5065 19.6125C21.5065 19.6125 21.5065 19.6125 21.5098 19.6125C21.547 19.6227 21.5809 19.6294 21.6147 19.6396C21.6248 19.6768 21.635 19.714 21.6451 19.7546C21.6823 19.9135 21.7094 20.0928 21.7331 20.2788C21.7331 20.272 21.7297 20.2653 21.7263 20.2551C21.6823 20.1198 21.6485 19.9845 21.6045 19.8628ZM11.4077 13.1596C11.4077 13.1596 11.4212 13.1765 11.4347 13.19C11.4652 13.2272 11.5057 13.2779 11.5531 13.3354C11.4584 13.2509 11.3671 13.1663 11.2758 13.0818C11.3197 13.1088 11.3637 13.1325 11.411 13.1562L11.4077 13.1596ZM15.7468 15.9328C15.7468 15.9328 15.7806 15.9565 15.7976 15.9701C15.8212 15.987 15.8483 16.0073 15.872 16.0242C15.8787 16.0275 15.8855 16.0343 15.8923 16.0377C15.987 16.1087 16.0817 16.1797 16.173 16.2474C16.1933 16.2643 16.2169 16.2812 16.2372 16.2947C16.3421 16.3725 16.4435 16.4503 16.545 16.5281C16.5957 16.5856 16.6465 16.6465 16.7039 16.7107C16.7513 16.7581 16.802 16.8122 16.8528 16.8663C16.7006 16.7885 16.5518 16.7107 16.3996 16.6228C16.1493 16.4807 15.899 16.3252 15.6589 16.1628C15.3241 15.9362 15.0062 15.6927 14.6984 15.4492C15.0637 15.6285 15.4154 15.7942 15.7468 15.9328ZM16.7378 16.6837C16.7378 16.6837 16.7276 16.6735 16.7209 16.6668C16.9001 16.802 17.0726 16.9339 17.2451 17.0658C17.2146 17.0523 17.1808 17.0388 17.1504 17.0219C17.1098 17.0016 17.0692 16.9813 17.0286 16.961C16.9238 16.8629 16.8257 16.7682 16.7344 16.6837H16.7378ZM21.9292 22.8762C21.8954 23.4545 21.8108 24.0498 21.6282 24.618C21.5978 24.7093 21.5673 24.804 21.5301 24.8919C21.4929 24.9832 21.4557 25.0745 21.4151 25.1591C21.3779 25.2403 21.3374 25.3214 21.2934 25.4026C21.2055 25.4838 21.1175 25.5683 21.0228 25.6427C20.9586 25.6901 20.8943 25.7374 20.8301 25.7814C20.918 25.6529 21.0025 25.521 21.0905 25.3857C21.1784 25.22 21.2731 25.0576 21.3543 24.8885L21.4659 24.6281C21.5031 24.5402 21.5437 24.4556 21.5707 24.3643C21.6282 24.1851 21.7026 24.0058 21.7432 23.8232C21.7906 23.6405 21.8413 23.4579 21.8683 23.2719C21.8853 23.1806 21.8988 23.0893 21.9157 22.998C21.9225 22.9574 21.9258 22.9168 21.9292 22.8762ZM21.2663 25.7476C21.3171 25.6698 21.3678 25.5886 21.4151 25.5074C21.4659 25.4635 21.52 25.4229 21.5707 25.3789C21.4726 25.5345 21.3577 25.6799 21.2325 25.8186C21.2088 25.8423 21.1852 25.8626 21.1649 25.8862C21.1987 25.8389 21.2359 25.7949 21.2697 25.7476H21.2663ZM6.43942 24.415C6.43942 24.415 6.42928 24.415 6.4259 24.415C6.38531 24.4083 6.34135 24.4015 6.29738 24.3947C6.25341 24.388 6.20944 24.3744 6.1621 24.3643C6.07078 24.3474 5.97608 24.3136 5.878 24.2831C5.69875 24.2155 5.50936 24.1343 5.32335 24.0227C5.1813 23.7826 5.03925 23.5425 4.89721 23.3023C5.05616 23.3937 5.20836 23.4917 5.35717 23.6033C5.11704 23.3091 4.88706 23.0081 4.67061 22.697C5.20498 23.3294 5.80022 23.9077 6.44619 24.4184L6.43942 24.415ZM15.8517 16.6059C15.2429 16.2271 14.6375 15.8449 14.0896 15.456C13.8157 15.2632 13.5553 15.067 13.3151 14.8777C13.075 14.6849 12.8552 14.4989 12.6556 14.3196C12.6387 14.3027 12.6252 14.2892 12.6083 14.2723C13.1731 14.6578 13.7751 14.9757 14.3467 15.27C14.7491 15.5879 15.1753 15.9159 15.6285 16.2136C15.872 16.3759 16.129 16.5281 16.3793 16.6668C16.5687 16.7716 16.7581 16.8663 16.9475 16.9576C16.9982 17.0117 17.0523 17.0625 17.1098 17.1166C17.2586 17.262 17.4311 17.4142 17.6137 17.5698C17.6983 17.6374 17.7828 17.7084 17.8708 17.7794C17.8031 17.7456 17.7355 17.7118 17.6645 17.6746C17.0726 17.3567 16.4638 16.9779 15.8551 16.6025L15.8517 16.6059ZM18.9395 18.3916C18.8245 18.3206 18.7095 18.2496 18.5945 18.1785C18.5776 18.1684 18.5607 18.1549 18.5438 18.1447C18.6926 18.2056 18.838 18.2631 18.9767 18.3138C19.0646 18.3713 19.1492 18.4288 19.2337 18.4829C19.2337 18.51 19.2337 18.537 19.2337 18.5641C19.1323 18.5066 19.0342 18.4491 18.9361 18.395L18.9395 18.3916ZM18.3037 24.5875C18.2698 24.574 18.2428 24.5571 18.209 24.5402C18.5776 24.3711 18.9226 24.1512 19.227 23.8807C19.0815 24.1918 18.8617 24.4658 18.5945 24.6788C18.4931 24.6552 18.395 24.6247 18.3037 24.5875ZM19.1931 24.7228C19.112 24.7329 19.0376 24.7296 18.9598 24.7296C18.882 24.7228 18.8042 24.7228 18.7298 24.7059C18.696 24.7025 18.6655 24.6924 18.6351 24.6856C19.0984 24.4049 19.5043 24.0295 19.8121 23.583C19.7241 23.9889 19.5381 24.3711 19.2912 24.7093C19.2574 24.7127 19.227 24.7194 19.1931 24.7228ZM20.3397 23.9754C20.3397 23.9754 20.3329 23.9855 20.3295 23.9923C20.4005 23.8333 20.458 23.671 20.5121 23.5053C20.5121 23.5053 20.5121 23.5053 20.5121 23.5086C20.4716 23.671 20.4174 23.8299 20.3397 23.9754ZM19.7309 25.9336C19.8154 25.8524 19.9135 25.7509 20.0285 25.6393C20.0826 25.5785 20.1401 25.5142 20.201 25.4466C20.2314 25.4127 20.2619 25.3789 20.2923 25.3417C20.3227 25.3045 20.3532 25.2673 20.3836 25.2267C20.4445 25.1489 20.5121 25.0678 20.573 24.9798C20.6339 24.8953 20.6948 24.8074 20.759 24.716C20.6609 24.9156 20.5527 25.1084 20.4276 25.2808C20.245 25.521 20.0454 25.7374 19.829 25.9133C19.7072 26.008 19.5888 26.0925 19.4671 26.1703C19.4806 26.1602 19.5719 26.0756 19.7343 25.9336H19.7309ZM20.015 26.2278C19.6565 26.3732 19.3047 26.4612 18.9564 26.5153C18.9226 26.5187 18.8955 26.5187 18.8617 26.5254C18.9158 26.5085 18.9699 26.4882 19.024 26.4679C19.0781 26.4443 19.1323 26.4206 19.1898 26.3935C19.4164 26.2955 19.6463 26.1534 19.8763 25.9877C20.1029 25.8152 20.3194 25.6021 20.5121 25.3586C20.7049 25.1117 20.8706 24.8344 21.0093 24.5368C21.1243 24.2967 21.2055 24.0396 21.2799 23.7826C21.4456 23.4241 21.591 23.0385 21.6992 22.6395C21.7804 22.3385 21.8413 22.0375 21.8819 21.7364C21.8853 21.8007 21.8886 21.8616 21.8954 21.9258C21.8954 22.0138 21.8954 22.0983 21.8954 22.1863C21.8954 22.2742 21.8954 22.3621 21.8954 22.4534C21.8886 22.5414 21.8819 22.6327 21.8717 22.724C21.8616 22.8153 21.8582 22.9066 21.8447 22.998C21.8311 23.0893 21.8142 23.1806 21.8007 23.2719C21.777 23.4545 21.7297 23.6372 21.6823 23.8164C21.6451 23.999 21.5741 24.1749 21.5166 24.3542C21.4895 24.4455 21.4523 24.53 21.4151 24.618L21.3069 24.8784C21.2291 25.0475 21.1344 25.2098 21.0499 25.3755C20.9484 25.5311 20.8537 25.6901 20.7489 25.8389C20.7421 25.8456 20.7354 25.8558 20.7286 25.8626C20.4986 26.0114 20.2585 26.1399 20.015 26.238V26.2278ZM20.4445 26.2752C20.4952 26.2177 20.5426 26.1534 20.5899 26.0925C20.7421 26.0114 20.8909 25.9167 21.0364 25.8152C20.8909 26.0283 20.7286 26.2312 20.5561 26.4138C20.3329 26.5762 20.1029 26.7081 19.8695 26.8129C20.0691 26.6539 20.2619 26.4781 20.4411 26.2752H20.4445ZM23.3192 24.8141C23.2415 24.99 23.1569 25.1625 23.0487 25.318C22.9979 25.3924 22.9405 25.4669 22.883 25.5379C23.0859 25.1151 23.2719 24.6755 23.5458 24.2459C23.4782 24.4387 23.4004 24.6281 23.3192 24.8141Z" fill="white"/>
</g>
</g>
<defs>
<filter id="filter0_d_0_133" x="-0.989132" y="-1.00027" width="27.5202" height="29.9937" filterUnits="userSpaceOnUse" color-interpolation-filters="sRGB">
<feFlood flood-opacity="0" result="BackgroundImageFix"/>
<feColorMatrix in="SourceAlpha" type="matrix" values="0 0 0 0 0 0 0 0 0 0 0 0 0 0 0 0 0 0 127 0" result="hardAlpha"/>
<feOffset/>
<feGaussianBlur stdDeviation="0.5"/>
<feComposite in2="hardAlpha" operator="out"/>
<feColorMatrix type="matrix" values="0 0 0 0 0 0 0 0 0 0 0 0 0 0 0 0 0 0 0.45 0"/>
<feBlend mode="normal" in2="BackgroundImageFix" result="effect1_dropShadow_0_133"/>
<feBlend mode="normal" in="SourceGraphic" in2="effect1_dropShadow_0_133" result="shape"/>
</filter>
<clipPath id="clip0_0_133">
<rect width="25.5311" height="28" fill="white"/>
</clipPath>
</defs>
</svg>
