<svg width="36" height="20" viewBox="0 0 36 20" fill="none" xmlns="http://www.w3.org/2000/svg">
<g clip-path="url(#clip0_0_143)">
<g filter="url(#filter0_d_0_143)">
<path d="M1.02962 17.1849C-0.406661 16.3874 -0.325362 15.013 1.16512 14.32C2.16007 13.8555 3.2247 13.5187 4.27384 13.1702C7.90133 11.9624 8.21878 12.2566 8.32331 11.3662C8.9195 6.3566 10.019 -1.87009 14.5756 0.379183C17.2778 1.71094 18.7218 1.71481 21.4279 0.379183C25.9846 -1.87009 27.084 6.36047 27.6802 11.3662C27.7344 11.8153 27.9319 12.032 28.3732 12.1521C30.0573 12.6166 33.317 13.6116 34.8345 14.32C36.3212 15.013 36.4063 16.3874 34.97 17.1849C29.0352 20.4755 7.27029 20.6459 1.02962 17.1849Z" fill="#FC2D7C"/>
</g>
</g>
<defs>
<filter id="filter0_d_0_143" x="-1.00167" y="-1.00204" width="38.0016" height="21.7192" filterUnits="userSpaceOnUse" color-interpolation-filters="sRGB">
<feFlood flood-opacity="0" result="BackgroundImageFix"/>
<feColorMatrix in="SourceAlpha" type="matrix" values="0 0 0 0 0 0 0 0 0 0 0 0 0 0 0 0 0 0 127 0" result="hardAlpha"/>
<feOffset/>
<feGaussianBlur stdDeviation="0.5"/>
<feComposite in2="hardAlpha" operator="out"/>
<feColorMatrix type="matrix" values="0 0 0 0 0 0 0 0 0 0 0 0 0 0 0 0 0 0 0.45 0"/>
<feBlend mode="normal" in2="BackgroundImageFix" result="effect1_dropShadow_0_143"/>
<feBlend mode="normal" in="SourceGraphic" in2="effect1_dropShadow_0_143" result="shape"/>
</filter>
<clipPath id="clip0_0_143">
<rect width="36" height="19.717" fill="white"/>
</clipPath>
</defs>
</svg>
