<svg width="26" height="26" viewBox="0 0 26 26" fill="none" xmlns="http://www.w3.org/2000/svg">
<g filter="url(#filter0_d_0_148)">
<path d="M11.2727 24.1971C8.09395 22.5104 5.06924 20.4994 3.95828 19.3479C2.18238 17.4909 1.38768 15.942 1.16063 13.8417C0.933571 11.8469 0.949789 2.37542 1.19306 1.66181L1.38768 1.05363L2.40944 1.00497C3.18791 0.972535 4.03937 1.09417 5.7504 1.50774C8.25613 2.08349 9.83741 2.74033 11.662 3.94048C12.2134 4.32161 12.7891 4.62165 12.9432 4.62165C13.0973 4.62165 13.673 4.3135 14.2245 3.94048C16.049 2.74033 17.6303 2.08349 20.1198 1.50774C21.8957 1.10228 22.7066 0.980644 23.5419 1.00497C24.6042 1.05363 24.6366 1.06174 24.7582 1.50774C24.9285 2.11592 24.9123 12.1632 24.7258 13.7201C24.4339 16.3394 22.7796 18.9181 20.3144 20.621C18.1736 22.1131 13.227 25.0161 12.8621 24.9999C12.8135 24.9999 12.0999 24.635 11.2646 24.1971H11.2727ZM10.2672 14.3607C10.9646 13.9958 10.7051 12.5037 9.69145 11.0603C9.03461 10.1196 8.15882 9.47903 7.1695 9.20332C6.40724 8.99248 4.35563 8.99248 3.83665 9.1871C3.48795 9.30874 3.4393 9.41415 3.4393 10.0548C3.45552 11.0279 3.90963 11.9848 4.77731 12.8849C5.93691 14.085 6.95056 14.4824 8.80755 14.4986C9.46439 14.5148 10.1131 14.4499 10.2672 14.3607ZM19.6333 14.0688C21.247 13.3552 22.6012 11.5306 22.6012 10.071C22.6012 9.38983 22.585 9.35739 22.0498 9.1871C21.7173 9.06546 20.9226 9.01681 20.0306 9.06546C18.7494 9.11412 18.4655 9.17088 17.8411 9.53579C17.0627 9.9899 16.0328 11.1819 15.6679 12.0577C15.303 12.8768 15.3192 14.0364 15.7003 14.304C16.1544 14.6527 18.6683 14.4986 19.6414 14.0607L19.6333 14.0688Z" fill="#FC2D7C"/>
</g>
<defs>
<filter id="filter0_d_0_148" x="0" y="0" width="25.8764" height="26" filterUnits="userSpaceOnUse" color-interpolation-filters="sRGB">
<feFlood flood-opacity="0" result="BackgroundImageFix"/>
<feColorMatrix in="SourceAlpha" type="matrix" values="0 0 0 0 0 0 0 0 0 0 0 0 0 0 0 0 0 0 127 0" result="hardAlpha"/>
<feOffset/>
<feGaussianBlur stdDeviation="0.5"/>
<feComposite in2="hardAlpha" operator="out"/>
<feColorMatrix type="matrix" values="0 0 0 0 0 0 0 0 0 0 0 0 0 0 0 0 0 0 0.45 0"/>
<feBlend mode="normal" in2="BackgroundImageFix" result="effect1_dropShadow_0_148"/>
<feBlend mode="normal" in="SourceGraphic" in2="effect1_dropShadow_0_148" result="shape"/>
</filter>
</defs>
</svg>
