<svg width="17" height="40" viewBox="0 0 17 40" fill="none" xmlns="http://www.w3.org/2000/svg">
<g filter="url(#filter0_d_0_119)">
<path d="M1.60016 18.8736C1.63509 18.7466 1.67468 18.5426 1.67235 18.4117C1.65139 16.381 2.41054 15.5919 2.66902 14.6256C3.76349 10.5373 2.54232 9.72408 3.36667 8.6C3.44817 8.48836 4.33867 8.28919 4.48538 8.24107C6.00367 7.7464 6.67898 7.39031 6.96541 7.20168C7.02828 7.16126 7.07719 7.07272 7.07951 7.00728L7.1354 5.87935C7.14006 5.81391 7.09814 5.72344 7.04924 5.6734C6.7698 5.39045 6.55091 5.02667 6.41584 4.61284C6.27845 4.52622 6.14572 4.25097 6.09449 3.91606C6.03627 3.54265 6.09915 3.22121 6.23188 3.14422C6.23654 2.37238 6.50899 1.00192 8.49767 1C10.484 1.00192 10.7565 2.3743 10.7635 3.14422C10.8985 3.22121 10.9591 3.54265 10.9009 3.91606C10.8496 4.2529 10.7169 4.52815 10.5795 4.61284C10.4444 5.02667 10.2255 5.39045 9.9461 5.6734C9.8972 5.72344 9.85528 5.81583 9.85761 5.87935L9.9135 7.00728C9.91583 7.07272 9.96706 7.16126 10.0276 7.20168C10.3164 7.39031 10.9917 7.7464 12.5076 8.24107C12.6543 8.28919 13.5518 8.48836 13.6333 8.6C14.4577 9.72408 13.2295 10.5373 14.324 14.6256C14.5825 15.5899 15.3416 16.381 15.3207 18.4117C15.3207 18.5426 15.3579 18.7466 15.3929 18.8736C15.5163 19.3163 15.6746 20.3653 14.9644 21.6742C14.8992 21.7935 14.7664 21.8012 14.6849 21.6915C14.3706 21.2623 13.7395 20.1844 14.2588 19.0276C14.3124 18.9063 14.3007 18.7216 14.2215 18.608C13.8815 18.121 13.0456 16.8083 12.7382 15.2666C12.7382 15.2666 12.0442 12.3794 12.0442 11.3458C12.0442 11.3458 11.816 14.9143 11.8673 17.5109C11.9115 19.734 13.8722 19.9207 11.313 28.9884C11.2781 29.1154 11.2478 29.3137 11.2758 29.4427C11.4015 30.0567 11.6623 31.8025 10.9684 33.5213C10.1068 35.6559 10.4957 36.3065 10.4957 36.3065C10.4957 36.3065 11.3922 37.7693 11.3573 38.1908C11.313 38.6971 10.1114 39.3938 9.27545 38.724C9.00299 38.5046 8.97971 37.4479 8.98436 36.9686C8.98436 36.8377 8.8982 36.6549 8.84231 36.5317C8.79341 36.42 8.7678 36.2661 8.85163 36.0851C8.90752 35.9639 8.98203 35.7733 8.97505 35.6443L8.79807 32.6686C8.79807 32.6686 9.00532 30.253 9.11943 29.4542C9.13805 29.3252 9.14504 29.1154 9.12641 28.9865C8.97505 27.9933 8.41617 24.0802 8.72355 21.8859H8.28343C8.59082 24.0802 8.03194 27.9933 7.88058 28.9865C7.85962 29.1154 7.8666 29.3233 7.88523 29.4542C7.99934 30.2511 8.20659 32.6686 8.20659 32.6686L8.02961 35.6443C8.02262 35.7733 8.09714 35.9639 8.15303 36.0851C8.23686 36.2661 8.21125 36.42 8.16234 36.5317C8.10878 36.6529 8.0203 36.8377 8.02262 36.9686C8.02728 37.4479 8.00632 38.5046 7.73154 38.724C6.89322 39.3938 5.69396 38.6951 5.64738 38.1908C5.61013 37.7693 6.50899 36.3065 6.50899 36.3065C6.50899 36.3065 6.89555 35.6578 6.03627 33.5213C5.34233 31.8025 5.60081 30.0567 5.72889 29.4427C5.7545 29.3137 5.72889 29.1154 5.6893 28.9884C2.85764 19.3413 4.82304 19.8861 4.86961 17.6629C4.93714 14.3484 4.9581 11.3477 4.9581 11.3477C4.9581 12.3794 4.26416 15.2685 4.26416 15.2685C3.95444 16.8102 3.12078 18.123 2.7808 18.6099C2.70162 18.7235 2.68998 18.9063 2.74354 19.0295C3.2605 20.1844 2.62943 21.2623 2.31506 21.6934C2.23356 21.8051 2.10083 21.7955 2.03562 21.6761C1.32538 20.3673 1.48373 19.3183 1.60715 18.8756L1.60016 18.8736Z" fill="#FC2D7C"/>
</g>
<defs>
<filter id="filter0_d_0_119" x="0.5" y="0" width="16" height="40" filterUnits="userSpaceOnUse" color-interpolation-filters="sRGB">
<feFlood flood-opacity="0" result="BackgroundImageFix"/>
<feColorMatrix in="SourceAlpha" type="matrix" values="0 0 0 0 0 0 0 0 0 0 0 0 0 0 0 0 0 0 127 0" result="hardAlpha"/>
<feOffset/>
<feGaussianBlur stdDeviation="0.5"/>
<feComposite in2="hardAlpha" operator="out"/>
<feColorMatrix type="matrix" values="0 0 0 0 0 0 0 0 0 0 0 0 0 0 0 0 0 0 0.45 0"/>
<feBlend mode="normal" in2="BackgroundImageFix" result="effect1_dropShadow_0_119"/>
<feBlend mode="normal" in="SourceGraphic" in2="effect1_dropShadow_0_119" result="shape"/>
</filter>
</defs>
</svg>
