<svg xmlns="http://www.w3.org/2000/svg" width="49" height="49" viewBox="0 0 49 49" fill="none">
  <path d="M40.0853 27.6047C38.353 26.3404 36.9305 24.6991 35.9253 22.8047C33.3335 17.8725 31.7045 12.4918 31.1253 6.95029L30.8052 3.95349C30.7842 3.75633 30.6907 3.57401 30.5429 3.44186C30.3952 3.30972 30.2035 3.23718 30.0053 3.23829H19.4981C19.2997 3.23718 19.1082 3.30972 18.9604 3.44186C18.8125 3.57401 18.7191 3.75633 18.6981 3.95349L18.3876 6.95189C17.8026 12.5256 16.1593 17.9365 13.5461 22.8943C12.5438 24.7539 11.1356 26.3638 9.42606 27.6047C7.43567 29.2319 5.55566 30.7711 5.55566 34.7071C5.59468 35.9005 5.88186 37.0727 6.39893 38.149C6.916 39.2253 7.6516 40.182 8.55887 40.9583C8.7467 41.0926 8.96114 41.1851 9.18774 41.2295C9.41434 41.2739 9.64782 41.2693 9.87246 41.2159C10.0933 41.1633 10.3001 41.0635 10.4788 40.9236C10.6575 40.7836 10.8038 40.6066 10.9077 40.4047C11.5877 39.0799 13.0437 36.8399 15.1557 36.8399C16.9074 36.9924 18.5557 37.7347 19.8309 38.9455L20.4708 39.4607C21.6237 40.6344 23.1281 41.3995 24.7557 41.6399C26.3832 41.3995 27.8877 40.6344 29.0405 39.4607L29.6805 38.9455C30.9556 37.7347 32.6039 36.9924 34.3557 36.8399C36.4677 36.8399 37.9236 39.0799 38.6037 40.4047C38.7076 40.6066 38.8539 40.7836 39.0325 40.9236C39.2112 41.0635 39.418 41.1633 39.6389 41.2159C39.8632 41.2686 40.0962 41.2732 40.3224 41.229C40.5486 41.1849 40.7628 41.0932 40.9509 40.9599C41.8585 40.1835 42.5945 39.2266 43.1118 38.1499C43.6291 37.0734 43.9165 35.9009 43.9557 34.7071C43.9557 30.7711 42.0756 29.2319 40.0853 27.6047Z" fill="white"/>
</svg>