<svg width="20" height="40" viewBox="0 0 20 40" fill="none" xmlns="http://www.w3.org/2000/svg">
<g filter="url(#filter0_d_0_123)">
<path d="M8.14902 7.0089L8.21249 5.88103C8.21513 5.81559 8.17018 5.72513 8.112 5.67316C7.79466 5.39023 7.54344 5.02646 7.39006 4.61265C7.23403 4.52604 7.08594 4.25081 7.02777 3.91592C6.96165 3.54252 7.03305 3.2211 7.18379 3.14411C7.19172 2.37231 7.79731 0.998077 10.0557 1C12.3114 1.00193 12.9196 2.37423 12.9249 3.14411C13.0757 3.2211 13.1471 3.54252 13.081 3.91592C13.0228 4.25274 12.872 4.52797 12.716 4.61265C12.5626 5.02646 12.3141 5.39023 11.9967 5.67316C11.9412 5.7232 11.8936 5.81559 11.8962 5.8791L11.9597 7.00698C11.9623 7.07241 12.0205 7.16095 12.0893 7.20137C12.4172 7.38999 14.4561 7.90581 15.1357 8.49476C17.4999 10.5426 17.1931 10.6543 17.8595 14.6249C18.0235 15.6065 18.5682 16.3802 18.5444 18.4108C18.5444 18.5417 18.4387 18.7457 18.4783 18.8727C18.6185 19.3154 18.7983 20.3644 17.9917 21.6732C17.9177 21.7925 17.767 21.8002 17.6744 21.6905C17.3174 21.2613 16.6007 20.1834 17.1878 19.0267C17.2486 18.9054 17.2354 18.7207 17.1455 18.6071C16.7594 18.1202 15.8127 16.8075 15.461 15.2658C15.461 15.2658 14.0779 13.3662 14.0779 12.3345C14.0779 12.3345 14.9374 15.0156 15.0405 15.7085C15.0881 16.0319 16.0322 16.8422 16.1776 18.8592C16.9842 21.1285 18.481 23.4573 14.8845 29.0024C14.8078 29.1198 14.784 29.4508 14.8157 29.5798C14.9612 30.1938 14.0885 31.8009 13.3004 33.5216C12.322 35.6561 12.6129 36.3066 12.6129 36.3066C12.6129 36.3066 13.3348 37.7694 13.2925 38.1909C13.2423 38.6971 11.8777 39.3938 10.9284 38.724C10.619 38.5046 10.5925 37.448 10.5978 36.9687C10.5978 36.8378 10.5 36.655 10.4391 36.5318C10.3836 36.4202 10.3545 36.2662 10.4497 36.0853C10.5132 35.964 10.4497 35.7735 10.4391 35.6445L10.3862 32.6689C10.3862 32.6689 10.4735 30.2534 10.6004 29.4547C10.6216 29.3257 10.6295 29.1159 10.6057 28.987C10.4338 27.9939 9.69868 24.106 10.0478 21.9118C10.3968 24.106 9.51357 27.9939 9.33903 28.987C9.31788 29.1159 9.30994 29.3257 9.35225 29.4528C9.72248 30.5479 9.70926 32.667 9.70926 32.667L9.50828 35.6426C9.50035 35.7715 9.43423 35.9621 9.4977 36.0833C9.5929 36.2643 9.56381 36.4182 9.50828 36.5299C9.44746 36.6511 9.34697 36.8359 9.34961 36.9668C9.3549 37.446 9.3311 38.5027 9.01905 38.7221C8.06704 39.3919 6.70514 38.6932 6.6549 38.189C6.61258 37.7675 7.48261 36.3047 7.48261 36.3047C7.48261 36.3047 7.77351 35.6561 6.79505 33.5197C6.00964 31.8028 4.80641 30.2688 4.63452 29.4431C4.60808 29.3142 4.62659 29.1082 4.56841 28.9851C2.02972 23.415 2.76752 20.8821 4.02894 18.8342C4.20083 16.9269 4.93335 16.1223 4.9783 15.747C5.06028 15.0233 6.00964 12.3345 6.00964 12.3345C6.00964 13.3662 4.63716 15.2658 4.63716 15.2658C4.28545 16.8075 3.33873 18.1202 2.95264 18.6071C2.86273 18.7207 2.85744 18.9016 2.92884 19.0209C3.56351 20.1007 2.79397 21.2401 2.42374 21.6885C2.33119 21.8002 2.1831 21.7925 2.10905 21.6732C1.29984 20.3644 1.48231 19.3154 1.62247 18.8727C1.66214 18.7457 1.55636 18.5417 1.55636 18.4108C1.53256 16.3802 2.0641 15.6065 2.24128 14.6249C3.00288 10.3867 2.7067 10.279 4.96508 8.49476C5.91973 7.74028 7.68624 7.38999 8.01151 7.20137C8.08291 7.16095 8.13844 7.07241 8.14109 7.00698L8.14902 7.0089Z" fill="#FC2D7C"/>
</g>
<defs>
<filter id="filter0_d_0_123" x="0.5" y="0" width="19.1" height="40" filterUnits="userSpaceOnUse" color-interpolation-filters="sRGB">
<feFlood flood-opacity="0" result="BackgroundImageFix"/>
<feColorMatrix in="SourceAlpha" type="matrix" values="0 0 0 0 0 0 0 0 0 0 0 0 0 0 0 0 0 0 127 0" result="hardAlpha"/>
<feOffset/>
<feGaussianBlur stdDeviation="0.5"/>
<feComposite in2="hardAlpha" operator="out"/>
<feColorMatrix type="matrix" values="0 0 0 0 0 0 0 0 0 0 0 0 0 0 0 0 0 0 0.45 0"/>
<feBlend mode="normal" in2="BackgroundImageFix" result="effect1_dropShadow_0_123"/>
<feBlend mode="normal" in="SourceGraphic" in2="effect1_dropShadow_0_123" result="shape"/>
</filter>
<linearGradient id="paint0_linear_0_123" x1="5.97262" y1="23.3938" x2="25.3711" y2="-3.26164" gradientUnits="userSpaceOnUse">
<stop stop-color="white"/>
<stop offset="1" stop-color="#E5E5E7"/>
</linearGradient>
</defs>
</svg>
