<svg width="28" height="30" viewBox="0 0 28 30" fill="none" xmlns="http://www.w3.org/2000/svg">
<g filter="url(#filter0_d_0_111)">
<path d="M14.126 18.9434C15.3692 18.9434 16.4297 18.499 17.3073 17.6102C18.1848 16.7216 18.6235 15.6487 18.6235 14.3915C18.6235 13.1343 18.1841 12.0619 17.3052 11.1743C16.4266 10.287 15.3656 9.84327 14.1224 9.84327C12.8792 9.84327 11.8188 10.2877 10.9411 11.1764C10.0636 12.065 9.62491 13.1379 9.62491 14.3951C9.62491 15.6524 10.0643 16.7248 10.9432 17.6123C11.8219 18.4997 12.8828 18.9434 14.126 18.9434ZM13.2244 28.0435V25.6168H10.8247V23.7968H13.2244V20.6888C11.68 20.4524 10.3941 19.7406 9.36664 18.5536C8.339 17.3667 7.82518 15.98 7.82518 14.3933C7.82518 13.7104 7.92976 13.0435 8.13893 12.3925C8.3481 11.7416 8.65425 11.1391 9.05739 10.5852L7.76969 9.28331L6.08994 10.982L4.83733 9.71496L6.51708 7.99747L3.62581 5.07391V8.62993H1.82609V1.95652H8.42509V3.77654H4.90872L7.79968 6.7004L9.49802 5.00172L10.7509 6.26845L9.07119 7.98594L10.3703 9.2997C10.9102 8.87968 11.502 8.56188 12.1457 8.34631C12.7894 8.13094 13.4489 8.02325 14.1242 8.02325C14.7995 8.02325 15.459 8.13094 16.1027 8.34631C16.7464 8.56188 17.3382 8.87968 17.8782 9.2997L23.3397 3.77654H19.8234V1.95652H26.4224V8.62993H24.6226V5.07391L19.1611 10.5783C19.5642 11.1368 19.8754 11.7383 20.0945 12.3828C20.3137 13.0275 20.4233 13.6977 20.4233 14.3933C20.4233 15.98 19.9094 17.3667 18.8818 18.5536C17.8544 19.7406 16.5685 20.4524 15.0241 20.6888V23.7968H17.4237V25.6168H15.0241V28.0435H13.2244Z" fill="white"/>
</g>
<defs>
<filter id="filter0_d_0_111" x="0.826087" y="0.95652" width="26.5963" height="28.087" filterUnits="userSpaceOnUse" color-interpolation-filters="sRGB">
<feFlood flood-opacity="0" result="BackgroundImageFix"/>
<feColorMatrix in="SourceAlpha" type="matrix" values="0 0 0 0 0 0 0 0 0 0 0 0 0 0 0 0 0 0 127 0" result="hardAlpha"/>
<feOffset/>
<feGaussianBlur stdDeviation="0.5"/>
<feComposite in2="hardAlpha" operator="out"/>
<feColorMatrix type="matrix" values="0 0 0 0 0 0 0 0 0 0 0 0 0 0 0 0 0 0 0.45 0"/>
<feBlend mode="normal" in2="BackgroundImageFix" result="effect1_dropShadow_0_111"/>
<feBlend mode="normal" in="SourceGraphic" in2="effect1_dropShadow_0_111" result="shape"/>
</filter>
</defs>
</svg>
