<svg xmlns="http://www.w3.org/2000/svg" width="49" height="49" viewBox="0 0 49 49" fill="none">
  <g clip-path="url(#clip0_3_2159)">
    <mask id="mask0_3_2159" style="mask-type:luminance" maskUnits="userSpaceOnUse" x="0" y="0" width="49" height="49">
      <path d="M48.7559 0.840576H0.755859V48.8406H48.7559V0.840576Z" fill="white"/>
    </mask>
    <g mask="url(#mask0_3_2159)">
      <path d="M4.42676 34.2695H45.0856L44.3017 35.0534C43.1765 36.1786 41.6505 36.8108 40.0592 36.8108H8.53846C6.79724 36.8108 5.20546 35.827 4.42676 34.2695Z" fill="white"/>
      <path fill-rule="evenodd" clip-rule="evenodd" d="M4.76917 32.5416C1.07004 32.27 4.54559 23.9837 7.1042 19.3361C7.54924 18.5278 8.67632 18.5176 9.17538 19.2937L9.57304 19.9122C9.9565 20.5086 10.5375 20.9512 11.2144 21.1624C12.5324 21.5734 13.9444 21.5734 15.2623 21.1624L16.3101 20.8355C15.0637 19.7416 15.0316 17.8115 16.2408 16.6766L16.3813 16.5449C17.2446 15.7348 18.4948 15.5075 19.5816 15.9768C25.9428 18.7234 43.5266 26.3916 45.4037 27.5425C47.5101 28.834 45.8175 32.9998 43.2975 32.9998C39.4925 32.9998 11.0132 32.9998 4.76917 32.5416ZM15.8621 31.0933L24.1209 20.2933L26.6621 22.1993L19.6739 31.0933H15.8621ZM29.2033 22.8342L22.215 31.0931H26.0268L31.7445 24.7402L29.2033 22.8342Z" fill="white"/>
      <path d="M26.0264 20.2931C26.7282 20.2931 27.297 19.7243 27.297 19.0225C27.297 18.3208 26.7282 17.752 26.0264 17.752C25.3247 17.752 24.7559 18.3208 24.7559 19.0225C24.7559 19.7243 25.3247 20.2931 26.0264 20.2931Z" fill="white"/>
      <path d="M32.38 22.8349C33.0817 22.8349 33.6505 22.266 33.6505 21.5643C33.6505 20.8626 33.0817 20.2937 32.38 20.2937C31.6782 20.2937 31.1094 20.8626 31.1094 21.5643C31.1094 22.266 31.6782 22.8349 32.38 22.8349Z" fill="white"/>
      <path d="M37.462 25.3754C38.1637 25.3754 38.7326 24.8065 38.7326 24.1048C38.7326 23.4031 38.1637 22.8342 37.462 22.8342C36.7603 22.8342 36.1914 23.4031 36.1914 24.1048C36.1914 24.8065 36.7603 25.3754 37.462 25.3754Z" fill="white"/>
    </g>
  </g>
  <defs>
    <clipPath id="clip0_3_2159">
      <rect width="48" height="48" fill="#454558" transform="translate(0.755859 0.840576)"/>
    </clipPath>
  </defs>
</svg>