<svg width="15" height="40" viewBox="0 0 15 40" fill="none" xmlns="http://www.w3.org/2000/svg">
<g filter="url(#filter0_d_0_117)">
<path d="M1.58087 18.8736C1.60974 18.7466 1.64246 18.5426 1.64054 18.4117C1.62321 16.381 2.25069 15.5919 2.46435 14.6256C3.369 10.5373 2.89935 9.61922 3.58073 8.49514C3.64809 8.3835 3.84442 8.28919 3.96568 8.24107C5.22065 7.7464 5.77884 7.39031 6.01559 7.20168C6.06756 7.16126 6.10798 7.07272 6.1099 7.00728L6.1561 5.87935C6.15995 5.81391 6.1253 5.72344 6.08488 5.6734C5.85391 5.39045 5.67298 5.02667 5.56134 4.61284C5.44778 4.52622 5.33806 4.25097 5.29572 3.91606C5.2476 3.54265 5.29957 3.22121 5.40928 3.14422C5.41313 2.37238 5.63833 1.00192 7.2821 1C8.92395 1.00192 9.14915 2.3743 9.15493 3.14422C9.26656 3.22121 9.31661 3.54265 9.26849 3.91606C9.22614 4.2529 9.11643 4.52814 9.00287 4.61284C8.89123 5.02667 8.7103 5.39045 8.47932 5.6734C8.4389 5.72344 8.40426 5.81583 8.40618 5.87935L8.45238 7.00728C8.4543 7.07272 8.49665 7.16126 8.54669 7.20168C8.78537 7.39031 9.34356 7.7464 10.5966 8.24107C10.7179 8.28919 10.9142 8.3835 10.9816 8.49514C11.6629 9.61922 11.1933 10.5373 12.0979 14.6256C12.3116 15.5899 12.9391 16.381 12.9217 18.4117C12.9217 18.5426 12.9525 18.7466 12.9814 18.8736C13.0834 19.3163 13.2143 20.3653 12.6273 21.6742C12.5734 21.7935 12.4636 21.8012 12.3963 21.6915C12.1364 21.2623 11.6148 20.1844 12.044 19.0276C12.0883 18.9063 12.0787 18.7216 12.0132 18.608C11.7322 18.121 11.0412 16.8083 10.7872 15.2666C10.7872 15.2666 10.2136 11.417 10.2136 10.3834C10.2136 10.3834 8.61406 15.2627 9.57646 16.7544C10.7833 18.6234 11.6495 21.8186 9.6111 28.9884C9.57646 29.1135 9.55721 29.3137 9.58031 29.4427C9.68424 30.0567 9.89982 31.8025 9.32623 33.5213C8.61406 35.6559 8.9355 36.3065 8.9355 36.3065C8.9355 36.3065 9.67655 37.7693 9.64767 38.1908C9.6111 38.6971 8.61791 39.3938 7.92691 38.724C7.70171 38.5046 7.68246 37.4479 7.68631 36.9686C7.68631 36.8377 7.61509 36.6549 7.5689 36.5317C7.52848 36.42 7.5073 36.2661 7.5766 36.0851C7.62279 35.9639 7.68438 35.7733 7.67861 35.6443L7.53233 32.6686C7.53233 32.6686 7.70363 30.253 7.79795 29.4542C7.81335 29.3252 7.81912 29.1154 7.80372 28.9865C7.67861 27.9933 7.21666 24.0802 7.47073 21.8859H7.10695C7.36102 24.0802 6.89907 27.9933 6.77396 28.9865C6.75663 29.1154 6.76241 29.3233 6.77781 29.4542C6.87212 30.2511 7.04343 32.6686 7.04343 32.6686L6.89714 35.6443C6.89137 35.7733 6.95296 35.9639 6.99916 36.0851C7.06845 36.2661 7.04728 36.42 7.00686 36.5317C6.96259 36.6529 6.88944 36.8377 6.89137 36.9686C6.89522 37.4479 6.8779 38.5046 6.65077 38.724C5.95785 39.3938 4.96658 38.6951 4.92808 38.1908C4.89729 37.7693 5.64025 36.3065 5.64025 36.3065C5.64025 36.3065 5.95977 35.6578 5.24952 33.5213C4.67593 31.8025 4.88959 30.0567 4.99545 29.4427C5.01662 29.3137 4.9993 29.1135 4.96273 28.9884C2.92437 21.8186 3.79053 18.6234 4.99737 16.7544C5.95977 15.2646 4.35834 10.3834 4.35834 10.3834C4.35834 11.4151 3.78475 15.2666 3.78475 15.2666C3.52876 16.8083 2.83968 18.121 2.55866 18.608C2.49322 18.7216 2.48359 18.9044 2.52786 19.0276C2.95517 20.1825 2.43355 21.2604 2.1737 21.6915C2.10634 21.8032 1.99662 21.7935 1.94273 21.6742C1.35567 20.3653 1.48655 19.3163 1.58857 18.8736H1.58087Z" fill="url(#paint0_linear_0_117)"/>
</g>
<defs>
<filter id="filter0_d_0_117" x="0.5" y="0" width="13.57" height="40" filterUnits="userSpaceOnUse" color-interpolation-filters="sRGB">
<feFlood flood-opacity="0" result="BackgroundImageFix"/>
<feColorMatrix in="SourceAlpha" type="matrix" values="0 0 0 0 0 0 0 0 0 0 0 0 0 0 0 0 0 0 127 0" result="hardAlpha"/>
<feOffset/>
<feGaussianBlur stdDeviation="0.5"/>
<feComposite in2="hardAlpha" operator="out"/>
<feColorMatrix type="matrix" values="0 0 0 0 0 0 0 0 0 0 0 0 0 0 0 0 0 0 0.45 0"/>
<feBlend mode="normal" in2="BackgroundImageFix" result="effect1_dropShadow_0_117"/>
<feBlend mode="normal" in="SourceGraphic" in2="effect1_dropShadow_0_117" result="shape"/>
</filter>
<linearGradient id="paint0_linear_0_117" x1="3.48256" y1="24.2573" x2="23.7795" y2="3.96033" gradientUnits="userSpaceOnUse">
<stop stop-color="white"/>
<stop offset="1" stop-color="#E5E5E7"/>
</linearGradient>
</defs>
</svg>
