<svg width="30" height="30" viewBox="0 0 30 30" fill="none" xmlns="http://www.w3.org/2000/svg">
<path fill-rule="evenodd" clip-rule="evenodd" d="M3.35491 17.2121L15.6307 4.6232C15.2391 4.2835 14.8116 3.97392 14.3516 3.70116C10.1764 1.22957 4.83474 2.69378 2.42819 6.97766C0.529065 10.3579 0.994057 14.4292 3.33207 17.2339L3.35491 17.2121ZM21.8095 2.85274L22.932 4.00404H22.9304L18.3065 8.74641C18.1352 8.18917 17.9101 7.65035 17.6344 7.13495L21.8095 2.85274ZM27.5865 8.37574L26.464 7.22442L10.0413 24.0681L11.1639 25.2195L27.5865 8.37574ZM27.2939 13.2346L26.1714 12.0832L12.2625 26.3486L13.3851 27.5L27.2939 13.2346ZM5.58197 19.4962L6.70447 20.6476L7.34567 19.9899C6.81052 19.8159 6.28517 19.585 5.77612 19.2971L5.58197 19.4962ZM18.38 4.1044L16.7435 5.78281V5.78114C16.4122 5.36614 16.0404 4.97624 15.6307 4.62147L17.2575 2.95311L18.38 4.1044ZM9.15834 20.3681L7.7961 21.7654L8.94634 22.9451L11.5649 20.2594C13.9926 19.8009 16.2147 18.2947 17.5461 15.9302C18.0601 15.0166 18.3995 14.0511 18.574 13.0688L11.5649 20.2576C10.7762 20.4062 9.96811 20.4449 9.15996 20.3665L18.6785 10.6039C18.6197 9.97309 18.4941 9.34891 18.3081 8.74649L7.34734 19.9882C7.94285 20.1824 8.54977 20.3079 9.15834 20.3681ZM18.5777 13.0684L18.5757 13.0704H18.5774L18.5777 13.0684ZM25.8965 5.56195L18.5777 13.0684C18.7242 12.2474 18.7567 11.4181 18.6801 10.6039L24.7462 4.38221L25.8965 5.56195ZM5.62274 19.2085C5.22626 18.9709 4.8249 18.678 4.46922 18.3785L4.47737 18.3634L16.7435 5.78281C17.0829 6.20785 17.3799 6.65971 17.6344 7.13495L5.77772 19.2971C5.72552 19.2686 5.67331 19.2386 5.62274 19.2085Z" fill="#FC2D7C"/>
</svg>
