<svg width="32" height="32" viewBox="0 0 32 32" fill="none" xmlns="http://www.w3.org/2000/svg">
<path fill-rule="evenodd" clip-rule="evenodd" d="M13.0164 7C12.8493 7 12.6931 7.08355 12.6004 7.22265L10.8697 9.81867H8.37911C7.74813 9.81867 7.143 10.0693 6.69683 10.5155C6.25066 10.9617 6 11.5668 6 12.1978V22.5329C6 23.1639 6.25066 23.769 6.69683 24.2152C7.14299 24.6613 7.74813 24.912 8.37911 24.912H23.2911C23.9221 24.912 24.5272 24.6613 24.9734 24.2152C25.4196 23.769 25.6702 23.1639 25.6702 22.5329V12.1978C25.6702 11.5668 25.4196 10.9617 24.9734 10.5155C24.5272 10.0693 23.9221 9.81867 23.2911 9.81867H20.8005L19.0698 7.22265C18.9771 7.08355 18.8209 7 18.6538 7H13.0164ZM11.5534 10.596L13.284 8H18.3862L20.1169 10.596C20.2096 10.7351 20.3657 10.8187 20.5329 10.8187H23.2911C23.6569 10.8187 24.0076 10.964 24.2663 11.2226C24.5249 11.4812 24.6702 11.832 24.6702 12.1978V22.5329C24.6702 22.8986 24.5249 23.2494 24.2663 23.5081C24.0076 23.7667 23.6569 23.912 23.2911 23.912H8.37911C8.01335 23.912 7.66257 23.7667 7.40393 23.5081C7.1453 23.2494 7 22.8986 7 22.5329V12.1978C7 11.832 7.1453 11.4812 7.40393 11.2226C7.66257 10.964 8.01335 10.8187 8.37911 10.8187H11.1373C11.3045 10.8187 11.4606 10.7351 11.5534 10.596ZM12.5769 16.8954C12.5769 15.0959 14.0357 13.6371 15.8352 13.6371C17.6346 13.6371 19.0934 15.0959 19.0934 16.8954C19.0934 18.6948 17.6346 20.1536 15.8352 20.1536C14.0357 20.1536 12.5769 18.6948 12.5769 16.8954ZM15.8352 12.6371C13.4834 12.6371 11.5769 14.5436 11.5769 16.8954C11.5769 19.2471 13.4834 21.1536 15.8352 21.1536C18.1869 21.1536 20.0934 19.2471 20.0934 16.8954C20.0934 14.5436 18.1869 12.6371 15.8352 12.6371Z" fill="white"/>
</svg>
