<svg width="20" height="20" viewBox="0 0 20 20" fill="none" xmlns="http://www.w3.org/2000/svg">
<g id="Frame 1501">
<rect width="20" height="20" rx="10" fill="#42454A" fill-opacity="0.4"/>
<path id="Union" fill-rule="evenodd" clip-rule="evenodd" d="M12.9677 13.8286C13.163 14.0239 13.4795 14.0239 13.6748 13.8286C13.8701 13.6333 13.8701 13.3168 13.6748 13.1215L10.3216 9.76831L13.4431 6.64681C13.6384 6.45155 13.6384 6.13497 13.4431 5.93971C13.2479 5.74445 12.9313 5.74445 12.736 5.93971L9.61452 9.06121L6.72469 6.17138C6.52943 5.97612 6.21285 5.97612 6.01758 6.17138C5.82232 6.36664 5.82232 6.68323 6.01758 6.87849L8.90741 9.76831L5.7859 12.8898C5.59063 13.0851 5.59063 13.4017 5.7859 13.5969C5.98116 13.7922 6.29774 13.7922 6.493 13.5969L9.61452 10.4754L12.9677 13.8286Z" fill="white"/>
</g>
</svg>
