<svg width="32" height="32" viewBox="0 0 32 32" fill="none" xmlns="http://www.w3.org/2000/svg">
<path d="M16.4761 26C15.196 26 13.9961 25.7003 12.8766 25.101C11.7571 24.5016 10.8464 23.6669 10.1446 22.5969L6 16.2559L6.37446 15.8814C6.62153 15.6244 6.92329 15.478 7.27976 15.4422C7.63622 15.4063 7.96088 15.491 8.25373 15.6961L11.479 17.8704V8.6506C11.479 8.45173 11.5484 8.28153 11.687 8.14C11.8255 7.99847 11.9971 7.92771 12.2019 7.92771C12.401 7.92771 12.5712 7.99847 12.7125 8.14C12.8541 8.28153 12.9248 8.45173 12.9248 8.6506V20.6451L8.82096 17.848L11.3605 21.7665C11.9227 22.6414 12.6562 23.3247 13.561 23.8164C14.4657 24.3083 15.4374 24.5542 16.4761 24.5542C18.1616 24.5542 19.5975 23.9642 20.7839 22.7841C21.9702 21.604 22.5634 20.1681 22.5634 18.4764V9.37349C22.5634 9.17462 22.6326 9.00442 22.7711 8.86289C22.9097 8.72137 23.0814 8.6506 23.2863 8.6506C23.4851 8.6506 23.6553 8.72137 23.7969 8.86289C23.9384 9.00442 24.0092 9.17462 24.0092 9.37349V18.4764C24.0092 20.5713 23.2781 22.349 21.8159 23.8094C20.3537 25.2698 18.5738 26 16.4761 26ZM15.1769 15.6386V6.72289C15.1769 6.52402 15.2462 6.35382 15.3848 6.21229C15.5235 6.07076 15.6953 6 15.9002 6C16.1051 6 16.2767 6.07076 16.4152 6.21229C16.5535 6.35382 16.6227 6.52402 16.6227 6.72289V15.6386H15.1769ZM18.8747 15.6386V7.68675C18.8747 7.48787 18.944 7.31767 19.0826 7.17614C19.2213 7.03462 19.3931 6.96386 19.5981 6.96386C19.8029 6.96386 19.9745 7.03462 20.113 7.17614C20.2513 7.31767 20.3205 7.48787 20.3205 7.68675V15.6386H18.8747Z" fill="white"/>
</svg>
