<svg width="32" height="32" viewBox="0 0 32 32" fill="none" xmlns="http://www.w3.org/2000/svg">
<path fill-rule="evenodd" clip-rule="evenodd" d="M25 7.5C25 7.22386 24.7761 7 24.5 7H7.5C7.22386 7 7 7.22386 7 7.5V17.5C7 17.7761 7.22386 18 7.5 18C7.77614 18 8 17.7761 8 17.5V8H24V24H15C14.7239 24 14.5 24.2239 14.5 24.5C14.5 24.7761 14.7239 25 15 25H24.5C24.7761 25 25 24.7761 25 24.5V7.5ZM15 17H19V16H16.7077L19.3077 13.4L18.6 12.6922L16 15.2922V13H15V17ZM18.6922 12.6L19.4 13.3077L22 10.7077V13H23L23 9L19 9V10L21.2923 10L18.6922 12.6ZM12 19C12.5523 19 13 19.4477 13 20V24C13 24.5523 12.5523 25 12 25H8C7.44772 25 7 24.5523 7 24V20C7 19.4477 7.44772 19 8 19H12Z" fill="white"/>
</svg>
