<svg width="32" height="32" viewBox="0 0 32 32" fill="none" xmlns="http://www.w3.org/2000/svg">
<path d="M16 7H9C8.46957 7 7.96086 7.21071 7.58579 7.58579C7.21071 7.96086 7 8.46957 7 9V23C7 23.5304 7.21071 24.0391 7.58579 24.4142C7.96086 24.7893 8.46957 25 9 25H23C23.5304 25 24.0391 24.7893 24.4142 24.4142C24.7893 24.0391 25 23.5304 25 23V16" stroke="white" stroke-linecap="round" stroke-linejoin="round"/>
<path d="M22.727 6.27269C23.1249 5.87486 23.6644 5.65137 24.227 5.65137C24.7897 5.65137 25.3292 5.87486 25.727 6.27269C26.1249 6.67051 26.3484 7.21008 26.3484 7.77269C26.3484 8.3353 26.1249 8.87486 25.727 9.27269L16.2271 18.7727L12.2271 19.7727L13.2271 15.7727L22.727 6.27269Z" stroke="white" stroke-linecap="round" stroke-linejoin="round"/>
<line x1="21.3536" y1="7.64645" x2="24.3536" y2="10.6464" stroke="white"/>
</svg>
