<svg width="32" height="32" viewBox="0 0 32 32" fill="none" xmlns="http://www.w3.org/2000/svg">
<circle cx="16" cy="16" r="8.5" stroke="white"/>
<path d="M16.529 17.613H15.286V16.942C15.286 16.6487 15.319 16.4323 15.385 16.293C15.4584 16.1463 15.6124 15.9557 15.847 15.721L16.65 14.918C16.8187 14.7347 16.903 14.5073 16.903 14.236C16.903 13.9647 16.815 13.741 16.639 13.565C16.463 13.3817 16.2357 13.29 15.957 13.29C15.6784 13.29 15.4437 13.378 15.253 13.554C15.0697 13.7227 14.9634 13.95 14.934 14.236H13.603C13.6764 13.5833 13.9294 13.0737 14.362 12.707C14.802 12.333 15.3484 12.146 16.001 12.146C16.6537 12.146 17.1854 12.3257 17.596 12.685C18.0067 13.037 18.212 13.532 18.212 14.17C18.212 14.61 18.091 14.9767 17.849 15.27C17.7097 15.446 17.6034 15.5707 17.53 15.644C17.4567 15.7173 17.3577 15.8127 17.233 15.93C17.1157 16.04 17.013 16.139 16.925 16.227C16.8444 16.3077 16.7784 16.3773 16.727 16.436C16.595 16.5973 16.529 16.8247 16.529 17.118V17.613ZM15.924 20.055C15.6967 20.055 15.4987 19.978 15.33 19.824C15.1614 19.6627 15.077 19.472 15.077 19.252C15.077 19.0247 15.1577 18.8303 15.319 18.669C15.4877 18.5077 15.6857 18.427 15.913 18.427C16.1477 18.427 16.3494 18.5077 16.518 18.669C16.6867 18.823 16.771 19.0137 16.771 19.241C16.771 19.461 16.6867 19.6517 16.518 19.813C16.3567 19.9743 16.1587 20.055 15.924 20.055Z" fill="white"/>
</svg>
