<svg width="32" height="32" viewBox="0 0 32 32" fill="none" xmlns="http://www.w3.org/2000/svg">
<path d="M9.3999 18.6001H17.7999" stroke="white" stroke-linecap="round"/>
<path d="M9.3999 23.3999H17.7999" stroke="white" stroke-linecap="round"/>
<path d="M9.3999 13.7998H17.7999" stroke="white" stroke-linecap="round"/>
<path d="M9.3999 9H17.7999" stroke="white" stroke-linecap="round"/>
<path d="M21.3999 23.4003H23.7999C24.3999 23.4003 25.5999 22.9151 25.5999 20.9742V11.2698C25.5999 10.4611 25.2399 8.84375 23.7999 8.84375H22.5999" stroke="white" stroke-linecap="round" stroke-linejoin="round"/>
<path d="M20.3497 9.14412C20.268 9.06544 20.268 8.93456 20.3497 8.85588L22.5613 6.72781C22.6883 6.60555 22.9 6.6956 22.9 6.87193L22.9 11.1281C22.9 11.3044 22.6883 11.3945 22.5613 11.2722L20.3497 9.14412Z" fill="white"/>
<circle cx="7.6" cy="8.9999" r="0.6" fill="white"/>
<circle cx="7.6" cy="13.8002" r="0.6" fill="white"/>
<circle cx="7.6" cy="18.6" r="0.6" fill="white"/>
<circle cx="7.6" cy="23.3998" r="0.6" fill="white"/>
</svg>
