<svg width="32" height="32" viewBox="0 0 32 32" fill="none" xmlns="http://www.w3.org/2000/svg">
<path d="M12.15 21H9.78661C9.53784 21 9.29801 21.0927 9.11393 21.2601L6.91393 23.2601C6.23761 23.8749 6.67257 25 7.58661 25H24.4134C25.3274 25 25.7624 23.8749 25.0861 23.2601L22.8861 21.2601C22.702 21.0927 22.4622 21 22.2134 21H19.85" stroke="white" stroke-opacity="0.6" stroke-width="0.75" stroke-linecap="round"/>
<path d="M16 16.8495C16.7436 16.8495 17.4252 16.6877 18.0449 16.3641C18.6647 16.0407 19.1757 15.6098 19.5778 15.0716C19.0655 14.7244 18.5078 14.4622 17.9046 14.285C17.3014 14.1078 16.6665 14.0192 16 14.0192C15.3335 14.0192 14.6986 14.1078 14.0954 14.285C13.4922 14.4622 12.9345 14.7244 12.4222 15.0716C12.8243 15.6098 13.3353 16.0407 13.9551 16.3641C14.5748 16.6877 15.2564 16.8495 16 16.8495ZM16 12.1323C16.4161 12.1323 16.7667 11.9959 17.0518 11.7231C17.337 11.4505 17.4797 11.1151 17.4797 10.7172C17.4797 10.3192 17.337 9.98389 17.0518 9.71124C16.7667 9.43843 16.4161 9.30202 16 9.30202C15.5839 9.30202 15.2333 9.43843 14.9482 9.71124C14.663 9.98389 14.5203 10.3192 14.5203 10.7172C14.5203 11.1151 14.663 11.4505 14.9482 11.7231C15.2333 11.9959 15.5839 12.1323 16 12.1323ZM16 21.7337C17.854 20.1902 19.3198 18.6205 20.3973 17.0245C21.4748 15.4285 22.0136 14.0482 22.0136 12.8835C22.0136 11.1575 21.4423 9.73294 20.2996 8.60978C19.157 7.48678 17.7238 6.92527 16 6.92527C14.2762 6.92527 12.843 7.48678 11.7004 8.60978C10.5577 9.73294 9.98644 11.1575 9.98644 12.8835C9.98644 14.0482 10.5252 15.4285 11.6027 17.0245C12.6802 18.6205 14.146 20.1902 16 21.7337ZM16 23C13.6819 21.0394 11.9357 19.2108 10.7615 17.5144C9.58718 15.8181 9 14.2745 9 12.8835C9 10.8877 9.67949 9.24149 11.0385 7.94489C12.3973 6.6483 14.0511 6 16 6C17.9489 6 19.6027 6.6483 20.9615 7.94489C22.3205 9.24149 23 10.8877 23 12.8835C23 14.2745 22.4128 15.8181 21.2385 17.5144C20.0643 19.2108 18.3181 21.0394 16 23Z" fill="white"/>
</svg>
