<svg width="15" height="14" viewBox="0 0 15 14" fill="none" xmlns="http://www.w3.org/2000/svg">
<g id="music-note 1">
<path id="Vector" d="M8.1875 11.375C8.1875 12.3419 7.2075 13.125 6 13.125C4.7925 13.125 3.8125 12.3419 3.8125 11.375C3.8125 10.4081 4.7925 9.625 6 9.625C7.2075 9.625 8.1875 10.4081 8.1875 11.375Z" fill="white"/>
<path id="Vector_2" fill-rule="evenodd" clip-rule="evenodd" d="M8.1875 2.625V11.375H7.3125V2.625H8.1875Z" fill="white"/>
<path id="Vector_3" d="M7.3125 2.46759C7.31262 2.26538 7.38277 2.06946 7.51103 1.91313C7.63928 1.7568 7.81772 1.64972 8.016 1.61009L10.641 1.08509C10.7679 1.05972 10.8988 1.06282 11.0244 1.09416C11.1499 1.12549 11.267 1.18429 11.3671 1.26631C11.4672 1.34832 11.5478 1.45152 11.6032 1.56846C11.6586 1.68541 11.6874 1.81318 11.6875 1.94259V3.50009L7.3125 4.37509V2.46759Z" fill="white"/>
</g>
</svg>
