<svg width="32" height="32" viewBox="0 0 32 32" fill="none" xmlns="http://www.w3.org/2000/svg">
<path fill-rule="evenodd" clip-rule="evenodd" d="M12.2951 16.9536C12.2016 16.8088 12.1265 16.6838 12.0702 16.5864C12.1265 16.489 12.2016 16.3639 12.2951 16.2191C12.5309 15.8541 12.88 15.3687 13.3333 14.8852C14.249 13.9084 15.5307 13 17.1188 13C18.7068 13 19.9885 13.9084 20.9042 14.8852C21.3575 15.3687 21.7066 15.8541 21.9424 16.2191C22.0359 16.3639 22.111 16.489 22.1673 16.5864C22.111 16.6838 22.0359 16.8088 21.9424 16.9536C21.7066 17.3186 21.3575 17.8041 20.9042 18.2876C19.9885 19.2644 18.7068 20.1727 17.1188 20.1727C15.5307 20.1727 14.249 19.2644 13.3333 18.2876C12.88 17.8041 12.5309 17.3186 12.2951 16.9536ZM23.1845 16.3624C23.1846 16.3626 23.1847 16.3628 22.7375 16.5864C23.1847 16.81 23.1846 16.8101 23.1845 16.8103L23.1843 16.8108L23.1837 16.8119L23.182 16.8154L23.1762 16.8267C23.1714 16.8361 23.1645 16.8494 23.1556 16.8661C23.1379 16.8996 23.1122 16.9473 23.0785 17.0071C23.0113 17.1266 22.9123 17.2951 22.7824 17.4961C22.5233 17.8973 22.1382 18.4335 21.6337 18.9715C20.634 20.0379 19.1063 21.1727 17.1188 21.1727C15.1312 21.1727 13.6035 20.0379 12.6038 18.9715C12.0993 18.4335 11.7142 17.8973 11.4551 17.4961C11.3252 17.2951 11.2262 17.1266 11.159 17.0071C11.1254 16.9473 11.0996 16.8996 11.0819 16.8661C11.073 16.8494 11.0661 16.8361 11.0613 16.8267L11.0555 16.8154L11.0538 16.8119L11.0532 16.8108L11.053 16.8103C11.0529 16.8101 11.0528 16.81 11.5 16.5864C11.0528 16.3628 11.0529 16.3626 11.053 16.3624L11.0532 16.362L11.0538 16.3608L11.0555 16.3573L11.0613 16.346C11.0661 16.3366 11.073 16.3234 11.0819 16.3066C11.0996 16.2731 11.1254 16.2255 11.159 16.1656C11.2262 16.0461 11.3252 15.8777 11.4551 15.6766C11.7142 15.2754 12.0993 14.7393 12.6038 14.2012C13.6035 13.1348 15.1312 12 17.1188 12C19.1063 12 20.634 13.1348 21.6337 14.2012C22.1382 14.7393 22.5233 15.2754 22.7824 15.6766C22.9123 15.8777 23.0113 16.0461 23.0785 16.1656C23.1122 16.2255 23.1379 16.2731 23.1556 16.3066C23.1645 16.3234 23.1714 16.3366 23.1762 16.346L23.182 16.3573L23.1837 16.3608L23.1843 16.362L23.1845 16.3624ZM22.7375 16.5864L23.1847 16.3628C23.2551 16.5035 23.2551 16.6692 23.1847 16.81L22.7375 16.5864ZM11.0528 16.3628L11.5 16.5864L11.0528 16.81C10.9824 16.6692 10.9824 16.5035 11.0528 16.3628ZM17.119 18.496C18.1736 18.496 19.0286 17.641 19.0286 16.5863C19.0286 15.5317 18.1736 14.6767 17.119 14.6767C16.0643 14.6767 15.2093 15.5317 15.2093 16.5863C15.2093 17.641 16.0643 18.496 17.119 18.496Z" fill="white"/>
<rect x="7.5" y="7.5" width="19" height="17" rx="1.5" stroke="white"/>
<line x1="8" y1="9.5" x2="26" y2="9.5" stroke="white"/>
</svg>
