<svg width="32" height="32" viewBox="0 0 32 32" fill="none" xmlns="http://www.w3.org/2000/svg">
<path fill-rule="evenodd" clip-rule="evenodd" d="M15.8736 10.5651C12.2499 10.5651 9.31227 13.5027 9.31227 17.1264C9.31227 20.7501 12.2499 23.6877 15.8736 23.6877C19.4973 23.6877 22.4349 20.7501 22.4349 17.1264C22.4349 16.1482 22.2213 15.2217 21.8388 14.3894C21.6874 14.0602 21.8317 13.6706 22.1609 13.5192C22.4902 13.3679 22.8798 13.5121 23.0311 13.8414C23.4911 14.842 23.7472 15.9552 23.7472 17.1264C23.7472 21.4749 20.2221 25 15.8736 25C11.5251 25 8 21.4749 8 17.1264C8 12.7779 11.5251 9.25279 15.8736 9.25279V10.5651Z" fill="white"/>
<path d="M15.8736 12.4892V7.32869C15.8736 7.05055 16.198 6.8986 16.4117 7.07667L19.508 9.6569C19.6654 9.78806 19.6654 10.0298 19.508 10.161L16.4117 12.7412C16.198 12.9193 15.8736 12.7673 15.8736 12.4892Z" fill="white"/>
</svg>
