<svg width="32" height="32" viewBox="0 0 32 32" fill="none" xmlns="http://www.w3.org/2000/svg">
<path fill-rule="evenodd" clip-rule="evenodd" d="M16.265 6C16.0745 6 15.7926 6.13085 15.4524 6.61058C15.1213 7.07732 14.8027 7.78513 14.5268 8.70479C13.977 10.5377 13.6296 13.0999 13.6296 15.9513C13.6296 16.9349 13.6709 17.884 13.7476 18.7807C14.4563 18.827 15.1936 18.8516 15.9513 18.8516C18.8027 18.8516 21.3649 18.5042 23.1978 17.9543C24.1175 17.6784 24.8253 17.3598 25.292 17.0288C25.7718 16.6885 25.9026 16.4067 25.9026 16.2162C25.9026 16.1241 25.8244 15.8992 25.3639 15.5889C24.9263 15.2941 24.2467 14.996 23.3252 14.7314C21.4886 14.2041 18.7943 13.8385 15.4287 13.8385C15.1526 13.8385 14.9287 13.6146 14.9287 13.3385C14.9287 13.0624 15.1526 12.8385 15.4287 12.8385C18.8565 12.8385 21.6491 13.2098 23.6012 13.7703C24.574 14.0496 25.3641 14.3832 25.9226 14.7596C26.4582 15.1205 26.9026 15.6063 26.9026 16.2162C26.9026 16.8915 26.4486 17.4345 25.8706 17.8444C25.2796 18.2636 24.4568 18.6206 23.4852 18.9121C22.368 19.2473 21.0165 19.5068 19.5166 19.6673C19.5704 19.7576 19.5962 19.8655 19.5837 19.9781C19.3214 22.3395 18.9607 24.0247 18.4623 25.1317C17.9589 26.2498 17.2488 26.9026 16.265 26.9026C15.5897 26.9026 15.0467 26.4486 14.6367 25.8706C14.2175 25.2796 13.8605 24.4568 13.569 23.4852C13.2485 22.4168 12.9972 21.134 12.8354 19.712C11.1558 19.5574 9.64509 19.2804 8.41744 18.9121C7.44579 18.6206 6.62304 18.2636 6.03205 17.8444C5.45405 17.4345 5 16.8915 5 16.2162C5 15.4197 5.62625 14.8062 6.38513 14.3606C7.17528 13.8966 8.27606 13.5116 9.57061 13.2199C9.58386 13.2169 9.59711 13.2144 9.61033 13.2126L7.86286 12.2037L7.42985 11.9537L7.92985 11.0876L8.36286 11.3376L11.0782 12.9053L11.5112 13.1553L11.2612 13.5883L9.6935 16.3037L9.4435 16.7367L8.57748 16.2367L8.82748 15.8037L9.75084 14.2044C8.52546 14.4833 7.54992 14.8362 6.89151 15.2229C6.19476 15.6321 6 15.9868 6 16.2162C6 16.4067 6.13085 16.6885 6.61058 17.0288C7.07732 17.3598 7.78513 17.6784 8.70479 17.9543C9.81432 18.2872 11.191 18.5458 12.7374 18.6981C12.6669 17.82 12.6296 16.8992 12.6296 15.9513C12.6296 13.0306 12.9841 10.3671 13.569 8.41744C13.8605 7.44579 14.2175 6.62304 14.6367 6.03205C15.0467 5.45405 15.5897 5 16.265 5C17.0614 5 17.6749 5.62625 18.1206 6.38513C18.5636 7.13954 18.9346 8.17712 19.2212 9.39615L20.1195 7.5738L20.3406 7.12534L21.2376 7.56751L21.0165 8.01598L19.6301 10.8282L19.409 11.2767L18.9605 11.0556L16.1483 9.66918L15.6998 9.4481L16.142 8.55117L16.5905 8.77225L18.2381 9.58452C17.9656 8.43702 17.6273 7.51985 17.2583 6.89151C16.8491 6.19476 16.4943 6 16.265 6ZM10.1448 13.5219L10.1452 13.5214L10.1444 13.5209C10.1446 13.5213 10.1447 13.5216 10.1448 13.5219ZM13.8513 19.7892C14.0074 21.0827 14.2395 22.2399 14.5268 23.1978C14.8027 24.1175 15.1213 24.8253 15.4524 25.292C15.7926 25.7718 16.0745 25.9026 16.265 25.9026C16.6851 25.9026 17.1246 25.6671 17.5505 24.7211C17.9814 23.764 18.3297 22.2093 18.5899 19.8676C18.5944 19.8266 18.6038 19.7873 18.6174 19.7502C17.7637 19.8165 16.8702 19.8516 15.9513 19.8516C15.2335 19.8516 14.5313 19.8302 13.8513 19.7892Z" fill="white"/>
</svg>
