<svg width="32" height="32" viewBox="0 0 32 32" fill="none" xmlns="http://www.w3.org/2000/svg">
<path d="M5.27208 15.7279L9.24955 11.7504L10.045 12.5459L7.42608 15.1649L12.1536 15.1649V16.2909L7.42608 16.2909L10.045 18.9099L9.24955 19.7054L5.27208 15.7279ZM12.0225 22.4784L12.818 21.6829L15.437 24.3018L15.437 19.5743H16.563L16.563 24.3018L19.182 21.6829L19.9775 22.4784L16 26.4558L12.0225 22.4784ZM15.437 11.8816L15.437 7.154L12.818 9.77297L12.0225 8.97748L16 5L19.9775 8.97748L19.182 9.77297L16.563 7.154L16.563 11.8816H15.437ZM19.8464 16.2909V15.1649L24.5739 15.1649L21.955 12.5459L22.7504 11.7504L26.7279 15.7279L22.7504 19.7054L21.955 18.9099L24.5739 16.2909L19.8464 16.2909Z" fill="white"/>
</svg>
