<svg width="24" height="24" viewBox="0 0 24 24" fill="none" xmlns="http://www.w3.org/2000/svg">
<g id="search">
<path id="Vector" d="M16.0086 13.6968C16.9163 12.4579 17.3229 10.9219 17.1469 9.39615C16.971 7.87036 16.2255 6.46727 15.0596 5.4676C13.8937 4.46792 12.3935 3.94539 10.8589 4.00452C9.32436 4.06366 7.86872 4.70011 6.78321 5.78655C5.69771 6.87298 5.06239 8.32928 5.00436 9.86409C4.94633 11.3989 5.46986 12.899 6.47023 14.0643C7.4706 15.2297 8.87402 15.9743 10.3997 16.1491C11.9254 16.324 13.4609 15.9163 14.6989 15.0075H14.698C14.7255 15.045 14.7561 15.081 14.7898 15.1153L18.3991 18.7251C18.5749 18.901 18.8133 18.9999 19.062 19C19.3107 19.0001 19.5492 18.9014 19.7251 18.7256C19.901 18.5498 19.9999 18.3113 20 18.0625C20.0001 17.8138 19.9014 17.5753 19.7256 17.3993L16.1164 13.7896C16.0829 13.7556 16.0468 13.7252 16.0086 13.6968ZM16.2504 10.0926C16.2504 10.7698 16.1171 11.4404 15.8579 12.0661C15.5988 12.6917 15.219 13.2602 14.7402 13.739C14.2615 14.2179 13.6931 14.5977 13.0675 14.8569C12.4419 15.116 11.7715 15.2494 11.0944 15.2494C10.4173 15.2494 9.74679 15.116 9.12123 14.8569C8.49566 14.5977 7.92726 14.2179 7.44848 13.739C6.9697 13.2602 6.5899 12.6917 6.33079 12.0661C6.07167 11.4404 5.93831 10.7698 5.93831 10.0926C5.93831 8.72498 6.48153 7.41333 7.44848 6.44625C8.41543 5.47916 9.72689 4.93586 11.0944 4.93586C12.4618 4.93586 13.7733 5.47916 14.7402 6.44625C15.7072 7.41333 16.2504 8.72498 16.2504 10.0926Z" fill="white"/>
</g>
</svg>
