<svg width="14" height="14" viewBox="0 0 14 14" fill="none" xmlns="http://www.w3.org/2000/svg">
<g id="shuffle 1">
<path id="Vector" fill-rule="evenodd" clip-rule="evenodd" d="M0 3.0625C0 2.94647 0.0460936 2.83519 0.128141 2.75314C0.210188 2.67109 0.321468 2.625 0.4375 2.625H0.875C2.80175 2.625 4.22363 3.71 5.13975 4.74075C5.5685 5.22375 5.89663 5.705 6.125 6.08125C6.3525 5.705 6.6815 5.22375 7.11025 4.74075C8.02638 3.71 9.44825 2.625 11.375 2.625V3.5C9.80175 3.5 8.59862 4.38375 7.76475 5.32175C7.3137 5.83233 6.92644 6.39589 6.6115 7C6.92616 7.60407 7.31313 8.16762 7.76388 8.67825C8.5995 9.61625 9.8035 10.5 11.375 10.5V11.375C9.44825 11.375 8.02638 10.29 7.11025 9.25925C6.74234 8.84283 6.4126 8.39419 6.125 7.91875C5.8975 8.295 5.5685 8.77625 5.13975 9.25925C4.22363 10.29 2.80175 11.375 0.875 11.375H0.4375C0.321468 11.375 0.210188 11.3289 0.128141 11.2469C0.0460936 11.1648 0 11.0535 0 10.9375C0 10.8215 0.0460936 10.7102 0.128141 10.6281C0.210188 10.5461 0.321468 10.5 0.4375 10.5H0.875C2.44825 10.5 3.65137 9.61625 4.48525 8.67825C4.9363 8.16767 5.32356 7.60411 5.6385 7C5.32384 6.39593 4.93687 5.83238 4.48612 5.32175C3.6505 4.38375 2.4465 3.5 0.875 3.5H0.4375C0.321468 3.5 0.210188 3.45391 0.128141 3.37186C0.0460936 3.28981 0 3.17853 0 3.0625Z" fill="white"/>
<path id="Vector_2" d="M11.375 4.7827V1.3422C11.375 1.30064 11.3869 1.25994 11.4092 1.22487C11.4315 1.1898 11.4633 1.16181 11.501 1.14418C11.5386 1.12655 11.5805 1.12002 11.6217 1.12533C11.663 1.13065 11.7018 1.1476 11.7337 1.1742L13.7988 2.89445C13.9038 2.98195 13.9038 3.14295 13.7988 3.23045L11.7337 4.9507C11.7018 4.97731 11.663 4.99426 11.6217 4.99957C11.5805 5.00489 11.5386 4.99835 11.501 4.98073C11.4633 4.9631 11.4315 4.93511 11.4092 4.90004C11.3869 4.86497 11.375 4.82427 11.375 4.7827ZM11.375 12.6577V9.2172C11.375 9.17564 11.3869 9.13494 11.4092 9.09987C11.4315 9.0648 11.4633 9.03681 11.501 9.01918C11.5386 9.00155 11.5805 8.99501 11.6217 9.00033C11.663 9.00565 11.7018 9.0226 11.7337 9.0492L13.7988 10.7695C13.9038 10.857 13.9038 11.018 13.7988 11.1055L11.7337 12.8257C11.7018 12.8523 11.663 12.8693 11.6217 12.8746C11.5805 12.8799 11.5386 12.8734 11.501 12.8557C11.4633 12.8381 11.4315 12.8101 11.4092 12.775C11.3869 12.74 11.375 12.6993 11.375 12.6577Z" fill="white"/>
</g>
</svg>
