<svg width="46" height="16" viewBox="0 0 46 16" fill="none" xmlns="http://www.w3.org/2000/svg">
<path d="M4.374 15.18C3.582 15.18 2.922 15.018 2.394 14.694C1.878 14.358 1.488 13.896 1.224 13.308C0.96 12.708 0.798 12.012 0.738 11.22L1.944 10.86C2.004 11.46 2.112 12.006 2.268 12.498C2.424 12.978 2.67 13.362 3.006 13.65C3.342 13.926 3.804 14.064 4.392 14.064C5.04 14.064 5.544 13.896 5.904 13.56C6.264 13.224 6.444 12.69 6.444 11.958C6.444 11.31 6.282 10.752 5.958 10.284C5.646 9.816 5.214 9.324 4.662 8.808L2.088 6.342C1.632 5.898 1.296 5.442 1.08 4.974C0.864 4.494 0.756 3.972 0.756 3.408C0.756 2.4 1.056 1.626 1.656 1.086C2.256 0.545999 3.054 0.276 4.05 0.276C4.566 0.276 5.028 0.342 5.436 0.473999C5.856 0.605999 6.21 0.821999 6.498 1.122C6.798 1.41 7.032 1.788 7.2 2.256C7.368 2.724 7.482 3.294 7.542 3.966L6.372 4.272C6.324 3.66 6.222 3.138 6.066 2.706C5.922 2.262 5.688 1.926 5.364 1.698C5.052 1.47 4.614 1.356 4.05 1.356C3.45 1.356 2.958 1.512 2.574 1.824C2.19 2.136 1.998 2.622 1.998 3.282C1.998 3.678 2.07 4.038 2.214 4.362C2.37 4.686 2.64 5.034 3.024 5.406L5.598 7.836C6.174 8.376 6.672 8.976 7.092 9.636C7.512 10.296 7.722 11.04 7.722 11.868C7.722 12.6 7.578 13.212 7.29 13.704C7.014 14.196 6.624 14.568 6.12 14.82C5.616 15.06 5.034 15.18 4.374 15.18ZM11.0573 15V1.482H8.3033V0.419999H15.1073V1.482H12.4253V15H11.0573ZM19.9744 15.18C18.9904 15.18 18.2224 15.006 17.6704 14.658C17.1304 14.298 16.7584 13.806 16.5544 13.182C16.3504 12.546 16.2484 11.826 16.2484 11.022V0.419999H17.5804V11.058C17.5804 11.622 17.6404 12.138 17.7604 12.606C17.8924 13.062 18.1324 13.422 18.4804 13.686C18.8284 13.95 19.3264 14.082 19.9744 14.082C20.5984 14.082 21.0844 13.95 21.4324 13.686C21.7804 13.41 22.0204 13.044 22.1524 12.588C22.2964 12.132 22.3684 11.622 22.3684 11.058V0.419999H23.6824V11.022C23.6824 11.826 23.5744 12.546 23.3584 13.182C23.1424 13.806 22.7644 14.298 22.2244 14.658C21.6844 15.006 20.9344 15.18 19.9744 15.18ZM25.7784 15V0.419999H28.9464C29.9664 0.419999 30.7584 0.599999 31.3224 0.959999C31.8984 1.308 32.3064 1.806 32.5464 2.454C32.7864 3.102 32.9064 3.852 32.9064 4.704V10.5C32.9064 11.4 32.7864 12.192 32.5464 12.876C32.3064 13.548 31.9104 14.07 31.3584 14.442C30.8064 14.814 30.0444 15 29.0724 15H25.7784ZM27.1464 13.974H28.9824C29.7504 13.974 30.3144 13.818 30.6744 13.506C31.0344 13.182 31.2624 12.744 31.3584 12.192C31.4544 11.628 31.5024 10.992 31.5024 10.284V4.848C31.5024 4.116 31.4364 3.504 31.3044 3.012C31.1844 2.508 30.9384 2.13 30.5664 1.878C30.2064 1.614 29.6604 1.482 28.9284 1.482H27.1464V13.974ZM34.9011 15V0.419999H36.2691V15H34.9011ZM42.0113 15.18C41.0393 15.18 40.2773 14.994 39.7253 14.622C39.1853 14.238 38.8013 13.71 38.5733 13.038C38.3573 12.354 38.2493 11.574 38.2493 10.698V4.65C38.2493 3.762 38.3633 2.994 38.5913 2.346C38.8313 1.686 39.2213 1.176 39.7613 0.815999C40.3133 0.455999 41.0633 0.276 42.0113 0.276C42.9473 0.276 43.6853 0.455999 44.2253 0.815999C44.7773 1.176 45.1673 1.686 45.3953 2.346C45.6233 2.994 45.7373 3.762 45.7373 4.65V10.716C45.7373 11.592 45.6233 12.366 45.3953 13.038C45.1793 13.698 44.8013 14.22 44.2613 14.604C43.7213 14.988 42.9713 15.18 42.0113 15.18ZM42.0113 14.082C42.6473 14.082 43.1333 13.956 43.4693 13.704C43.8053 13.44 44.0333 13.08 44.1533 12.624C44.2853 12.156 44.3513 11.616 44.3513 11.004V4.398C44.3513 3.786 44.2853 3.252 44.1533 2.796C44.0333 2.34 43.8053 1.992 43.4693 1.752C43.1333 1.5 42.6473 1.374 42.0113 1.374C41.3633 1.374 40.8653 1.5 40.5173 1.752C40.1813 1.992 39.9473 2.34 39.8153 2.796C39.6953 3.252 39.6353 3.786 39.6353 4.398V11.004C39.6353 11.616 39.6953 12.156 39.8153 12.624C39.9473 13.08 40.1813 13.44 40.5173 13.704C40.8653 13.956 41.3633 14.082 42.0113 14.082Z" fill="#FC2D7C"/>
</svg>
