<svg width="20" height="20" viewBox="0 0 20 20" fill="none" xmlns="http://www.w3.org/2000/svg">
<g id="trash 1">
<rect width="20" height="20" rx="5" fill="black" fill-opacity="0.3"/>
<path id="Vector" d="M6.86821 16C6.54857 16 6.27631 15.8803 6.05143 15.6408C5.82667 15.4012 5.71429 15.1112 5.71429 14.7706V5.34635H5V4.58538H7.85714V4H12.1429V4.58538H15V5.34635H14.2857V14.7706C14.2857 15.1209 14.1756 15.4134 13.9554 15.648C13.7351 15.8827 13.4606 16 13.1318 16H6.86821ZM13.5714 5.34635H6.42857V14.7706C6.42857 14.9072 6.46976 15.0195 6.55214 15.1074C6.63464 15.1951 6.74 15.239 6.86821 15.239H13.1318C13.2418 15.239 13.3426 15.1903 13.4341 15.0927C13.5257 14.9952 13.5714 14.8878 13.5714 14.7706V5.34635ZM8.43411 13.7171H9.14839V6.8683H8.43411V13.7171ZM10.8516 13.7171H11.5659V6.8683H10.8516V13.7171Z" fill="#E8EAED"/>
</g>
</svg>
