<svg width="32" height="32" viewBox="0 0 32 32" fill="none" xmlns="http://www.w3.org/2000/svg">
<path fill-rule="evenodd" clip-rule="evenodd" d="M16.1264 10.5651C19.7501 10.5651 22.6877 13.5027 22.6877 17.1264C22.6877 20.7501 19.7501 23.6877 16.1264 23.6877C12.5027 23.6877 9.56506 20.7501 9.56506 17.1264C9.56506 16.1482 9.7787 15.2217 10.1612 14.3894C10.3126 14.0602 10.1683 13.6706 9.83909 13.5192C9.50984 13.3679 9.12023 13.5121 8.96889 13.8414C8.50894 14.842 8.25279 15.9552 8.25279 17.1264C8.25279 21.4749 11.7779 25 16.1264 25C20.4749 25 24 21.4749 24 17.1264C24 12.7779 20.4749 9.25279 16.1264 9.25279V10.5651Z" fill="white"/>
<path d="M16.1264 12.4892V7.32869C16.1264 7.05055 15.802 6.8986 15.5883 7.07667L12.492 9.6569C12.3346 9.78806 12.3346 10.0298 12.492 10.161L15.5883 12.7412C15.802 12.9193 16.1264 12.7673 16.1264 12.4892Z" fill="white"/>
</svg>
