<svg width="14" height="14" viewBox="0 0 14 14" fill="none" xmlns="http://www.w3.org/2000/svg">
<g id="x" opacity="0.4">
<path id="Union" fill-rule="evenodd" clip-rule="evenodd" d="M10.8536 3.85355C11.0488 3.65829 11.0488 3.34171 10.8536 3.14645C10.6583 2.95118 10.3417 2.95118 10.1464 3.14645L7 6.29289L3.85355 3.14645C3.65829 2.95118 3.34171 2.95118 3.14645 3.14645C2.95118 3.34171 2.95118 3.65829 3.14645 3.85355L6.29289 7L3.14645 10.1464C2.95118 10.3417 2.95118 10.6583 3.14645 10.8536C3.34171 11.0488 3.65829 11.0488 3.85355 10.8536L7 7.70711L10.1464 10.8536C10.3417 11.0488 10.6583 11.0488 10.8536 10.8536C11.0488 10.6583 11.0488 10.3417 10.8536 10.1464L7.70711 7L10.8536 3.85355Z" fill="white"/>
</g>
</svg>
