<svg width="284" height="180" viewBox="0 0 284 180" fill="none" xmlns="http://www.w3.org/2000/svg">
<path d="M276.707 0.292892C276.317 -0.0976321 275.683 -0.0976321 275.293 0.292892L268.929 6.65685C268.538 7.04738 268.538 7.68054 268.929 8.07107C269.319 8.46159 269.953 8.46159 270.343 8.07107L276 2.41421L281.657 8.07107C282.047 8.46159 282.681 8.46159 283.071 8.07107C283.462 7.68054 283.462 7.04738 283.071 6.65685L276.707 0.292892ZM277 21L277 0.999999L275 0.999999L275 21L277 21Z" fill="white"/>
<path d="M1 19C0.447723 19 0 19.4477 0 20C0 20.5523 0.447723 21 1 21V19ZM276 19L1 19V21L276 21V19Z" fill="white"/>
<path d="M-6.95011e-06 179C-6.97426e-06 179.552 0.447708 180 0.999993 180C1.55228 180 1.99999 179.552 1.99999 179L-6.95011e-06 179ZM0 20L-6.95011e-06 179L1.99999 179L2 20L0 20Z" fill="white"/>
</svg>
