<svg width="241" height="337" viewBox="0 0 241 337" fill="none" xmlns="http://www.w3.org/2000/svg">
<path d="M233.707 0.292894C233.317 -0.0976308 232.683 -0.0976308 232.293 0.292894L225.929 6.65685C225.538 7.04738 225.538 7.68054 225.929 8.07107C226.319 8.46159 226.953 8.46159 227.343 8.07107L233 2.41421L238.657 8.07107C239.047 8.46159 239.681 8.46159 240.071 8.07107C240.462 7.68054 240.462 7.04738 240.071 6.65685L233.707 0.292894ZM234 11L234 1L232 1L232 11L234 11Z" fill="white"/>
<path d="M1 8.99998C0.447708 8.99998 4.82823e-08 9.44769 0 9.99998C-4.82823e-08 10.5523 0.447708 11 1 11L1 8.99998ZM233 9L1 8.99998L1 11L233 11L233 9Z" fill="white"/>
<path d="M-1.42499e-05 336C-1.4274e-05 336.552 0.447701 337 0.999986 337C1.55227 337 1.99999 336.552 1.99999 336L-1.42499e-05 336ZM0 10L-1.42499e-05 336L1.99999 336L2 10L0 10Z" fill="white"/>
</svg>
