<svg width="60" height="54" viewBox="0 0 60 54" fill="none" xmlns="http://www.w3.org/2000/svg">
<path d="M59.7071 8.70711C60.0976 8.31658 60.0976 7.68342 59.7071 7.29289L53.3431 0.928933C52.9526 0.538408 52.3195 0.538408 51.9289 0.928933C51.5384 1.31946 51.5384 1.95262 51.9289 2.34315L57.5858 8L51.9289 13.6569C51.5384 14.0474 51.5384 14.6805 51.9289 15.0711C52.3195 15.4616 52.9526 15.4616 53.3431 15.0711L59.7071 8.70711ZM1 7.00001C0.447716 7.00001 -4.82823e-08 7.44772 0 8.00001C4.82823e-08 8.55229 0.447716 9.00001 1 9.00001L1 7.00001ZM59 7L1 7.00001L1 9.00001L59 9L59 7Z" fill="white"/>
<path d="M1 8L0.999998 53" stroke="white" stroke-width="2" stroke-linecap="round"/>
</svg>

