<svg width="329" height="71" viewBox="0 0 329 71" fill="none" xmlns="http://www.w3.org/2000/svg">
<path d="M321.72 0.293159C321.33 -0.0975162 320.697 -0.0977653 320.306 0.292603L313.94 6.65406C313.549 7.04443 313.549 7.6776 313.939 8.06827C314.33 8.45895 314.963 8.4592 315.353 8.06883L321.012 2.4142L326.667 8.07328C327.057 8.46396 327.691 8.46421 328.081 8.07384C328.472 7.68347 328.472 7.0503 328.082 6.65962L321.72 0.293159ZM322 34.0004L322.013 1.00038L320.013 0.999595L320 33.9996L322 34.0004Z" fill="white"/>
<path d="M-1.61732e-06 70C-1.64146e-06 70.5523 0.447714 71 0.999998 71C1.55228 71 2 70.5523 2 70L-1.61732e-06 70ZM0 33L-1.61732e-06 70L2 70L2 33L0 33Z" fill="white"/>
<path d="M1 32C0.447723 32 -4.82823e-08 32.4477 0 33C4.82823e-08 33.5523 0.447723 34 1 34L1 32ZM321 32L1 32L1 34L321 34L321 32Z" fill="white"/>
</svg>
