<svg width="78" height="116" viewBox="0 0 78 116" fill="none" xmlns="http://www.w3.org/2000/svg">
<path d="M-4.67712e-06 115C-4.70126e-06 115.552 0.447711 116 0.999995 116C1.55228 116 2 115.552 2 115L-4.67712e-06 115ZM0 8L-4.67712e-06 115L2 115L2 8L0 8Z" fill="white"/>
<path d="M77.7071 7.29289C78.0976 7.68342 78.0976 8.31658 77.7071 8.70711L71.3431 15.0711C70.9526 15.4616 70.3195 15.4616 69.9289 15.0711C69.5384 14.6806 69.5384 14.0474 69.9289 13.6569L75.5858 8L69.9289 2.34315C69.5384 1.95263 69.5384 1.31946 69.9289 0.92894C70.3195 0.538415 70.9526 0.538414 71.3431 0.928938L77.7071 7.29289ZM1 9.00008C0.447716 9.00008 3.86258e-09 8.55237 0 8.00008C-3.86258e-09 7.4478 0.447716 7.00008 1 7.00008L1 9.00008ZM77 9L1 9.00008L1 7.00008L77 7L77 9Z" fill="white"/>
</svg>
