<svg width="72" height="54" viewBox="0 0 72 54" fill="none" xmlns="http://www.w3.org/2000/svg">
<path d="M0.292893 8.70711C-0.0976311 8.31658 -0.0976311 7.68342 0.292893 7.29289L6.65685 0.928933C7.04738 0.538408 7.68054 0.538408 8.07107 0.928933C8.46159 1.31946 8.46159 1.95262 8.07107 2.34315L2.41421 8L8.07107 13.6569C8.46159 14.0474 8.46159 14.6805 8.07107 15.0711C7.68054 15.4616 7.04738 15.4616 6.65685 15.0711L0.292893 8.70711ZM71 7.00001C71.5523 7.00001 72 7.44772 72 8.00001C72 8.55229 71.5523 9.00001 71 9.00001L71 7.00001ZM1 7L71 7.00001L71 9.00001L1 9L1 7Z" fill="white"/>
<path d="M71 8L71 53" stroke="white" stroke-width="2" stroke-linecap="round"/>
</svg>

