<svg width="48" height="184" viewBox="0 0 48 184" fill="none" xmlns="http://www.w3.org/2000/svg">
<path d="M22 183C22 183.552 22.4477 184 23 184C23.5523 184 24 183.552 24 183H22ZM22 8L22 183H24L24 8H22Z" fill="white"/>
<path d="M47 184C47.5523 184 48 183.552 48 183C48 182.448 47.5523 182 47 182V184ZM23 184H47V182H23V184Z" fill="white"/>
<path d="M0.292893 7.29289C-0.0976311 7.68342 -0.0976311 8.31658 0.292893 8.70711L6.65685 15.0711C7.04738 15.4616 7.68054 15.4616 8.07107 15.0711C8.46159 14.6805 8.46159 14.0474 8.07107 13.6569L2.41421 8L8.07107 2.34315C8.46159 1.95262 8.46159 1.31946 8.07107 0.928933C7.68054 0.538408 7.04738 0.538408 6.65685 0.928933L0.292893 7.29289ZM23 9C23.5523 9 24 8.55229 24 8C24 7.44772 23.5523 7 23 7L23 9ZM1 9L23 9L23 7L1 7L1 9Z" fill="white"/>
</svg>
