<svg width="276" height="264" viewBox="0 0 276 264" fill="none" xmlns="http://www.w3.org/2000/svg">
<path d="M268.707 0.292892C268.317 -0.0976325 267.683 -0.0976325 267.293 0.292892L260.929 6.65685C260.538 7.04738 260.538 7.68054 260.929 8.07107C261.319 8.46159 261.953 8.46159 262.343 8.07107L268 2.41421L273.657 8.07107C274.047 8.46159 274.681 8.46159 275.071 8.07107C275.462 7.68054 275.462 7.04738 275.071 6.65685L268.707 0.292892ZM269 15L269 0.999999L267 0.999999L267 15L269 15Z" fill="white"/>
<path d="M1 13C0.447723 13 4.82823e-08 13.4477 0 14C-4.82823e-08 14.5523 0.447723 15 1 15L1 13ZM268 13L1 13L1 15L268 15L268 13Z" fill="white"/>
<path d="M1.08841e-05 263C1.09083e-05 263.552 0.447726 264 1.00001 264C1.5523 264 2.00001 263.552 2.00001 263L1.08841e-05 263ZM0 14L1.08841e-05 263L2.00001 263L2 14L0 14Z" fill="white"/>
</svg>
