<svg xmlns="http://www.w3.org/2000/svg" width="16" height="116" viewBox="0 0 16 116" fill="none">
<path d="M8.70711 0.292893C8.31658 -0.0976311 7.68342 -0.0976311 7.29289 0.292893L0.928932 6.65685C0.538408 7.04738 0.538407 7.68054 0.928932 8.07107C1.31946 8.46159 1.95262 8.46159 2.34315 8.07107L8 2.41421L13.6569 8.07107C14.0474 8.46159 14.6805 8.46159 15.0711 8.07107C15.4616 7.68054 15.4616 7.04738 15.0711 6.65685L8.70711 0.292893ZM6.99999 115C6.99999 115.552 7.44771 116 7.99999 116C8.55228 116 8.99999 115.552 8.99999 115L6.99999 115ZM7 1L6.99999 115L8.99999 115L9 1L7 1Z" fill="white"/>
</svg>