<svg width="41" height="349" viewBox="0 0 41 349" fill="none" xmlns="http://www.w3.org/2000/svg">
<path d="M-1.48619e-05 348C-1.4886e-05 348.552 0.4477 349 0.999985 349C1.55227 349 1.99999 348.552 1.99999 348L-1.48619e-05 348ZM0 8L-1.48619e-05 348L1.99999 348L2 8L0 8Z" fill="white"/>
<path d="M40.7071 7.29289C41.0976 7.68342 41.0976 8.31658 40.7071 8.70711L34.3431 15.0711C33.9526 15.4616 33.3195 15.4616 32.9289 15.0711C32.5384 14.6805 32.5384 14.0474 32.9289 13.6569L38.5858 8L32.9289 2.34315C32.5384 1.95263 32.5384 1.31946 32.9289 0.928937C33.3195 0.538413 33.9526 0.538412 34.3431 0.928936L40.7071 7.29289ZM1 9.00003C0.447716 9.00003 5.9778e-09 8.55231 0 8.00003C-5.9778e-09 7.44774 0.447716 7.00003 1 7.00003L1 9.00003ZM40 9L1 9.00003L1 7.00003L40 7L40 9Z" fill="white"/>
</svg>
