<svg width="52" height="198" viewBox="0 0 52 198" fill="none" xmlns="http://www.w3.org/2000/svg">
<path d="M50 197C50 197.552 50.4477 198 51 198C51.5523 198 52 197.552 52 197H50ZM50 8L50 197H52L52 8H50Z" fill="white"/>
<path d="M0.292893 7.29289C-0.0976311 7.68342 -0.0976311 8.31658 0.292893 8.70711L6.65685 15.0711C7.04738 15.4616 7.68054 15.4616 8.07107 15.0711C8.46159 14.6805 8.46159 14.0474 8.07107 13.6569L2.41421 8L8.07107 2.34315C8.46159 1.95262 8.46159 1.31946 8.07107 0.928933C7.68054 0.538408 7.04738 0.538408 6.65685 0.928933L0.292893 7.29289ZM51 9C51.5523 9 52 8.55229 52 8C52 7.44772 51.5523 7 51 7L51 9ZM1 9L51 9L51 7L1 7L1 9Z" fill="white"/>
</svg>
