<svg xmlns="http://www.w3.org/2000/svg" width="22" height="22" viewBox="0 0 22 22" fill="none">
  <rect x="1" y="1" width="20" height="20" rx="8" stroke="white" stroke-width="2"/>
  <path fill-rule="evenodd" clip-rule="evenodd" d="M12 5.5C12 4.94772 11.5523 4.5 11 4.5C10.4477 4.5 10 4.94772 10 5.5V10H5.5C4.94772 10 4.5 10.4477 4.5 11C4.5 11.5523 4.94772 12 5.5 12H10V16.5C10 17.0523 10.4477 17.5 11 17.5C11.5523 17.5 12 17.0523 12 16.5V12H16.5C17.0523 12 17.5 11.5523 17.5 11C17.5 10.4477 17.0523 10 16.5 10H12V5.5Z" fill="white"/>
</svg>