<svg width="24" height="24" viewBox="0 0 24 24" fill="none" xmlns="http://www.w3.org/2000/svg">
<rect width="24" height="24" rx="10" fill="#8AA4CC"/>
<rect width="24" height="24" rx="10" fill="black" fill-opacity="0.1"/>
<path d="M17.325 13.3498V10.3498H14.325V9.6498H17.325V6.6498H18.025V9.6498H21.025V10.3498H18.025V13.3498H17.325ZM10 11.1998C9.25755 11.1998 8.62197 10.9355 8.0933 10.4068C7.56447 9.87797 7.30005 9.2423 7.30005 8.4998C7.30005 7.7573 7.56447 7.12164 8.0933 6.5928C8.62197 6.06414 9.25755 5.7998 10 5.7998C10.7425 5.7998 11.3781 6.06414 11.9068 6.5928C12.4356 7.12164 12.7 7.7573 12.7 8.4998C12.7 9.2423 12.4356 9.87797 11.9068 10.4068C11.3781 10.9355 10.7425 11.1998 10 11.1998ZM3.30005 18.1998V16.8998C3.30005 16.5331 3.41255 16.1873 3.63755 15.8623C3.86255 15.5373 4.16672 15.2831 4.55005 15.0998C5.46672 14.6665 6.37922 14.3415 7.28755 14.1248C8.19588 13.9081 9.10005 13.7998 10 13.7998C10.9 13.7998 11.8042 13.9081 12.7125 14.1248C13.6209 14.3415 14.5334 14.6665 15.45 15.0998C15.8334 15.2831 16.1375 15.5373 16.3625 15.8623C16.5875 16.1873 16.7 16.5331 16.7 16.8998V18.1998H3.30005ZM4.00005 17.4998H16V16.8998C16 16.6665 15.9209 16.4456 15.7625 16.2373C15.6042 16.029 15.3834 15.8498 15.1 15.6998C14.3 15.3165 13.4693 15.0206 12.6078 14.8123C11.7465 14.604 10.8772 14.4998 10 14.4998C9.12288 14.4998 8.25363 14.604 7.3923 14.8123C6.5308 15.0206 5.70005 15.3165 4.90005 15.6998C4.61672 15.8498 4.39588 16.029 4.23755 16.2373C4.07922 16.4456 4.00005 16.6665 4.00005 16.8998V17.4998ZM10 10.4998C10.55 10.4998 11.0209 10.304 11.4125 9.9123C11.8042 9.52064 12 9.0498 12 8.4998C12 7.9498 11.8042 7.47897 11.4125 7.0873C11.0209 6.69564 10.55 6.4998 10 6.4998C9.45005 6.4998 8.97922 6.69564 8.58755 7.0873C8.19588 7.47897 8.00005 7.9498 8.00005 8.4998C8.00005 9.0498 8.19588 9.52064 8.58755 9.9123C8.97922 10.304 9.45005 10.4998 10 10.4998Z" fill="#333333"/>
</svg>