<svg width="17" height="15" viewBox="0 0 17 15" fill="none" xmlns="http://www.w3.org/2000/svg">
<g id="Vector" filter="url(#filter0_d_861_2766)">
<path d="M8.61699 13.5L8.16182 13.1078C6.82389 11.9444 5.71699 10.951 4.84113 10.1275C3.96527 9.30392 3.27561 8.5817 2.77216 7.96078C2.26872 7.33987 1.91699 6.78105 1.71699 6.28431C1.51699 5.78758 1.41699 5.29085 1.41699 4.79412C1.41699 3.86601 1.75148 3.08497 2.42044 2.45098C3.08941 1.81699 3.91354 1.5 4.89285 1.5C5.62389 1.5 6.30665 1.68627 6.94113 2.05882C7.57561 2.43137 8.13423 3.18105 8.61699 3.9C9.09975 3.18105 9.85257 2.43137 10.4871 2.05882C11.1215 1.68627 11.6977 1.5 12.4288 1.5C13.4081 1.5 14.1446 1.81699 14.8135 2.45098C15.4825 3.08497 15.817 3.86601 15.817 4.79412C15.817 5.29085 15.717 5.78758 15.517 6.28431C15.317 6.78105 14.9653 7.33987 14.4618 7.96078C13.9584 8.5817 13.2722 9.30392 12.4032 10.1275C11.5342 10.951 10.4239 11.9444 9.07216 13.1078L8.61699 13.5Z" fill="#CCCCCC"/>
</g>
<defs>
<filter id="filter0_d_861_2766" x="0.416992" y="0.5" width="16.4" height="14" filterUnits="userSpaceOnUse" color-interpolation-filters="sRGB">
<feFlood flood-opacity="0" result="BackgroundImageFix"/>
<feColorMatrix in="SourceAlpha" type="matrix" values="0 0 0 0 0 0 0 0 0 0 0 0 0 0 0 0 0 0 127 0" result="hardAlpha"/>
<feOffset/>
<feGaussianBlur stdDeviation="0.5"/>
<feComposite in2="hardAlpha" operator="out"/>
<feColorMatrix type="matrix" values="0 0 0 0 0 0 0 0 0 0 0 0 0 0 0 0 0 0 0.45 0"/>
<feBlend mode="normal" in2="BackgroundImageFix" result="effect1_dropShadow_861_2766"/>
<feBlend mode="normal" in="SourceGraphic" in2="effect1_dropShadow_861_2766" result="shape"/>
</filter>
</defs>
</svg>
