<svg width="87" height="24" viewBox="0 0 87 24" fill="none" xmlns="http://www.w3.org/2000/svg">
<path id="Union" fill-rule="evenodd" clip-rule="evenodd" d="M13.5257 2.24036L1.97975 14.0807L1.95827 14.1012C-0.240724 11.4633 -0.678068 7.63407 1.10814 4.45482C3.37158 0.425668 8.39566 -0.951478 12.3226 1.37315C12.7552 1.62969 13.1573 1.92086 13.5257 2.24036ZM20.3928 1.65801L19.337 0.575177L15.4101 4.60276C15.1708 4.15578 14.8914 3.73078 14.5722 3.33102L16.1114 1.75241L15.0557 0.669574L13.5257 2.23874C13.9109 2.5724 14.2607 2.93912 14.5722 3.32944V3.33102L3.03547 15.1635L3.02781 15.1778C3.36233 15.4594 3.73983 15.7349 4.11273 15.9584C4.1603 15.9867 4.2094 16.0149 4.2585 16.0418L15.4101 4.60276C15.6695 5.08751 15.8812 5.5943 16.0423 6.1184L20.3912 1.65801H20.3928ZM23.7147 4.68691L24.7705 5.76977L9.32437 21.612L8.26859 20.5291L23.7147 4.68691ZM23.4395 9.25683L24.4953 10.3397L11.4135 23.7569L10.3577 22.674L23.4395 9.25683ZM5.13015 17.312L4.07439 16.229L4.257 16.0418C4.73578 16.3125 5.22989 16.5297 5.73322 16.6933L5.13015 17.312ZM6.15686 18.3632L7.4381 17.0491C6.86572 16.9924 6.29489 16.8744 5.73478 16.6918L16.0438 6.11847C16.2188 6.68507 16.3369 7.27214 16.3922 7.86549L7.43963 17.0475C8.19972 17.1213 8.9598 17.0849 9.70153 16.9451L16.2939 10.1838C16.1298 11.1077 15.8106 12.0158 15.3271 12.8751C14.0749 15.099 11.9849 16.5156 9.70153 16.9468L7.2387 19.4728L6.15686 18.3632ZM16.2955 10.1853L16.2974 10.1834L16.2971 10.1853H16.2955ZM16.2974 10.1834L23.181 3.12329L22.0991 2.0137L16.3937 7.8654C16.4658 8.63125 16.4352 9.41124 16.2974 10.1834ZM56.7168 0.279052L54.2123 2.84606L54.2093 2.84763L54.2308 8.54038C53.9008 8.32161 53.4006 8.09339 52.7331 7.85417C52.064 7.61494 51.2921 7.49532 50.4206 7.49532C49.334 7.49532 48.3688 7.69363 47.5264 8.09182C46.6824 8.49002 45.9703 9.04717 45.3888 9.76328C44.8057 10.4778 44.3653 11.334 44.0644 12.3287C43.7637 13.3234 43.5918 14.3858 43.5918 15.6401C43.5918 16.8946 43.7713 18.023 44.1305 19.0271C44.4911 20.0313 44.999 20.8828 45.6589 21.5785C46.3186 22.2757 47.1136 22.8123 48.045 23.1901C48.975 23.5678 50.0231 23.7568 51.1863 23.7568C52.4461 23.7568 53.5617 23.6669 54.5315 23.4875C55.5029 23.3098 56.2978 23.1302 56.9178 22.9508V0.364042C56.9178 0.257018 56.7904 0.203505 56.7168 0.279052ZM52.8082 10.3283C53.4282 10.5864 53.9024 10.8556 54.2339 11.1341L54.2323 11.1357L54.2108 20.9819C53.9392 21.0622 53.5556 21.1362 53.0615 21.2054C52.5673 21.2747 51.9505 21.3094 51.2139 21.3094C49.7607 21.3094 48.5959 20.8183 47.7243 19.8331C46.8512 18.8477 46.4154 17.4501 46.4154 15.6401C46.4154 14.8437 46.5136 14.0694 46.6701 13.3722C46.8251 12.6765 47.0782 12.0753 47.4266 11.567C47.7765 11.0602 48.2277 10.662 48.78 10.374C49.3325 10.0859 49.997 9.94114 50.772 9.94114C51.5085 9.94114 52.1868 10.0702 52.8082 10.3283ZM39.579 21.1157C39.8705 21.9814 40.1806 22.8613 40.5105 23.7568V23.7551H43.5948C42.8184 21.5674 42.091 19.5435 41.4128 17.6831C40.733 15.8227 40.0701 14.0585 39.4194 12.3869C38.7704 10.7155 38.1243 9.1196 37.4844 7.59766C37.2439 7.02563 36.9991 6.40497 36.7504 5.77404C36.3374 4.72633 35.913 3.64982 35.4772 2.71861H32.8885C32.4503 3.65285 32.0241 4.73334 31.6097 5.78428L31.6058 5.79404C31.3597 6.41814 31.1177 7.03163 30.8797 7.59766C30.2398 9.1196 29.5953 10.7155 28.9447 12.3869C28.2956 14.0585 27.6311 15.8227 26.9528 17.6831C26.2731 19.5435 25.5457 21.5674 24.7707 23.7551H27.7094L29.5415 18.4748H38.6766C38.9882 19.3703 39.2874 20.2501 39.579 21.1157ZM36.0159 11.0618C36.6265 12.6829 37.2419 14.359 37.8634 16.0888H37.8619H30.3564C30.958 14.359 31.5641 12.6829 32.1748 11.0618C32.3464 10.607 32.5207 10.1285 32.6975 9.64298L32.6998 9.63675C33.1521 8.39531 33.6218 7.10594 34.1099 6.03479C34.5621 7.05633 35.0033 8.27835 35.4324 9.46756L35.4344 9.4733C35.6307 10.0169 35.8244 10.5538 36.0159 11.0618ZM61.5708 23.7564L63.4887 21.7894C63.5561 21.7201 63.5178 21.6005 63.4227 21.5847C63.0974 21.5312 62.815 21.4683 62.5787 21.3959C62.2886 21.3062 62.0554 21.1724 61.8804 20.993C61.7055 20.8136 61.5797 20.5759 61.5014 20.2769C61.4246 19.9778 61.3863 19.3499 61.3863 18.8918V0.364042C61.3863 0.257018 61.259 0.203505 61.1853 0.279052L58.6825 2.84606V19.5922C58.6825 21.0638 59.0308 22.1482 59.7291 22.8439C60.1584 23.2733 60.7719 23.577 61.5708 23.7564ZM71.146 23.7568C71.5219 23.7568 71.8841 23.7425 72.231 23.7174H72.2325L74.1399 21.7611C74.2228 21.6745 74.1445 21.5312 74.0294 21.558C69.8632 22.507 67.7132 20.0566 67.7132 20.0566C66.9183 19.2208 66.4626 17.9978 66.346 16.3862H76.7025C76.721 16.2273 76.7317 16.0526 76.7317 15.8638V15.401C76.7317 12.7364 76.1885 10.7517 75.1021 9.44854C74.0156 8.14537 72.4549 7.49378 70.4187 7.49378C69.547 7.49378 68.6938 7.66218 67.859 8.00057C67.0243 8.33896 66.2877 8.84732 65.6478 9.52252C65.0079 10.1993 64.4953 11.0492 64.1071 12.0737C63.7173 13.1 63.5239 14.2976 63.5239 15.6701C63.5239 16.8443 63.6743 17.9224 63.9751 18.9076C64.2759 19.8929 64.7363 20.7428 65.3577 21.4589C65.9777 22.175 66.768 22.7369 67.7286 23.1445C68.6877 23.5521 69.8279 23.7568 71.146 23.7568ZM72.9936 11.0602C73.6227 11.866 73.9282 12.8953 73.9097 14.1482H66.4043C66.4626 13.6115 66.5838 13.0842 66.768 12.5665C66.9521 12.0502 67.2084 11.5922 67.5383 11.194C67.8683 10.7974 68.2702 10.4731 68.746 10.2245C69.2217 9.9758 69.7696 9.85146 70.3895 9.85146C71.4959 9.85146 72.3629 10.2544 72.9936 11.0602ZM85.1073 9.99312C84.6991 9.93802 84.2219 9.91128 83.674 9.91128C83.1692 9.91128 82.6689 9.96636 82.1748 10.075C81.6807 10.1851 81.3554 10.2591 81.2004 10.2985V21.1425L78.696 23.7221C78.6224 23.7977 78.4949 23.7331 78.4949 23.6261V8.47904C79.1349 8.2398 79.9297 8.01632 80.8812 7.80856C81.831 7.59923 82.8976 7.49535 84.0807 7.49535C84.3139 7.49535 84.5794 7.50952 84.8817 7.541C85.181 7.5709 85.4772 7.61025 85.7687 7.66062C86.0603 7.71098 86.3273 7.75977 86.5697 7.81014C86.7017 7.8369 86.8153 7.86364 86.9104 7.88725C86.9994 7.90929 87.0301 8.0226 86.9657 8.09029L85.1073 9.99627V9.99312Z" fill="#FC2D7C"/>
</svg>
