<svg width="14" height="13" viewBox="0 0 14 13" fill="none" xmlns="http://www.w3.org/2000/svg">
<g id="exclude">
<path id="Rectangle 257 (Stroke)" d="M0.816895 1.625C0.816895 0.727537 1.54443 0 2.44189 0H8.94189C9.83936 0 10.5669 0.727537 10.5669 1.625V3.25H12.1919C13.0894 3.25 13.8169 3.97754 13.8169 4.875V11.375C13.8169 12.2725 13.0894 13 12.1919 13H5.69189C4.79443 13 4.06689 12.2725 4.06689 11.375V9.75H2.44189C1.54443 9.75 0.816895 9.02246 0.816895 8.125V1.625ZM10.5669 3.25H4.87939C4.43066 3.25 4.06689 3.61377 4.06689 4.0625V9.75H9.75439C10.2031 9.75 10.5669 9.38623 10.5669 8.9375V3.25Z" fill="#CCCCCC"/>
</g>
</svg>
