<svg width="74" height="20" viewBox="0 0 74 20" fill="none" xmlns="http://www.w3.org/2000/svg">
<path fill-rule="evenodd" clip-rule="evenodd" d="M1.68393 11.7697L11.5046 1.69856C11.1913 1.4268 10.8493 1.17914 10.4813 0.960932C7.14115 -1.01634 2.86779 0.155028 0.942555 3.58213C-0.576748 6.28632 -0.204754 9.5434 1.66566 11.7871L1.68393 11.7697ZM16.4476 0.282196L17.3456 1.20323H17.3443L13.6452 4.99713C13.5082 4.55134 13.3281 4.12028 13.1075 3.70796L16.4476 0.282196ZM21.0692 4.70059L20.1712 3.77954L7.03307 17.2545L7.93109 18.1756L21.0692 4.70059ZM20.8351 8.58765L19.9371 7.6666L8.81004 19.0789L9.70806 20L20.8351 8.58765ZM3.46558 13.597L4.36358 14.5181L4.87654 13.9919C4.44842 13.8527 4.02814 13.668 3.6209 13.4377L3.46558 13.597ZM13.704 1.28352L12.3948 2.62625V2.62491C12.1298 2.29291 11.8323 1.98099 11.5046 1.69718L12.806 0.362488L13.704 1.28352ZM6.32667 14.2945L5.23688 15.4123L6.15707 16.3561L8.25189 14.2075C10.1941 13.8407 11.9718 12.6358 13.0369 10.7442C13.4481 10.0133 13.7196 9.24087 13.8592 8.45505L8.25189 14.2061V14.2063C7.62099 14.3252 6.97449 14.3559 6.32797 14.2932L13.9428 6.48316C13.8958 5.97847 13.7953 5.47913 13.6465 4.99719L4.87787 13.9906C5.35428 14.1459 5.83982 14.2463 6.32667 14.2945ZM13.8622 8.45471L13.8606 8.45635H13.8619L13.8622 8.45471ZM19.7172 2.44956L13.8622 8.45471C13.9794 7.79794 14.0054 7.1345 13.9441 6.48309L18.797 1.50577L19.7172 2.44956ZM3.49819 13.3668C3.18101 13.1767 2.85992 12.9424 2.57538 12.7028L2.5819 12.6907L12.3947 2.62628C12.6662 2.96631 12.9038 3.32777 13.1074 3.70796L3.62218 13.4377C3.58042 13.4149 3.53865 13.3909 3.49819 13.3668Z" fill="#FC2D7C"/>
<path fill-rule="evenodd" clip-rule="evenodd" d="M46.1117 2.21375L48.2419 0.0303177C48.3045 -0.0339404 48.4129 0.0115758 48.4129 0.102608V19.3144C47.8855 19.467 47.2094 19.6197 46.3832 19.7709C45.5583 19.9235 44.6094 19.9999 43.5378 19.9999C42.5484 19.9999 41.6569 19.8392 40.8659 19.5179C40.0737 19.1966 39.3975 18.7401 38.8363 18.1471C38.275 17.5554 37.843 16.8311 37.5363 15.977C37.2308 15.1229 37.0781 14.1631 37.0781 13.0961C37.0781 12.0292 37.2243 11.1255 37.4801 10.2795C37.736 9.43342 38.1106 8.70516 38.6066 8.09738C39.1012 7.48827 39.7069 7.01437 40.4248 6.67567C41.1413 6.33698 41.9623 6.1683 42.8865 6.1683C43.6278 6.1683 44.2844 6.27005 44.8535 6.47353C45.4212 6.67701 45.8467 6.87113 46.1274 7.05721L46.1091 2.21509L46.1117 2.21375ZM46.13 9.2634C45.8481 9.02645 45.4447 8.79753 44.9174 8.57798C44.3888 8.35843 43.8119 8.24866 43.1854 8.24866C42.5262 8.24866 41.961 8.37182 41.4911 8.6168C41.0213 8.86179 40.6375 9.20048 40.3399 9.63155C40.0436 10.0639 39.8283 10.5753 39.6964 11.167C39.5633 11.7601 39.4798 12.4187 39.4798 13.0961C39.4798 14.6356 39.8505 15.8244 40.5931 16.6625C41.3345 17.5005 42.3252 17.9182 43.5613 17.9182C44.1878 17.9182 44.7125 17.8887 45.1328 17.8298C45.5531 17.7709 45.8794 17.708 46.1104 17.6397L46.1287 9.26474L46.13 9.2634ZM34.4572 19.9999C34.1766 19.2382 33.9129 18.4898 33.6649 17.7535C33.4169 17.0172 33.1624 16.2689 32.8974 15.5072H25.1273L23.5689 19.9985H21.0693C21.7285 18.1377 22.3472 16.4162 22.9254 14.8338C23.5023 13.2514 24.0675 11.7508 24.6196 10.329C25.173 8.90733 25.7212 7.54988 26.2655 6.25535C26.469 5.77139 26.6759 5.24664 26.8864 4.71293L26.8864 4.71292C27.2389 3.81902 27.6014 2.89999 27.9741 2.10535H30.176C30.5467 2.89741 30.9077 3.81307 31.259 4.70422L31.259 4.70435L31.2591 4.70436C31.4706 5.24102 31.6787 5.7688 31.8833 6.25535C32.4276 7.54988 32.9771 8.90733 33.5292 10.329C34.0826 11.7508 34.6465 13.2514 35.2247 14.8338C35.8016 16.4162 36.4203 18.1377 37.0807 19.9985H34.4572V19.9999ZM32.2057 13.4777C31.677 12.0064 31.1536 10.5807 30.6342 9.20185C30.4708 8.76826 30.3054 8.30992 30.1379 7.84584L30.1378 7.84555L30.1377 7.84524L30.1376 7.84515L30.1376 7.84512L30.1376 7.84511C29.7726 6.8336 29.3977 5.79491 29.013 4.92601C28.5972 5.83863 28.197 6.93748 27.8117 7.99505L27.8117 7.99508L27.8117 7.99515L27.8116 7.99526C27.6612 8.40827 27.513 8.81499 27.3671 9.20185C26.8476 10.5807 26.3321 12.0064 25.8204 13.4777H32.2044H32.2057ZM52.3706 19.9996L52.3717 19.9999H52.3703L52.3706 19.9996ZM54.0019 18.3265L52.3706 19.9996C51.6911 19.847 51.1693 19.5887 50.8041 19.2234C50.2102 18.6317 49.9139 17.7093 49.9139 16.4576V2.21375L52.0427 0.0303177C52.1054 -0.0339404 52.2137 0.0115758 52.2137 0.102608V15.8619C52.2137 16.2515 52.2463 16.7856 52.3116 17.04C52.3782 17.2943 52.4852 17.4965 52.634 17.6491C52.7828 17.8017 52.9812 17.9155 53.2279 17.9918C53.4289 18.0534 53.6691 18.1069 53.9458 18.1524C54.0267 18.1658 54.0593 18.2676 54.0019 18.3265ZM61.4379 19.9664C61.1429 19.9878 60.8348 19.9999 60.5151 19.9999C59.3939 19.9999 58.4241 19.8258 57.6083 19.4791C56.7912 19.1324 56.119 18.6545 55.5917 18.0454C55.0631 17.4363 54.6715 16.7134 54.4157 15.8753C54.1598 15.0373 54.0319 14.1203 54.0319 13.1216C54.0319 11.9542 54.1964 10.9355 54.5279 10.0626C54.8581 9.19114 55.2941 8.46824 55.8384 7.89259C56.3827 7.31828 57.0092 6.88588 57.7192 6.59806C58.4293 6.31023 59.155 6.16699 59.8964 6.16699C61.6284 6.16699 62.9559 6.72122 63.88 7.82967C64.8041 8.93812 65.2661 10.6262 65.2661 12.8927V13.2863C65.2661 13.4469 65.257 13.5955 65.2413 13.7307H56.4323C56.5315 15.1015 56.9191 16.1417 57.5952 16.8526C57.5952 16.8526 59.4239 18.9369 62.9676 18.1297C63.0655 18.1069 63.1321 18.2288 63.0616 18.3024L61.4392 19.9664H61.4379ZM62.8658 11.8271C62.8815 10.7614 62.6217 9.88593 62.0866 9.20051C61.5501 8.51509 60.8127 8.17238 59.8716 8.17238C59.3443 8.17238 58.8783 8.27814 58.4737 8.48965C58.069 8.70117 57.7271 8.97694 57.4464 9.3143C57.1658 9.65299 56.9478 10.0426 56.7912 10.4817C56.6346 10.9221 56.5315 11.3706 56.4819 11.8271H62.8658ZM71.1711 8.22326C71.6371 8.22326 72.043 8.24601 72.3902 8.29287V8.29555L73.9709 6.67437C74.0257 6.6168 73.9996 6.52042 73.9239 6.50167C73.843 6.48159 73.7464 6.45884 73.6341 6.43608C73.4279 6.39324 73.2008 6.35174 72.9528 6.3089C72.7048 6.26606 72.4529 6.23259 72.1983 6.20716C71.9412 6.18038 71.7154 6.16833 71.517 6.16833C70.5107 6.16833 69.6035 6.25669 68.7956 6.43474C67.9863 6.61145 67.3102 6.80154 66.7659 7.00503V19.8888C66.7659 19.9798 66.8743 20.0347 66.9369 19.9704L69.0671 17.7763V8.55258C69.1989 8.51911 69.4756 8.45619 69.8959 8.36248C70.3162 8.27011 70.7417 8.22326 71.1711 8.22326Z" fill="#FC2D7C"/>
</svg>
