<svg xmlns="http://www.w3.org/2000/svg" width="65" height="25" viewBox="0 0 65 25" fill="none">
<path fill-rule="evenodd" clip-rule="evenodd" d="M30.7525 2.73622L33.3684 0.0371753C33.4453 -0.042257 33.5784 0.0140076 33.5784 0.126537V23.8752C32.9308 24.0638 32.1005 24.2525 31.0859 24.4395C30.0729 24.6281 28.9076 24.7224 27.5917 24.7224C26.3767 24.7224 25.2819 24.5239 24.3106 24.1267C23.3377 23.7295 22.5074 23.1652 21.8181 22.4321C21.1289 21.7007 20.5984 20.8054 20.2217 19.7496C19.8466 18.6939 19.6591 17.5073 19.6591 16.1884C19.6591 14.8695 19.8386 13.7525 20.1528 12.7066C20.4669 11.6608 20.927 10.7605 21.536 10.0092C22.1435 9.25629 22.8873 8.67048 23.7688 8.25181C24.6488 7.83313 25.657 7.62462 26.7918 7.62462C27.7023 7.62462 28.5085 7.75039 29.2073 8.00192C29.9046 8.25346 30.4271 8.49341 30.7717 8.72344L30.7493 2.73788L30.7525 2.73622ZM30.7749 11.4506C30.4287 11.1577 29.9334 10.8747 29.2859 10.6033C28.6367 10.3319 27.9283 10.1962 27.1589 10.1962C26.3494 10.1962 25.6554 10.3485 25.0784 10.6513C24.5013 10.9542 24.0301 11.3728 23.6646 11.9057C23.3008 12.4402 23.0363 13.0724 22.8744 13.8038C22.7109 14.5369 22.6084 15.3511 22.6084 16.1884C22.6084 18.0915 23.0636 19.561 23.9756 20.5969C24.886 21.6329 26.1026 22.1492 27.6205 22.1492C28.3899 22.1492 29.0342 22.1128 29.5504 22.0399C30.0665 21.9671 30.4672 21.8894 30.7509 21.805L30.7733 11.4523L30.7749 11.4506ZM16.4406 24.7225C16.096 23.7809 15.7722 22.8558 15.4676 21.9457C15.1631 21.0355 14.8505 20.1104 14.5251 19.1688H4.9833L3.06948 24.7208H0C0.809446 22.4206 1.5692 20.2925 2.27927 18.3365C2.98774 16.3804 3.68178 14.5254 4.35979 12.7679C5.0394 11.0105 5.7126 9.33247 6.381 7.73224C6.63088 7.13399 6.88502 6.48532 7.14349 5.82557L7.1435 5.82556C7.57641 4.72058 8.02149 3.58452 8.47915 2.60223L11.1832 2.60223C11.6384 3.58138 12.0817 4.71332 12.5132 5.81497L12.5132 5.815C12.773 6.47839 13.0285 7.13079 13.2797 7.73224C13.9481 9.33247 14.6229 11.0105 15.3009 12.7679C15.9805 14.5254 16.673 16.3804 17.3831 18.3365C18.0915 20.2925 18.8513 22.4206 19.6623 24.7208H16.4406V24.7225ZM13.6756 16.6601C13.0265 14.8414 12.3837 13.079 11.7458 11.3745C11.5451 10.8383 11.3418 10.2714 11.1361 9.69748C10.6878 8.44709 10.2274 7.16308 9.75503 6.08898C9.24441 7.21712 8.75285 8.57546 8.27976 9.88276L8.27975 9.88279L8.27975 9.88281L8.27974 9.88284C8.09496 10.3934 7.913 10.8963 7.73382 11.3745C7.09588 13.079 6.46274 14.8414 5.83442 16.6601H13.674H13.6756ZM38.4386 24.7221L38.4399 24.7224H38.4383L38.4386 24.7221ZM40.4418 22.6539L38.4386 24.7221C37.6041 24.5334 36.9634 24.2142 36.5148 23.7626C35.7855 23.0312 35.4217 21.891 35.4217 20.3437V2.73622L38.0359 0.0371753C38.1129 -0.042257 38.2459 0.0140076 38.2459 0.126537V19.6073C38.2459 20.0889 38.286 20.7492 38.3661 21.0636C38.4479 21.378 38.5793 21.6279 38.762 21.8165C38.9448 22.0052 39.1884 22.1458 39.4914 22.2402C39.7382 22.3163 40.0331 22.3825 40.3729 22.4388C40.4723 22.4553 40.5124 22.5811 40.4418 22.6539ZM49.5733 24.6811C49.211 24.7076 48.8328 24.7225 48.4401 24.7225C47.0632 24.7225 45.8723 24.5073 44.8705 24.0787C43.8671 23.6501 43.0416 23.0594 42.3941 22.3064C41.7449 21.5535 41.264 20.6598 40.9499 19.6239C40.6357 18.588 40.4786 17.4544 40.4786 16.2199C40.4786 14.7769 40.6806 13.5175 41.0877 12.4386C41.4933 11.3613 42.0286 10.4677 42.697 9.75609C43.3654 9.04616 44.1348 8.51165 45.0067 8.15586C45.8787 7.80007 46.7699 7.623 47.6803 7.623C49.8073 7.623 51.4374 8.3081 52.5722 9.67831C53.7071 11.0485 54.2745 13.1353 54.2745 15.9369V16.4234C54.2745 16.622 54.2633 16.8057 54.244 16.9729H43.4263C43.5481 18.6674 44.0242 19.9532 44.8545 20.8319C44.8545 20.8319 47.1001 23.4085 51.4518 22.4107C51.5721 22.3825 51.6538 22.5331 51.5672 22.6241L49.5749 24.6811H49.5733ZM51.3268 14.6197C51.3461 13.3024 51.0271 12.2201 50.3699 11.3729C49.7111 10.5256 48.8055 10.102 47.6499 10.102C47.0023 10.102 46.4301 10.2327 45.9332 10.4941C45.4363 10.7556 45.0163 11.0965 44.6717 11.5135C44.3271 11.9322 44.0594 12.4138 43.8671 12.9566C43.6747 13.501 43.5481 14.0554 43.4872 14.6197L51.3268 14.6197ZM61.5263 10.1649C62.0985 10.1649 62.597 10.193 63.0234 10.2509V10.2542L64.9644 8.2502C65.0318 8.17904 64.9997 8.05989 64.9067 8.03673C64.8073 8.0119 64.6887 7.98377 64.5509 7.95564C64.2976 7.90269 64.0187 7.85139 63.7142 7.79843C63.4096 7.74548 63.1003 7.7041 62.7877 7.67266C62.472 7.63956 62.1947 7.62467 61.951 7.62467C60.7152 7.62467 59.6012 7.73389 58.6091 7.95398C57.6153 8.17242 56.785 8.40741 56.1166 8.65895V24.5851C56.1166 24.6977 56.2497 24.7655 56.3266 24.6861L58.9425 21.9738V10.5719C59.1044 10.5306 59.4442 10.4528 59.9603 10.337C60.4764 10.2228 60.9989 10.1649 61.5263 10.1649Z" fill="white"/>
</svg>