<svg width="84" height="32" viewBox="0 0 84 32" fill="none" xmlns="http://www.w3.org/2000/svg">
<path fill-rule="evenodd" clip-rule="evenodd" d="M39.2844 3.49535L42.626 0.0474892C42.7243 -0.0539808 42.8942 0.0178938 42.8942 0.161643V30.4991C42.067 30.74 41.0064 30.981 39.7103 31.2199C38.4162 31.4609 36.9276 31.5814 35.2466 31.5814C33.6945 31.5814 32.2961 31.3277 31.0552 30.8204C29.8124 30.313 28.7517 29.5922 27.8713 28.6557C26.9908 27.7213 26.3131 26.5777 25.8319 25.229C25.3528 23.8803 25.1132 22.3645 25.1132 20.6797C25.1132 18.9949 25.3426 17.568 25.7439 16.232C26.1452 14.8959 26.7328 13.7459 27.5109 12.7862C28.2869 11.8243 29.237 11.076 30.3632 10.5412C31.4873 10.0063 32.7752 9.73999 34.2249 9.73999C35.3879 9.73999 36.4178 9.90065 37.3105 10.222C38.2012 10.5433 38.8687 10.8498 39.309 11.1437L39.2803 3.49747L39.2844 3.49535ZM39.313 14.6275C38.8708 14.2533 38.2381 13.8918 37.4109 13.5451C36.5816 13.1984 35.6766 13.0251 34.6938 13.0251C33.6597 13.0251 32.7731 13.2196 32.036 13.6064C31.2989 13.9933 30.6969 14.5281 30.2301 15.2088C29.7653 15.8916 29.4274 16.6991 29.2206 17.6335C29.0118 18.57 28.8807 19.6101 28.8807 20.6797C28.8807 23.1108 29.4622 24.988 30.6273 26.3113C31.7903 27.6346 33.3444 28.2942 35.2835 28.2942C36.2663 28.2942 37.0894 28.2477 37.7487 28.1547C38.408 28.0617 38.9199 27.9623 39.2823 27.8545L39.311 14.6296L39.313 14.6275ZM21.0018 31.5814C20.5616 30.3786 20.148 29.1969 19.759 28.0342C19.3699 26.8715 18.9706 25.6898 18.555 24.487H6.36586L3.92108 31.5793H0C1.03402 28.6409 2.00456 25.9224 2.91163 23.4237C3.81665 20.925 4.70324 18.5552 5.56936 16.3102C6.43753 14.0652 7.2975 11.9216 8.15134 9.87744C8.47054 9.11322 8.79519 8.28458 9.12538 7.44179C9.67839 6.03024 10.247 4.579 10.8316 3.32417L14.2858 3.32417C14.8673 4.57499 15.4336 6.02099 15.9848 7.42829L15.9849 7.42845C16.3168 8.27584 16.6431 9.10919 16.964 9.87744C17.8179 11.9216 18.6799 14.0652 19.546 16.3102C20.4142 18.5552 21.2987 20.925 22.2058 23.4237C23.1108 25.9224 24.0813 28.6409 25.1174 31.5793H21.0018V31.5814ZM17.4698 21.2822C16.6405 18.959 15.8194 16.7076 15.0045 14.5303C14.7481 13.8453 14.4885 13.1211 14.2257 12.388L14.2257 12.388L14.2257 12.3879L14.2256 12.3879C13.653 10.7906 13.0649 9.15039 12.4614 7.77828C11.8092 9.21941 11.1812 10.9546 10.5769 12.6246C10.3408 13.2769 10.1084 13.9193 9.87948 14.5303C9.06455 16.7076 8.25576 18.959 7.45312 21.2822H17.4677H17.4698ZM49.1029 31.581L49.1046 31.5814H49.1026L49.1029 31.581ZM51.662 28.939L49.1029 31.581C48.037 31.34 47.2185 30.9321 46.6455 30.3553C45.7139 29.4209 45.2491 27.9644 45.2491 25.9879V3.49535L48.5886 0.0474892C48.6869 -0.0539808 48.8569 0.0178938 48.8569 0.161643V25.0472C48.8569 25.6623 48.908 26.5058 49.0104 26.9074C49.1148 27.3091 49.2827 27.6283 49.5162 27.8693C49.7496 28.1103 50.0608 28.29 50.4478 28.4105C50.7631 28.5077 51.1399 28.5923 51.574 28.6641C51.7009 28.6853 51.7521 28.8459 51.662 28.939ZM63.3268 31.5286C62.864 31.5624 62.3808 31.5815 61.8791 31.5815C60.1203 31.5815 58.5989 31.3066 57.3192 30.7591C56.0374 30.2116 54.9829 29.4569 54.1557 28.4951C53.3265 27.5332 52.7122 26.3917 52.3109 25.0683C51.9096 23.745 51.7089 22.2969 51.7089 20.7199C51.7089 18.8766 51.9669 17.2678 52.487 15.8895C53.005 14.5134 53.6889 13.3718 54.5427 12.4628C55.3966 11.5559 56.3794 10.8731 57.4933 10.4186C58.6071 9.96412 59.7456 9.73793 60.9086 9.73793C63.6257 9.73793 65.7081 10.6131 67.1577 12.3635C68.6074 14.1138 69.3322 16.7795 69.3322 20.3584V20.98C69.3322 21.2336 69.3179 21.4683 69.2933 21.6818H55.4744C55.63 23.8465 56.2381 25.489 57.2987 26.6115C57.2987 26.6115 60.1674 29.903 65.7265 28.6283C65.8801 28.5923 65.9845 28.7847 65.8739 28.901L63.3288 31.5286H63.3268ZM65.5668 18.6757C65.5914 16.993 65.1839 15.6105 64.3444 14.5282C63.5028 13.4458 62.346 12.9046 60.8697 12.9046C60.0425 12.9046 59.3115 13.0716 58.6768 13.4056C58.042 13.7396 57.5055 14.1751 57.0653 14.7078C56.6251 15.2427 56.2831 15.8578 56.0374 16.5512C55.7917 17.2467 55.63 17.9549 55.5522 18.6757H65.5668ZM78.5957 12.985C79.3267 12.985 79.9634 13.0209 80.5081 13.0949V13.0991L82.9877 10.5391C83.0737 10.4482 83.0327 10.296 82.914 10.2664C82.787 10.2347 82.6355 10.1988 82.4594 10.1628C82.1359 10.0952 81.7796 10.0297 81.3906 9.96202C81.0016 9.89437 80.6064 9.84152 80.2071 9.80135C79.8037 9.75908 79.4495 9.74005 79.1383 9.74005C77.5596 9.74005 76.1366 9.87957 74.8691 10.1607C73.5996 10.4398 72.539 10.74 71.6852 11.0613V31.406C71.6852 31.5498 71.8551 31.6364 71.9534 31.535L75.295 28.0702V13.505C75.5018 13.4522 75.9359 13.3528 76.5952 13.2048C77.2545 13.059 77.922 12.985 78.5957 12.985Z" fill="#FC2D7C"/>
</svg>
