<svg width="16" height="11" viewBox="0 0 16 11" fill="none" xmlns="http://www.w3.org/2000/svg">
<path id="Vector" d="M0.87146 5.5C0.87146 5.5 3.59873 0.5 8.14419 0.5C12.6896 0.5 15.4169 5.5 15.4169 5.5C15.4169 5.5 12.6896 10.5 8.14419 10.5C3.59873 10.5 0.87146 5.5 0.87146 5.5ZM8.14419 8.68182C8.98806 8.68182 9.79737 8.34659 10.3941 7.74989C10.9908 7.15318 11.326 6.34387 11.326 5.5C11.326 4.65613 10.9908 3.84682 10.3941 3.25012C9.79737 2.65341 8.98806 2.31818 8.14419 2.31818C7.30032 2.31818 6.49101 2.65341 5.8943 3.25012C5.2976 3.84682 4.96237 4.65613 4.96237 5.5C4.96237 6.34387 5.2976 7.15318 5.8943 7.74989C6.49101 8.34659 7.30032 8.68182 8.14419 8.68182Z" fill="#CCCCCC"/>
</svg>
