<svg width="21" height="20" viewBox="0 0 21 20" fill="none" xmlns="http://www.w3.org/2000/svg">
<g id="edit">
<path id="Vector" d="M9.4668 3.33325H3.63346C3.19144 3.33325 2.76751 3.50885 2.45495 3.82141C2.14239 4.13397 1.9668 4.55789 1.9668 4.99992V16.6666C1.9668 17.1086 2.14239 17.5325 2.45495 17.8451C2.76751 18.1577 3.19144 18.3333 3.63346 18.3333H15.3001C15.7422 18.3333 16.1661 18.1577 16.4786 17.8451C16.7912 17.5325 16.9668 17.1086 16.9668 16.6666V10.8333" stroke="#CCCCCC" stroke-width="1.5" stroke-linecap="round" stroke-linejoin="round"/>
<path id="Vector_2" d="M15.7168 2.08344C16.0483 1.75192 16.498 1.56567 16.9668 1.56567C17.4356 1.56567 17.8853 1.75192 18.2168 2.08344C18.5483 2.41496 18.7346 2.8646 18.7346 3.33344C18.7346 3.80228 18.5483 4.25192 18.2168 4.58344L10.3001 12.5001L6.9668 13.3334L7.80013 10.0001L15.7168 2.08344Z" stroke="#CCCCCC" stroke-width="1.5" stroke-linecap="round" stroke-linejoin="round"/>
</g>
</svg>
