<svg width="15" height="15" viewBox="0 0 15 15" fill="none" xmlns="http://www.w3.org/2000/svg">
<g id="Vector" filter="url(#filter0_d_861_2760)">
<path d="M3.65719 3.46429C3.65719 2.94332 3.86414 2.4437 4.23252 2.07533C4.60089 1.70695 5.10052 1.5 5.62148 1.5C6.14244 1.5 6.64206 1.70695 7.01044 2.07533C7.37881 2.4437 7.58576 2.94332 7.58576 3.46429C7.58576 2.94332 7.79271 2.4437 8.16109 2.07533C8.52946 1.70695 9.02909 1.5 9.55005 1.5C10.071 1.5 10.5706 1.70695 10.939 2.07533C11.3074 2.4437 11.5143 2.94332 11.5143 3.46429V3.469C11.5143 3.524 11.5143 3.68114 11.4845 3.85714H13.0858C13.2941 3.85714 13.494 3.93992 13.6413 4.08727C13.7887 4.23462 13.8715 4.43447 13.8715 4.64286V5.42857C13.8715 5.63696 13.7887 5.8368 13.6413 5.98415C13.494 6.13151 13.2941 6.21429 13.0858 6.21429H2.08576C1.87738 6.21429 1.67753 6.13151 1.53018 5.98415C1.38283 5.8368 1.30005 5.63696 1.30005 5.42857V4.64286C1.30005 4.43447 1.38283 4.23462 1.53018 4.08727C1.67753 3.93992 1.87738 3.85714 2.08576 3.85714H3.68705C3.66641 3.72881 3.65642 3.59898 3.65719 3.469V3.46429ZM4.49633 3.85714H6.80005V3.46429C6.80005 3.30951 6.76956 3.15626 6.71034 3.01327C6.65111 2.87028 6.56429 2.74035 6.45485 2.63091C6.34541 2.52147 6.21549 2.43466 6.0725 2.37543C5.92951 2.3162 5.77625 2.28571 5.62148 2.28571C5.46671 2.28571 5.31345 2.3162 5.17046 2.37543C5.02747 2.43466 4.89754 2.52147 4.7881 2.63091C4.67866 2.74035 4.59185 2.87028 4.53262 3.01327C4.47339 3.15626 4.44291 3.30951 4.44291 3.46429C4.44291 3.53107 4.44448 3.67957 4.47826 3.80214L4.49633 3.85714ZM8.37148 3.85714H10.6752L10.6933 3.80214C10.727 3.67957 10.7286 3.53107 10.7286 3.46429C10.7286 3.15171 10.6045 2.85193 10.3834 2.63091C10.1624 2.40988 9.86263 2.28571 9.55005 2.28571C9.23747 2.28571 8.9377 2.40988 8.71667 2.63091C8.49565 2.85193 8.37148 3.15171 8.37148 3.46429V3.85714ZM13.0858 7V12.3214C13.0858 12.634 12.9616 12.9338 12.7406 13.1548C12.5195 13.3758 12.2198 13.5 11.9072 13.5H8.37148V7H13.0858ZM3.26433 13.5C2.95176 13.5 2.65198 13.3758 2.43096 13.1548C2.20993 12.9338 2.08576 12.634 2.08576 12.3214V7H6.80005V13.5H3.26433Z" fill="#CCCCCC"/>
</g>
<defs>
<filter id="filter0_d_861_2760" x="0.300049" y="0.5" width="14.5714" height="14" filterUnits="userSpaceOnUse" color-interpolation-filters="sRGB">
<feFlood flood-opacity="0" result="BackgroundImageFix"/>
<feColorMatrix in="SourceAlpha" type="matrix" values="0 0 0 0 0 0 0 0 0 0 0 0 0 0 0 0 0 0 127 0" result="hardAlpha"/>
<feOffset/>
<feGaussianBlur stdDeviation="0.5"/>
<feComposite in2="hardAlpha" operator="out"/>
<feColorMatrix type="matrix" values="0 0 0 0 0 0 0 0 0 0 0 0 0 0 0 0 0 0 0.45 0"/>
<feBlend mode="normal" in2="BackgroundImageFix" result="effect1_dropShadow_861_2760"/>
<feBlend mode="normal" in="SourceGraphic" in2="effect1_dropShadow_861_2760" result="shape"/>
</filter>
</defs>
</svg>
