<svg width="46" height="46" viewBox="0 0 46 46" fill="none" xmlns="http://www.w3.org/2000/svg">
<g id="edit">
<path id="Vector" d="M22.2974 15.5162L22.7125 16.1344L23.1276 15.5162C24.1364 14.0139 25.7081 12.456 26.998 11.6986C28.3031 10.9323 29.4591 10.5625 30.9316 10.5625C32.9106 10.5625 34.3768 11.1937 35.7299 12.476C37.0719 13.7478 37.7375 15.3004 37.7375 17.1654C37.7375 18.1677 37.536 19.1755 37.1268 20.1919C36.7209 21.2 35.9951 22.3614 34.927 23.6787C33.8602 24.9945 32.3974 26.5352 30.5326 28.3025C28.6667 30.0708 26.279 32.2073 23.3678 34.7129L23.3676 34.7131L22.7125 35.2775L22.0591 34.7146C22.0588 34.7143 22.0585 34.7141 22.0582 34.7138C19.1765 32.208 16.7953 30.0707 14.9133 28.3012C13.0338 26.534 11.5642 24.9937 10.498 23.6787C9.42994 22.3614 8.70408 21.2 8.29819 20.1919C7.88896 19.1755 7.6875 18.1677 7.6875 17.1654C7.6875 15.3004 8.35309 13.7478 9.69512 12.476C11.0385 11.2028 12.6898 10.5625 14.6823 10.5625C16.169 10.5625 17.5539 10.9401 18.8458 11.6986C20.1019 12.4362 21.2497 13.956 22.2974 15.5162Z" stroke="white"/>
</g>
</svg>
