<svg width="46" height="46" viewBox="0 0 46 46" fill="none" xmlns="http://www.w3.org/2000/svg">
<g id="edit">
<path id="Vector" d="M21.1683 21.3306C19.619 21.3306 18.2927 20.7791 17.1895 19.6759C16.086 18.5724 15.5343 17.2459 15.5343 15.6966C15.5343 14.1472 16.086 12.8208 17.1895 11.7172C18.2927 10.6141 19.619 10.0625 21.1683 10.0625C22.7177 10.0625 24.044 10.6141 25.1472 11.7172C26.2507 12.8208 26.8024 14.1472 26.8024 15.6966C26.8024 17.2459 26.2507 18.5724 25.1472 19.6759C24.044 20.7791 22.7177 21.3306 21.1683 21.3306ZM7.1875 35.9375V33.2248C7.1875 32.4597 7.42225 31.738 7.89176 31.0599C8.36127 30.3817 8.99597 29.8513 9.79587 29.4688C11.7087 28.5645 13.6128 27.8863 15.5082 27.4342C17.4036 26.9821 19.2903 26.756 21.1683 26.756C23.0464 26.756 24.9331 26.9821 26.8285 27.4342C28.7239 27.8863 30.628 28.5645 32.5408 29.4688C33.3407 29.8513 33.9754 30.3817 34.4449 31.0599C34.9144 31.738 35.1492 32.4597 35.1492 33.2248V35.9375H7.1875ZM8.64819 34.4768H33.6885V33.2248C33.6885 32.7379 33.5233 32.2771 33.1929 31.8424C32.8625 31.4076 32.4017 31.0338 31.8105 30.7208C30.1411 29.9209 28.4076 29.3036 26.6099 28.8688C24.8126 28.4341 22.9987 28.2167 21.1683 28.2167C19.338 28.2167 17.5241 28.4341 15.7268 28.8688C13.9291 29.3036 12.1956 29.9209 10.5262 30.7208C9.93498 31.0338 9.47417 31.4076 9.14378 31.8424C8.81338 32.2771 8.64819 32.7379 8.64819 33.2248V34.4768ZM21.1683 19.87C22.316 19.87 23.2985 19.4613 24.1158 18.644C24.9331 17.8267 25.3417 16.8443 25.3417 15.6966C25.3417 14.5489 24.9331 13.5664 24.1158 12.7491C23.2985 11.9318 22.316 11.5232 21.1683 11.5232C20.0207 11.5232 19.0382 11.9318 18.2209 12.7491C17.4036 13.5664 16.995 14.5489 16.995 15.6966C16.995 16.8443 17.4036 17.8267 18.2209 18.644C19.0382 19.4613 20.0207 19.87 21.1683 19.87Z" fill="white"/>
<path id="Vector_2" d="M35.5849 17.2787L36 17.8969L36.4151 17.2787C36.7852 16.7276 37.361 16.1614 37.8116 15.8969C38.2773 15.6234 38.671 15.5 39.1765 15.5C39.8599 15.5 40.3518 15.7118 40.8199 16.1554C41.2769 16.5886 41.5 17.1079 41.5 17.7451C41.5 18.0902 41.4308 18.4409 41.2862 18.8002C41.1449 19.1511 40.8843 19.5733 40.4823 20.0691C40.0815 20.5635 39.5265 21.1488 38.8112 21.8266C38.0949 22.5055 37.1761 23.3277 36.0531 24.2942L36.053 24.2944L36 24.34L35.9488 24.2959C35.9485 24.2957 35.9483 24.2955 35.948 24.2952C34.8363 23.3285 33.9193 22.5054 33.196 21.8253C32.4752 21.1476 31.9179 20.5627 31.5177 20.0691C31.1157 19.5733 30.8551 19.1511 30.7138 18.8002C30.5692 18.4409 30.5 18.0902 30.5 17.7451C30.5 17.1079 30.7231 16.5886 31.1801 16.1554C31.6385 15.721 32.1996 15.5 32.8966 15.5C33.4161 15.5 33.8978 15.6312 34.3503 15.8969C34.7671 16.1416 35.1759 16.6696 35.5849 17.2787Z" stroke="white"/>
</g>
</svg>
