<svg width="74" height="20" viewBox="0 0 74 20" fill="none" xmlns="http://www.w3.org/2000/svg">
<path fill-rule="evenodd" clip-rule="evenodd" d="M1.68393 11.7697L11.5046 1.69856C11.1913 1.4268 10.8493 1.17914 10.4813 0.960932C7.14115 -1.01634 2.86779 0.155028 0.942555 3.58213C-0.576748 6.28632 -0.204754 9.5434 1.66566 11.7871L1.68393 11.7697ZM16.4476 0.282196L17.3456 1.20323H17.3443L13.6452 4.99713C13.5082 4.55134 13.3281 4.12028 13.1075 3.70796L16.4476 0.282196ZM21.0692 4.70059L20.1712 3.77954L7.03307 17.2545L7.93109 18.1756L21.0692 4.70059ZM20.8351 8.58765L19.9371 7.6666L8.81004 19.0789L9.70806 20L20.8351 8.58765ZM3.46558 13.597L4.36358 14.5181L4.87654 13.9919C4.44842 13.8527 4.02814 13.668 3.6209 13.4377L3.46558 13.597ZM13.704 1.28352L12.3948 2.62625V2.62491C12.1298 2.29291 11.8323 1.98099 11.5046 1.69718L12.806 0.362488L13.704 1.28352ZM6.32667 14.2945L5.23688 15.4123L6.15707 16.3561L8.25189 14.2075C10.1941 13.8407 11.9718 12.6358 13.0369 10.7442C13.4481 10.0133 13.7196 9.24087 13.8592 8.45505L8.25189 14.2061V14.2063C7.62099 14.3252 6.97449 14.3559 6.32797 14.2932L13.9428 6.48316C13.8958 5.97847 13.7953 5.47913 13.6465 4.99719L4.87787 13.9906C5.35428 14.1459 5.83982 14.2463 6.32667 14.2945ZM13.8622 8.45471L13.8606 8.45635H13.8619L13.8622 8.45471ZM19.7172 2.44956L13.8622 8.45471C13.9794 7.79794 14.0054 7.1345 13.9441 6.48309L18.797 1.50577L19.7172 2.44956ZM3.49819 13.3668C3.18101 13.1767 2.85992 12.9424 2.57538 12.7028L2.5819 12.6907L12.3947 2.62628C12.6662 2.96631 12.9038 3.32777 13.1074 3.70796L3.62218 13.4377C3.58042 13.4149 3.53865 13.3909 3.49819 13.3668Z" fill="#FC2D7C"/>
<path fill-rule="evenodd" clip-rule="evenodd" d="M46.1116 2.21351L48.2417 0.0300736C48.3044 -0.0341845 48.4127 0.0113316 48.4127 0.102364V19.3142C47.8854 19.4668 47.2093 19.6194 46.3831 19.7707C45.5582 19.9233 44.6093 19.9996 43.5376 19.9996C42.5483 19.9996 41.6568 19.839 40.8658 19.5177C40.0735 19.1964 39.3974 18.7399 38.8362 18.1468C38.2749 17.5551 37.8429 16.8309 37.5361 15.9768C37.2307 15.1227 37.078 14.1628 37.078 13.0959C37.078 12.0289 37.2242 11.1253 37.48 10.2792C37.7358 9.43317 38.1104 8.70492 38.6064 8.09714C39.1011 7.48803 39.7068 7.01412 40.4246 6.67543C41.1412 6.33674 41.9622 6.16806 42.8863 6.16806C43.6277 6.16806 44.2842 6.2698 44.8533 6.47328C45.4211 6.67677 45.8466 6.87088 46.1273 7.05696L46.109 2.21485L46.1116 2.21351ZM46.1299 9.26316C45.8479 9.0262 45.4446 8.79729 44.9173 8.57774C44.3887 8.35819 43.8118 8.24841 43.1852 8.24841C42.5261 8.24841 41.9609 8.37158 41.491 8.61656C41.0211 8.86154 40.6374 9.20024 40.3398 9.6313C40.0435 10.0637 39.8281 10.5751 39.6963 11.1668C39.5632 11.7599 39.4796 12.4185 39.4796 13.0959C39.4796 14.6354 39.8503 15.8242 40.593 16.6622C41.3344 17.5002 42.3251 17.9179 43.5611 17.9179C44.1877 17.9179 44.7124 17.8885 45.1327 17.8296C45.5529 17.7707 45.8793 17.7077 46.1103 17.6395L46.1286 9.26449L46.1299 9.26316ZM34.4571 19.9996C34.1765 19.2379 33.9128 18.4896 33.6648 17.7533C33.4168 17.017 33.1623 16.2687 32.8973 15.5069H25.1272L23.5688 19.9983H21.0692C21.7284 18.1375 22.347 16.4159 22.9253 14.8336C23.5022 13.2512 24.0674 11.7505 24.6195 10.3288C25.1729 8.90709 25.7211 7.54964 26.2654 6.2551C26.4689 5.77114 26.6758 5.24639 26.8863 4.71268L26.8863 4.71267C27.2388 3.81878 27.6013 2.89975 27.9739 2.1051H30.1759C30.5465 2.89717 30.9075 3.81282 31.2589 4.70398L31.2589 4.7041L31.2589 4.70411C31.4705 5.24078 31.6786 5.76855 31.8831 6.2551C32.4274 7.54964 32.9769 8.90709 33.5291 10.3288C34.0825 11.7505 34.6463 13.2512 35.2246 14.8336C35.8015 16.4159 36.4202 18.1375 37.0806 19.9983H34.4571V19.9996ZM32.2055 13.4774C31.6769 12.0062 31.1535 10.5805 30.634 9.2016C30.4707 8.76802 30.3053 8.30967 30.1378 7.8456L30.1377 7.8453L30.1376 7.84499L30.1375 7.84491L30.1375 7.84487L30.1375 7.84486C29.7725 6.83335 29.3976 5.79466 29.0129 4.92577C28.5971 5.83839 28.1968 6.93724 27.8116 7.9948L27.8116 7.99484L27.8115 7.99491L27.8115 7.99502C27.6611 8.40803 27.5129 8.81474 27.367 9.2016C26.8475 10.5805 26.332 12.0062 25.8203 13.4774H32.2042H32.2055ZM52.3705 19.9994L52.3715 19.9996H52.3702L52.3705 19.9994ZM54.0018 18.3262L52.3705 19.9994C51.691 19.8467 51.1692 19.5884 50.8039 19.2232C50.21 18.6315 49.9138 17.7091 49.9138 16.4574V2.21351L52.0426 0.0300736C52.1053 -0.0341845 52.2136 0.0113316 52.2136 0.102364V15.8617C52.2136 16.2512 52.2462 16.7854 52.3115 17.0397C52.3781 17.2941 52.4851 17.4962 52.6339 17.6488C52.7827 17.8014 52.9811 17.9152 53.2278 17.9915C53.4288 18.0531 53.6689 18.1067 53.9457 18.1522C54.0266 18.1656 54.0592 18.2673 54.0018 18.3262ZM61.4377 19.9662C61.1428 19.9876 60.8347 19.9996 60.5149 19.9996C59.3937 19.9996 58.4239 19.8256 57.6082 19.4789C56.7911 19.1322 56.1189 18.6542 55.5916 18.0451C55.0629 17.436 54.6714 16.7131 54.4155 15.8751C54.1597 15.037 54.0318 14.12 54.0318 13.1213C54.0318 11.954 54.1963 10.9352 54.5278 10.0624C54.858 9.19089 55.294 8.46799 55.8383 7.89235C56.3825 7.31804 57.0091 6.88564 57.7191 6.59781C58.4292 6.30999 59.1549 6.16675 59.8963 6.16675C61.6283 6.16675 62.9557 6.72097 63.8799 7.82943C64.804 8.93788 65.266 10.626 65.266 12.8924V13.286C65.266 13.4467 65.2569 13.5953 65.2412 13.7305H56.4321C56.5313 15.1013 56.919 16.1415 57.5951 16.8523C57.5951 16.8523 59.4238 18.9367 62.9675 18.1295C63.0654 18.1067 63.132 18.2285 63.0615 18.3022L61.4391 19.9662H61.4377ZM62.8657 11.8268C62.8813 10.7612 62.6216 9.88568 62.0865 9.20027C61.55 8.51485 60.8125 8.17214 59.8715 8.17214C59.3441 8.17214 58.8782 8.27789 58.4735 8.48941C58.0689 8.70093 57.7269 8.9767 57.4463 9.31406C57.1657 9.65275 56.9477 10.0423 56.7911 10.4814C56.6345 10.9218 56.5313 11.3703 56.4817 11.8268H62.8657ZM71.171 8.22301C71.637 8.22301 72.0429 8.24577 72.3901 8.29262V8.2953L73.9707 6.67412C74.0256 6.61656 73.9995 6.52017 73.9238 6.50143C73.8428 6.48135 73.7462 6.45859 73.634 6.43583C73.4278 6.39299 73.2006 6.35149 72.9527 6.30866C72.7047 6.26582 72.4528 6.23235 72.1982 6.20691C71.9411 6.18014 71.7153 6.16809 71.5169 6.16809C70.5105 6.16809 69.6034 6.25645 68.7955 6.43449C67.9862 6.6112 67.3101 6.8013 66.7658 7.00478V19.8885C66.7658 19.9796 66.8741 20.0345 66.9368 19.9702L69.067 17.776V8.55233C69.1988 8.51887 69.4755 8.45595 69.8958 8.36224C70.3161 8.26987 70.7416 8.22301 71.171 8.22301Z" fill="white"/>
</svg>
