<?xml version="1.0" encoding="utf-8"?>
<!-- Generator: Adobe Illustrator 27.5.0, SVG Export Plug-In . SVG Version: 6.00 Build 0)  -->
<svg version="1.1" id="Layer_1" xmlns="http://www.w3.org/2000/svg" xmlns:xlink="http://www.w3.org/1999/xlink" x="0px" y="0px"
	 viewBox="0 0 18.46 8" style="enable-background:new 0 0 18.46 8;" xml:space="preserve">
<style type="text/css">
	.st0{fill:#040102;}
</style>
<g>
	<path class="st0" d="M1.17,0.07l0.55,0L0.63,5.52l3.94,0.01l-0.08,0.5L0,6.03L1.17,0.07z"/>
	<path class="st0" d="M3.39,4.2l0.13-0.72c0.23-1.27,0.92-1.83,1.92-1.83c0.85,0,1.52,0.56,1.3,1.83L6.61,4.19
		C6.4,5.46,5.69,6.03,4.68,6.03C3.84,6.03,3.17,5.46,3.39,4.2z M6.09,4.15L6.2,3.53c0.19-1.05-0.23-1.38-0.85-1.38
		c-0.6,0-1.12,0.33-1.31,1.38L3.93,4.16C3.75,5.2,4.15,5.53,4.76,5.53C5.36,5.53,5.91,5.2,6.09,4.15z"/>
	<path class="st0" d="M7.7,3.43c0.21-1.21,1.01-1.74,1.83-1.74c0.42,0,0.8,0.19,1,0.34l0.37-1.95l0.53,0l-0.77,4.25
		C10.46,5.45,9.71,6.06,8.8,6.06c-0.84,0-1.46-0.6-1.26-1.73L7.7,3.43z M10.13,4.28l0.3-1.74c-0.29-0.22-0.6-0.37-0.95-0.37
		c-0.57,0-1.09,0.33-1.26,1.29L8.07,4.28C7.92,5.16,8.31,5.56,8.88,5.56C9.45,5.56,9.98,5.16,10.13,4.28z"/>
	<path class="st0" d="M11.8,3.34c0.19-1.08,0.94-1.69,1.77-1.69c0.68,0,1.23,0.4,1.23,1.06c0,1.18-1.71,1.31-2.61,1.36l-0.03,0.19
		c-0.14,0.77,0.05,1.27,0.9,1.27c0.38,0,0.77-0.1,1.08-0.2l0.04,0.5c-0.36,0.11-0.68,0.2-1.19,0.2c-0.98,0-1.56-0.63-1.36-1.77
		L11.8,3.34z M14.26,2.76c0-0.4-0.27-0.61-0.75-0.61c-0.56,0-1.03,0.42-1.17,1.16l-0.06,0.33C12.92,3.62,14.26,3.49,14.26,2.76z"/>
	<path class="st0" d="M16.23,2.41l-2.02,0l0-0.43l2.1,0l0.13-0.73c0.14-0.78,0.76-1.17,1.38-1.17c0.2,0,0.37,0.02,0.51,0.07
		l-0.15,0.49c-0.12-0.04-0.29-0.06-0.42-0.06c-0.34,0-0.72,0.2-0.8,0.68l-0.13,0.73l1.1,0l-0.24,0.43l-0.93,0l-0.96,5.45l-0.53,0
		L16.23,2.41z"/>
</g>
</svg>
