<?xml version="1.0" encoding="utf-8"?>
<!-- Generator: Adobe Illustrator 27.5.0, SVG Export Plug-In . SVG Version: 6.00 Build 0)  -->
<svg version="1.1" id="Layer_1" xmlns="http://www.w3.org/2000/svg" xmlns:xlink="http://www.w3.org/1999/xlink" x="0px" y="0px"
	 viewBox="0 0 45.93 8" style="enable-background:new 0 0 45.93 8;" xml:space="preserve">
<style type="text/css">
	.st0{fill:#404041;}
</style>
<g>
	<g>
		<path class="st0" d="M20.31,0.1c0.06,0.82,0.07,1.15,0.07,2.58c0,1.93-0.03,2.52-0.18,3.11c-0.26,0.97-1.13,1.57-2.34,1.57
			c-0.94,0-1.55-0.33-1.97-1.03c-0.28-0.47-0.37-1.01-0.37-2.24c0-1.43,0.07-3.13,0.16-3.99c-0.24,0.03-0.42,0.05-0.61,0.05
			c-0.18,0-0.32-0.01-0.56-0.05c0.03,0.52,0.06,1.34,0.06,2.13c0,0.31,0,0.62-0.01,0.99c-0.02,0.76-0.03,1.5-0.03,1.64
			c0,1.12,0.22,1.73,0.77,2.24c0.56,0.5,1.41,0.77,2.39,0.77c0.83,0,1.55-0.2,2.08-0.58c0.61-0.44,0.93-0.99,1.08-1.85
			c0.07-0.41,0.08-0.62,0.11-1.97c0.02-1.15,0.11-2.97,0.18-3.38c-0.18,0.03-0.27,0.05-0.39,0.05C20.66,0.14,20.61,0.14,20.31,0.1"
			/>
		<path class="st0" d="M44.61,0.14c-0.2,0-0.34-0.01-0.58-0.05c0.06,0.52,0.11,2.02,0.11,2.96c0,0.03,0,0.17-0.01,0.29
			c-0.09,0.01-0.16,0.01-0.18,0.01l-1.02,0.01l-1.15,0.01l-1.13-0.01l-1.03-0.01c0,0-0.07,0-0.18-0.01V3.06
			c0-0.94,0.06-2.45,0.1-2.96c-0.23,0.03-0.36,0.05-0.57,0.05c-0.2,0-0.33-0.01-0.54-0.05c0.08,0.82,0.11,1.75,0.11,3.72
			c0,2.17-0.02,2.96-0.11,3.91c0.25-0.03,0.39-0.05,0.54-0.05c0.15,0,0.28,0.01,0.57,0.05c-0.06-0.62-0.1-2.06-0.1-3.26v-0.6
			c0.32-0.01,0.36-0.01,1.2-0.02h1.15c1.84,0.01,1.86,0.01,2.18,0.01l0.17,0.01c0.02,0.21,0.02,0.36,0.02,0.54
			c0,1.3-0.05,2.67-0.12,3.32c0.3-0.03,0.42-0.05,0.58-0.05c0.16,0,0.3,0.01,0.54,0.05c-0.08-0.95-0.1-1.76-0.1-3.91
			c0-1.94,0.02-2.91,0.1-3.72C44.93,0.13,44.81,0.14,44.61,0.14"/>
		<path class="st0" d="M8.22,1.28C8.18,0.9,8.15,0.54,8.1,0.16L8.09,0.07C7.98,0.08,7.93,0.08,7.84,0.08c-0.08,0-0.15,0-0.26-0.02
			c0,0-1.39,2.79-1.95,3.88C5.27,4.63,4.64,5.86,4.55,6.02C4.26,5.47,3.48,3.86,3.08,3.09C2.69,2.33,1.54,0.07,1.54,0.07
			C1.47,0.07,1.4,0.08,1.33,0.08c-0.07,0-0.14-0.01-0.21-0.01c0,0-0.2,1.42-0.34,2.59C0.47,5.01,0.22,6.67,0,7.79
			c0.21-0.03,0.29-0.05,0.39-0.05c0.09,0,0.16,0.01,0.41,0.05C0.79,7.07,1.16,4.03,1.44,1.93c0,0,0.16,0.34,0.22,0.45
			c1.18,2.34,1.4,2.84,2.66,5.3h0.14c0.74-1.56,1.88-3.91,2.91-5.74l0.05,0.3c0.31,2.43,0.49,4.6,0.5,5.56
			c0.3-0.03,0.41-0.05,0.54-0.05c0.13,0,0.24,0.01,0.55,0.05C8.89,7.15,8.62,5.05,8.38,2.7L8.22,1.28z"/>
	</g>
	<g>
		<path class="st0" d="M25.38,4.01c0,2.42,1.44,3.83,3.68,3.92V7.85c-1.41-0.12-2.3-1.73-2.3-3.86c0-2.11,0.87-3.72,2.3-3.84V0.07
			C26.78,0.2,25.38,1.58,25.38,4.01"/>
		<path class="st0" d="M29.96,0.07v0.09c1.48,0.11,2.3,1.65,2.3,3.91c0,2.05-0.91,3.67-2.3,3.79v0.08c2.22-0.1,3.68-1.53,3.68-3.84
			C33.64,1.49,32.28,0.11,29.96,0.07"/>
	</g>
</g>
</svg>
