<svg width="19" height="18" viewBox="0 0 19 18" fill="none" xmlns="http://www.w3.org/2000/svg">
<g id="icon/24/appleWhite">
<path id="Vector" d="M14.0367 9.46967C14.029 8.1172 14.6258 7.09789 15.8309 6.3463C15.1569 5.35475 14.1371 4.8094 12.7929 4.70429C11.5202 4.60117 10.1277 5.4658 9.61781 5.4658C9.07897 5.4658 7.84678 4.73999 6.87725 4.73999C4.8764 4.77172 2.75 6.37803 2.75 9.64617C2.75 10.6119 2.92189 11.6094 3.26567 12.6367C3.72532 13.9891 5.3824 17.3029 7.11094 17.2494C8.01481 17.2275 8.65408 16.591 9.83026 16.591C10.9717 16.591 11.5627 17.2494 12.5708 17.2494C14.3148 17.2236 15.8135 14.2113 16.25 12.8548C13.9112 11.7225 14.0367 9.53908 14.0367 9.46967ZM12.0069 3.42123C12.9861 2.22741 12.8972 1.14067 12.8682 0.75C12.003 0.80156 11.0026 1.35484 10.4328 2.03505C9.80515 2.76483 9.43627 3.66713 9.51545 4.68446C10.4502 4.75784 11.3039 4.26405 12.0069 3.42123Z" fill="white"/>
</g>
</svg>
