<svg width="18" height="18" viewBox="0 0 18 18" fill="none" xmlns="http://www.w3.org/2000/svg">
<path fill-rule="evenodd" clip-rule="evenodd" d="M4.74828 2.80748C4.4404 2.53038 4.41544 2.05616 4.69254 1.74828C4.96963 1.4404 5.44385 1.41544 5.75173 1.69254L13.2444 8.43598C13.2555 8.4457 13.2663 8.4558 13.2769 8.46628C13.4253 8.61256 13.5005 8.80712 13.5 9.00225C13.4997 9.10925 13.4767 9.21642 13.4304 9.31591C13.3937 9.39518 13.3424 9.46916 13.2769 9.53373C13.2664 9.54418 13.2556 9.55426 13.2445 9.56396L5.75173 16.3075C5.44385 16.5846 4.96963 16.5596 4.69254 16.2517C4.41544 15.9438 4.4404 15.4696 4.74828 15.1925L11.6289 9L4.74828 2.80748Z" fill="#FC2D7C"/>
</svg>
