<svg xmlns="http://www.w3.org/2000/svg" width="56" height="56" viewBox="0 0 56 56" fill="none">
  <path d="M28 0C33.5379 0 38.9514 1.64217 43.556 4.71885C48.1605 7.79553 51.7494 12.1685 53.8686 17.2849C55.9879 22.4012 56.5424 28.0311 55.462 33.4625C54.3816 38.894 51.7149 43.8831 47.799 47.799C43.8831 51.7149 38.894 54.3816 33.4625 55.462C28.0311 56.5424 22.4012 55.9879 17.2849 53.8686C12.1685 51.7494 7.79553 48.1605 4.71885 43.556C1.64217 38.9514 0 33.5379 0 28C0.00846945 20.5765 2.96118 13.4595 8.21036 8.21036C13.4595 2.96118 20.5765 0.00846945 28 0ZM4 28C4 33.672 6.016 39.16 9.692 43.48L43.48 9.692C39.9901 6.7313 35.7256 4.83147 31.1904 4.21703C26.6553 3.60258 22.039 4.2992 17.8871 6.22455C13.7352 8.1499 10.2212 11.2235 7.76034 15.0822C5.2995 18.9409 3.99465 23.4234 4 28ZM52 28C52 22.328 49.984 16.84 46.308 12.52L12.52 46.308C16.0099 49.2687 20.2744 51.1685 24.8096 51.783C29.3447 52.3974 33.961 51.7008 38.1129 49.7755C42.2648 47.8501 45.7788 44.7765 48.2397 40.9178C50.7005 37.0591 52.0053 32.5766 52 28Z" fill="#797D90"/>
</svg>