<svg xmlns="http://www.w3.org/2000/svg" width="36" height="36" viewBox="0 0 36 36" fill="none">
  <path d="M15.5 14.7143C15.5 15.7663 14.6605 16.619 13.625 16.619C12.5895 16.619 11.75 15.7663 11.75 14.7143C11.75 13.6623 12.5895 12.8095 13.625 12.8095C14.6605 12.8095 15.5 13.6623 15.5 14.7143Z" fill="white"/>
  <path d="M10.5 9C9.11929 9 8 10.1371 8 11.5397V24.2381C8 25.6407 9.11929 26.7778 10.5 26.7778H25.5C26.8807 26.7778 28 25.6407 28 24.2381V11.5397C28 10.1371 26.8807 9 25.5 9H10.5ZM25.5 10.2698C26.1904 10.2698 26.75 10.8384 26.75 11.5397V19.7937L22.0295 17.321C21.7889 17.1988 21.4983 17.2467 21.3081 17.4399L16.6704 22.1513L13.3467 19.9003C13.0988 19.7324 12.7687 19.7656 12.5581 19.9796L9.25 22.9683V11.5397C9.25 10.8384 9.80964 10.2698 10.5 10.2698H25.5Z" fill="white"/>
</svg>