<svg viewBox="0 0 14 32" fill="none" xmlns="http://www.w3.org/2000/svg" style="width: 32px; height: 32px;">
<path d="M6.205 24.87C6.185 26.06 6.255 27.25 6.165 28.43C6.005 29.17 5.775 29.87 5.925 30.63C6.485 32.46 5.725 31.88 4.325 31.97C3.625 31.79 4.845 29.68 4.485 29C4.145 26.81 4.475 24.6 4.515 22.4C4.565 20.53 4.295 18.65 4.495 16.78C4.635 14.16 5.325 15.37 3.405 14.29C2.585 13.66 2.215 12.61 1.565 11.82C1.085 11.15 0.725 10.48 0.715 9.61997C1.805 8.27997 2.805 6.76997 4.075 5.58997C4.795 4.97997 6.155 5.42997 6.525 4.38997C6.485 4.03997 6.465 3.58997 6.265 3.32997C5.885 3.23997 5.835 2.57997 5.905 2.25997C5.555 1.05997 6.005 0.309971 7.215 -0.0300293C7.955 -0.0200293 9.035 0.479971 9.015 1.31997C8.945 1.91997 8.975 2.50997 8.805 3.09997C8.515 3.41997 8.305 3.82997 8.355 4.32997C9.295 5.59997 9.785 5.11997 10.795 5.97997C11.375 6.55997 11.675 7.33997 12.215 7.93997C12.515 8.38997 12.975 8.76997 13.115 9.29997C13.695 10.52 12.645 11.35 12.125 12.38C11.595 13.29 11.175 14.25 10.295 14.87C10.155 14.94 10.165 15.05 10.195 15.17C10.365 16.1 10.385 17.05 10.425 17.99C10.425 19.37 10.235 20.74 10.215 22.12C10.235 23.81 10.415 25.5 10.405 27.2C10.485 28.06 10.005 28.95 10.315 29.78C10.535 30.39 11.405 31.11 11.165 31.72C10.575 31.66 9.685 32.03 9.245 31.64C8.845 31.28 8.625 30.83 8.795 30.28C8.665 29.88 8.915 29.48 8.795 29.09C8.325 28.08 8.605 26.9 8.525 25.81C8.525 22.97 8.105 20.13 7.495 17.35C7.015 17.51 6.865 19.87 6.725 20.52C6.605 21.96 6.225 23.44 6.205 24.84V24.87ZM5.095 11.69C5.005 10.45 4.675 9.25997 4.405 8.05997C4.375 7.90997 4.225 8.14997 4.175 8.18997C3.675 8.89997 2.865 9.43997 2.335 10.04C2.685 10.52 2.785 10.41 2.505 10.89C2.945 11.65 3.125 12.54 3.515 13.33C3.845 13.61 4.485 13.15 4.915 13.14C5.115 12.74 5.065 12.16 5.095 11.69V11.69ZM9.855 11.84C9.775 12.63 9.955 13.18 10.825 12.93C11.095 12.09 11.675 11.24 11.635 10.4C11.695 10.18 12.135 9.94997 12.055 9.76997C11.385 9.37997 10.845 8.81997 10.345 8.25997C10.075 9.40997 9.865 10.66 9.855 11.84V11.84Z" fill="#F3F0EF">
</path>
</svg>