<svg xmlns="http://www.w3.org/2000/svg" width="49" height="49" viewBox="0 0 49 49" fill="none">
  <path d="M13.9559 47.3967C14.5184 45.5405 14.5934 42.953 14.1621 41.2467C13.5996 39.0905 13.1121 38.3217 10.7871 35.978C7.33714 32.4905 6.86839 31.0655 7.67464 26.3405C7.88089 25.0467 8.19964 23.1155 8.34964 22.028C9.04339 17.3592 9.90589 14.378 11.4996 11.2467C12.2684 9.72798 12.7371 9.07173 13.9559 7.85298C15.6434 6.14673 16.7496 5.50923 18.9059 4.92798C20.1621 4.60923 20.9309 4.55298 24.7559 4.55298C28.5809 4.55298 29.3496 4.60923 30.6059 4.92798C32.7621 5.50923 33.8684 6.14673 35.5559 7.85298C38.4621 10.778 40.1121 15.053 41.2559 22.5905C41.4621 23.978 41.7621 25.8905 41.9121 26.8092C42.2871 29.0405 42.2684 30.203 41.8559 31.553C41.4059 32.9967 40.6371 34.0842 38.5371 36.278C35.2184 39.7655 33.5871 41.903 33.0809 43.4592C32.6496 44.8092 32.5371 44.8842 31.8809 44.2467C30.4746 42.8967 29.8746 40.8905 30.0996 38.228C30.2121 36.728 30.2309 36.7092 30.9809 36.128C32.8184 34.7217 34.3559 31.8905 34.6934 29.303C34.8996 27.7655 34.8809 27.578 34.4496 26.0217C34.1871 25.1217 33.7559 23.528 33.4934 22.4967C32.6496 19.178 31.5059 16.9467 29.5934 14.8842C28.8809 14.0967 28.5809 13.9467 26.9121 13.4217C24.9059 12.7842 24.2121 12.7092 24.1184 13.0842C23.3496 15.5592 22.8059 16.9655 21.6621 19.328C20.1621 22.4217 19.1309 23.828 16.3746 26.6405L14.6871 28.3467L14.8559 29.6405C15.1559 31.8905 16.8059 34.8155 18.5309 36.128C19.2621 36.6905 19.2809 36.7467 19.4121 38.1342C19.6934 41.4342 18.5496 44.0217 15.5871 46.6467C14.3871 47.7342 13.7684 47.9967 13.9559 47.3967Z" fill="#FC4F91"/>
</svg>