<svg xmlns="http://www.w3.org/2000/svg" width="49" height="49" viewBox="0 0 49 49" fill="none">
  <path d="M22.5996 39.2218C18.6809 37.1405 14.9496 34.6655 13.5809 33.2405C11.3871 30.953 10.4121 29.0405 10.1309 26.453C9.84963 23.9968 9.86838 12.3155 10.1684 11.4343L10.4121 10.6843L11.6684 10.628C12.6246 10.5905 13.6746 10.7405 15.7934 11.2468C18.8871 11.9593 20.8371 12.7655 23.0871 14.2468C23.7621 14.7155 24.4746 15.0905 24.6621 15.0905C24.8496 15.0905 25.5621 14.7155 26.2371 14.2468C28.4871 12.7655 30.4371 11.9593 33.5121 11.2468C35.7059 10.7405 36.6996 10.5905 37.7309 10.628C39.0434 10.6843 39.0809 10.703 39.2309 11.2468C39.4371 11.9968 39.4184 24.3905 39.1934 26.303C38.8371 29.528 36.7934 32.7155 33.7559 34.8155C31.1121 36.653 25.0184 40.2343 24.5684 40.2155C24.5121 40.2155 23.6309 39.7655 22.5996 39.2218ZM21.3621 27.0905C22.2246 26.6405 21.9059 24.803 20.6496 23.0218C19.8434 21.8593 18.7559 21.0718 17.5371 20.7343C16.5996 20.4718 14.0684 20.4718 13.4309 20.7155C12.9996 20.8655 12.9434 20.9968 12.9434 21.7843C12.9621 22.9843 13.5246 24.1655 14.5934 25.2718C16.0184 26.753 17.2746 27.2405 19.5621 27.2593C20.3684 27.278 21.1746 27.203 21.3621 27.0905ZM32.9121 26.7343C34.8996 25.853 36.5684 23.603 36.5684 21.803C36.5684 20.9593 36.5496 20.9218 35.8934 20.7155C35.4809 20.5655 34.5059 20.5093 33.3996 20.5655C31.8246 20.6218 31.4684 20.6968 30.6996 21.1468C29.7434 21.7093 28.4684 23.1718 28.0184 24.2593C27.5684 25.2718 27.5871 26.6968 28.0559 27.0343C28.6184 27.4655 31.7121 27.278 32.9121 26.7343Z" fill="#454558"/>
</svg>