<svg viewBox="0 0 18 32" fill="none" xmlns="http://www.w3.org/2000/svg" style="width: 32px; height: 32px;">
<path d="M7.88864 24.87C7.86068 26.06 7.95853 27.25 7.83272 28.43C7.60905 29.17 7.28752 29.87 7.49721 30.63C8.28006 32.46 7.21763 31.88 5.26052 31.97C4.28197 31.79 5.98745 29.68 5.48419 29C5.00889 26.81 5.47021 24.6 5.52613 22.4C5.59602 20.53 5.21858 18.65 5.49817 16.78C5.69388 14.16 6.65845 15.37 3.97442 14.29C2.82811 13.66 2.31088 12.61 1.40222 11.82C0.73121 11.15 0.227953 10.48 0.213974 9.61997C1.73772 8.27997 3.13566 6.76997 4.91104 5.58997C5.91755 4.97997 7.81874 5.42997 8.33598 4.38997C8.49998 3.99997 8.61556 3.63884 8.33598 3.37884C7.80476 3.28884 7.73486 2.62884 7.83272 2.30884C7.49998 0.999969 7.60905 0.309971 9.30055 -0.0300293C10.335 -0.0200293 11.5 -3.05176e-05 11.5 1.49997C11.4021 2.09997 11.4441 2.68997 11.2064 3.27997C10.801 3.59997 10.8243 3.82997 10.8942 4.32997C12.2083 5.59997 12.8932 5.11997 14.3052 5.97997C15.116 6.55997 15.5353 7.33997 16.2902 7.93997C16.7096 8.38997 17.3527 8.76997 17.5484 9.29997C18.3592 10.52 16.8913 11.35 16.1644 12.38C15.4235 13.29 14.8364 14.25 13.6062 14.87C13.4105 14.94 13.4245 15.05 13.4664 15.17C13.704 16.1 13.732 17.05 13.7879 17.99C13.7879 19.37 13.5223 20.74 13.4944 22.12C13.5223 23.81 13.7739 25.5 13.76 27.2C13.8718 28.06 13.2008 28.95 13.6341 29.78C13.9417 30.39 15.1579 31.11 14.8224 31.72C13.9976 31.66 12.7535 32.03 12.1384 31.64C11.5792 31.28 11.2716 30.83 11.5093 30.28C11.3276 29.88 11.677 29.48 11.5093 29.09C10.8523 28.08 11.2437 26.9 11.1318 25.81C11.1318 22.97 10.5447 20.13 9.69197 17.35C9.02096 17.51 8.81127 19.87 8.61556 20.52C8.44781 21.96 7.9166 23.44 7.88864 24.84V24.87ZM6.33693 11.69C6.21111 10.45 5.7498 9.25997 5.37235 8.05997C5.33042 7.90997 5.12073 8.14997 5.05083 8.18997C4.35186 8.89997 3.21953 9.43997 2.47863 10.04C2.96791 10.52 3.1077 10.41 2.71628 10.89C3.33137 11.65 3.583 12.54 4.12819 13.33C4.58951 13.61 5.48419 13.15 6.0853 13.14C6.36489 12.74 6.29499 12.16 6.33693 11.69ZM12.9911 11.84C12.8793 12.63 13.1309 13.18 14.3471 12.93C14.7245 12.09 15.5353 11.24 15.4794 10.4C15.5633 10.18 16.1784 9.94997 16.0666 9.76997C15.1299 9.37997 14.3751 8.81997 13.6761 8.25997C13.2986 9.40997 13.0051 10.66 12.9911 11.84Z" fill="#5A5C79">
</path>
</svg>