<svg width="28" height="28" viewBox="0 0 28 28" fill="none" xmlns="http://www.w3.org/2000/svg">
<g id="avatar" clip-path="url(#clip0_3106_193)">
<path id="Vector" d="M13.998 4C16.7891 4 19.1539 4.96855 21.0923 6.90567C23.0308 8.84278 24 11.2069 24 13.998C24 16.7891 23.0314 19.1539 21.0943 21.0923C19.1572 23.0308 16.7931 24 14.002 24C11.2109 24 8.84611 23.0314 6.90767 21.0943C4.96922 19.1572 4 16.7931 4 14.002C4 11.2109 4.96856 8.84611 6.90567 6.90767C8.84278 4.96922 11.2069 4 13.998 4ZM14 22C16.2222 22 18.1111 21.2222 19.6667 19.6667C21.2222 18.1111 22 16.2222 22 14C22 11.7778 21.2222 9.88889 19.6667 8.33333C18.1111 6.77778 16.2222 6 14 6C11.7778 6 9.88889 6.77778 8.33333 8.33333C6.77778 9.88889 6 11.7778 6 14C6 16.2222 6.77778 18.1111 8.33333 19.6667C9.88889 21.2222 11.7778 22 14 22ZM14 18.4103C15.0069 18.4103 15.9154 18.1303 16.7257 17.5703C17.5359 17.0106 18.123 16.2649 18.487 15.3333H9.513C9.877 16.2649 10.4641 17.0106 11.2743 17.5703C12.0846 18.1303 12.9931 18.4103 14 18.4103ZM9.513 11.3357C9.513 11.6777 9.62867 11.9637 9.86 12.1937C10.0913 12.4234 10.3781 12.5383 10.7203 12.5383C11.0623 12.5383 11.3483 12.4227 11.5783 12.1913C11.8081 11.96 11.923 11.6732 11.923 11.331C11.923 10.989 11.8073 10.703 11.576 10.473C11.3447 10.2432 11.0579 10.1283 10.7157 10.1283C10.3737 10.1283 10.0877 10.244 9.85767 10.4753C9.62789 10.7067 9.513 10.9934 9.513 11.3357ZM16.077 11.3357C16.077 11.6777 16.1927 11.9637 16.424 12.1937C16.6553 12.4234 16.9421 12.5383 17.2843 12.5383C17.6263 12.5383 17.9123 12.4227 18.1423 12.1913C18.3721 11.96 18.487 11.6732 18.487 11.331C18.487 10.989 18.3713 10.703 18.14 10.473C17.9087 10.2432 17.6219 10.1283 17.2797 10.1283C16.9377 10.1283 16.6517 10.244 16.4217 10.4753C16.1919 10.7067 16.077 10.9934 16.077 11.3357ZM0 7V2.41033C0 1.74744 0.236 1.18 0.708 0.708C1.18 0.236 1.74744 0 2.41033 0H7V2H2.41033C2.29056 2 2.19222 2.03845 2.11533 2.11533C2.03844 2.19222 2 2.29056 2 2.41033V7H0ZM7 28H2.41033C1.74744 28 1.18 27.764 0.708 27.292C0.236 26.82 0 26.2526 0 25.5897V21H2V25.5897C2 25.7094 2.03844 25.8078 2.11533 25.8847C2.19222 25.9616 2.29056 26 2.41033 26H7V28ZM21 27.8717V25.8717H25.5897C25.7094 25.8717 25.8078 25.8332 25.8847 25.7563C25.9616 25.6794 26 25.5811 26 25.4613V20.8717H28V25.4613C28 26.1242 27.764 26.6917 27.292 27.1637C26.82 27.6357 26.2526 27.8717 25.5897 27.8717H21ZM26 7V2.41033C26 2.29056 25.9616 2.19222 25.8847 2.11533C25.8078 2.03845 25.7094 2 25.5897 2H21V0H25.5897C26.2526 0 26.82 0.236 27.292 0.708C27.764 1.18 28 1.74744 28 2.41033V7H26Z" fill="url(#paint0_linear_3106_193)"/>
</g>
<defs>
<linearGradient id="paint0_linear_3106_193" x1="0" y1="0" x2="28" y2="28" gradientUnits="userSpaceOnUse">
<stop stop-color="#FF5697"/>
<stop offset="1" stop-color="#FC2D7C"/>
</linearGradient>
<clipPath id="clip0_3106_193">
<rect width="28" height="28" fill="white"/>
</clipPath>
</defs>
</svg>
