<svg xmlns="http://www.w3.org/2000/svg" width="49" height="49" viewBox="0 0 49 49" fill="none">
  <g clip-path="url(#clip0_3_2170)">
    <path d="M35.3813 13.2773C35.3813 14.697 35.3747 15.9828 35.3813 17.2627C35.4077 21.0147 35.4013 24.7738 35.1879 28.5194C35.1014 30.0456 34.8946 30.2055 33.3618 30.3655C27.6702 30.9722 21.9786 30.7118 16.2873 30.5054C13.6682 30.4054 13.6947 30.3655 13.6617 27.7199C13.6018 23.4211 13.5153 19.1228 13.4219 14.8238C13.4154 14.4706 13.5483 14.0108 13.102 13.8309C12.7222 13.6774 12.4889 14.0243 12.2225 14.2307C11.1495 15.0573 10.8427 15.0903 10.0296 14.0442C8.69679 12.3182 7.46384 10.5121 6.18412 8.74593C5.85777 8.29267 5.96423 7.92634 6.37752 7.59953C8.5034 5.94683 10.5694 4.20072 12.7822 2.66108C14.2884 1.60811 15.3279 1.20832 16.5878 1.10835C18.0876 0.9819 18.6807 1.47467 18.9936 1.72804C21.3728 3.66052 23.9255 4.80696 27.0044 3.40762C28.0439 2.93437 28.9369 2.24821 29.7236 1.43515C30.1968 0.948422 31.4031 0.775476 32.0963 0.861949C34.3756 1.12833 35.3422 1.83495 37.0214 3.20776C38.8139 4.67397 40.787 5.91335 42.5795 7.38657C43.4126 8.07321 43.6325 8.63297 43.0063 9.47949C41.6735 11.272 40.3271 13.0581 38.5346 14.4445C37.8814 14.9512 37.2817 14.9242 36.6821 14.438C36.2613 14.0972 35.8676 13.7175 35.3813 13.2773Z" fill="#454558"/>
    <path d="M14.9234 31.6778C14.1302 31.6578 13.7839 31.8912 13.7305 32.7172C13.6505 33.9771 13.4372 35.223 13.3037 36.4763C12.9639 39.5487 12.6371 42.6277 12.4972 45.7135C12.4437 46.9529 12.5706 47.0998 13.817 47.3131C16.783 47.8198 19.7748 48.0128 22.7809 48.1263C23.5075 48.1527 23.8138 47.8198 23.8938 47.1397C24.0937 45.3202 24.3136 43.5075 24.5469 41.4946C24.7668 43.5605 24.8533 45.4266 25.2066 47.2596C25.3265 47.8593 25.553 48.3126 26.2996 48.3326C29.4655 48.406 32.6044 48.1926 35.7233 47.6929C36.8897 47.5064 36.9561 47.3065 36.8228 46.0932C36.5829 44.0073 36.396 41.9144 36.1561 39.822C35.8698 37.3162 35.5494 34.817 35.2431 32.3109C35.1831 31.8441 35.0567 31.5578 34.4435 31.6243C29.5923 32.1574 21.6676 31.8642 14.9234 31.6778Z" fill="#454558"/>
  </g>
  <defs>
    <clipPath id="clip0_3_2170">
      <rect width="48" height="48" fill="white" transform="translate(0.755859 0.840576)"/>
    </clipPath>
  </defs>
</svg>