<svg xmlns="http://www.w3.org/2000/svg" width="49" height="49" viewBox="0 0 49 49" fill="none">
  <path d="M42.5032 21.1047C38.2968 16.4727 32.1064 12.3608 25.6904 12.06C25.3784 12.0408 25.076 12.0408 24.756 12.0408C17.9512 12.0952 11.7576 15.9927 7.2488 20.8407C7.16881 20.9271 7.08881 21.0152 7.00881 21.1032C6.07504 22.1231 5.55713 23.4557 5.55713 24.8384C5.55713 26.2212 6.07504 27.5538 7.00881 28.5735C8.93681 30.6999 15.9096 37.6407 24.5512 37.6407H24.9608C33.6008 37.6407 40.5752 30.6999 42.5064 28.5735C43.4396 27.5535 43.9569 26.2211 43.9563 24.8385C43.9557 23.456 43.4373 22.1239 42.5032 21.1047ZM40.1384 26.42C36.6664 30.2408 31.6264 33.8679 26.3112 34.3688C25.7947 34.4231 25.2753 34.4472 24.756 34.4408C18.948 34.3047 13.812 31.0647 9.89841 26.988C9.72028 26.8023 9.54481 26.6141 9.37201 26.4231C8.98028 25.9892 8.76346 25.4253 8.76346 24.8408C8.76346 24.2562 8.98028 23.6923 9.37201 23.2584C13.1592 19.0808 18.8872 15.1047 24.756 15.2408C26.8182 15.2385 28.8588 15.66 30.7512 16.4792C32.6935 17.2944 34.522 18.3576 36.1912 19.6424C37.6173 20.7215 38.9403 21.9303 40.1432 23.2536C40.5348 23.6882 40.751 24.2527 40.75 24.8377C40.7492 25.4227 40.5313 25.9865 40.1384 26.42Z" fill="#FC4F91"/>
  <path d="M24.756 18.4409C24.5465 18.441 24.3372 18.4517 24.1288 18.473C24.0605 18.4797 23.9952 18.504 23.9391 18.5435C23.883 18.583 23.838 18.6364 23.8086 18.6983C23.7791 18.7602 23.7663 18.8288 23.7711 18.8972C23.7759 18.9657 23.7982 19.0317 23.836 19.0889C24.2571 19.7255 24.436 20.4918 24.3404 21.249C24.2447 22.0062 23.8808 22.704 23.3145 23.2158C22.7483 23.7276 22.0174 24.0196 21.2544 24.0386C20.4915 24.0575 19.747 23.8023 19.156 23.3193C19.1034 23.2769 19.0409 23.2486 18.9744 23.237C18.9078 23.2252 18.8394 23.2306 18.7756 23.2524C18.7116 23.2744 18.6544 23.3121 18.609 23.3621C18.5636 23.4122 18.5316 23.4728 18.516 23.5385C18.4131 23.9651 18.3593 24.402 18.356 24.8409C18.356 26.1068 18.7313 27.3441 19.4346 28.3966C20.1378 29.449 21.1374 30.2693 22.3068 30.7538C23.4762 31.2382 24.7631 31.3649 26.0046 31.118C27.246 30.871 28.3864 30.2614 29.2815 29.3664C30.1766 28.4714 30.786 27.331 31.033 26.0895C31.28 24.848 31.1532 23.5612 30.6688 22.3917C30.1845 21.2223 29.3642 20.2228 28.3116 19.5195C27.2592 18.8163 26.0218 18.4409 24.756 18.4409Z" fill="#FC4F91"/>
</svg>