<svg width="18" height="19" viewBox="0 0 18 19" fill="none" xmlns="http://www.w3.org/2000/svg">
<g id="avatar 1">
<path id="Vector" d="M8.99888 3.875C10.5689 3.875 11.8991 4.41981 12.9894 5.50944C14.0798 6.59906 14.625 7.92888 14.625 9.49888C14.625 11.0689 14.0802 12.3991 12.9906 13.4894C11.9009 14.5798 10.5711 15.125 9.00113 15.125C7.43113 15.125 6.10094 14.5802 5.01056 13.4906C3.92019 12.4009 3.375 11.0711 3.375 9.50113C3.375 7.93113 3.91981 6.60094 5.00944 5.51056C6.09906 4.42019 7.42888 3.875 8.99888 3.875ZM9 14C10.25 14 11.3125 13.5625 12.1875 12.6875C13.0625 11.8125 13.5 10.75 13.5 9.5C13.5 8.25 13.0625 7.1875 12.1875 6.3125C11.3125 5.4375 10.25 5 9 5C7.75 5 6.6875 5.4375 5.8125 6.3125C4.9375 7.1875 4.5 8.25 4.5 9.5C4.5 10.75 4.9375 11.8125 5.8125 12.6875C6.6875 13.5625 7.75 14 9 14ZM9 11.9808C9.56638 11.9808 10.0774 11.8233 10.5332 11.5083C10.9889 11.1934 11.3192 10.774 11.5239 10.25H6.47606C6.68081 10.774 7.01106 11.1934 7.46681 11.5083C7.92256 11.8233 8.43363 11.9808 9 11.9808ZM6.47606 8.00131C6.47606 8.19369 6.54112 8.35456 6.67125 8.48394C6.80137 8.61319 6.96269 8.67781 7.15519 8.67781C7.34756 8.67781 7.50844 8.61275 7.63781 8.48263C7.76706 8.3525 7.83169 8.19119 7.83169 7.99869C7.83169 7.80631 7.76663 7.64544 7.6365 7.51606C7.50638 7.38681 7.34506 7.32219 7.15256 7.32219C6.96019 7.32219 6.79931 7.38725 6.66994 7.51738C6.54069 7.6475 6.47606 7.80881 6.47606 8.00131ZM10.1683 8.00131C10.1683 8.19369 10.2334 8.35456 10.3635 8.48394C10.4936 8.61319 10.6549 8.67781 10.8474 8.67781C11.0398 8.67781 11.2007 8.61275 11.3301 8.48263C11.4593 8.3525 11.5239 8.19119 11.5239 7.99869C11.5239 7.80631 11.4589 7.64544 11.3288 7.51606C11.1986 7.38681 11.0373 7.32219 10.8448 7.32219C10.6524 7.32219 10.4916 7.38725 10.3622 7.51738C10.2329 7.6475 10.1683 7.80881 10.1683 8.00131ZM1.125 5V2.98081C1.125 2.60794 1.25775 2.28875 1.52325 2.02325C1.78875 1.75775 2.10794 1.625 2.48081 1.625H4.5V2.75H2.48081C2.41344 2.75 2.35812 2.77163 2.31488 2.81488C2.27163 2.85813 2.25 2.91344 2.25 2.98081V5H1.125ZM4.5 17.375H2.48081C2.10794 17.375 1.78875 17.2423 1.52325 16.9768C1.25775 16.7113 1.125 16.3921 1.125 16.0192V14H2.25V16.0192C2.25 16.0866 2.27163 16.1419 2.31488 16.1851C2.35812 16.2284 2.41344 16.25 2.48081 16.25H4.5V17.375ZM13.5 17.3028V16.1778H15.5192C15.5866 16.1778 15.6419 16.1562 15.6851 16.1129C15.7284 16.0697 15.75 16.0144 15.75 15.947V13.9278H16.875V15.947C16.875 16.3199 16.7423 16.6391 16.4768 16.9046C16.2113 17.1701 15.8921 17.3028 15.5192 17.3028H13.5ZM15.75 5V2.98081C15.75 2.91344 15.7284 2.85813 15.6851 2.81488C15.6419 2.77163 15.5866 2.75 15.5192 2.75H13.5V1.625H15.5192C15.8921 1.625 16.2113 1.75775 16.4768 2.02325C16.7423 2.28875 16.875 2.60794 16.875 2.98081V5H15.75Z" fill="white"/>
</g>
</svg>
