<svg xmlns="http://www.w3.org/2000/svg" width="20" height="49" viewBox="0 0 20 49" fill="none">
<path d="M8.40565 38.1457C8.37565 39.9307 8.48065 41.7157 8.34565 43.4857C8.10565 44.5957 7.76065 45.6457 7.98565 46.7857C8.82565 49.5307 7.68565 48.6607 5.58565 48.7957C4.53565 48.5257 6.36566 45.3607 5.82565 44.3407C5.31565 41.0557 5.81065 37.7407 5.87065 34.4407C5.94566 31.6357 5.54065 28.8157 5.84065 26.0107C6.05066 22.0807 7.08565 23.8957 4.20565 22.2757C2.97565 21.3307 2.42065 19.7557 1.44566 18.5707C0.725654 17.5657 0.185654 16.5607 0.170654 15.2707C1.80565 13.2607 3.30565 10.9957 5.21065 9.22566C6.29065 8.31066 8.33065 8.98566 8.88566 7.42566C8.82565 6.90066 8.79565 6.22566 8.49565 5.83566C7.92565 5.70066 7.85065 4.71066 7.95565 4.23066C7.43065 2.43066 8.10565 1.30565 9.92066 0.795654C11.0307 0.810654 12.6507 1.56065 12.6207 2.82066C12.5157 3.72066 12.5607 4.60566 12.3057 5.49066C11.8707 5.97066 11.5557 6.58566 11.6307 7.33566C13.0407 9.24066 13.7757 8.52066 15.2907 9.81066C16.1607 10.6807 16.6107 11.8507 17.4207 12.7507C17.8707 13.4257 18.5607 13.9957 18.7707 14.7907C19.6407 16.6207 18.0657 17.8657 17.2857 19.4107C16.4907 20.7757 15.8607 22.2157 14.5407 23.1457C14.3307 23.2507 14.3457 23.4157 14.3907 23.5957C14.6457 24.9907 14.6757 26.4157 14.7357 27.8257C14.7357 29.8957 14.4507 31.9507 14.4207 34.0207C14.4507 36.5557 14.7207 39.0907 14.7057 41.6407C14.8257 42.9307 14.1057 44.2657 14.5707 45.5107C14.9007 46.4257 16.2057 47.5057 15.8457 48.4207C14.9607 48.3307 13.6257 48.8857 12.9657 48.3007C12.3657 47.7607 12.0357 47.0857 12.2907 46.2607C12.0957 45.6607 12.4707 45.0607 12.2907 44.4757C11.5857 42.9607 12.0057 41.1907 11.8857 39.5557C11.8857 35.2957 11.2557 31.0357 10.3407 26.8657C9.62065 27.1057 9.39565 30.6457 9.18565 31.6207C9.00565 33.7807 8.43565 36.0007 8.40565 38.1007V38.1457ZM6.74065 18.3757C6.60565 16.5157 6.11065 14.7307 5.70565 12.9307C5.66066 12.7057 5.43565 13.0657 5.36065 13.1257C4.61065 14.1907 3.39565 15.0007 2.60065 15.9007C3.12565 16.6207 3.27565 16.4557 2.85565 17.1757C3.51565 18.3157 3.78565 19.6507 4.37065 20.8357C4.86566 21.2557 5.82565 20.5657 6.47065 20.5507C6.77065 19.9507 6.69565 19.0807 6.74065 18.3757ZM13.8807 18.6007C13.7607 19.7857 14.0307 20.6107 15.3357 20.2357C15.7407 18.9757 16.6107 17.7007 16.5507 16.4407C16.6407 16.1107 17.3007 15.7657 17.1807 15.4957C16.1757 14.9107 15.3657 14.0707 14.6157 13.2307C14.2107 14.9557 13.8957 16.8307 13.8807 18.6007Z" fill="#FC4F91"/>
</svg>