<svg viewBox="0 0 16 32" fill="none" xmlns="http://www.w3.org/2000/svg" style="width: 32px; height: 32px;">
<path d="M4.89172 25.5962C4.8739 26.6666 4.93627 27.7369 4.85608 28.7983C4.71352 29.4639 4.50858 30.0935 4.64223 30.7771C5.14121 32.423 4.46403 31.9014 3.2166 31.9823C2.59288 31.8204 3.67993 29.9226 3.35916 29.311C3.05621 27.3412 3.35025 25.3534 3.38589 23.3746C3.43044 21.6926 3.18987 20.0017 3.36807 18.3197C3.49281 15.9632 4.10762 17.0515 2.39685 16.0801C1.66621 15.5134 1.33654 14.569 0.75737 13.8585C0.329679 13.2558 0.00891024 12.6532 0 11.8797C0.971216 10.6744 1.86224 9.31625 2.99384 8.2549C3.63538 7.70624 4.84717 8.11099 5.17685 7.17557C5.14121 6.86076 5.12339 6.45601 4.94518 6.22215C4.60659 6.1412 4.56204 5.54757 4.62441 5.25975C4.31255 4.18041 4.71352 3.50582 5.79165 3.20001C6.45101 3.20901 7.41332 3.65873 7.3955 4.41427C7.33313 4.95393 7.35986 5.48461 7.20838 6.01528C6.94999 6.3031 6.76287 6.67188 6.80742 7.1216C7.64498 8.2639 8.08159 7.83216 8.98152 8.60569C9.49831 9.12737 9.76562 9.82894 10.2468 10.3686C10.5141 10.7734 10.924 11.1151 11.0487 11.5919C11.5655 12.6892 10.6299 13.4357 10.1666 14.3621C9.69434 15.1806 9.32011 16.0441 8.53601 16.6018C8.41126 16.6647 8.42017 16.7637 8.44691 16.8716C8.59838 17.7081 8.6162 18.5626 8.65184 19.408C8.65184 20.6493 8.48255 21.8815 8.46473 23.1228C8.48255 24.6428 8.64293 26.1629 8.63402 27.692C8.7053 28.4655 8.27761 29.266 8.55383 30.0125C8.74985 30.5612 9.52504 31.2088 9.3112 31.7575C8.78549 31.7035 7.99248 32.0363 7.60043 31.6855C7.24402 31.3617 7.048 30.9569 7.19947 30.4622C7.08364 30.1025 7.3064 29.7427 7.19947 29.3919C6.78069 28.4835 7.03018 27.4221 6.9589 26.4417C6.9589 23.8873 6.58467 21.3329 6.04114 18.8324C5.61345 18.9763 5.4798 21.099 5.35505 21.6836C5.24813 22.9789 4.90954 24.31 4.89172 25.5693V25.5962ZM3.90268 13.7415C3.82249 12.6262 3.52845 11.5559 3.28788 10.4765C3.26115 10.3416 3.12749 10.5575 3.08294 10.5935C2.63743 11.2321 1.9157 11.7178 1.44346 12.2574C1.75532 12.6892 1.84442 12.5902 1.59493 13.022C1.98698 13.7056 2.14737 14.5061 2.49487 15.2166C2.7889 15.4685 3.35916 15.0547 3.7423 15.0457C3.9205 14.6859 3.87595 14.1643 3.90268 13.7415V13.7415ZM8.14396 13.8764C8.07268 14.587 8.23306 15.0817 9.00825 14.8568C9.24883 14.1013 9.76562 13.3368 9.72998 12.5812C9.78344 12.3834 10.1755 12.1765 10.1042 12.0146C9.50722 11.6638 9.02607 11.1601 8.58056 10.6564C8.33998 11.6908 8.15287 12.8151 8.14396 13.8764V13.8764Z" fill="#F3F0EF">
</path>
</svg>