<svg width="24" height="24" viewBox="0 0 24 24" fill="none" xmlns="http://www.w3.org/2000/svg">
<g clip-path="url(#clip0_1664_7543)">
<g clip-path="url(#clip1_1664_7543)">
<rect width="24" height="24" fill="#212121"/>
<path fill-rule="evenodd" clip-rule="evenodd" d="M12.7857 4.7619C12.7857 4.34112 13.1375 4 13.5714 4H16.7143C17.1482 4 17.5 4.34112 17.5 4.7619V7.80952C17.5 8.23031 17.1482 8.57143 16.7143 8.57143C16.2803 8.57143 15.9286 8.23031 15.9286 7.80952V6.60131L13.706 8.75656C14.1275 9.37509 14.3571 10.1046 14.3571 10.8571C14.3571 11.8675 13.9432 12.8365 13.2065 13.5509C12.6568 14.0839 11.961 14.4427 11.2104 14.5905C11.213 14.6155 11.2143 14.641 11.2143 14.6667V16.1905H12.7857C13.2197 16.1905 13.5714 16.5316 13.5714 16.9524C13.5714 17.3732 13.2197 17.7143 12.7857 17.7143H11.2143V19.2381C11.2143 19.6589 10.8625 20 10.4286 20C9.99463 20 9.64286 19.6589 9.64286 19.2381V17.7143H8.07143C7.63749 17.7143 7.28571 17.3732 7.28571 16.9524C7.28571 16.5316 7.63749 16.1905 8.07143 16.1905H9.64286V14.6667C9.64286 14.641 9.64417 14.6155 9.64674 14.5905C8.89612 14.4427 8.20033 14.0839 7.65065 13.5509C6.9139 12.8365 6.5 11.8675 6.5 10.8571C6.5 9.84679 6.9139 8.87783 7.65065 8.1634C8.3874 7.44898 9.38665 7.04762 10.4286 7.04762C11.2046 7.04762 11.9569 7.27026 12.5948 7.67907L14.8174 5.52381H13.5714C13.1375 5.52381 12.7857 5.18269 12.7857 4.7619ZM10.4286 8.57143C9.80342 8.57143 9.20387 8.81224 8.76182 9.2409C8.31977 9.66955 8.07143 10.2509 8.07143 10.8571C8.07143 11.4634 8.31977 12.0447 8.76182 12.4734C9.20387 12.902 9.80342 13.1429 10.4286 13.1429C11.0537 13.1429 11.6533 12.902 12.0953 12.4734C12.5374 12.0447 12.7857 11.4634 12.7857 10.8571C12.7857 10.2509 12.5374 9.66955 12.0953 9.2409C11.6533 8.81224 11.0537 8.57143 10.4286 8.57143Z" fill="white"/>
</g>
</g>
<defs>
<clipPath id="clip0_1664_7543">
<rect width="24" height="24" fill="white"/>
</clipPath>
<clipPath id="clip1_1664_7543">
<rect width="24" height="24" rx="12" fill="white"/>
</clipPath>
</defs>
</svg>
