<svg xmlns="http://www.w3.org/2000/svg" width="49" height="49" viewBox="0 0 49 49" fill="none">
  <path d="M29.5745 42.7655C28.1308 42.2405 26.762 40.7593 26.1433 39.053C25.712 37.8343 24.9995 34.3468 24.7558 32.2655L24.5308 30.4093L25.2058 29.753L25.862 29.078L26.0308 29.5468C27.5683 33.5593 28.2058 34.5905 30.287 36.653L31.7308 38.0593L30.8495 36.7843C29.9683 35.528 26.2558 29.0593 26.2558 28.7968C26.2558 28.7218 26.5183 28.4218 26.837 28.103L27.4183 27.5593L27.8308 28.103C29.012 29.7343 31.0183 32.003 32.087 32.9218C33.6808 34.2905 36.5683 36.5218 36.5683 36.3718C36.5683 36.1655 29.5183 28.5155 28.6745 27.803L27.8495 27.1093L28.412 26.5468L28.9745 25.9655L31.9745 27.578C33.6245 28.4593 35.5933 29.603 36.362 30.1093C37.1308 30.6155 37.787 30.9905 37.8433 30.953C38.012 30.7655 35.462 28.4405 34.5058 27.8968C33.9433 27.578 32.5933 26.9593 31.5058 26.528C30.4183 26.078 29.4995 25.6843 29.462 25.6468C29.4058 25.6093 29.5745 25.3655 29.837 25.103L30.3058 24.6343L32.837 24.9155C39.2683 25.6468 41.4995 26.4718 42.6058 28.5343C43.2433 29.7155 43.3933 30.7655 43.1308 32.0968C42.3245 35.9593 37.412 41.303 33.4183 42.6343C32.1058 43.0843 30.6058 43.1218 29.5745 42.7655Z" fill="#FC4F91"/>
  <path d="M16.3746 21.8969C6.79336 11.8469 7.13086 12.2219 7.13086 11.4906C7.13086 10.9844 7.41211 10.6094 8.96836 9.05315C11.2746 6.7469 11.4621 6.7094 13.1871 8.2844C15.8309 10.7031 29.2559 23.5656 29.2559 23.6969C29.2559 23.8469 23.7621 29.3406 23.5934 29.3406C23.5371 29.3406 20.2746 25.9844 16.3746 21.8969Z" fill="#FC4F91"/>
</svg>