<svg xmlns="http://www.w3.org/2000/svg" width="49" height="49" viewBox="0 0 49 49" fill="none">
  <path d="M18.8497 36.4655C13.806 36.1092 8.53721 35.0217 6.13721 33.803C5.08721 33.278 3.98096 32.2092 3.84971 31.5905C3.71846 30.9717 4.05596 30.203 4.73096 29.603C5.78096 28.628 8.89346 27.4655 11.9872 26.8842C13.0185 26.678 13.206 26.6967 13.3372 26.9405C13.6372 27.4842 15.0997 28.178 16.5435 28.478C17.706 28.7217 19.3185 28.778 24.756 28.778C32.6685 28.778 33.6622 28.6655 35.6122 27.428L36.831 26.678L38.8935 27.1467C42.006 27.8405 43.9372 28.6467 45.0247 29.6967C46.0185 30.653 46.131 31.0655 45.6622 31.9655C43.9747 35.228 31.5247 37.3092 18.8497 36.4655Z" fill="#454558"/>
  <path d="M15.8122 25.0281C13.5247 24.503 13.4497 24.4468 13.581 23.2843C13.6372 22.7406 13.8247 20.2093 13.9935 17.6218C14.1997 14.603 14.406 12.728 14.5747 12.353C15.006 11.378 15.6435 11.2093 20.0685 10.8718C22.281 10.703 24.2497 10.5343 24.4372 10.4968C24.606 10.4593 25.581 10.5155 26.5935 10.5905C27.5872 10.6843 29.6685 10.853 31.206 10.9655C34.206 11.2093 34.6935 11.3593 35.1622 12.278C35.406 12.7468 35.6122 15.0718 36.1185 22.4968L36.231 24.1843L35.3122 24.5218C33.0435 25.3093 31.9747 25.4031 24.5122 25.3843C18.2497 25.3656 17.1622 25.328 15.8122 25.0281Z" fill="#454558"/>
</svg>