<svg xmlns="http://www.w3.org/2000/svg" width="49" height="49" viewBox="0 0 49 49" fill="none">
  <g clip-path="url(#clip0_3_813)">
    <path d="M35.4092 21.5204C32.1432 10.9283 31.6441 10.4578 24.7678 10.4578H24.6622H24.5574C17.6799 10.4578 17.1806 10.9286 13.9159 21.5204C11.6152 28.9813 12.2074 29.3045 13.2373 29.7234C14.2455 30.1332 14.9239 29.7856 15.3439 28.657C17.0924 23.9547 20.0259 13.6912 20.0259 19.679C20.0259 29.1583 18.2297 29.0134 16.2805 47.2834C16.1058 48.9211 19.1671 49.3893 19.6808 47.0068C22.0592 35.9812 23.2645 31.4283 24.6633 31.4283C26.0623 31.4283 27.2676 35.981 29.6459 47.0068C30.1597 49.3888 33.2209 48.9208 33.0462 47.2834C31.0975 29.0134 29.3008 29.1579 29.3008 19.679C29.3008 13.691 32.2347 23.954 33.9828 28.657C34.4019 29.7856 35.0808 30.1325 36.0894 29.7234C37.1185 29.3045 37.7096 28.9814 35.4092 21.5204Z" fill="#FC4F91"/>
    <path d="M28.0684 4.84677C28.0684 7.0595 26.4911 8.85335 24.545 8.85335C22.5991 8.85335 21.0217 7.0595 21.0217 4.84677C21.0217 2.63443 22.599 0.840576 24.545 0.840576C26.491 0.840576 28.0684 2.63443 28.0684 4.84677Z" fill="#FC4F91"/>
  </g>
  <defs>
    <clipPath id="clip0_3_813">
      <rect width="48" height="48" fill="white" transform="translate(0.755859 0.840576)"/>
    </clipPath>
  </defs>
</svg>