<svg xmlns="http://www.w3.org/2000/svg" width="49" height="49" viewBox="0 0 49 49" fill="none">
  <g clip-path="url(#clip0_3_784)">
    <path d="M20.2322 47.7589C18.6926 46.7168 15.7085 43.8985 14.1216 41.98C12.1085 39.4932 11.09 37.2431 10.3321 33.6431C9.88214 31.4168 9.66898 31.0852 8.8874 31.2511C7.34793 31.5353 6.99266 30.9669 6.06898 26.7985C5.26372 23.2221 5.16898 21.5168 5.69003 20.4985C6.11635 19.6458 6.73214 19.4564 7.86898 19.7642C8.34266 19.9063 8.79266 19.9537 8.86372 19.8827C8.93477 19.8116 9.07687 17.9642 9.14793 15.809C9.31372 11.5695 9.45582 10.8827 10.6874 8.25371C11.9427 5.62476 14.3585 3.80108 18.2901 2.52213C22.4821 1.14845 25.6558 1.05372 29.9427 2.16687C32.7611 2.90108 34.6558 3.82476 36.5269 5.34055C37.7111 6.28792 38.1611 6.85634 38.8242 8.25371C40.0558 10.8827 40.1979 11.5695 40.3638 15.809C40.4348 17.9642 40.5769 19.8116 40.6716 19.9063C40.7663 20.001 41.2164 19.9537 41.6663 19.7879C42.7558 19.4326 43.3716 19.6458 43.8217 20.4985C44.3427 21.5168 44.2716 22.8431 43.4427 26.6564C42.8032 29.6642 42.6137 30.1616 41.9979 30.7537C41.4295 31.2985 41.169 31.3932 40.5295 31.2747C39.7716 31.109 39.748 31.1326 39.4638 32.2694C38.3032 36.7695 37.4032 38.9248 35.7926 41.1985C34.5848 42.9037 30.5821 46.7879 29.0427 47.7589C28.0006 48.4221 27.9059 48.4458 24.6374 48.4458C21.3217 48.4458 21.2743 48.4458 20.2322 47.7589Z" fill="#454558"/>
  </g>
  <defs>
    <clipPath id="clip0_3_784">
      <rect width="48" height="48" fill="white" transform="translate(0.755859 0.840576)"/>
    </clipPath>
  </defs>
</svg>