<svg viewBox="0 0 16 32" fill="none" xmlns="http://www.w3.org/2000/svg" style="width: 32px; height: 32px;">
<path d="M6.98968 24.87C6.96426 26.06 7.05322 27.25 6.93884 28.43C6.73551 29.17 6.44321 29.87 6.63384 30.63C7.34551 32.46 6.37967 31.88 4.60048 31.97C3.71088 31.79 5.26132 29.68 4.80381 29C4.37173 26.81 4.79111 24.6 4.84194 22.4C4.90548 20.53 4.56235 18.65 4.81652 16.78C4.99444 14.16 5.87133 15.37 3.4313 14.29C2.3892 13.66 1.91899 12.61 1.09293 11.82C0.482925 11.15 0.0254191 10.48 0.0127106 9.61997C1.39794 8.27997 2.66879 6.76997 4.28277 5.58997C5.19778 4.97997 6.92613 5.42997 7.39635 4.38997C7.34551 4.03997 7.3201 3.58997 7.06593 3.32997C6.583 3.23997 6.51946 2.57997 6.60842 2.25997C6.16362 1.05997 6.73551 0.309971 8.27324 -0.0300293C9.21366 -0.0200293 10.5862 0.479971 10.5608 1.31997C10.4718 1.91997 10.5099 2.50997 10.2939 3.09997C9.92534 3.41997 9.65846 3.82997 9.722 4.32997C10.9166 5.59997 11.5393 5.11997 12.8229 5.97997C13.56 6.55997 13.9412 7.33997 14.6275 7.93997C15.0087 8.38997 15.5933 8.76997 15.7712 9.29997C16.5083 10.52 15.174 11.35 14.5131 12.38C13.8396 13.29 13.3058 14.25 12.1875 14.87C12.0095 14.94 12.0222 15.05 12.0604 15.17C12.2764 16.1 12.3018 17.05 12.3527 17.99C12.3527 19.37 12.1112 20.74 12.0858 22.12C12.1112 23.81 12.34 25.5 12.3272 27.2C12.4289 28.06 11.8189 28.95 12.2129 29.78C12.4925 30.39 13.5981 31.11 13.2931 31.72C12.5433 31.66 11.4122 32.03 10.8531 31.64C10.3447 31.28 10.0651 30.83 10.2812 30.28C10.116 29.88 10.4337 29.48 10.2812 29.09C9.68388 28.08 10.0397 26.9 9.93805 25.81C9.93805 22.97 9.40429 20.13 8.62907 17.35C8.01906 17.51 7.82844 19.87 7.65052 20.52C7.49802 21.96 7.01509 23.44 6.98968 24.84V24.87ZM5.57903 11.69C5.46466 10.45 5.04528 9.25997 4.70215 8.05997C4.66402 7.90997 4.47339 8.14997 4.40985 8.18997C3.77443 8.89997 2.74504 9.43997 2.07149 10.04C2.51628 10.52 2.64337 10.41 2.28753 10.89C2.84671 11.65 3.07546 12.54 3.57109 13.33C3.99047 13.61 4.80381 13.15 5.35028 13.14C5.60445 12.74 5.54091 12.16 5.57903 11.69V11.69ZM11.6283 11.84C11.5266 12.63 11.7554 13.18 12.861 12.93C13.2041 12.09 13.9412 11.24 13.8904 10.4C13.9666 10.18 14.5258 9.94997 14.4241 9.76997C13.5727 9.37997 12.8864 8.81997 12.251 8.25997C11.9079 9.40997 11.641 10.66 11.6283 11.84V11.84Z" fill="#5A5C79">
</path>
</svg>