<svg width="24" height="24" viewBox="0 0 24 24" fill="none" xmlns="http://www.w3.org/2000/svg">
<path fill-rule="evenodd" clip-rule="evenodd" d="M6.34465 4.27789C7.71692 2.82526 9.61606 2 11.998 2C14.3809 2 16.2781 2.82632 17.6513 4.27789C18.8093 5.50211 19.5345 7.10947 19.9051 8.88105C19.9602 8.89158 20.0153 8.90526 20.0693 8.92105C20.9398 9.16526 21.5007 9.88526 21.7742 10.6579C22.0476 11.4326 22.0737 12.3474 21.8473 13.2358C21.5298 14.4811 20.6804 15.7095 19.4413 16.0411C18.0871 19.4632 15.0891 22 11.998 22C8.90588 22 5.90793 19.4611 4.55469 16.04C3.31764 15.7063 2.47024 14.4789 2.15272 13.2358C1.92634 12.3474 1.95239 11.4326 2.22584 10.6568C2.49929 9.88526 3.06022 9.16526 3.93066 8.92C3.98375 8.90526 4.03683 8.89263 4.09092 8.88211C4.46154 7.10947 5.18673 5.50316 6.34465 4.27789Z" fill="#9E9E9E"/>
</svg>
