<svg xmlns="http://www.w3.org/2000/svg" width="49" height="49" viewBox="0 0 49 49" fill="none">
  <path d="M6.35617 22.4406H43.1561C43.3223 22.4408 43.4845 22.3892 43.6201 22.2931C43.7557 22.1968 43.8579 22.0609 43.9126 21.9039C43.9673 21.747 43.9718 21.5769 43.9253 21.4173C43.879 21.2577 43.7841 21.1165 43.6538 21.0134C38.8361 17.183 33.7738 15.2406 31.0922 15.2406C30.1021 15.152 29.1044 15.273 28.1641 15.5955C27.2237 15.9181 26.3619 16.4349 25.6346 17.1126C25.1849 17.511 25.0154 17.6406 24.7562 17.6406C24.497 17.6406 24.3274 17.511 23.8778 17.1126C23.1505 16.4349 22.2886 15.9181 21.3483 15.5955C20.408 15.273 19.4103 15.152 18.4202 15.2406C15.7385 15.2406 10.6762 17.183 5.85857 21.0134C5.72827 21.1165 5.63334 21.2577 5.58696 21.4173C5.54058 21.5769 5.54505 21.747 5.59977 21.9039C5.65449 22.0609 5.75672 22.1968 5.89229 22.2931C6.02784 22.3892 6.18997 22.4408 6.35617 22.4406Z" fill="#FC4F91"/>
  <path d="M43.8891 25.3206C43.8269 25.178 43.7244 25.0566 43.5942 24.9714C43.4641 24.8861 43.3119 24.8407 43.1563 24.8406H6.35629C6.20058 24.8405 6.04822 24.8858 5.91788 24.971C5.78755 25.0562 5.68493 25.1775 5.62258 25.3203C5.56024 25.463 5.54089 25.6208 5.56692 25.7743C5.59295 25.9278 5.66321 26.0705 5.7691 26.1846C10.9282 31.0871 17.6524 34.0109 24.7563 34.4406C31.8603 34.0109 38.5845 31.0871 43.7435 26.1846C43.8492 26.0703 43.9193 25.9278 43.9451 25.7743C43.971 25.6208 43.9515 25.4631 43.8891 25.3206Z" fill="#FC4F91"/>
</svg>