<svg xmlns="http://www.w3.org/2000/svg" width="49" height="49" viewBox="0 0 49 49" fill="none">
  <path d="M25.4682 40.4032C25.1494 39.6719 24.8307 39.1469 24.7557 39.2219C24.6807 39.2969 24.5307 39.8594 24.3994 40.4594C24.1744 41.5282 24.1557 41.5469 23.5744 41.4344C23.2369 41.3969 20.3119 41.0782 17.0682 40.7594C13.8244 40.4407 11.1432 40.1782 11.1244 40.1594C11.1244 40.1407 11.4432 36.9344 11.8557 33.0344C12.2682 29.1157 12.5682 25.8907 12.5119 25.8532C12.4744 25.8157 11.8744 26.0407 11.1994 26.3594C10.5057 26.6782 9.86816 26.9032 9.77441 26.8657C9.66191 26.8469 8.06816 24.5594 6.21191 21.8032L2.83691 16.7969L4.65566 15.6907C5.64941 15.0719 8.76191 13.1782 11.5369 11.4907L16.6182 8.39692L23.4244 8.28442L30.2307 8.19067L38.3307 10.8157C42.7744 12.2594 46.4869 13.5157 46.5807 13.5907C46.7307 13.7407 42.3619 24.5032 41.9869 24.9157C41.8932 25.0282 41.2369 24.8594 40.3744 24.5219C39.5682 24.2032 38.8932 23.9594 38.8744 23.9782C38.8369 24.0157 39.5307 27.5594 40.3932 31.8907C41.2557 36.2032 41.9494 39.7657 41.9494 39.7657C41.9307 39.7844 38.5369 40.1969 34.4119 40.6657C30.2869 41.1532 26.7244 41.5844 26.4994 41.6219C26.1244 41.7157 25.9932 41.5657 25.4682 40.4032Z" fill="#FC4F91"/>
</svg>