<svg xmlns="http://www.w3.org/2000/svg" width="49" height="49" viewBox="0 0 49 49" fill="none">
  <path d="M8.27458 32.8656C6.84958 32.6594 5.79958 32.1719 5.27458 31.4219C4.76833 30.7281 4.09333 28.9094 3.66208 27.1469C3.38083 25.9656 3.26833 25.7406 2.72458 25.4219C1.84333 24.8969 1.50583 24.2969 1.28083 22.7969C0.98083 20.7344 1.03708 20.6406 2.94958 20.1719C5.66833 19.5156 8.16208 19.1969 11.7433 19.0844C15.9996 18.9531 18.0621 19.2531 21.1558 20.4531C24.0246 21.5594 25.0558 21.5781 27.5871 20.5469C30.6058 19.3094 31.7871 19.1219 36.2871 19.1219C40.3933 19.1406 42.8121 19.4031 46.2058 20.1906L47.8558 20.5656L47.7808 22.0094C47.6871 23.7344 47.2371 24.7469 46.3183 25.3656C45.7371 25.7594 45.6246 25.9844 45.0996 27.8969C43.8058 32.5844 43.1496 32.9781 36.8496 32.9969C32.6871 32.9969 31.6933 32.8469 30.2871 31.9469C29.3121 31.3281 28.6371 30.1281 28.3183 28.3844C27.9433 26.4156 27.3808 25.4406 26.1058 24.6344C25.0933 23.9969 24.1183 23.9219 23.1058 24.4469C21.7558 25.1406 21.1933 26.0781 20.6121 28.5719C19.9746 31.3844 18.8496 32.4344 15.9433 32.8844C14.4996 33.1281 9.96208 33.1094 8.27458 32.8656Z" fill="#454558"/>
</svg>