<svg xmlns="http://www.w3.org/2000/svg" width="64" height="64" viewBox="0 0 64 64" fill="none">
  <circle cx="32" cy="32" r="32" fill="white" fill-opacity="0.9"/>
  <path d="M47.7865 17.4286H40.5006C40.4739 17.4286 40.4521 17.4419 40.4266 17.4431C39.636 16.0783 38.7666 15.3266 38.7035 15.2744C38.4861 15.0971 38.2141 15 37.9336 15H26.0661C25.7856 15 25.5136 15.0971 25.2974 15.2756C25.2343 15.3279 24.3636 16.0795 23.5743 17.4444C23.5488 17.4419 23.5269 17.4286 23.5002 17.4286H16.2143C15.8682 17.4286 15.5392 17.5755 15.3097 17.8329C15.0789 18.0904 14.9696 18.434 15.0073 18.7764C15.4202 22.4934 18.1244 29.6297 25.346 30.6461C26.1329 31.7681 27.0618 32.9022 28.1523 34.0497C28.2105 34.1116 28.2883 34.1444 28.3563 34.1918V36.8571H25.9276C25.2573 36.8571 24.7133 37.3999 24.7133 38.0714V41.7143H22.2859C21.6156 41.7143 21.0716 42.2571 21.0716 42.9286V47.7857C21.0716 48.4572 21.6156 49 22.2859 49H41.715C42.3853 49 42.9293 48.4572 42.9293 47.7857V42.9286C42.9293 42.2571 42.3853 41.7143 41.715 41.7143H39.2863V38.0714C39.2863 37.3999 38.7423 36.8571 38.072 36.8571H35.6434V34.193C35.7126 34.1456 35.7891 34.1116 35.8474 34.0509C36.9366 32.9046 37.8656 31.7693 38.6537 30.6473C45.8752 29.6309 48.5807 22.4946 48.9924 18.7776C49.0312 18.4352 48.9207 18.0916 48.69 17.8341C48.4617 17.5755 48.1326 17.4286 47.7865 17.4286ZM17.6751 19.8571H22.6004C22.4595 20.4072 22.3454 20.9876 22.3053 21.6336C22.1827 23.5899 22.6186 25.6153 23.6022 27.6978C19.6788 26.1095 18.1924 22.0113 17.6751 19.8571ZM40.5006 46.5714H23.5002V44.1429H25.9288H38.072H40.5006V46.5714ZM36.8577 41.7143H27.1432V39.2857H29.5718H34.4291H36.8577V41.7143ZM30.7861 36.8571V34.4286H33.2147V36.8571H30.7861ZM34.4412 32H34.4291H29.5718H29.5597C26.1802 28.3341 24.5542 24.9171 24.7267 21.8376C24.8566 19.5014 26.0078 18.0102 26.553 17.4286H37.4466C37.9955 18.0139 39.1442 19.5038 39.2742 21.8389C39.4454 24.9171 37.8194 28.3341 34.4412 32ZM40.4035 27.6881C41.3847 25.6092 41.8182 23.5862 41.6955 21.6324C41.6555 20.9876 41.5413 20.4072 41.4017 19.8571H46.316C45.7853 22.0004 44.2784 26.0937 40.4035 27.6881Z" fill="#FC2D7C"/>
</svg>