<svg width="28" height="28" viewBox="0 0 28 28" fill="none" xmlns="http://www.w3.org/2000/svg">
<g id="ban">
<g id="Vector" filter="url(#filter0_d_1548_14251)">
<path d="M16.8808 12.9993L12.045 8.16375C12.2814 7.9732 12.5672 7.82337 12.9025 7.71429C13.2379 7.60501 13.6187 7.55037 14.0449 7.55037C15.0096 7.55037 15.8218 7.88404 16.4818 8.55137C17.1417 9.21871 17.4717 10.0423 17.4717 11.0221C17.4717 11.3935 17.4158 11.768 17.304 12.1456C17.1924 12.5234 17.0513 12.808 16.8808 12.9993ZM7.11521 20.5826C8.22743 19.8144 9.32001 19.2262 10.393 18.818C11.4659 18.4101 12.6683 18.2061 14 18.2061C15.0251 18.2061 15.9528 18.3288 16.7831 18.5742C17.6136 18.8198 18.2835 19.079 18.793 19.3518L13.9455 14.504C12.9657 14.4542 12.1671 14.1258 11.5497 13.5188C10.9322 12.9117 10.6014 12.1233 10.5575 11.1536L6.96179 7.55796C6.22485 8.38707 5.62819 9.33518 5.17183 10.4023C4.71547 11.4696 4.48729 12.6688 4.48729 14C4.48729 15.3127 4.71469 16.5041 5.1695 17.5741C5.6245 18.6439 6.27307 19.6468 7.11521 20.5826ZM21.1301 20.3283C21.8011 19.5282 22.366 18.6054 22.8247 17.5601C23.2834 16.5149 23.5127 15.3282 23.5127 14C23.5127 11.3482 22.5903 9.09971 20.7454 7.25462C18.9003 5.40974 16.6518 4.48729 14 4.48729C12.7147 4.48729 11.5417 4.70167 10.481 5.13042C9.42015 5.55917 8.48215 6.13249 7.66704 6.85037L21.1301 20.3283ZM14 24.5C12.5401 24.5 11.1715 24.2274 9.89421 23.6822C8.6169 23.1369 7.50449 22.3906 6.55696 21.443C5.60943 20.4955 4.86306 19.3831 4.31783 18.1058C3.77261 16.8285 3.5 15.4599 3.5 14C3.5 12.5356 3.77261 11.166 4.31783 9.891C4.86306 8.61583 5.60943 7.50449 6.55696 6.55696C7.50449 5.60943 8.6169 4.86305 9.89421 4.31783C11.1715 3.77261 12.5401 3.5 14 3.5C15.4644 3.5 16.834 3.77261 18.109 4.31783C19.3842 4.86305 20.4955 5.60943 21.443 6.55696C22.3906 7.50449 23.1369 8.61583 23.6822 9.891C24.2274 11.166 24.5 12.5356 24.5 14C24.5 15.4599 24.2274 16.8285 23.6822 18.1058C23.1369 19.3831 22.3906 20.4955 21.443 21.443C20.4955 22.3906 19.3842 23.1369 18.109 23.6822C16.834 24.2274 15.4644 24.5 14 24.5ZM14 23.5127C15.1284 23.5127 16.2195 23.315 17.2734 22.9195C18.3275 22.5238 19.2865 21.9807 20.1504 21.2902C19.3162 20.6406 18.341 20.1286 17.2247 19.7543C16.1084 19.3802 15.0335 19.1931 14 19.1931C12.9665 19.1931 11.9103 19.369 10.8313 19.7208C9.75236 20.0725 8.76342 20.5957 7.8645 21.2902C8.7185 21.9807 9.67332 22.5238 10.729 22.9195C11.7844 23.315 12.8748 23.5127 14 23.5127Z" fill="#FF7D7D"/>
</g>
</g>
<defs>
<filter id="filter0_d_1548_14251" x="2.5" y="2.5" width="23" height="23" filterUnits="userSpaceOnUse" color-interpolation-filters="sRGB">
<feFlood flood-opacity="0" result="BackgroundImageFix"/>
<feColorMatrix in="SourceAlpha" type="matrix" values="0 0 0 0 0 0 0 0 0 0 0 0 0 0 0 0 0 0 127 0" result="hardAlpha"/>
<feOffset/>
<feGaussianBlur stdDeviation="0.5"/>
<feComposite in2="hardAlpha" operator="out"/>
<feColorMatrix type="matrix" values="0 0 0 0 0 0 0 0 0 0 0 0 0 0 0 0 0 0 0.65 0"/>
<feBlend mode="normal" in2="BackgroundImageFix" result="effect1_dropShadow_1548_14251"/>
<feBlend mode="normal" in="SourceGraphic" in2="effect1_dropShadow_1548_14251" result="shape"/>
</filter>
</defs>
</svg>
