<svg xmlns="http://www.w3.org/2000/svg" width="28" height="28" viewBox="0 0 28 28" fill="none">
  <rect x="1" y="1" width="26" height="26" rx="9" stroke="url(#paint0_linear_2088_4789)" stroke-width="2"/>
  <path fill-rule="evenodd" clip-rule="evenodd" d="M14 6C13.4477 6 13 6.44772 13 7V13H7C6.44772 13 6 13.4477 6 14C6 14.5523 6.44772 15 7 15H13V21C13 21.5523 13.4477 22 14 22C14.5523 22 15 21.5523 15 21V15H21C21.5523 15 22 14.5523 22 14C22 13.4477 21.5523 13 21 13H15V7C15 6.44772 14.5523 6 14 6Z" fill="url(#paint1_linear_2088_4789)"/>
  <defs>
    <linearGradient id="paint0_linear_2088_4789" x1="6.25034e-07" y1="1.3125" x2="25.8125" y2="27.125" gradientUnits="userSpaceOnUse">
      <stop stop-color="#FF5697"/>
      <stop offset="1" stop-color="#FC2D7C"/>
    </linearGradient>
    <linearGradient id="paint1_linear_2088_4789" x1="7.5" y1="6" x2="20.5" y2="21" gradientUnits="userSpaceOnUse">
      <stop stop-color="#FF5697"/>
      <stop offset="1" stop-color="#FD317F"/>
    </linearGradient>
  </defs>
</svg>