<svg xmlns="http://www.w3.org/2000/svg" width="28" height="28" viewBox="0 0 28 28" fill="none">
  <path fill-rule="evenodd" clip-rule="evenodd" d="M20.1954 11.2977C20.1954 15.6595 16.6595 19.1954 12.2977 19.1954C7.93593 19.1954 4.4 15.6595 4.4 11.2977C4.4 6.93593 7.93593 3.4 12.2977 3.4C16.6595 3.4 20.1954 6.93593 20.1954 11.2977ZM17.953 18.6784C16.3861 19.8807 14.4254 20.5954 12.2977 20.5954C7.16273 20.5954 3 16.4327 3 11.2977C3 6.16273 7.16273 2 12.2977 2C17.4327 2 21.5954 6.16273 21.5954 11.2977C21.5954 13.7645 20.6348 16.0069 19.0672 17.6712L24.7817 23.3857C25.0746 23.6786 25.0746 24.1535 24.7817 24.4464C24.4888 24.7393 24.0139 24.7393 23.7211 24.4464L17.953 18.6784Z" fill="#DDDDDD"/>
</svg>