<svg xmlns="http://www.w3.org/2000/svg" width="28" height="28" viewBox="0 0 28 28" fill="none">
  <path d="M6.38477 22.3073V11.6458C6.38477 9.27655 7.90784 4.53809 14.0002 4.53809C16.5386 4.53809 21.6155 5.95962 21.6155 11.6458V22.3073" stroke="#DDDDDD" stroke-width="1.5"/>
  <path d="M3 22.3076L25 22.3076" stroke="#DDDDDD" stroke-width="1.5"/>
  <path d="M12.3076 3.69231C12.3076 2.75767 13.0653 2 13.9999 2V2C14.9346 2 15.6922 2.75767 15.6922 3.69231V4.53846H12.3076V3.69231Z" fill="#D9D9D9"/>
  <path d="M16.5386 23.1539C16.5386 24.5559 15.4021 25.6924 14.0001 25.6924V25.6924C12.5982 25.6924 11.4617 24.5559 11.4617 23.1539L11.4617 22.3078L16.5386 22.3078L16.5386 23.1539Z" fill="#D9D9D9"/>
  <circle cx="22" cy="6" r="6" fill="#FC2D7C"/>
</svg>