<svg xmlns="http://www.w3.org/2000/svg" width="24" height="24" viewBox="0 0 24 24" fill="none">
  <g clip-path="url(#clip0_1839_6690)">
    <path fill-rule="evenodd" clip-rule="evenodd" d="M14.8856 9.42878C14.8856 11.0225 13.5937 12.3145 11.9999 12.3145C10.4062 12.3145 9.11422 11.0225 9.11422 9.42878C9.11422 7.83504 10.4062 6.54307 11.9999 6.54307C13.5937 6.54307 14.8856 7.83504 14.8856 9.42878ZM16.2856 9.42878C16.2856 11.7957 14.3669 13.7145 11.9999 13.7145C9.633 13.7145 7.71422 11.7957 7.71422 9.42878C7.71422 7.06185 9.633 5.14307 11.9999 5.14307C14.3669 5.14307 16.2856 7.06185 16.2856 9.42878ZM18.3142 20.5716C18.3142 21.3781 17.8239 22.2795 16.6782 23.0433C15.5422 23.8006 13.8923 24.3145 11.9999 24.3145C10.1075 24.3145 8.45761 23.8006 7.32169 23.0433C6.17597 22.2795 5.68564 21.3781 5.68564 20.5716C5.68564 19.7652 6.17597 18.8638 7.32169 18.1C8.45761 17.3427 10.1075 16.8288 11.9999 16.8288C13.8923 16.8288 15.5422 17.3427 16.6782 18.1C17.8239 18.8638 18.3142 19.7652 18.3142 20.5716ZM19.7142 20.5716C19.7142 23.412 16.2604 25.7145 11.9999 25.7145C7.73945 25.7145 4.28564 23.412 4.28564 20.5716C4.28564 17.7313 7.73945 15.4288 11.9999 15.4288C16.2604 15.4288 19.7142 17.7313 19.7142 20.5716Z" fill="#DDDDDD"/>
  </g>
  <rect x="0.7" y="0.7" width="22.6" height="22.6" rx="11.3" stroke="#DDDDDD" stroke-width="1.4"/>
  <defs>
    <clipPath id="clip0_1839_6690">
      <rect width="24" height="24" rx="12" fill="white"/>
    </clipPath>
  </defs>
</svg>