<svg xmlns="http://www.w3.org/2000/svg" width="21" height="40" viewBox="0 0 21 40" fill="none">
  <g clip-path="url(#clip0_4091_15932)">
    <path d="M13.9353 0.495698C13.9302 0.489319 13.9257 0.482941 13.9207 0.476562C13.9232 0.479752 13.9251 0.482941 13.9276 0.485492C13.9302 0.488681 13.9327 0.491871 13.9353 0.49506V0.495698Z" fill="white"/>
    <path d="M13.8814 0.42918C13.8729 0.419461 13.8644 0.409134 13.856 0.399414C13.8638 0.408526 13.8717 0.417031 13.8789 0.426143C13.8796 0.427358 13.8808 0.427965 13.8814 0.428573V0.42918Z" fill="white"/>
    <path d="M13.7937 0.32914C13.7882 0.323065 13.7828 0.317598 13.7773 0.311523C13.7888 0.323065 13.7997 0.335215 13.8106 0.347364C13.8052 0.341289 13.7991 0.335215 13.7937 0.32914Z" fill="white"/>
    <path d="M13.9397 0.501496C13.9397 0.501496 13.9365 0.497031 13.9346 0.495117C13.9384 0.50022 13.9422 0.504685 13.946 0.509788L13.9397 0.501496Z" fill="white"/>
    <path d="M20.7001 17.5156C20.6529 17.3613 20.5954 17.2106 20.5434 17.0576C20.5283 17.0132 20.5107 16.9707 20.4896 16.9306C20.4811 16.9142 20.472 16.8978 20.4617 16.8826C20.4666 16.8796 20.4702 16.8741 20.4684 16.8668C20.4605 16.8267 20.4575 16.7872 20.4557 16.7471C20.4545 16.7222 20.4539 16.6973 20.4533 16.673C20.4533 16.6457 20.4521 16.619 20.4515 16.5916C20.5337 16.5443 20.5567 16.5029 20.5567 16.5029L20.5519 16.3547C20.7255 16.2636 20.8157 16.1871 20.8157 16.1871C20.8592 15.4866 20.1465 11.0193 19.5416 9.31841L19.5301 9.32327C19.1048 8.31123 18.4822 7.49722 18.3316 7.31376C17.9843 6.89157 17.2426 5.85037 16.4561 5.18762C15.6697 4.52487 13.5686 2.02028 12.4844 1.49239C11.9 1.20748 11.2696 1.37211 10.6913 1.7621C10.2036 2.09074 9.26713 2.53663 8.62645 2.73102C8.59197 2.72433 8.55628 2.71826 8.51937 2.71279C8.51816 2.71279 8.51635 2.71279 8.51514 2.71218C8.49396 2.70915 8.47158 2.70611 8.44919 2.70368C8.43891 2.70247 8.42802 2.70125 8.41713 2.70004C8.39656 2.69761 8.37599 2.69578 8.35482 2.69335C8.32457 2.69032 8.29311 2.68789 8.26105 2.68606C8.24653 2.68485 8.2314 2.68424 8.21628 2.68303C8.18966 2.6812 8.16243 2.67999 8.134 2.67877C8.12129 2.67817 8.10859 2.67756 8.09528 2.67695C8.05354 2.67513 8.01058 2.67331 7.96521 2.67209C7.41891 2.6563 7.0777 2.73648 6.91012 2.79116C6.87442 2.73466 6.84296 2.67938 6.81816 2.62775C6.63666 2.25233 6.34809 2.08892 6.19503 1.9571C6.09521 1.61631 6.10791 1.53127 5.7667 1.14249C5.95606 0.965104 5.49204 0.742163 5.49204 0.742163C5.49869 0.737304 5.50414 0.731836 5.50837 0.726977C5.51079 0.723939 5.5114 0.721509 5.51321 0.718472C5.51442 0.716042 5.51684 0.713612 5.51745 0.710575C5.51866 0.706323 5.51866 0.702678 5.51866 0.698426C5.51866 0.697211 5.51926 0.695388 5.51866 0.694173C5.51866 0.689314 5.51624 0.684454 5.51442 0.678987C5.51442 0.678379 5.50837 0.682024 5.50777 0.681417C5.50474 0.675949 5.49446 0.674734 5.49022 0.66866C5.49022 0.66866 5.49022 0.66866 5.49022 0.668052C5.43577 0.593941 5.23068 0.51011 4.91065 0.431139C4.45207 0.317543 2.72061 -0.614922 2.01943 0.683239C1.22933 0.6638 0.854236 1.24272 0.634627 1.93341C0.627367 1.9571 0.620713 1.97897 0.612848 2.00084C0.610428 2.00752 0.608008 2.0142 0.605588 2.02089C0.600143 2.03546 0.595303 2.05004 0.589859 2.06402C0.586834 2.07131 0.583809 2.07859 0.581389 2.08588C0.576549 2.09864 0.571104 2.1114 0.565659 2.12355C0.562634 2.13084 0.559609 2.13752 0.556584 2.14481C0.55114 2.15696 0.545695 2.1685 0.540855 2.18004C0.53783 2.18612 0.534805 2.1928 0.53178 2.19887C0.526335 2.21042 0.520286 2.22196 0.514841 2.2335C0.512421 2.23836 0.509396 2.24383 0.506976 2.24869C0.499716 2.26205 0.493061 2.27481 0.485801 2.28696C0.484591 2.28939 0.483382 2.29182 0.481567 2.29425C0.464022 2.32462 0.446478 2.35196 0.428328 2.37747C0.426513 2.3799 0.425303 2.38172 0.423488 2.38415C0.416228 2.39448 0.408969 2.4042 0.401709 2.41392C0.399894 2.41635 0.397474 2.41878 0.395659 2.42181C0.389004 2.43093 0.381744 2.43943 0.374485 2.44794C0.37267 2.45037 0.370855 2.45219 0.36904 2.45462C0.36178 2.46312 0.353915 2.47163 0.346655 2.47952C0.345445 2.48074 0.344235 2.48256 0.343025 2.48378C0.299467 2.53055 0.256513 2.56578 0.215979 2.59312C0.218399 2.5913 0.221424 2.59008 0.223844 2.58826C0.220214 2.59069 0.216584 2.59312 0.212954 2.59555C0.211139 2.59677 0.209324 2.59737 0.207509 2.59859C0.19541 2.60649 0.18331 2.61438 0.17121 2.62106C0.168185 2.62289 0.164555 2.62471 0.161531 2.62653C0.150036 2.63261 0.139146 2.63868 0.128861 2.64415C0.127651 2.64476 0.125836 2.64597 0.124627 2.64658C0.124627 2.64658 0.125232 2.64658 0.125836 2.64597C0.0683631 2.67391 0.0235943 2.68849 0 2.70611C0.124627 2.73952 0.351495 2.6727 0.351495 2.6727C0.351495 2.6727 -0.309146 3.99151 0.220214 4.78183C0.442243 5.22103 0.539645 5.62682 0.742919 5.90443C0.764699 6.6176 1.16883 6.99788 1.36182 7.0562C1.67338 7.37876 1.82765 7.31558 1.82765 7.31558C2.22029 7.57801 2.49919 7.54825 2.57602 7.51666C2.21908 7.30283 2.03698 6.88428 2.03698 6.88428C2.66919 7.50997 3.03883 7.36479 3.41392 7.09386C3.41392 7.09386 3.56275 7.0562 3.63958 6.98148C3.75029 6.95536 3.89851 6.95718 4.06972 7.05377C4.1157 7.07928 4.16349 7.10479 4.2125 7.12909C4.20887 7.15339 4.20463 7.1783 4.20161 7.2032C4.21008 7.18133 4.21673 7.15947 4.22399 7.13699C4.23549 7.14549 4.24819 7.15339 4.26211 7.16189C4.27965 7.16918 4.29719 7.17404 4.31595 7.17769C4.38492 7.20806 4.4557 7.23661 4.5283 7.26213C4.50047 7.25484 4.48353 7.25059 4.48353 7.25059C4.48353 7.25059 4.53314 7.27853 4.613 7.31072C4.69225 7.34231 4.80236 7.37694 4.91609 7.39395C4.97296 7.40245 5.03044 7.40731 5.08488 7.40549C5.11211 7.4067 5.13812 7.40185 5.16293 7.39942C5.18773 7.39759 5.21072 7.38909 5.23189 7.38484C5.25307 7.38119 5.27122 7.37026 5.28755 7.36357C5.29663 7.35993 5.30449 7.35628 5.31175 7.35203C5.3293 7.34839 5.34684 7.34535 5.36378 7.3411C5.39826 7.36114 5.42912 7.37572 5.45816 7.38605C5.47752 7.39395 5.49688 7.40002 5.51745 7.40427C5.5356 7.40792 5.55496 7.40974 5.57371 7.40853C5.58339 7.40731 5.59307 7.40853 5.60214 7.40427C5.61122 7.40124 5.6209 7.39942 5.62997 7.39577L5.65538 7.3818C5.66385 7.37694 5.67232 7.37147 5.67958 7.366C5.69592 7.35446 5.70378 7.33563 5.71891 7.32409L5.7177 7.32105C5.72193 7.31255 5.72617 7.30222 5.73101 7.29372C5.73161 7.2925 5.73161 7.29068 5.73222 7.29007C5.74794 7.26273 5.76609 7.23722 5.78908 7.22203C5.81994 7.2032 5.8635 7.21353 5.90645 7.21839C5.9494 7.22446 5.99478 7.2275 6.03834 7.2275C6.0819 7.22811 6.12545 7.22872 6.16901 7.22872C6.18232 7.22872 6.19563 7.22872 6.20894 7.22811C6.15086 7.44194 6.03834 7.91273 6.12666 8.05852C6.13029 8.06459 6.13513 8.07188 6.14058 8.07917C6.14239 8.0816 6.14481 8.08403 6.14663 8.08707C6.15086 8.09254 6.1551 8.098 6.15994 8.10347C6.16296 8.10651 6.16538 8.11015 6.16841 8.11319C6.17325 8.11866 6.17869 8.12473 6.18414 8.13081C6.18716 8.13445 6.1914 8.1381 6.19503 8.14235C6.20108 8.14842 6.20713 8.15511 6.21378 8.16179C6.21802 8.16604 6.22165 8.17029 6.22588 8.17455C6.23254 8.18183 6.2404 8.18912 6.24766 8.19641C6.2519 8.20067 6.25674 8.20553 6.26097 8.20978C6.26944 8.21768 6.27791 8.22618 6.28638 8.23468C6.29122 8.23894 6.29545 8.2438 6.30029 8.24805C6.30997 8.25716 6.31965 8.26627 6.32994 8.27599C6.33478 8.28085 6.34022 8.2851 6.34506 8.28996C6.35595 8.30029 6.36745 8.31062 6.37955 8.32155C6.38439 8.3258 6.38862 8.33006 6.39346 8.33431C6.40738 8.34707 6.4225 8.36043 6.43763 8.37379C6.44065 8.37622 6.44307 8.37865 6.4461 8.38169C6.483 8.4145 6.52293 8.44912 6.56528 8.48557C6.57072 8.49043 6.57617 8.49468 6.58161 8.49954C6.59734 8.51291 6.61307 8.52627 6.62941 8.54024C6.63788 8.54753 6.64695 8.55482 6.65542 8.56211C6.66933 8.57365 6.68264 8.58519 6.69656 8.59734C6.70745 8.60646 6.71834 8.61617 6.72983 8.62529C6.74193 8.63561 6.75343 8.64533 6.76613 8.65566C6.77944 8.66659 6.79275 8.67814 6.80667 8.68968C6.81695 8.69818 6.82784 8.7073 6.83812 8.7158C6.85385 8.72916 6.86958 8.74253 6.88592 8.75589C6.89378 8.76197 6.90165 8.76865 6.90951 8.77533C6.92101 8.78444 6.93432 8.79173 6.94279 8.80328C7.31364 9.10336 7.7698 9.48 8.27193 9.89247C9.59322 10.9774 10.2787 11.9797 10.6398 12.165C10.6441 12.4693 10.9708 12.6127 11.1916 12.7427C11.2285 14.1921 11.479 15.5255 11.5534 15.9647C11.5546 15.9732 11.5564 15.9811 11.5576 15.989C11.586 16.0127 11.6127 16.0334 11.6381 16.0522L11.6641 16.263C11.6641 16.263 11.698 16.2776 11.75 16.297C11.7246 16.3663 11.6816 16.4799 11.6151 16.6475C11.5031 16.9282 11.5062 17.2234 11.5086 17.4609C11.5086 17.4931 11.5092 17.5247 11.5092 17.5551C11.5092 17.806 11.4669 18.2409 11.4064 18.4639C11.3688 18.603 11.3743 18.7141 11.4215 18.7767C11.462 18.8302 11.5304 18.8435 11.612 18.8125C11.7421 18.7633 11.9006 18.5131 11.9769 18.38C11.998 18.5434 12.044 18.8757 12.0918 19.0033C12.1517 19.1631 12.2878 19.4601 12.4669 19.8191C12.5824 20.0512 12.6847 20.1763 12.7791 20.2012C13.1904 22.3766 13.7809 25.3295 14.038 26.0688C14.0816 26.6209 14.1457 27.2928 14.2135 28.0048C14.3823 29.7798 14.5734 31.7917 14.5523 32.9568C14.5232 34.5229 14.4948 34.5873 14.3877 34.826L14.3732 34.8588C14.2498 35.1377 14.3079 35.4991 14.3103 35.5143L14.3139 35.5331L14.3321 35.5386C14.3321 35.5386 14.3708 35.5574 14.476 35.6109C14.4276 35.7798 14.3151 36.0519 14.0532 36.2341C13.9945 36.2949 13.9285 36.3234 13.8541 36.369C13.8311 36.383 13.8075 36.3939 13.7833 36.4085C13.7737 36.4146 13.7634 36.4188 13.7531 36.4243C13.738 36.4328 13.7234 36.4413 13.7077 36.4498C13.695 36.4571 13.6829 36.4638 13.6702 36.4711C13.6569 36.4783 13.6442 36.4862 13.6309 36.4935C13.6151 36.5026 13.5994 36.5111 13.5837 36.5203C13.5734 36.5263 13.5631 36.5318 13.5528 36.5379C13.3725 36.6411 13.1735 36.7523 12.9769 36.8708C12.972 36.8738 12.9672 36.8768 12.9624 36.8793C12.937 36.8945 12.9116 36.9096 12.8867 36.9254C12.8789 36.9303 12.8716 36.9352 12.8638 36.9394C12.8414 36.9534 12.819 36.9674 12.7972 36.9813C12.7887 36.9868 12.7797 36.9923 12.7712 36.9983C12.75 37.0117 12.7288 37.0257 12.7083 37.039C12.6992 37.0451 12.6907 37.0506 12.6817 37.0567C12.6611 37.0706 12.6399 37.0846 12.6199 37.098L12.5945 37.115C12.5728 37.1302 12.5516 37.1447 12.5304 37.1599C12.5238 37.1648 12.5171 37.169 12.5104 37.1739C12.485 37.1921 12.4602 37.2103 12.436 37.2286C12.4336 37.2304 12.4318 37.2316 12.43 37.2334C12.2116 37.398 12.0301 37.57 11.9254 37.7473C11.9254 37.7473 11.9254 37.748 11.9254 37.7486C11.9182 37.7601 11.9121 37.7723 11.9055 37.7844C11.903 37.7887 11.9012 37.7929 11.8988 37.7972C11.8897 37.8154 11.8813 37.8336 11.874 37.8518C11.871 37.8591 11.868 37.867 11.8649 37.8743C11.8619 37.8828 11.8589 37.8919 11.8559 37.9004C11.8522 37.9126 11.8486 37.9241 11.8456 37.9363C11.8438 37.9429 11.8419 37.9496 11.8407 37.9569C11.8377 37.9721 11.8353 37.9873 11.8335 38.0025C11.8335 38.0079 11.8323 38.0128 11.8317 38.0183C11.8298 38.0365 11.8292 38.0541 11.8292 38.0723C11.8292 38.0948 11.8317 38.1161 11.8353 38.1373C11.9248 38.7497 13.0453 38.9848 14.0398 38.9192C14.1475 38.9119 14.2534 38.8955 14.3575 38.8724C14.349 38.89 14.3405 38.9076 14.3339 38.9252C14.3308 38.9325 14.3278 38.9398 14.3254 38.9465C14.3224 38.955 14.3193 38.9641 14.3163 38.9732C14.3127 38.9854 14.3091 38.9969 14.306 39.0091C14.3042 39.0157 14.303 39.0218 14.3012 39.0285C14.2982 39.0437 14.2958 39.0595 14.2939 39.0753C14.2939 39.0801 14.2927 39.0856 14.2921 39.0905C14.2903 39.1087 14.2897 39.1269 14.2903 39.1451C14.2903 39.1676 14.2927 39.1889 14.2964 39.2107C14.3859 39.8231 15.5063 40.0582 16.5009 39.9925C17.53 39.9245 18.4242 39.0437 18.6268 38.7898L18.7279 38.9763C18.7279 38.9763 19.7569 38.6713 19.8247 38.2649C19.8313 38.2303 19.8374 38.1957 19.8428 38.1604C19.9112 37.7285 19.916 37.2438 19.913 37.0002C20.0068 36.9315 20.0794 36.8586 20.1187 36.7869C20.1538 36.7225 20.1605 36.6612 20.1369 36.6089C20.0824 36.4881 20.0564 35.8071 20.0322 35.1492C20.0128 34.6329 19.9929 34.0995 19.9578 33.7836C19.9372 33.6002 19.913 33.4677 19.8894 33.3396C19.8192 32.9593 19.7642 32.6586 19.8773 31.3191C20.0243 29.5757 19.766 27.2564 19.5174 26.6398C19.5766 26.5159 19.7938 26.0384 19.711 25.9132C19.599 25.745 19.4169 25.355 19.4538 24.6357C19.4665 24.3897 19.4786 23.9791 19.4932 23.504C19.518 22.6797 19.5482 21.6992 19.5924 21.0814C19.6208 21.1665 19.6747 21.2357 19.7739 21.2406C19.7866 21.2406 19.7944 21.2297 19.7938 21.2187C19.8882 21.1853 19.9215 21.0407 19.9402 20.9533C19.9529 20.8962 19.9632 20.8384 19.9729 20.7807C20.002 20.7097 20.034 20.6404 20.0673 20.5712C20.1211 20.5359 20.1986 20.5523 20.2518 20.5092C20.3135 20.4594 20.3407 20.3871 20.368 20.3148C20.3819 20.2784 20.3964 20.2419 20.4115 20.2055C20.4339 20.1842 20.4563 20.1623 20.4781 20.1399C20.4859 20.1326 20.4932 20.1241 20.5011 20.1168C20.515 20.1022 20.5295 20.0876 20.5434 20.073C20.5531 20.0627 20.5628 20.0518 20.5725 20.0408C20.5839 20.0281 20.5954 20.0159 20.6063 20.0032C20.6172 19.991 20.6275 19.9783 20.6378 19.9661C20.6475 19.9546 20.6565 19.943 20.6662 19.9309C20.6771 19.9175 20.6874 19.9036 20.6971 19.8896C20.7055 19.878 20.7134 19.8671 20.7213 19.8556C20.7316 19.841 20.7412 19.8258 20.7503 19.8112C20.7576 19.8003 20.7636 19.7887 20.7703 19.7772C20.7794 19.7614 20.7884 19.7456 20.7969 19.7292C20.803 19.7177 20.8078 19.7061 20.8132 19.6946C20.8211 19.6776 20.829 19.6612 20.8356 19.6442C20.8368 19.6417 20.8374 19.6399 20.8386 19.6381V19.6369C20.8477 19.6132 20.8568 19.5889 20.8641 19.564C20.8719 19.5366 20.878 19.5087 20.884 19.4802C20.8858 19.4729 20.887 19.465 20.8883 19.4571C20.8925 19.4322 20.8967 19.4066 20.8997 19.3811C20.8997 19.3781 20.9004 19.3751 20.901 19.372C20.9046 19.3435 20.907 19.3143 20.9088 19.2852C20.9088 19.2779 20.91 19.2706 20.91 19.2639C20.9149 19.1892 20.9167 19.1138 20.9191 19.0409C20.9258 18.8611 20.9457 18.6819 20.95 18.5021C20.9578 18.1559 20.7969 17.8424 20.6983 17.518L20.7001 17.5156ZM7.37051 3.36461C7.37837 3.36582 7.38624 3.36764 7.3935 3.36886C7.40136 3.37007 7.40983 3.3719 7.4177 3.37372C7.40197 3.37068 7.38563 3.36764 7.3693 3.36461H7.37051ZM7.51994 3.39619C7.50845 3.39316 7.49695 3.39073 7.48546 3.3883C7.48001 3.38708 7.47457 3.38587 7.46973 3.38465H7.47033C7.47578 3.38587 7.48062 3.38708 7.48546 3.3883C7.49816 3.39134 7.51087 3.39376 7.52357 3.3968C7.52236 3.3968 7.52115 3.3968 7.51994 3.39619ZM7.60585 3.41867L7.59435 3.41563C7.59072 3.41442 7.58709 3.41381 7.58346 3.4126C7.59072 3.41442 7.59798 3.41685 7.60524 3.41867C7.60766 3.41928 7.61008 3.41989 7.6125 3.42049C7.61553 3.4211 7.61855 3.42232 7.62218 3.42292C7.61674 3.4211 7.61069 3.41989 7.60524 3.41806L7.60585 3.41867Z" fill="white"/>
    <path d="M13.8457 0.387695C13.8495 0.391522 13.8533 0.395987 13.8571 0.400452C13.8533 0.395987 13.8501 0.39216 13.8463 0.387695H13.8457Z" fill="white"/>
  </g>
  <defs>
    <clipPath id="clip0_4091_15932">
      <rect width="20.9524" height="40" fill="white"/>
    </clipPath>
  </defs>
</svg>