<svg xmlns="http://www.w3.org/2000/svg" width="44" height="36" viewBox="0 0 44 36" fill="none">
  <g filter="url(#filter0_d_1506_9539)">
    <path fill-rule="evenodd" clip-rule="evenodd" d="M8 9C8 8.44772 8.44772 8 9 8H35C35.5523 8 36 8.44772 36 9C36 9.55228 35.5523 10 35 10H9C8.44772 10 8 9.55228 8 9ZM8 18C8 17.4477 8.44772 17 9 17H35C35.5523 17 36 17.4477 36 18C36 18.5523 35.5523 19 35 19H9C8.44772 19 8 18.5523 8 18ZM18 26C17.4477 26 17 26.4477 17 27C17 27.5523 17.4477 28 18 28L35 28C35.5523 28 36 27.5523 36 27C36 26.4477 35.5523 26 35 26L18 26Z" fill="white"/>
  </g>
  <circle cx="30" cy="9" r="6" fill="#FC2D7C"/>
  <defs>
    <filter id="filter0_d_1506_9539" x="0" y="0" width="44" height="36" filterUnits="userSpaceOnUse" color-interpolation-filters="sRGB">
      <feFlood flood-opacity="0" result="BackgroundImageFix"/>
      <feColorMatrix in="SourceAlpha" type="matrix" values="0 0 0 0 0 0 0 0 0 0 0 0 0 0 0 0 0 0 127 0" result="hardAlpha"/>
      <feOffset/>
      <feGaussianBlur stdDeviation="4"/>
      <feComposite in2="hardAlpha" operator="out"/>
      <feColorMatrix type="matrix" values="0 0 0 0 0 0 0 0 0 0 0 0 0 0 0 0 0 0 0.65 0"/>
      <feBlend mode="normal" in2="BackgroundImageFix" result="effect1_dropShadow_1506_9539"/>
      <feBlend mode="normal" in="SourceGraphic" in2="effect1_dropShadow_1506_9539" result="shape"/>
    </filter>
  </defs>
</svg>