<svg xmlns="http://www.w3.org/2000/svg" width="32" height="33" viewBox="0 0 32 33" fill="none">
<path d="M26 7.5H22.535L20.8312 4.945C20.74 4.80819 20.6164 4.696 20.4714 4.61838C20.3264 4.54076 20.1645 4.5001 20 4.5H12C11.8355 4.5001 11.6736 4.54076 11.5286 4.61838C11.3836 4.696 11.26 4.80819 11.1687 4.945L9.46375 7.5H6C5.20435 7.5 4.44129 7.81607 3.87868 8.37868C3.31607 8.94129 3 9.70435 3 10.5V24.5C3 25.2956 3.31607 26.0587 3.87868 26.6213C4.44129 27.1839 5.20435 27.5 6 27.5H26C26.7956 27.5 27.5587 27.1839 28.1213 26.6213C28.6839 26.0587 29 25.2956 29 24.5V10.5C29 9.70435 28.6839 8.94129 28.1213 8.37868C27.5587 7.81607 26.7956 7.5 26 7.5ZM27 24.5C27 24.7652 26.8946 25.0196 26.7071 25.2071C26.5196 25.3946 26.2652 25.5 26 25.5H6C5.73478 25.5 5.48043 25.3946 5.29289 25.2071C5.10536 25.0196 5 24.7652 5 24.5V10.5C5 10.2348 5.10536 9.98043 5.29289 9.79289C5.48043 9.60536 5.73478 9.5 6 9.5H10C10.1647 9.50011 10.3268 9.45954 10.4721 9.38191C10.6173 9.30428 10.7411 9.19199 10.8325 9.055L12.535 6.5H19.4638L21.1675 9.055C21.2589 9.19199 21.3827 9.30428 21.5279 9.38191C21.6732 9.45954 21.8353 9.50011 22 9.5H26C26.2652 9.5 26.5196 9.60536 26.7071 9.79289C26.8946 9.98043 27 10.2348 27 10.5V24.5ZM16 11.5C14.9122 11.5 13.8488 11.8226 12.9444 12.4269C12.0399 13.0313 11.3349 13.8902 10.9187 14.8952C10.5024 15.9002 10.3935 17.0061 10.6057 18.073C10.8179 19.1399 11.3417 20.1199 12.1109 20.8891C12.8801 21.6583 13.8601 22.1821 14.927 22.3943C15.9939 22.6065 17.0998 22.4976 18.1048 22.0813C19.1098 21.6651 19.9687 20.9601 20.5731 20.0556C21.1774 19.1512 21.5 18.0878 21.5 17C21.4983 15.5418 20.9184 14.1438 19.8873 13.1127C18.8562 12.0816 17.4582 11.5017 16 11.5ZM16 20.5C15.3078 20.5 14.6311 20.2947 14.0555 19.9101C13.4799 19.5256 13.0313 18.9789 12.7664 18.3394C12.5015 17.6999 12.4322 16.9961 12.5673 16.3172C12.7023 15.6383 13.0356 15.0146 13.5251 14.5251C14.0146 14.0356 14.6383 13.7023 15.3172 13.5673C15.9961 13.4322 16.6999 13.5015 17.3394 13.7664C17.9789 14.0313 18.5256 14.4799 18.9101 15.0555C19.2947 15.6311 19.5 16.3078 19.5 17C19.5 17.9283 19.1313 18.8185 18.4749 19.4749C17.8185 20.1313 16.9283 20.5 16 20.5Z" fill="#1D1A22"/>
</svg>