<svg xmlns="http://www.w3.org/2000/svg" width="24" height="24" viewBox="0 0 24 24" fill="none">
  <rect width="24" height="24" rx="12" fill="#111111" fill-opacity="0.5"/>
  <path fill-rule="evenodd" clip-rule="evenodd" d="M8.10657 8.10644C7.97771 8.23531 7.97771 8.44424 8.10657 8.57311L11.1399 11.6065L8.10661 14.6398C7.97774 14.7687 7.97774 14.9776 8.10661 15.1065C8.23547 15.2353 8.44441 15.2353 8.57327 15.1065L11.6066 12.0731L14.6399 15.1065C14.7688 15.2353 14.9777 15.2353 15.1066 15.1065C15.2355 14.9776 15.2355 14.7687 15.1066 14.6398L12.0733 11.6065L15.1066 8.57312C15.2355 8.44426 15.2355 8.23532 15.1066 8.10646C14.9778 7.97759 14.7688 7.97759 14.64 8.10646L11.6066 11.1398L8.57324 8.10644C8.44438 7.97757 8.23544 7.97757 8.10657 8.10644Z" fill="white"/>
</svg>