<svg xmlns="http://www.w3.org/2000/svg" width="24" height="24" viewBox="0 0 24 24" fill="none">
  <rect width="24" height="24" rx="12" fill="#111111" fill-opacity="0.1"/>
  <path fill-rule="evenodd" clip-rule="evenodd" d="M8.1067 8.10644C7.97783 8.23531 7.97783 8.44424 8.1067 8.57311L11.1401 11.6065L8.10673 14.6398C7.97786 14.7687 7.97786 14.9776 8.10673 15.1065C8.23559 15.2353 8.44453 15.2353 8.5734 15.1065L11.6067 12.0731L14.6401 15.1065C14.7689 15.2353 14.9779 15.2353 15.1067 15.1065C15.2356 14.9776 15.2356 14.7687 15.1067 14.6398L12.0734 11.6065L15.1068 8.57312C15.2356 8.44426 15.2356 8.23532 15.1068 8.10646C14.9779 7.97759 14.769 7.97759 14.6401 8.10646L11.6067 11.1398L8.57336 8.10644C8.4445 7.97757 8.23556 7.97757 8.1067 8.10644Z" fill="white"/>
</svg>