<svg width="23" height="22" viewBox="0 0 23 22" fill="none" xmlns="http://www.w3.org/2000/svg">
<g id="chat-dots 1" clip-path="url(#clip0_1539_8325)">
<path id="Vector" d="M8.07495 11C8.07495 11.3647 7.93009 11.7144 7.67222 11.9723C7.41436 12.2301 7.06462 12.375 6.69995 12.375C6.33528 12.375 5.98554 12.2301 5.72768 11.9723C5.46982 11.7144 5.32495 11.3647 5.32495 11C5.32495 10.6353 5.46982 10.2856 5.72768 10.0277C5.98554 9.76987 6.33528 9.625 6.69995 9.625C7.06462 9.625 7.41436 9.76987 7.67222 10.0277C7.93009 10.2856 8.07495 10.6353 8.07495 11ZM12.575 11C12.575 11.3647 12.4301 11.7144 12.1722 11.9723C11.9144 12.2301 11.5646 12.375 11.2 12.375C10.8353 12.375 10.4855 12.2301 10.2277 11.9723C9.96982 11.7144 9.82495 11.3647 9.82495 11C9.82495 10.6353 9.96982 10.2856 10.2277 10.0277C10.4855 9.76987 10.8353 9.625 11.2 9.625C11.5646 9.625 11.9144 9.76987 12.1722 10.0277C12.4301 10.2856 12.575 10.6353 12.575 11ZM15.7 12.375C16.0646 12.375 16.4144 12.2301 16.6722 11.9723C16.9301 11.7144 17.075 11.3647 17.075 11C17.075 10.6353 16.9301 10.2856 16.6722 10.0277C16.4144 9.76987 16.0646 9.625 15.7 9.625C15.3353 9.625 14.9855 9.76987 14.7277 10.0277C14.4698 10.2856 14.325 10.6353 14.325 11C14.325 11.3647 14.4698 11.7144 14.7277 11.9723C14.9855 12.2301 15.3353 12.375 15.7 12.375Z" fill="#333333"/>
<path id="Vector_2" d="M3.17683 21.7291L3.20433 21.7236C5.72058 21.2245 7.25783 20.5659 7.97283 20.2043C9.02532 20.486 10.1104 20.6274 11.2 20.625C17.2747 20.625 22.2 16.3158 22.2 11C22.2 5.68425 17.2747 1.375 11.2 1.375C5.1252 1.375 0.199951 5.68425 0.199951 11C0.199951 13.42 1.22158 15.6338 2.9087 17.325C2.79111 18.4115 2.54936 19.4809 2.1882 20.5123L2.18408 20.5274C2.08132 20.8227 1.96944 21.1148 1.84858 21.4032C1.73995 21.659 1.95033 21.945 2.22395 21.901C2.54247 21.8488 2.86014 21.7915 3.17683 21.7291ZM4.27683 17.4556C4.29609 17.2543 4.27071 17.0512 4.2025 16.8609C4.13428 16.6705 4.02492 16.4975 3.8822 16.3542C2.4247 14.8912 1.57495 13.0185 1.57495 11C1.57495 6.611 5.70545 2.75 11.2 2.75C16.6945 2.75 20.825 6.611 20.825 11C20.825 15.389 16.6945 19.25 11.2 19.25C10.2307 19.2524 9.26529 19.1266 8.32895 18.876C8.00167 18.7883 7.65353 18.8245 7.35133 18.9778C6.8192 19.2472 5.64633 19.7615 3.72958 20.2056C3.99675 19.3079 4.17995 18.3873 4.27683 17.4556Z" fill="#333333"/>
</g>
<defs>
<clipPath id="clip0_1539_8325">
<rect width="22" height="22" fill="white" transform="translate(0.199951)"/>
</clipPath>
</defs>
</svg>
