<svg width="12" height="12" viewBox="0 0 12 12" fill="none" xmlns="http://www.w3.org/2000/svg">
<path d="M4.01204 9.12832L3.7688 9.0628L3.57139 9.21929C2.83012 9.80693 2.00769 10.1272 1.33008 10.3006C1.95289 9.49396 2.11651 8.89454 2.14799 8.54482L2.17244 8.27314L1.95724 8.10553C1.02841 7.3821 0.5 6.43872 0.5 5.44444C0.5 4.41289 1.06613 3.43818 2.05978 2.70341C3.05318 1.96883 4.44656 1.5 6 1.5C7.55344 1.5 8.94682 1.96883 9.94022 2.70341C10.9339 3.43818 11.5 4.41289 11.5 5.44444C11.5 6.476 10.9339 7.45071 9.94022 8.18548C8.94682 8.92006 7.55344 9.38889 6 9.38889C5.30062 9.38889 4.63033 9.29486 4.01204 9.12832Z" stroke="#EEEEEE"/>
</svg>
