<svg width="20" height="21" viewBox="0 0 20 21" fill="none" xmlns="http://www.w3.org/2000/svg">
<g id="Frame 1672">
<rect y="0.5" width="20" height="20" rx="10" fill="#111111" fill-opacity="0.2"/>
<path id="Union" fill-rule="evenodd" clip-rule="evenodd" d="M11.3676 7.80165C12.4869 9.0233 12.4038 10.921 11.1822 12.0402C9.96055 13.1595 8.06287 13.0765 6.94361 11.8548C5.82435 10.6332 5.90736 8.73552 7.12901 7.61626C8.35066 6.497 10.2483 6.58001 11.3676 7.80165ZM12.2055 12.417C13.4941 10.9026 13.4829 8.63014 12.1049 7.12612C10.6126 5.49726 8.08234 5.38658 6.45347 6.87893C4.82461 8.37127 4.71393 10.9015 6.20628 12.5304C7.58423 14.0344 9.84708 14.244 11.4682 13.0925L12.8401 14.59C13.0267 14.7936 13.3429 14.8074 13.5466 14.6209C13.7502 14.4344 13.764 14.1181 13.5775 13.9145L12.2055 12.417Z" fill="#DDDDDD"/>
</g>
</svg>
