<svg width="20" height="21" viewBox="0 0 20 21" fill="none" xmlns="http://www.w3.org/2000/svg">
<g id="Frame 1672">
<rect y="0.5" width="20" height="20" rx="10" fill="#111111" fill-opacity="0.2"/>
<path id="Union" fill-rule="evenodd" clip-rule="evenodd" d="M7 10.5C7 11.0523 6.55228 11.5 6 11.5C5.44772 11.5 5 11.0523 5 10.5C5 9.94772 5.44772 9.5 6 9.5C6.55228 9.5 7 9.94772 7 10.5ZM11 10.5C11 11.0523 10.5523 11.5 10 11.5C9.44772 11.5 9 11.0523 9 10.5C9 9.94772 9.44772 9.5 10 9.5C10.5523 9.5 11 9.94772 11 10.5ZM14 11.5C14.5523 11.5 15 11.0523 15 10.5C15 9.94772 14.5523 9.5 14 9.5C13.4477 9.5 13 9.94772 13 10.5C13 11.0523 13.4477 11.5 14 11.5Z" fill="#DDDDDD"/>
</g>
</svg>
