<svg xmlns="http://www.w3.org/2000/svg" width="150" height="177" viewBox="0 0 150 177" fill="none">
  <path d="M144.32 88.9992C144.32 82.8392 146.115 77.1016 149.142 72.244L24.112 0.0488281C8.8 26.1496 0 56.5448 0 88.9992C0 121.454 8.3776 150.388 23.0208 176.066L148.051 103.889C145.675 99.4536 144.338 94.3848 144.338 88.9992H144.32Z" fill="#111111" fill-opacity="0.3"/>
  <path d="M144.07 88.9992V89.2492H144.089C144.129 94.4974 145.429 99.4423 147.717 103.793L23.1136 175.724C8.56797 150.136 0.25 121.316 0.25 88.9992C0.25 56.6794 8.9894 26.4052 24.2022 0.389568L148.794 72.3318C145.826 77.1797 144.07 82.8827 144.07 88.9992Z" stroke="white" stroke-opacity="0.15" stroke-width="0.5"/>
</svg>