<svg width="18" height="18" viewBox="0 0 18 18" fill="none" xmlns="http://www.w3.org/2000/svg">
<g id="link-45deg 1">
<path id="Vector" d="M5.30432 7.35975L3.76081 8.90325C3.12783 9.53624 2.77222 10.3948 2.77222 11.2899C2.77222 12.1851 3.12783 13.0436 3.76081 13.6766C4.3938 14.3096 5.25232 14.6652 6.1475 14.6652C7.04268 14.6652 7.9012 14.3096 8.53419 13.6766L10.5907 11.619C10.9724 11.2372 11.257 10.7695 11.4205 10.255C11.584 9.7405 11.6217 9.19429 11.5305 8.6622C11.4392 8.13012 11.2217 7.62769 10.896 7.19708C10.5704 6.76648 10.1463 6.42026 9.65919 6.1875L8.99994 6.84675C8.93299 6.91378 8.87478 6.989 8.82669 7.07062C9.20303 7.17882 9.54462 7.38335 9.8177 7.66402C10.0908 7.94468 10.2859 8.29175 10.3837 8.67092C10.4815 9.05008 10.4787 9.44822 10.3755 9.82596C10.2723 10.2037 10.0723 10.548 9.79531 10.8247L7.73994 12.8812C7.31775 13.3034 6.74513 13.5406 6.14807 13.5406C5.551 13.5406 4.97838 13.3034 4.55619 12.8812C4.134 12.4591 3.89681 11.8864 3.89681 11.2894C3.89681 10.6923 4.134 10.1197 4.55619 9.6975L5.44831 8.8065C5.32209 8.33488 5.27346 7.84699 5.30432 7.35975Z" fill="#555555"/>
<path id="Vector_2" d="M7.40924 5.25604C7.02754 5.6378 6.74298 6.10555 6.57945 6.62005C6.41593 7.13454 6.37821 7.68075 6.46946 8.21283C6.56072 8.74492 6.77828 9.24735 7.10388 9.67796C7.42949 10.1086 7.85365 10.4548 8.34074 10.6875L9.21262 9.81454C8.83118 9.71222 8.4834 9.51132 8.20421 9.23201C7.92502 8.95271 7.72426 8.60484 7.62211 8.22336C7.51995 7.84188 7.52001 7.44024 7.62226 7.05879C7.72451 6.67734 7.92536 6.32952 8.20462 6.05029L10.26 3.99379C10.6822 3.57159 11.2548 3.33441 11.8519 3.33441C12.4489 3.33441 13.0216 3.57159 13.4437 3.99379C13.8659 4.41598 14.1031 4.98859 14.1031 5.58566C14.1031 6.18273 13.8659 6.75534 13.4437 7.17754L12.5516 8.06854C12.6776 8.54104 12.726 9.03041 12.6956 9.51641L14.2391 7.97291C14.8721 7.33992 15.2277 6.4814 15.2277 5.58622C15.2277 4.69104 14.8721 3.83252 14.2391 3.19954C13.6061 2.56655 12.7476 2.21094 11.8524 2.21094C10.9572 2.21094 10.0987 2.56655 9.46574 3.19954L7.40924 5.25604Z" fill="#555555"/>
</g>
</svg>
