<svg width="40" height="40" viewBox="0 0 40 40" fill="none" xmlns="http://www.w3.org/2000/svg">
<g id="Frame 1501">
<rect width="40" height="40" rx="19" fill="#42454A" fill-opacity="0.4"/>
<path id="Union" fill-rule="evenodd" clip-rule="evenodd" d="M25.9357 27.6572C26.3262 28.0477 26.9593 28.0477 27.3499 27.6572C27.7404 27.2667 27.7404 26.6335 27.3499 26.243L20.6435 19.5366L26.8865 13.2936C27.277 12.9031 27.277 12.2699 26.8865 11.8794C26.496 11.4889 25.8628 11.4889 25.4723 11.8794L19.2293 18.1224L13.4496 12.3428C13.0591 11.9522 12.4259 11.9522 12.0354 12.3428C11.6449 12.7333 11.6449 13.3664 12.0354 13.757L17.8151 19.5366L11.572 25.7797C11.1815 26.1702 11.1815 26.8033 11.572 27.1939C11.9626 27.5844 12.5957 27.5844 12.9863 27.1939L19.2293 20.9508L25.9357 27.6572Z" fill="white"/>
</g>
</svg>
