<svg xmlns="http://www.w3.org/2000/svg" width="36" height="36" viewBox="0 0 36 36" fill="none">
  <rect width="36" height="36" rx="18" fill="black" fill-opacity="0.1"/>
  <path fill-rule="evenodd" clip-rule="evenodd" d="M25.7782 11.636C26.1687 11.2455 26.1687 10.6123 25.7782 10.2218C25.3876 9.83125 24.7545 9.83125 24.364 10.2218L18 16.5857L11.636 10.2218C11.2455 9.83125 10.6124 9.83125 10.2218 10.2218C9.8313 10.6123 9.8313 11.2455 10.2218 11.636L16.5858 18L10.2218 24.3639C9.8313 24.7544 9.8313 25.3876 10.2218 25.7781C10.6124 26.1687 11.2455 26.1687 11.636 25.7781L18 19.4142L24.364 25.7781C24.7545 26.1687 25.3876 26.1687 25.7782 25.7781C26.1687 25.3876 26.1687 24.7544 25.7782 24.3639L19.4142 18L25.7782 11.636Z" fill="white"/>
</svg>
