<svg xmlns="http://www.w3.org/2000/svg" width="27" height="27" viewBox="0 0 27 27" fill="none">
  <path fill-rule="evenodd" clip-rule="evenodd" d="M19.7149 8.70711C20.1054 8.31658 20.1054 7.68342 19.7149 7.29289C19.3243 6.90237 18.6912 6.90237 18.3006 7.29289L13.5039 12.0897L8.70711 7.29289C8.31658 6.90237 7.68342 6.90237 7.29289 7.29289C6.90237 7.68342 6.90237 8.31658 7.29289 8.70711L12.0897 13.5039L7.29289 18.3006C6.90237 18.6912 6.90237 19.3243 7.29289 19.7149C7.68342 20.1054 8.31658 20.1054 8.70711 19.7149L13.5039 14.9181L18.3006 19.7149C18.6912 20.1054 19.3243 20.1054 19.7149 19.7149C20.1054 19.3243 20.1054 18.6912 19.7149 18.3006L14.9181 13.5039L19.7149 8.70711Z" fill="#121212"/>
</svg>