<svg xmlns="http://www.w3.org/2000/svg" width="36" height="36" viewBox="0 0 36 36" fill="none">
  <path fill-rule="evenodd" clip-rule="evenodd" d="M25.7782 11.6357C26.1687 11.2452 26.1687 10.6121 25.7782 10.2215C25.3876 9.83101 24.7545 9.83101 24.364 10.2215L18 16.5855L11.636 10.2215C11.2455 9.83101 10.6124 9.83101 10.2218 10.2215C9.8313 10.6121 9.8313 11.2452 10.2218 11.6357L16.5858 17.9997L10.2218 24.3637C9.8313 24.7542 9.8313 25.3874 10.2218 25.7779C10.6124 26.1684 11.2455 26.1684 11.636 25.7779L18 19.4139L24.364 25.7779C24.7545 26.1684 25.3876 26.1684 25.7782 25.7779C26.1687 25.3874 26.1687 24.7542 25.7782 24.3637L19.4142 17.9997L25.7782 11.6357Z" fill="#333333"/>
</svg>