<svg width="20" height="17" viewBox="0 0 20 17" fill="none" xmlns="http://www.w3.org/2000/svg">
<path id="Vector" d="M9.98495 3.97873L10.4 4.59693L10.8152 3.97873C11.4266 3.06808 12.3788 2.1271 13.1466 1.67627C13.9296 1.2165 14.6114 1 15.4824 1C16.6555 1 17.5156 1.37032 18.3182 2.13089C19.1097 2.88104 19.5 3.79086 19.5 4.89216C19.5 5.48563 19.3809 6.08472 19.1362 6.69234C18.8949 7.29166 18.4585 7.99321 17.8048 8.79948C17.1522 9.6043 16.2541 10.5507 15.1044 11.6404C13.9536 12.731 12.4796 14.0499 10.6808 15.5982L10.6806 15.5983L10.4 15.84L10.1212 15.5998C10.121 15.5996 10.1207 15.5994 10.1204 15.5991C8.33972 14.0507 6.86935 12.7309 5.70807 11.639C4.54936 10.5495 3.64728 9.60355 2.99532 8.79948C2.34159 7.99321 1.90517 7.29166 1.66387 6.69234C1.41922 6.08472 1.30005 5.48563 1.30005 4.89216C1.30005 3.79086 1.69038 2.88104 2.48192 2.13089C3.27479 1.37947 4.24794 1 5.43453 1C6.31963 1 7.14266 1.2243 7.9124 1.67627C8.64642 2.10726 9.33456 3.01014 9.98495 3.97873Z" fill="#CCCCCC" stroke="#777777"/>
</svg>
