<svg xmlns="http://www.w3.org/2000/svg" width="21" height="21" viewBox="0 0 21 21" fill="none">
  <path fill-rule="evenodd" clip-rule="evenodd" d="M19.2498 20.4293C18.9296 20.4679 18.4269 20.5046 17.8246 20.4994C16.3946 20.4872 14.4027 20.2389 12.9544 19.2197C12.167 19.3901 11.3452 19.4803 10.5 19.4803C4.70101 19.4803 0 15.2315 0 9.99017C0 4.7489 4.70101 0.5 10.5 0.5C16.299 0.5 21 4.7489 21 9.99017C21 12.5828 19.8498 14.9325 17.9854 16.6453C17.9921 16.7388 17.9985 16.8382 18.0052 16.9422C18.0549 17.7132 18.121 18.7389 18.4204 19.4903C18.5988 19.938 18.86 20.2883 19.2498 20.4293Z" fill="#FC2D7C"/>
  <circle cx="5.5" cy="10" r="1.5" fill="white"/>
  <circle cx="10.5" cy="10" r="1.5" fill="white"/>
  <circle cx="15.5" cy="10" r="1.5" fill="white"/>
</svg>