<svg xmlns="http://www.w3.org/2000/svg" width="28" height="28" viewBox="0 0 28 28" fill="none">
  <path fill-rule="evenodd" clip-rule="evenodd" d="M6.24701 21.2736C6.27966 20.8352 6.10448 20.4069 5.77396 20.117C3.75766 18.3488 2.5665 15.9755 2.5665 13.4054C2.5665 8.2506 7.48425 3.7335 13.9998 3.7335C20.5154 3.7335 25.4332 8.2506 25.4332 13.4054C25.4332 18.5601 20.5154 23.0772 13.9998 23.0772C13.0621 23.0772 12.1525 22.9817 11.2833 22.8021C10.915 22.726 10.5315 22.8013 10.2193 23.011C9.2283 23.6768 7.89019 24.0291 6.54994 24.1781C6.31953 24.2037 6.09321 24.2229 5.8735 24.2367C6.10737 23.3341 6.17452 22.3377 6.22023 21.6595L6.22353 21.6105C6.23181 21.488 6.23931 21.377 6.24701 21.2736ZM3.30544 25.5844C3.73809 25.6342 4.44301 25.6813 5.28383 25.6627C7.0098 25.6245 9.3084 25.3096 11 24.1731C11.9624 24.3719 12.9669 24.4772 13.9998 24.4772C21.0875 24.4772 26.8332 19.5202 26.8332 13.4054C26.8332 7.29054 21.0875 2.3335 13.9998 2.3335C6.91218 2.3335 1.1665 7.29054 1.1665 13.4054C1.1665 16.43 2.57227 19.1713 4.85088 21.1696C4.84275 21.2787 4.83492 21.3947 4.82671 21.5162C4.77112 22.3391 4.69873 23.4109 4.40658 24.2586C4.18915 24.8896 3.84999 25.3965 3.30544 25.5844ZM8.74984 15.1668C9.71634 15.1668 10.4998 14.3833 10.4998 13.4168C10.4998 12.4503 9.71634 11.6668 8.74984 11.6668C7.78334 11.6668 6.99984 12.4503 6.99984 13.4168C6.99984 14.3833 7.78334 15.1668 8.74984 15.1668ZM15.7498 13.4168C15.7498 14.3833 14.9663 15.1668 13.9998 15.1668C13.0333 15.1668 12.2498 14.3833 12.2498 13.4168C12.2498 12.4503 13.0333 11.6668 13.9998 11.6668C14.9663 11.6668 15.7498 12.4503 15.7498 13.4168ZM19.2498 15.1668C20.2163 15.1668 20.9998 14.3833 20.9998 13.4168C20.9998 12.4503 20.2163 11.6668 19.2498 11.6668C18.2833 11.6668 17.4998 12.4503 17.4998 13.4168C17.4998 14.3833 18.2833 15.1668 19.2498 15.1668Z" fill="white"/>
</svg>