<svg xmlns="http://www.w3.org/2000/svg" width="25" height="24" viewBox="0 0 25 24" fill="none">
  <mask id="path-1-inside-1_3913_5314" fill="white">
    <path fill-rule="evenodd" clip-rule="evenodd" d="M12.7239 20.9803C18.799 20.9803 23.7239 16.7315 23.7239 11.4902C23.7239 6.2489 18.799 2 12.7239 2C6.64874 2 1.72388 6.2489 1.72388 11.4902C1.72388 14.0827 2.92882 16.4324 4.88191 18.1453C4.87495 18.2388 4.86823 18.3382 4.8612 18.4423C4.77809 19.6727 4.65116 21.5519 3.55725 21.9294C4.68934 22.0596 7.99629 22.1684 10.1526 20.7197C10.9775 20.8901 11.8385 20.9803 12.7239 20.9803Z"/>
  </mask>
  <path d="M4.88191 18.1453L5.87915 18.2195C5.90247 17.9064 5.77734 17.6005 5.54126 17.3934L4.88191 18.1453ZM4.8612 18.4423L3.86347 18.3749L4.8612 18.4423ZM3.55725 21.9294L3.23103 20.9841C2.78965 21.1364 2.51243 21.5739 2.56317 22.038C2.61391 22.5022 2.97911 22.8695 3.44297 22.9228L3.55725 21.9294ZM10.1526 20.7197L10.355 19.7404C10.0919 19.686 9.81796 19.7398 9.59496 19.8896L10.1526 20.7197ZM22.7239 11.4902C22.7239 16.0457 18.3904 19.9803 12.7239 19.9803V21.9803C19.2076 21.9803 24.7239 17.4172 24.7239 11.4902H22.7239ZM12.7239 3C18.3904 3 22.7239 6.93465 22.7239 11.4902H24.7239C24.7239 5.56314 19.2076 1 12.7239 1V3ZM2.72388 11.4902C2.72388 6.93465 7.05736 3 12.7239 3V1C6.24013 1 0.723877 5.56314 0.723877 11.4902H2.72388ZM5.54126 17.3934C3.77552 15.8449 2.72388 13.7581 2.72388 11.4902H0.723877C0.723877 14.4073 2.08212 17.02 4.22256 18.8971L5.54126 17.3934ZM5.85893 18.5097C5.86601 18.4048 5.87249 18.309 5.87915 18.2195L3.88467 18.071C3.87741 18.1686 3.87045 18.2716 3.86347 18.3749L5.85893 18.5097ZM3.88347 22.8747C4.93579 22.5115 5.36015 21.4922 5.55451 20.7633C5.76276 19.9823 5.8187 19.1052 5.85893 18.5097L3.86347 18.3749C3.82059 19.0098 3.77151 19.6875 3.62203 20.248C3.45868 20.8607 3.27262 20.9697 3.23103 20.9841L3.88347 22.8747ZM9.59496 19.8896C8.7074 20.4859 7.52397 20.7934 6.36035 20.9227C5.20974 21.0507 4.1765 20.994 3.67153 20.9359L3.44297 22.9228C4.07009 22.9949 5.25637 23.0578 6.58134 22.9105C7.8933 22.7646 9.44151 22.4021 10.7103 21.5497L9.59496 19.8896ZM12.7239 19.9803C11.9065 19.9803 11.1133 19.897 10.355 19.7404L9.95029 21.699C10.8417 21.8832 11.7705 21.9803 12.7239 21.9803V19.9803Z" fill="white" mask="url(#path-1-inside-1_3913_5314)"/>
  <circle cx="8.22388" cy="11.5" r="1.5" fill="white"/>
  <circle cx="12.7239" cy="11.5" r="1.5" fill="white"/>
  <circle cx="17.2239" cy="11.5" r="1.5" fill="white"/>
</svg>