<svg xmlns="http://www.w3.org/2000/svg" width="17" height="17" viewBox="0 0 17 17" fill="none">
  <g clip-path="url(#clip0_3_24447)">
    <path d="M10.2791 5.06982H12.2325C12.6601 5.06982 13.0835 5.15404 13.4785 5.31766C13.8735 5.48128 14.2324 5.7211 14.5348 6.02343C14.8371 6.32576 15.0769 6.68468 15.2405 7.07969C15.4041 7.47471 15.4884 7.89808 15.4884 8.32564C15.4884 8.7532 15.4041 9.17657 15.2405 9.57158C15.0769 9.9666 14.8371 10.3255 14.5348 10.6278C14.2324 10.9302 13.8735 11.17 13.4785 11.3336C13.0835 11.4972 12.6601 11.5815 12.2325 11.5815H10.2791M6.37208 11.5815H4.41859C3.99104 11.5815 3.56766 11.4972 3.17265 11.3336C2.77764 11.17 2.41872 10.9302 2.11639 10.6278C1.5058 10.0173 1.16278 9.18913 1.16278 8.32564C1.16278 7.46214 1.5058 6.63401 2.11639 6.02343C2.72697 5.41285 3.5551 5.06982 4.41859 5.06982H6.37208" stroke="white" stroke-width="1.25" stroke-linecap="round" stroke-linejoin="round"/>
    <path d="M5.72092 8.32568H10.9302" stroke="white" stroke-width="1.25" stroke-linecap="round" stroke-linejoin="round"/>
  </g>
  <defs>
    <clipPath id="clip0_3_24447">
      <rect width="15.6279" height="15.6279" fill="white" transform="translate(0.511627 0.511719)"/>
    </clipPath>
  </defs>
</svg>