<svg width="4" height="4" viewBox="0 0 4 4" fill="none" xmlns="http://www.w3.org/2000/svg">
<path d="M3.696 1.764C3.696 1.972 3.66 2.168 3.588 2.352C3.516 2.536 3.412 2.696 3.276 2.832C3.148 2.968 2.988 3.08 2.796 3.168C2.612 3.248 2.4 3.288 2.16 3.288C1.92 3.288 1.704 3.248 1.512 3.168C1.328 3.08 1.168 2.968 1.032 2.832C0.904 2.696 0.804 2.536 0.732 2.352C0.66 2.168 0.624 1.972 0.624 1.764C0.624 1.564 0.66 1.372 0.732 1.188C0.804 0.996 0.904 0.832 1.032 0.696C1.168 0.56 1.328 0.452 1.512 0.372C1.704 0.284 1.92 0.24 2.16 0.24C2.4 0.24 2.612 0.284 2.796 0.372C2.988 0.452 3.148 0.56 3.276 0.696C3.412 0.832 3.516 0.996 3.588 1.188C3.66 1.372 3.696 1.564 3.696 1.764Z" fill="#E7E0EC"/>
</svg>
