<svg width="32" height="32" viewBox="0 0 32 32" fill="none" xmlns="http://www.w3.org/2000/svg">
<g id="atom">
<rect x="1" y="1" width="30" height="30" rx="13" stroke="url(#paint0_linear_3106_189)" stroke-width="2"/>
<path id="Union" fill-rule="evenodd" clip-rule="evenodd" d="M16 8C15.4477 8 15 8.44772 15 9V15H9C8.44772 15 8 15.4477 8 16C8 16.5523 8.44772 17 9 17H15V23C15 23.5523 15.4477 24 16 24C16.5523 24 17 23.5523 17 23V17H23C23.5523 17 24 16.5523 24 16C24 15.4477 23.5523 15 23 15H17V9C17 8.44772 16.5523 8 16 8Z" fill="url(#paint1_linear_3106_189)"/>
</g>
<defs>
<linearGradient id="paint0_linear_3106_189" x1="7.14324e-07" y1="1.5" x2="29.5" y2="31" gradientUnits="userSpaceOnUse">
<stop stop-color="#FF5697"/>
<stop offset="1" stop-color="#FC2D7C"/>
</linearGradient>
<linearGradient id="paint1_linear_3106_189" x1="9.5" y1="8" x2="22.5" y2="23" gradientUnits="userSpaceOnUse">
<stop stop-color="#FF5697"/>
<stop offset="1" stop-color="#FD317F"/>
</linearGradient>
</defs>
</svg>
