<svg xmlns="http://www.w3.org/2000/svg" width="21" height="43" viewBox="0 0 21 43" fill="none">
  <g clip-path="url(#clip0_2450_58346)">
    <path d="M20.1657 5.51767C20.1006 5.06562 20.0459 4.60012 20.0564 4.14269C20.0616 3.89783 20.098 3.731 19.9314 3.53726C19.7178 3.28702 19.4496 3.13096 19.2126 2.91032C19.0616 2.7704 18.9105 2.63048 18.7517 2.49594C18.6683 2.42598 18.5538 2.37216 18.4887 2.28875C18.6345 1.73714 18.0485 1.27702 17.6631 1.01601C17.3038 0.773846 17.0017 0.709267 16.5824 0.676978C16.1605 0.644689 15.7282 0.518223 15.3116 0.523604C14.9027 0.528986 14.7517 0.768464 14.5277 1.08597C14.4079 1.25549 14.3402 1.44923 14.2673 1.64565C14.184 1.87168 14.072 2.0681 13.9366 2.26722C13.8194 2.43674 13.6683 2.52554 13.5121 2.652C13.3298 2.7973 13.1553 2.95068 12.973 3.09598C12.6788 3.32738 12.4079 3.52112 12.5095 3.94895C12.5746 4.2261 12.7387 4.4306 12.9887 4.54092C13.0798 4.58128 13.2022 4.58666 13.2647 4.64317C13.4548 4.82345 13.5199 5.04948 13.3923 5.2755C13.3168 5.41004 13.1397 5.67642 12.9704 5.68719C12.7517 5.70064 12.6683 5.5661 12.611 5.36968C12.5147 5.03602 12.2595 4.65931 11.8949 4.64855C11.736 4.64317 11.5668 4.65931 11.4366 4.55168C11.2569 4.401 11.1605 4.22879 10.9262 4.14538C10.4678 3.98124 10.0121 4.26108 9.56678 4.14C8.7022 3.90859 8.37147 5.01181 7.60324 5.15442C7.48084 5.17594 7.4522 5.16518 7.35324 5.2459C7.30636 5.28357 7.29855 5.31586 7.23866 5.33739C7.07199 5.39389 6.90793 5.33201 6.73605 5.40735C6.56678 5.48 6.41834 5.60108 6.25428 5.68181C5.88449 5.86209 5.54074 6.12309 5.13449 6.19574C4.96001 6.22803 4.78293 6.24687 4.61366 6.30606C4.43397 6.37064 4.2647 6.46482 4.08501 6.52671C3.69699 6.65856 3.2673 6.66394 2.86366 6.68277C2.50428 6.69892 2.13709 6.72852 1.77772 6.6747C1.55116 6.64241 1.31938 6.60743 1.09022 6.5859C0.952197 6.57245 0.850634 6.63972 0.91053 6.80117C0.986051 7.00297 1.15793 7.05948 1.34022 7.10522C1.52511 7.15097 1.71522 7.15904 1.90272 7.20209C1.97563 7.21824 2.04855 7.23169 2.12147 7.24783C2.16834 7.25591 2.19178 7.26936 2.22043 7.30703C2.18136 7.57342 1.81938 7.76177 1.61886 7.90438C1.42095 8.0443 1.23084 8.16808 1.00428 8.25149C0.808968 8.32145 0.452197 8.33221 0.374072 8.57169C0.314176 8.75735 0.454801 8.92687 0.616259 8.99952C0.694384 9.0345 0.840218 9.02912 0.876676 9.12868C0.918343 9.239 0.835009 9.31165 0.960009 9.40583C1.09543 9.50808 1.27251 9.47848 1.42095 9.43543C1.83761 9.31703 2.25688 9.2094 2.68397 9.12868C2.91834 9.08563 3.14491 9.02105 3.37407 8.97262C3.52772 8.94033 3.71522 8.91073 3.86886 8.95647C4.31418 9.08832 4.40011 9.61302 4.73084 9.88748C4.92355 10.0462 5.17095 10.1054 5.41053 10.0301C5.54595 9.98703 5.67355 9.84711 5.59022 9.69912C5.54595 9.62109 5.46782 9.60225 5.39751 9.5592C5.31418 9.50539 5.23084 9.43543 5.17616 9.34932C5.06938 9.17442 5.02772 8.92687 5.13188 8.74928C5.30376 8.4533 5.9548 8.00932 5.75688 7.59225C5.84543 7.53036 6.04855 7.59225 6.14491 7.6084C6.34282 7.6353 6.53813 7.68374 6.72824 7.74024C6.79595 7.76177 6.87668 7.78061 6.94178 7.8102C7.02772 7.84787 7.01209 7.85056 7.03032 7.9582C7.05897 8.12233 7.11626 8.28916 7.08761 8.45868C7.04334 8.71161 6.84543 8.91073 6.74907 9.14213C6.63709 9.41659 6.76991 9.60764 6.82199 9.86864C6.87407 10.1323 6.69699 10.318 6.53813 10.501C6.45741 10.5951 6.37928 10.6866 6.35324 10.8131C6.3298 10.9261 6.35324 11.0418 6.33241 11.1548C6.29334 11.3593 6.06418 11.432 6.02511 11.6257C6.00168 11.7468 6.03553 11.919 6.04334 12.0428C6.05636 12.2204 5.96001 12.3038 5.92095 12.4706C5.87668 12.6617 5.91313 12.8204 5.93136 13.0115C5.94699 13.1756 5.89491 13.3505 5.86105 13.5119C5.8272 13.6653 5.79334 13.8348 5.69438 13.9586C5.60584 14.0689 5.47043 14.1335 5.36105 14.2196C5.2022 14.3407 5.04595 14.4618 4.90272 14.6044C4.6423 14.86 4.60324 15.0941 4.58501 15.4547C4.5772 15.5892 4.57459 15.6995 4.49907 15.8125C4.39751 15.9632 4.29074 16.1058 4.19178 16.2565C4.11105 16.383 3.99907 16.4879 3.91834 16.6144C3.81418 16.7812 3.7647 16.983 3.66834 17.1552C3.44438 17.5562 3.19438 17.9571 2.99907 18.3742C2.87407 18.6459 2.82199 18.9285 2.82459 19.2298C2.82459 19.4505 2.84803 19.6657 2.80116 19.881C2.70741 20.3088 2.19699 20.8604 2.56678 21.2667C2.79334 21.5143 3.10584 21.6219 3.13449 22.0013C3.14751 22.187 3.12407 22.3888 3.21261 22.5583C3.29855 22.7278 3.47824 22.8166 3.65532 22.8489C3.80115 22.8758 4.03813 22.787 4.16313 22.8812C4.26209 23.3897 4.60063 23.7638 4.91834 24.1378C5.40793 24.7163 5.82459 25.3325 6.17876 26.0106C6.60584 26.8286 7.09543 27.6735 7.81157 28.252C8.02772 28.4269 8.17616 28.591 8.17355 28.8816C8.17355 29.0619 8.05897 29.3552 8.19438 29.5059C8.33241 29.6592 8.84282 29.6565 9.04074 29.6861C9.21782 29.7104 9.41834 29.627 9.58761 29.6915C9.72042 29.7427 9.89751 29.966 9.80376 30.1194C9.73084 30.2378 9.48605 30.2404 9.37147 30.3023C9.21522 30.3857 9.10584 30.5257 9.00167 30.671C8.7647 31.0046 8.59543 31.2387 8.24647 31.4567C7.89751 31.6746 7.60845 31.9491 7.47563 32.3581C7.37928 32.6541 7.38449 32.8909 7.12668 33.098C6.9522 33.238 6.73866 33.2756 6.57459 33.4344C6.34282 33.655 6.36105 33.986 6.16053 34.2066C5.91313 34.4784 5.45741 34.3331 5.17876 34.5672C4.59022 34.2927 3.72824 34.5161 3.3897 35.1484C3.2022 35.4955 3.22824 35.9018 3.24126 36.2839C3.25428 36.7279 3.22563 37.1719 3.22043 37.6158C3.21261 38.1674 3.12147 38.7083 2.96001 39.233C2.85845 39.572 2.79595 39.868 2.80376 40.2259C2.81678 40.7667 2.89491 41.2349 3.22303 41.6735C3.47563 42.0099 3.8272 42.2951 4.17355 42.5211C4.67095 42.844 5.3923 43.1911 5.62668 42.4054C5.73345 42.0475 5.64751 41.6628 5.7048 41.2968C5.75949 40.9282 5.87147 40.5757 5.93918 40.2097C5.98345 39.9676 6.02251 39.6447 6.23605 39.4886C6.42876 39.346 6.66834 39.424 6.88188 39.3891C7.25168 39.3299 7.4548 38.9612 7.66313 38.6814C7.95741 38.2912 8.15272 38.006 8.55636 37.745C9.0147 37.449 9.46001 37.1154 9.8897 36.7763C10.1319 36.588 10.3532 36.1924 10.6345 36.0848C10.7803 36.4803 10.7517 37.0346 10.5095 37.3817C10.21 37.8123 9.64751 37.8903 9.39751 38.3639C9.17615 38.7863 9.24126 39.311 9.18918 39.7711C9.1397 40.2124 9.04855 40.4707 8.80115 40.8259C8.65792 41.0331 8.31418 41.4852 8.34022 41.7462C8.37668 42.1336 8.87407 42.2816 9.16574 42.3543C10.2048 42.6099 11.2465 42.6637 12.3116 42.7175C13.085 42.7579 13.8584 42.8548 14.6319 42.7821C15.2413 42.7256 15.9366 42.7229 16.5303 42.5695C17.1788 42.4027 17.3506 41.4771 16.7387 41.1461C16.486 41.0089 16.2074 40.8878 15.9262 40.8394C15.5512 40.7748 15.1631 40.7883 14.8168 40.6053C14.5381 40.46 14.3715 40.2178 14.1788 39.973C14.0173 39.7711 13.6397 39.6097 13.5538 39.3702C13.447 39.0796 13.809 38.5899 13.9652 38.3827C14.4027 37.8015 15.0251 37.223 15.2126 36.4911C15.322 36.0606 15.2985 35.5789 15.335 35.1376C15.3819 34.5564 15.4496 33.9779 15.4939 33.3967C15.5538 32.6245 15.6996 31.8522 15.8715 31.0988C15.986 30.5956 15.9314 30.0682 15.8975 29.5193C15.8532 28.8439 15.822 28.1847 15.8428 27.5066C15.8558 27.0869 15.8402 26.5568 15.7048 26.1532C15.5668 25.7442 15.2334 25.3728 14.9887 25.0338C14.6032 24.5037 14.3012 23.9198 13.9808 23.3467C13.585 22.6363 13.4288 21.8183 13.0407 21.108C12.8949 20.8389 12.7777 20.333 12.5512 20.1554C12.3584 20.0048 12.6267 19.6953 12.6709 19.4558C12.7673 18.9419 12.7387 18.541 13.0381 18.1078C13.3845 17.6073 13.5303 17.0288 13.7569 16.4691C13.8428 16.2565 13.947 16.0493 14.0277 15.8341C14.0876 15.6753 14.0824 15.4627 14.184 15.3282C14.3194 15.1533 14.5017 15.269 14.7204 15.2475C15.0486 15.2179 15.3454 15.1695 15.6709 15.1237C16.4288 15.0161 17.2595 15.1964 18.0225 15.1964C18.2647 15.1964 18.684 15.3793 18.9053 15.3121C19.1475 15.2394 19.2881 14.7578 19.3793 14.5344C19.5824 14.0313 19.697 13.4985 19.7699 12.9603C19.8064 12.6913 19.8324 12.4195 19.848 12.1477C19.8663 11.8652 19.9756 11.9459 20.1814 11.8114C20.3975 11.6715 20.4288 11.1387 20.4548 10.9046C20.4965 10.536 20.4887 10.1646 20.5043 9.7933C20.5616 8.34028 20.361 6.94647 20.1553 5.51767H20.1657ZM18.8975 8.73045C18.8767 9.0937 18.7803 9.45426 18.6371 9.78792C18.6111 9.84711 18.5512 10.0543 18.4965 10.0866C18.4209 10.1323 18.3142 10.0624 18.223 10.0974C18.1111 10.1404 18.0303 10.2588 17.9105 10.2669C17.7465 10.2776 17.5616 10.1754 17.3897 10.1862C17.2621 10.1942 17.0616 10.24 16.9418 10.2938C16.7855 10.3637 16.7387 10.5494 16.6032 10.6463C16.4678 10.7431 16.4522 10.6705 16.3402 10.6032C16.1918 10.5117 16.0225 10.5925 15.8558 10.5521C15.4574 10.4552 15.5251 9.92784 15.5121 9.60495C15.5017 9.38161 15.5199 9.14752 15.3532 8.978C15.2881 8.91342 15.197 8.87306 15.1501 8.78964C15.0902 8.6847 15.1319 8.60129 15.1371 8.48828C15.1423 8.31876 15.1371 8.36181 15.21 8.21651C15.2907 8.04968 15.3532 7.83711 15.4548 7.68374C15.5303 7.57073 15.585 7.61647 15.7152 7.61916C15.9444 7.62454 16.1631 7.50346 16.3272 7.34739C16.5381 7.14558 16.736 6.88727 16.9235 6.66125C17.0355 6.52671 17.1579 6.40024 17.2595 6.25763C17.3168 6.17691 17.3012 6.15269 17.4001 6.13924C17.4834 6.12847 17.598 6.17691 17.684 6.1796C17.8376 6.18767 17.9887 6.15807 18.1319 6.10426C18.447 5.99124 18.6631 5.79751 18.6397 5.44233C18.6084 4.94723 18.1397 4.4602 18.3116 3.94895C18.3793 4.22879 18.697 4.30682 18.8038 4.54092C18.8558 4.65124 18.8298 4.82345 18.8376 4.94454C18.8637 5.33201 18.8689 5.71948 18.8793 6.10964C18.9027 6.97607 18.947 7.86133 18.9001 8.72776L18.8975 8.73045Z" fill="white"/>
  </g>
  <defs>
    <clipPath id="clip0_2450_58346">
      <rect width="20.1667" height="42.35" fill="white" transform="translate(0.358337 0.523438)"/>
    </clipPath>
  </defs>
</svg>