<svg width="238" height="238" viewBox="0 0 238 238" fill="none" xmlns="http://www.w3.org/2000/svg">
<g clip-path="url(#clip0_2417_10545)">
<rect width="238" height="238" rx="119" fill="#E7E0EC"/>
<path fill-rule="evenodd" clip-rule="evenodd" d="M155.521 95.6542C160.376 88.1264 162.978 79.27 162.999 70.2035C163.013 64.1712 161.883 58.1953 159.675 52.6179C157.467 47.0406 154.223 41.9714 150.13 37.7007C146.037 33.43 141.175 30.0418 135.821 27.73C130.468 25.4181 124.729 24.2281 118.933 24.2281C110.223 24.2282 101.707 26.9153 94.4632 31.9501C87.219 36.9849 81.571 44.1414 78.2327 52.5156C74.8944 60.8898 74.0155 70.106 75.7072 78.9998C77.3988 87.8936 81.585 96.0661 87.737 102.485C93.8891 108.903 101.731 113.28 110.272 115.062C118.813 116.845 127.669 115.952 135.723 112.498C143.777 109.043 150.666 103.182 155.521 95.6542ZM87.6253 144.757C97.5499 140.474 108.188 138.27 118.932 138.27C129.685 138.255 140.335 140.449 150.272 144.725C160.209 149.001 169.237 155.276 176.841 163.19C184.444 171.104 190.473 180.501 194.581 190.844C198.69 201.186 200.797 212.271 200.783 223.463C200.783 229.339 198.54 234.975 194.548 239.13C190.556 243.285 185.141 245.62 179.496 245.62H58.4752C52.8294 245.62 47.4148 243.285 43.4226 239.13C39.4304 234.975 37.1876 229.339 37.1876 223.463C37.1736 212.28 39.2776 201.205 43.3794 190.869C47.4812 180.534 53.5003 171.141 61.0923 163.229C68.6844 155.317 77.7006 149.04 87.6253 144.757Z" fill="#AEA9B4"/>
</g>
<rect x="0.25" y="0.25" width="237.5" height="237.5" rx="118.75" stroke="#CAC4D0" stroke-width="0.5"/>
<defs>
<clipPath id="clip0_2417_10545">
<rect width="238" height="238" rx="119" fill="white"/>
</clipPath>
</defs>
</svg>
