<svg width="24" height="24" viewBox="0 0 24 24" fill="none" xmlns="http://www.w3.org/2000/svg">
<g clip-path="url(#clip0_3041_114958)">
<path fill-rule="evenodd" clip-rule="evenodd" d="M16.02 7.85889C16.5542 7.03061 16.8405 6.05615 16.8428 5.05859C16.8444 4.39486 16.7201 3.73734 16.4771 3.12368C16.2341 2.51001 15.8772 1.95226 15.4269 1.48236C14.9765 1.01247 14.4415 0.639665 13.8525 0.385298C13.2635 0.130931 12.632 -1.93621e-06 11.9944 0C11.0359 2.91016e-06 10.099 0.295666 9.30193 0.849635C8.50486 1.4036 7.88342 2.19102 7.51612 3.11242C7.14881 4.03382 7.05211 5.04785 7.23824 6.02643C7.42437 7.005 7.88497 7.9042 8.56186 8.61044C9.23876 9.31667 10.1016 9.79825 11.0413 9.99434C11.981 10.1904 12.9555 10.0922 13.8417 9.71216C14.7278 9.33208 15.4859 8.68716 16.02 7.85889ZM8.54958 12.9023C9.64157 12.4311 10.8121 12.1886 11.9942 12.1886C13.1773 12.187 14.3491 12.4283 15.4425 12.8988C16.5358 13.3693 17.5292 14.0597 18.3658 14.9305C19.2024 15.8012 19.8657 16.8352 20.3178 17.9732C20.7698 19.1112 21.0017 20.3308 21.0002 21.5622C21.0002 22.2088 20.7534 22.8288 20.3141 23.286C19.8749 23.7432 19.2791 24.0001 18.6579 24.0001H5.34225C4.72105 24.0001 4.12529 23.7432 3.68603 23.286C3.24678 22.8288 3.00001 22.2088 3.00001 21.5622C2.99847 20.3318 3.22997 19.1132 3.68128 17.976C4.13259 16.8388 4.79486 15.8054 5.63021 14.9348C6.46555 14.0642 7.45759 13.3736 8.54958 12.9023Z" fill="#333333"/>
</g>
<defs>
<clipPath id="clip0_3041_114958">
<rect width="24" height="24" fill="white"/>
</clipPath>
</defs>
</svg>
