<svg xmlns="http://www.w3.org/2000/svg" width="28" height="28" viewBox="0 0 28 28" fill="none">
  <path d="M9.6155 22C9.168 22 8.78683 21.8427 8.472 21.528C8.15733 21.2132 8 20.832 8 20.3845V8.00002H7V7.00002H11V6.23077H17V7.00002H21V8.00002H20V20.3845C20 20.8449 19.8458 21.2292 19.5375 21.5375C19.2292 21.8459 18.8448 22 18.3845 22H9.6155ZM19 8.00002H9V20.3845C9 20.564 9.05767 20.7115 9.173 20.827C9.2885 20.9424 9.436 21 9.6155 21H18.3845C18.5385 21 18.6796 20.9359 18.8077 20.8078C18.9359 20.6796 19 20.5385 19 20.3845V8.00002ZM11.8078 19H12.8078V10H11.8078V19ZM15.1923 19H16.1923V10H15.1923V19Z" fill="#E8EAED"/>
</svg>