<svg width="33" height="34" viewBox="0 0 33 34" fill="none" xmlns="http://www.w3.org/2000/svg">
<g id="Frame 818">
<rect y="0.5" width="33" height="33" rx="5" fill="black" fill-opacity="0.15"/>
<rect x="0.5" y="1" width="32" height="32" rx="4.5" stroke="white" stroke-opacity="0.5"/>
<path id="Vector" d="M12.6155 25.2693C12.168 25.2693 11.7868 25.1119 11.472 24.7973C11.1573 24.4824 11 24.1013 11 23.6538V11.2693H10V10.2693H14V9.5H20V10.2693H24V11.2693H23V23.6538C23 24.1141 22.8458 24.4984 22.5375 24.8068C22.2292 25.1151 21.8448 25.2693 21.3845 25.2693H12.6155ZM22 11.2693H12V23.6538C12 23.8333 12.0577 23.9808 12.173 24.0963C12.2885 24.2116 12.436 24.2693 12.6155 24.2693H21.3845C21.5385 24.2693 21.6796 24.2052 21.8077 24.077C21.9359 23.9488 22 23.8078 22 23.6538V11.2693ZM14.8078 22.2693H15.8078V13.2693H14.8078V22.2693ZM18.1923 22.2693H19.1923V13.2693H18.1923V22.2693Z" fill="#E8EAED"/>
</g>
</svg>
