<svg xmlns="http://www.w3.org/2000/svg" width="26" height="17" viewBox="0 0 26 17" fill="none">
  <g clip-path="url(#clip0_2001_40960)">
    <g filter="url(#filter0_d_2001_40960)">
      <path fill-rule="evenodd" clip-rule="evenodd" d="M17.1213 5.12132L17.8284 4.41422L16.4142 3L15.7071 3.70711L8.41422 11L4.12132 6.70711L3.41422 6L2 7.41422L2.70711 8.12132L7.70711 13.1213C8.09763 13.5118 8.7308 13.5118 9.12132 13.1213L17.1213 5.12132ZM24.1213 5.12132L24.8284 4.41422L23.4142 3L22.7071 3.70711L15.4142 11L15.1213 10.7071L14.4142 10L13 11.4142L13.7071 12.1213L14.7071 13.1213C15.0976 13.5118 15.7308 13.5118 16.1213 13.1213L24.1213 5.12132Z" fill="white"/>
    </g>
  </g>
  <defs>
    <filter id="filter0_d_2001_40960" x="0" y="1" width="26.8284" height="14.4143" filterUnits="userSpaceOnUse" color-interpolation-filters="sRGB">
      <feFlood flood-opacity="0" result="BackgroundImageFix"/>
      <feColorMatrix in="SourceAlpha" type="matrix" values="0 0 0 0 0 0 0 0 0 0 0 0 0 0 0 0 0 0 127 0" result="hardAlpha"/>
      <feOffset/>
      <feGaussianBlur stdDeviation="1"/>
      <feComposite in2="hardAlpha" operator="out"/>
      <feColorMatrix type="matrix" values="0 0 0 0 0 0 0 0 0 0 0 0 0 0 0 0 0 0 0.45 0"/>
      <feBlend mode="normal" in2="BackgroundImageFix" result="effect1_dropShadow_2001_40960"/>
      <feBlend mode="normal" in="SourceGraphic" in2="effect1_dropShadow_2001_40960" result="shape"/>
    </filter>
    <clipPath id="clip0_2001_40960">
      <rect width="26" height="17" fill="white"/>
    </clipPath>
  </defs>
</svg>
