<svg version="1.0" xmlns="http://www.w3.org/2000/svg"
 width="513.000000pt" height="513.000000pt" viewBox="0 0 513.000000 513.000000"
 preserveAspectRatio="xMidYMid meet">

<g transform="translate(0.000000,513.000000) scale(0.100000,-0.100000)"
fill="#FC2D7C" stroke="none">
<path d="M2290 3296 c-1015 -391 -1851 -715 -1858 -719 -24 -16 -33 -56 -19
-87 9 -22 176 -147 674 -502 l663 -473 471 -660 c259 -363 478 -666 487 -672
26 -21 76 -16 99 9 25 28 1443 3714 1443 3751 0 40 -33 67 -77 66 -24 -1 -715
-262 -1883 -713z m536 -595 l-1029 -1029 -574 411 c-315 225 -572 412 -569
414 5 5 3186 1231 3196 1232 3 1 -458 -462 -1024 -1028z m529 -682 c-333 -866
-609 -1583 -613 -1593 -7 -16 -82 83 -422 558 l-413 578 1024 1024 c563 563
1025 1020 1027 1016 1 -5 -270 -717 -603 -1583z"/>
</g>
</svg>