<svg width="24" height="24" viewBox="0 0 24 24" fill="none" xmlns="http://www.w3.org/2000/svg">
<g id="Frame 398">
<circle id="Ellipse 77" cx="12" cy="12" r="12" fill="#FC2D7C"/>
<path id="Vector" d="M18.8511 5.14791C18.9216 5.21856 18.9698 5.30836 18.9897 5.40618C19.0097 5.50399 19.0004 5.60551 18.9631 5.69811L13.035 20.5198C12.9828 20.6503 12.8955 20.7639 12.7829 20.8481C12.6703 20.9322 12.5366 20.9836 12.3966 20.9967C12.2567 21.0098 12.1158 20.9839 11.9896 20.9221C11.8633 20.8602 11.7566 20.7648 11.6811 20.6462L8.44347 15.5568L3.35479 12.3188C3.23592 12.2434 3.14019 12.1366 3.07816 12.0102C3.01614 11.8838 2.99023 11.7428 3.0033 11.6026C3.01637 11.4624 3.0679 11.3286 3.15222 11.2158C3.23653 11.1031 3.35035 11.0158 3.48111 10.9637L18.301 5.03686C18.3935 4.99958 18.4951 4.99033 18.5929 5.01025C18.6907 5.03018 18.7805 5.0784 18.8511 5.14893V5.14791ZM9.46019 15.2593L12.273 19.6792L17.0947 7.6238L9.46019 15.2593ZM16.3745 6.90345L4.32057 11.7258L8.74095 14.5379L16.3745 6.90345Z" fill="white"/>
</g>
</svg>
