<svg width="10" height="10" viewBox="0 0 10 10" fill="none" xmlns="http://www.w3.org/2000/svg">
<path id="Union" fill-rule="evenodd" clip-rule="evenodd" d="M5.35355 1.35355C5.54882 1.15829 5.54882 0.841709 5.35355 0.646447C5.15829 0.451184 4.84171 0.451184 4.64645 0.646447L0.646447 4.64645C0.451184 4.84171 0.451184 5.15829 0.646447 5.35355L4.64645 9.35355C4.84171 9.54882 5.15829 9.54882 5.35355 9.35355C5.54882 9.15829 5.54882 8.84171 5.35355 8.64645L1.70711 5L5.35355 1.35355ZM9.35355 1.35355C9.54882 1.15829 9.54882 0.841709 9.35355 0.646447C9.15829 0.451184 8.84171 0.451184 8.64645 0.646447L4.64645 4.64645C4.45118 4.84171 4.45118 5.15829 4.64645 5.35355L8.64645 9.35355C8.84171 9.54882 9.15829 9.54882 9.35355 9.35355C9.54882 9.15829 9.54882 8.84171 9.35355 8.64645L5.70711 5L9.35355 1.35355Z" fill="white"/>
</svg>
