<svg width="10" height="10" viewBox="0 0 10 10" fill="none" xmlns="http://www.w3.org/2000/svg">
<path id="Union" fill-rule="evenodd" clip-rule="evenodd" d="M4.64645 1.35355C4.45118 1.15829 4.45118 0.841709 4.64645 0.646447C4.84171 0.451184 5.15829 0.451184 5.35355 0.646447L9.35355 4.64645C9.54882 4.84171 9.54882 5.15829 9.35355 5.35355L5.35355 9.35355C5.15829 9.54882 4.84171 9.54882 4.64645 9.35355C4.45118 9.15829 4.45118 8.84171 4.64645 8.64645L8.29289 5L4.64645 1.35355ZM0.646446 1.35355C0.451184 1.15829 0.451184 0.841709 0.646446 0.646447C0.841709 0.451184 1.15829 0.451184 1.35355 0.646447L5.35355 4.64645C5.54882 4.84171 5.54882 5.15829 5.35355 5.35355L1.35355 9.35355C1.15829 9.54882 0.841709 9.54882 0.646446 9.35355C0.451184 9.15829 0.451184 8.84171 0.646446 8.64645L4.29289 5L0.646446 1.35355Z" fill="white"/>
</svg>
