<svg xmlns="http://www.w3.org/2000/svg" width="28" height="28" viewBox="0 0 28 28" fill="none">
  <path d="M7.41176 20.5882H8.59906L18.2334 10.9539L17.0461 9.76659L7.41176 19.4009V20.5882ZM6 22V18.8146L18.4146 6.40541C18.5569 6.27616 18.714 6.17631 18.8859 6.10588C19.058 6.03529 19.2384 6 19.4271 6C19.6158 6 19.7985 6.03349 19.9753 6.10047C20.1522 6.16745 20.3089 6.27396 20.4452 6.42L21.5946 7.58376C21.7406 7.72008 21.8447 7.87694 21.9068 8.05435C21.9689 8.23176 22 8.40918 22 8.58659C22 8.77592 21.9677 8.95655 21.9031 9.12847C21.8384 9.30055 21.7356 9.45773 21.5946 9.6L9.18541 22H6ZM17.6294 10.3706L17.0461 9.76659L18.2334 10.9539L17.6294 10.3706Z" fill="white"/>
</svg>