<svg xmlns="http://www.w3.org/2000/svg" width="24" height="24" viewBox="0 0 24 24" fill="none">
  <path d="M5.41176 18.5882H6.59906L16.2334 8.95388L15.0461 7.76659L5.41176 17.4009V18.5882ZM4 20V16.8146L16.4146 4.40541C16.5569 4.27616 16.714 4.17631 16.8859 4.10588C17.058 4.03529 17.2384 4 17.4271 4C17.6158 4 17.7985 4.03349 17.9753 4.10047C18.1522 4.16745 18.3089 4.27396 18.4452 4.42L19.5946 5.58376C19.7406 5.72008 19.8447 5.87694 19.9068 6.05435C19.9689 6.23176 20 6.40918 20 6.58659C20 6.77592 19.9677 6.95655 19.9031 7.12847C19.8384 7.30055 19.7356 7.45773 19.5946 7.6L7.18541 20H4ZM15.6294 8.37059L15.0461 7.76659L16.2334 8.95388L15.6294 8.37059Z" fill="white"/>
</svg>