<svg width="18" height="18" viewBox="0 0 18 18" fill="none" xmlns="http://www.w3.org/2000/svg">
<g clip-path="url(#clip0_52_1258)">
<path fill-rule="evenodd" clip-rule="evenodd" d="M13.9418 -0.00272031C14.9055 -0.0973125 15.8449 0.329176 16.7577 1.24194C17.6704 2.1547 18.0969 3.09413 18.0023 4.05779C17.9116 4.9821 17.3557 5.73723 16.7577 6.33526L15.8513 7.24164C15.8411 7.25244 15.8306 7.26292 15.8199 7.27306L10.325 12.7679L10.3163 12.7766L10.3162 12.7766C10.1195 12.9669 9.86655 13.1299 9.62639 13.2506C9.38788 13.3705 9.10168 13.4791 8.82319 13.5188L6.36604 13.8699L6.36222 13.8704L6.36222 13.8704C5.72023 13.9587 5.09562 13.7842 4.65418 13.3445C4.2117 12.9038 4.0355 12.2785 4.12993 11.6323L4.13016 11.6307L4.48043 9.17884L4.48062 9.17749C4.52014 8.89576 4.62813 8.60765 4.74903 8.3671C4.87023 8.12597 5.03555 7.87074 5.23168 7.67461L11.6644 1.24194C12.2624 0.643903 13.0175 0.0880102 13.9418 -0.00272031ZM15.1002 5.87139L15.697 5.2746C16.2092 4.76243 16.4696 4.31755 16.5095 3.91125C16.5455 3.54429 16.4169 3.02249 15.697 2.3026C14.9771 1.5827 14.4553 1.45408 14.0884 1.49011C13.6821 1.52999 13.2372 1.79042 12.725 2.3026L12.1275 2.90008C12.6399 4.26904 13.7233 5.35327 15.1002 5.87139ZM10.9886 4.03905C11.6265 5.32598 12.6719 6.37001 13.9617 7.00991L9.26974 11.7019C9.21229 11.7564 9.09947 11.8366 8.95276 11.9103C8.80147 11.9864 8.67542 12.0247 8.61106 12.0339L6.15772 12.3844L6.15614 12.3846C5.90934 12.4182 5.77521 12.344 5.71269 12.2817C5.65145 12.2207 5.57859 12.0916 5.61426 11.8486L5.61467 11.8457L5.96569 9.38856L5.96604 9.38614C5.97564 9.31728 6.01445 9.1896 6.08927 9.04073C6.16399 8.89207 6.24357 8.78403 6.29234 8.73527L10.9886 4.03905ZM1.5296 1.73607C2.65744 0.608228 4.33291 0.189863 6.44771 0.189863H8.08036C8.49458 0.189863 8.83036 0.525649 8.83036 0.939863C8.83036 1.35408 8.49458 1.68986 8.08036 1.68986H6.44771C4.48085 1.68986 3.29917 2.08783 2.59026 2.79673C1.88136 3.50563 1.4834 4.68731 1.4834 6.65416V11.5521C1.4834 13.519 1.88136 14.7007 2.59026 15.4096C3.29917 16.1185 4.48085 16.5164 6.44771 16.5164H11.3457C13.3125 16.5164 14.4942 16.1185 15.2031 15.4096C15.912 14.7007 16.31 13.519 16.31 11.5521V9.91948C16.31 9.50526 16.6458 9.16948 17.06 9.16948C17.4742 9.16948 17.81 9.50526 17.81 9.91948V11.5521C17.81 13.6669 17.3916 15.3424 16.2638 16.4702C15.1359 17.5981 13.4605 18.0164 11.3457 18.0164H6.44771C4.33291 18.0164 2.65744 17.5981 1.5296 16.4702C0.401764 15.3424 -0.0166016 13.6669 -0.0166016 11.5521V6.65416C-0.0166016 4.53937 0.401764 2.8639 1.5296 1.73607Z" fill="black" fill-opacity="0.87"/>
</g>
<defs>
<clipPath id="clip0_52_1258">
<rect width="18" height="18" fill="white"/>
</clipPath>
</defs>
</svg>