<svg xmlns="http://www.w3.org/2000/svg" width="64" height="64" viewBox="0 0 64 64" fill="none">
  <path d="M32 4C37.5379 4 42.9514 5.64217 47.556 8.71885C52.1605 11.7955 55.7494 16.1685 57.8686 21.2849C59.9879 26.4012 60.5424 32.0311 59.462 37.4625C58.3816 42.894 55.7149 47.8831 51.799 51.799C47.8831 55.7149 42.894 58.3816 37.4625 59.462C32.0311 60.5424 26.4012 59.9879 21.2849 57.8686C16.1685 55.7494 11.7955 52.1605 8.71885 47.556C5.64217 42.9514 4 37.5379 4 32C4.00847 24.5765 6.96118 17.4595 12.2104 12.2104C17.4595 6.96118 24.5765 4.00847 32 4ZM8 32C8 37.672 10.016 43.16 13.692 47.48L47.48 13.692C43.9901 10.7313 39.7256 8.83147 35.1904 8.21703C30.6553 7.60258 26.039 8.2992 21.8871 10.2245C17.7352 12.1499 14.2212 15.2235 11.7603 19.0822C9.2995 22.9409 7.99465 27.4234 8 32ZM56 32C56 26.328 53.984 20.84 50.308 16.52L16.52 50.308C20.0099 53.2687 24.2744 55.1685 28.8096 55.783C33.3447 56.3974 37.961 55.7008 42.1129 53.7755C46.2648 51.8501 49.7788 48.7765 52.2397 44.9178C54.7005 41.0591 56.0053 36.5766 56 32Z" fill="#797D90"/>
</svg>