<svg width="32" height="32" viewBox="0 0 32 32" fill="none" xmlns="http://www.w3.org/2000/svg">
<g id="i-gift">
<g id="Vector" filter="url(#filter0_d_2165_10321)">
<path d="M9.125 8.4375C9.125 7.52582 9.48716 6.65148 10.1318 6.00682C10.7765 5.36216 11.6508 5 12.5625 5C13.4742 5 14.3485 5.36216 14.9932 6.00682C15.6378 6.65148 16 7.52582 16 8.4375C16 7.52582 16.3622 6.65148 17.0068 6.00682C17.6515 5.36216 18.5258 5 19.4375 5C20.3492 5 21.2235 5.36216 21.8682 6.00682C22.5128 6.65148 22.875 7.52582 22.875 8.4375V8.44575C22.875 8.542 22.875 8.817 22.8228 9.125H25.625C25.9897 9.125 26.3394 9.26987 26.5973 9.52773C26.8551 9.78559 27 10.1353 27 10.5V11.875C27 12.2397 26.8551 12.5894 26.5973 12.8473C26.3394 13.1051 25.9897 13.25 25.625 13.25H6.375C6.01033 13.25 5.66059 13.1051 5.40273 12.8473C5.14487 12.5894 5 12.2397 5 11.875V10.5C5 10.1353 5.14487 9.78559 5.40273 9.52773C5.66059 9.26987 6.01033 9.125 6.375 9.125H9.17725C9.14113 8.90041 9.12366 8.67322 9.125 8.44575V8.4375ZM10.5935 9.125H14.625V8.4375C14.625 8.16665 14.5717 7.89845 14.468 7.64822C14.3644 7.39798 14.2124 7.17061 14.0209 6.97909C13.8294 6.78757 13.602 6.63565 13.3518 6.532C13.1016 6.42835 12.8334 6.375 12.5625 6.375C12.2916 6.375 12.0234 6.42835 11.7732 6.532C11.523 6.63565 11.2956 6.78757 11.1041 6.97909C10.9126 7.17061 10.7606 7.39798 10.657 7.64822C10.5533 7.89845 10.5 8.16665 10.5 8.4375C10.5 8.55437 10.5028 8.81425 10.5619 9.02875L10.5935 9.125ZM17.375 9.125H21.4065L21.4381 9.02875C21.4973 8.81425 21.5 8.55437 21.5 8.4375C21.5 7.89049 21.2827 7.36589 20.8959 6.97909C20.5091 6.5923 19.9845 6.375 19.4375 6.375C18.8905 6.375 18.3659 6.5923 17.9791 6.97909C17.5923 7.36589 17.375 7.89049 17.375 8.4375V9.125ZM25.625 14.625V23.9375C25.625 24.4845 25.4077 25.0091 25.0209 25.3959C24.6341 25.7827 24.1095 26 23.5625 26H17.375V14.625H25.625ZM8.4375 26C7.89049 26 7.36589 25.7827 6.97909 25.3959C6.5923 25.0091 6.375 24.4845 6.375 23.9375V14.625H14.625V26H8.4375Z" fill="white"/>
<path d="M9.125 8.4375C9.125 7.52582 9.48716 6.65148 10.1318 6.00682C10.7765 5.36216 11.6508 5 12.5625 5C13.4742 5 14.3485 5.36216 14.9932 6.00682C15.6378 6.65148 16 7.52582 16 8.4375C16 7.52582 16.3622 6.65148 17.0068 6.00682C17.6515 5.36216 18.5258 5 19.4375 5C20.3492 5 21.2235 5.36216 21.8682 6.00682C22.5128 6.65148 22.875 7.52582 22.875 8.4375V8.44575C22.875 8.542 22.875 8.817 22.8228 9.125H25.625C25.9897 9.125 26.3394 9.26987 26.5973 9.52773C26.8551 9.78559 27 10.1353 27 10.5V11.875C27 12.2397 26.8551 12.5894 26.5973 12.8473C26.3394 13.1051 25.9897 13.25 25.625 13.25H6.375C6.01033 13.25 5.66059 13.1051 5.40273 12.8473C5.14487 12.5894 5 12.2397 5 11.875V10.5C5 10.1353 5.14487 9.78559 5.40273 9.52773C5.66059 9.26987 6.01033 9.125 6.375 9.125H9.17725C9.14113 8.90041 9.12366 8.67322 9.125 8.44575V8.4375ZM10.5935 9.125H14.625V8.4375C14.625 8.16665 14.5717 7.89845 14.468 7.64822C14.3644 7.39798 14.2124 7.17061 14.0209 6.97909C13.8294 6.78757 13.602 6.63565 13.3518 6.532C13.1016 6.42835 12.8334 6.375 12.5625 6.375C12.2916 6.375 12.0234 6.42835 11.7732 6.532C11.523 6.63565 11.2956 6.78757 11.1041 6.97909C10.9126 7.17061 10.7606 7.39798 10.657 7.64822C10.5533 7.89845 10.5 8.16665 10.5 8.4375C10.5 8.55437 10.5028 8.81425 10.5619 9.02875L10.5935 9.125ZM17.375 9.125H21.4065L21.4381 9.02875C21.4973 8.81425 21.5 8.55437 21.5 8.4375C21.5 7.89049 21.2827 7.36589 20.8959 6.97909C20.5091 6.5923 19.9845 6.375 19.4375 6.375C18.8905 6.375 18.3659 6.5923 17.9791 6.97909C17.5923 7.36589 17.375 7.89049 17.375 8.4375V9.125ZM25.625 14.625V23.9375C25.625 24.4845 25.4077 25.0091 25.0209 25.3959C24.6341 25.7827 24.1095 26 23.5625 26H17.375V14.625H25.625ZM8.4375 26C7.89049 26 7.36589 25.7827 6.97909 25.3959C6.5923 25.0091 6.375 24.4845 6.375 23.9375V14.625H14.625V26H8.4375Z" fill="#FC2D7C"/>
</g>
</g>
<defs>
<filter id="filter0_d_2165_10321" x="3" y="3" width="26" height="25" filterUnits="userSpaceOnUse" color-interpolation-filters="sRGB">
<feFlood flood-opacity="0" result="BackgroundImageFix"/>
<feColorMatrix in="SourceAlpha" type="matrix" values="0 0 0 0 0 0 0 0 0 0 0 0 0 0 0 0 0 0 127 0" result="hardAlpha"/>
<feOffset/>
<feGaussianBlur stdDeviation="1"/>
<feComposite in2="hardAlpha" operator="out"/>
<feColorMatrix type="matrix" values="0 0 0 0 0 0 0 0 0 0 0 0 0 0 0 0 0 0 0.45 0"/>
<feBlend mode="normal" in2="BackgroundImageFix" result="effect1_dropShadow_2165_10321"/>
<feBlend mode="normal" in="SourceGraphic" in2="effect1_dropShadow_2165_10321" result="shape"/>
</filter>
</defs>
</svg>
