<svg xmlns="http://www.w3.org/2000/svg" width="26" height="26" viewBox="0 0 26 26" fill="none">
  <path d="M13.0036 20C10.8311 20 8.85069 19.3649 7.0625 18.0948C5.27431 16.8246 3.92014 15.1263 3 13C3.92014 10.8737 5.27309 9.1754 7.05885 7.90524C8.84444 6.63508 10.8236 6 12.9964 6C15.1689 6 17.1493 6.63508 18.9375 7.90524C20.7257 9.1754 22.0799 10.8737 23 13C22.0799 15.1263 20.7269 16.8246 18.9411 18.0948C17.1556 19.3649 15.1764 20 13.0036 20ZM13 19.2097C14.9618 19.2097 16.763 18.6499 18.4036 17.5302C20.0443 16.4106 21.2986 14.9005 22.1667 13C21.2986 11.0995 20.0443 9.58938 18.4036 8.46976C16.763 7.35013 14.9618 6.79032 13 6.79032C11.0382 6.79032 9.23698 7.35013 7.59635 8.46976C5.95573 9.58938 4.70139 11.0995 3.83333 13C4.70139 14.9005 5.95573 16.4106 7.59635 17.5302C9.23698 18.6499 11.0382 19.2097 13 19.2097Z" fill="#333333"/>
  <circle cx="13" cy="13" r="3.6" stroke="#333333" stroke-width="0.8"/>
</svg>