<svg width="15" height="14" viewBox="0 0 15 14" fill="none" xmlns="http://www.w3.org/2000/svg">
<path fill-rule="evenodd" clip-rule="evenodd" d="M1.58433 8.23878L8.10991 1.18899C7.90176 0.998762 7.67453 0.8254 7.42995 0.672653C5.21052 -0.711441 2.37097 0.10852 1.0917 2.50749C0.0821577 4.40043 0.329339 6.68039 1.57218 8.25096L1.58433 8.23878ZM11.3944 0.197537L11.9911 0.84226H11.9903L9.53232 3.498C9.44125 3.18594 9.32156 2.8842 9.17499 2.59557L11.3944 0.197537ZM14.4654 3.29042L13.8687 2.64568L5.13867 12.0782L5.73539 12.7229L14.4654 3.29042ZM14.3098 6.01136L13.7131 5.36662L6.31942 13.3553L6.91614 14L14.3098 6.01136ZM2.76819 9.51792L3.36489 10.1626L3.70574 9.79436C3.42127 9.69691 3.142 9.56758 2.8714 9.4064L2.76819 9.51792ZM9.57133 0.898465L8.70142 1.83837V1.83744C8.52536 1.60504 8.32762 1.38669 8.10992 1.18803L8.97462 0.253742L9.57133 0.898465ZM4.66931 10.0062L3.94519 10.7886L4.55664 11.4492L5.94861 9.94524C7.23915 9.68848 8.42042 8.84509 9.12814 7.52097C9.40134 7.00932 9.58174 6.46861 9.67454 5.91854L5.94861 9.94431V9.94445C5.52938 10.0276 5.09977 10.0492 4.67016 10.0053L9.73002 4.53821C9.6988 4.18493 9.63202 3.83539 9.53314 3.49804L3.7066 9.79346C4.02317 9.90216 4.34581 9.97244 4.66931 10.0062ZM9.67648 5.9183L9.67542 5.91945H9.67628L9.67648 5.9183ZM13.567 1.71469L9.67648 5.9183C9.75437 5.45856 9.77165 4.99415 9.73092 4.53817L12.9556 1.05404L13.567 1.71469ZM2.78988 9.35673C2.57913 9.22366 2.36577 9.05967 2.1767 8.89193L2.18103 8.8835L8.70142 1.8384C8.88181 2.07642 9.03966 2.32944 9.17496 2.59557L2.87227 9.4064C2.84452 9.39047 2.81677 9.3736 2.78988 9.35673Z" fill="white"/>
</svg>
