<svg width="22" height="20" viewBox="0 0 22 20" fill="none" xmlns="http://www.w3.org/2000/svg">
<path fill-rule="evenodd" clip-rule="evenodd" d="M1.68393 11.7697L11.5046 1.69856C11.1913 1.4268 10.8493 1.17914 10.4813 0.960932C7.14115 -1.01634 2.86779 0.155028 0.942555 3.58213C-0.576748 6.28632 -0.204754 9.5434 1.66566 11.7871L1.68393 11.7697ZM16.4476 0.282196L17.3456 1.20323H17.3443L13.6452 4.99713C13.5082 4.55134 13.3281 4.12028 13.1075 3.70796L16.4476 0.282196ZM21.0692 4.70059L20.1712 3.77954L7.03307 17.2545L7.93109 18.1756L21.0692 4.70059ZM20.8351 8.58765L19.9371 7.6666L8.81004 19.0789L9.70806 20L20.8351 8.58765ZM3.46558 13.597L4.36358 14.5181L4.87654 13.9919C4.44842 13.8527 4.02814 13.668 3.6209 13.4377L3.46558 13.597ZM13.704 1.28352L12.3948 2.62625V2.62491C12.1298 2.29291 11.8323 1.98099 11.5046 1.69718L12.806 0.362488L13.704 1.28352ZM6.32667 14.2945L5.23688 15.4123L6.15707 16.3561L8.25189 14.2075C10.1941 13.8407 11.9718 12.6358 13.0369 10.7442C13.4481 10.0133 13.7196 9.24087 13.8592 8.45505L8.25189 14.2061V14.2063C7.62099 14.3252 6.97449 14.3559 6.32797 14.2932L13.9428 6.48316C13.8958 5.97847 13.7953 5.47913 13.6465 4.99719L4.87787 13.9906C5.35428 14.1459 5.83982 14.2463 6.32667 14.2945ZM13.8622 8.45471L13.8606 8.45635H13.8619L13.8622 8.45471ZM19.7172 2.44956L13.8622 8.45471C13.9794 7.79794 14.0054 7.1345 13.9441 6.48309L18.797 1.50577L19.7172 2.44956ZM3.49819 13.3668C3.18101 13.1767 2.85992 12.9424 2.57538 12.7028L2.5819 12.6907L12.3947 2.62628C12.6662 2.96631 12.9038 3.32777 13.1074 3.70796L3.62218 13.4377C3.58042 13.4149 3.53865 13.3909 3.49819 13.3668Z" fill="#FC2D7C"/>
</svg>
