<svg xmlns="http://www.w3.org/2000/svg" width="31" height="31" viewBox="0 0 31 31" fill="none">
  <g clip-path="url(#clip0_3_849)">
    <path d="M24.8835 10.5284C24.8867 8.68927 24.3662 6.88726 23.3829 5.333C22.3998 3.77875 20.9945 2.53648 19.3313 1.75141C17.6681 0.966352 15.8159 0.670938 13.991 0.899706C12.1662 1.12847 10.4442 1.87197 9.02626 3.04328C7.60835 4.21459 6.55318 5.7653 5.98405 7.51417C5.41493 9.26303 5.35539 11.1378 5.8124 12.9192C6.26939 14.7007 7.22405 16.3152 8.56478 17.5741C9.9055 18.8331 11.5769 19.6843 13.3835 20.0284C13.4531 20.047 13.5149 20.0874 13.5598 20.1436C13.6048 20.1999 13.6306 20.269 13.6335 20.3409V23.6533C13.6335 23.7363 13.6006 23.8158 13.542 23.8744C13.4834 23.9329 13.4039 23.9659 13.321 23.9659H11.446C11.0316 23.9659 10.6342 24.1305 10.3412 24.4236C10.0481 24.7165 9.88354 25.114 9.88354 25.5283C9.88354 25.9428 10.0481 26.3403 10.3412 26.6332C10.6342 26.9263 11.0316 27.0909 11.446 27.0909H13.321C13.4039 27.0909 13.4834 27.1239 13.542 27.1824C13.6006 27.241 13.6335 27.3205 13.6335 27.4033V29.2783C13.6335 29.6928 13.7981 30.0903 14.0912 30.3832C14.3842 30.6763 14.7816 30.8409 15.196 30.8409C15.6104 30.8409 16.0079 30.6763 16.3009 30.3832C16.5939 30.0903 16.7585 29.6928 16.7585 29.2783V27.4033C16.7585 27.3205 16.7915 27.241 16.8501 27.1824C16.9087 27.1239 16.9882 27.0909 17.071 27.0909H18.946C19.3604 27.0909 19.7579 26.9263 20.0508 26.6332C20.3439 26.3403 20.5085 25.9428 20.5085 25.5283C20.5085 25.114 20.3439 24.7165 20.0508 24.4236C19.7579 24.1305 19.3604 23.9659 18.946 23.9659H17.071C16.9882 23.9659 16.9087 23.9329 16.8501 23.8744C16.7915 23.8158 16.7585 23.7363 16.7585 23.6533V20.3409C16.7614 20.269 16.7872 20.1999 16.8322 20.1436C16.8772 20.0874 16.939 20.047 17.0085 20.0284C19.2208 19.6071 21.2171 18.4282 22.6542 16.6944C24.0914 14.9607 24.8798 12.7804 24.8835 10.5284ZM8.63353 10.5284C8.63353 9.23047 9.01841 7.96166 9.73951 6.88247C10.4606 5.80327 11.4855 4.96214 12.6847 4.46545C13.8838 3.96874 15.2033 3.83878 16.4763 4.09199C17.7493 4.34521 18.9186 4.97023 19.8365 5.88802C20.7542 6.80579 21.3792 7.97512 21.6324 9.24812C21.8856 10.5211 21.7557 11.8406 21.2589 13.0398C20.7623 14.2389 19.9212 15.2638 18.842 15.9849C17.7628 16.7061 16.494 17.0908 15.196 17.0908C13.4566 17.0875 11.7893 16.3951 10.5593 15.1651C9.3293 13.9351 8.63684 12.2679 8.63353 10.5284Z" fill="#FC4F91"/>
  </g>
  <defs>
    <clipPath id="clip0_3_849">
      <rect width="30" height="30" fill="white" transform="translate(0.195923 0.840576)"/>
    </clipPath>
  </defs>
</svg>