<svg xmlns="http://www.w3.org/2000/svg" width="19" height="20" viewBox="0 0 19 20" fill="none">
  <rect y="0.5" width="19" height="19" rx="9.5" fill="#FE438B"/>
  <path fill-rule="evenodd" clip-rule="evenodd" d="M10 6.5C10 6.22386 9.77614 6 9.5 6C9.22386 6 9 6.22386 9 6.5V9.5H6C5.72386 9.5 5.5 9.72386 5.5 10C5.5 10.2761 5.72386 10.5 6 10.5H9V13.5C9 13.7761 9.22386 14 9.5 14C9.77614 14 10 13.7761 10 13.5V10.5H13C13.2761 10.5 13.5 10.2761 13.5 10C13.5 9.72386 13.2761 9.5 13 9.5H10V6.5Z" fill="white"/>
</svg>