<svg xmlns="http://www.w3.org/2000/svg" width="13" height="14" viewBox="0 0 13 14" fill="none">
  <path d="M9.74992 11.875V10.7917C9.74992 10.217 9.52165 9.66593 9.11532 9.2596C8.70899 8.85327 8.15789 8.625 7.58325 8.625H3.24992C2.67528 8.625 2.12418 8.85327 1.71785 9.2596C1.31153 9.66593 1.08325 10.217 1.08325 10.7917V11.875" stroke="white" stroke-linecap="round" stroke-linejoin="round"/>
  <path d="M5.41667 6.45833C6.61328 6.45833 7.58333 5.48828 7.58333 4.29167C7.58333 3.09505 6.61328 2.125 5.41667 2.125C4.22005 2.125 3.25 3.09505 3.25 4.29167C3.25 5.48828 4.22005 6.45833 5.41667 6.45833Z" stroke="white" stroke-linecap="round" stroke-linejoin="round"/>
  <path fill-rule="evenodd" clip-rule="evenodd" d="M10.5626 2.66699C10.413 2.66699 10.2917 2.78825 10.2917 2.93783V4.29199H8.93758C8.788 4.29199 8.66675 4.41325 8.66675 4.56283C8.66675 4.7124 8.788 4.83366 8.93758 4.83366H10.2917V6.18783C10.2917 6.3374 10.413 6.45866 10.5626 6.45866C10.7122 6.45866 10.8334 6.3374 10.8334 6.18783V4.83366H12.1876C12.3372 4.83366 12.4584 4.7124 12.4584 4.56283C12.4584 4.41325 12.3372 4.29199 12.1876 4.29199H10.8334V2.93783C10.8334 2.78825 10.7122 2.66699 10.5626 2.66699Z" fill="white"/>
</svg>