<svg width="25" height="21" viewBox="0 0 25 21" fill="none" xmlns="http://www.w3.org/2000/svg">
<g id="Frame 523">
<path id="Vector" d="M19.2939 10.0619L15.255 6.12793L16.607 4.84186L19.2939 7.45895L23.6676 3.22478L25 4.54163L19.2939 10.0619ZM9.48311 10.121C8.26253 10.121 7.21981 9.69979 6.35495 8.8574C5.49009 8.01521 5.05766 6.99957 5.05766 5.81049C5.05766 4.62162 5.49009 3.60598 6.35495 2.76359C7.21981 1.9212 8.26253 1.5 9.48311 1.5C10.7037 1.5 11.7464 1.9212 12.6113 2.76359C13.4761 3.60598 13.9086 4.62162 13.9086 5.81049C13.9086 6.99957 13.4761 8.01521 12.6113 8.8574C11.7464 9.69979 10.7037 10.121 9.48311 10.121ZM0 19.5V16.7619C0 16.1589 0.168167 15.6003 0.504501 15.0864C0.840836 14.5724 1.29034 14.1773 1.853 13.901C3.10266 13.3043 4.36339 12.8567 5.63518 12.5583C6.90697 12.2598 8.18962 12.1106 9.48311 12.1106C10.7766 12.1106 12.0593 12.2598 13.331 12.5583C14.6028 12.8567 15.8636 13.3043 17.1132 13.901C17.6759 14.1773 18.1254 14.5724 18.4617 15.0864C18.7981 15.6003 18.9662 16.1589 18.9662 16.7619V19.5H0Z" fill="#FC2D7C"/>
</g>
</svg>
