<svg width="8" height="8" viewBox="0 0 8 8" fill="none" xmlns="http://www.w3.org/2000/svg">
<path id="Union" fill-rule="evenodd" clip-rule="evenodd" d="M4.00011 0C3.75465 0 3.55566 0.198985 3.55566 0.444445V3.55561L0.444445 3.55561C0.198985 3.55561 0 3.75459 0 4.00005C0 4.24551 0.198985 4.4445 0.444445 4.4445H3.55566V7.55556C3.55566 7.80102 3.75465 8 4.00011 8C4.24557 8 4.44455 7.80102 4.44455 7.55556V4.4445H7.55556C7.80102 4.4445 8 4.24551 8 4.00005C8 3.75459 7.80102 3.55561 7.55556 3.55561L4.44455 3.55561V0.444445C4.44455 0.198985 4.24557 0 4.00011 0Z" fill="white"/>
</svg>
