<svg width="18" height="19" viewBox="0 0 18 19" fill="none" xmlns="http://www.w3.org/2000/svg">
<g id="following" clip-path="url(#clip0_1018_16618)">
<g id="Vector" filter="url(#filter0_d_1018_16618)">
<path d="M14.2252 8.82921V6.36754H11.7841V5.52678H14.2252V3.06512H15.0589V5.52678H17.5V6.36754H15.0589V8.82921H14.2252ZM7.39855 8.81005C6.58551 8.81005 5.90214 8.53087 5.34845 7.97252C4.79476 7.41416 4.51791 6.72289 4.51791 5.89869C4.51791 5.07449 4.79476 4.38537 5.34845 3.83132C5.90214 3.27711 6.58551 3 7.39855 3C8.21159 3 8.89496 3.27711 9.44865 3.83132C10.0023 4.38537 10.2792 5.07449 10.2792 5.89869C10.2792 6.72289 10.0023 7.41416 9.44865 7.97252C8.89496 8.53087 8.21159 8.81005 7.39855 8.81005ZM0.5 16V14.4964C0.5 14.0836 0.618425 13.6985 0.855275 13.3411C1.09229 12.9838 1.4203 12.7077 1.8393 12.5127C2.83582 12.0577 3.78519 11.7225 4.68742 11.507C5.58982 11.2915 6.49238 11.1838 7.3951 11.1838C8.29783 11.1838 9.20088 11.2915 10.1043 11.507C11.0076 11.7225 11.9576 12.0577 12.9541 12.5127C13.3731 12.7186 13.7017 12.9975 13.9399 13.3495C14.178 13.7013 14.2971 14.0836 14.2971 14.4964V16H0.5ZM1.33399 15.159H13.4631V14.4964C13.4631 14.2547 13.3841 14.0237 13.2261 13.8034C13.0679 13.583 12.8484 13.399 12.5675 13.2516C11.6712 12.8231 10.8083 12.5115 9.97886 12.3167C9.14939 12.1221 8.28929 12.0248 7.39855 12.0248C6.50782 12.0248 5.64501 12.1221 4.81012 12.3167C3.97506 12.5115 3.11365 12.8231 2.22587 13.2516C1.93662 13.399 1.71562 13.583 1.56287 13.8034C1.41028 14.0237 1.33399 14.2547 1.33399 14.4964V15.159ZM7.39855 7.96904C7.97261 7.96904 8.45723 7.76978 8.85242 7.37126C9.24777 6.97275 9.44545 6.48404 9.44545 5.90515C9.44545 5.32626 9.24777 4.83747 8.85242 4.43878C8.45723 4.04027 7.97261 3.84101 7.39855 3.84101C6.82449 3.84101 6.33987 4.04027 5.94468 4.43878C5.54933 4.83747 5.35165 5.32626 5.35165 5.90515C5.35165 6.48404 5.54933 6.97275 5.94468 7.37126C6.33987 7.76978 6.82449 7.96904 7.39855 7.96904Z" fill="white"/>
</g>
</g>
<defs>
<filter id="filter0_d_1018_16618" x="-0.5" y="2" width="19" height="15" filterUnits="userSpaceOnUse" color-interpolation-filters="sRGB">
<feFlood flood-opacity="0" result="BackgroundImageFix"/>
<feColorMatrix in="SourceAlpha" type="matrix" values="0 0 0 0 0 0 0 0 0 0 0 0 0 0 0 0 0 0 127 0" result="hardAlpha"/>
<feOffset/>
<feGaussianBlur stdDeviation="0.5"/>
<feComposite in2="hardAlpha" operator="out"/>
<feColorMatrix type="matrix" values="0 0 0 0 0 0 0 0 0 0 0 0 0 0 0 0 0 0 0.25 0"/>
<feBlend mode="normal" in2="BackgroundImageFix" result="effect1_dropShadow_1018_16618"/>
<feBlend mode="normal" in="SourceGraphic" in2="effect1_dropShadow_1018_16618" result="shape"/>
</filter>
<clipPath id="clip0_1018_16618">
<rect width="18" height="18" fill="white" transform="translate(0 0.5)"/>
</clipPath>
</defs>
</svg>
