<svg width="17" height="17" viewBox="0 0 17 17" fill="none" xmlns="http://www.w3.org/2000/svg">
<rect x="1.5" y="7.5" width="14" height="9" rx="0.5" stroke="white"/>
<rect x="0.5" y="4.5" width="16" height="3" rx="0.5" stroke="white"/>
<line x1="8.5" y1="17" x2="8.5" y2="8" stroke="white"/>
<path d="M15.5 2.48528C15.5 2.95205 15.2158 3.43613 14.6295 3.82643C14.0467 4.21437 13.2128 4.47057 12.2667 4.47057C11.9098 4.47057 11.5642 4.47869 11.2337 4.48645C10.5537 4.50243 9.93746 4.5169 9.41828 4.45612C9.03896 4.41171 8.79727 4.33326 8.65991 4.23886C8.5582 4.16896 8.5 4.08572 8.5 3.90545C8.5 3.68205 8.59509 3.35304 8.8139 2.9588C9.02763 2.5737 9.33791 2.16542 9.71278 1.79246C10.4784 1.03072 11.4252 0.5 12.2667 0.5C13.2128 0.5 14.0467 0.7562 14.6295 1.14413C15.2158 1.53444 15.5 2.01852 15.5 2.48528Z" stroke="white"/>
<path d="M1.5 2.48528C1.5 2.95205 1.78423 3.43613 2.37054 3.82643C2.95328 4.21437 3.7872 4.47057 4.73333 4.47057C5.09016 4.47057 5.43575 4.47869 5.76629 4.48645C6.44628 4.50243 7.06254 4.5169 7.58172 4.45612C7.96104 4.41171 8.20273 4.33326 8.34009 4.23886C8.4418 4.16896 8.5 4.08572 8.5 3.90545C8.5 3.68205 8.40491 3.35304 8.1861 2.9588C7.97237 2.5737 7.66209 2.16542 7.28722 1.79246C6.52156 1.03072 5.57484 0.5 4.73333 0.5C3.7872 0.5 2.95328 0.7562 2.37054 1.14413C1.78423 1.53444 1.5 2.01852 1.5 2.48528Z" stroke="white"/>
</svg>
