<svg width="38" height="38" viewBox="0 0 38 38" fill="none" xmlns="http://www.w3.org/2000/svg">
<g id="Frame 554">
<g id="Vector" filter="url(#filter0_d_2163_17844)">
<path d="M11.5 12.75C11.5 11.7554 11.8951 10.8016 12.5983 10.0983C13.3016 9.39509 14.2554 9 15.25 9C16.2446 9 17.1984 9.39509 17.9017 10.0983C18.6049 10.8016 19 11.7554 19 12.75C19 11.7554 19.3951 10.8016 20.0983 10.0983C20.8016 9.39509 21.7554 9 22.75 9C23.7446 9 24.6984 9.39509 25.4017 10.0983C26.1049 10.8016 26.5 11.7554 26.5 12.75V12.759C26.5 12.864 26.5 13.164 26.443 13.5H29.5C29.8978 13.5 30.2794 13.658 30.5607 13.9393C30.842 14.2206 31 14.6022 31 15V16.5C31 16.8978 30.842 17.2794 30.5607 17.5607C30.2794 17.842 29.8978 18 29.5 18H8.5C8.10218 18 7.72064 17.842 7.43934 17.5607C7.15804 17.2794 7 16.8978 7 16.5V15C7 14.6022 7.15804 14.2206 7.43934 13.9393C7.72064 13.658 8.10218 13.5 8.5 13.5H11.557C11.5176 13.255 11.4985 13.0071 11.5 12.759V12.75ZM13.102 13.5H17.5V12.75C17.5 12.4545 17.4418 12.1619 17.3287 11.889C17.2157 11.616 17.0499 11.3679 16.841 11.159C16.6321 10.9501 16.384 10.7843 16.111 10.6713C15.8381 10.5582 15.5455 10.5 15.25 10.5C14.9545 10.5 14.6619 10.5582 14.389 10.6713C14.116 10.7843 13.8679 10.9501 13.659 11.159C13.4501 11.3679 13.2843 11.616 13.1713 11.889C13.0582 12.1619 13 12.4545 13 12.75C13 12.8775 13.003 13.161 13.0675 13.395L13.102 13.5ZM20.5 13.5H24.898L24.9325 13.395C24.997 13.161 25 12.8775 25 12.75C25 12.1533 24.7629 11.581 24.341 11.159C23.919 10.7371 23.3467 10.5 22.75 10.5C22.1533 10.5 21.581 10.7371 21.159 11.159C20.7371 11.581 20.5 12.1533 20.5 12.75V13.5ZM29.5 19.5V30.75C29.5 31.3467 29.2629 31.919 28.841 32.341C28.419 32.7629 27.8467 33 27.25 33H20.5V19.5H29.5ZM10.75 33C10.1533 33 9.58097 32.7629 9.15901 32.341C8.73705 31.919 8.5 31.3467 8.5 30.75V19.5H17.5V33H10.75Z" fill="#FC2D7C"/>
</g>
</g>
<defs>
<filter id="filter0_d_2163_17844" x="6" y="8" width="26" height="26" filterUnits="userSpaceOnUse" color-interpolation-filters="sRGB">
<feFlood flood-opacity="0" result="BackgroundImageFix"/>
<feColorMatrix in="SourceAlpha" type="matrix" values="0 0 0 0 0 0 0 0 0 0 0 0 0 0 0 0 0 0 127 0" result="hardAlpha"/>
<feOffset/>
<feGaussianBlur stdDeviation="0.5"/>
<feComposite in2="hardAlpha" operator="out"/>
<feColorMatrix type="matrix" values="0 0 0 0 0 0 0 0 0 0 0 0 0 0 0 0 0 0 0.45 0"/>
<feBlend mode="normal" in2="BackgroundImageFix" result="effect1_dropShadow_2163_17844"/>
<feBlend mode="normal" in="SourceGraphic" in2="effect1_dropShadow_2163_17844" result="shape"/>
</filter>
</defs>
</svg>
