<svg width="18" height="18" viewBox="0 0 18 18" fill="none" xmlns="http://www.w3.org/2000/svg">
<g id="Group">
<path id="Vector" d="M17.2501 9.15798C17.2501 8.48166 17.1939 7.98813 17.0724 7.47632H9.16846V10.5289H13.8079C13.7144 11.2875 13.2093 12.4299 12.0868 13.1976L12.0711 13.2998L14.5701 15.1915L14.7433 15.2084C16.3334 13.7734 17.2501 11.6622 17.2501 9.15798Z" fill="#4285F4"/>
<path id="Vector_2" d="M9.16838 17.2013C11.4413 17.2013 13.3494 16.4701 14.7432 15.2089L12.0867 13.1981C11.3759 13.6825 10.4218 14.0207 9.16838 14.0207C6.9422 14.0207 5.05276 12.5858 4.37923 10.6025L4.2805 10.6107L1.68193 12.5757L1.64795 12.668C3.03229 15.355 5.87583 17.2013 9.16838 17.2013Z" fill="#34A853"/>
<path id="Vector_3" d="M4.37922 10.6024C4.2015 10.0906 4.09865 9.5422 4.09865 8.97558C4.09865 8.40889 4.2015 7.86054 4.36987 7.34874L4.36516 7.23973L1.73402 5.24316L1.64794 5.28317C1.07738 6.39821 0.75 7.65035 0.75 8.97558C0.75 10.3008 1.07738 11.5529 1.64794 12.6679L4.37922 10.6024Z" fill="#FBBC05"/>
<path id="Vector_4" d="M9.16838 3.93054C10.7491 3.93054 11.8154 4.59772 12.4235 5.15527L14.7993 2.88865C13.3402 1.56342 11.4413 0.75 9.16838 0.75C5.87583 0.75 3.03229 2.59617 1.64795 5.28317L4.36988 7.34874C5.05276 5.36546 6.9422 3.93054 9.16838 3.93054Z" fill="#EB4335"/>
</g>
</svg>
