<svg xmlns="http://www.w3.org/2000/svg" width="23" height="22" viewBox="0 0 23 22" fill="none">
  <mask id="path-1-inside-1_3913_5324" fill="white">
    <path fill-rule="evenodd" clip-rule="evenodd" d="M3.30834 3.63217C1.19572 5.80839 1.19572 9.33674 3.30834 11.513L4.07358 12.3012L4.07342 12.3014L11.7239 20.1822L20.1394 11.5133C22.252 9.33711 22.252 5.80876 20.1394 3.63254C18.0268 1.45632 14.6016 1.45632 12.4889 3.63254L11.7241 4.42045L10.9588 3.63217C8.84619 1.45594 5.42096 1.45595 3.30834 3.63217Z"/>
  </mask>
  <path d="M3.30834 11.513L4.02586 10.8164L3.30834 11.513ZM3.30834 3.63217L4.02585 4.32871L3.30834 3.63217ZM4.07358 12.3012L4.79119 12.9977L5.46719 12.3011L4.7911 11.6047L4.07358 12.3012ZM4.07342 12.3014L3.35581 11.605L2.67981 12.3015L3.35591 12.998L4.07342 12.3014ZM11.7239 20.1822L11.0064 20.8787L11.7239 21.6179L12.4414 20.8787L11.7239 20.1822ZM20.1394 11.5133L20.8569 12.2099L20.1394 11.5133ZM20.1394 3.63254L20.8569 2.93599L20.1394 3.63254ZM12.4889 3.63254L11.7714 2.93599V2.93599L12.4889 3.63254ZM11.7241 4.42045L11.0065 5.11699L11.7241 5.85611L12.4416 5.11699L11.7241 4.42045ZM10.9588 3.63217L11.6763 2.93562V2.93562L10.9588 3.63217ZM4.02586 10.8164C2.28988 9.02818 2.28988 6.11694 4.02585 4.32871L2.59083 2.93562C0.101559 5.49983 0.101561 9.6453 2.59083 12.2095L4.02586 10.8164ZM4.7911 11.6047L4.02586 10.8164L2.59083 12.2095L3.35607 12.9978L4.7911 11.6047ZM4.79103 12.9979L4.79119 12.9977L3.35597 11.6048L3.35581 11.605L4.79103 12.9979ZM12.4414 19.4857L4.79093 11.6049L3.35591 12.998L11.0064 20.8787L12.4414 19.4857ZM19.4219 10.8168L11.0064 19.4857L12.4414 20.8787L20.8569 12.2099L19.4219 10.8168ZM19.4219 4.32908C21.1579 6.11731 21.1579 9.02855 19.4219 10.8168L20.8569 12.2099C23.3462 9.64567 23.3462 5.5002 20.8569 2.93599L19.4219 4.32908ZM13.2065 4.32908C14.9263 2.55747 17.7021 2.55747 19.4219 4.32908L20.8569 2.93599C18.3515 0.355164 14.2768 0.355166 11.7714 2.93599L13.2065 4.32908ZM12.4416 5.11699L13.2065 4.32908L11.7714 2.93599L11.0065 3.7239L12.4416 5.11699ZM10.2413 4.32871L11.0065 5.11699L12.4416 3.7239L11.6763 2.93562L10.2413 4.32871ZM4.02585 4.32871C5.74569 2.5571 8.52146 2.5571 10.2413 4.32871L11.6763 2.93562C9.17092 0.354793 5.09623 0.354793 2.59083 2.93562L4.02585 4.32871Z" fill="white" mask="url(#path-1-inside-1_3913_5324)"/>
</svg>