<svg xmlns="http://www.w3.org/2000/svg" width="28" height="28" viewBox="0 0 28 28" fill="none">
  <path fill-rule="evenodd" clip-rule="evenodd" d="M6.21479 15.6571L13.9998 23.6765L23.7059 13.6781C25.8674 11.4516 25.8674 7.8249 23.7059 5.59835C21.567 3.39506 18.1169 3.39506 15.978 5.59835L14 7.6359L12.0215 5.59787C9.8826 3.39459 6.43246 3.39459 4.29357 5.59787C2.13209 7.82443 2.13209 11.4511 4.29357 13.6777L6.21479 15.6571ZM13.9998 25.6864L4.26279 15.6563L3.28905 14.6528C0.600265 11.8831 0.600263 7.39245 3.28905 4.62271C5.97729 1.85354 10.3354 1.85298 13.0244 4.62102L13.026 4.62271L14 5.62598L14.9734 4.62319L14.9756 4.62102C17.6645 1.85345 22.0223 1.85417 24.7104 4.62318C27.3992 7.39292 27.3992 11.8835 24.7104 14.6533L13.9998 25.6864Z" fill="white"/>
</svg>