<svg xmlns="http://www.w3.org/2000/svg" width="25" height="20" viewBox="0 0 25 20" fill="none">
  <path d="M12.7998 20L12.0412 19.3464C9.8113 17.4074 7.96647 15.7516 6.5067 14.3791C5.04693 13.0065 3.89751 11.8028 3.05843 10.768C2.21934 9.73312 1.63314 8.80174 1.2998 7.97386C0.966471 7.14597 0.799805 6.31808 0.799805 5.4902C0.799805 3.94336 1.35728 2.64161 2.47222 1.58497C3.58716 0.528322 4.96072 0 6.59291 0C7.8113 0 8.94923 0.310458 10.0067 0.931373C11.0642 1.55229 11.9952 2.80174 12.7998 4C13.6044 2.80174 14.8591 1.55229 15.9166 0.931373C16.974 0.310458 17.9344 0 19.1527 0C20.7849 0 22.0125 0.528322 23.1274 1.58497C24.2423 2.64161 24.7998 3.94336 24.7998 5.4902C24.7998 6.31808 24.6331 7.14597 24.2998 7.97386C23.9665 8.80174 23.3803 9.73312 22.5412 10.768C21.7021 11.8028 20.5584 13.0065 19.1102 14.3791C17.6619 15.7516 15.8113 17.4074 13.5584 19.3464L12.7998 20Z" fill="#FC2D7C"/>
</svg>