<svg xmlns="http://www.w3.org/2000/svg" width="24" height="24" viewBox="0 0 24 24" fill="none">
  <path d="M14.5246 12.5496L13.7732 11.7982C13.8735 11.2441 13.7155 10.7459 13.2989 10.3036C12.8825 9.86139 12.3715 9.69049 11.7658 9.79085L11.0144 9.03943C11.1654 8.97163 11.3202 8.92077 11.4789 8.88687C11.6376 8.85297 11.8113 8.83602 12 8.83602C12.7592 8.83602 13.4037 9.10088 13.9334 9.6306C14.4631 10.1603 14.728 10.8048 14.728 11.564C14.728 11.7527 14.7111 11.9286 14.6771 12.0916C14.6432 12.2546 14.5924 12.4072 14.5246 12.5496ZM16.6529 14.6316L15.9144 13.9394C16.3381 13.616 16.7145 13.2619 17.0435 12.8772C17.3725 12.4924 17.6541 12.0547 17.8883 11.564C17.3307 10.4377 16.5305 9.54272 15.4878 8.87918C14.4451 8.21563 13.2825 7.88386 12 7.88386C11.6766 7.88386 11.3588 7.90617 11.0465 7.95077C10.7342 7.99538 10.4276 8.06229 10.1265 8.15151L9.34677 7.37182C9.76966 7.20365 10.2016 7.07969 10.6425 6.99995C11.0835 6.92011 11.536 6.88018 12 6.88018C13.5681 6.88018 14.9822 7.31254 16.2424 8.17727C17.5026 9.042 18.4218 10.1709 19 11.564C18.7521 12.1619 18.4319 12.7199 18.0395 13.2382C17.6469 13.7563 17.1847 14.2208 16.6529 14.6316ZM17.1934 18.5023L14.4861 15.8154C14.143 15.9425 13.7627 16.0463 13.3453 16.1269C12.928 16.2075 12.4795 16.2479 12 16.2479C10.4276 16.2479 9.01344 15.8155 7.75761 14.9508C6.50167 14.086 5.58247 12.9571 5 11.564C5.24702 10.973 5.56613 10.4216 5.95734 9.90996C6.34856 9.39819 6.77919 8.95445 7.24925 8.57874L5.39629 6.70521L6.10154 6.00012L17.8985 17.797L17.1934 18.5023ZM7.9545 9.28383C7.60098 9.56519 7.25717 9.90343 6.92305 10.2985C6.58894 10.6936 6.3185 11.1154 6.11174 11.564C6.66934 12.6904 7.4695 13.5853 8.51221 14.2489C9.55492 14.9124 10.7175 15.2442 12 15.2442C12.3046 15.2442 12.6078 15.2184 12.9098 15.1669C13.2117 15.1155 13.4678 15.0623 13.678 15.0075L12.8312 14.1401C12.7171 14.1864 12.585 14.2233 12.4349 14.2507C12.2848 14.2783 12.1398 14.292 12 14.292C11.2408 14.292 10.5963 14.0272 10.0666 13.4974C9.53686 12.9677 9.272 12.3232 9.272 11.564C9.272 11.4285 9.28577 11.2868 9.31332 11.1388C9.34075 10.9908 9.37761 10.8555 9.42389 10.7328L7.9545 9.28383Z" fill="#333"/>
</svg>
