<svg xmlns="http://www.w3.org/2000/svg" width="24" height="24" viewBox="0 0 24 24" fill="none">
  <rect width="24" height="24" rx="6" fill="#111111" fill-opacity="0.5"/>
  <path d="M8.2462 18.5074C7.84727 18.5074 7.50647 18.3661 7.2238 18.0836C6.94127 17.8009 6.8 17.4601 6.8 17.0612V6.90736H6V5.70736H9.6V4.99976H14.4V5.70736H18V6.90736H17.2V17.0612C17.2 17.4653 17.06 17.8074 16.78 18.0874C16.5 18.3674 16.1579 18.5074 15.7538 18.5074H8.2462ZM16 6.90736H8V17.0612C8 17.133 8.02307 17.192 8.0692 17.2382C8.11533 17.2843 8.17433 17.3074 8.2462 17.3074H15.7538C15.8154 17.3074 15.8718 17.2817 15.923 17.2304C15.9743 17.1792 16 17.1228 16 17.0612V6.90736ZM9.9232 15.7074H11.123V8.50736H9.9232V15.7074ZM12.877 15.7074H14.0768V8.50736H12.877V15.7074Z" fill="white"/>
</svg>