<svg width="24" height="24" viewBox="0 0 24 24" fill="none" xmlns="http://www.w3.org/2000/svg">
<g clip-path="url(#clip0_1639_23382)">
<path fill-rule="evenodd" clip-rule="evenodd" d="M20.5312 3.46876C19.5943 2.53187 18.3248 2.00378 16.9998 1.99982H7.00018C5.67522 2.00378 4.40566 2.53187 3.46876 3.46876C2.53187 4.40566 2.00378 5.67522 1.99982 7.00018V16.9998C2.00378 18.3248 2.53187 19.5943 3.46876 20.5312C4.40566 21.4681 5.67522 21.9962 7.00018 22.0002H16.9998C18.3248 21.9962 19.5943 21.4681 20.5312 20.5312C21.4681 19.5943 21.9962 18.3248 22.0002 16.9998V7.00018C21.9962 5.67522 21.4681 4.40566 20.5312 3.46876ZM7.00018 0H16.9998C20.85 0 24 3.15 24 7.00018V16.9998C24 20.85 20.85 24 16.9998 24H7.00018C3.15 24 0 20.85 0 16.9998V7.00018C0 3.15 3.15 0 7.00018 0ZM17.6665 6.74741C17.9131 6.91224 18.2032 7.00021 18.4998 7.00021C18.6969 7.00063 18.8922 6.96212 19.0743 6.88689C19.2565 6.81166 19.4221 6.70119 19.5614 6.56182C19.7008 6.42244 19.8113 6.25692 19.8865 6.07474C19.9617 5.89256 20.0002 5.69731 19.9998 5.50021C19.9998 5.20354 19.9118 4.91353 19.747 4.66685C19.5822 4.42018 19.3479 4.22792 19.0738 4.11439C18.7998 4.00086 18.4982 3.97115 18.2072 4.02903C17.9162 4.08691 17.6489 4.22977 17.4392 4.43955C17.2294 4.64933 17.0865 4.9166 17.0286 5.20757C16.9708 5.49855 17.0005 5.80015 17.114 6.07423C17.2275 6.34832 17.4198 6.58259 17.6665 6.74741ZM14.2224 8.674C13.5646 8.23446 12.7912 7.99985 12 7.99985C10.9394 8.00099 9.92264 8.4228 9.1727 9.17273C8.42277 9.92266 8.00096 10.9395 7.99982 12C7.99982 12.7912 8.23443 13.5646 8.67398 14.2224C9.11352 14.8802 9.73826 15.393 10.4692 15.6957C11.2001 15.9985 12.0044 16.0777 12.7804 15.9233C13.5564 15.769 14.2691 15.388 14.8286 14.8286C15.388 14.2691 15.769 13.5564 15.9233 12.7804C16.0777 12.0045 15.9984 11.2002 15.6957 10.4692C15.3929 9.73829 14.8802 9.11355 14.2224 8.674ZM8.66658 7.01121C9.65328 6.35192 10.8133 6.00003 12 6.00003C13.5913 6.00003 15.1174 6.63217 16.2426 7.75739C17.3679 8.88261 18 10.4087 18 12C18 13.1867 17.6481 14.3468 16.9888 15.3335C16.3295 16.3201 15.3925 17.0892 14.2961 17.5433C13.1997 17.9974 11.9933 18.1163 10.8295 17.8847C9.66558 17.6532 8.59648 17.0818 7.75736 16.2427C6.91825 15.4036 6.3468 14.3345 6.11529 13.1706C5.88378 12.0067 6.0026 10.8003 6.45673 9.70393C6.91085 8.60757 7.67989 7.6705 8.66658 7.01121Z" fill="white"/>
</g>
<defs>
<clipPath id="clip0_1639_23382">
<rect width="24" height="24" fill="white"/>
</clipPath>
</defs>
</svg>
