<svg width="24" height="26" viewBox="0 0 24 26" fill="none" xmlns="http://www.w3.org/2000/svg">
<g id="light-idea 1" clip-path="url(#clip0_1025_16990)" filter="url(#filter0_d_1025_16990)">
<path id="Union" fill-rule="evenodd" clip-rule="evenodd" d="M12 25.077C11.3624 25.077 10.8126 24.8561 10.3507 24.4144C9.88878 23.9727 9.63763 23.433 9.59724 22.7955H14.4027C14.3623 23.433 14.1111 23.9727 13.6492 24.4144C13.1873 24.8561 12.6375 25.077 12 25.077ZM7.26709 21.0478V19.1546H16.7328V21.0478H7.26709ZM7.46114 17.4072C6.13931 16.5852 5.09292 15.5112 4.32199 14.1851C3.55085 12.8593 3.16528 11.4091 3.16528 9.83467C3.16528 7.37527 4.02288 5.28797 5.73807 3.57278C7.45325 1.85759 9.54055 1 12 1C14.4594 1 16.5467 1.85759 18.2618 3.57278C19.977 5.28797 20.8346 7.37527 20.8346 9.83467C20.8346 11.4091 20.4491 12.8593 19.6779 14.1851C18.907 15.5112 17.8606 16.5852 16.5388 17.4072H7.46114ZM8.02435 15.5141H15.9756C16.9221 14.841 17.6531 14.0101 18.1684 13.0215C18.6838 12.0328 18.9415 10.9706 18.9415 9.83467C18.9415 7.89946 18.2684 6.25873 16.9221 4.9125C15.5759 3.56626 13.9352 2.89314 12 2.89314C10.0647 2.89314 8.42402 3.56626 7.07778 4.9125C5.73154 6.25873 5.05843 7.89946 5.05843 9.83467C5.05843 10.9706 5.3161 12.0328 5.83146 13.0215C6.34682 14.0101 7.07778 14.841 8.02435 15.5141ZM10.7379 5.41734H13.262V9.20362H10.7379V5.41734ZM12 10.4657C11.3029 10.4657 10.7379 11.0308 10.7379 11.7278C10.7379 12.4248 11.3029 12.9899 12 12.9899C12.697 12.9899 13.262 12.4248 13.262 11.7278C13.262 11.0308 12.697 10.4657 12 10.4657Z" fill="white"/>
</g>
<defs>
<filter id="filter0_d_1025_16990" x="-1" y="0" width="26" height="26" filterUnits="userSpaceOnUse" color-interpolation-filters="sRGB">
<feFlood flood-opacity="0" result="BackgroundImageFix"/>
<feColorMatrix in="SourceAlpha" type="matrix" values="0 0 0 0 0 0 0 0 0 0 0 0 0 0 0 0 0 0 127 0" result="hardAlpha"/>
<feOffset/>
<feGaussianBlur stdDeviation="0.5"/>
<feComposite in2="hardAlpha" operator="out"/>
<feColorMatrix type="matrix" values="0 0 0 0 0 0 0 0 0 0 0 0 0 0 0 0 0 0 0.45 0"/>
<feBlend mode="normal" in2="BackgroundImageFix" result="effect1_dropShadow_1025_16990"/>
<feBlend mode="normal" in="SourceGraphic" in2="effect1_dropShadow_1025_16990" result="shape"/>
</filter>
<clipPath id="clip0_1025_16990">
<rect width="24" height="24" fill="white" transform="translate(0 1)"/>
</clipPath>
</defs>
</svg>
