<svg xmlns="http://www.w3.org/2000/svg" width="98" height="98" viewBox="0 0 98 98" fill="none">
  <path d="M49.0001 80.4179V97.8725C67.083 97.8725 82.8619 88.0456 91.3273 73.4361L76.1942 64.6914C70.7659 74.082 60.6248 80.4179 49.0001 80.4179Z" fill="#5D7FD8" fill-opacity="0.2"/>
  <path d="M91.3273 24.5635L76.1942 33.3082C78.8648 37.9337 80.4182 43.2747 80.4182 48.9998C80.4182 54.7249 78.8648 60.066 76.1942 64.6915L91.3273 73.4362C95.4815 66.2449 97.8728 57.9017 97.8728 48.9998C97.8728 40.098 95.4815 31.7547 91.3273 24.5635Z" fill="#5D7FD8" fill-opacity="0.2"/>
  <path d="M21.8059 64.6914L6.67279 73.4361C15.1208 88.0456 30.8997 97.8725 49.0001 97.8725V80.4179C37.3753 80.4179 27.2517 74.082 21.8059 64.6914Z" fill="#5D7FD8" fill-opacity="0.2"/>
  <path d="M76.1942 33.308L91.3273 24.5633C82.8619 9.95386 67.083 0.126953 49.0001 0.126953V17.5815C60.6248 17.5815 70.7484 23.9175 76.1942 33.308Z" fill="#5D7FD8" fill-opacity="0.2"/>
  <path d="M49.2501 0.377583C67.0461 0.467229 82.5717 10.1233 90.985 24.4724L76.2844 32.9672C70.8064 23.689 60.7743 17.4219 49.2501 17.3325V0.377583Z" stroke="black" stroke-opacity="0.15" stroke-width="0.5"/>
  <path d="M17.5819 48.9998C17.5819 43.2747 19.1353 37.9337 21.8059 33.3082L6.67277 24.5635C2.51859 31.7547 0.127319 40.098 0.127319 48.9998C0.127319 57.9017 2.51859 66.2449 6.67277 73.4362L21.8059 64.6915C19.1353 60.066 17.5819 54.7249 17.5819 48.9998Z" fill="#5D7FD8" fill-opacity="0.2"/>
  <path d="M49.0001 17.5815V0.126953C30.9172 0.126953 15.1382 9.95386 6.67279 24.5633L21.8059 33.308C27.2342 23.9175 37.3753 17.5815 49.0001 17.5815Z" fill="#5D7FD8" fill-opacity="0.2"/>
</svg>