<svg width="29" height="28" viewBox="0 0 29 28" fill="none" xmlns="http://www.w3.org/2000/svg">
<g id="kakao" clip-path="url(#clip0_803_14813)">
<rect id="Rectangle 8071" x="4.0791" y="7" width="22.0436" height="10" fill="#F7E439"/>
<path id="Vector" d="M14.8779 0C7.14659 0 0.87793 5.39 0.87793 12.04C0.87793 16.3625 3.53005 20.16 7.51628 22.295C7.22695 23.485 6.45543 26.6 6.29469 27.265C6.10181 28.0875 6.56794 28.0875 6.87334 27.86C7.11444 27.685 10.7149 25.025 12.258 23.87C13.0938 24.01 13.9617 24.08 14.8619 24.08C22.5932 24.08 28.8619 18.69 28.8619 12.04C28.8619 5.39 22.6093 0 14.8779 0ZM8.0467 15.155C8.0467 15.89 6.55187 15.8725 6.55187 15.155C6.55187 14.1575 6.55187 9.835 6.55187 9.835H5.10525C4.25336 9.835 4.25336 8.33 5.10525 8.33C5.10525 8.33 8.48069 8.365 9.49331 8.365C10.3934 8.365 10.3934 9.905 9.49331 9.905C8.54498 9.905 8.06277 9.905 8.06277 9.905V15.1725L8.0467 15.155ZM13.5599 15.33C13.2063 14.3325 13.3027 14.28 13.3027 14.28H10.6667L10.3774 15.3825C10.072 16.1525 8.73786 15.5225 9.05933 14.7525C9.47724 13.685 10.7631 9.6775 11.1167 8.82C11.2614 8.4875 11.5829 8.3475 11.9204 8.3475C12.3222 8.3475 12.7562 8.54 12.8687 8.82C13.1259 9.415 14.5243 13.5975 14.9261 14.77C15.2155 15.5925 13.8492 16.1525 13.5599 15.33ZM18.8963 15.6975C18.2212 15.6975 16.6942 15.6975 16.0031 15.6975C15.3119 15.6975 15.4244 14.8225 15.4244 14.8225C15.4244 14.8225 15.4244 10.43 15.4244 9.065C15.4244 8.5925 15.8102 8.3475 16.212 8.3475C16.6139 8.3475 16.9836 8.5925 16.9836 9.065C16.9836 10.045 16.9836 14.1225 16.9836 14.1225C16.9836 14.1225 18.2212 14.1225 18.8963 14.1225C19.5714 14.1225 19.5714 15.6975 18.8963 15.6975ZM23.5576 15.575L21.6609 12.7575L21.227 13.1425C21.227 13.1425 21.227 14.5425 21.227 15.2775C21.227 15.9075 19.7482 15.9075 19.7482 15.2775C19.7482 14.875 19.7803 9.4675 19.7643 8.8725C19.7643 8.54 20.15 8.365 20.5197 8.365C20.8733 8.365 21.227 8.5225 21.227 8.82C21.243 9.625 21.227 11.095 21.227 11.095C21.227 11.095 23.3647 8.75 23.6701 8.435C23.9916 8.085 24.956 9.17 24.6506 9.5025C24.1041 10.08 22.7379 11.69 22.7379 11.69L24.747 14.5775C25.1328 15.1375 23.9273 16.1175 23.5415 15.575H23.5576Z" fill="#391C1C"/>
<path id="Vector_2" d="M11.1328 12.8452H12.8045L12.0008 10.1152L11.1328 12.8452Z" fill="#391C1C"/>
</g>
<defs>
<clipPath id="clip0_803_14813">
<rect width="28" height="28" fill="white" transform="translate(0.87793)"/>
</clipPath>
</defs>
</svg>
