<svg xmlns="http://www.w3.org/2000/svg" width="41" height="47" viewBox="0 0 41 47" fill="none">
  <g clip-path="url(#clip0_2450_58374)">
    <path d="M40.0391 16.5465C40.773 15.7417 41.2631 14.7152 40.8454 14.3489C41.2124 13.2019 40.2395 12.3947 39.38 11.9055C38.5206 11.4164 37.7625 11.2694 37.5428 11.2573C37.3232 11.2453 37.5428 11.6838 37.5428 11.6838C36.7848 11.3176 36.9683 11.732 37.0769 11.867C36.2199 11.5489 36.6496 12.2814 36.6979 12.3055C36.2319 12.4043 35.964 12.6477 35.8046 12.8549C35.6453 13.0621 35.6743 13.2453 35.3653 13.4742C35.0562 13.7031 34.6965 13.9127 34.501 14.3706C34.3054 14.826 34.1413 15.2983 34.1413 15.2983C34.1413 15.2983 33.1949 14.3368 32.7217 14.1103C32.2485 13.8814 30.52 12.8573 29.4433 12.6621C28.3665 12.467 28.8059 12.1248 26.8504 11.6862C24.8925 11.2477 24.3542 11.2959 23.3764 11.0501C22.3987 10.8067 20.5856 10.2188 20.5856 10.2188L20.3901 10.6573C20.3901 10.6573 19.1903 10.0477 18.9223 9.75371C18.6543 9.45974 18.8981 8.72721 18.7267 8.48383C18.5553 8.24046 17.9445 8.48383 17.9445 8.48383C17.5052 7.92239 16.7954 8.01877 16.6964 8.21636L16.5974 8.41154C16.5974 8.41154 16.158 8.67901 16.2305 9.04769C15.9625 9.43805 16.2232 9.61636 16.2232 9.61636C15.9046 9.79468 16.1339 9.98986 16.3295 10.1706C16.525 10.3489 16.933 10.5947 17.3072 10.6429C17.6814 10.6911 19.4437 12.4501 19.4437 12.4501L19.3134 13.2477C19.3134 13.2477 17.1696 12.026 16.0639 10.9995C14.9582 9.97299 12.952 7.53203 11.8753 6.31034C10.7986 5.08865 9.96568 4.69829 9.96568 4.69829L9.5263 5.04046C9.5263 5.04046 7.07832 3.77058 6.59066 3.18504C6.10058 2.5995 6.12472 2.03805 5.48979 1.71998C4.85245 1.40191 4.99971 1.67179 4.24166 1.15853C3.48119 0.64769 2.99112 0.293473 2.50104 0.0717864C2.01096 -0.147491 1.92646 0.18263 2.07373 0.353714C2.22099 0.524798 2.30549 0.597088 2.30549 0.597088C1.82748 0.266967 1.59572 0.170582 1.40017 0.254919C1.20462 0.339256 1.40017 0.633232 1.40017 0.633232C0.910093 0.31516 0.690403 0.413955 0.654191 0.560943C0.617978 0.707931 0.813526 0.963353 0.813526 0.963353C0.335519 0.695883 -0.190772 0.852509 0.067545 1.31757C0.323448 1.78263 1.24325 1.81877 1.63435 2.22118C2.02544 2.62359 3.30979 3.1248 3.86022 3.47902C4.41065 3.83323 5.96538 5.06697 6.35648 5.56817C6.74758 6.06938 7.78085 7.11034 7.78085 7.11034L7.35595 8.38022C7.35595 8.38022 8.62822 10.8887 10.1298 12.2549C11.6315 13.6236 12.2181 14.0453 12.8699 14.9585C13.5218 15.8694 15.1055 18.2814 16.3295 19.3561C17.5534 20.4308 17.4062 20.0887 17.65 21.0164C17.8118 21.6308 18.1256 22.9128 18.4877 24.3176C18.2511 25.0405 18.017 25.973 17.9276 27.0236C17.7152 29.467 16.0349 30.0525 16.0349 30.0525L16.6216 30.8332C16.6216 30.8332 18.3356 30.4911 18.7267 27.12C18.7798 26.6621 18.8402 26.2549 18.9054 25.8862C18.9609 26.0887 19.014 26.2887 19.0695 26.4838C19.6562 28.585 18.2367 36.3995 17.8938 36.9368C18.4322 37.9633 20.4987 38.5007 20.4987 38.5007C20.4987 38.5007 21.3437 41.7248 21.3437 42.7995C21.3437 43.8742 20.9526 44.5344 21.0999 45.4381C21.2471 46.3417 21.5899 46.0983 22.1042 46.1947C22.6184 46.2935 23.6468 46.0959 24.2818 46.4621C24.9191 46.8284 26.8504 47.1465 27.3405 46.9176C27.8306 46.6887 27.7002 46.3634 27.046 46.1031C26.3942 45.8429 25.6265 45.3224 25.006 44.6862C24.3856 44.0501 23.8472 44.0356 23.782 42.9441C23.7168 41.8525 23.683 38.9706 23.683 38.9706L24.1079 38.9537C24.1079 38.9537 24.2069 33.8573 24.2069 32.2453C24.2069 30.6332 24.4025 30.3393 24.4025 29.12C24.4025 27.9007 24.5497 25.5079 24.5497 25.5079C24.5497 25.5079 25.6265 25.6742 25.921 25.5079C26.2155 25.3417 26.9325 25.5079 26.9325 25.5079C26.9325 25.5079 27.6833 26.6766 27.8137 26.7754C27.3236 28.6959 26.7708 29.6091 27.3574 29.7055C27.9441 29.8043 31.2394 29.7393 32.6759 29.5103C34.1123 29.2814 34.373 29.2814 34.9597 28.5007C35.5463 27.72 37.1131 25.667 37.439 25.0477C37.7649 24.4284 38.0257 22.573 37.9605 21.6597C37.8953 20.7465 37.6346 20.5513 37.7963 20.0959C37.9605 19.6405 38.156 18.5007 38.156 18.5007L37.6998 18.1754L37.7649 17.6381C37.7649 17.6381 39.3076 17.3441 40.0415 16.5393L40.0391 16.5465ZM31.9516 26.8164C31.9516 26.8164 29.9937 25.932 30.042 25.9368C31.5581 26.0838 32.7338 25.2887 32.8062 25.2164C32.8787 25.1441 31.9492 26.8164 31.9492 26.8164H31.9516Z" fill="white"/>
  </g>
  <defs>
    <clipPath id="clip0_2450_58374">
      <rect width="41" height="47" fill="white"/>
    </clipPath>
  </defs>
</svg>