<svg width="26" height="26" viewBox="0 0 26 26" fill="none" xmlns="http://www.w3.org/2000/svg">
<g id="kickout">
<g id="Vector" filter="url(#filter0_d_1548_14243)">
<path d="M13.0001 12.4421C12.2501 12.4421 11.6112 12.1782 11.0834 11.6504C10.5556 11.1226 10.2917 10.4838 10.2917 9.73372C10.2917 8.98388 10.5556 8.34507 11.0834 7.81731C11.6112 7.28936 12.2501 7.02539 13.0001 7.02539C13.7501 7.02539 14.389 7.28936 14.9168 7.81731C15.4445 8.34507 15.7084 8.98388 15.7084 9.73372C15.7084 10.4838 15.4445 11.1226 14.9168 11.6504C14.389 12.1782 13.7501 12.4421 13.0001 12.4421ZM13.0001 11.5256C13.4959 11.5256 13.9185 11.3509 14.2679 11.0015C14.617 10.6523 14.7916 10.2297 14.7916 9.73372C14.7916 9.23792 14.617 8.81542 14.2679 8.46622C13.9185 8.11685 13.4959 7.94216 13.0001 7.94216C12.5043 7.94216 12.0817 8.11685 11.7323 8.46622C11.3831 8.81542 11.2085 9.23792 11.2085 9.73372C11.2085 10.2297 11.3831 10.6523 11.7323 11.0015C12.0817 11.3509 12.5043 11.5256 13.0001 11.5256ZM7.04175 18.109V16.5923C7.04175 16.2594 7.12173 15.968 7.28171 15.7183C7.44168 15.4684 7.69437 15.2474 8.03977 15.0553C8.80226 14.6294 9.60013 14.3096 10.4334 14.096C11.2667 13.8824 12.1222 13.7756 13.0001 13.7756C13.8732 13.7756 14.7276 13.8824 15.5632 14.096C16.3989 14.3096 17.1979 14.6294 17.9604 15.0553C18.2919 15.2474 18.5412 15.4695 18.7082 15.7216C18.875 15.9738 18.9584 16.2641 18.9584 16.5923V18.109H7.04175ZM13.0001 14.6921C12.1524 14.6921 11.3033 14.8167 10.4529 15.0659C9.60248 15.3149 8.76587 15.6838 7.94308 16.1728V17.2131H18.0571V16.1519C17.2482 15.663 16.4151 15.2975 15.5578 15.0553C14.7004 14.8132 13.8478 14.6921 13.0001 14.6921ZM13.0001 17.2131H18.0571H7.94308H13.0001Z" fill="#FF7D7D"/>
</g>
<g id="Union" filter="url(#filter1_d_1548_14243)">
<path fill-rule="evenodd" clip-rule="evenodd" d="M22.5783 3.53748C22.5482 3.49775 22.5132 3.46189 22.4742 3.43077C22.4369 3.40092 22.3969 3.37616 22.355 3.35652C22.2776 3.32014 22.1912 3.2998 22.1 3.2998H22.0996H18.2C17.8687 3.2998 17.6 3.56843 17.6 3.8998C17.6 4.23118 17.8687 4.4998 18.2 4.4998H20.6514L17.1257 8.02554C16.8914 8.25986 16.8914 8.63975 17.1257 8.87407C17.36 9.10838 17.7399 9.10838 17.9742 8.87407L21.5 5.34828V7.7998C21.5 8.13118 21.7687 8.3998 22.1 8.3998C22.4314 8.3998 22.7 8.13118 22.7 7.7998V3.8998C22.7 3.79502 22.6732 3.69652 22.626 3.61079C22.612 3.58549 22.5962 3.56098 22.5783 3.53748ZM8.89992 3.2999C5.80713 3.2999 3.29993 5.80711 3.29993 8.8999V17.0999C3.29993 20.1927 5.80713 22.6999 8.89993 22.6999H17.0999C20.1927 22.6999 22.6999 20.1927 22.6999 17.0999V12.9999C22.6999 12.6685 22.4313 12.3999 22.0999 12.3999C21.7686 12.3999 21.4999 12.6685 21.4999 12.9999V17.0999C21.4999 19.53 19.53 21.4999 17.0999 21.4999H8.89993C6.46987 21.4999 4.49993 19.53 4.49993 17.0999V8.8999C4.49993 6.46985 6.46987 4.4999 8.89992 4.4999H12.9999C13.3313 4.4999 13.5999 4.23127 13.5999 3.8999C13.5999 3.56853 13.3313 3.2999 12.9999 3.2999H8.89992Z" fill="#FF7D7D"/>
</g>
</g>
<defs>
<filter id="filter0_d_1548_14243" x="6.04175" y="6.02539" width="13.9167" height="13.084" filterUnits="userSpaceOnUse" color-interpolation-filters="sRGB">
<feFlood flood-opacity="0" result="BackgroundImageFix"/>
<feColorMatrix in="SourceAlpha" type="matrix" values="0 0 0 0 0 0 0 0 0 0 0 0 0 0 0 0 0 0 127 0" result="hardAlpha"/>
<feOffset/>
<feGaussianBlur stdDeviation="0.5"/>
<feComposite in2="hardAlpha" operator="out"/>
<feColorMatrix type="matrix" values="0 0 0 0 0 0 0 0 0 0 0 0 0 0 0 0 0 0 0.65 0"/>
<feBlend mode="normal" in2="BackgroundImageFix" result="effect1_dropShadow_1548_14243"/>
<feBlend mode="normal" in="SourceGraphic" in2="effect1_dropShadow_1548_14243" result="shape"/>
</filter>
<filter id="filter1_d_1548_14243" x="2.29993" y="2.2998" width="21.4001" height="21.4004" filterUnits="userSpaceOnUse" color-interpolation-filters="sRGB">
<feFlood flood-opacity="0" result="BackgroundImageFix"/>
<feColorMatrix in="SourceAlpha" type="matrix" values="0 0 0 0 0 0 0 0 0 0 0 0 0 0 0 0 0 0 127 0" result="hardAlpha"/>
<feOffset/>
<feGaussianBlur stdDeviation="0.5"/>
<feComposite in2="hardAlpha" operator="out"/>
<feColorMatrix type="matrix" values="0 0 0 0 0 0 0 0 0 0 0 0 0 0 0 0 0 0 0.65 0"/>
<feBlend mode="normal" in2="BackgroundImageFix" result="effect1_dropShadow_1548_14243"/>
<feBlend mode="normal" in="SourceGraphic" in2="effect1_dropShadow_1548_14243" result="shape"/>
</filter>
</defs>
</svg>
