<svg xmlns="http://www.w3.org/2000/svg" width="24" height="24" viewBox="0 0 24 24" fill="none">
  <path d="M12 21.2305L11.077 18.4618H4.61554C4.10787 18.4618 3.6732 18.2811 3.31154 17.9198C2.95004 17.5583 2.76929 17.1238 2.76929 16.6163V4.61879C2.76929 4.11129 2.95004 3.67613 3.31154 3.31329C3.6732 2.95046 4.10787 2.76904 4.61554 2.76904H10.1538L10.9615 5.53779H19.3845C19.923 5.53779 20.3654 5.71079 20.7115 6.05679C21.0577 6.40279 21.2308 6.84496 21.2308 7.38329V19.3808C21.2308 19.8883 21.0577 20.3235 20.7115 20.6863C20.3654 21.0491 19.923 21.2305 19.3845 21.2305H12ZM7.52929 14.3978C8.59312 14.3978 9.46545 14.0555 10.1463 13.371C10.827 12.6864 11.1673 11.7979 11.1673 10.7055C11.1673 10.5659 11.1647 10.4483 11.1595 10.3528C11.1545 10.2573 11.1366 10.1608 11.1058 10.0633H7.45004V11.4883H9.51154C9.3847 11.923 9.14979 12.2598 8.80679 12.4988C8.46379 12.738 8.04587 12.8575 7.55304 12.8575C6.9522 12.8575 6.43612 12.6402 6.00479 12.2055C5.57345 11.7709 5.35779 11.2408 5.35779 10.6153C5.35779 9.98963 5.57287 9.45946 6.00304 9.02479C6.4332 8.59013 6.94779 8.37279 7.54679 8.37279C7.82329 8.37279 8.0837 8.42221 8.32804 8.52104C8.5722 8.61971 8.7962 8.77096 9.00004 8.97479L10.1288 7.89604C9.80445 7.56138 9.41554 7.30046 8.96204 7.11329C8.50837 6.92613 8.02779 6.83254 7.52029 6.83254C6.49012 6.83254 5.6097 7.19954 4.87904 7.93354C4.1482 8.66754 3.78279 9.56146 3.78279 10.6153C3.78279 11.6691 4.14895 12.563 4.88129 13.2968C5.61362 14.0308 6.49629 14.3978 7.52929 14.3978ZM13.7058 14.8593L14.2173 14.3728C14.0033 14.1088 13.8052 13.8546 13.623 13.6103C13.441 13.3661 13.268 13.1069 13.1038 12.8325L13.7058 14.8593ZM14.8595 13.6805C15.2917 13.1737 15.6196 12.69 15.8433 12.2293C16.067 11.7686 16.2173 11.4062 16.2943 11.142H12.627L12.902 12.114H13.8185C13.9409 12.3455 14.087 12.5955 14.257 12.8638C14.427 13.1323 14.6279 13.4045 14.8595 13.6805ZM12.923 20.3075H19.3845C19.6615 20.3075 19.8846 20.219 20.0538 20.042C20.2231 19.8652 20.3078 19.646 20.3078 19.3845V7.38804C20.3078 7.11121 20.2232 6.88754 20.054 6.71704C19.8849 6.54654 19.6619 6.46129 19.385 6.46129H11.2423L12.3253 10.2035H14.1458V9.23354H15.0903V10.2035H18.4615V11.142H17.283C17.129 11.7242 16.8998 12.2928 16.5953 12.8478C16.2908 13.403 15.9295 13.9196 15.5115 14.3978L18.025 16.8708L17.3578 17.5383L14.8595 15.0498L14.027 15.8978L14.7693 18.4613L12.923 20.3075Z" fill="#333333"/>
</svg>
