<svg width="37" height="36" viewBox="0 0 37 36" fill="none" xmlns="http://www.w3.org/2000/svg">
<g id="i-like">
<path id="Vector" d="M18.1774 13.4181L18.8 14.3454L19.4227 13.4181C20.179 12.2918 21.3564 11.1302 22.2966 10.5781C23.2596 10.0127 24.0902 9.75 25.153 9.75C26.5862 9.75 27.6309 10.1998 28.6117 11.1293C29.576 12.0432 30.05 13.1476 30.05 14.4902C30.05 15.2148 29.9046 15.9479 29.6043 16.6937C29.309 17.4271 28.7717 18.2932 27.9589 19.2956C27.1478 20.2959 26.0294 21.4748 24.5945 22.8347C23.158 24.1961 21.3171 25.8434 19.0694 27.778L19.0691 27.7782L18.8 28.01L18.5336 27.7804C18.5331 27.7801 18.5327 27.7797 18.5322 27.7793C16.3072 25.8445 14.4706 24.196 13.0207 22.8327C11.5746 21.473 10.4514 20.2948 9.64123 19.2956C8.82845 18.2932 8.29107 17.4271 7.99577 16.6937C7.69547 15.9479 7.55005 15.2148 7.55005 14.4902C7.55005 13.1476 8.02406 12.0432 8.98837 11.1293C9.95469 10.2135 11.1397 9.75 12.5932 9.75C13.6771 9.75 14.6841 10.0244 15.6272 10.5781C16.5167 11.1004 17.3627 12.2049 18.1774 13.4181Z" stroke="#333333" stroke-width="1.5"/>
</g>
</svg>
