<svg width="24" height="21" viewBox="0 0 24 21" fill="none" xmlns="http://www.w3.org/2000/svg">
<path d="M21.4724 11.6104L18.2689 14.7528L18.2688 14.7529L13.7033 19.2293L13.7028 19.2298C13.2531 19.6716 12.6408 19.9219 12 19.9219C11.3592 19.9219 10.747 19.6716 10.2972 19.2298L10.2967 19.2292L2.52831 11.6139C2.52814 11.6138 2.52798 11.6136 2.52781 11.6134C1.38826 10.4926 0.750244 8.97509 0.75 7.39533C0.749756 5.81534 1.38749 4.29742 2.527 3.17619C3.66694 2.05455 5.21575 1.42212 6.83335 1.42188C8.45091 1.42163 9.9999 2.05357 11.1402 3.17481C11.1402 3.17484 11.1402 3.17487 11.1403 3.1749L11.4755 3.50469L12.0038 4.02434L12.5298 3.50238L12.8598 3.1749C12.8602 3.1745 12.8606 3.1741 12.861 3.17369C13.4252 2.61914 14.0956 2.17861 14.8342 1.87781C15.5734 1.57678 16.3659 1.42176 17.1666 1.42188C17.9674 1.42199 18.7599 1.57726 19.499 1.87851C20.238 2.17975 20.9087 2.6209 21.473 3.17619C22.0373 3.73145 22.4843 4.38994 22.7889 5.11372C23.0936 5.83747 23.2501 6.61273 23.25 7.39533C23.2499 8.17793 23.0931 8.95313 22.7882 9.6768C22.5027 10.3546 22.0924 10.975 21.5777 11.507L21.4724 11.6104Z" stroke="white" stroke-width="1.5"/>
</svg>
