<svg width="36" height="36" viewBox="0 0 36 36" fill="none" xmlns="http://www.w3.org/2000/svg">
<path d="M18 29L17.2414 28.3464C15.0115 26.4074 13.1667 24.7516 11.7069 23.3791C10.2471 22.0065 9.0977 20.8028 8.25862 19.768C7.41954 18.7331 6.83333 17.8017 6.5 16.9739C6.16667 16.146 6 15.3181 6 14.4902C6 12.9434 6.55747 11.6416 7.67241 10.585C8.78736 9.52832 10.1609 9 11.7931 9C13.0115 9 14.1494 9.31046 15.2069 9.93137C16.2644 10.5523 17.1954 11.8017 18 13C18.8046 11.8017 20.0593 10.5523 21.1168 9.93137C22.1742 9.31046 23.1346 9 24.3529 9C25.9851 9 27.2126 9.52832 28.3276 10.585C29.4425 11.6416 30 12.9434 30 14.4902C30 15.3181 29.8333 16.146 29.5 16.9739C29.1667 17.8017 28.5805 18.7331 27.7414 19.768C26.9023 20.8028 25.7586 22.0065 24.3103 23.3791C22.8621 24.7516 21.0115 26.4074 18.7586 28.3464L18 29Z" fill="#FC2D7C"/>
</svg>
