<svg width="24" height="21" viewBox="0 0 24 21" fill="none" xmlns="http://www.w3.org/2000/svg">
<path d="M21.9976 12.1458L18.794 15.2883L14.2284 19.7648C13.6371 20.3456 12.8356 20.6719 12 20.6719C11.1644 20.6719 10.3629 20.3456 9.77164 19.7648L2.00245 12.1487C0.720583 10.8882 0.000275895 9.17838 7.92395e-08 7.39545C-0.000275737 5.61252 0.719501 3.9025 2.00098 2.64159C3.28246 1.38067 5.02068 0.672146 6.83324 0.671875C8.6458 0.671604 10.3843 1.37961 11.6661 2.64014L12.0015 2.97002L12.3339 2.64014C12.9686 2.01599 13.7221 1.52092 14.5513 1.18321C15.3805 0.845491 16.2693 0.671741 17.1668 0.671875C18.0643 0.672009 18.9529 0.846026 19.7821 1.18399C20.6112 1.52195 21.3645 2.01725 21.999 2.64159C22.6336 3.26593 23.1369 4.00709 23.4802 4.82276C23.8235 5.63843 24.0001 6.51263 24 7.39545C23.9999 8.27826 23.823 9.15241 23.4794 9.96798C23.1358 10.7835 22.6323 11.5246 21.9976 12.1487V12.1458Z" fill="#FC2D7C"/>
</svg>
