<svg width="29" height="28" viewBox="0 0 29 28" fill="none" xmlns="http://www.w3.org/2000/svg">
<g id="link" clip-path="url(#clip0_803_14821)">
<rect id="Rectangle 8073" x="6.87793" y="6" width="17" height="17" fill="white"/>
<path id="Vector" d="M14.8779 0C7.14293 0 0.87793 6.265 0.87793 14C0.87793 21.735 7.14293 28 14.8779 28C22.6129 28 28.8779 21.735 28.8779 14C28.8779 6.265 22.6129 0 14.8779 0ZM16.6629 17.57L14.3529 19.88C12.8654 21.3675 10.4679 21.3675 8.98043 19.88C7.49293 18.3925 7.49293 15.995 8.98043 14.5075L10.7129 12.775C10.6779 13.3175 10.7304 13.8775 10.8704 14.4025L9.87293 15.4C8.89293 16.38 8.89293 17.99 9.87293 18.97C10.8529 19.95 12.4629 19.95 13.4429 18.97L15.7529 16.66C16.0504 16.3625 16.2779 15.9775 16.4004 15.575C16.7854 14.2275 16.0154 12.8275 14.6679 12.4425C14.7204 12.355 14.7904 12.2675 14.8604 12.1975L15.5954 11.4625C15.9804 11.655 16.3304 11.9 16.6454 12.1975C18.1329 13.685 18.1329 16.0825 16.6454 17.57H16.6629ZM20.7579 13.475L19.0254 15.2075C19.0604 14.665 19.0079 14.105 18.8679 13.58L19.8654 12.5825C20.8454 11.6025 20.8454 9.9925 19.8654 9.0125C18.8854 8.0325 17.2754 8.0325 16.2954 9.0125L13.9854 11.3225C13.6704 11.6375 13.4429 12.0225 13.3379 12.46C12.9704 13.8075 13.7754 15.19 15.1229 15.5575L14.1429 16.5375C13.7579 16.345 13.4079 16.1 13.0929 15.8025C11.6054 14.315 11.6054 11.9175 13.0929 10.43L15.4029 8.12C16.8904 6.6325 19.2879 6.6325 20.7754 8.12C22.2629 9.6075 22.2629 12.005 20.7754 13.4925L20.7579 13.475Z" fill="#32C1FF"/>
</g>
<defs>
<clipPath id="clip0_803_14821">
<rect width="28" height="28" fill="white" transform="translate(0.87793)"/>
</clipPath>
</defs>
</svg>
