<svg xmlns="http://www.w3.org/2000/svg" width="24" height="24" viewBox="0 0 24 24" fill="none">
  <path d="M5.30775 19.5C4.80258 19.5 4.375 19.325 4.025 18.975C3.675 18.625 3.5 18.1974 3.5 17.6923V4.30775C3.5 3.80258 3.675 3.375 4.025 3.025C4.375 2.675 4.80258 2.5 5.30775 2.5H18.6923C19.1974 2.5 19.625 2.675 19.975 3.025C20.325 3.375 20.5 3.80258 20.5 4.30775V11.177C20.3782 11.1565 20.2605 11.1411 20.147 11.1307C20.0337 11.1206 19.9109 11.1155 19.7788 11.1155H19V4.30775C19 4.23075 18.9679 4.16025 18.9038 4.09625C18.8398 4.03208 18.7692 4 18.6923 4H5.30775C5.23075 4 5.16025 4.03208 5.09625 4.09625C5.03208 4.16025 5 4.23075 5 4.30775V17.6923C5 17.7692 5.03208 17.8398 5.09625 17.9038C5.16025 17.9679 5.23075 18 5.30775 18H8.273C8.32683 18.2768 8.3935 18.5387 8.473 18.7855C8.5525 19.0323 8.65508 19.2705 8.78075 19.5H5.30775ZM5 17V18V4V17ZM7.25 15.75H8.32125C8.47375 15.0423 8.74292 14.3875 9.12875 13.7855C9.51475 13.1837 9.99683 12.6718 10.575 12.25H7.25V15.75ZM7.25 9.75H10.75V6.25H7.25V9.75ZM14 20.5C13.0347 20.5 12.21 20.158 11.526 19.474C10.842 18.79 10.5 17.9653 10.5 17C10.5 16.0347 10.842 15.21 11.526 14.526C12.21 13.842 13.0347 13.5 14 13.5H15.9038V15H14C13.45 15 12.9792 15.1958 12.5875 15.5875C12.1958 15.9792 12 16.45 12 17C12 17.55 12.1958 18.0208 12.5875 18.4125C12.9792 18.8042 13.45 19 14 19H15.9038V20.5H14ZM13.25 9.75H16.75V6.25H13.25V9.75ZM14 17.75V16.25H20V17.75H14ZM18.0962 20.5V19H20C20.55 19 21.0208 18.8042 21.4125 18.4125C21.8042 18.0208 22 17.55 22 17C22 16.45 21.8042 15.9792 21.4125 15.5875C21.0208 15.1958 20.55 15 20 15H18.0962V13.5H20C20.9653 13.5 21.79 13.8394 22.474 14.5183C23.158 15.1971 23.5 16.0243 23.5 17C23.5 17.9653 23.158 18.79 22.474 19.474C21.79 20.158 20.9653 20.5 20 20.5H18.0962Z" fill="#333333"/>
</svg>
