<svg xmlns="http://www.w3.org/2000/svg" width="24" height="24" viewBox="0 0 24 24" fill="none">
  <path d="M9 21H5C4.46957 21 3.96086 20.7893 3.58579 20.4142C3.21071 20.0391 3 19.5304 3 19V5C3 4.46957 3.21071 3.96086 3.58579 3.58579C3.96086 3.21071 4.46957 3 5 3H9" stroke="white" stroke-width="1.5" stroke-linecap="round" stroke-linejoin="round"/>
  <path fill-rule="evenodd" clip-rule="evenodd" d="M13.4697 6.46967C13.7626 6.17678 14.2374 6.17678 14.5303 6.46967C14.8232 6.76256 14.8232 7.23744 14.5303 7.53033L10.8107 11.25H21C21.4142 11.25 21.75 11.5858 21.75 12C21.75 12.4142 21.4142 12.75 21 12.75H10.8107L14.5303 16.4697C14.8232 16.7626 14.8232 17.2374 14.5303 17.5303C14.2374 17.8232 13.7626 17.8232 13.4697 17.5303L8.46967 12.5303C8.32322 12.3839 8.25 12.1919 8.25 12C8.25 11.8983 8.27024 11.8013 8.30691 11.7129C8.34351 11.6245 8.39776 11.5416 8.46967 11.4697L13.4697 6.46967Z" fill="white"/>
</svg>
