<svg width="32" height="32" viewBox="0 0 32 32" fill="none" xmlns="http://www.w3.org/2000/svg">
<g clip-path="url(#clip0_1776_2122)">
<rect width="32" height="32" rx="16" fill="#E7E0EC"/>
<path fill-rule="evenodd" clip-rule="evenodd" d="M20.9104 12.8611C21.5631 11.8489 21.913 10.6581 21.9158 9.43913C21.9177 8.62806 21.7658 7.82457 21.4689 7.07468C21.172 6.32478 20.7359 5.64321 20.1856 5.06901C19.6352 4.4948 18.9815 4.03924 18.2617 3.7284C17.5419 3.41757 16.7703 3.25757 15.9911 3.25757C14.8199 3.25757 13.6749 3.61887 12.7009 4.29582C11.7269 4.97276 10.9675 5.93499 10.5187 7.06093C10.0698 8.18687 9.95167 9.42601 10.1791 10.6218C10.4066 11.8176 10.9694 12.9165 11.7966 13.7795C12.6237 14.6425 13.6781 15.231 14.8264 15.4706C15.9748 15.7102 17.1656 15.5902 18.2485 15.1258C19.3313 14.6613 20.2576 13.8732 20.9104 12.8611ZM11.7815 19.4631C13.116 18.8873 14.5463 18.5909 15.9909 18.5909C17.4366 18.589 18.8686 18.8839 20.2046 19.4589C21.5407 20.0338 22.7546 20.8775 23.7769 21.9415C24.7992 23.0055 25.6098 24.269 26.1622 25.6597C26.7146 27.0503 26.9979 28.5407 26.9961 30.0454C26.9961 30.8355 26.6945 31.5933 26.1577 32.1519C25.621 32.7106 24.893 33.0245 24.1339 33.0245H7.86222C7.10311 33.0245 6.3751 32.7106 5.83833 32.1519C5.30156 31.5933 5.00001 30.8355 5.00001 30.0454C4.99813 28.5419 5.28102 27.0527 5.83252 25.6631C6.38402 24.2735 7.19331 23.0106 8.2141 21.9468C9.23488 20.8829 10.4471 20.039 11.7815 19.4631Z" fill="#AEA9B4"/>
</g>
<rect x="0.25" y="0.25" width="31.5" height="31.5" rx="15.75" stroke="#CAC4D0" stroke-width="0.5"/>
<defs>
<clipPath id="clip0_1776_2122">
<rect width="32" height="32" rx="16" fill="white"/>
</clipPath>
</defs>
</svg>
