<svg width="18" height="18" viewBox="0 0 18 18" fill="none" xmlns="http://www.w3.org/2000/svg">
<path fill-rule="evenodd" clip-rule="evenodd" d="M9.33333 3.4V5.29412C9.33333 5.68072 9.03486 5.99412 8.66667 5.99412C8.29848 5.99412 8 5.68072 8 5.29412V3.09282C8 2.49121 8.46169 2 9.03704 2H14.963C15.5424 2 16 2.49924 16 3.09282V14.9072C16 15.5088 15.5383 16 14.963 16H9.03704C8.45761 16 8 15.5008 8 14.9072V12.7059C8 12.3193 8.29848 12.0059 8.66667 12.0059C9.03486 12.0059 9.33333 12.3193 9.33333 12.7059V14.6H14.6667V3.4H9.33333Z" fill="#212121"/>
<path fill-rule="evenodd" clip-rule="evenodd" d="M2 9C2 8.58579 2.33579 8.25 2.75 8.25L12.5 8.25C12.9142 8.25 13.25 8.58579 13.25 9C13.25 9.41421 12.9142 9.75 12.5 9.75L2.75 9.75C2.33579 9.75 2 9.41421 2 9Z" fill="#212121"/>
<path fill-rule="evenodd" clip-rule="evenodd" d="M6.28033 5.46967C6.57322 5.76256 6.57322 6.23744 6.28033 6.53033L3.28033 9.53033C2.98744 9.82322 2.51256 9.82322 2.21967 9.53033C1.92678 9.23744 1.92678 8.76256 2.21967 8.46967L5.21967 5.46967C5.51256 5.17678 5.98744 5.17678 6.28033 5.46967Z" fill="#212121"/>
<path fill-rule="evenodd" clip-rule="evenodd" d="M6.28033 12.5303C6.57322 12.2374 6.57322 11.7626 6.28033 11.4697L3.28033 8.46967C2.98744 8.17678 2.51256 8.17678 2.21967 8.46967C1.92678 8.76256 1.92678 9.23744 2.21967 9.53033L5.21967 12.5303C5.51256 12.8232 5.98744 12.8232 6.28033 12.5303Z" fill="#212121"/>
</svg>
