<svg xmlns="http://www.w3.org/2000/svg" width="31" height="31" viewBox="0 0 31 31" fill="none">
<g clip-path="url(#clip0_3_843)">
<path d="M30.656 1.46582C30.656 1.30006 30.5902 1.14109 30.473 1.02388C30.3557 0.906669 30.1969 0.840821 30.0311 0.840821H21.281C21.1493 0.831057 21.0178 0.863301 20.9056 0.932923C20.7932 1.00254 20.7059 1.10596 20.6561 1.22832C20.605 1.34098 20.5909 1.46689 20.6155 1.58809C20.6402 1.70929 20.7025 1.81961 20.7935 1.90332L23.8436 4.95332C23.8988 5.0152 23.9294 5.0953 23.9294 5.17832C23.9294 5.26133 23.8988 5.34145 23.8436 5.40332L18.3185 10.9658C18.2636 11.015 18.1924 11.0422 18.1186 11.0422C18.0448 11.0422 17.9735 11.015 17.9186 10.9658C15.6739 9.36697 12.9103 8.67005 10.1758 9.01328C7.44131 9.3565 4.93568 10.7148 3.15572 12.8188C1.37577 14.9228 0.451494 17.6188 0.566164 20.3724C0.680835 23.1259 1.82608 25.7358 3.77482 27.6846C5.72354 29.6334 8.33344 30.7785 11.087 30.8932C13.8405 31.0078 16.5365 30.0837 18.6406 28.3036C20.7446 26.5237 22.1029 24.0181 22.4461 21.2836C22.7893 18.5491 22.0924 15.7855 20.4935 13.5408C20.4443 13.4858 20.4172 13.4146 20.4172 13.3408C20.4172 13.267 20.4443 13.1958 20.4935 13.1408L26.0561 7.56583C26.1179 7.51048 26.198 7.47988 26.2811 7.47988C26.3641 7.47988 26.4442 7.51048 26.5061 7.56583L29.5561 10.6158C29.6408 10.7053 29.7511 10.7665 29.8718 10.7911C29.9926 10.8157 30.118 10.8025 30.2311 10.7533C30.3466 10.7149 30.4483 10.6435 30.5237 10.548C30.5993 10.4525 30.6452 10.3371 30.656 10.2158V1.46582ZM11.5936 27.7158C10.0484 27.7158 8.53793 27.2577 7.25317 26.3992C5.9684 25.5408 4.96706 24.3205 4.37575 22.893C3.78445 21.4654 3.62972 19.8946 3.93118 18.3792C4.23262 16.8637 4.97669 15.4717 6.06929 14.3791C7.16189 13.2865 8.55394 12.5424 10.0694 12.2409C11.5849 11.9395 13.1557 12.0942 14.5833 12.6855C16.0108 13.2768 17.231 14.2782 18.0895 15.5629C18.9479 16.8477 19.406 18.3582 19.406 19.9033C19.406 21.9753 18.583 23.9625 17.1178 25.4275C15.6527 26.8927 13.6656 27.7158 11.5936 27.7158Z" fill="#FC4F91"/>
</g>
<defs>
<clipPath id="clip0_3_843">
<rect width="30" height="30" fill="white" transform="translate(0.655884 0.840576)"/>
</clipPath>
</defs>
</svg>