<svg xmlns="http://www.w3.org/2000/svg" width="16" height="17" viewBox="0 0 16 17" fill="none">
  <g clip-path="url(#clip0_1506_9143)">
    <path d="M2.3845 16.5V15.5H7.5V11.7463C6.61917 11.5884 5.84833 11.2201 5.1875 10.6413C4.52667 10.0624 4.07183 9.34483 3.823 8.4885C2.76533 8.36417 1.86375 7.9305 1.11825 7.1875C0.37275 6.4445 0 5.54867 0 4.5V3.5C0 3.232 0.0996668 2.99833 0.299 2.799C0.498333 2.59967 0.732 2.5 1 2.5H3.65375V0.5H12.3463V2.5H15C15.268 2.5 15.5017 2.59967 15.701 2.799C15.9003 2.99833 16 3.232 16 3.5V4.5C16 5.54867 15.6273 6.4445 14.8818 7.1875C14.1363 7.9305 13.2347 8.36417 12.177 8.4885C11.9282 9.34483 11.4733 10.0624 10.8125 10.6413C10.1517 11.2201 9.38083 11.5884 8.5 11.7463V15.5H13.6155V16.5H2.3845ZM3.65375 7.4155V3.5H1V4.5C1 5.2615 1.25383 5.91567 1.7615 6.4625C2.26917 7.00933 2.89992 7.327 3.65375 7.4155ZM8 10.7693C8.923 10.7693 9.70508 10.4488 10.3463 9.80775C10.9873 9.16675 11.3078 8.38467 11.3078 7.4615V1.5H4.69225V7.4615C4.69225 8.38467 5.01275 9.16675 5.65375 9.80775C6.29492 10.4488 7.077 10.7693 8 10.7693ZM12.3463 7.4155C13.1001 7.327 13.7308 7.00933 14.2385 6.4625C14.7462 5.91567 15 5.2615 15 4.5V3.5H12.3463V7.4155Z" fill="#999999"/>
    <path d="M8 3.8335L8.44903 5.21546H9.90211L8.72654 6.06956L9.17557 7.45153L8 6.59743L6.82443 7.45153L7.27346 6.06956L6.09789 5.21546H7.55097L8 3.8335Z" fill="#999999"/>
  </g>
  <defs>
    <clipPath id="clip0_1506_9143">
      <rect width="16" height="16" fill="white" transform="translate(0 0.5)"/>
    </clipPath>
  </defs>
</svg>