<svg xmlns="http://www.w3.org/2000/svg" width="27" height="27" viewBox="0 0 27 27" fill="none">
  <path fill-rule="evenodd" clip-rule="evenodd" d="M1.24974 1.25026C0.79871 1.70129 0.798707 2.43256 1.24974 2.88359L11.8666 13.5004L1.25019 24.1169C0.799157 24.5679 0.799158 25.2992 1.25019 25.7502C1.70122 26.2012 2.43249 26.2012 2.88352 25.7502L13.4999 15.1338L24.1164 25.7503C24.5675 26.2013 25.2987 26.2013 25.7498 25.7503C26.2008 25.2993 26.2008 24.568 25.7498 24.117L15.1333 13.5004L25.7502 2.8835C26.2012 2.43246 26.2012 1.7012 25.7502 1.25016C25.2992 0.799129 24.5679 0.799128 24.1169 1.25016L13.4999 11.8671L2.88308 1.25026C2.43204 0.799224 1.70078 0.799225 1.24974 1.25026Z" fill="white"/>
</svg>