<svg xmlns="http://www.w3.org/2000/svg" width="16" height="17" viewBox="0 0 16 17" fill="none">
  <g clip-path="url(#clip0_1506_9175)">
    <path fill-rule="evenodd" clip-rule="evenodd" d="M3.33358 1.5C2.80267 1.5 2.31472 1.65185 1.97428 1.89502C1.63596 2.13668 1.50024 2.42193 1.50024 2.66667V14.3333C1.50024 14.5781 1.63596 14.8633 1.97428 15.105C2.31472 15.3481 2.80267 15.5 3.33358 15.5H8.00024C8.27639 15.5 8.50024 15.7239 8.50024 16C8.50024 16.2761 8.27639 16.5 8.00024 16.5H3.33358C2.6268 16.5 1.92777 16.3007 1.39304 15.9187C0.856191 15.5352 0.500244 14.9726 0.500244 14.3333V2.66667C0.500244 2.02735 0.856191 1.46475 1.39304 1.08129C1.92778 0.699337 2.6268 0.5 3.33358 0.5H8.00024C8.27639 0.5 8.50024 0.723858 8.50024 1C8.50024 1.27614 8.27639 1.5 8.00024 1.5H3.33358ZM9.92843 4.04388C10.1237 3.84862 10.4403 3.84862 10.6355 4.04388L14.7381 8.14645C14.9334 8.34171 14.9334 8.65829 14.7381 8.85355L10.6355 12.9561C10.4403 13.1514 10.1237 13.1514 9.92843 12.9561C9.73317 12.7609 9.73317 12.4443 9.92843 12.249L13.1774 9L6.00024 9C5.7241 9 5.50024 8.77614 5.50024 8.5C5.50024 8.22386 5.7241 8 6.00024 8L13.1774 8L9.92843 4.75099C9.73317 4.55573 9.73317 4.23914 9.92843 4.04388Z" fill="#999999"/>
  </g>
  <defs>
    <clipPath id="clip0_1506_9175">
      <rect width="16" height="16" fill="white" transform="translate(0 0.5)"/>
    </clipPath>
  </defs>
</svg>