<svg xmlns="http://www.w3.org/2000/svg" width="20" height="20" viewBox="0 0 20 20" fill="none">
  <path d="M7.50008 11.667H15.8334L12.9584 7.91699L11.0417 10.417L9.75008 8.75033L7.50008 11.667ZM6.66675 15.0003C6.20841 15.0003 5.81605 14.8371 5.48966 14.5107C5.16328 14.1844 5.00008 13.792 5.00008 13.3337V3.33366C5.00008 2.87533 5.16328 2.48296 5.48966 2.15658C5.81605 1.83019 6.20841 1.66699 6.66675 1.66699H16.6667C17.1251 1.66699 17.5174 1.83019 17.8438 2.15658C18.1702 2.48296 18.3334 2.87533 18.3334 3.33366V13.3337C18.3334 13.792 18.1702 14.1844 17.8438 14.5107C17.5174 14.8371 17.1251 15.0003 16.6667 15.0003H6.66675ZM6.66675 13.3337H16.6667V3.33366H6.66675V13.3337ZM3.33341 18.3337C2.87508 18.3337 2.48272 18.1705 2.15633 17.8441C1.82994 17.5177 1.66675 17.1253 1.66675 16.667V5.00033H3.33341V16.667H15.0001V18.3337H3.33341Z" fill="#333333"/>
</svg>