<svg xmlns="http://www.w3.org/2000/svg" width="20" height="20" viewBox="0 0 20 20" fill="none">
  <path d="M7.50008 11.6666H15.8334L12.9584 7.91663L11.0417 10.4166L9.75008 8.74996L7.50008 11.6666ZM6.66675 15C6.20841 15 5.81605 14.8368 5.48966 14.5104C5.16328 14.184 5.00008 13.7916 5.00008 13.3333V3.33329C5.00008 2.87496 5.16328 2.4826 5.48966 2.15621C5.81605 1.82982 6.20841 1.66663 6.66675 1.66663H16.6667C17.1251 1.66663 17.5174 1.82982 17.8438 2.15621C18.1702 2.4826 18.3334 2.87496 18.3334 3.33329V13.3333C18.3334 13.7916 18.1702 14.184 17.8438 14.5104C17.5174 14.8368 17.1251 15 16.6667 15H6.66675ZM6.66675 13.3333H16.6667V3.33329H6.66675V13.3333ZM3.33341 18.3333C2.87508 18.3333 2.48272 18.1701 2.15633 17.8437C1.82994 17.5173 1.66675 17.125 1.66675 16.6666V4.99996H3.33341V16.6666H15.0001V18.3333H3.33341Z" fill="#EEEEEE"/>
</svg>