<svg width="27" height="27" viewBox="0 0 27 27" fill="none" xmlns="http://www.w3.org/2000/svg">
<path d="M25.1378 11.9986C26.059 12.4592 26.5197 12.6895 26.6675 13.0012C26.7961 13.2724 26.7961 13.587 26.6675 13.8582C26.5197 14.1699 26.059 14.4002 25.1378 14.8608L2.31554 26.2719C1.54882 26.6553 1.16546 26.847 0.85384 26.8009C0.58173 26.7607 0.338194 26.6102 0.180544 26.3848C-4.47035e-08 26.1267 -3.74359e-08 25.6981 0 24.8408L3.78451e-07 16.1837C4.00992e-07 15.6681 4.09782e-07 15.4102 0.0969452 15.2064C0.182324 15.0269 0.319258 14.8769 0.490267 14.7756C0.684447 14.6606 0.941212 14.6372 1.45475 14.5903L14.1867 13.4297L1.45475 12.269C0.941214 12.2222 0.684447 12.1988 0.490267 12.0838C0.319258 11.9824 0.182324 11.8325 0.0969454 11.653C5.88596e-07 11.4491 5.96677e-07 11.1913 6.19218e-07 10.6756L9.97631e-07 2.01854C1.0351e-06 1.16132 1.05798e-06 0.732712 0.180545 0.474578C0.338195 0.249174 0.581731 0.0986611 0.853841 0.0584576C1.16546 0.0124164 1.54882 0.204096 2.31554 0.587455L25.1378 11.9986Z" fill="#FC4F91"/>
</svg>
