<svg xmlns="http://www.w3.org/2000/svg" width="54" height="54" viewBox="0 0 54 54" fill="none">
  <g filter="url(#filter0_bd_15_1967)">
    <rect x="5" y="5" width="40" height="40" rx="20" fill="url(#paint0_linear_15_1967)" shape-rendering="crispEdges"/>
    <rect x="4.5" y="4.5" width="41" height="41" rx="20.5" stroke="url(#paint1_linear_15_1967)" shape-rendering="crispEdges"/>
    <g filter="url(#filter1_d_15_1967)">
      <path fill-rule="evenodd" clip-rule="evenodd" d="M20 14C15.5817 14 12 17.5817 12 22V26C12 30.4183 15.5817 34 20 34H22L25 40L28 34H30C34.4183 34 38 30.4183 38 26V22C38 17.5817 34.4183 14 30 14H20Z" fill="#FC2D7C"/>
    </g>
    <path fill-rule="evenodd" clip-rule="evenodd" d="M22 24C22 24.5523 21.5523 25 21 25C20.4477 25 20 24.5523 20 24C20 23.4477 20.4477 23 21 23C21.5523 23 22 23.4477 22 24ZM26 24C26 24.5523 25.5523 25 25 25C24.4477 25 24 24.5523 24 24C24 23.4477 24.4477 23 25 23C25.5523 23 26 23.4477 26 24ZM29 25C29.5523 25 30 24.5523 30 24C30 23.4477 29.5523 23 29 23C28.4477 23 28 23.4477 28 24C28 24.5523 28.4477 25 29 25Z" fill="white"/>
  </g>
  <defs>
    <filter id="filter0_bd_15_1967" x="-46" y="-46" width="142" height="142" filterUnits="userSpaceOnUse" color-interpolation-filters="sRGB">
      <feFlood flood-opacity="0" result="BackgroundImageFix"/>
      <feGaussianBlur in="BackgroundImageFix" stdDeviation="25"/>
      <feComposite in2="SourceAlpha" operator="in" result="effect1_backgroundBlur_15_1967"/>
      <feColorMatrix in="SourceAlpha" type="matrix" values="0 0 0 0 0 0 0 0 0 0 0 0 0 0 0 0 0 0 127 0" result="hardAlpha"/>
      <feOffset dx="2" dy="2"/>
      <feGaussianBlur stdDeviation="3"/>
      <feComposite in2="hardAlpha" operator="out"/>
      <feColorMatrix type="matrix" values="0 0 0 0 0 0 0 0 0 0 0 0 0 0 0 0 0 0 0.35 0"/>
      <feBlend mode="normal" in2="effect1_backgroundBlur_15_1967" result="effect2_dropShadow_15_1967"/>
      <feBlend mode="normal" in="SourceGraphic" in2="effect2_dropShadow_15_1967" result="shape"/>
    </filter>
    <filter id="filter1_d_15_1967" x="8" y="10" width="34" height="34" filterUnits="userSpaceOnUse" color-interpolation-filters="sRGB">
      <feFlood flood-opacity="0" result="BackgroundImageFix"/>
      <feColorMatrix in="SourceAlpha" type="matrix" values="0 0 0 0 0 0 0 0 0 0 0 0 0 0 0 0 0 0 127 0" result="hardAlpha"/>
      <feOffset/>
      <feGaussianBlur stdDeviation="2"/>
      <feComposite in2="hardAlpha" operator="out"/>
      <feColorMatrix type="matrix" values="0 0 0 0 0 0 0 0 0 0 0 0 0 0 0 0 0 0 0.25 0"/>
      <feBlend mode="normal" in2="BackgroundImageFix" result="effect1_dropShadow_15_1967"/>
      <feBlend mode="normal" in="SourceGraphic" in2="effect1_dropShadow_15_1967" result="shape"/>
    </filter>
    <linearGradient id="paint0_linear_15_1967" x1="5" y1="5.5" x2="34.8594" y2="51.5721" gradientUnits="userSpaceOnUse">
      <stop stop-color="white" stop-opacity="0.2"/>
      <stop offset="0.52" stop-color="white" stop-opacity="0.3"/>
      <stop offset="1" stop-color="white" stop-opacity="0.2"/>
    </linearGradient>
    <linearGradient id="paint1_linear_15_1967" x1="7.9375" y1="3.9" x2="30.0947" y2="50.5757" gradientUnits="userSpaceOnUse">
      <stop stop-color="white" stop-opacity="0.6"/>
      <stop offset="0.36" stop-color="white" stop-opacity="0.3"/>
      <stop offset="0.7" stop-color="white" stop-opacity="0.3"/>
      <stop offset="1" stop-color="white" stop-opacity="0.6"/>
    </linearGradient>
  </defs>
</svg>