<svg xmlns="http://www.w3.org/2000/svg" width="28" height="28" viewBox="0 0 28 28" fill="none">
  <path fill-rule="evenodd" clip-rule="evenodd" d="M8.16667 13.9998C8.16667 15.2885 7.122 16.3332 5.83333 16.3332C4.54467 16.3332 3.5 15.2885 3.5 13.9998C3.5 12.7112 4.54467 11.6665 5.83333 11.6665C7.122 11.6665 8.16667 12.7112 8.16667 13.9998ZM16.3333 13.9998C16.3333 15.2885 15.2887 16.3332 14 16.3332C12.7113 16.3332 11.6667 15.2885 11.6667 13.9998C11.6667 12.7112 12.7113 11.6665 14 11.6665C15.2887 11.6665 16.3333 12.7112 16.3333 13.9998ZM22.1667 16.3332C23.4553 16.3332 24.5 15.2885 24.5 13.9998C24.5 12.7112 23.4553 11.6665 22.1667 11.6665C20.878 11.6665 19.8333 12.7112 19.8333 13.9998C19.8333 15.2885 20.878 16.3332 22.1667 16.3332Z" fill="white"/>
</svg>