<svg xmlns="http://www.w3.org/2000/svg" width="16" height="16" viewBox="0 0 16 16" fill="none">
  <rect y="16" width="16" height="16" rx="8" transform="rotate(-90 0 16)" fill="white" fill-opacity="0.2"/>
  <g filter="url(#filter0_d_15_1932)">
    <path fill-rule="evenodd" clip-rule="evenodd" d="M8 11C8.55228 11 9 11.4477 9 12C9 12.5523 8.55228 13 8 13C7.44772 13 7 12.5523 7 12C7 11.4477 7.44772 11 8 11ZM8 7C8.55228 7 9 7.44772 9 8C9 8.55228 8.55228 9 8 9C7.44772 9 7 8.55228 7 8C7 7.44772 7.44771 7 8 7ZM9 4C9 3.44771 8.55228 3 8 3C7.44771 3 7 3.44771 7 4C7 4.55229 7.44771 5 8 5C8.55228 5 9 4.55229 9 4Z" fill="white"/>
  </g>
  <defs>
    <filter id="filter0_d_15_1932" x="6" y="2" width="4" height="12" filterUnits="userSpaceOnUse" color-interpolation-filters="sRGB">
      <feFlood flood-opacity="0" result="BackgroundImageFix"/>
      <feColorMatrix in="SourceAlpha" type="matrix" values="0 0 0 0 0 0 0 0 0 0 0 0 0 0 0 0 0 0 127 0" result="hardAlpha"/>
      <feOffset/>
      <feGaussianBlur stdDeviation="0.5"/>
      <feComposite in2="hardAlpha" operator="out"/>
      <feColorMatrix type="matrix" values="0 0 0 0 0 0 0 0 0 0 0 0 0 0 0 0 0 0 0.45 0"/>
      <feBlend mode="normal" in2="BackgroundImageFix" result="effect1_dropShadow_15_1932"/>
      <feBlend mode="normal" in="SourceGraphic" in2="effect1_dropShadow_15_1932" result="shape"/>
    </filter>
  </defs>
</svg>