<svg width="24" height="24" viewBox="0 0 24 24" fill="none" xmlns="http://www.w3.org/2000/svg">
<path fill-rule="evenodd" clip-rule="evenodd" d="M10.4 19.2003C10.4 18.3166 11.1163 17.6003 12 17.6003C12.8836 17.6003 13.6 18.3166 13.6 19.2003C13.6 20.0839 12.8836 20.8003 12 20.8003C11.1163 20.8003 10.4 20.0839 10.4 19.2003ZM10.4 12.0001C10.4 11.1164 11.1163 10.4001 12 10.4001C12.8836 10.4001 13.6 11.1164 13.6 12.0001C13.6 12.8838 12.8836 13.6001 12 13.6001C11.1163 13.6001 10.4 12.8838 10.4 12.0001ZM12 3.19971C11.1163 3.19971 10.4 3.91605 10.4 4.79971C10.4 5.68336 11.1163 6.39971 12 6.39971C12.8836 6.39971 13.6 5.68336 13.6 4.79971C13.6 3.91605 12.8836 3.19971 12 3.19971Z" fill="white"/>
</svg>
