<svg width="18" height="18" viewBox="0 0 18 18" fill="none" xmlns="http://www.w3.org/2000/svg">
<g id="btn-more">
<g id="Union" filter="url(#filter0_d_2492_10846)">
<path fill-rule="evenodd" clip-rule="evenodd" d="M10 5C10 5.55228 9.55228 6 9 6C8.44772 6 8 5.55228 8 5C8 4.44772 8.44772 4 9 4C9.55228 4 10 4.44772 10 5ZM10 9C10 9.55228 9.55228 10 9 10C8.44772 10 8 9.55228 8 9C8 8.44772 8.44772 8 9 8C9.55228 8 10 8.44772 10 9ZM9 14C9.55228 14 10 13.5523 10 13C10 12.4477 9.55228 12 9 12C8.44772 12 8 12.4477 8 13C8 13.5523 8.44772 14 9 14Z" fill="white"/>
</g>
</g>
<defs>
<filter id="filter0_d_2492_10846" x="6" y="2" width="6" height="14" filterUnits="userSpaceOnUse" color-interpolation-filters="sRGB">
<feFlood flood-opacity="0" result="BackgroundImageFix"/>
<feColorMatrix in="SourceAlpha" type="matrix" values="0 0 0 0 0 0 0 0 0 0 0 0 0 0 0 0 0 0 127 0" result="hardAlpha"/>
<feOffset/>
<feGaussianBlur stdDeviation="1"/>
<feComposite in2="hardAlpha" operator="out"/>
<feColorMatrix type="matrix" values="0 0 0 0 0 0 0 0 0 0 0 0 0 0 0 0 0 0 0.65 0"/>
<feBlend mode="normal" in2="BackgroundImageFix" result="effect1_dropShadow_2492_10846"/>
<feBlend mode="normal" in="SourceGraphic" in2="effect1_dropShadow_2492_10846" result="shape"/>
</filter>
</defs>
</svg>
