<svg width="20" height="20" viewBox="0 0 20 20" fill="none" xmlns="http://www.w3.org/2000/svg">
<path d="M14.9998 17.5C14.9998 15.7319 14.2975 14.0362 13.0472 12.7859C11.797 11.5357 10.1013 10.8333 8.33317 10.8333C6.56506 10.8333 4.86937 11.5357 3.61913 12.7859C2.36888 14.0362 1.6665 15.7319 1.6665 17.5" stroke="white" stroke-width="2" stroke-linecap="round" stroke-linejoin="round"/>
<path d="M8.33317 10.8333C10.6344 10.8333 12.4998 8.96785 12.4998 6.66667C12.4998 4.36548 10.6344 2.5 8.33317 2.5C6.03198 2.5 4.1665 4.36548 4.1665 6.66667C4.1665 8.96785 6.03198 10.8333 8.33317 10.8333Z" stroke="white" stroke-width="2" stroke-linecap="round" stroke-linejoin="round"/>
<path d="M18.3333 16.6666C18.3333 13.8583 16.6667 11.25 15 9.99998C15.5478 9.58895 15.9859 9.04922 16.2755 8.42854C16.565 7.80786 16.6971 7.12537 16.66 6.44148C16.6229 5.75759 16.4178 5.09338 16.0629 4.50765C15.7079 3.92191 15.2141 3.4327 14.625 3.08331" stroke="white" stroke-width="2" stroke-linecap="round" stroke-linejoin="round"/>
</svg>
