<svg width="14" height="14" viewBox="0 0 14 14" fill="none" xmlns="http://www.w3.org/2000/svg">
<path d="M10.5 12.25C10.5 11.0123 10.0084 9.82535 9.13319 8.95018C8.25802 8.07501 7.07103 7.58334 5.83335 7.58334C4.59568 7.58334 3.40869 8.07501 2.53352 8.95018C1.65835 9.82535 1.16669 11.0123 1.16669 12.25" stroke="white" stroke-linecap="round" stroke-linejoin="round"/>
<path d="M5.83335 7.58333C7.44418 7.58333 8.75002 6.2775 8.75002 4.66667C8.75002 3.05584 7.44418 1.75 5.83335 1.75C4.22252 1.75 2.91669 3.05584 2.91669 4.66667C2.91669 6.2775 4.22252 7.58333 5.83335 7.58333Z" stroke="white" stroke-linecap="round" stroke-linejoin="round"/>
<path d="M12.8333 11.6667C12.8333 9.70083 11.6667 7.87499 10.5 6.99999C10.8835 6.71227 11.1901 6.33446 11.3928 5.89998C11.5955 5.46551 11.688 4.98777 11.662 4.50904C11.636 4.03032 11.4925 3.56538 11.244 3.15536C10.9955 2.74534 10.6498 2.40289 10.2375 2.15833" stroke="white" stroke-linecap="round" stroke-linejoin="round"/>
</svg>
