<svg xmlns="http://www.w3.org/2000/svg" width="48" height="38" viewBox="0 0 48 38" fill="none">
  <g filter="url(#filter0_d_1554_21916)">
    <path d="M33.1853 15.3004L32.9851 15.1438C32.7849 14.9873 32.7849 14.9423 32.7849 14.9423C32.7849 14.9423 32.5408 14.6067 32.4738 14.5175C32.4068 14.4284 32.2297 14.2269 32.1851 14.1594C32.1404 14.092 32.0072 13.9804 31.8963 13.8912C31.7854 13.8021 31.6746 13.7796 31.6746 13.7796L31.2303 13.4215L30.9192 12.8402L30.7413 12.5945L30.5858 12.3713L30.297 12.0806C30.297 12.0806 30.0753 11.8791 29.9636 11.79C29.8527 11.7008 29.7195 11.4993 29.7195 11.4993L29.5416 11.1861L29.6087 10.918L29.9197 10.3366L29.9868 10.001L30.2308 9.82194L30.5866 9.68785L30.4534 9.28559L30.3202 9.08404L30.1646 8.81586V7.73149L30.0314 7.49663V7.22845L29.8759 6.89281L29.6757 6.66961L29.4093 6.44641L28.9873 6.2232L28.5877 6H27.0993L26.8105 6.1116L26.5218 6.31315L26.166 6.87199L25.9857 7.7215L25.8996 8.36945L26.0717 9.46465L24.3665 9.8894L22.701 10.3591L21.2573 10.9405L19.9029 11.3652L18.9035 11.5443L17.9264 11.9241L16.9269 12.1031L16.5496 12.3713L15.8389 12.8852L14.8618 13.7572L13.6845 15.7918L12.7074 15.9709L12.1746 16.3065L10.7755 16.5747V16.9103L12.1299 16.8653L10.8194 17.4017L10.4859 17.7815L10.9526 17.759L12.1737 17.2626L11.9735 17.6024L11.396 17.9605L10.9294 18.2062C10.9294 18.2062 10.7515 18.5644 10.8624 18.5644C10.9732 18.5644 11.3952 18.7434 11.3952 18.7434L12.1059 18.6093L12.8166 17.9614L13.2386 17.9839L12.9945 18.8559L13.4611 18.6768L13.8831 18.073L14.2603 17.0669L15.3268 15.7252L16.7259 14.8307L18.1473 13.6905L18.925 13.9362L19.1252 14.1153L19.0143 14.6966L18.3707 15.2105L17.9487 15.6802L17.904 16.6188L17.3489 16.9986L17.0601 17.2626L17.1048 17.7815L17.238 18.3403L16.9269 19.0332L16.8822 21.0679L17.1933 21.8058L17.5044 22.2755L18.0372 22.7677L18.2375 23.3041L16.5273 23.215H12.9291L12.7736 22.9243L12.7289 22.4771L12.5287 21.9849L12.0844 21.6267L11.1073 21.8283L10.2634 22.1864L9.7529 22.5887L9.01986 22.9685L8.06509 23.125L7.4214 23.5273L6.39961 24.3768L6 25.4945V26.4331L6.39961 26.9253L7.0433 26.7912L7.73166 26.3215L8.64258 25.8293L9.77523 25.4937L10.4189 25.6053L11.2405 25.985L11.6401 25.3812L12.5287 25.5603L12.973 25.2921L13.9277 25.3596L15.4377 25.6727L17.4142 26.4331L18.1473 26.7912L19.2799 26.9703L20.0792 27.0819L20.612 27.3951L21.3003 27.5067H23.099L23.588 26.9928L24.1431 26.0542L24.2101 24.0195L23.9661 22.4771L24.3434 22.343L24.8985 22.2755L25.476 22.2306L26.6087 21.8058L28.7408 20.6207L29.2074 20.8439L30.0066 21.4477L30.8505 22.0956L32.0279 22.5204L33.4046 22.8785L35.3365 23.2366L36.9357 23.7955L37.9799 25.0031L38.4465 25.3829H38.9131L39.6238 24.869L40.1566 24.1086L40.6456 23.0801L41.7783 21.9624L42 20.7547V20.1959L41.9115 19.9727L41.5557 19.8161L41.0891 19.9727L40.8227 20.4424L40.2675 21.2694L39.5568 21.7392L38.1801 22.0748H37.4917L34.471 20.8006L31.5397 19.3922L31.0731 19.1465L30.5626 18.7443L30.1853 18.2304L29.3638 17.9397H26.8544L25.5215 17.9847L24.3003 18.2529L23.4341 18.2304C23.4341 18.2304 23.7452 17.8281 23.7899 17.7607C23.8345 17.6932 23.9454 17.5591 24.1895 17.2643C24.4335 16.9694 24.6784 17.0228 24.6784 17.0228L25.078 16.3748C25.078 16.3748 25.4338 16.1066 25.5 16.0616L25.8996 15.7935C25.8996 15.7935 26.1884 15.4803 26.4548 15.2796L26.9653 14.9215C26.9653 14.9215 27.3649 14.5858 27.4757 14.4967C27.5866 14.4076 27.7868 14.2735 27.7868 14.2735L28.4305 14.251L28.941 14.6092L29.9181 15.5928L31.5612 16.7104L32.2719 17.0686L33.0819 17.39L39.1274 15.6552L39.8075 15.6252L40.3105 15.7743L40.9608 15.9525L40.7838 15.5061L40.4288 15.238L40.0739 14.5534L39.5709 14.4642L38.6244 14.3751L38.9793 13.8688L38.4175 13.8987L38.0924 14.4051L37.6489 14.7324L35.9934 15.0297L33.1828 15.3021L33.1853 15.3004Z" fill="#DDDDDD"/>
  </g>
  <defs>
    <filter id="filter0_d_1554_21916" x="0" y="0" width="48" height="33.5068" filterUnits="userSpaceOnUse" color-interpolation-filters="sRGB">
      <feFlood flood-opacity="0" result="BackgroundImageFix"/>
      <feColorMatrix in="SourceAlpha" type="matrix" values="0 0 0 0 0 0 0 0 0 0 0 0 0 0 0 0 0 0 127 0" result="hardAlpha"/>
      <feOffset/>
      <feGaussianBlur stdDeviation="3"/>
      <feComposite in2="hardAlpha" operator="out"/>
      <feColorMatrix type="matrix" values="0 0 0 0 0 0 0 0 0 0 0 0 0 0 0 0 0 0 0.65 0"/>
      <feBlend mode="normal" in2="BackgroundImageFix" result="effect1_dropShadow_1554_21916"/>
      <feBlend mode="normal" in="SourceGraphic" in2="effect1_dropShadow_1554_21916" result="shape"/>
    </filter>
  </defs>
</svg>
