<svg xmlns="http://www.w3.org/2000/svg" width="47" height="38" viewBox="0 0 47 38" fill="none">
  <g filter="url(#filter0_d_1554_22609)">
    <path d="M40.462 11.7961L39.9323 11.2831L39.5354 11.0347L38.9563 10.6875H38.2283L37.8313 10.7538L37.5171 10.8364L37.1033 10.919L36.7226 11.051L36.2425 11.5966L36.0272 12.159L35.6797 13.2171H34.8853L34.0577 13.0687L33.3128 13.2171L32.1709 13.3659L31.2112 13.5811L29.275 14.0278L27.6367 14.2262L26.8091 14.2925L25.3529 14.3419L24.6743 14.2925L23.3008 14.2762L22.6554 14.2925L21.5467 14.5408L20.8018 14.8549L20.1727 15.3016L19.5936 15.8309L19.2956 16.4096L19.0803 17.3856L18.0542 20.8422L17.3093 23.9185L17.0608 23.8522L14.6281 23.5712L13.2377 23.5049L9.05087 22.7279L8.60391 22.4138L8.12378 22.0666L7.67681 21.9014L7.24672 22.0834L6.76658 22.679L6.58443 23.8696L6.1875 24.9282V25.9699L6.73341 26.7144L7.52783 27.2931L7.87528 27.2268L8.20642 27.111L8.37171 27.0116L8.47123 26.6975L8.17325 26.2508L7.95792 25.821L8.33854 25.2091H8.76864L11.4499 25.6389L18.2516 27.392L18.8807 27.2431L19.4103 26.929L19.8904 26.4823L20.4695 25.5063H20.9828L21.8104 25.3743H24.2431L27.3376 25.5895L27.9003 25.49L28.4136 25.2417L28.7943 24.9608L29.0428 24.4809L29.0922 23.8853L28.8274 22.9425L28.331 22.0991L28.4468 20.5776L29.4729 20.1478V21.7851L29.6882 22.4632L30.0525 23.5218L31.5086 27.0279L32.0877 27.7887L32.2862 28.1528L32.6831 28.3511L33.3949 28.5L34.1893 28.318L35.1822 28.4005L35.6123 28.2517L36.0092 28.1691L36.4562 27.987V27.7224L35.9929 27.6398L35.8276 27.3914H35.4138L34.8179 27.2425L33.974 26.7958H32.8984L32.7826 26.498L32.6505 25.7867L32.2862 23.6033V21.503L32.4183 20.8911V20.395L32.8321 19.9483L32.9642 20.2955L33.1796 20.7422L33.7918 22.0817L35.2148 24.3809L35.3143 24.5298L35.4796 24.8107L35.678 25.0754L36.0424 25.3069L37.0021 25.3232H37.2506L37.4822 25.5215H37.9455L37.9123 25.3063L37.747 25.0254H39.0047L39.1205 24.8765L38.9552 24.7607L38.7236 24.6118L38.194 24.5292L37.8134 24.4135L37.2011 24.2815H36.5888L36.324 24.0994L36.0755 23.6364L35.5459 22.0154L35.2148 21.1552L35.1484 20.6754L35.1153 20.1624L35.0821 19.6994L34.8668 19.1207V18.8892L35.1479 18.5088L35.5448 17.6986L35.8591 16.7726L36.0244 16.5742L36.5377 16.4253L37.2658 16.3759L37.431 16.5911L37.6464 16.7894L37.8448 16.9878C37.8943 17.0372 38.0765 16.9878 38.0765 16.9878L38.325 16.9052L39.3178 16.0618C39.3178 16.0618 39.5663 15.8635 39.6158 15.8303C39.6653 15.7972 39.7479 15.5988 39.7479 15.5988L39.8475 15.3179L39.8969 15.1027L39.9796 14.8544L40.2444 14.7386L40.4265 14.5566L40.5587 14.1599L40.625 13.3659V12.2579L40.4597 11.795L40.462 11.7961ZM22.0222 22.2663L22.9129 20.8911L23.6551 21.6725L24.2983 22.3652L21.9232 22.4632L22.0222 22.2663Z" fill="#DDDDDD"/>
  </g>
  <defs>
    <filter id="filter0_d_1554_22609" x="0.1875" y="4.6875" width="46.4375" height="29.8125" filterUnits="userSpaceOnUse" color-interpolation-filters="sRGB">
      <feFlood flood-opacity="0" result="BackgroundImageFix"/>
      <feColorMatrix in="SourceAlpha" type="matrix" values="0 0 0 0 0 0 0 0 0 0 0 0 0 0 0 0 0 0 127 0" result="hardAlpha"/>
      <feOffset/>
      <feGaussianBlur stdDeviation="3"/>
      <feComposite in2="hardAlpha" operator="out"/>
      <feColorMatrix type="matrix" values="0 0 0 0 0 0 0 0 0 0 0 0 0 0 0 0 0 0 0.65 0"/>
      <feBlend mode="normal" in2="BackgroundImageFix" result="effect1_dropShadow_1554_22609"/>
      <feBlend mode="normal" in="SourceGraphic" in2="effect1_dropShadow_1554_22609" result="shape"/>
    </filter>
  </defs>
</svg>
