<svg xmlns="http://www.w3.org/2000/svg" width="34" height="35" viewBox="0 0 34 35" fill="none">
  <path d="M21.8946 13.6579C23.3189 13.6579 24.4736 12.5033 24.4736 11.0789C24.4736 9.65463 23.3189 8.5 21.8946 8.5C20.4703 8.5 19.3157 9.65463 19.3157 11.0789C19.3157 12.5033 20.4703 13.6579 21.8946 13.6579Z" stroke="white" stroke-width="1.5" stroke-linecap="round" stroke-linejoin="round"/>
  <path d="M11.5789 19.6755C13.0033 19.6755 14.1579 18.5208 14.1579 17.0965C14.1579 15.6722 13.0033 14.5176 11.5789 14.5176C10.1546 14.5176 9 15.6722 9 17.0965C9 18.5208 10.1546 19.6755 11.5789 19.6755Z" stroke="white" stroke-width="1.5" stroke-linecap="round" stroke-linejoin="round"/>
  <path d="M21.8946 25.6931C23.3189 25.6931 24.4736 24.5384 24.4736 23.1141C24.4736 21.6898 23.3189 20.5352 21.8946 20.5352C20.4703 20.5352 19.3157 21.6898 19.3157 23.1141C19.3157 24.5384 20.4703 25.6931 21.8946 25.6931Z" stroke="white" stroke-width="1.5" stroke-linecap="round" stroke-linejoin="round"/>
  <path d="M13.8054 18.394L19.6768 21.8154" stroke="white" stroke-width="1.5" stroke-linecap="round" stroke-linejoin="round"/>
  <path d="M19.6682 12.377L13.8054 15.7984" stroke="white" stroke-width="1.5" stroke-linecap="round" stroke-linejoin="round"/>
</svg>
