<svg width="24" height="24" viewBox="0 0 24 24" fill="none" xmlns="http://www.w3.org/2000/svg">
<path d="M6.67743 20C8.98456 20 10.8549 16.4183 10.8549 12C10.8549 7.58172 8.98456 4 6.67743 4C4.3703 4 2.5 7.58172 2.5 12C2.5 16.4183 4.3703 20 6.67743 20Z" fill="white"/>
<path d="M17.3229 20C19.6301 20 21.5004 16.4183 21.5004 12C21.5004 7.58172 19.6301 4 17.3229 4C15.0158 4 13.1455 7.58172 13.1455 12C13.1455 16.4183 15.0158 20 17.3229 20Z" fill="white"/>
<path d="M5.83424 14.7677C7.56459 14.7677 8.96732 13.4246 8.96732 11.7677C8.96732 10.1108 7.56459 8.7677 5.83424 8.7677C4.1039 8.7677 2.70117 10.1108 2.70117 11.7677C2.70117 13.4246 4.1039 14.7677 5.83424 14.7677Z" fill="black"/>
<path d="M16.4798 14.7677C18.2101 14.7677 19.6128 13.4246 19.6128 11.7677C19.6128 10.1108 18.2101 8.7677 16.4798 8.7677C14.7494 8.7677 13.3467 10.1108 13.3467 11.7677C13.3467 13.4246 14.7494 14.7677 16.4798 14.7677Z" fill="black"/>
</svg>
