<svg width="24" height="24" viewBox="0 0 24 24" fill="none" xmlns="http://www.w3.org/2000/svg">
<path fill-rule="evenodd" clip-rule="evenodd" d="M12.0931 1.01891C13.1974 1.04285 14.0717 1.95745 14.0458 3.06172C14.02 4.16598 13.1038 5.04176 11.9995 5.01782C10.8952 4.99388 10.0209 4.07928 10.0468 2.97502C10.0726 1.87075 10.9888 0.994971 12.0931 1.01891ZM9.93617 5.99998C8.19149 5.99998 7 7.0404 7 8.32332V13.8879C7 14.3872 7.32624 14.7914 8.00355 14.7914H9.02837V22.0182C9.02837 22.2933 9.18262 22.541 9.42908 22.7197C9.67021 22.8931 10 23 10.3635 23C10.7181 23 11.0408 22.8983 11.2784 22.7327C11.5372 22.5541 11.6986 22.2999 11.6986 22.0182V15.2334H12.3014V22.0182C12.3014 22.2933 12.4557 22.541 12.7021 22.7197C12.9433 22.8931 13.273 23 13.6365 23C13.9911 23 14.3138 22.8983 14.5514 22.7327C14.8103 22.5541 14.9716 22.2999 14.9716 22.0182V14.7914H15.9965C16.6755 14.7914 17 14.3872 17 13.8879V8.32462C17 7.0417 15.8138 5.99998 14.0674 5.99998H9.93617Z" fill="white"/>
</svg>
