<svg xmlns="http://www.w3.org/2000/svg" width="34" height="35" viewBox="0 0 34 35" fill="none">
  <g filter="url(#filter0_d_1554_22425)">
    <path d="M15.75 24.5C15.75 24.5 14.5 24.5 14.5 23.25C14.5 22 15.75 18.25 20.75 18.25C25.75 18.25 27 22 27 23.25C27 24.5 25.75 24.5 25.75 24.5H15.75ZM20.75 17C21.7446 17 22.6984 16.6049 23.4017 15.9017C24.1049 15.1984 24.5 14.2446 24.5 13.25C24.5 12.2554 24.1049 11.3016 23.4017 10.5983C22.6984 9.89509 21.7446 9.5 20.75 9.5C19.7554 9.5 18.8016 9.89509 18.0983 10.5983C17.3951 11.3016 17 12.2554 17 13.25C17 14.2446 17.3951 15.1984 18.0983 15.9017C18.8016 16.6049 19.7554 17 20.75 17ZM13.52 24.5C13.3348 24.1097 13.2424 23.6819 13.25 23.25C13.25 21.5562 14.1 19.8125 15.67 18.6C14.8865 18.358 14.07 18.24 13.25 18.25C8.25 18.25 7 22 7 23.25C7 24.5 8.25 24.5 8.25 24.5H13.52ZM12.625 17C13.4538 17 14.2487 16.6708 14.8347 16.0847C15.4208 15.4987 15.75 14.7038 15.75 13.875C15.75 13.0462 15.4208 12.2513 14.8347 11.6653C14.2487 11.0792 13.4538 10.75 12.625 10.75C11.7962 10.75 11.0013 11.0792 10.4153 11.6653C9.82924 12.2513 9.5 13.0462 9.5 13.875C9.5 14.7038 9.82924 15.4987 10.4153 16.0847C11.0013 16.6708 11.7962 17 12.625 17Z" fill="white"/>
  </g>
  <defs>
    <filter id="filter0_d_1554_22425" x="6" y="8.5" width="22" height="17" filterUnits="userSpaceOnUse" color-interpolation-filters="sRGB">
      <feFlood flood-opacity="0" result="BackgroundImageFix"/>
      <feColorMatrix in="SourceAlpha" type="matrix" values="0 0 0 0 0 0 0 0 0 0 0 0 0 0 0 0 0 0 127 0" result="hardAlpha"/>
      <feOffset/>
      <feGaussianBlur stdDeviation="0.5"/>
      <feComposite in2="hardAlpha" operator="out"/>
      <feColorMatrix type="matrix" values="0 0 0 0 0 0 0 0 0 0 0 0 0 0 0 0 0 0 0.45 0"/>
      <feBlend mode="normal" in2="BackgroundImageFix" result="effect1_dropShadow_1554_22425"/>
      <feBlend mode="normal" in="SourceGraphic" in2="effect1_dropShadow_1554_22425" result="shape"/>
    </filter>
  </defs>
</svg>
