<svg width="24" height="24" viewBox="0 0 24 24" fill="none" xmlns="http://www.w3.org/2000/svg">
<path fill-rule="evenodd" clip-rule="evenodd" d="M12.6331 2.10029C12.7444 2.16727 12.837 2.26452 12.9015 2.38209C12.9659 2.49967 12.9999 2.63336 13 2.7695V21.2306C13 21.3667 12.9661 21.5004 12.9018 21.618C12.8375 21.7356 12.745 21.8329 12.6339 21.9C12.5227 21.9671 12.3968 22.0016 12.269 21.9999C12.1412 21.9983 12.0162 21.9606 11.9066 21.8906L4.85622 17.3846H2.16667C1.59203 17.3846 1.04093 17.1414 0.634602 16.7087C0.228273 16.2759 0 15.6889 0 15.0769V8.9186C0.000382924 8.30684 0.228825 7.72028 0.635112 7.28784C1.0414 6.85541 1.59228 6.61249 2.16667 6.61249H4.85622L11.9051 2.10952C12.0148 2.03945 12.14 2.00168 12.2679 2.00005C12.3959 1.99843 12.5219 2.03302 12.6331 2.10029ZM15.2088 7.38841C15.5466 6.95146 16.1746 6.87105 16.6116 7.20882C17.5063 7.90045 18.5865 9.19845 18.9071 10.9026C19.2414 12.6803 18.7143 14.7122 16.7049 16.7093C16.3132 17.0986 15.68 17.0967 15.2907 16.7049C14.9014 16.3132 14.9033 15.68 15.2951 15.2907C16.9079 13.6878 17.1354 12.303 16.9415 11.2724C16.7338 10.1682 16.0029 9.26622 15.3884 8.79118C14.9515 8.4534 14.8711 7.82537 15.2088 7.38841ZM19.5603 4.17168C19.1028 3.86226 18.4811 3.98227 18.1717 4.43974C17.8623 4.89721 17.9823 5.51889 18.4397 5.82832C19.8171 6.75997 21.4146 8.49053 21.8709 10.6133C22.3051 12.633 21.7603 15.2743 18.3438 18.2454C17.927 18.6078 17.883 19.2395 18.2454 19.6562C18.6078 20.073 19.2395 20.117 19.6562 19.7546C23.4841 16.4257 24.4485 13.0878 23.8262 10.193C23.2261 7.40114 21.2014 5.2817 19.5603 4.17168Z" fill="white"/>
</svg>
