<svg xmlns="http://www.w3.org/2000/svg" width="34" height="35" viewBox="0 0 34 35" fill="none">
  <g filter="url(#filter0_d_1554_22358)">
    <path d="M17 26.5L16.431 26.0098C14.7586 24.5556 13.375 23.3137 12.2802 22.2843C11.1853 21.2549 10.3233 20.3521 9.69397 19.576C9.06466 18.7998 8.625 18.1013 8.375 17.4804C8.125 16.8595 8 16.2386 8 15.6176C8 14.4575 8.4181 13.4812 9.25431 12.6887C10.0905 11.8962 11.1207 11.5 12.3448 11.5C13.2586 11.5 14.1121 11.7328 14.9052 12.1985C15.6983 12.6642 16.3966 13.6013 17 14.5C17.6034 13.6013 18.5445 12.6642 19.3376 12.1985C20.1307 11.7328 20.8509 11.5 21.7647 11.5C22.9888 11.5 23.9095 11.8962 24.7457 12.6887C25.5819 13.4812 26 14.4575 26 15.6176C26 16.2386 25.875 16.8595 25.625 17.4804C25.375 18.1013 24.9353 18.7998 24.306 19.576C23.6767 20.3521 22.819 21.2549 21.7328 22.2843C20.6466 23.3137 19.2586 24.5556 17.569 26.0098L17 26.5Z" fill="#FE438B"/>
  </g>
  <defs>
    <filter id="filter0_d_1554_22358" x="7" y="10.5" width="20" height="17" filterUnits="userSpaceOnUse" color-interpolation-filters="sRGB">
      <feFlood flood-opacity="0" result="BackgroundImageFix"/>
      <feColorMatrix in="SourceAlpha" type="matrix" values="0 0 0 0 0 0 0 0 0 0 0 0 0 0 0 0 0 0 127 0" result="hardAlpha"/>
      <feOffset/>
      <feGaussianBlur stdDeviation="0.5"/>
      <feComposite in2="hardAlpha" operator="out"/>
      <feColorMatrix type="matrix" values="0 0 0 0 0 0 0 0 0 0 0 0 0 0 0 0 0 0 0.45 0"/>
      <feBlend mode="normal" in2="BackgroundImageFix" result="effect1_dropShadow_1554_22358"/>
      <feBlend mode="normal" in="SourceGraphic" in2="effect1_dropShadow_1554_22358" result="shape"/>
    </filter>
  </defs>
</svg>
