<svg width="24" height="24" viewBox="0 0 24 24" fill="none" xmlns="http://www.w3.org/2000/svg">
<path d="M6.67743 20C8.98456 20 10.8549 16.4183 10.8549 12C10.8549 7.58172 8.98456 4 6.67743 4C4.3703 4 2.5 7.58172 2.5 12C2.5 16.4183 4.3703 20 6.67743 20Z" stroke="white" stroke-width="1.5" stroke-miterlimit="10" stroke-linecap="round" stroke-linejoin="round"/>
<path d="M17.3229 20C19.6301 20 21.5004 16.4183 21.5004 12C21.5004 7.58172 19.6301 4 17.3229 4C15.0158 4 13.1455 7.58172 13.1455 12C13.1455 16.4183 15.0158 20 17.3229 20Z" stroke="white" stroke-width="1.5" stroke-miterlimit="10" stroke-linecap="round" stroke-linejoin="round"/>
<path d="M5.83424 14.7676C7.56459 14.7676 8.96732 13.4244 8.96732 11.7676C8.96732 10.1107 7.56459 8.76758 5.83424 8.76758C4.1039 8.76758 2.70117 10.1107 2.70117 11.7676C2.70117 13.4244 4.1039 14.7676 5.83424 14.7676Z" fill="white"/>
<path d="M16.4798 14.7676C18.2101 14.7676 19.6128 13.4244 19.6128 11.7676C19.6128 10.1107 18.2101 8.76758 16.4798 8.76758C14.7494 8.76758 13.3467 10.1107 13.3467 11.7676C13.3467 13.4244 14.7494 14.7676 16.4798 14.7676Z" fill="white"/>
</svg>
