<svg width="12" height="12" viewBox="0 0 12 12" fill="none" xmlns="http://www.w3.org/2000/svg">
<path d="M5.6882 1.01326C5.64333 0.999456 5.59584 0.996377 5.54956 1.00427C5.50328 1.01216 5.4595 1.03081 5.42174 1.05871C5.38398 1.08661 5.35329 1.12298 5.33215 1.1649C5.311 1.20681 5.29999 1.25311 5.3 1.30006V7.24306C4.97236 6.92871 4.54529 6.73856 4.09245 6.70539C3.63961 6.67222 3.18939 6.79812 2.81944 7.06137C2.44949 7.32462 2.183 7.70872 2.06593 8.14742C1.94886 8.58612 1.98856 9.05192 2.17817 9.46449C2.36778 9.87706 2.69541 10.2105 3.10457 10.4074C3.51373 10.6042 3.97876 10.6521 4.41946 10.5428C4.86016 10.4335 5.2489 10.1738 5.51863 9.80859C5.78836 9.44334 5.92218 8.99541 5.897 8.54206C5.89897 8.52814 5.89997 8.51411 5.9 8.50006V4.10626L9.4118 5.18626C9.45663 5.20005 9.50406 5.20313 9.55029 5.19527C9.59653 5.18741 9.64028 5.16882 9.67803 5.14099C9.71577 5.11316 9.74647 5.07686 9.76765 5.03502C9.78884 4.99318 9.79992 4.94696 9.8 4.90006V3.38626C9.80006 3.0654 9.69724 2.75298 9.50663 2.49488C9.31603 2.23677 9.04768 2.04659 8.741 1.95226L5.6882 1.01326Z" fill="white"/>
</svg>
