<svg width="24" height="25" viewBox="0 0 24 25" fill="none" xmlns="http://www.w3.org/2000/svg">
<path fill-rule="evenodd" clip-rule="evenodd" d="M12 0.5C5.37258 0.5 0 5.87258 0 12.5C0 15.0702 0.808025 17.4517 2.1839 19.4042L0 24.5L5.22878 22.4085C7.15606 23.7281 9.48788 24.5 12 24.5C18.6274 24.5 24 19.1274 24 12.5C24 5.87258 18.6274 0.5 12 0.5Z" fill="#BBBBBB"/>
<path fill-rule="evenodd" clip-rule="evenodd" d="M7.75 12.375C7.75 13.4105 6.91053 14.25 5.875 14.25C4.83947 14.25 4 13.4105 4 12.375C4 11.3395 4.83947 10.5 5.875 10.5C6.91053 10.5 7.75 11.3395 7.75 12.375ZM13.875 12.375C13.875 13.4105 13.0355 14.25 12 14.25C10.9645 14.25 10.125 13.4105 10.125 12.375C10.125 11.3395 10.9645 10.5 12 10.5C13.0355 10.5 13.875 11.3395 13.875 12.375ZM18.125 14.25C19.1605 14.25 20 13.4105 20 12.375C20 11.3395 19.1605 10.5 18.125 10.5C17.0895 10.5 16.25 11.3395 16.25 12.375C16.25 13.4105 17.0895 14.25 18.125 14.25Z" fill="#111111"/>
</svg>
