<svg xmlns="http://www.w3.org/2000/svg" width="34" height="35" viewBox="0 0 34 35" fill="none">
  <g filter="url(#filter0_d_1554_22354)">
    <path d="M10.75 9.625C10.75 8.7962 11.0792 8.00134 11.6653 7.41529C12.2513 6.82924 13.0462 6.5 13.875 6.5C14.7038 6.5 15.4987 6.82924 16.0847 7.41529C16.6708 8.00134 17 8.7962 17 9.625C17 8.7962 17.3292 8.00134 17.9153 7.41529C18.5013 6.82924 19.2962 6.5 20.125 6.5C20.9538 6.5 21.7487 6.82924 22.3347 7.41529C22.9208 8.00134 23.25 8.7962 23.25 9.625V9.6325C23.25 9.72 23.25 9.97 23.2025 10.25H25.75C26.0815 10.25 26.3995 10.3817 26.6339 10.6161C26.8683 10.8505 27 11.1685 27 11.5V12.75C27 13.0815 26.8683 13.3995 26.6339 13.6339C26.3995 13.8683 26.0815 14 25.75 14H8.25C7.91848 14 7.60054 13.8683 7.36612 13.6339C7.1317 13.3995 7 13.0815 7 12.75V11.5C7 11.1685 7.1317 10.8505 7.36612 10.6161C7.60054 10.3817 7.91848 10.25 8.25 10.25H10.7975C10.7647 10.0458 10.7488 9.83929 10.75 9.6325V9.625ZM12.085 10.25H15.75V9.625C15.75 9.37877 15.7015 9.13495 15.6073 8.90747C15.513 8.67998 15.3749 8.47328 15.2008 8.29917C15.0267 8.12506 14.82 7.98695 14.5925 7.89273C14.365 7.7985 14.1212 7.75 13.875 7.75C13.6288 7.75 13.385 7.7985 13.1575 7.89273C12.93 7.98695 12.7233 8.12506 12.5492 8.29917C12.3751 8.47328 12.237 8.67998 12.1427 8.90747C12.0485 9.13495 12 9.37877 12 9.625C12 9.73125 12.0025 9.9675 12.0563 10.1625L12.085 10.25ZM18.25 10.25H21.915L21.9438 10.1625C21.9975 9.9675 22 9.73125 22 9.625C22 9.12772 21.8025 8.65081 21.4508 8.29917C21.0992 7.94754 20.6223 7.75 20.125 7.75C19.6277 7.75 19.1508 7.94754 18.7992 8.29917C18.4475 8.65081 18.25 9.12772 18.25 9.625V10.25ZM25.75 15.25V24.625C25.75 25.1223 25.5525 25.5992 25.2008 25.9508C24.8492 26.3025 24.3723 26.5 23.875 26.5H18.25V15.25H25.75ZM10.125 26.5C9.62772 26.5 9.15081 26.3025 8.79917 25.9508C8.44754 25.5992 8.25 25.1223 8.25 24.625V15.25H15.75V26.5H10.125Z" fill="white"/>
  </g>
  <defs>
    <filter id="filter0_d_1554_22354" x="6" y="5.5" width="22" height="22" filterUnits="userSpaceOnUse" color-interpolation-filters="sRGB">
      <feFlood flood-opacity="0" result="BackgroundImageFix"/>
      <feColorMatrix in="SourceAlpha" type="matrix" values="0 0 0 0 0 0 0 0 0 0 0 0 0 0 0 0 0 0 127 0" result="hardAlpha"/>
      <feOffset/>
      <feGaussianBlur stdDeviation="0.5"/>
      <feComposite in2="hardAlpha" operator="out"/>
      <feColorMatrix type="matrix" values="0 0 0 0 0 0 0 0 0 0 0 0 0 0 0 0 0 0 0.45 0"/>
      <feBlend mode="normal" in2="BackgroundImageFix" result="effect1_dropShadow_1554_22354"/>
      <feBlend mode="normal" in="SourceGraphic" in2="effect1_dropShadow_1554_22354" result="shape"/>
    </filter>
  </defs>
</svg>
