<svg xmlns="http://www.w3.org/2000/svg" width="34" height="35" viewBox="0 0 34 35" fill="none">
  <g filter="url(#filter0_d_1554_22045)">
    <path d="M16.5849 14.7787L17 15.3969L17.4151 14.7787C17.9864 13.928 18.8758 13.0495 19.5907 12.6297C20.3209 12.201 20.9547 12 21.7647 12C22.8562 12 23.655 12.3439 24.4018 13.0516C25.1375 13.749 25.5 14.5937 25.5 15.6176C25.5 16.1697 25.3892 16.7274 25.1612 17.2936C24.9365 17.8516 24.5294 18.5066 23.9177 19.2611C23.307 20.0142 22.4661 20.9004 21.3888 21.9214C20.3105 22.9434 18.929 24.1795 17.2428 25.6308L17.2426 25.631L17 25.84L16.7591 25.6325C16.7588 25.6322 16.7585 25.632 16.7582 25.6317C15.089 24.1803 13.7109 22.9433 12.6227 21.92C11.5369 20.8992 10.6923 20.0134 10.0823 19.2611C9.47056 18.5066 9.06346 17.8516 8.83882 17.2936C8.61084 16.7274 8.5 16.1697 8.5 15.6176C8.5 14.5937 8.86246 13.749 9.59825 13.0516C10.3354 12.3531 11.2398 12 12.3448 12C13.169 12 13.9351 12.2088 14.652 12.6297C15.3332 13.0296 15.9747 13.8701 16.5849 14.7787Z" stroke="white" shape-rendering="crispEdges"/>
  </g>
  <defs>
    <filter id="filter0_d_1554_22045" x="7" y="10.5" width="20" height="17" filterUnits="userSpaceOnUse" color-interpolation-filters="sRGB">
      <feFlood flood-opacity="0" result="BackgroundImageFix"/>
      <feColorMatrix in="SourceAlpha" type="matrix" values="0 0 0 0 0 0 0 0 0 0 0 0 0 0 0 0 0 0 127 0" result="hardAlpha"/>
      <feOffset/>
      <feGaussianBlur stdDeviation="0.5"/>
      <feComposite in2="hardAlpha" operator="out"/>
      <feColorMatrix type="matrix" values="0 0 0 0 0 0 0 0 0 0 0 0 0 0 0 0 0 0 0.45 0"/>
      <feBlend mode="normal" in2="BackgroundImageFix" result="effect1_dropShadow_1554_22045"/>
      <feBlend mode="normal" in="SourceGraphic" in2="effect1_dropShadow_1554_22045" result="shape"/>
    </filter>
  </defs>
</svg>
