<svg xmlns="http://www.w3.org/2000/svg" width="42" height="45" viewBox="0 0 42 45" fill="none">
  <g filter="url(#filter0_d_1554_22606)">
    <path d="M23.7169 10.5058C23.7169 10.5058 23.1857 8.85465 23.7169 7.56223L24.1588 6.74961C24.1588 6.74961 25.5483 5.90673 27.1716 6.74961L27.6432 7.38069V7.89074L27.792 8.43969V8.82007L28.1447 9.4814V9.77965L27.5837 9.87042L27.316 11.4308H26.0455V11.9409L26.6362 12.0922H27.4053L27.6985 12.2737L28.1404 12.3947L28.5823 13.2679L28.7311 13.8082L28.969 14.3485L29.1177 14.7072L29.2367 15.1568L29.4449 15.8181L29.6532 16.1164L29.9464 16.2979L30.7155 15.3081L31.0087 14.798L31.2466 14.4393V14.1107L31.0979 13.7217L30.8302 13.1814L30.8897 12.8832L31.0682 12.5849L31.4209 12.3429L32.1602 12.4336L32.6319 12.7621L32.8996 13.2419V13.752L32.5172 14.3528L32.0752 15.4334L31.6333 16.7561L30.8939 18.0182L30.2141 18.6191L29.4747 18.8309L28.9733 18.5024L28.5611 17.962L28.1914 17.4217L27.7325 16.9722L27.4393 16.6134L26.9676 16.0731L26.4959 17.7848L26.1432 19.2847L25.5823 20.7846L25.4336 21.956V22.5568L25.8755 22.9458L27.588 24.1777L28.5908 25.0509L29.36 25.9802L29.8911 26.6718L30.3033 27.0003L30.775 27.2424L31.0427 27.6011L31.4846 30.8732L32.1347 35.2864L32.2835 35.9175L32.5214 36.246L32.9676 36.4535L33.3883 36.4405L33.9747 36.3541L34.4634 36.2503L34.9435 36.3152L35.0625 36.6221L34.8415 37.1192L34.1829 37.5082L33.554 37.7459L32.9336 37.988H32.4024C32.4024 37.988 31.9903 38.2603 31.901 38.2862C31.8118 38.3122 31.5186 38.4375 31.5186 38.4375H30.6347L30.5158 37.6551L30.5455 36.8728L30.6347 36.0299L30.3968 35.308L29.6871 32.3947L29.1687 31.4049L28.8288 30.5058L28.6503 29.2134L26.4959 28.1933L23.8699 26.9917L23.4874 26.9614L23.1347 27.5017L21.4818 30.294L20.0922 32.0965L19.3231 32.8183L18.7622 32.8788L13.9478 32.7275L11.9379 32.8788L10.3146 33.1511L9.63474 33.3932L8.77638 34.0243L7.94777 34.7461L7.4761 35.3469L6.91519 35.5285L6.5625 35.2562V34.3571L7.09366 33.3068L7.4761 32.6757L7.88828 31.9841L8.74664 31.1109L9.2778 30.4799L9.68998 30.2378L10.1319 30.4799L10.5441 30.9899L10.986 31.2622L11.9591 31.353L15.622 30.5706L18.0738 30.1816L19.1659 26.8188L19.9053 24.9255L19.5526 23.9659L19.6121 22.6735L20.3217 21.5324L20.8826 20.482L21.0611 17.3569L21.0016 15.6452L20.7084 14.1151L20.3557 13.363H16.8713L16.1022 14.8067L15.333 16.0688L15.1248 17.0284L15.3033 17.9015L15.3628 18.2906L15.2141 19.0124L14.7126 19.3409L13.9138 19.6132L13.2041 19.3409L13.1149 18.9216L13.1447 18.4721L13.5271 18.3511L13.6758 17.9015L13.8245 17.331L13.8543 16.6999L14.6532 13.5445L15.1248 11.8933L15.8642 11.5346L17.2537 11.1758L19.765 10.8776L20.4747 10.696L20.8869 10.575L22.0979 10.6658L23.7211 10.5145L23.7169 10.5058Z" fill="#DDDDDD"/>
  </g>
  <defs>
    <filter id="filter0_d_1554_22606" x="0.5625" y="0.375" width="40.5" height="44.0625" filterUnits="userSpaceOnUse" color-interpolation-filters="sRGB">
      <feFlood flood-opacity="0" result="BackgroundImageFix"/>
      <feColorMatrix in="SourceAlpha" type="matrix" values="0 0 0 0 0 0 0 0 0 0 0 0 0 0 0 0 0 0 127 0" result="hardAlpha"/>
      <feOffset/>
      <feGaussianBlur stdDeviation="3"/>
      <feComposite in2="hardAlpha" operator="out"/>
      <feColorMatrix type="matrix" values="0 0 0 0 0 0 0 0 0 0 0 0 0 0 0 0 0 0 0.65 0"/>
      <feBlend mode="normal" in2="BackgroundImageFix" result="effect1_dropShadow_1554_22606"/>
      <feBlend mode="normal" in="SourceGraphic" in2="effect1_dropShadow_1554_22606" result="shape"/>
    </filter>
  </defs>
</svg>
