<svg width="36" height="36" viewBox="0 0 36 36" fill="none" xmlns="http://www.w3.org/2000/svg">
<rect x="2" y="2" width="32" height="32" rx="16" fill="#FC2D7C"/>
<path fill-rule="evenodd" clip-rule="evenodd" d="M12 18C12 19.1046 11.1046 20 10 20C8.89543 20 8 19.1046 8 18C8 16.8954 8.89543 16 10 16C11.1046 16 12 16.8954 12 18ZM20 18C20 19.1046 19.1046 20 18 20C16.8954 20 16 19.1046 16 18C16 16.8954 16.8954 16 18 16C19.1046 16 20 16.8954 20 18ZM26 20C27.1046 20 28 19.1046 28 18C28 16.8954 27.1046 16 26 16C24.8954 16 24 16.8954 24 18C24 19.1046 24.8954 20 26 20Z" fill="white"/>
<path d="M4.52941 23L2 34L12 32.25L4.52941 23Z" fill="#FC2D7C"/>
</svg>
