<svg width="24" height="24" viewBox="0 0 24 24" fill="none" xmlns="http://www.w3.org/2000/svg">
<path d="M12.6331 2.10029C12.7444 2.16727 12.837 2.26452 12.9015 2.38209C12.9659 2.49967 12.9999 2.63336 13 2.7695V21.2306C13 21.3667 12.9661 21.5004 12.9018 21.618C12.8375 21.7356 12.745 21.8329 12.6339 21.9C12.5227 21.9671 12.3968 22.0016 12.269 21.9999C12.1412 21.9983 12.0162 21.9606 11.9066 21.8906L4.85622 17.3846H2.16667C1.59203 17.3846 1.04093 17.1414 0.634602 16.7087C0.228273 16.2759 0 15.6889 0 15.0769V8.9186C0.000382924 8.30684 0.228825 7.72028 0.635112 7.28784C1.0414 6.85541 1.59228 6.61249 2.16667 6.61249H4.85622L11.9051 2.10952C12.0148 2.03945 12.14 2.00168 12.2679 2.00005C12.3959 1.99843 12.5219 2.03302 12.6331 2.10029Z" fill="white"/>
<path d="M16 16L23 9" stroke="white" stroke-width="2" stroke-miterlimit="10" stroke-linecap="round"/>
<path d="M16 9L23 16" stroke="white" stroke-width="2" stroke-miterlimit="10" stroke-linecap="round"/>
</svg>
