<svg xmlns="http://www.w3.org/2000/svg" width="24" height="24" viewBox="0 0 24 24" fill="none">
  <path d="M15.892 19.5C15.1435 19.5 14.508 19.2392 13.9855 18.7175C13.4632 18.1958 13.202 17.5624 13.202 16.8173C13.202 16.0668 13.4637 15.4288 13.9873 14.9035C14.5107 14.3782 15.1464 14.1155 15.8943 14.1155C16.1139 14.1155 16.3237 14.1456 16.5235 14.2058C16.7232 14.2661 16.9108 14.3571 17.0865 14.4787V6.5H21.5V8.23075H18.5865V16.8173C18.5865 17.5624 18.3245 18.1958 17.8005 18.7175C17.2767 19.2392 16.6405 19.5 15.892 19.5ZM3.5 15.3845V13.8845H11.0192V15.3845H3.5ZM3.5 11.6923V10.1923H14.8943V11.6923H3.5ZM3.5 8V6.5H14.8943V8H3.5Z" fill="#FC2D7C"/>
</svg>