<svg width="18" height="18" viewBox="0 0 18 18" fill="none" xmlns="http://www.w3.org/2000/svg">
<g clip-path="url(#clip0_1772_5761)">
<mask id="path-3-inside-1_1772_5761" fill="white">
<path fill-rule="evenodd" clip-rule="evenodd" d="M11.7621 7.23425C12.1293 6.66492 12.3261 5.9951 12.3277 5.30941C12.3287 4.85318 12.2433 4.40122 12.0763 3.9794C11.9093 3.55758 11.664 3.1742 11.3544 2.85121C11.0448 2.52822 10.6771 2.27196 10.2722 2.09712C9.86734 1.92227 9.4333 1.83228 8.99497 1.83228C8.33617 1.83228 7.69215 2.03551 7.14427 2.41629C6.59639 2.79707 6.16924 3.33832 5.91676 3.97167C5.66428 4.60501 5.59781 5.30203 5.72575 5.97467C5.85369 6.64731 6.1703 7.2654 6.63557 7.75084C7.10085 8.23629 7.69393 8.56731 8.33988 8.7021C8.98582 8.83689 9.65566 8.76939 10.2648 8.50814C10.8739 8.24688 11.3949 7.80358 11.7621 7.23425ZM6.62712 10.9479C7.37773 10.624 8.18231 10.4573 8.99487 10.4573C9.8081 10.4562 10.6136 10.6221 11.3651 10.9455C12.1166 11.2689 12.7995 11.7435 13.3745 12.342C13.9496 12.9405 14.4055 13.6512 14.7162 14.4335C15.027 15.2157 15.1863 16.054 15.1853 16.9005C15.1853 17.3449 15.0157 17.7711 14.7137 18.0854C14.4118 18.3996 14.0023 18.5762 13.5753 18.5762H4.4225C3.9955 18.5762 3.58599 18.3996 3.28406 18.0854C2.98213 17.7711 2.81251 17.3449 2.81251 16.9005C2.81145 16.0547 2.97057 15.2171 3.28079 14.4354C3.59101 13.6537 4.04624 12.9434 4.62043 12.345C5.19462 11.7465 5.87652 11.2718 6.62712 10.9479Z"/>
</mask>
<path d="M12.3277 5.30941L11.3277 5.30709V5.30709L12.3277 5.30941ZM11.7621 7.23425L10.9217 6.69227V6.69227L11.7621 7.23425ZM12.0763 3.9794L11.1465 4.34752L11.1465 4.34753L12.0763 3.9794ZM11.3544 2.85121L10.6324 3.54316L10.6324 3.54316L11.3544 2.85121ZM10.2722 2.09712L10.6687 1.17907L10.2722 2.09712ZM8.99497 1.83228V0.832275H8.99497L8.99497 1.83228ZM7.14427 2.41629L6.57357 1.59514L7.14427 2.41629ZM5.91676 3.97167L6.84567 4.34197V4.34197L5.91676 3.97167ZM5.72575 5.97467L6.70814 5.78781L5.72575 5.97467ZM6.63557 7.75084L5.91363 8.44279L6.63557 7.75084ZM8.33988 8.7021L8.13561 9.68102H8.13561L8.33988 8.7021ZM10.2648 8.50814L9.87057 7.58911L9.87057 7.58911L10.2648 8.50814ZM8.99487 10.4573L8.99487 11.4573L8.99622 11.4573L8.99487 10.4573ZM6.62712 10.9479L7.02333 11.8661L6.62712 10.9479ZM11.3651 10.9455L10.9698 11.8641L10.9698 11.8641L11.3651 10.9455ZM14.7162 14.4335L13.7869 14.8026L14.7162 14.4335ZM15.1853 16.9005L14.1853 16.8992V16.9005H15.1853ZM14.7137 18.0854L13.9926 17.3925L13.9926 17.3925L14.7137 18.0854ZM3.28406 18.0854L4.00517 17.3925L4.00517 17.3925L3.28406 18.0854ZM2.81251 16.9005H3.81251L3.8125 16.8992L2.81251 16.9005ZM3.28079 14.4354L4.21027 14.8043L4.21027 14.8043L3.28079 14.4354ZM11.3277 5.30709C11.3265 5.80379 11.1838 6.2859 10.9217 6.69227L12.6025 7.77623C13.0747 7.04394 13.3256 6.18641 13.3277 5.31173L11.3277 5.30709ZM11.1465 4.34753C11.2666 4.65077 11.3284 4.97697 11.3277 5.30709L13.3277 5.31173C13.329 4.72939 13.22 4.15166 13.0061 3.61127L11.1465 4.34753ZM10.6324 3.54316C10.8511 3.77133 11.0265 4.04434 11.1465 4.34752L13.0061 3.61128C12.7921 3.07083 12.4768 2.57707 12.0763 2.15926L10.6324 3.54316ZM9.87574 3.01517C10.1563 3.13633 10.4138 3.31506 10.6324 3.54316L12.0763 2.15926C11.6758 1.74138 11.1978 1.4076 10.6687 1.17907L9.87574 3.01517ZM8.99497 2.83228C9.29609 2.83228 9.59528 2.89405 9.87574 3.01517L10.6687 1.17907C10.1394 0.950499 9.57051 0.832275 8.99497 0.832275V2.83228ZM7.71498 3.23744C8.09762 2.97151 8.54297 2.83228 8.99497 2.83228L8.99497 0.832275C8.12937 0.832278 7.28669 1.09951 6.57357 1.59514L7.71498 3.23744ZM6.84567 4.34197C7.02722 3.88654 7.33183 3.50374 7.71498 3.23744L6.57357 1.59514C5.86096 2.0904 5.31125 2.7901 4.98785 3.60136L6.84567 4.34197ZM6.70814 5.78781C6.61561 5.30135 6.664 4.79768 6.84567 4.34197L4.98785 3.60136C4.66456 4.41234 4.58001 5.3027 4.74337 6.16152L6.70814 5.78781ZM7.35752 7.05889C7.02865 6.71577 6.80064 6.27413 6.70814 5.78781L4.74337 6.16152C4.90675 7.02049 5.31194 7.81503 5.91363 8.44279L7.35752 7.05889ZM8.54414 7.72318C8.09973 7.63045 7.68598 7.40159 7.35752 7.05889L5.91363 8.44279C6.51573 9.07099 7.28813 9.50417 8.13561 9.68102L8.54414 7.72318ZM9.87057 7.58911C9.44919 7.76985 8.98824 7.81585 8.54414 7.72318L8.13561 9.68102C8.98341 9.85792 9.86212 9.76894 10.659 9.42716L9.87057 7.58911ZM10.9217 6.69227C10.6599 7.09825 10.2925 7.40815 9.87057 7.58911L10.659 9.42717C11.4553 9.08561 12.13 8.50891 12.6025 7.77623L10.9217 6.69227ZM8.99487 9.45729C8.04519 9.45729 7.10584 9.6522 6.23091 10.0297L7.02333 11.8661C7.64961 11.5958 8.31943 11.4573 8.99487 11.4573L8.99487 9.45729ZM11.7604 10.0269C10.8844 9.64996 9.94398 9.456 8.99351 9.45729L8.99622 11.4573C9.67222 11.4564 10.3428 11.5942 10.9698 11.8641L11.7604 10.0269ZM14.0956 11.6492C13.4295 10.9558 12.6363 10.4039 11.7604 10.0269L10.9698 11.8641C11.597 12.1339 12.1694 12.5311 12.6534 13.0348L14.0956 11.6492ZM15.6456 14.0643C15.2878 13.1634 14.7617 12.3424 14.0956 11.6492L12.6534 13.0348C13.1375 13.5386 13.5233 14.139 13.7869 14.8026L15.6456 14.0643ZM16.1853 16.9017C16.1865 15.9292 16.0034 14.9651 15.6456 14.0643L13.7869 14.8026C14.0505 15.4663 14.1862 16.1789 14.1853 16.8992L16.1853 16.9017ZM15.4348 18.7782C15.9196 18.2736 16.1853 17.5975 16.1853 16.9005H14.1853C14.1853 17.0923 14.1117 17.2686 13.9926 17.3925L15.4348 18.7782ZM13.5753 19.5762C14.2807 19.5762 14.9487 19.2841 15.4348 18.7782L13.9926 17.3925C13.8749 17.5151 13.7239 17.5762 13.5753 17.5762V19.5762ZM4.4225 19.5762H13.5753V17.5762H4.4225V19.5762ZM2.56295 18.7782C3.04905 19.2841 3.71707 19.5762 4.4225 19.5762V17.5762C4.27393 17.5762 4.12294 17.5151 4.00517 17.3925L2.56295 18.7782ZM1.81251 16.9005C1.81251 17.5975 2.07816 18.2736 2.56295 18.7782L4.00517 17.3925C3.8861 17.2686 3.81251 17.0923 3.81251 16.9005H1.81251ZM2.35131 14.0665C1.99407 14.9667 1.81129 15.93 1.81251 16.9017L3.8125 16.8992C3.8116 16.1795 3.94707 15.4675 4.21027 14.8043L2.35131 14.0665ZM3.89887 11.6526C3.23382 12.3457 2.70858 13.1663 2.35131 14.0665L4.21027 14.8043C4.47345 14.1411 4.85866 13.541 5.34199 13.0373L3.89887 11.6526ZM6.23091 10.0297C5.35609 10.4073 4.56401 10.9594 3.89887 11.6526L5.34199 13.0373C5.82524 12.5337 6.39695 12.1364 7.02333 11.8661L6.23091 10.0297Z" fill="#FC2D7C" mask="url(#path-3-inside-1_1772_5761)"/>
</g>
<rect x="0.5" y="0.5" width="17" height="17" rx="8.5" stroke="#FC2D7C"/>
<defs>
<clipPath id="clip0_1772_5761">
<rect width="18" height="18" rx="9" fill="white"/>
</clipPath>
</defs>
</svg>
