<svg width="24" height="24" viewBox="0 0 24 24" fill="none" xmlns="http://www.w3.org/2000/svg">
<path d="M2.00012 12.2039C2.00012 9.91549 2.00012 8.77128 2.51932 7.82274C3.03852 6.87421 3.98707 6.28551 5.88416 5.10813L7.88415 3.86687C9.88951 2.62229 10.8922 2 12.0001 2C13.1081 2 14.1107 2.62229 16.1161 3.86687L18.1161 5.10812C20.0132 6.28551 20.9617 6.87421 21.4809 7.82274C22.0001 8.77128 22.0001 9.91549 22.0001 12.2039V13.725C22.0001 17.6258 22.0001 19.5763 20.8285 20.7881C19.657 22 17.7714 22 14.0001 22H10.0001C6.22889 22 4.34327 22 3.17169 20.7881C2.00012 19.5763 2.00012 17.6258 2.00012 13.725V12.2039Z" stroke="white" stroke-width="1.5"/>
<path d="M15.0001 18H9.00012" stroke="white" stroke-width="1.5" stroke-linecap="round"/>
</svg>
