<svg width="24" height="30" viewBox="0 0 24 30" fill="none" xmlns="http://www.w3.org/2000/svg">
<circle cx="12" cy="3" r="3" fill="#E53935"/>
<path d="M8.35179 26.2418C9.19288 27.311 10.5142 28 12 28C13.4858 28 14.8071 27.311 15.6482 26.2418C13.2264 26.57 10.7736 26.57 8.35179 26.2418Z" fill="#FC2D7C"/>
<path d="M18.7491 15V15.7041C18.7491 16.5491 18.9903 17.3752 19.4422 18.0782L20.5496 19.8012C21.5612 21.3749 20.789 23.5139 19.0296 24.0116C14.4273 25.3134 9.57274 25.3134 4.97036 24.0116C3.21105 23.5139 2.43882 21.3749 3.45036 19.8012L4.5578 18.0782C5.00972 17.3752 5.25087 16.5491 5.25087 15.7041V15C5.25087 11.134 8.27256 8 12 8C15.7274 8 18.7491 11.134 18.7491 15Z" fill="#FC2D7C"/>
</svg>
