<svg width="24" height="24" viewBox="0 0 24 24" fill="none" xmlns="http://www.w3.org/2000/svg">
<path d="M1.54081e-06 12C1.54081e-06 9.98889 1.30909 8.2889 3.12 7.74445C3.9099 6.02544 5.16509 4.57175 6.73809 3.55419C8.31108 2.53662 10.1365 1.99744 12 2.00001C13.8646 1.99883 15.6909 2.53844 17.2654 3.55572C18.8399 4.573 20.0974 6.0259 20.8909 7.74445C22.6909 8.2889 24 9.98889 24 12C24 14.0111 22.6909 15.7111 20.8909 16.2556C20.0974 17.9741 18.8399 19.427 17.2654 20.4443C15.6909 21.4616 13.8646 22.0012 12 22C8.07273 22 4.68 19.6556 3.12 16.2556C2.21855 15.9844 1.42748 15.4234 0.865089 14.6563C0.302701 13.8892 -0.000789078 12.9573 1.54081e-06 12ZM14.7273 8.94445C14.3656 8.94445 14.0188 9.09078 13.763 9.35125C13.5073 9.61171 13.3636 9.96498 13.3636 10.3333C13.3636 10.7017 13.5073 11.055 13.763 11.3154C14.0188 11.5759 14.3656 11.7222 14.7273 11.7222C15.0889 11.7222 15.4358 11.5759 15.6915 11.3154C15.9472 11.055 16.0909 10.7017 16.0909 10.3333C16.0909 9.96498 15.9472 9.61171 15.6915 9.35125C15.4358 9.09078 15.0889 8.94445 14.7273 8.94445ZM9.27273 8.94445C8.91107 8.94445 8.56422 9.09078 8.30849 9.35125C8.05276 9.61171 7.90909 9.96498 7.90909 10.3333C7.90909 10.7017 8.05276 11.055 8.30849 11.3154C8.56422 11.5759 8.91107 11.7222 9.27273 11.7222C9.63439 11.7222 9.98123 11.5759 10.237 11.3154C10.4927 11.055 10.6364 10.7017 10.6364 10.3333C10.6364 9.96498 10.4927 9.61171 10.237 9.35125C9.98123 9.09078 9.63439 8.94445 9.27273 8.94445ZM7.09091 14.2222C7.92 16.1889 9.81818 17.5556 12 17.5556C14.1818 17.5556 16.08 16.1889 16.9091 14.2222H7.09091ZM2.18182 12C2.18182 12.9111 2.72727 13.7 3.50182 14.0444C3.34909 13.3889 3.27273 12.7 3.27273 12C3.27273 11.3 3.34909 10.6111 3.50182 9.95556C2.72727 10.3 2.18182 11.0889 2.18182 12ZM21.8182 12C21.8182 11.0889 21.2727 10.3 20.4982 9.95556C20.6509 10.6111 20.7273 11.3 20.7273 12C20.7273 12.7 20.6509 13.3889 20.4982 14.0444C21.2727 13.7 21.8182 12.9111 21.8182 12Z" fill="#FC2D7C"/>
<path d="M21.8182 12C21.8182 11.0889 21.2727 10.3 20.4982 9.95556C20.6509 10.6111 20.7273 11.3 20.7273 12C20.7273 12.7 20.6509 13.3889 20.4982 14.0444C21.2727 13.7 21.8182 12.9111 21.8182 12Z" fill="#FC2D7C"/>
<path d="M2.18182 12C2.18182 12.9111 2.72727 13.7 3.50182 14.0444C3.34909 13.3889 3.27273 12.7 3.27273 12C3.27273 11.3 3.34909 10.6111 3.50182 9.95556C2.72727 10.3 2.18182 11.0889 2.18182 12Z" fill="#FC2D7C"/>
</svg>
