<svg width="25" height="25" viewBox="0 0 25 25" fill="none" xmlns="http://www.w3.org/2000/svg">
<path d="M0.500002 12.5C0.500002 10.4889 1.80909 8.7889 3.62 8.24445C4.4099 6.52544 5.66509 5.07175 7.23809 4.05419C8.81108 3.03662 10.6365 2.49744 12.5 2.50001C14.3646 2.49883 16.1909 3.03844 17.7654 4.05572C19.3399 5.073 20.5974 6.5259 21.3909 8.24445C23.1909 8.7889 24.5 10.4889 24.5 12.5C24.5 14.5111 23.1909 16.2111 21.3909 16.7556C20.5974 18.4741 19.3399 19.927 17.7654 20.9443C16.1909 21.9616 14.3646 22.5012 12.5 22.5C8.57273 22.5 5.18 20.1556 3.62 16.7556C2.71855 16.4844 1.92748 15.9234 1.36509 15.1563C0.802701 14.3892 0.499211 13.4573 0.500002 12.5ZM15.2273 9.44445C14.8656 9.44445 14.5188 9.59078 14.263 9.85125C14.0073 10.1117 13.8636 10.465 13.8636 10.8333C13.8636 11.2017 14.0073 11.555 14.263 11.8154C14.5188 12.0759 14.8656 12.2222 15.2273 12.2222C15.5889 12.2222 15.9358 12.0759 16.1915 11.8154C16.4472 11.555 16.5909 11.2017 16.5909 10.8333C16.5909 10.465 16.4472 10.1117 16.1915 9.85125C15.9358 9.59078 15.5889 9.44445 15.2273 9.44445ZM9.77273 9.44445C9.41107 9.44445 9.06422 9.59078 8.80849 9.85125C8.55276 10.1117 8.40909 10.465 8.40909 10.8333C8.40909 11.2017 8.55276 11.555 8.80849 11.8154C9.06422 12.0759 9.41107 12.2222 9.77273 12.2222C10.1344 12.2222 10.4812 12.0759 10.737 11.8154C10.9927 11.555 11.1364 11.2017 11.1364 10.8333C11.1364 10.465 10.9927 10.1117 10.737 9.85125C10.4812 9.59078 10.1344 9.44445 9.77273 9.44445ZM7.59091 14.7222C8.42 16.6889 10.3182 18.0556 12.5 18.0556C14.6818 18.0556 16.58 16.6889 17.4091 14.7222H7.59091ZM2.68182 12.5C2.68182 13.4111 3.22727 14.2 4.00182 14.5444C3.84909 13.8889 3.77273 13.2 3.77273 12.5C3.77273 11.8 3.84909 11.1111 4.00182 10.4556C3.22727 10.8 2.68182 11.5889 2.68182 12.5ZM22.3182 12.5C22.3182 11.5889 21.7727 10.8 20.9982 10.4556C21.1509 11.1111 21.2273 11.8 21.2273 12.5C21.2273 13.2 21.1509 13.8889 20.9982 14.5444C21.7727 14.2 22.3182 13.4111 22.3182 12.5Z" fill="#212121"/>
<path d="M22.3182 12.5C22.3182 11.5889 21.7727 10.8 20.9982 10.4556C21.1509 11.1111 21.2273 11.8 21.2273 12.5C21.2273 13.2 21.1509 13.8889 20.9982 14.5444C21.7727 14.2 22.3182 13.4111 22.3182 12.5Z" fill="#212121"/>
<path d="M2.68182 12.5C2.68182 13.4111 3.22727 14.2 4.00182 14.5444C3.84909 13.8889 3.77273 13.2 3.77273 12.5C3.77273 11.8 3.84909 11.1111 4.00182 10.4556C3.22727 10.8 2.68182 11.5889 2.68182 12.5Z" fill="#212121"/>
</svg>
