<svg width="24" height="27" viewBox="0 0 24 27" fill="none" xmlns="http://www.w3.org/2000/svg">
<path d="M19.4422 15.0783L19.0216 15.3486L19.4422 15.0783ZM20.5496 16.8012L20.9702 16.5308L20.5496 16.8012ZM3.45036 16.8012L3.02975 16.5308H3.02975L3.45036 16.8012ZM4.5578 15.0783L4.9784 15.3486L4.5578 15.0783ZM19.0296 21.0116L18.8935 20.5305V20.5305L19.0296 21.0116ZM4.97036 21.0116L5.10645 20.5305L5.10645 20.5305L4.97036 21.0116ZM8.35179 23.2419L8.41892 22.7464C8.21709 22.7191 8.01885 22.8169 7.91774 22.9937C7.81664 23.1705 7.83289 23.3909 7.95881 23.551L8.35179 23.2419ZM15.6482 23.2419L16.0412 23.551C16.1671 23.3909 16.1834 23.1705 16.0823 22.9937C15.9812 22.8169 15.7829 22.7191 15.5811 22.7464L15.6482 23.2419ZM18.2491 12V12.7041H19.2491V12H18.2491ZM19.0216 15.3486L20.129 17.0715L20.9702 16.5308L19.8628 14.8079L19.0216 15.3486ZM3.87096 17.0715L4.9784 15.3486L4.13719 14.8079L3.02975 16.5308L3.87096 17.0715ZM5.75087 12.7041V12H4.75087V12.7041H5.75087ZM18.8935 20.5305C14.3801 21.8071 9.61985 21.8071 5.10645 20.5305L4.83427 21.4927C9.52563 22.8197 14.4744 22.8197 19.1657 21.4927L18.8935 20.5305ZM4.9784 15.3486C5.48276 14.564 5.75087 13.6439 5.75087 12.7041H4.75087C4.75087 13.4544 4.53667 14.1864 4.13719 14.8079L4.9784 15.3486ZM18.2491 12.7041C18.2491 13.6439 18.5172 14.564 19.0216 15.3486L19.8628 14.8079C19.4633 14.1864 19.2491 13.4544 19.2491 12.7041H18.2491ZM3.02975 16.5308C1.84607 18.3723 2.73525 20.899 4.83427 21.4927L5.10645 20.5305C3.68684 20.1289 3.03157 18.3774 3.87096 17.0715L3.02975 16.5308ZM20.129 17.0715C20.9684 18.3774 20.3132 20.1289 18.8935 20.5305L19.1657 21.4927C21.2648 20.899 22.1539 18.3723 20.9702 16.5308L20.129 17.0715ZM12 5.50003C15.4343 5.50003 18.2491 8.39282 18.2491 12H19.2491C19.2491 7.87525 16.0206 4.50003 12 4.50003V5.50003ZM12 4.50003C7.97937 4.50003 4.75087 7.87525 4.75087 12H5.75087C5.75087 8.39282 8.56574 5.50003 12 5.50003V4.50003ZM7.95881 23.551C8.89219 24.7375 10.3568 25.5 12 25.5V24.5C10.6715 24.5 9.49357 23.8846 8.74477 22.9327L7.95881 23.551ZM8.28466 23.7373C10.751 24.0715 13.249 24.0715 15.7153 23.7374L15.5811 22.7464C13.2039 23.0685 10.7962 23.0685 8.41892 22.7464L8.28466 23.7373ZM12 25.5C13.6432 25.5 15.1078 24.7375 16.0412 23.551L15.2552 22.9327C14.5064 23.8846 13.3285 24.5 12 24.5V25.5Z" fill="white"/>
<circle cx="12" cy="1.50003" r="1.5" fill="#E53935"/>
</svg>
