<svg width="24" height="24" viewBox="0 0 24 24" fill="none" xmlns="http://www.w3.org/2000/svg">
<path d="M19.4422 12.0783L19.0216 12.3486L19.4422 12.0783ZM20.5496 13.8012L20.9702 13.5308L20.5496 13.8012ZM3.45036 13.8012L3.02975 13.5308H3.02975L3.45036 13.8012ZM4.5578 12.0783L4.9784 12.3486L4.5578 12.0783ZM19.0296 18.0116L18.8935 17.5305V17.5305L19.0296 18.0116ZM4.97036 18.0116L5.10645 17.5305L5.10645 17.5305L4.97036 18.0116ZM8.35179 20.2419L8.41892 19.7464C8.21709 19.7191 8.01885 19.8169 7.91774 19.9937C7.81664 20.1705 7.83289 20.3909 7.95881 20.551L8.35179 20.2419ZM15.6482 20.2419L16.0412 20.551C16.1671 20.3909 16.1834 20.1705 16.0823 19.9937C15.9812 19.8169 15.7829 19.7191 15.5811 19.7464L15.6482 20.2419ZM18.2491 9.00003V9.70413H19.2491V9.00003H18.2491ZM19.0216 12.3486L20.129 14.0715L20.9702 13.5308L19.8628 11.8079L19.0216 12.3486ZM3.87096 14.0715L4.9784 12.3486L4.13719 11.8079L3.02975 13.5308L3.87096 14.0715ZM5.75087 9.70413V9.00003H4.75087V9.70413H5.75087ZM18.8935 17.5305C14.3801 18.8071 9.61985 18.8071 5.10645 17.5305L4.83427 18.4927C9.52563 19.8197 14.4744 19.8197 19.1657 18.4927L18.8935 17.5305ZM4.9784 12.3486C5.48276 11.564 5.75087 10.6439 5.75087 9.70413H4.75087C4.75087 10.4544 4.53667 11.1864 4.13719 11.8079L4.9784 12.3486ZM18.2491 9.70413C18.2491 10.6439 18.5172 11.564 19.0216 12.3486L19.8628 11.8079C19.4633 11.1864 19.2491 10.4544 19.2491 9.70413H18.2491ZM3.02975 13.5308C1.84607 15.3723 2.73525 17.899 4.83427 18.4927L5.10645 17.5305C3.68684 17.1289 3.03157 15.3774 3.87096 14.0715L3.02975 13.5308ZM20.129 14.0715C20.9684 15.3774 20.3132 17.1289 18.8935 17.5305L19.1657 18.4927C21.2648 17.899 22.1539 15.3723 20.9702 13.5308L20.129 14.0715ZM12 2.50003C15.4343 2.50003 18.2491 5.39282 18.2491 9.00003H19.2491C19.2491 4.87525 16.0206 1.50003 12 1.50003V2.50003ZM12 1.50003C7.97937 1.50003 4.75087 4.87525 4.75087 9.00003H5.75087C5.75087 5.39282 8.56574 2.50003 12 2.50003V1.50003ZM7.95881 20.551C8.89219 21.7375 10.3568 22.5 12 22.5V21.5C10.6715 21.5 9.49357 20.8846 8.74477 19.9327L7.95881 20.551ZM8.28466 20.7373C10.751 21.0715 13.249 21.0715 15.7153 20.7374L15.5811 19.7464C13.2039 20.0685 10.7962 20.0685 8.41892 19.7464L8.28466 20.7373ZM12 22.5C13.6432 22.5 15.1078 21.7375 16.0412 20.551L15.2552 19.9327C14.5064 20.8846 13.3285 21.5 12 21.5V22.5Z" fill="white"/>
</svg>
