<svg width="24" height="24" viewBox="0 0 24 24" fill="none" xmlns="http://www.w3.org/2000/svg">
<path d="M2 12C2 7.28599 2 4.92896 3.46447 3.4645C4.92893 2.00003 7.28595 2.00003 12 2.00003C16.714 2.00003 19.0711 2.00003 20.5355 3.4645C22 4.92896 22 7.28599 22 12C22 16.7141 22 19.0711 20.5355 20.5356C19.0711 22 16.714 22 12 22C7.28595 22 4.92893 22 3.46447 20.5356C2 19.0711 2 16.7141 2 12Z" stroke="white" stroke-width="1.3"/>
<path d="M15 12.0001L12 12.0001M12 12.0001L9 12.0001M12 12.0001L12 9.00003M12 12.0001L12 15" stroke="white" stroke-width="1.5" stroke-linecap="round"/>
</svg>
