<svg width="24" height="24" viewBox="0 0 24 24" fill="none" xmlns="http://www.w3.org/2000/svg">
<path d="M17.1481 15.2219C18.4797 13.4049 19.0761 11.1522 18.818 8.91435C18.5599 6.67652 17.4664 4.61867 15.7562 3.15248C14.046 1.68629 11.8453 0.919899 9.59427 1.00663C7.34328 1.09337 5.20805 2.02683 3.61575 3.62027C2.02345 5.21371 1.09151 7.34961 1.00639 9.60066C0.921266 11.8517 1.68923 14.0519 3.15664 15.761C4.62405 17.4702 6.68269 18.5622 8.9207 18.8187C11.1587 19.0752 13.411 18.4772 15.2271 17.1444H15.2257C15.266 17.1994 15.311 17.2521 15.3605 17.3025L20.6548 22.5968C20.9126 22.8548 21.2624 22.9999 21.6272 23C21.992 23.0001 22.3419 22.8553 22.5999 22.5975C22.8579 22.3396 23.003 21.9898 23.0031 21.6251C23.0032 21.2603 22.8584 20.9104 22.6006 20.6524L17.3063 15.3581C17.2572 15.3083 17.2043 15.2637 17.1481 15.2219ZM17.5029 9.93587C17.5029 10.9291 17.3073 11.9126 16.9272 12.8302C16.5471 13.7478 15.99 14.5816 15.2877 15.2839C14.5854 15.9862 13.7516 16.5433 12.834 16.9234C11.9164 17.3035 10.9329 17.4992 9.93966 17.4992C8.94643 17.4992 7.96293 17.3035 7.04531 16.9234C6.1277 16.5433 5.29393 15.9862 4.59161 15.2839C3.88929 14.5816 3.33219 13.7478 2.9521 12.8302C2.57201 11.9126 2.37638 10.9291 2.37638 9.93587C2.37638 7.92997 3.17322 6.00622 4.59161 4.58783C6.01 3.16944 7.93375 2.37259 9.93966 2.37259C11.9456 2.37259 13.8693 3.16944 15.2877 4.58783C16.7061 6.00622 17.5029 7.92997 17.5029 9.93587Z" fill="#202124"/>
</svg>
