<svg xmlns="http://www.w3.org/2000/svg" width="24" height="24" viewBox="0 0 24 24" fill="none">
  <g clip-path="url(#clip0_2682_5732)">
    <path d="M12 7.13086C11.3606 7.13086 10.7274 7.2568 10.1367 7.50149C9.54596 7.74618 9.00921 8.10483 8.55708 8.55696C8.10495 9.00908 7.7463 9.54584 7.50161 10.1366C7.25692 10.7273 7.13098 11.3605 7.13098 11.9999C7.13098 12.6393 7.25692 13.2724 7.50161 13.8631C7.7463 14.4539 8.10495 14.9906 8.55708 15.4428C9.00921 15.8949 9.54596 16.2535 10.1367 16.4982C10.7274 16.7429 11.3606 16.8689 12 16.8689C13.2913 16.8689 14.5298 16.3559 15.4429 15.4428C16.356 14.5296 16.869 13.2912 16.869 11.9999C16.869 10.7085 16.356 9.47007 15.4429 8.55696C14.5298 7.64384 13.2913 7.13086 12 7.13086ZM8.63098 11.9999C8.63098 11.1063 8.98593 10.2494 9.61774 9.61762C10.2495 8.98581 11.1065 8.63086 12 8.63086C12.8935 8.63086 13.7504 8.98581 14.3822 9.61762C15.014 10.2494 15.369 11.1063 15.369 11.9999C15.369 12.8934 15.014 13.7503 14.3822 14.3821C13.7504 15.0139 12.8935 15.3689 12 15.3689C11.1065 15.3689 10.2495 15.0139 9.61774 14.3821C8.98593 13.7503 8.63098 12.8934 8.63098 11.9999Z" fill="#202124"/>
    <path d="M14.694 2.01473C13.9035 -0.670273 10.0965 -0.670273 9.30601 2.01473L9.16501 2.49323C9.10981 2.68065 9.01336 2.85335 8.88274 2.99866C8.75212 3.14397 8.59063 3.25821 8.41012 3.333C8.22962 3.4078 8.03466 3.44125 7.83954 3.4309C7.64443 3.42056 7.4541 3.36668 7.28251 3.27323L6.84451 3.03323C4.38451 1.69523 1.69501 4.38623 3.03451 6.84473L3.27301 7.28273C3.36647 7.45431 3.42035 7.64464 3.43069 7.83976C3.44103 8.03487 3.40758 8.22983 3.33279 8.41034C3.258 8.59085 3.14376 8.75233 2.99845 8.88295C2.85314 9.01357 2.68044 9.11002 2.49301 9.16523L2.01451 9.30623C-0.670487 10.0967 -0.670487 13.9037 2.01451 14.6942L2.49301 14.8352C2.68044 14.8904 2.85314 14.9869 2.99845 15.1175C3.14376 15.2481 3.258 15.4096 3.33279 15.5901C3.40758 15.7706 3.44103 15.9656 3.43069 16.1607C3.42035 16.3558 3.36647 16.5461 3.27301 16.7177L3.03301 17.1557C1.69501 19.6157 4.38451 22.3067 6.84451 20.9657L7.28251 20.7272C7.4541 20.6338 7.64443 20.5799 7.83954 20.5695C8.03466 20.5592 8.22962 20.5927 8.41012 20.6674C8.59063 20.7422 8.75212 20.8565 8.88274 21.0018C9.01336 21.1471 9.10981 21.3198 9.16501 21.5072L9.30601 21.9857C10.0965 24.6707 13.9035 24.6707 14.694 21.9857L14.835 21.5072C14.8902 21.3198 14.9867 21.1471 15.1173 21.0018C15.2479 20.8565 15.4094 20.7422 15.5899 20.6674C15.7704 20.5927 15.9654 20.5592 16.1605 20.5695C16.3556 20.5799 16.5459 20.6338 16.7175 20.7272L17.1555 20.9672C19.6155 22.3067 22.3065 19.6142 20.9655 17.1557L20.727 16.7177C20.6336 16.5461 20.5797 16.3558 20.5693 16.1607C20.559 15.9656 20.5924 15.7706 20.6672 15.5901C20.742 15.4096 20.8563 15.2481 21.0016 15.1175C21.1469 14.9869 21.3196 14.8904 21.507 14.8352L21.9855 14.6942C24.6705 13.9037 24.6705 10.0967 21.9855 9.30623L21.507 9.16523C21.3196 9.11002 21.1469 9.01357 21.0016 8.88295C20.8563 8.75233 20.742 8.59085 20.6672 8.41034C20.5924 8.22983 20.559 8.03487 20.5693 7.83976C20.5797 7.64464 20.6336 7.45431 20.727 7.28273L20.967 6.84473C22.3065 4.38473 19.614 1.69523 17.1555 3.03473L16.7175 3.27323C16.5459 3.36668 16.3556 3.42056 16.1605 3.4309C15.9654 3.44125 15.7704 3.4078 15.5899 3.333C15.4094 3.25821 15.2479 3.14397 15.1173 2.99866C14.9867 2.85335 14.8902 2.68065 14.835 2.49323L14.694 2.01473ZM10.7445 2.43923C11.1135 1.18673 12.8865 1.18673 13.2555 2.43923L13.3965 2.91773C13.515 3.31985 13.7221 3.69036 14.0024 4.00208C14.2827 4.31379 14.6293 4.55882 15.0166 4.7192C15.404 4.87957 15.8223 4.95123 16.2409 4.92891C16.6596 4.90659 17.0679 4.79087 17.436 4.59023L17.8725 4.35023C19.0185 3.72773 20.2725 4.98023 19.6485 6.12773L19.41 6.56573C19.2097 6.93387 19.0942 7.34217 19.0722 7.76071C19.0501 8.17925 19.1219 8.59743 19.2824 8.9846C19.4429 9.37178 19.688 9.71813 19.9998 9.99829C20.3115 10.2785 20.682 10.4853 21.084 10.6037L21.561 10.7447C22.8135 11.1137 22.8135 12.8867 21.561 13.2557L21.0825 13.3967C20.6804 13.5153 20.3099 13.7223 19.9982 14.0026C19.6864 14.283 19.4414 14.6295 19.281 15.0168C19.1207 15.4042 19.049 15.8225 19.0713 16.2411C19.0936 16.6598 19.2094 17.0681 19.41 17.4362L19.65 17.8727C20.2725 19.0187 19.02 20.2727 17.8725 19.6487L17.436 19.4102C17.0678 19.2096 16.6594 19.0939 16.2407 19.0717C15.8219 19.0495 15.4036 19.1213 15.0162 19.2818C14.6288 19.4423 14.2823 19.6875 14.002 19.9994C13.7218 20.3113 13.5149 20.682 13.3965 21.0842L13.2555 21.5612C12.8865 22.8137 11.1135 22.8137 10.7445 21.5612L10.6035 21.0827C10.4849 20.6808 10.2779 20.3105 9.99771 19.9989C9.71748 19.6874 9.3711 19.4425 8.98395 19.2821C8.5968 19.1217 8.17868 19.05 7.76022 19.0722C7.34176 19.0944 6.93355 19.2099 6.56551 19.4102L6.12751 19.6502C4.98151 20.2727 3.72751 19.0202 4.35151 17.8727L4.59001 17.4362C4.79094 17.0681 4.90689 16.6596 4.92935 16.2408C4.95182 15.822 4.88022 15.4034 4.71983 15.0159C4.55943 14.6284 4.3143 14.2816 4.00243 14.0012C3.69056 13.7208 3.31985 13.5137 2.91751 13.3952L2.43901 13.2542C1.18651 12.8852 1.18651 11.1122 2.43901 10.7432L2.91751 10.6022C3.31922 10.4836 3.68932 10.2766 4.00073 9.99651C4.31213 9.71638 4.55696 9.37017 4.71729 8.98321C4.87763 8.59625 4.94941 8.17834 4.92739 7.76006C4.90536 7.34177 4.79009 6.93371 4.59001 6.56573L4.35001 6.12773C3.72751 4.98173 4.98001 3.72773 6.12751 4.35173L6.56551 4.59023C6.93355 4.79059 7.34176 4.90609 7.76022 4.92826C8.17868 4.95043 8.5968 4.87871 8.98395 4.71835C9.3711 4.558 9.71748 4.31307 9.99771 4.00151C10.2779 3.68995 10.4849 3.31964 10.6035 2.91773L10.7445 2.43923Z" fill="#202124"/>
  </g>
  <defs>
    <clipPath id="clip0_2682_5732">
      <rect width="24" height="24" fill="white"/>
    </clipPath>
  </defs>
</svg>