<svg xmlns="http://www.w3.org/2000/svg" width="20" height="17" viewBox="0 0 20 17" fill="none">
  <path d="M10.4 16.5L9.79309 15.9771C8.00918 14.4259 6.53332 13.1013 5.36551 12.0033C4.19769 10.9052 3.27815 9.94227 2.60688 9.11438C1.93562 8.28649 1.46665 7.5414 1.19999 6.87909C0.933321 6.21678 0.799988 5.55447 0.799988 4.89216C0.799988 3.65468 1.24597 2.61329 2.13792 1.76797C3.02987 0.922658 4.12872 0.5 5.43447 0.5C6.40918 0.5 7.31953 0.748366 8.16551 1.2451C9.01148 1.74183 9.75631 2.74139 10.4 3.7C11.0437 2.74139 12.0474 1.74183 12.8934 1.2451C13.7394 0.748366 14.5076 0.5 15.4823 0.5C16.7881 0.5 17.7701 0.922658 18.6621 1.76797C19.554 2.61329 20 3.65468 20 4.89216C20 5.55447 19.8667 6.21678 19.6 6.87909C19.3333 7.5414 18.8644 8.28649 18.1931 9.11438C17.5218 9.94227 16.6069 10.9052 15.4483 12.0033C14.2896 13.1013 12.8092 14.4259 11.0069 15.9771L10.4 16.5Z" fill="#FC2D7C"/>
</svg>