<svg xmlns="http://www.w3.org/2000/svg" width="20" height="17" viewBox="0 0 20 17" fill="none">
  <path d="M9.98489 3.97873L10.4 4.59693L10.8151 3.97873C11.4266 3.06808 12.3788 2.1271 13.1466 1.67627C13.9296 1.2165 14.6114 1 15.4823 1C16.6554 1 17.5156 1.37032 18.3181 2.13089C19.1097 2.88104 19.5 3.79086 19.5 4.89216C19.5 5.48563 19.3808 6.08472 19.1362 6.69234C18.8949 7.29166 18.4585 7.99321 17.8047 8.79948C17.1522 9.6043 16.2541 10.5507 15.1043 11.6404C13.9536 12.731 12.4796 14.0499 10.6807 15.5982L10.6805 15.5983L10.4 15.84L10.1212 15.5998C10.1209 15.5996 10.1206 15.5994 10.1204 15.5991C8.33966 14.0507 6.86929 12.7309 5.70801 11.639C4.54929 10.5495 3.64722 9.60355 2.99526 8.79948C2.34153 7.99321 1.90511 7.29166 1.6638 6.69234C1.41916 6.08472 1.29999 5.48563 1.29999 4.89216C1.29999 3.79086 1.69032 2.88104 2.48186 2.13089C3.27473 1.37947 4.24788 1 5.43447 1C6.31957 1 7.14259 1.2243 7.91234 1.67627C8.64636 2.10726 9.3345 3.01014 9.98489 3.97873Z" fill="#CCCCCC" stroke="#777777"/>
</svg>