<svg width="28" height="28" viewBox="0 0 28 28" fill="none" xmlns="http://www.w3.org/2000/svg">
<g id="following">
<g id="Vector" filter="url(#filter0_d_1548_14230)">
<path d="M20.6816 13.3001V10.4103H17.7918V9.42331H20.6816V6.53348H21.6686V9.42331H24.5585V10.4103H21.6686V13.3001H20.6816ZM12.6001 13.2777C11.6376 13.2777 10.8287 12.9499 10.1732 12.2944C9.51771 11.639 9.18997 10.8275 9.18997 9.85991C9.18997 8.89235 9.51771 8.08337 10.1732 7.43295C10.8287 6.78234 11.6376 6.45703 12.6001 6.45703C13.5626 6.45703 14.3716 6.78234 15.0271 7.43295C15.6826 8.08337 16.0103 8.89235 16.0103 9.85991C16.0103 10.8275 15.6826 11.639 15.0271 12.2944C14.3716 12.9499 13.5626 13.2777 12.6001 13.2777ZM4.43347 21.7182V19.953C4.43347 19.4685 4.57367 19.0164 4.85405 18.5968C5.13464 18.1774 5.52294 17.8532 6.01897 17.6244C7.19867 17.0902 8.32256 16.6967 9.39064 16.4437C10.4589 16.1907 11.5274 16.0642 12.5961 16.0642C13.6647 16.0642 14.7338 16.1907 15.8032 16.4437C16.8727 16.6967 17.9972 17.0902 19.1769 17.6244C19.673 17.8661 20.0619 18.1935 20.3439 18.6067C20.6258 19.0197 20.7668 19.4685 20.7668 19.953V21.7182H4.43347ZM5.42076 20.7309H19.7795V19.953C19.7795 19.6693 19.686 19.3982 19.4989 19.1396C19.3117 18.8808 19.0518 18.6648 18.7193 18.4918C17.6582 17.9888 16.6367 17.6229 15.6548 17.3942C14.6728 17.1658 13.6546 17.0515 12.6001 17.0515C11.5457 17.0515 10.5242 17.1658 9.53589 17.3942C8.54733 17.6229 7.52757 17.9888 6.4766 18.4918C6.13418 18.6648 5.87256 18.8808 5.69172 19.1396C5.51108 19.3982 5.42076 19.6693 5.42076 19.953V20.7309ZM12.6001 12.2904C13.2797 12.2904 13.8534 12.0564 14.3213 11.5886C14.7893 11.1208 15.0233 10.5471 15.0233 9.86749C15.0233 9.18791 14.7893 8.6141 14.3213 8.14607C13.8534 7.67824 13.2797 7.44432 12.6001 7.44432C11.9206 7.44432 11.3468 7.67824 10.879 8.14607C10.411 8.6141 10.177 9.18791 10.177 9.86749C10.177 10.5471 10.411 11.1208 10.879 11.5886C11.3468 12.0564 11.9206 12.2904 12.6001 12.2904Z" fill="white"/>
</g>
</g>
<defs>
<filter id="filter0_d_1548_14230" x="3.43347" y="5.45703" width="22.125" height="17.2607" filterUnits="userSpaceOnUse" color-interpolation-filters="sRGB">
<feFlood flood-opacity="0" result="BackgroundImageFix"/>
<feColorMatrix in="SourceAlpha" type="matrix" values="0 0 0 0 0 0 0 0 0 0 0 0 0 0 0 0 0 0 127 0" result="hardAlpha"/>
<feOffset/>
<feGaussianBlur stdDeviation="0.5"/>
<feComposite in2="hardAlpha" operator="out"/>
<feColorMatrix type="matrix" values="0 0 0 0 0 0 0 0 0 0 0 0 0 0 0 0 0 0 0.65 0"/>
<feBlend mode="normal" in2="BackgroundImageFix" result="effect1_dropShadow_1548_14230"/>
<feBlend mode="normal" in="SourceGraphic" in2="effect1_dropShadow_1548_14230" result="shape"/>
</filter>
</defs>
</svg>
