<svg xmlns="http://www.w3.org/2000/svg" width="37" height="36" viewBox="0 0 37 36" fill="none">
  <path d="M18.7998 29L18.0412 28.3464C15.8113 26.4074 13.9665 24.7516 12.5067 23.3791C11.0469 22.0065 9.89751 20.8028 9.05843 19.768C8.21934 18.7331 7.63314 17.8017 7.2998 16.9739C6.96647 16.146 6.7998 15.3181 6.7998 14.4902C6.7998 12.9434 7.35728 11.6416 8.47222 10.585C9.58716 9.52832 10.9607 9 12.5929 9C13.8113 9 14.9492 9.31046 16.0067 9.93137C17.0642 10.5523 17.9952 11.8017 18.7998 13C19.6044 11.8017 20.8591 10.5523 21.9166 9.93137C22.974 9.31046 23.9344 9 25.1527 9C26.7849 9 28.0125 9.52832 29.1274 10.585C30.2423 11.6416 30.7998 12.9434 30.7998 14.4902C30.7998 15.3181 30.6331 16.146 30.2998 16.9739C29.9665 17.8017 29.3803 18.7331 28.5412 19.768C27.7021 20.8028 26.5584 22.0065 25.1102 23.3791C23.6619 24.7516 21.8113 26.4074 19.5584 28.3464L18.7998 29Z" fill="#FC2D7C"/>
</svg>