<svg width="32" height="32" viewBox="0 0 32 32" fill="none" xmlns="http://www.w3.org/2000/svg">
<g id="share-2">
<g id="Group 125">
<path id="Vector" d="M23.5 10.1357C25.433 10.1357 27 8.56874 27 6.63574C27 4.70275 25.433 3.13574 23.5 3.13574C21.567 3.13574 20 4.70275 20 6.63574C20 8.56874 21.567 10.1357 23.5 10.1357Z" stroke="white" stroke-width="2" stroke-linecap="round" stroke-linejoin="round"/>
<path id="Vector_2" d="M9.5 18.3027C11.433 18.3027 13 16.7357 13 14.8027C13 12.8697 11.433 11.3027 9.5 11.3027C7.567 11.3027 6 12.8697 6 14.8027C6 16.7357 7.567 18.3027 9.5 18.3027Z" stroke="white" stroke-width="2" stroke-linecap="round" stroke-linejoin="round"/>
<path id="Vector_3" d="M23.5 26.4688C25.433 26.4688 27 24.9017 27 22.9688C27 21.0358 25.433 19.4688 23.5 19.4688C21.567 19.4688 20 21.0358 20 22.9688C20 24.9017 21.567 26.4688 23.5 26.4688Z" stroke="white" stroke-width="2" stroke-linecap="round" stroke-linejoin="round"/>
<path id="Vector_4" d="M12.5215 16.5635L20.4898 21.2068" stroke="white" stroke-width="2" stroke-linecap="round" stroke-linejoin="round"/>
<path id="Vector_5" d="M20.4782 8.39746L12.5215 13.0408" stroke="white" stroke-width="2" stroke-linecap="round" stroke-linejoin="round"/>
</g>
</g>
</svg>
