<svg width="32" height="32" viewBox="0 0 32 32" fill="none" xmlns="http://www.w3.org/2000/svg">
<g id="share-2">
<g id="Group 125">
<path id="Vector" d="M23.5 10.1354C25.433 10.1354 27 8.56837 27 6.63538C27 4.70238 25.433 3.13538 23.5 3.13538C21.567 3.13538 20 4.70238 20 6.63538C20 8.56837 21.567 10.1354 23.5 10.1354Z" stroke="#FC2D7C" stroke-width="2" stroke-linecap="round" stroke-linejoin="round"/>
<path id="Vector_2" d="M9.5 18.3022C11.433 18.3022 13 16.7352 13 14.8022C13 12.8692 11.433 11.3022 9.5 11.3022C7.567 11.3022 6 12.8692 6 14.8022C6 16.7352 7.567 18.3022 9.5 18.3022Z" stroke="#FC2D7C" stroke-width="2" stroke-linecap="round" stroke-linejoin="round"/>
<path id="Vector_3" d="M23.5 26.4686C25.433 26.4686 27 24.9016 27 22.9686C27 21.0356 25.433 19.4686 23.5 19.4686C21.567 19.4686 20 21.0356 20 22.9686C20 24.9016 21.567 26.4686 23.5 26.4686Z" stroke="#FC2D7C" stroke-width="2" stroke-linecap="round" stroke-linejoin="round"/>
<path id="Vector_4" d="M12.5215 16.5632L20.4898 21.2066" stroke="#FC2D7C" stroke-width="2" stroke-linecap="round" stroke-linejoin="round"/>
<path id="Vector_5" d="M20.4782 8.39691L12.5215 13.0402" stroke="#FC2D7C" stroke-width="2" stroke-linecap="round" stroke-linejoin="round"/>
</g>
</g>
</svg>
