<svg width="24" height="24" viewBox="0 0 24 24" fill="none" xmlns="http://www.w3.org/2000/svg">
<g id="i-hide">
<rect width="24" height="24" rx="6" fill="#111111" fill-opacity="0.1"/>
<path id="Vector" d="M12.0015 14.4118C12.7597 14.4118 13.4037 14.1465 13.9334 13.6158C14.4631 13.085 14.728 12.4406 14.728 11.6823C14.728 10.9241 14.4626 10.2801 13.9319 9.75042C13.4012 9.2207 12.7567 8.95584 11.9985 8.95584C11.2403 8.95584 10.5963 9.2212 10.0666 9.75192C9.53686 10.2826 9.272 10.9271 9.272 11.6853C9.272 12.4436 9.53736 13.0875 10.0681 13.6173C10.5988 14.147 11.2433 14.4118 12.0015 14.4118ZM12 13.4905C11.4982 13.4905 11.0716 13.3148 10.7203 12.9635C10.369 12.6122 10.1934 12.1857 10.1934 11.6838C10.1934 11.182 10.369 10.7554 10.7203 10.4041C11.0716 10.0529 11.4982 9.87722 12 9.87722C12.5018 9.87722 12.9284 10.0529 13.2797 10.4041C13.631 10.7554 13.8066 11.182 13.8066 11.6838C13.8066 12.1857 13.631 12.6122 13.2797 12.9635C12.9284 13.3148 12.5018 13.4905 12 13.4905ZM12.0008 16.3677C10.4622 16.3677 9.06022 15.9432 7.79491 15.0943C6.52961 14.2456 5.59797 13.1087 5 11.6838C5.59797 10.2589 6.52927 9.12211 7.79391 8.27334C9.05866 7.42445 10.4604 7 11.9992 7C13.5378 7 14.9398 7.42445 16.2051 8.27334C17.4704 9.12211 18.402 10.2589 19 11.6838C18.402 13.1087 17.4707 14.2456 16.2061 15.0943C14.9413 15.9432 13.5396 16.3677 12.0008 16.3677ZM12 15.364C13.2602 15.364 14.4172 15.0322 15.4711 14.3687C16.5249 13.7051 17.3307 12.8102 17.8883 11.6838C17.3307 10.5575 16.5249 9.66254 15.4711 8.999C14.4172 8.33545 13.2602 8.00368 12 8.00368C10.7398 8.00368 9.5828 8.33545 8.52894 8.999C7.47508 9.66254 6.66934 10.5575 6.11174 11.6838C6.66934 12.8102 7.47508 13.7051 8.52894 14.3687C9.5828 15.0322 10.7398 15.364 12 15.364Z" fill="white"/>
</g>
</svg>
