<svg width="600" height="40" viewBox="0 0 600 40" fill="none" xmlns="http://www.w3.org/2000/svg">
<line y1="21.5" x2="600" y2="21.5" stroke="#DDDDDD"/>
<rect x="279" width="39" height="40" rx="19.5" fill="#DDDDDD"/>
<path d="M294.223 26.182C291.647 26.182 289.841 24.124 289.841 20.834C289.841 17.544 291.647 15.542 294.223 15.542C296.799 15.542 298.605 17.544 298.605 20.834C298.605 24.124 296.799 26.182 294.223 26.182ZM294.223 25.048C296.057 25.048 297.275 23.396 297.275 20.834C297.275 18.258 296.057 16.676 294.223 16.676C292.375 16.676 291.171 18.258 291.171 20.834C291.171 23.396 292.375 25.048 294.223 25.048ZM300.47 26V15.724H303.69C305.776 15.724 307.274 16.48 307.274 18.622C307.274 20.218 306.35 21.17 304.95 21.506L307.582 26H306.112L303.62 21.646H301.772V26H300.47ZM301.772 20.596H303.494C305.104 20.596 305.986 19.952 305.986 18.622C305.986 17.264 305.104 16.788 303.494 16.788H301.772V20.596Z" fill="#747474"/>
</svg>
