<svg xmlns="http://www.w3.org/2000/svg" width="31" height="31" viewBox="0 0 31 31" fill="none">
<g clip-path="url(#clip0_3_846)">
<path d="M25.6305 1.1686C25.6305 1.1686 25.443 1.03735 25.3118 1.03735H19.0868C18.993 1.03735 18.8993 1.03735 18.8243 1.0936C18.7493 1.14985 18.6743 1.22485 18.6555 1.29985C18.618 1.37485 18.618 1.4686 18.618 1.56235C18.618 1.6561 18.6743 1.7311 18.7493 1.78735L20.9243 3.96235C20.9243 3.96235 20.9805 4.0561 20.9805 4.1311C20.9805 4.2061 20.9618 4.2436 20.9243 4.29985L16.9868 8.2561C16.9868 8.2561 16.893 8.31235 16.8368 8.31235C16.7805 8.31235 16.7243 8.2936 16.6868 8.2561C15.093 7.11235 13.1242 6.62485 11.1742 6.8686C9.22424 7.11235 7.44299 8.08735 6.16799 9.58735C4.91174 11.0686 4.25549 12.9811 4.33049 14.9499C4.40549 16.9186 5.23049 18.7749 6.61799 20.1624C7.76174 21.3061 9.22424 22.0374 10.7992 22.2999H10.6867C10.6867 22.2999 10.7992 22.3561 10.8367 22.3936C10.8742 22.4311 10.893 22.4874 10.893 22.5624V25.2436C10.893 25.2436 10.8742 25.3749 10.818 25.4311C10.7617 25.4874 10.7055 25.5061 10.6305 25.5061H9.11174C8.77424 25.5061 8.45549 25.6374 8.21174 25.8811C7.96799 26.1249 7.83674 26.4436 7.83674 26.7811C7.83674 27.1186 7.96799 27.4374 8.21174 27.6811C8.45549 27.9249 8.77424 28.0561 9.11174 28.0561H10.6305C10.6305 28.0561 10.7617 28.0749 10.818 28.1311C10.8742 28.1874 10.893 28.2436 10.893 28.3186V29.8374C10.893 30.1749 11.0242 30.4936 11.268 30.7374C11.5117 30.9811 11.8305 31.1124 12.168 31.1124C12.5055 31.1124 12.8242 30.9811 13.068 30.7374C13.3117 30.4936 13.443 30.1749 13.443 29.8374V28.3186C13.443 28.3186 13.4617 28.1874 13.518 28.1311C13.5742 28.0749 13.6305 28.0561 13.7055 28.0561H15.2243C15.5618 28.0561 15.8805 27.9249 16.1243 27.6811C16.368 27.4374 16.4993 27.1186 16.4993 26.7811C16.4993 26.4436 16.368 26.1249 16.1243 25.8811C15.8805 25.6374 15.5618 25.5061 15.2243 25.5061H13.7055C13.7055 25.5061 13.5742 25.4874 13.518 25.4311C13.4617 25.3749 13.443 25.3186 13.443 25.2436V22.5624C13.443 22.5624 13.4617 22.4499 13.4992 22.3936C13.5367 22.3561 13.593 22.3186 13.6492 22.2999H13.5742C14.9055 22.0561 16.1805 21.4936 17.2305 20.5936C18.7305 19.3186 19.6868 17.5374 19.9493 15.5874C20.193 13.6374 19.7055 11.6686 18.5618 10.0749C18.5243 10.0374 18.5055 9.9811 18.5055 9.92485C18.5055 9.8686 18.5243 9.81235 18.5618 9.77485L22.518 5.79985C22.518 5.79985 22.6118 5.7436 22.6868 5.7436C22.7618 5.7436 22.7993 5.76235 22.8555 5.79985L25.0305 7.97485C25.0305 7.97485 25.1618 8.08735 25.2555 8.1061C25.3493 8.1061 25.4243 8.1061 25.518 8.08735C25.593 8.0686 25.668 8.01235 25.7243 7.93735C25.7805 7.86235 25.818 7.78735 25.818 7.6936V1.48735C25.818 1.37485 25.7618 1.26235 25.6868 1.1686H25.6305ZM16.1243 18.5499C15.0743 19.5999 13.668 20.1811 12.1867 20.1811C11.0805 20.1811 10.0117 19.8624 9.09299 19.2436C8.17424 18.6249 7.46174 17.7624 7.04924 16.7499C6.63674 15.7374 6.52424 14.6124 6.73049 13.5436C6.93674 12.4561 7.48049 11.4811 8.24924 10.6936C9.01799 9.92485 10.0117 9.3811 11.0992 9.17485C12.1867 8.9686 13.293 9.06235 14.3055 9.4936C15.318 9.92485 16.1993 10.6186 16.7993 11.5374C17.418 12.4561 17.7368 13.5249 17.7368 14.6311C17.7368 16.1124 17.1555 17.5186 16.1055 18.5686L16.1243 18.5499Z" fill="#45455880"/>
</g>
<defs>
<clipPath id="clip0_3_846">
<rect width="30" height="30" fill="white" transform="translate(0.105957 0.840576)"/>
</clipPath>
</defs>
</svg>