<svg width="385" height="356" viewBox="0 0 385 356" fill="none" xmlns="http://www.w3.org/2000/svg">
<g clip-path="url(#clip0_4303_23523)">
<path d="M194.68 355.83L384.93 245.99V237.75L194.68 347.59V355.83Z" fill="#3E4854"/>
<path d="M0 243.43L194.68 355.83V347.59L0 235.19V243.43Z" fill="#38414D"/>
<path d="M194.68 347.59L384.93 237.75L190.25 125.35L0 235.19L194.68 347.59Z" fill="#8F969B"/>
<path d="M379.91 115.29L384.93 112.39V237.75L379.91 240.64V115.29Z" fill="#BABABA"/>
<path d="M379.91 115.29V240.64L187.76 129.71V4.34998L379.91 115.29Z" fill="#9C9C9C"/>
<path d="M5.08 112.78L0 109.85V235.21L5.08 238.14V112.78Z" fill="#9C9C9C"/>
<path d="M5.08008 112.78V238.14L190.33 131.18V5.81995L5.08008 112.78Z" fill="#BABABA"/>
<path d="M0 109.85L190.27 0L384.93 112.39L379.91 115.29L190.32 5.83L5.08 112.78L0 109.85Z" fill="#CFCFCF"/>
</g>
<defs>
<clipPath id="clip0_4303_23523">
<rect width="384.93" height="355.83" fill="white"/>
</clipPath>
</defs>
</svg>
