<svg xmlns="http://www.w3.org/2000/svg" width="24" height="24" viewBox="0 0 24 24" fill="none">
  <path d="M13 20.5C11.8692 20.5 10.7999 20.2901 9.79226 19.8703C8.78459 19.4503 7.88851 18.8692 7.10401 18.127L8.18276 17.0577C8.82893 17.6616 9.55743 18.1363 10.3683 18.4818C11.1791 18.8273 12.0563 19 13 19C14.9397 19 16.5913 18.3183 17.9548 16.9548C19.3183 15.5913 20 13.9397 20 12C20 10.0667 19.3167 8.41667 17.95 7.05C16.5833 5.68333 14.9333 5 13 5C11.0667 5 9.41668 5.68333 8.05001 7.05C6.68334 8.41667 6.00001 10.0667 6.00001 12V12.7808L7.98851 10.7923L9.05776 11.8365L5.25001 15.6442L1.44226 11.8365L2.51151 10.7923L4.50001 12.8058V12C4.50001 10.82 4.72309 9.71475 5.16926 8.68425C5.61543 7.65375 6.22184 6.75517 6.98851 5.9885C7.75518 5.22183 8.65368 4.61542 9.68401 4.16925C10.7145 3.72308 11.8197 3.5 12.9995 3.5C14.1793 3.5 15.2846 3.72308 16.3153 4.16925C17.3461 4.61542 18.2448 5.22183 19.0115 5.9885C19.7782 6.75517 20.3846 7.65367 20.8308 8.684C21.2769 9.71433 21.5 10.8194 21.5 11.9993C21.5 14.3588 20.6736 16.3654 19.0208 18.0193C17.3681 19.6731 15.3612 20.5 13 20.5ZM11 15.8845C10.733 15.8845 10.5092 15.7942 10.3285 15.6137C10.148 15.4331 10.0578 15.2093 10.0578 14.9423V11.9423C10.0578 11.6753 10.1536 11.4515 10.3453 11.271C10.5369 11.0903 10.7744 11 11.0578 11V9.94225C11.0578 9.40808 11.2479 8.95083 11.6283 8.5705C12.0086 8.19017 12.4658 8 13 8C13.5342 8 13.9914 8.19017 14.3718 8.5705C14.7521 8.95083 14.9423 9.40808 14.9423 9.94225V11C15.2256 11 15.4631 11.0903 15.6548 11.271C15.8464 11.4515 15.9423 11.6753 15.9423 11.9423V14.9423C15.9423 15.2093 15.852 15.4331 15.6715 15.6137C15.4908 15.7942 15.267 15.8845 15 15.8845H11ZM11.9423 11H14.0578V9.946C14.0578 9.64733 13.9555 9.39575 13.751 9.19125C13.5465 8.98675 13.2962 8.8845 13 8.8845C12.7038 8.8845 12.4535 8.98675 12.249 9.19125C12.0445 9.39575 11.9423 9.64733 11.9423 9.946V11Z" fill="#FC2D7C"/>
</svg>