<svg width="19" height="19" viewBox="0 0 19 19" fill="none" xmlns="http://www.w3.org/2000/svg">
<g id="pen 1">
<path id="Vector" d="M4.25 14.75H5.19613L12.8735 7.07262L11.9274 6.1265L4.25 13.8039V14.75ZM3.125 15.875V13.3366L13.0179 3.44806C13.1313 3.34506 13.2564 3.2655 13.3934 3.20938C13.5306 3.15313 13.6743 3.125 13.8247 3.125C13.9751 3.125 14.1207 3.15169 14.2616 3.20506C14.4026 3.25844 14.5274 3.34331 14.636 3.45969L15.5519 4.38706C15.6683 4.49569 15.7513 4.62069 15.8007 4.76206C15.8503 4.90344 15.875 5.04481 15.875 5.18619C15.875 5.33706 15.8493 5.481 15.7978 5.618C15.7463 5.75513 15.6643 5.88038 15.5519 5.99375L5.66338 15.875H3.125ZM12.3922 6.60781L11.9274 6.1265L12.8735 7.07262L12.3922 6.60781Z" fill="white"/>
</g>
</svg>
