<svg width="24" height="24" viewBox="0 0 24 24" fill="none" xmlns="http://www.w3.org/2000/svg">
<g id="Icon/Solid/plus">
<path id="Icon" fill-rule="evenodd" clip-rule="evenodd" d="M12 3.6001C12.6627 3.6001 13.2 4.13736 13.2 4.8001V10.8001H19.2C19.8627 10.8001 20.4 11.3374 20.4 12.0001C20.4 12.6628 19.8627 13.2001 19.2 13.2001H13.2V19.2001C13.2 19.8628 12.6627 20.4001 12 20.4001C11.3373 20.4001 10.8 19.8628 10.8 19.2001V13.2001H4.8C4.13726 13.2001 3.6 12.6628 3.6 12.0001C3.6 11.3374 4.13726 10.8001 4.8 10.8001L10.8 10.8001V4.8001C10.8 4.13736 11.3373 3.6001 12 3.6001Z" fill="white"/>
</g>
</svg>
