<svg width="44" height="44" viewBox="0 0 44 44" fill="none" xmlns="http://www.w3.org/2000/svg">
<g clip-path="url(#clip0_1776_4802)">
<rect width="44" height="44" rx="22" fill="#E7E0EC"/>
<path fill-rule="evenodd" clip-rule="evenodd" d="M28.7518 17.6838C29.6493 16.2921 30.1304 14.6548 30.1343 12.9787C30.1369 11.8634 29.928 10.7586 29.5198 9.72753C29.1115 8.69643 28.5119 7.75926 27.7552 6.96973C26.9984 6.1802 26.0995 5.5538 25.1098 5.1264C24.1202 4.699 23.0592 4.479 21.9877 4.479C20.3773 4.47901 18.803 4.97579 17.4638 5.9066C16.1245 6.8374 15.0804 8.16045 14.4632 9.70862C13.846 11.2568 13.6835 12.9606 13.9963 14.6049C14.309 16.2491 15.0829 17.76 16.2203 18.9466C17.3576 20.1333 18.8074 20.9424 20.3864 21.2719C21.9653 21.6014 23.6027 21.4364 25.0916 20.7978C26.5806 20.1591 27.8543 19.0755 28.7518 17.6838ZM16.1996 26.7617C18.0344 25.9699 20.0012 25.5624 21.9875 25.5624C23.9754 25.5597 25.9443 25.9652 27.7813 26.7558C29.6184 27.5463 31.2876 28.7064 32.6933 30.1694C34.0989 31.6325 35.2135 33.3698 35.973 35.2819C36.7326 37.194 37.1222 39.2433 37.1196 41.3123C37.1196 42.3987 36.705 43.4406 35.9669 44.2088C35.2288 44.977 34.2278 45.4085 33.1841 45.4085H10.8105C9.76678 45.4085 8.76576 44.977 8.0277 44.2088C7.28965 43.4406 6.87501 42.3987 6.87501 41.3123C6.87243 39.245 7.2614 37.1974 8.01971 35.2866C8.77803 33.3759 9.8908 31.6394 11.2944 30.1767C12.698 28.7139 14.3648 27.5534 16.1996 26.7617Z" fill="#AEA9B4"/>
</g>
<rect x="0.25" y="0.25" width="43.5" height="43.5" rx="21.75" stroke="#CAC4D0" stroke-width="0.5"/>
<defs>
<clipPath id="clip0_1776_4802">
<rect width="44" height="44" rx="22" fill="white"/>
</clipPath>
</defs>
</svg>
