<svg width="238" height="238" viewBox="0 0 238 238" fill="none" xmlns="http://www.w3.org/2000/svg">
<g clip-path="url(#clip0_425_3664)">
<g clip-path="url(#clip1_425_3664)">
<rect width="238" height="238" rx="119" fill="#E7E0EC"/>
<path fill-rule="evenodd" clip-rule="evenodd" d="M159.056 113.725C164.371 105.807 167.22 96.491 167.243 86.9544C167.258 80.6092 166.022 74.3233 163.604 68.4567C161.186 62.5901 157.635 57.258 153.154 52.7659C148.673 48.2737 143.35 44.7098 137.489 42.278C131.628 39.8463 125.345 38.5946 119 38.5946C109.463 38.5946 100.14 41.4212 92.2095 46.7171C84.2785 52.013 78.095 59.5406 74.4402 68.3491C70.7854 77.1577 69.8232 86.8517 71.6753 96.2068C73.5273 105.562 78.1104 114.158 84.8457 120.91C91.5809 127.661 100.166 132.265 109.517 134.14C118.867 136.014 128.564 135.076 137.381 131.442C146.198 127.809 153.741 121.643 159.056 113.725ZM84.7161 144.905C95.0571 140.543 106.142 138.297 117.336 138.297C128.54 138.283 139.637 140.517 149.991 144.873C160.345 149.229 169.752 155.621 177.675 163.682C185.597 171.743 191.879 181.316 196.16 191.851C200.44 202.387 202.636 213.678 202.622 225.079C202.622 231.065 200.285 236.805 196.125 241.038C191.965 245.271 186.323 247.649 180.441 247.649H54.343C48.4603 247.649 42.8185 245.271 38.6588 241.038C34.4991 236.805 32.1622 231.065 32.1622 225.079C32.1477 213.688 34.3399 202.406 38.6138 191.877C42.8877 181.349 49.1593 171.782 57.0699 163.722C64.9806 155.662 74.375 149.268 84.7161 144.905Z" fill="#AEA9B4"/>
</g>
<rect x="0.5" y="0.5" width="237" height="237" rx="118.5" stroke="#CAC4D0"/>
</g>
<defs>
<clipPath id="clip0_425_3664">
<rect width="238" height="238" fill="white"/>
</clipPath>
<clipPath id="clip1_425_3664">
<rect width="238" height="238" rx="119" fill="white"/>
</clipPath>
</defs>
</svg>
