<svg width="238" height="238" viewBox="0 0 238 238" fill="none" xmlns="http://www.w3.org/2000/svg">
<g clip-path="url(#clip0_492_13503)">
<rect width="238" height="238" rx="119" fill="#E7E0EC"/>
<path fill-rule="evenodd" clip-rule="evenodd" d="M155.521 95.6544C160.376 88.1266 162.978 79.2701 162.999 70.2037C163.013 64.1713 161.883 58.1954 159.675 52.618C157.467 47.0407 154.223 41.9715 150.13 37.7008C146.037 33.4302 141.175 30.0419 135.821 27.7301C130.468 25.4182 124.729 24.2283 118.933 24.2283C110.223 24.2283 101.707 26.9155 94.4632 31.9502C87.219 36.985 81.571 44.1416 78.2327 52.5158C74.8944 60.89 74.0155 70.1061 75.7072 78.9999C77.3988 87.8937 81.585 96.0662 87.737 102.485C93.8891 108.904 101.731 113.28 110.272 115.063C118.813 116.845 127.669 115.952 135.723 112.498C143.777 109.044 150.666 103.182 155.521 95.6544ZM87.6253 144.757C97.5499 140.474 108.188 138.27 118.932 138.27C129.685 138.256 140.335 140.449 150.272 144.725C160.209 149.002 169.237 155.276 176.841 163.19C184.444 171.104 190.473 180.501 194.581 190.844C198.69 201.186 200.797 212.271 200.783 223.463C200.783 229.339 198.54 234.975 194.548 239.13C190.556 243.285 185.141 245.62 179.496 245.62H58.4752C52.8294 245.62 47.4148 243.285 43.4226 239.13C39.4304 234.975 37.1876 229.339 37.1876 223.463C37.1736 212.281 39.2776 201.205 43.3794 190.869C47.4812 180.534 53.5003 171.142 61.0923 163.229C68.6844 155.317 77.7006 149.04 87.6253 144.757Z" fill="#AEA9B4"/>
</g>
<rect x="0.25" y="0.25" width="237.5" height="237.5" rx="118.75" stroke="#CAC4D0" stroke-width="0.5"/>
<defs>
<clipPath id="clip0_492_13503">
<rect width="238" height="238" rx="119" fill="white"/>
</clipPath>
</defs>
</svg>
