<svg width="24" height="24" viewBox="0 0 24 24" fill="none" xmlns="http://www.w3.org/2000/svg">
<g clip-path="url(#clip0_36_701)">
<rect width="24" height="24" rx="12" fill="white"/>
<path fill-rule="evenodd" clip-rule="evenodd" d="M16.1026 11.2244C16.647 10.4134 16.9388 9.45929 16.9411 8.48253C16.9427 7.83264 16.816 7.18883 16.5684 6.58796C16.3208 5.98709 15.9571 5.44097 15.4981 4.98087C15.0391 4.52078 14.4939 4.15575 13.8936 3.90668C13.2933 3.65762 12.6498 3.52942 11.9999 3.52942C11.0232 3.52942 10.0683 3.81892 9.25601 4.36134C8.4437 4.90376 7.81038 5.67476 7.43605 6.57694C7.06171 7.47913 6.96317 8.47202 7.15286 9.43019C7.34255 10.3884 7.81195 11.2688 8.50179 11.9603C9.19164 12.6518 10.071 13.1234 11.0287 13.3154C11.9864 13.5074 12.9795 13.4112 13.8826 13.0391C14.7857 12.6669 15.5582 12.0354 16.1026 11.2244ZM8.48183 14.8002C9.59523 14.3496 10.7887 14.1177 11.994 14.1177C13.2003 14.1161 14.395 14.3469 15.5098 14.7968C16.6246 15.2467 17.6375 15.9068 18.4904 16.7394C19.3434 17.572 20.0198 18.5607 20.4807 19.6489C20.9416 20.737 21.178 21.9032 21.1764 23.0807C21.1764 23.6989 20.9248 24.2918 20.4769 24.729C20.0291 25.1662 19.4216 25.4118 18.7883 25.4118H5.21164C4.57827 25.4118 3.97083 25.1662 3.52297 24.729C3.0751 24.2918 2.82349 23.6989 2.82349 23.0807C2.82192 21.9042 3.05796 20.7389 3.51812 19.6516C3.97828 18.5642 4.65353 17.576 5.50524 16.7436C6.35696 15.9111 7.36844 15.2507 8.48183 14.8002Z" fill="#FC4F91"/>
</g>
<rect x="0.5" y="0.5" width="23" height="23" rx="11.5" stroke="#CAC4D0"/>
<defs>
<clipPath id="clip0_36_701">
<rect width="24" height="24" rx="12" fill="white"/>
</clipPath>
</defs>
</svg>
