<svg xmlns="http://www.w3.org/2000/svg" width="38" height="40" viewBox="0 0 38 40" fill="none">
  <g clip-path="url(#clip0_2450_58372)">
    <path d="M36.8954 37.9278C36.5959 37.483 36.5959 37.0167 36.0424 36.529C35.4865 36.0414 34.3555 34.6212 34.3555 34.6212L34.6119 34.2406C34.6119 34.2406 31.9498 31.8071 30.9267 30.6272C29.9011 29.4449 29.2757 29.3331 28.6216 29.0215C27.9675 28.7098 27.8812 28.9644 27.6248 28.5409C27.3684 28.1175 27.3109 27.863 26.8557 27.3825C26.4004 26.9019 25.6888 25.9123 25.5474 25.5745C25.406 25.2344 25.291 24.9822 25.291 24.9822L26.3716 24.642C26.3716 24.642 25.4108 22.4178 24.9196 21.6971C24.4284 20.9763 23.3262 19.6988 23.3262 19.6988L23.4412 18.8805C23.4412 18.8805 23.8677 18.4285 23.8677 17.9195C24.9771 17.1844 27.3109 14.9816 27.6967 13.4544C28.0801 11.9296 26.2878 11.166 25.9044 10.6141C25.521 10.0622 25.521 9.38423 24.8789 9.00362C24.2367 8.62301 24.323 8.74909 23.7695 8.0283C23.2136 7.30752 21.9772 6.67237 21.2511 6.46065L20.5251 6.24894L20.3119 5.19036L19.7991 5.37353V4.55521C19.7991 4.55521 20.5251 1.80053 19.7991 1.46036C19.4565 0.570674 17.8774 -0.257158 16.7464 0.0830147C15.6155 0.423187 14.1419 0.506446 14.0149 0.506446C14.3767 0.972697 14.4845 0.994106 14.4845 0.994106C14.1011 1.01552 14.0149 0.908468 14.0149 0.908468C14.3575 1.3319 14.9973 1.3319 14.463 1.35331C13.9286 1.37472 13.7369 1.31049 13.7369 1.31049C14.0987 1.65066 14.3336 1.77674 14.3336 1.77674C14.1419 2.49753 13.8855 3.13267 14.0556 3.45144C14.2257 3.7702 14.5037 3.64174 14.2473 4.06517C13.9909 4.48861 13.6914 4.69318 13.7345 4.86446C13.7777 5.03336 14.1323 5.11899 14.1323 5.11899C14.1754 5.37353 14.1754 5.58525 14.1754 5.68516C14.2904 5.82551 14.9302 5.85405 15.0859 6.10859C15.2417 6.36312 14.6307 6.4892 14.6738 6.57484C14.7169 6.66048 14.7744 6.63193 14.9158 6.70092C15.0572 6.77228 15.0428 6.99827 15.1003 7.26708C15.1578 7.53588 15.7257 7.45025 15.939 7.39315C16.1522 7.33606 16.181 7.56205 16.181 7.56205C16.181 7.56205 15.3279 8.11394 14.8439 8.5231C14.3599 8.93226 13.7345 9.41278 13.2218 9.31525C12.709 9.21534 11.7841 9.6126 11.1731 9.6126C10.5621 9.6126 5.59493 9.58406 5.4248 9.6126C5.25468 9.64115 5.19717 9.89568 5.19717 9.89568C5.19717 9.89568 3.07661 9.68397 2.53509 9.89568C1.99356 10.1074 1.88095 10.193 1.50955 10.193C1.13815 10.193 0.220439 10.1621 0.0718797 10.4476C-0.0766795 10.733 0.0287496 12.1532 0.189289 12.4387C0.349829 12.7241 0.936878 12.6504 0.936878 12.6504C1.07585 12.9358 1.34182 12.9786 1.57664 12.874C1.81146 12.7669 1.82104 12.6623 2.27151 12.3982C2.71959 12.1342 2.63333 11.6988 2.93284 11.6037C3.23236 11.5085 4.7467 11.8154 4.7467 11.8154C4.7467 11.8154 5.13008 13.5948 5.56857 13.7018C6.00706 13.8089 6.59411 13.7018 6.59411 13.7018C6.59411 13.7018 9.11961 13.4782 10.0613 13.4996C11.003 13.521 13.2649 13.4568 13.2649 13.4568C13.2649 13.4568 13.6914 15.4479 14.2257 16.4018C14.7601 17.3557 15.038 17.546 14.8032 18.331C14.5684 19.116 14.9949 19.4538 14.9949 19.4538C14.9949 19.4538 12.0908 21.2332 11.6643 21.8707C11.2378 22.5059 9.99899 22.9103 9.29453 23.3551C8.59007 23.7999 8.54694 24.0973 8.54694 24.0973L8.99502 24.7967C8.99502 24.7967 7.44473 25.7791 7.32971 26.5689C7.2147 27.361 6.93196 28.9049 7.27221 30.6343C7.61246 32.3637 7.66996 36.0081 7.66996 36.0081L9.51976 36.2055C9.51976 36.2055 9.56289 37.3497 9.50539 37.6328C9.44788 37.9159 8.43912 38.1704 7.79696 38.5939C7.15719 39.0173 6.54379 38.934 6.03342 39.0887C5.52065 39.2433 5.40803 39.4978 5.7339 39.6953C6.06217 39.8927 6.74506 39.7524 7.24345 39.7809C7.74185 39.8094 11.0293 39.7405 11.6978 39.8047C12.3664 39.8665 12.6659 39.3717 12.5509 38.934C12.4358 38.4963 12.3663 37.7898 12.352 37.1404C12.3376 36.491 12.3232 36.2365 12.3232 36.2365L12.6778 36.1794C12.6778 36.1794 12.6203 34.0384 12.3855 32.9156C12.1507 31.7928 12.0021 31.474 12.4502 31.474C12.8983 31.474 12.9845 31.2409 13.0061 30.8817C13.0277 30.5225 13.4326 30.5629 13.6459 30.3512C13.8591 30.1395 13.5812 30.0539 13.8591 29.6947C14.1371 29.3355 14.1371 29.5044 14.9062 29.207C15.6754 28.9097 18.5771 27.4276 18.5771 27.4276C18.5771 27.4276 19.9644 28.4101 20.6473 29.4259C21.3302 30.444 22.2983 31.0649 23.0099 31.7999C23.7215 32.535 25.2862 33.3533 25.8277 33.948C26.3693 34.5403 30.7805 37.7898 30.8668 37.8184C30.953 37.8469 32.6878 36.2935 32.6878 36.2935C32.6878 36.2935 34.1399 37.1119 34.31 37.4806C34.4801 37.8469 34.1686 38.356 33.5408 38.6676C32.913 38.9792 32.7429 39.091 32.2589 39.2338C31.7749 39.3741 31.576 39.543 32.1175 39.8118C32.6591 40.0806 33.0928 39.8118 33.0928 39.8118C33.5193 40.0378 33.7109 39.9308 33.7109 39.9308C34.0536 40.0806 34.9066 39.9807 35.7165 39.9569C36.5264 39.9331 37.8299 39.976 37.9784 39.4241C38.127 38.8722 37.1877 38.3845 36.8906 37.9397L36.8954 37.9278Z" fill="white"/>
  </g>
  <defs>
    <clipPath id="clip0_2450_58372">
      <rect width="38" height="40" fill="white"/>
    </clipPath>
  </defs>
</svg>