<svg xmlns="http://www.w3.org/2000/svg" width="21" height="21" viewBox="0 0 21 21" fill="none">
  <g clip-path="url(#clip0_3_855)">
    <path d="M16.9091 8.78564C17.0374 8.91286 17.2112 8.98368 17.392 8.98262C17.5703 8.98185 17.7413 8.9112 17.8681 8.78564L20.0785 6.58458C20.2072 6.45705 20.2797 6.28342 20.2797 6.1022C20.2797 5.92098 20.2072 5.74736 20.0785 5.61983L17.8681 3.3848C17.6929 3.23497 17.4538 3.18402 17.2327 3.24938C17.0117 3.31459 16.8387 3.4873 16.7735 3.70808C16.7081 3.92887 16.7591 4.16771 16.9091 4.34271L17.9564 5.38887H15.4264C14.8542 5.39585 14.3115 5.64225 13.9302 6.06822L10.4138 9.82495L6.89745 6.06822C6.51609 5.64225 5.97337 5.39585 5.40116 5.38887H1.91218C1.66912 5.38887 1.4446 5.51837 1.32314 5.72854C1.20169 5.93872 1.20169 6.19772 1.32314 6.40789C1.4446 6.61806 1.66913 6.74757 1.91218 6.74757H5.40116C5.58972 6.74818 5.76947 6.82688 5.89773 6.96503L9.48874 10.8237L5.89773 14.6823C5.76946 14.8205 5.5897 14.8991 5.40116 14.8997H1.91218C1.66912 14.8997 1.4446 15.0292 1.32314 15.2394C1.20169 15.4496 1.20169 15.7086 1.32314 15.9188C1.4446 16.129 1.66913 16.2585 1.91218 16.2585H5.40116C5.97337 16.2514 6.51611 16.0051 6.89745 15.5791L10.4138 11.795L13.9302 15.5791C14.3115 16.0051 14.8542 16.2514 15.4264 16.2585H17.9566L16.9092 17.3046C16.7825 17.432 16.7113 17.6041 16.7113 17.7836C16.7113 17.9631 16.7824 18.1353 16.9091 18.2626C17.0374 18.3897 17.2112 18.4606 17.3921 18.4595C17.5704 18.4588 17.7413 18.3881 17.8681 18.2626L20.0785 16.0614C20.2073 15.9339 20.2797 15.7603 20.2797 15.5791C20.2797 15.3979 20.2073 15.2243 20.0785 15.0968L17.8681 12.8956C17.6929 12.7458 17.4538 12.6949 17.2327 12.7603C17.0117 12.8254 16.8388 12.9982 16.7735 13.219C16.7081 13.4397 16.7591 13.6786 16.9091 13.8535L17.9564 14.8997H15.4264C15.2379 14.8991 15.0582 14.8204 14.9299 14.6823L11.3389 10.8237L14.9299 6.96502C15.0582 6.82687 15.2379 6.74817 15.4264 6.74756H17.9566L16.9092 7.79372C16.7718 7.92216 16.6938 8.1017 16.6938 8.28972C16.6938 8.47761 16.7717 8.65721 16.9091 8.78564Z" fill="#F5EEFA"/>
  </g>
  <defs>
    <clipPath id="clip0_3_855">
      <rect width="20" height="20" fill="white" transform="translate(0.755859 0.840576)"/>
    </clipPath>
  </defs>
</svg>