<svg width="21" height="20" viewBox="0 0 21 20" fill="none" xmlns="http://www.w3.org/2000/svg">
<g id="SVG" clip-path="url(#clip0_50_469)">
<path id="Vector" d="M16.6532 7.94506C16.7815 8.07229 16.9553 8.14311 17.1361 8.14204C17.3145 8.14128 17.4854 8.07062 17.6122 7.94506L19.8227 5.744C19.9513 5.61647 20.0238 5.44284 20.0238 5.26162C20.0238 5.0804 19.9513 4.90678 19.8227 4.77925L17.6122 2.54422C17.4371 2.3944 17.1979 2.34345 16.9769 2.4088C16.7558 2.47401 16.5829 2.64673 16.5176 2.8675C16.4522 3.08829 16.5032 3.32713 16.6532 3.50214L17.7006 4.5483H15.1706C14.5984 4.55527 14.0556 4.80168 13.6743 5.22764L10.1579 8.98437L6.64159 5.22764C6.26023 4.80167 5.71751 4.55528 5.1453 4.5483H1.65632C1.41326 4.5483 1.18874 4.67779 1.06728 4.88796C0.945833 5.09815 0.945833 5.35715 1.06728 5.56732C1.18874 5.77749 1.41327 5.90699 1.65632 5.90699H5.1453C5.33386 5.9076 5.51361 5.98631 5.64187 6.12445L9.23288 9.98309L5.64187 13.8417C5.5136 13.9799 5.33384 14.0586 5.1453 14.0591H1.65632C1.41326 14.0591 1.18874 14.1887 1.06728 14.3989C0.945833 14.609 0.945833 14.868 1.06728 15.0782C1.18874 15.2884 1.41327 15.4179 1.65632 15.4179H5.1453C5.71751 15.4109 6.26025 15.1645 6.64159 14.7385L10.1579 10.9545L13.6743 14.7385C14.0556 15.1645 14.5984 15.4109 15.1706 15.4179H17.7008L16.6533 16.464C16.5267 16.5914 16.4554 16.7635 16.4554 16.9431C16.4554 17.1225 16.5266 17.2948 16.6532 17.422C16.7815 17.5491 16.9553 17.62 17.1362 17.619C17.3146 17.6182 17.4854 17.5475 17.6122 17.422L19.8227 15.2209C19.9514 15.0933 20.0238 14.9197 20.0238 14.7385C20.0238 14.5573 19.9514 14.3837 19.8227 14.2562L17.6122 12.055C17.4371 11.9052 17.1979 11.8543 16.9769 11.9197C16.7558 11.9849 16.583 12.1576 16.5176 12.3784C16.4522 12.5991 16.5032 12.838 16.6532 13.013L17.7006 14.0591H15.1706C14.982 14.0586 14.8023 13.9798 14.674 13.8417L11.0831 9.98308L14.674 6.12444C14.8023 5.9863 14.982 5.90759 15.1706 5.90698H17.7008L16.6533 6.95315C16.5159 7.08158 16.4379 7.26113 16.4379 7.44915C16.4379 7.63703 16.5158 7.81663 16.6532 7.94506Z" fill="#F3F0EF"/>
</g>
<defs>
<clipPath id="clip0_50_469">
<rect width="20" height="20" fill="white" transform="translate(0.5)"/>
</clipPath>
</defs>
</svg>
