<svg xmlns="http://www.w3.org/2000/svg" width="28" height="28" viewBox="0 0 28 28" fill="none">
  <path fill-rule="evenodd" clip-rule="evenodd" d="M5.57675 24.5V26H22.4233V24.5H14.75V18.8694C16.0712 18.6326 17.2275 18.0801 18.2188 17.2119C19.21 16.3436 19.8923 15.2673 20.2655 13.9828C21.852 13.7963 23.2044 13.1458 24.3226 12.0312C25.4409 10.9167 26 9.573 26 8V6.5C26 6.098 25.8505 5.7475 25.5515 5.4485C25.2525 5.1495 24.902 5 24.5 5H20.5194V2H7.48063V5H3.5C3.098 5 2.7475 5.1495 2.4485 5.4485C2.1495 5.7475 2 6.098 2 6.5V8C2 9.573 2.55912 10.9167 3.67737 12.0312C4.79562 13.1458 6.148 13.7963 7.7345 13.9828C8.10775 15.2673 8.79 16.3436 9.78125 17.2119C10.7725 18.0801 11.9288 18.6326 13.25 18.8694V24.5H5.57675ZM7.48063 6.5V12.3733C6.34988 12.2405 5.40375 11.764 4.64225 10.9438C3.88075 10.1235 3.5 9.14225 3.5 8V6.5H7.48063ZM17.5194 15.9616C16.5576 16.9231 15.3845 17.4039 14 17.4039C12.6155 17.4039 11.4424 16.9231 10.4806 15.9616C9.51912 15.0001 9.03838 13.827 9.03838 12.4423V3.5H18.9616V12.4423C18.9616 13.827 18.4809 15.0001 17.5194 15.9616ZM23.3577 10.9438C22.5963 11.764 21.6501 12.2405 20.5194 12.3733V6.5H24.5V8C24.5 9.14225 24.1192 10.1235 23.3577 10.9438ZM14.6735 9.07295L14 7L13.3265 9.07295H11.1468L12.9102 10.3541L12.2366 12.4271L14 11.1459L15.7634 12.4271L15.0898 10.3541L16.8532 9.07295H14.6735Z" fill="#DDDDDD"/>
</svg>