<svg width="15" height="24" viewBox="0 0 15 24" fill="none" xmlns="http://www.w3.org/2000/svg">
<path id="Dictation" fill-rule="evenodd" clip-rule="evenodd" d="M0.833339 9.91852C1.29358 9.91852 1.66667 10.2767 1.66667 10.7186C1.66667 10.7452 1.66532 10.7715 1.66267 10.7975V13.0006H1.65834V13.007C1.65834 13.022 1.65943 13.037 1.66052 13.0521C1.66151 13.0658 1.66251 13.0796 1.66267 13.0934V13.3942H1.67834C1.92604 16.2397 4.35142 18.4574 7.32367 18.5563H7.66034C10.6335 18.4591 13.0603 16.2406 13.307 13.3942H13.327V10.7283L13.3334 10.7283L13.3333 10.7186C13.3333 10.2767 13.7064 9.91852 14.1667 9.91852C14.6269 9.91852 15 10.2767 15 10.7186C15 10.7416 14.999 10.7644 14.997 10.787V12.7509H14.987H14.9867C14.9893 16.4264 12.128 19.5228 8.32667 19.9581V22.3903H11.4667V22.4006C11.4777 22.4002 11.4888 22.4 11.5 22.4C11.9602 22.4 12.3333 22.7582 12.3333 23.2001C12.3333 23.6419 11.9602 24.0001 11.5 24.0001C11.4888 24.0001 11.4777 23.9999 11.4667 23.9995V24.0001H3.53V23.9996C3.52005 24 3.51005 24.0001 3.5 24.0001C3.03977 24.0001 2.66667 23.6419 2.66667 23.2001C2.66667 22.7582 3.03977 22.4 3.5 22.4C3.51005 22.4 3.52005 22.4002 3.53 22.4005V22.3903H6.67667V19.9581C2.86727 19.533 -0.00463201 16.433 5.60866e-06 12.7509C5.60866e-06 12.7318 0.00168168 12.7136 0.00331799 12.6958C0.00469041 12.6809 0.00603484 12.6663 0.00633894 12.6517V10.8177C0.0021585 10.7852 5.60867e-06 10.7522 5.60867e-06 10.7186C5.60867e-06 10.2767 0.373102 9.91852 0.833339 9.91852ZM11.9933 11.4035C11.9933 11.8867 11.9933 12.3956 11.9667 12.8788C11.9462 13.3146 11.8769 13.747 11.76 14.1686C11.4991 15.0534 10.9429 15.8314 10.1767 16.3832C8.60513 17.5737 6.38821 17.5737 4.81667 16.3832C4.04849 15.8331 3.49153 15.0544 3.23267 14.1686C3.11523 13.7472 3.04604 13.3147 3.02634 12.8788C2.99734 12.3956 3 11.8867 3 11.4035V7.35827C3 6.87822 3.00267 4.7564 3 4.39796C3.01318 3.95955 3.09176 3.52522 3.23334 3.10822C3.76698 1.27089 5.5103 0 7.497 0C9.48371 0 11.227 1.27089 11.7607 3.10822C11.886 3.52895 11.9642 3.9613 11.994 4.39796C12.024 4.88121 11.994 6.87822 11.994 7.35827V11.4035H11.9933ZM10.3267 12.1587C10.3267 12.4659 10.32 12.5683 10.3 12.8756C10.2885 13.1546 10.2449 13.4315 10.17 13.7012C10.0104 14.2677 9.66282 14.7688 9.18 15.1286C8.19073 15.8668 6.80595 15.8668 5.81667 15.1286C5.33198 14.7698 4.98308 14.2685 4.82334 13.7012C4.75005 13.4311 4.70648 13.1544 4.69334 12.8756C4.67667 12.5683 4.67334 12.4659 4.67334 12.1587C4.67334 7.90224 4.65334 4.74672 4.68 4.40748C4.69929 4.12839 4.7473 3.85181 4.82334 3.58179C4.98308 3.01457 5.33198 2.51321 5.81667 2.15445C6.80595 1.41623 8.19073 1.41623 9.18 2.15445C9.66282 2.51427 10.0104 3.01535 10.17 3.58179C10.2547 3.85056 10.3083 4.12746 10.33 4.40748C10.3533 4.77232 10.3267 7.88944 10.3267 12.1587Z" fill="#6E8597"/>
</svg>
