<svg xmlns="http://www.w3.org/2000/svg" width="24" height="24" viewBox="0 0 24 24" fill="none">
<path d="M11 19.9114C9.26533 19.6742 7.83167 18.9008 6.699 17.5911C5.56633 16.2816 5 14.7512 5 12.9999C5 12.0666 5.18458 11.1726 5.55375 10.3181C5.92308 9.46364 6.43083 8.7063 7.077 8.04614L7.7905 8.75939C7.1955 9.31339 6.74833 9.95572 6.449 10.6864C6.14967 11.4172 6 12.1884 6 12.9999C6 14.4666 6.46983 15.756 7.4095 16.8681C8.34933 17.9803 9.54617 18.6614 11 18.9114V19.9114ZM13 19.9499V18.9499C14.4372 18.6319 15.6298 17.9242 16.578 16.8269C17.526 15.7294 18 14.4537 18 12.9999C18 11.3332 17.4167 9.91655 16.25 8.74989C15.0833 7.58322 13.6667 6.99989 12 6.99989H11.3672L12.9673 8.59989L12.2595 9.30764L9.452 6.49989L12.2595 3.69214L12.9673 4.39989L11.3672 5.99989H12C13.9513 5.99989 15.6058 6.67872 16.9635 8.03639C18.3212 9.39406 19 11.0486 19 12.9999C19 14.7474 18.4304 16.2695 17.2913 17.5661C16.1523 18.863 14.7218 19.6576 13 19.9499Z" fill="#ffffff"/>
</svg>