<svg width="128" height="6" viewBox="0 0 128 6" fill="none" xmlns="http://www.w3.org/2000/svg">
<path id="Line 42" d="M122.333 3.00001C122.333 4.47277 123.527 5.66668 125 5.66668C126.473 5.66668 127.667 4.47277 127.667 3.00001C127.667 1.52725 126.473 0.333344 125 0.333344C123.527 0.333344 122.333 1.52725 122.333 3.00001ZM-4.37114e-08 3.5L1.00806 3.5L1.00806 2.5L4.37114e-08 2.5L-4.37114e-08 3.5ZM3.02419 3.5L5.04032 3.5L5.04032 2.5L3.02419 2.5L3.02419 3.5ZM7.05645 3.5L9.07258 3.5L9.07258 2.5L7.05645 2.5L7.05645 3.5ZM11.0887 3.5L13.1048 3.5L13.1048 2.5L11.0887 2.5L11.0887 3.5ZM15.121 3.5L17.1371 3.5L17.1371 2.5L15.121 2.5L15.121 3.5ZM19.1532 3.5L21.1694 3.5L21.1694 2.5L19.1532 2.5L19.1532 3.5ZM23.1855 3.5L25.2016 3.5L25.2016 2.5L23.1855 2.5L23.1855 3.5ZM27.2177 3.5L29.2339 3.5L29.2339 2.5L27.2177 2.5L27.2177 3.5ZM31.25 3.5L33.2661 3.5L33.2661 2.5L31.25 2.5L31.25 3.5ZM35.2823 3.5L37.2984 3.5L37.2984 2.5L35.2823 2.5L35.2823 3.5ZM39.3145 3.5L41.3306 3.5L41.3306 2.5L39.3145 2.5L39.3145 3.5ZM43.3468 3.5L45.3629 3.5L45.3629 2.5L43.3468 2.5L43.3468 3.5ZM47.379 3.5L49.3952 3.5L49.3952 2.5L47.379 2.5L47.379 3.5ZM51.4113 3.5L53.4274 3.5L53.4274 2.5L51.4113 2.5L51.4113 3.5ZM55.4435 3.5L57.4597 3.50001L57.4597 2.50001L55.4435 2.5L55.4435 3.5ZM59.4758 3.50001L61.4919 3.50001L61.4919 2.50001L59.4758 2.50001L59.4758 3.50001ZM63.5081 3.50001L65.5242 3.50001L65.5242 2.50001L63.5081 2.50001L63.5081 3.50001ZM67.5403 3.50001L69.5564 3.50001L69.5564 2.50001L67.5403 2.50001L67.5403 3.50001ZM71.5726 3.50001L73.5887 3.50001L73.5887 2.50001L71.5726 2.50001L71.5726 3.50001ZM75.6048 3.50001L77.621 3.50001L77.621 2.50001L75.6048 2.50001L75.6048 3.50001ZM79.6371 3.50001L81.6532 3.50001L81.6532 2.50001L79.6371 2.50001L79.6371 3.50001ZM83.6693 3.50001L85.6855 3.50001L85.6855 2.50001L83.6693 2.50001L83.6693 3.50001ZM87.7016 3.50001L89.7177 3.50001L89.7177 2.50001L87.7016 2.50001L87.7016 3.50001ZM91.7339 3.50001L93.75 3.50001L93.75 2.50001L91.7339 2.50001L91.7339 3.50001ZM95.7661 3.50001L97.7822 3.50001L97.7822 2.50001L95.7661 2.50001L95.7661 3.50001ZM99.7984 3.50001L101.815 3.50001L101.815 2.50001L99.7984 2.50001L99.7984 3.50001ZM103.831 3.50001L105.847 3.50001L105.847 2.50001L103.831 2.50001L103.831 3.50001ZM107.863 3.50001L109.879 3.50001L109.879 2.50001L107.863 2.50001L107.863 3.50001ZM111.895 3.50001L113.911 3.50001L113.911 2.50001L111.895 2.50001L111.895 3.50001ZM115.927 3.50001L117.944 3.50001L117.944 2.50001L115.927 2.50001L115.927 3.50001ZM119.96 3.50001L121.976 3.50001L121.976 2.50001L119.96 2.50001L119.96 3.50001ZM123.992 3.50001L125 3.50001L125 2.50001L123.992 2.50001L123.992 3.50001Z" fill="white"/>
</svg>
