<svg xmlns="http://www.w3.org/2000/svg" width="13" height="12" viewBox="0 0 13 12" fill="none">
  <g clip-path="url(#clip0_13_7601)">
    <mask id="mask0_13_7601" style="mask-type:luminance" maskUnits="userSpaceOnUse" x="0" y="0" width="13" height="12">
      <path d="M12.5 0H0.5V12H12.5V0Z" fill="white"/>
    </mask>
    <g mask="url(#mask0_13_7601)">
      <path d="M12.3535 5.64575L9.9645 3.25675C9.89457 3.18684 9.80549 3.13924 9.70852 3.11995C9.61154 3.10067 9.51102 3.11057 9.41967 3.14841C9.32832 3.18624 9.25024 3.25031 9.1953 3.33252C9.14036 3.41472 9.11102 3.51137 9.111 3.61024V5.12425C9.111 5.1574 9.09783 5.18919 9.07439 5.21263C9.05095 5.23608 9.01915 5.24925 8.986 5.24925H1.25C1.05109 5.24925 0.860322 5.32826 0.71967 5.46891C0.579018 5.60957 0.5 5.80033 0.5 5.99925C0.5 6.19816 0.579018 6.38892 0.71967 6.52958C0.860322 6.67023 1.05109 6.74925 1.25 6.74925H8.986C9.01915 6.74925 9.05095 6.76241 9.07439 6.78586C9.09783 6.8093 9.111 6.84109 9.111 6.87425V8.38824C9.11102 8.48712 9.14036 8.58377 9.1953 8.66597C9.25024 8.74818 9.32832 8.81225 9.41967 8.85008C9.51102 8.88792 9.61154 8.89782 9.70852 8.87854C9.80549 8.85925 9.89457 8.81165 9.9645 8.74174L12.3535 6.35275C12.4472 6.25898 12.4999 6.13183 12.4999 5.99925C12.4999 5.86666 12.4472 5.73951 12.3535 5.64575Z" fill="#F6F6F6"/>
    </g>
  </g>
  <defs>
    <clipPath id="clip0_13_7601">
      <rect width="12" height="12" fill="white" transform="translate(0.5)"/>
    </clipPath>
  </defs>
</svg>