<svg width="107" height="107" viewBox="0 0 107 107" fill="none" xmlns="http://www.w3.org/2000/svg">
<path fill-rule="evenodd" clip-rule="evenodd" d="M10.3038 48.4283C10.3038 27.6617 27.1902 10.8027 48.0506 10.8027C68.9111 10.8027 85.7975 27.6617 85.7975 48.4283C85.7975 58.1733 82.079 67.0578 75.9763 73.7435C75.3763 73.9876 74.8142 74.353 74.3274 74.8398C73.8533 75.3139 73.4943 75.8595 73.2504 76.442C66.57 82.4174 57.7389 86.0539 48.0506 86.0539C27.1902 86.0539 10.3038 69.195 10.3038 48.4283ZM77.9658 85.5492C69.7785 92.1216 59.3728 96.0539 48.0506 96.0539C21.6942 96.0539 0.303772 74.7446 0.303772 48.4283C0.303772 22.112 21.6942 0.802734 48.0506 0.802734C74.4071 0.802734 95.7975 22.112 95.7975 48.4283C95.7975 59.8404 91.7749 70.311 85.0692 78.5105L104.818 98.2594C106.771 100.212 106.771 103.378 104.818 105.33C102.865 107.283 99.6996 107.283 97.747 105.33L77.9658 85.5492Z" fill="#E7E0EC"/>
</svg>
