<svg xmlns="http://www.w3.org/2000/svg" width="26" height="26" viewBox="0 0 26 26" fill="none">
  <path d="M13 21L12.431 20.5098C10.7586 19.0556 9.375 17.8137 8.28017 16.7843C7.18535 15.7549 6.32328 14.8521 5.69397 14.076C5.06466 13.2998 4.625 12.6013 4.375 11.9804C4.125 11.3595 4 10.7386 4 10.1176C4 8.95752 4.4181 7.98121 5.25431 7.18873C6.09052 6.39624 7.12069 6 8.34483 6C9.25862 6 10.1121 6.23284 10.9052 6.69853C11.6983 7.16422 12.3966 8.10131 13 9C13.6034 8.10131 14.5445 7.16422 15.3376 6.69853C16.1307 6.23284 16.8509 6 17.7647 6C18.9888 6 19.9095 6.39624 20.7457 7.18873C21.5819 7.98121 22 8.95752 22 10.1176C22 10.7386 21.875 11.3595 21.625 11.9804C21.375 12.6013 20.9353 13.2998 20.306 14.076C19.6767 14.8521 18.819 15.7549 17.7328 16.7843C16.6466 17.8137 15.2586 19.0556 13.569 20.5098L13 21Z" fill="#BBBBBB"/>
  <path d="M13 21.6667L12.3836 21.1357C10.5718 19.5603 9.07292 18.215 7.88685 17.0998C6.70079 15.9846 5.76688 15.0065 5.08513 14.1657C4.40338 13.3249 3.92708 12.5682 3.65625 11.8955C3.38542 11.2228 3.25 10.5502 3.25 9.87753C3.25 8.62072 3.70295 7.56306 4.60884 6.70453C5.51473 5.84601 6.63075 5.41675 7.9569 5.41675C8.94684 5.41675 9.87141 5.66899 10.7306 6.17349C11.5898 6.67798 12.3463 7.41702 13 8.3906C13.6537 7.41702 14.4102 6.67798 15.2694 6.17349C16.1286 5.66899 17.0532 5.41675 18.0431 5.41675C19.3693 5.41675 20.4853 5.84601 21.3912 6.70453C22.2971 7.56306 22.75 8.62072 22.75 9.87753C22.75 10.5502 22.6146 11.2228 22.3438 11.8955C22.0729 12.5682 21.5966 13.3249 20.9149 14.1657C20.2331 15.0065 19.3039 15.9846 18.1272 17.0998C16.9504 18.215 15.4468 19.5603 13.6164 21.1357L13 21.6667ZM13 20.6578C14.7931 19.1177 16.2687 17.799 17.4267 16.7015C18.5848 15.604 19.5 14.6525 20.1724 13.8471C20.8448 13.0417 21.3118 12.3292 21.5733 11.7096C21.8348 11.0901 21.9655 10.4794 21.9655 9.87753C21.9655 8.81544 21.592 7.93036 20.8448 7.2223C20.0977 6.51424 19.1638 6.16021 18.0431 6.16021C17.1466 6.16021 16.32 6.40361 15.5636 6.8904C14.8071 7.37719 14.0833 8.14278 13.3922 9.18717H12.6078C11.898 8.12508 11.1695 7.35507 10.4224 6.87712C9.67529 6.39918 8.85345 6.16021 7.9569 6.16021C6.85489 6.16021 5.92565 6.51424 5.16918 7.2223C4.41272 7.93036 4.03448 8.81544 4.03448 9.87753C4.03448 10.4794 4.16523 11.0901 4.42672 11.7096C4.68822 12.3292 5.15517 13.0417 5.82759 13.8471C6.5 14.6525 7.41523 15.5996 8.57328 16.6882C9.73132 17.7768 11.2069 19.1 13 20.6578Z" fill="#333333"/>
</svg>