<svg width="24" height="24" viewBox="0 0 24 24" fill="none" xmlns="http://www.w3.org/2000/svg">
<path fill-rule="evenodd" clip-rule="evenodd" d="M16.9241 10.4381C16.9241 13.9883 14.0363 16.8761 10.4621 16.8761C6.8878 16.8761 4 13.9883 4 10.4381C4 6.88777 6.8878 4 10.4621 4C14.0363 4 16.9241 6.88777 16.9241 10.4381ZM15.6639 17.094C14.2289 18.2107 12.4234 18.8761 10.4621 18.8761C5.78859 18.8761 2 15.0983 2 10.4381C2 5.77785 5.78859 2 10.4621 2C15.1355 2 18.9241 5.77785 18.9241 10.4381C18.9241 12.4228 18.2369 14.2475 17.0869 15.6884L21.7058 20.2943C22.0969 20.6842 22.0978 21.3174 21.7078 21.7085C21.3179 22.0996 20.6847 22.1005 20.2936 21.7105L15.6639 17.094Z" fill="#9E9E9E"/>
</svg>
