<svg xmlns="http://www.w3.org/2000/svg" width="19" height="19" viewBox="0 0 19 19" fill="none">
  <path d="M2.25586 8.01428C2.25586 4.77035 4.88558 2.14062 8.12951 2.14062C11.3734 2.14062 14.0032 4.77035 14.0032 8.01428C14.0032 9.38724 13.5321 10.6502 12.7428 11.6503L17.2559 16.1634L16.2786 17.1406L11.7655 12.6275C10.7654 13.4169 9.50247 13.8879 8.12951 13.8879C4.88558 13.8879 2.25586 11.2582 2.25586 8.01428ZM8.12951 3.52266C5.64886 3.52266 3.6379 5.53363 3.6379 8.01428C3.6379 10.4949 5.64886 12.5059 8.12951 12.5059C10.6102 12.5059 12.6211 10.4949 12.6211 8.01428C12.6211 5.53363 10.6102 3.52266 8.12951 3.52266Z" fill="#8E8E8E"/>
</svg>