<svg xmlns="http://www.w3.org/2000/svg" width="28" height="28" viewBox="0 0 28 28" fill="none">
  <path fill-rule="evenodd" clip-rule="evenodd" d="M16.7949 8.11694C18.9428 10.2649 18.9428 13.7473 16.7949 15.8953C14.647 18.0432 11.1645 18.0432 9.01658 15.8953C6.86866 13.7473 6.86866 10.2649 9.01658 8.11694C11.1645 5.96902 14.647 5.96902 16.7949 8.11694ZM18.3569 16.3986C20.5776 13.6496 20.4105 9.61118 17.8556 7.05628C15.1219 4.32257 10.6896 4.32257 7.95592 7.05628C5.22221 9.78999 5.22221 14.2222 7.95592 16.9559C10.5106 19.5106 14.5487 19.6779 17.2977 17.4577C17.3066 17.4676 17.3158 17.4773 17.3253 17.4868L20.8608 21.0224C21.1537 21.3153 21.6286 21.3153 21.9215 21.0224C22.2144 20.7295 22.2144 20.2546 21.9215 19.9617L18.3859 16.4261C18.3764 16.4166 18.3668 16.4075 18.3569 16.3986Z" fill="white"/>
</svg>