<svg xmlns="http://www.w3.org/2000/svg" width="26" height="26" viewBox="0 0 26 26" fill="none">
  <mask id="path-2-inside-1_2722_61598" fill="white">
    <path fill-rule="evenodd" clip-rule="evenodd" d="M13 19C17.9706 19 22 15.866 22 12C22 8.13401 17.9706 5 13 5C8.02944 5 4 8.13401 4 12C4 14.0913 5.17913 15.9684 7.04852 17.2511C6.57656 18.4693 5.81585 19.9105 4 21C5.60962 20.8762 8.69097 20.2741 10.989 18.8246C11.6356 18.9394 12.3087 19 13 19Z"/>
  </mask>
  <path d="M7.04852 17.2511L7.79449 17.5401C7.92854 17.1941 7.80709 16.8014 7.50114 16.5915L7.04852 17.2511ZM4 21L3.5884 20.314C3.27025 20.5049 3.1251 20.8895 3.23779 21.243C3.35048 21.5965 3.69143 21.8261 4.06136 21.7976L4 21ZM10.989 18.8246L11.1288 18.0369C10.9327 18.0021 10.7307 18.0417 10.5622 18.1479L10.989 18.8246ZM21.2 12C21.2 15.2487 17.7275 18.2 13 18.2V19.8C18.2136 19.8 22.8 16.4833 22.8 12H21.2ZM13 5.8C17.7275 5.8 21.2 8.75129 21.2 12H22.8C22.8 7.51672 18.2136 4.2 13 4.2V5.8ZM4.8 12C4.8 8.75129 8.27251 5.8 13 5.8V4.2C7.78636 4.2 3.2 7.51672 3.2 12H4.8ZM7.50114 16.5915C5.79648 15.4218 4.8 13.7696 4.8 12H3.2C3.2 14.4131 4.56178 16.5151 6.5959 17.9108L7.50114 16.5915ZM4.4116 21.686C6.43823 20.47 7.28816 18.847 7.79449 17.5401L6.30255 16.9621C5.86496 18.0915 5.19347 19.351 3.5884 20.314L4.4116 21.686ZM10.5622 18.1479C8.41656 19.5013 5.47952 20.0838 3.93864 20.2024L4.06136 21.7976C5.73971 21.6685 8.96538 21.0468 11.4158 19.5012L10.5622 18.1479ZM13 18.2C12.3554 18.2 11.7291 18.1435 11.1288 18.0369L10.8492 19.6123C11.5421 19.7353 12.262 19.8 13 19.8V18.2Z" fill="#333333" mask="url(#path-2-inside-1_2722_61598)"/>
  <circle cx="10" cy="12" r="1" fill="#333333"/>
  <circle cx="13" cy="12" r="1" fill="#333333"/>
  <circle cx="16" cy="12" r="1" fill="#333333"/>
</svg>