<svg width="28" height="28" viewBox="0 0 28 28" fill="none" xmlns="http://www.w3.org/2000/svg">
<g id="Frame 610">
<path id="Union" fill-rule="evenodd" clip-rule="evenodd" d="M16.7947 8.11694C18.9426 10.2649 18.9426 13.7473 16.7947 15.8953C14.6467 18.0432 11.1643 18.0432 9.01634 15.8953C6.86842 13.7473 6.86842 10.2649 9.01634 8.11694C11.1643 5.96902 14.6467 5.96902 16.7947 8.11694ZM18.3567 16.3986C20.5773 13.6496 20.4102 9.61118 17.8553 7.05628C15.1216 4.32257 10.6894 4.32257 7.95568 7.05628C5.22197 9.78999 5.22197 14.2222 7.95568 16.9559C10.5104 19.5106 14.5485 19.6779 17.2975 17.4577C17.3063 17.4676 17.3155 17.4773 17.325 17.4868L20.8606 21.0224C21.1535 21.3153 21.6284 21.3153 21.9213 21.0224C22.2141 20.7295 22.2141 20.2546 21.9213 19.9617L18.3857 16.4261C18.3762 16.4166 18.3665 16.4075 18.3567 16.3986Z" fill="white"/>
</g>
</svg>
