<svg xmlns="http://www.w3.org/2000/svg" width="28" height="28" viewBox="0 0 28 28" fill="none">
  <path fill-rule="evenodd" clip-rule="evenodd" d="M16.7949 8.1167C18.9428 10.2646 18.9428 13.7471 16.7949 15.895C14.647 18.0429 11.1645 18.0429 9.01658 15.895C6.86866 13.7471 6.86866 10.2646 9.01658 8.1167C11.1645 5.96878 14.647 5.96878 16.7949 8.1167ZM18.3569 16.3984C20.5776 13.6494 20.4105 9.61093 17.8556 7.05604C15.1219 4.32233 10.6896 4.32233 7.95592 7.05604C5.22221 9.78975 5.22221 14.222 7.95592 16.9557C10.5106 19.5104 14.5487 19.6777 17.2977 17.4575C17.3066 17.4674 17.3158 17.477 17.3253 17.4865L20.8608 21.0221C21.1537 21.315 21.6286 21.315 21.9215 21.0221C22.2144 20.7292 22.2144 20.2544 21.9215 19.9615L18.3859 16.4259C18.3764 16.4164 18.3668 16.4072 18.3569 16.3984Z" fill="white"/>
</svg>