<svg xmlns="http://www.w3.org/2000/svg" width="27" height="27" viewBox="0 0 27 27" fill="none">
  <rect width="27" height="27" rx="13.5" fill="#111111" fill-opacity="0.15"/>
  <path fill-rule="evenodd" clip-rule="evenodd" d="M15.58 8.61077C17.5322 10.563 17.5322 13.7281 15.58 15.6802C13.6278 17.6324 10.4627 17.6324 8.51055 15.6802C6.55837 13.7281 6.55837 10.563 8.51055 8.61077C10.4627 6.65859 13.6278 6.65859 15.58 8.61077ZM17.1397 16.1816C19.166 13.6304 18.9997 9.90911 16.6407 7.55011C14.1027 5.01214 9.98786 5.01214 7.44989 7.55011C4.91192 10.0881 4.91192 14.2029 7.44989 16.7409C9.80869 19.0997 13.5296 19.2662 16.0807 17.2405C16.0902 17.2511 16.1 17.2615 16.1102 17.2717L19.3926 20.5541C19.6855 20.847 20.1604 20.847 20.4533 20.5541C20.7462 20.2612 20.7462 19.7863 20.4533 19.4934L17.1709 16.211C17.1607 16.2008 17.1503 16.191 17.1397 16.1816Z" fill="white"/>
</svg>