<svg xmlns="http://www.w3.org/2000/svg" width="27" height="27" viewBox="0 0 27 27" fill="none">
  <path fill-rule="evenodd" clip-rule="evenodd" d="M15.58 8.61089C17.5322 10.5631 17.5322 13.7282 15.58 15.6804C13.6278 17.6325 10.4627 17.6325 8.51055 15.6804C6.55837 13.7282 6.55837 10.5631 8.51055 8.61089C10.4627 6.65871 13.6278 6.65871 15.58 8.61089ZM17.1397 16.1817C19.166 13.6306 18.9997 9.90923 16.6407 7.55023C14.1027 5.01227 9.98786 5.01227 7.44989 7.55023C4.91192 10.0882 4.91192 14.2031 7.44989 16.741C9.80869 19.0998 13.5296 19.2663 16.0807 17.2406C16.0902 17.2512 16.1 17.2616 16.1102 17.2718L19.3926 20.5542C19.6855 20.8471 20.1604 20.8471 20.4533 20.5542C20.7462 20.2613 20.7462 19.7864 20.4533 19.4935L17.1709 16.2111C17.1607 16.201 17.1503 16.1911 17.1397 16.1817Z" fill="#121212"/>
</svg>