<svg xmlns="http://www.w3.org/2000/svg" width="17" height="10" viewBox="0 0 17 10" fill="none">
  <path d="M1 4.75L4.79289 8.54289C5.18342 8.93342 5.81658 8.93342 6.20711 8.54289L13 1.75" stroke="#FC2D7C" stroke-width="2" stroke-linecap="round" stroke-linejoin="round"/>
  <path d="M10.7071 8.04289L10 7.33579L8.58579 8.75L9.29289 9.45711L10.7071 8.04289ZM16.7071 4.45711C17.0976 4.06658 17.0976 3.43342 16.7071 3.04289C16.3166 2.65237 15.6834 2.65237 15.2929 3.04289L16.7071 4.45711ZM11.7071 9.45711L16.7071 4.45711L15.2929 3.04289L10.2929 8.04289L11.7071 9.45711ZM9.29289 9.45711C9.95956 10.1238 11.0404 10.1238 11.7071 9.45711L10.2929 8.04289C10.4073 7.92851 10.5927 7.92851 10.7071 8.04289L9.29289 9.45711Z" fill="#FC2D7C"/>
</svg>