<svg xmlns="http://www.w3.org/2000/svg" width="20" height="18" viewBox="0 0 20 18" fill="none">
  <path d="M2 10L5.79289 13.7929C6.18342 14.1834 6.81658 14.1834 7.20711 13.7929L14 7" stroke="#FC2D7C" stroke-width="2" stroke-linecap="round" stroke-linejoin="round"/>
  <path d="M11.7071 13.2929L11 12.5858L9.58579 14L10.2929 14.7071L11.7071 13.2929ZM17.7071 9.70711C18.0976 9.31658 18.0976 8.68342 17.7071 8.29289C17.3166 7.90237 16.6834 7.90237 16.2929 8.29289L17.7071 9.70711ZM12.7071 14.7071L17.7071 9.70711L16.2929 8.29289L11.2929 13.2929L12.7071 14.7071ZM10.2929 14.7071C10.9596 15.3738 12.0404 15.3738 12.7071 14.7071L11.2929 13.2929C11.4073 13.1785 11.5927 13.1785 11.7071 13.2929L10.2929 14.7071Z" fill="#FC2D7C"/>
</svg>