<svg width="20" height="20" viewBox="0 0 20 20" fill="none" xmlns="http://www.w3.org/2000/svg">
<g id="Frame">
<path id="Vector" d="M10 2.5H4.16667C3.72464 2.5 3.30072 2.67559 2.98816 2.98816C2.67559 3.30072 2.5 3.72464 2.5 4.16667V15.8333C2.5 16.2754 2.67559 16.6993 2.98816 17.0118C3.30072 17.3244 3.72464 17.5 4.16667 17.5H15.8333C16.2754 17.5 16.6993 17.3244 17.0118 17.0118C17.3244 16.6993 17.5 16.2754 17.5 15.8333V10" stroke="#FC2D7C" stroke-width="2" stroke-linecap="round" stroke-linejoin="round"/>
<path id="Vector_2" d="M15.3126 2.18769C15.6441 1.85617 16.0937 1.66992 16.5626 1.66992C17.0314 1.66992 17.4811 1.85617 17.8126 2.18769C18.1441 2.51921 18.3303 2.96885 18.3303 3.43769C18.3303 3.90653 18.1441 4.35617 17.8126 4.68769L10.0001 12.5002L6.66675 13.3335L7.50008 10.0002L15.3126 2.18769Z" stroke="#FC2D7C" stroke-width="2" stroke-linecap="round" stroke-linejoin="round"/>
</g>
</svg>
