<svg width="24" height="24" viewBox="0 0 24 24" fill="none" xmlns="http://www.w3.org/2000/svg">
<path fill-rule="evenodd" clip-rule="evenodd" d="M6.4443 3.6853C8.0888 2.58649 10.0222 2 12 2C14.6522 2 17.1957 3.05357 19.0711 4.92893C20.9464 6.8043 22 9.34784 22 12C22 13.9778 21.4135 15.9112 20.3147 17.5557C19.2159 19.2002 17.6541 20.4819 15.8268 21.2388C13.9996 21.9957 11.9889 22.1937 10.0491 21.8079C8.10929 21.422 6.32746 20.4696 4.92894 19.0711C3.53041 17.6726 2.578 15.8907 2.19215 13.9509C1.8063 12.0111 2.00433 10.0004 2.76121 8.17317C3.51809 6.34591 4.79981 4.78412 6.4443 3.6853ZM7.37026 18.9289C8.74067 19.8446 10.3518 20.3333 12 20.3333C13.0944 20.3333 14.178 20.1178 15.189 19.699C16.2001 19.2802 17.1187 18.6664 17.8926 17.8926C18.6664 17.1187 19.2802 16.2001 19.699 15.189C20.1178 14.178 20.3333 13.0944 20.3333 12C20.3333 10.3518 19.8446 8.74066 18.9289 7.37025C18.0132 5.99984 16.7118 4.93174 15.189 4.30101C13.6663 3.67027 11.9908 3.50525 10.3743 3.82679C8.75775 4.14833 7.27289 4.94201 6.10745 6.10745C4.94201 7.27288 4.14834 8.75774 3.82679 10.3743C3.50525 11.9908 3.67028 13.6663 4.30101 15.189C4.93174 16.7118 5.99984 18.0132 7.37026 18.9289ZM12 8.66667C12.4602 8.66667 12.8333 8.29357 12.8333 7.83333C12.8333 7.37309 12.4602 7 12 7C11.5398 7 11.1667 7.37309 11.1667 7.83333C11.1667 8.29357 11.5398 8.66667 12 8.66667ZM13.875 15.6667H12.8333V10.3333H10.75C10.5842 10.3333 10.4253 10.4036 10.3081 10.5286C10.1908 10.6536 10.125 10.8232 10.125 11C10.125 11.1768 10.1908 11.3464 10.3081 11.4714C10.4253 11.5964 10.5842 11.6667 10.75 11.6667H11.1667V15.6667H10.125C9.95923 15.6667 9.80026 15.7369 9.68305 15.8619C9.56584 15.987 9.49999 16.1565 9.49999 16.3333C9.49999 16.5101 9.56584 16.6797 9.68305 16.8047C9.80026 16.9298 9.95923 17 10.125 17H13.875C14.0408 17 14.1997 16.9298 14.3169 16.8047C14.4341 16.6797 14.5 16.5101 14.5 16.3333C14.5 16.1565 14.4341 15.987 14.3169 15.8619C14.1997 15.7369 14.0408 15.6667 13.875 15.6667Z" fill="black"/>
</svg>
