<svg width="21" height="20" viewBox="0 0 21 20" fill="none" xmlns="http://www.w3.org/2000/svg">
<g id="Frame 1502" clip-path="url(#clip0_470_89053)">
<g id="Group 90">
<path id="Union" fill-rule="evenodd" clip-rule="evenodd" d="M19.4011 1.08231C19.4248 1.11187 19.4468 1.14265 19.4669 1.17447C19.5729 1.34215 19.6237 1.5317 19.6216 1.71965C19.6202 1.84458 19.5955 1.96881 19.5481 2.08545L12.9366 19.2753C12.8046 19.6187 12.4945 19.8618 12.1295 19.9083C11.7645 19.9547 11.4034 19.7969 11.1896 19.4975L6.87422 13.456L0.833012 9.14086C0.533587 8.92699 0.375808 8.56595 0.422243 8.20093C0.46868 7.8359 0.711829 7.52587 1.05527 7.39378L18.248 0.781174C18.2896 0.764443 18.3321 0.750586 18.3753 0.73963C18.4961 0.70885 18.6193 0.701514 18.739 0.715719C18.9945 0.746026 19.2342 0.874385 19.4011 1.08231ZM7.48305 11.4331L3.50754 8.59342L14.5824 4.33385L7.48305 11.4331ZM8.89738 12.8475L11.737 16.823L15.9966 5.74813L8.89738 12.8475Z" fill="#FC2D7C"/>
</g>
</g>
<defs>
<clipPath id="clip0_470_89053">
<rect width="21" height="20" fill="white"/>
</clipPath>
</defs>
</svg>
