<svg width="24" height="24" viewBox="0 0 24 24" fill="none" xmlns="http://www.w3.org/2000/svg">
<path d="M6.84718 14C6.31118 14 5.85218 13.804 5.47017 13.412C5.08815 13.02 4.89747 12.5493 4.89812 12C4.89812 11.45 5.08912 10.979 5.47114 10.587C5.85316 10.195 6.31183 9.99933 6.84718 10C7.38317 10 7.84217 10.196 8.22419 10.588C8.6062 10.98 8.79688 11.4507 8.79623 12C8.79623 12.55 8.60523 13.021 8.22321 13.413C7.8412 13.805 7.38252 14.0007 6.84718 14ZM6.84718 18C5.22296 18 3.84238 17.4167 2.70543 16.25C1.56848 15.0833 1 13.6667 1 12C1 10.3333 1.56848 8.91667 2.70543 7.75C3.84238 6.58333 5.22296 6 6.84718 6C7.9354 6 8.92227 6.275 9.8078 6.825C10.6933 7.375 11.3956 8.1 11.9147 9H20.0764C20.2064 9 20.3324 9.025 20.4545 9.075C20.5767 9.125 20.6861 9.2 20.7829 9.3L22.732 11.3C22.8295 11.4 22.8983 11.5083 22.9386 11.625C22.9789 11.7417 22.9994 11.8667 23 12C23 12.1333 22.9795 12.2583 22.9386 12.375C22.8977 12.4917 22.8288 12.6 22.732 12.7L19.6379 15.875C19.5567 15.9583 19.4592 16.025 19.3455 16.075C19.2318 16.125 19.1181 16.1583 19.0044 16.175C18.8907 16.1917 18.777 16.1833 18.6633 16.15C18.5496 16.1167 18.4441 16.0583 18.3466 15.975L17.0797 15L15.691 16.075C15.6098 16.1417 15.5205 16.1917 15.423 16.225C15.3256 16.2583 15.2281 16.275 15.1307 16.275C15.0332 16.275 14.9315 16.2583 14.8256 16.225C14.7197 16.1917 14.6265 16.1417 14.546 16.075L13.0598 15H11.9147C11.395 15.9 10.6923 16.625 9.80682 17.175C8.9213 17.725 7.93475 18 6.84718 18ZM6.84718 16C7.75674 16 8.55683 15.7167 9.24744 15.15C9.93806 14.5833 10.3967 13.8667 10.6235 13L13.6689 13L15.0819 14.025L17.0797 12.5L18.8095 13.875L20.6368 12L19.6622 11L10.6235 11C10.3961 10.1333 9.93708 9.41667 9.24647 8.85C8.55585 8.28333 7.75609 8 6.84718 8C5.77519 8 4.85751 8.39167 4.09413 9.175C3.33075 9.95833 2.94906 10.9 2.94906 12C2.94906 13.1 3.33075 14.0417 4.09413 14.825C4.85751 15.6083 5.77519 16 6.84718 16Z" fill="black"/>
</svg>
