<svg width="24" height="24" viewBox="0 0 24 24" fill="none" xmlns="http://www.w3.org/2000/svg">
<path d="M9.94014 2.21327C11.3247 1.92024 12.7259 1.93211 14.0599 2.21411C13.9291 3.32403 14.2967 4.29282 15.0615 4.60961C15.8263 4.92639 16.7713 4.50127 17.4637 3.62403C18.6063 4.36786 19.6055 5.35027 20.3774 6.53649C19.4997 7.22896 19.0742 8.1742 19.3911 8.93918C19.708 9.70416 20.6772 10.0717 21.7874 9.94075C22.0805 11.3253 22.0686 12.7265 21.7866 14.0605C20.6767 13.9298 19.7079 14.2973 19.3911 15.0621C19.0743 15.8269 19.4994 16.7719 20.3767 17.4643C19.6329 18.6069 18.6504 19.6061 17.4642 20.3779C16.7718 19.5002 15.8265 19.0748 15.0615 19.3917C14.2966 19.7086 13.9289 20.6778 14.06 21.788C12.6754 22.0811 11.2742 22.0692 9.94024 21.7872C10.0709 20.6773 9.70334 19.7085 8.93864 19.3917C8.17384 19.0749 7.22884 19.5 6.53644 20.3773C5.39384 19.6335 4.39464 18.651 3.62274 17.4648C4.50044 16.7724 4.92594 15.8271 4.60904 15.0621C4.29214 14.2971 3.32294 13.9296 2.21274 14.0606C1.91964 12.676 1.93154 11.2748 2.21354 9.94085C3.32344 10.0716 4.29224 9.70397 4.60904 8.93918C4.92584 8.17439 4.50074 7.22943 3.62344 6.53701C4.36724 5.39437 5.34964 4.39518 6.53594 3.62336C7.22834 4.50106 8.17364 4.92647 8.93864 4.60961C9.70354 4.29274 10.0711 3.32354 9.94014 2.21327ZM11.7898 4.00071C11.4854 5.10052 10.7885 6.00813 9.70394 6.45737C8.61944 6.9066 7.48484 6.75762 6.49194 6.19517C6.39024 6.29173 6.29104 6.39094 6.19464 6.49268C6.75704 7.48556 6.90594 8.62008 6.45674 9.70454C6.00754 10.789 5.10004 11.4859 4.00034 11.7904C3.99654 11.9305 3.99644 12.0707 4.00014 12.2109C5.09994 12.5153 6.00754 13.2122 6.45674 14.2968C6.90604 15.3813 6.75704 16.5159 6.19454 17.5088C6.29114 17.6105 6.39034 17.7096 6.49214 17.806C7.48494 17.2437 8.61954 17.0947 9.70394 17.5439C10.7884 17.9931 11.4853 18.9007 11.7897 20.0004C11.9298 20.0042 12.0701 20.0043 12.2103 20.0006C12.5146 18.9008 13.2116 17.9932 14.2962 17.5439C15.3807 17.0947 16.5153 17.2437 17.5082 17.8061C17.6099 17.7096 17.709 17.6104 17.8055 17.5086C17.2431 16.5158 17.0941 15.3812 17.5433 14.2968C17.9925 13.2123 18.9001 12.5154 19.9998 12.211C20.0036 12.0709 20.0037 11.9306 20 11.7904C18.9002 11.486 17.9926 10.7891 17.5433 9.70454C17.0941 8.62 17.2431 7.48541 17.8055 6.4925C17.709 6.39077 17.6098 6.29167 17.508 6.19526C16.5152 6.75764 15.3806 6.90657 14.2962 6.45737C13.2117 6.00817 12.5147 5.10063 12.2103 4.0009C12.0702 3.99713 11.93 3.99706 11.7898 4.00071ZM9.00004 12.0007C9.00004 10.3438 10.3432 9.00064 12 9.00064C13.6569 9.00064 15.0001 10.3438 15.0001 12.0007C15.0001 13.6575 13.6569 15.0007 12 15.0007C10.3432 15.0007 9.00004 13.6575 9.00004 12.0007ZM11 12.0007C11 12.5529 11.4477 13.0007 12 13.0007C12.5523 13.0007 13 12.5529 13 12.0007C13 11.4484 12.5523 11.0007 12 11.0007C11.4477 11.0007 11 11.4484 11 12.0007Z" fill="#EBE9E7"/>
</svg>
