<svg width="24" height="24" viewBox="0 0 24 24" fill="none" xmlns="http://www.w3.org/2000/svg">
<g id="settingNotificationBlack">
<path id="Vector" d="M12 22C13.1 22 14 21.0769 14 19.9487H10C10 21.0769 10.9 22 12 22ZM18 15.8462V10.7179C18 7.56923 16.37 4.93333 13.5 4.2359V3.53846C13.5 2.68718 12.83 2 12 2C11.17 2 10.5 2.68718 10.5 3.53846V4.2359C7.64 4.93333 6 7.55897 6 10.7179V15.8462L4 17.8974V18.9231H20V17.8974L18 15.8462ZM16 16.8718H8V10.7179C8 8.17436 9.51 6.10256 12 6.10256C14.49 6.10256 16 8.17436 16 10.7179V16.8718Z" fill="#212121"/>
</g>
</svg>
