<svg width="24" height="24" viewBox="0 0 24 24" fill="none" xmlns="http://www.w3.org/2000/svg">
<g id="setteing" clip-path="url(#clip0_1539_4228)">
<g id="Vector" filter="url(#filter0_d_1539_4228)">
<path d="M12.0001 7.1311C11.3607 7.1311 10.7276 7.25704 10.1368 7.50173C9.54608 7.74642 9.00933 8.10507 8.5572 8.5572C8.10507 9.00933 7.74642 9.54608 7.50173 10.1368C7.25704 10.7276 7.1311 11.3607 7.1311 12.0001C7.1311 12.6395 7.25704 13.2727 7.50173 13.8634C7.74642 14.4541 8.10507 14.9909 8.5572 15.443C9.00933 15.8951 9.54608 16.2538 10.1368 16.4985C10.7276 16.7432 11.3607 16.8691 12.0001 16.8691C13.2914 16.8691 14.5299 16.3561 15.443 15.443C16.3561 14.5299 16.8691 13.2914 16.8691 12.0001C16.8691 10.7088 16.3561 9.47031 15.443 8.5572C14.5299 7.64409 13.2914 7.1311 12.0001 7.1311ZM8.6311 12.0001C8.6311 11.1066 8.98605 10.2497 9.61786 9.61786C10.2497 8.98605 11.1066 8.6311 12.0001 8.6311C12.8936 8.6311 13.7505 8.98605 14.3823 9.61786C15.0142 10.2497 15.3691 11.1066 15.3691 12.0001C15.3691 12.8936 15.0142 13.7505 14.3823 14.3823C13.7505 15.0142 12.8936 15.3691 12.0001 15.3691C11.1066 15.3691 10.2497 15.0142 9.61786 14.3823C8.98605 13.7505 8.6311 12.8936 8.6311 12.0001Z" fill="white"/>
</g>
<g id="Vector_2" filter="url(#filter1_d_1539_4228)">
<path d="M14.694 2.01448C13.9035 -0.670518 10.0965 -0.670518 9.30598 2.01448L9.16498 2.49298C9.10978 2.68041 9.01333 2.85311 8.88271 2.99842C8.75209 3.14373 8.5906 3.25797 8.41009 3.33276C8.22959 3.40755 8.03463 3.441 7.83951 3.43066C7.6444 3.42032 7.45407 3.36644 7.28248 3.27298L6.84448 3.03298C4.38448 1.69498 1.69498 4.38598 3.03448 6.84448L3.27298 7.28248C3.36644 7.45407 3.42032 7.6444 3.43066 7.83951C3.441 8.03463 3.40755 8.22959 3.33276 8.41009C3.25797 8.5906 3.14373 8.75209 2.99842 8.88271C2.85311 9.01333 2.68041 9.10978 2.49298 9.16498L2.01448 9.30598C-0.670518 10.0965 -0.670518 13.9035 2.01448 14.694L2.49298 14.835C2.68041 14.8902 2.85311 14.9866 2.99842 15.1173C3.14373 15.2479 3.25797 15.4094 3.33276 15.5899C3.40755 15.7704 3.441 15.9653 3.43066 16.1604C3.42032 16.3556 3.36644 16.5459 3.27298 16.7175L3.03298 17.1555C1.69498 19.6155 4.38448 22.3065 6.84448 20.9655L7.28248 20.727C7.45407 20.6335 7.6444 20.5796 7.83951 20.5693C8.03463 20.559 8.22959 20.5924 8.41009 20.6672C8.5906 20.742 8.75209 20.8562 8.88271 21.0015C9.01333 21.1469 9.10978 21.3196 9.16498 21.507L9.30598 21.9855C10.0965 24.6705 13.9035 24.6705 14.694 21.9855L14.835 21.507C14.8902 21.3196 14.9866 21.1469 15.1173 21.0015C15.2479 20.8562 15.4094 20.742 15.5899 20.6672C15.7704 20.5924 15.9653 20.559 16.1604 20.5693C16.3556 20.5796 16.5459 20.6335 16.7175 20.727L17.1555 20.967C19.6155 22.3065 22.3065 19.614 20.9655 17.1555L20.727 16.7175C20.6335 16.5459 20.5796 16.3556 20.5693 16.1604C20.559 15.9653 20.5924 15.7704 20.6672 15.5899C20.742 15.4094 20.8562 15.2479 21.0015 15.1173C21.1469 14.9866 21.3196 14.8902 21.507 14.835L21.9855 14.694C24.6705 13.9035 24.6705 10.0965 21.9855 9.30598L21.507 9.16498C21.3196 9.10978 21.1469 9.01333 21.0015 8.88271C20.8562 8.75209 20.742 8.5906 20.6672 8.41009C20.5924 8.22959 20.559 8.03463 20.5693 7.83951C20.5796 7.6444 20.6335 7.45407 20.727 7.28248L20.967 6.84448C22.3065 4.38448 19.614 1.69498 17.1555 3.03448L16.7175 3.27298C16.5459 3.36644 16.3556 3.42032 16.1604 3.43066C15.9653 3.441 15.7704 3.40755 15.5899 3.33276C15.4094 3.25797 15.2479 3.14373 15.1173 2.99842C14.9866 2.85311 14.8902 2.68041 14.835 2.49298L14.694 2.01448ZM10.7445 2.43898C11.1135 1.18648 12.8865 1.18648 13.2555 2.43898L13.3965 2.91748C13.515 3.31961 13.722 3.69011 14.0024 4.00183C14.2827 4.31355 14.6293 4.55858 15.0166 4.71895C15.4039 4.87933 15.8223 4.95098 16.2409 4.92867C16.6595 4.90635 17.0679 4.79063 17.436 4.58998L17.8725 4.34998C19.0185 3.72748 20.2725 4.97998 19.6485 6.12748L19.41 6.56548C19.2096 6.93362 19.0942 7.34192 19.0721 7.76047C19.0501 8.17901 19.1219 8.59719 19.2824 8.98436C19.4429 9.37153 19.688 9.71789 19.9997 9.99805C20.3115 10.2782 20.6819 10.4851 21.084 10.6035L21.561 10.7445C22.8135 11.1135 22.8135 12.8865 21.561 13.2555L21.0825 13.3965C20.6804 13.515 20.3099 13.722 19.9981 14.0024C19.6864 14.2827 19.4414 14.6293 19.281 15.0166C19.1206 15.4039 19.049 15.8223 19.0713 16.2409C19.0936 16.6595 19.2093 17.0679 19.41 17.436L19.65 17.8725C20.2725 19.0185 19.02 20.2725 17.8725 19.6485L17.436 19.41C17.0678 19.2094 16.6593 19.0937 16.2406 19.0715C15.8219 19.0492 15.4035 19.121 15.0162 19.2816C14.6288 19.4421 14.2823 19.6873 14.002 19.9992C13.7217 20.3111 13.5148 20.6817 13.3965 21.084L13.2555 21.561C12.8865 22.8135 11.1135 22.8135 10.7445 21.561L10.6035 21.0825C10.4849 20.6806 10.2779 20.3103 9.99768 19.9987C9.71745 19.6871 9.37107 19.4422 8.98392 19.2819C8.59676 19.1215 8.17865 19.0498 7.76019 19.072C7.34172 19.0941 6.93352 19.2096 6.56548 19.41L6.12748 19.65C4.98148 20.2725 3.72748 19.02 4.35148 17.8725L4.58998 17.436C4.79091 17.0678 4.90686 16.6594 4.92932 16.2405C4.95179 15.8217 4.88019 15.4032 4.7198 15.0156C4.5594 14.6281 4.31427 14.2814 4.0024 14.001C3.69053 13.7205 3.31982 13.5135 2.91748 13.395L2.43898 13.254C1.18648 12.885 1.18648 11.112 2.43898 10.743L2.91748 10.602C3.31919 10.4833 3.68929 10.2764 4.0007 9.99626C4.3121 9.71614 4.55693 9.36992 4.71726 8.98297C4.8776 8.59601 4.94938 8.17809 4.92736 7.75981C4.90533 7.34153 4.79006 6.93347 4.58998 6.56548L4.34998 6.12748C3.72748 4.98148 4.97998 3.72748 6.12748 4.35148L6.56548 4.58998C6.93352 4.79035 7.34172 4.90584 7.76019 4.92801C8.17865 4.95018 8.59676 4.87846 8.98392 4.71811C9.37107 4.55775 9.71745 4.31282 9.99768 4.00126C10.2779 3.6897 10.4849 3.3194 10.6035 2.91748L10.7445 2.43898Z" fill="white"/>
</g>
</g>
<defs>
<filter id="filter0_d_1539_4228" x="6.1311" y="6.1311" width="11.738" height="11.738" filterUnits="userSpaceOnUse" color-interpolation-filters="sRGB">
<feFlood flood-opacity="0" result="BackgroundImageFix"/>
<feColorMatrix in="SourceAlpha" type="matrix" values="0 0 0 0 0 0 0 0 0 0 0 0 0 0 0 0 0 0 127 0" result="hardAlpha"/>
<feOffset/>
<feGaussianBlur stdDeviation="0.5"/>
<feComposite in2="hardAlpha" operator="out"/>
<feColorMatrix type="matrix" values="0 0 0 0 0 0 0 0 0 0 0 0 0 0 0 0 0 0 0.45 0"/>
<feBlend mode="normal" in2="BackgroundImageFix" result="effect1_dropShadow_1539_4228"/>
<feBlend mode="normal" in="SourceGraphic" in2="effect1_dropShadow_1539_4228" result="shape"/>
</filter>
<filter id="filter1_d_1539_4228" x="-0.999268" y="-0.999268" width="25.9985" height="25.9985" filterUnits="userSpaceOnUse" color-interpolation-filters="sRGB">
<feFlood flood-opacity="0" result="BackgroundImageFix"/>
<feColorMatrix in="SourceAlpha" type="matrix" values="0 0 0 0 0 0 0 0 0 0 0 0 0 0 0 0 0 0 127 0" result="hardAlpha"/>
<feOffset/>
<feGaussianBlur stdDeviation="0.5"/>
<feComposite in2="hardAlpha" operator="out"/>
<feColorMatrix type="matrix" values="0 0 0 0 0 0 0 0 0 0 0 0 0 0 0 0 0 0 0.45 0"/>
<feBlend mode="normal" in2="BackgroundImageFix" result="effect1_dropShadow_1539_4228"/>
<feBlend mode="normal" in="SourceGraphic" in2="effect1_dropShadow_1539_4228" result="shape"/>
</filter>
<clipPath id="clip0_1539_4228">
<rect width="24" height="24" fill="white"/>
</clipPath>
</defs>
</svg>
