<svg width="20" height="15" viewBox="0 0 20 15" fill="none" xmlns="http://www.w3.org/2000/svg">
<path d="M19.8525 6.74033L12.8447 0.141441C12.773 0.0740229 12.6818 0.0280763 12.5824 0.00937936C12.4831 -0.00931756 12.3801 6.98273e-05 12.2864 0.0363649C12.1927 0.07266 12.1125 0.134241 12.0559 0.213354C11.9993 0.292468 11.9688 0.385579 11.9683 0.480976V3.16933C10.4401 3.10245 6.23657 3.18771 3.21229 5.80918C0.948955 7.77217 -0.129639 10.7082 0.0124041 14.5372C0.0170246 14.6385 0.0553881 14.736 0.12207 14.8157C0.188753 14.8954 0.280368 14.9533 0.383951 14.9813C0.487534 15.0092 0.597832 15.0058 0.699231 14.9715C0.80063 14.9371 0.888001 14.8736 0.948955 14.79C4.2979 9.77998 8.67549 10.4539 11.9659 10.8574V13.6788C11.966 13.7743 11.9962 13.8678 12.0526 13.9472C12.109 14.0267 12.1892 14.0886 12.283 14.1251C12.3768 14.1617 12.48 14.1713 12.5795 14.1527C12.6791 14.134 12.7705 14.088 12.8424 14.0205L19.8501 7.42161C19.9457 7.33123 19.9996 7.20898 20 7.08142C20.0004 6.95387 19.9474 6.8313 19.8525 6.74033Z" fill="white"/>
</svg>
