<svg width="17" height="17" viewBox="0 0 17 17" fill="none" xmlns="http://www.w3.org/2000/svg">
<path id="Vector" d="M13.9993 1.50017C13.6016 1.50017 13.2201 1.65819 12.9388 1.93945C12.6576 2.22072 12.4996 2.60219 12.4996 2.99996C12.4996 3.39773 12.6576 3.77921 12.9388 4.06048C13.2201 4.34174 13.6016 4.49975 13.9993 4.49975C14.3971 4.49975 14.7786 4.34174 15.0599 4.06048C15.3411 3.77921 15.4991 3.39773 15.4991 2.99996C15.4991 2.60219 15.3411 2.22072 15.0599 1.93945C14.7786 1.65819 14.3971 1.50017 13.9993 1.50017ZM11.4997 2.99996C11.4996 2.41348 11.7058 1.84564 12.0821 1.3958C12.4584 0.945958 12.9809 0.642758 13.5582 0.539246C14.1355 0.435734 14.7307 0.538502 15.2399 0.82957C15.7491 1.12064 16.1397 1.58147 16.3434 2.13144C16.5471 2.68142 16.5509 3.2855 16.3542 3.83802C16.1575 4.39053 15.7728 4.85629 15.2674 5.1538C14.762 5.45132 14.168 5.56164 13.5895 5.46547C13.0109 5.3693 12.4846 5.07276 12.1026 4.62774L5.38556 7.7473C5.53991 8.23668 5.53991 8.76171 5.38556 9.25109L12.1026 12.3706C12.5064 11.901 13.0701 11.5981 13.6846 11.5204C14.299 11.4428 14.9204 11.596 15.4283 11.9504C15.9362 12.3048 16.2945 12.8351 16.4337 13.4386C16.5729 14.0421 16.483 14.6758 16.1816 15.2168C15.8802 15.7579 15.3887 16.1678 14.8023 16.367C14.2159 16.5663 13.5764 16.5408 13.0078 16.2955C12.4391 16.0502 11.9818 15.6025 11.7244 15.0391C11.467 14.4758 11.4279 13.837 11.6147 13.2465L4.89763 10.127C4.56511 10.5145 4.12188 10.7909 3.62758 10.9189C3.13328 11.047 2.61161 11.0206 2.13275 10.8433C1.65389 10.6661 1.24081 10.3464 0.949086 9.92728C0.657359 9.50819 0.500977 9.00982 0.500977 8.49919C0.500977 7.98857 0.657359 7.49019 0.949086 7.07111C1.24081 6.65202 1.65389 6.33233 2.13275 6.15504C2.61161 5.97775 3.13328 5.95137 3.62758 6.07945C4.12188 6.20752 4.56511 6.4839 4.89763 6.87142L11.6147 3.75186C11.5382 3.50856 11.4994 3.25499 11.4997 2.99996ZM3.00089 6.9994C2.60312 6.9994 2.22165 7.15742 1.94038 7.43868C1.65911 7.71995 1.5011 8.10142 1.5011 8.49919C1.5011 8.89696 1.65911 9.27844 1.94038 9.5597C2.22165 9.84097 2.60312 9.99898 3.00089 9.99898C3.39866 9.99898 3.78014 9.84097 4.0614 9.5597C4.34267 9.27844 4.50068 8.89696 4.50068 8.49919C4.50068 8.10142 4.34267 7.71995 4.0614 7.43868C3.78014 7.15742 3.39866 6.9994 3.00089 6.9994ZM13.9993 12.4986C13.6016 12.4986 13.2201 12.6566 12.9388 12.9379C12.6576 13.2192 12.4996 13.6007 12.4996 13.9984C12.4996 14.3962 12.6576 14.7777 12.9388 15.0589C13.2201 15.3402 13.6016 15.4982 13.9993 15.4982C14.3971 15.4982 14.7786 15.3402 15.0599 15.0589C15.3411 14.7777 15.4991 14.3962 15.4991 13.9984C15.4991 13.6007 15.3411 13.2192 15.0599 12.9379C14.7786 12.6566 14.3971 12.4986 13.9993 12.4986Z" fill="white"/>
</svg>
