<svg width="24" height="24" viewBox="0 0 24 24" fill="none" xmlns="http://www.w3.org/2000/svg">
<g clip-path="url(#clip0_992_5768)">
<path d="M15.0343 19.9999C14.7943 19.9999 14.5543 19.9519 14.32 19.8559C13.68 19.5894 13.2686 18.9922 13.2686 18.3311V16.5344C8.61144 16.689 4.73715 17.782 3.00572 19.4721C2.48001 19.9839 1.66287 20.1225 0.982866 19.8079C0.285723 19.4881 -0.102849 18.7843 0.0171513 18.0645C0.994294 12.1412 6.36572 7.91325 13.2743 7.49206V5.66866C13.2743 5.00755 13.6857 4.41042 14.3257 4.14384C14.96 3.87726 15.6743 3.98389 16.1943 4.42108L23.3886 10.3498C23.7772 10.675 24 11.1335 24 11.6027C24 12.0719 23.7886 12.509 23.4229 12.8289L16.24 19.536C16.24 19.536 16.2114 19.5627 16.1943 19.5787C15.8629 19.8559 15.4514 19.9999 15.0343 19.9999ZM14.4057 14.3858C15.0343 14.3858 15.5486 14.8603 15.5486 15.4521V17.1635L21.4743 11.6293L15.56 6.74031V8.52105C15.56 9.10752 15.0457 9.58736 14.4172 9.58736C8.69144 9.58736 4.04572 12.5784 2.61144 17.0089C5.21144 15.3401 9.46287 14.3751 14.4114 14.3751L14.4057 14.3858Z" fill="black"/>
</g>
<defs>
<clipPath id="clip0_992_5768">
<rect width="24" height="16" fill="white" transform="translate(0 4)"/>
</clipPath>
</defs>
</svg>
