<svg xmlns="http://www.w3.org/2000/svg" width="28" height="28" viewBox="0 0 28 28" fill="none">
  <path d="M18.8001 10.8C20.1256 10.8 21.2002 9.72549 21.2002 8.4C21.2002 7.07452 20.1256 6 18.8001 6C17.4747 6 16.4001 7.07452 16.4001 8.4C16.4001 9.72549 17.4747 10.8 18.8001 10.8Z" stroke="white" stroke-linecap="round" stroke-linejoin="round"/>
  <path d="M9.20005 16.4C10.5255 16.4 11.6001 15.3255 11.6001 14C11.6001 12.6745 10.5255 11.6 9.20005 11.6C7.87457 11.6 6.80005 12.6745 6.80005 14C6.80005 15.3255 7.87457 16.4 9.20005 16.4Z" stroke="white" stroke-linecap="round" stroke-linejoin="round"/>
  <path d="M18.8001 22C20.1256 22 21.2002 20.9255 21.2002 19.6C21.2002 18.2745 20.1256 17.2 18.8001 17.2C17.4747 17.2 16.4001 18.2745 16.4001 19.6C16.4001 20.9255 17.4747 22 18.8001 22Z" stroke="white" stroke-linecap="round" stroke-linejoin="round"/>
  <path d="M11.272 15.208L16.736 18.392" stroke="white" stroke-linecap="round" stroke-linejoin="round"/>
  <path d="M16.728 9.60797L11.272 12.792" stroke="white" stroke-linecap="round" stroke-linejoin="round"/>
</svg>