<svg xmlns="http://www.w3.org/2000/svg" width="27" height="34" viewBox="0 0 27 34" fill="none">
  <g clip-path="url(#clip0_2450_58348)">
    <path d="M26.129 23.3746C26.0394 22.9095 25.785 22.4904 25.4984 22.1119C25.3067 21.8591 25.0935 21.6132 24.8194 21.4488C24.4629 21.2348 24.0276 21.1729 23.6119 21.2118C23.1963 21.2507 22.795 21.3816 22.4044 21.5284C21.6592 21.8078 20.939 22.1491 20.2528 22.5505C19.461 23.0138 18.6817 23.5691 17.777 23.7194C17.596 22.5169 17.4276 21.3162 17.2592 20.1136C17.6569 19.2329 17.9687 18.3187 18.2625 17.3991C18.567 16.4441 18.8555 15.4804 18.9988 14.49C19.1439 13.4997 19.1403 12.4776 18.8716 11.512C18.705 10.916 18.1245 10.5394 17.6068 10.2405C16.9995 9.89036 16.299 9.84438 15.6343 9.63217C14.9858 9.42527 14.28 9.50308 13.6744 9.13525C13.6117 9.09811 13.5436 9.0539 13.4738 9.02384C13.5992 8.90358 13.7067 8.76211 13.798 8.61533C13.979 8.32177 14.1116 8.00169 14.2405 7.68337C14.6365 6.71251 14.9554 5.72042 15.2868 4.7248C15.3674 4.48252 15.448 4.24025 15.4856 3.98913C15.5233 3.73802 15.5143 3.47452 15.4211 3.23755C15.3692 3.10492 15.2922 2.98644 15.2115 2.86972C15.3602 2.77246 15.5412 2.72471 15.7167 2.74239C15.5788 2.71764 15.4444 2.67519 15.3047 2.66989C15.2617 2.66989 15.2187 2.66989 15.1757 2.67873C15.3137 2.55671 15.4767 2.46298 15.654 2.4117C15.4856 2.42585 15.3154 2.45768 15.165 2.53372C15.1202 2.55494 15.079 2.58147 15.0396 2.61153C15.1058 2.35157 15.2205 2.10399 15.3781 1.88648C15.233 2.01203 15.1005 2.16058 15.0037 2.32504C15.0055 2.29852 15.0091 2.27376 15.0091 2.24723C15.0198 2.06509 15.0109 1.87587 14.9321 1.7114C14.9446 1.9077 14.9231 2.10576 14.8712 2.29498C14.8658 2.27022 14.8604 2.2437 14.8586 2.21894C14.8514 2.07923 14.8246 1.97136 14.7278 1.85995C14.7171 1.84757 14.7045 1.83519 14.6938 1.82281C14.6812 1.7733 14.6633 1.72555 14.64 1.67957C14.5702 1.5434 14.4555 1.43022 14.3158 1.36302C14.2602 1.3365 14.2011 1.31527 14.1474 1.28521C14.0273 1.21624 13.9431 1.09245 13.9234 0.956285C13.9091 1.06062 13.9091 1.17203 13.9682 1.26045C14.0112 1.32589 14.0793 1.36833 14.1277 1.42845C14.1384 1.4426 14.1492 1.45675 14.1581 1.4709C13.9736 1.36656 13.7873 1.26399 13.6028 1.15965C13.4308 1.06416 13.2534 0.965127 13.0581 0.936832C13.0116 0.929758 12.9632 0.92799 12.9166 0.92799C12.8217 0.889085 12.7231 0.86079 12.621 0.844874C12.4884 0.825421 12.3487 0.830727 12.2215 0.8714C12.3039 0.89439 12.3792 0.931527 12.449 0.979274C12.4311 0.981043 12.4132 0.984579 12.3953 0.986348C11.8363 1.05001 11.238 0.910306 10.7274 1.14197C10.43 1.27637 10.1989 1.52572 10.0323 1.80336C9.86567 2.081 9.75997 2.39048 9.65786 2.69641C9.54858 3.02711 9.44108 3.35957 9.39809 3.70442C9.38734 3.78576 9.38196 3.86888 9.38017 3.952C9.36763 3.93608 9.35509 3.92016 9.34255 3.90602C9.32105 3.88126 9.29776 3.8565 9.26552 3.8512C9.19206 3.83705 9.14548 3.92724 9.12578 3.99797C9.0165 4.40117 8.92871 4.81675 8.95917 5.2341C8.98425 5.58425 9.10249 5.93617 9.33001 6.2032C9.32284 6.28455 9.32105 6.36943 9.31389 6.45255C9.26014 7.20943 9.20461 7.96809 9.15086 8.72497C9.1419 8.8576 9.13115 8.99377 9.08099 9.11756C8.995 9.32447 8.81226 9.46594 8.64028 9.61626C8.52921 9.60034 8.41634 9.58973 8.30348 9.58443C8.15836 9.57912 8.01146 9.58443 7.87531 9.62864C7.69795 9.68699 7.55104 9.80548 7.4113 9.92927C7.11391 10.191 6.8631 10.5022 6.56034 10.7551C6.26116 11.0062 5.89927 11.1725 5.54276 11.3281C5.05189 11.5421 4.53772 11.7525 4.17225 12.1398C3.64734 12.6969 3.52373 13.5333 3.66526 14.2814C3.81574 15.0754 4.23675 15.7438 4.59147 16.453C4.97664 17.2205 5.37257 17.9844 5.83478 18.7095C6.04797 19.0437 6.28086 19.378 6.5675 19.6485C6.74128 20.1331 6.93118 20.6123 7.06017 21.1092C7.21603 21.7087 7.28052 22.3471 7.11929 22.9431C6.57288 22.5275 6.01572 22.1261 5.43169 21.7618C4.60759 21.2472 3.64018 20.7945 2.69068 21.0084C2.18726 21.1216 1.73759 21.4311 1.43841 21.8431C1.09265 22.3224 1.00128 22.9608 0.970827 23.5355C0.949329 23.9193 0.96187 24.3119 1.08907 24.6744C1.20372 24.9998 1.40616 25.2863 1.62831 25.5533C2.01707 26.0202 2.46674 26.4357 2.96657 26.7841C3.45386 27.1254 3.98415 27.4031 4.47323 27.7426C5.07518 28.16 5.62159 28.6728 6.23249 29.0672C6.14829 29.1202 6.07125 29.1803 5.99959 29.2511C5.85269 29.3943 5.74162 29.5694 5.64308 29.748C5.39944 30.1954 5.23283 30.6853 5.14684 31.1857C5.09309 31.5005 5.06801 31.8241 5.13788 32.1354C5.20775 32.4466 5.37973 32.7437 5.65204 32.917C5.79357 33.0054 5.97093 33.0585 6.12858 33.0019C6.59796 32.8321 7.02971 32.7667 7.51163 32.6323C8.02938 32.4873 8.57579 32.4802 9.11324 32.4537C9.89434 32.4148 10.6772 32.3334 11.4583 32.3387C11.5801 32.4749 11.7127 32.6005 11.8686 32.696C12.166 32.8781 12.5243 32.9365 12.8718 32.9789C13.2319 33.0249 13.5938 33.0585 13.9557 33.0921C14.013 33.0974 14.0721 33.1027 14.1259 33.085C14.2316 33.0496 14.2853 32.9382 14.3498 32.848C14.4484 32.7083 14.5845 32.6022 14.7135 32.4891C15.2151 32.5474 15.7167 32.6058 16.2202 32.6624C16.3724 32.68 16.5247 32.6977 16.6788 32.6907C16.6895 32.7154 16.7003 32.7419 16.7146 32.7667C16.7469 32.8286 16.7845 32.8905 16.8436 32.9259C16.9099 32.9665 16.9923 32.9683 17.0711 32.9683C17.2807 32.9683 17.4885 32.963 17.6982 32.9524C17.949 32.94 18.1317 32.9736 18.3825 32.9665C19.0812 32.9488 19.7745 32.8286 20.4714 32.8357C21.2668 32.8445 22.0676 33.0214 22.8505 32.8816C23.0763 32.841 23.3002 32.7738 23.4865 32.6429C23.8824 32.3688 24.0508 31.8489 24.0007 31.3749C23.9505 30.8992 23.714 30.4624 23.4364 30.0716C23.2357 29.7904 23.0046 29.5216 22.6983 29.3589C22.3901 29.1945 22.0264 29.152 21.6789 29.1892C21.3313 29.2263 20.9963 29.3395 20.6721 29.4704C20.466 29.5535 20.2475 29.6472 20.0271 29.6118C19.9053 29.5924 19.7942 29.534 19.6867 29.4774C19.6509 29.4597 19.6151 29.4403 19.581 29.4226C20.5467 28.8885 21.5069 28.3474 22.46 27.7904C23.0978 27.4172 23.7373 27.0352 24.2891 26.5436C24.8158 26.0767 25.3891 25.7142 25.7689 25.1023C26.0878 24.5877 26.2526 23.9653 26.1362 23.3728L26.129 23.3746Z" fill="white"/>
  </g>
  <defs>
    <clipPath id="clip0_2450_58348">
      <rect width="25.2083" height="32.2667" fill="white" transform="translate(0.958313 0.831055)"/>
    </clipPath>
  </defs>
</svg>