<svg width="83" height="34" viewBox="0 0 83 34" fill="none" xmlns="http://www.w3.org/2000/svg">
<g id="Group 1074">
<path id="Vector 4" d="M1 10.5293V22.4411" stroke="#FC2D7C" stroke-width="2" stroke-linecap="round"/>
<path id="Vector 5" d="M6.82349 1L6.82349 32.7647" stroke="#FC2D7C" stroke-width="2" stroke-linecap="round"/>
<path id="Vector 6" d="M12.1177 10.5293L12.1177 23.2352" stroke="#FC2D7C" stroke-width="2" stroke-linecap="round"/>
<path id="Vector 7" d="M17.9412 6.82373L17.9412 26.9414" stroke="#FC2D7C" stroke-width="2" stroke-linecap="round"/>
<path id="Vector 8" d="M24.2939 10.5293L24.2939 23.2352" stroke="#FC2D7C" stroke-width="2" stroke-linecap="round"/>
<path id="Vector 9" d="M30.1177 6.82373L30.1177 26.9414" stroke="#FC2D7C" stroke-width="2" stroke-linecap="round"/>
<path id="Vector 10" d="M35.4116 6.82373L35.4116 26.9414" stroke="#FC2D7C" stroke-width="2" stroke-linecap="round"/>
<path id="Vector 11" d="M41.2354 10.5293L41.2354 23.2352" stroke="#FC2D7C" stroke-width="2" stroke-linecap="round"/>
<path id="Vector 12" d="M47.0588 6.82373L47.0588 26.9414" stroke="#FC2D7C" stroke-width="2" stroke-linecap="round"/>
<path id="Vector 13" d="M52.8823 10.5293L52.8823 23.2352" stroke="#FC2D7C" stroke-width="2" stroke-linecap="round"/>
<path id="Vector 14" d="M58.7061 6.82373L58.7061 26.9414" stroke="#FC2D7C" stroke-width="2" stroke-linecap="round"/>
<path id="Vector 15" d="M64.5295 6.82373L64.5295 26.9414" stroke="#FC2D7C" stroke-width="2" stroke-linecap="round"/>
<path id="Vector 16" d="M70.3528 1L70.3528 32.7647" stroke="#FC2D7C" stroke-width="2" stroke-linecap="round"/>
<path id="Vector 17" d="M76.1765 10.5293L76.1765 23.2352" stroke="#FC2D7C" stroke-width="2" stroke-linecap="round"/>
<path id="Vector 18" d="M82 10.5293L82 23.2352" stroke="#FC2D7C" stroke-width="2" stroke-linecap="round"/>
</g>
</svg>
