<svg width="83" height="34" viewBox="0 0 83 34" fill="none" xmlns="http://www.w3.org/2000/svg">
<path d="M1 10.5293V22.4411" stroke="white" stroke-width="2" stroke-linecap="round"/>
<path d="M6.82373 1L6.82373 32.7647" stroke="white" stroke-width="2" stroke-linecap="round"/>
<path d="M12.1177 10.5293L12.1177 23.2352" stroke="white" stroke-width="2" stroke-linecap="round"/>
<path d="M17.9414 6.82373L17.9414 26.9414" stroke="white" stroke-width="2" stroke-linecap="round"/>
<path d="M24.2939 10.5293L24.2939 23.2352" stroke="white" stroke-width="2" stroke-linecap="round"/>
<path d="M30.1177 6.82373L30.1177 26.9414" stroke="white" stroke-width="2" stroke-linecap="round"/>
<path d="M35.4116 6.82373L35.4116 26.9414" stroke="white" stroke-width="2" stroke-linecap="round"/>
<path d="M41.2354 10.5293L41.2354 23.2352" stroke="white" stroke-width="2" stroke-linecap="round"/>
<path d="M47.0586 6.82373L47.0586 26.9414" stroke="white" stroke-width="2" stroke-linecap="round"/>
<path d="M52.8823 10.5293L52.8823 23.2352" stroke="white" stroke-width="2" stroke-linecap="round"/>
<path d="M58.7061 6.82373L58.7061 26.9414" stroke="white" stroke-width="2" stroke-linecap="round"/>
<path d="M64.5293 6.82373L64.5293 26.9414" stroke="white" stroke-width="2" stroke-linecap="round"/>
<path d="M70.353 1L70.353 32.7647" stroke="white" stroke-width="2" stroke-linecap="round"/>
<path d="M76.1763 10.5293L76.1763 23.2352" stroke="white" stroke-width="2" stroke-linecap="round"/>
<path d="M82 10.5293L82 23.2352" stroke="white" stroke-width="2" stroke-linecap="round"/>
</svg>
