<svg xmlns="http://www.w3.org/2000/svg" width="24" height="24" viewBox="0 0 24 24" fill="none">
  <g filter="url(#filter0_d_1554_21956)">
    <path fill-rule="evenodd" clip-rule="evenodd" d="M11.3175 5.61283C11.4907 5.69609 11.6009 5.87128 11.6009 6.06348V18.6649C11.6009 18.8571 11.4907 19.0323 11.3175 19.1155C11.1443 19.1988 10.9386 19.1754 10.7886 19.0553L6.42501 15.5645H3C2.72386 15.5645 2.5 15.3406 2.5 15.0645V9.66388C2.5 9.38774 2.72386 9.16388 3 9.16388H6.42501L10.7886 5.67305C10.9386 5.55298 11.1443 5.52957 11.3175 5.61283ZM10.6009 7.10379L6.91275 10.0543C6.82409 10.1252 6.71394 10.1639 6.6004 10.1639H3.5V14.5645H6.6004C6.71394 14.5645 6.82409 14.6031 6.91275 14.674L10.6009 17.6246V7.10379Z" fill="white"/>
  </g>
  <g filter="url(#filter1_d_1554_21956)">
    <path fill-rule="evenodd" clip-rule="evenodd" d="M21.8536 8.85355C22.0488 8.65829 22.0488 8.34171 21.8536 8.14645C21.6583 7.95118 21.3417 7.95118 21.1464 8.14645L18 11.2929L14.8536 8.14645C14.6583 7.95118 14.3417 7.95118 14.1464 8.14645C13.9512 8.34171 13.9512 8.65829 14.1464 8.85355L17.2929 12L14.1464 15.1464C13.9512 15.3417 13.9512 15.6583 14.1464 15.8536C14.3417 16.0488 14.6583 16.0488 14.8536 15.8536L18 12.7071L21.1464 15.8536C21.3417 16.0488 21.6583 16.0488 21.8536 15.8536C22.0488 15.6583 22.0488 15.3417 21.8536 15.1464L18.7071 12L21.8536 8.85355Z" fill="white"/>
  </g>
  <defs>
    <filter id="filter0_d_1554_21956" x="1.5" y="4.56348" width="11.1008" height="15.6016" filterUnits="userSpaceOnUse" color-interpolation-filters="sRGB">
      <feFlood flood-opacity="0" result="BackgroundImageFix"/>
      <feColorMatrix in="SourceAlpha" type="matrix" values="0 0 0 0 0 0 0 0 0 0 0 0 0 0 0 0 0 0 127 0" result="hardAlpha"/>
      <feOffset/>
      <feGaussianBlur stdDeviation="0.5"/>
      <feComposite in2="hardAlpha" operator="out"/>
      <feColorMatrix type="matrix" values="0 0 0 0 0 0 0 0 0 0 0 0 0 0 0 0 0 0 0.45 0"/>
      <feBlend mode="normal" in2="BackgroundImageFix" result="effect1_dropShadow_1554_21956"/>
      <feBlend mode="normal" in="SourceGraphic" in2="effect1_dropShadow_1554_21956" result="shape"/>
    </filter>
    <filter id="filter1_d_1554_21956" x="13" y="7" width="10" height="10" filterUnits="userSpaceOnUse" color-interpolation-filters="sRGB">
      <feFlood flood-opacity="0" result="BackgroundImageFix"/>
      <feColorMatrix in="SourceAlpha" type="matrix" values="0 0 0 0 0 0 0 0 0 0 0 0 0 0 0 0 0 0 127 0" result="hardAlpha"/>
      <feOffset/>
      <feGaussianBlur stdDeviation="0.5"/>
      <feComposite in2="hardAlpha" operator="out"/>
      <feColorMatrix type="matrix" values="0 0 0 0 0 0 0 0 0 0 0 0 0 0 0 0 0 0 0.45 0"/>
      <feBlend mode="normal" in2="BackgroundImageFix" result="effect1_dropShadow_1554_21956"/>
      <feBlend mode="normal" in="SourceGraphic" in2="effect1_dropShadow_1554_21956" result="shape"/>
    </filter>
  </defs>
</svg>
