<svg xmlns="http://www.w3.org/2000/svg" width="16" height="16" viewBox="0 0 16 16" fill="none">
  <path d="M13.4382 3.41518C12.7376 3.40476 12.1673 3.96726 12.1673 4.66518H11.959V3.85268C11.959 3.16779 11.4147 2.59487 10.7298 2.58185C10.0293 2.57143 9.45898 3.13393 9.45898 3.83185V4.66518H9.25065V3.43601C9.25065 2.75112 8.70638 2.1782 8.02148 2.16518C7.32096 2.15476 6.75065 2.71726 6.75065 3.41518V4.66518H6.54232V3.85268C6.54232 3.16779 5.99805 2.59487 5.31315 2.58185C4.61263 2.57143 4.04232 3.13393 4.04232 3.83185V7.37351L3.83398 7.18862V5.93601C3.83398 5.25112 3.28971 4.6782 2.60482 4.66518C1.9043 4.65476 1.33398 5.21726 1.33398 5.91518V7.64435C1.33398 8.35789 1.63867 9.03758 2.17253 9.51414L5.08138 12.1001C5.34701 12.3371 5.50065 12.6782 5.50065 13.035V13.2095C5.50065 13.5558 5.7793 13.8345 6.12565 13.8345H12.3757C12.722 13.8345 13.0007 13.5558 13.0007 13.2095V13.1339C13.0007 12.8006 13.0684 12.4699 13.196 12.1626L14.472 9.13393C14.6022 8.82664 14.6673 8.49591 14.6673 8.16258V4.68601C14.6673 4.00112 14.123 3.4256 13.4382 3.41518Z" fill="white"/>
</svg>