<svg xmlns="http://www.w3.org/2000/svg" width="12" height="12" viewBox="0 0 12 12" fill="none">
  <path d="M7.95765 9.41559C7.06129 9.41559 6.22218 9.05225 5.59961 8.43555" stroke="#828282" stroke-linecap="round" stroke-linejoin="round"/>
  <path d="M2.92976 3.56141C2.15338 2.80117 1.11193 2.35388 0 2.35388" stroke="#828282" stroke-linecap="round" stroke-linejoin="round"/>
  <path d="M11.2066 10.3705C11.8155 9.97643 11.8155 9.08547 11.2066 8.6914L9.50032 7.58726C8.83496 7.15669 7.95703 7.63428 7.95703 8.4268V10.6351C7.95703 11.4276 8.83496 11.9052 9.50032 11.4746L11.2066 10.3705Z" fill="#828282"/>
  <path d="M7.95706 2.35393V2.35393C6.58344 2.35393 5.34768 3.18871 4.83487 4.463L3.90273 6.77931C3.26172 8.37218 1.71702 9.41565 0 9.41565V9.41565" stroke="#828282" stroke-linecap="round" stroke-linejoin="round"/>
  <path d="M10.6382 3.30873C11.2472 2.91466 11.2472 2.0237 10.6382 1.62963L8.93196 0.525491C8.2666 0.0949232 7.38867 0.572514 7.38867 1.36504V3.57332C7.38867 4.36585 8.2666 4.84344 8.93196 4.41287L10.6382 3.30873Z" fill="#828282"/>
</svg>