<svg xmlns="http://www.w3.org/2000/svg" width="16" height="16" viewBox="0 0 16 16" fill="none">
    <path d="M3.33301 5.33333H12.6663C12.8432 5.33333 13.0127 5.2631 13.1377 5.13807C13.2628 5.01305 13.333 4.84348 13.333 4.66667C13.333 4.48986 13.2628 4.32029 13.1377 4.19526C13.0127 4.07024 12.8432 4 12.6663 4H3.33301C3.1562 4 2.98663 4.07024 2.8616 4.19526C2.73658 4.32029 2.66634 4.48986 2.66634 4.66667C2.66634 4.84348 2.73658 5.01305 2.8616 5.13807C2.98663 5.2631 3.1562 5.33333 3.33301 5.33333ZM13.9997 7.33333H1.99967C1.82286 7.33333 1.65329 7.40357 1.52827 7.5286C1.40325 7.65362 1.33301 7.82319 1.33301 8C1.33301 8.17681 1.40325 8.34638 1.52827 8.4714C1.65329 8.59643 1.82286 8.66667 1.99967 8.66667H13.9997C14.1765 8.66667 14.3461 8.59643 14.4711 8.4714C14.5961 8.34638 14.6663 8.17681 14.6663 8C14.6663 7.82319 14.5961 7.65362 14.4711 7.5286C14.3461 7.40357 14.1765 7.33333 13.9997 7.33333ZM12.6663 10.6667H3.33301C3.1562 10.6667 2.98663 10.7369 2.8616 10.8619C2.73658 10.987 2.66634 11.1565 2.66634 11.3333C2.66634 11.5101 2.73658 11.6797 2.8616 11.8047C2.98663 11.9298 3.1562 12 3.33301 12H12.6663C12.8432 12 13.0127 11.9298 13.1377 11.8047C13.2628 11.6797 13.333 11.5101 13.333 11.3333C13.333 11.1565 13.2628 10.987 13.1377 10.8619C13.0127 10.7369 12.8432 10.6667 12.6663 10.6667Z" fill="#BDBDBD"/>
</svg>