<svg xmlns="http://www.w3.org/2000/svg" width="16" height="16" viewBox="0 0 16 16" fill="none">
<path d="M14.2497 10.7998C14.0194 10.7998 13.833 10.9788 13.833 11.1998V12.0932L12.583 11.3732V7.19976C12.583 7.04816 12.4938 6.90976 12.3527 6.84189L8.41634 4.95256V3.36536L8.95509 3.88256C9.03648 3.96069 9.14301 3.99976 9.24968 3.99976C9.35634 3.99976 9.46287 3.96069 9.54426 3.88256C9.70704 3.72629 9.70704 3.47322 9.54426 3.31696L8.29426 2.11696C8.13148 1.96069 7.86787 1.96069 7.70509 2.11696L6.45509 3.31696C6.29231 3.47322 6.29231 3.72629 6.45509 3.88256C6.61787 4.03882 6.88148 4.03882 7.04426 3.88256L7.58301 3.36536V4.95242L3.64662 6.84189C3.50551 6.90976 3.41634 7.04816 3.41634 7.19976V11.3732L2.16634 12.0932V11.1998C2.16634 10.9788 1.97995 10.7998 1.74967 10.7998C1.5194 10.7998 1.33301 10.9788 1.33301 11.1998V12.7998C1.33301 12.9514 1.42217 13.0898 1.56329 13.1576L3.22995 13.9576C3.28981 13.9863 3.35329 13.9998 3.41592 13.9998C3.56898 13.9998 3.71579 13.919 3.78912 13.7787C3.89204 13.5811 3.8087 13.3408 3.60273 13.242L2.61495 12.7678L3.8512 12.0558L7.81329 13.9576C7.8719 13.9858 7.93579 13.9998 7.99967 13.9998C8.06356 13.9998 8.12745 13.9858 8.18606 13.9576L12.1481 12.0558L13.3844 12.7678L12.3966 13.2419C12.1908 13.3407 12.1073 13.581 12.2102 13.7786C12.2836 13.919 12.4304 13.9998 12.5834 13.9998C12.6461 13.9998 12.7095 13.9863 12.7694 13.9576L14.4361 13.1576C14.5772 13.0898 14.6663 12.9514 14.6663 12.7998V11.1998C14.6663 10.9788 14.48 10.7998 14.2497 10.7998ZM7.99967 5.64696L11.2345 7.19976L7.99967 8.75256L4.76481 7.19976L7.99967 5.64696ZM4.24967 7.84696L7.58301 9.44696V12.9524L4.24967 11.3524V7.84696ZM8.41634 12.9526V9.44696L11.7497 7.84696V11.3524L8.41634 12.9526Z" fill="white"/>
</svg>