<svg xmlns="http://www.w3.org/2000/svg" width="16" height="16" viewBox="0 0 16 16" fill="none">
<g clip-path="url(#clip0_32_12759)">
<path d="M2.66732 6.66665C1.93398 6.66665 1.33398 6.06665 1.33398 5.33331V2.66665C1.33398 1.93331 1.93398 1.33331 2.66732 1.33331H5.33398C6.06732 1.33331 6.66732 1.93331 6.66732 2.66665" stroke="white" stroke-width="2" stroke-linecap="round" stroke-linejoin="round"/>
<path d="M6.66732 10.6666C5.93398 10.6666 5.33398 10.0666 5.33398 9.33331V6.66665C5.33398 5.93331 5.93398 5.33331 6.66732 5.33331H9.33398C10.0673 5.33331 10.6673 5.93331 10.6673 6.66665" stroke="white" stroke-width="2" stroke-linecap="round" stroke-linejoin="round"/>
<path d="M13.334 9.33331H10.6673C9.93094 9.33331 9.33398 9.93027 9.33398 10.6666V13.3333C9.33398 14.0697 9.93094 14.6666 10.6673 14.6666H13.334C14.0704 14.6666 14.6673 14.0697 14.6673 13.3333V10.6666C14.6673 9.93027 14.0704 9.33331 13.334 9.33331Z" stroke="white" stroke-width="2" stroke-linecap="round" stroke-linejoin="round"/>
</g>
<defs>
<clipPath id="clip0_32_12759">
<rect width="16" height="16" fill="white"/>
</clipPath>
</defs>
</svg>