<svg xmlns="http://www.w3.org/2000/svg" width="16" height="16" viewBox="0 0 16 16" fill="none">
<path fill-rule="evenodd" clip-rule="evenodd" d="M11.5163 3.88325C11.5195 3.74275 11.44 3.60629 11.3003 3.53927L8.17534 2.03928C8.06537 1.9865 7.93593 1.9865 7.82595 2.03928L4.70095 3.53927C4.56162 3.60615 4.48212 3.74218 4.48501 3.88236V7.62474C4.48501 7.76678 4.5686 7.89662 4.70094 7.96015L7.82447 9.45943C7.8248 9.45959 7.82512 9.45974 7.82545 9.4599C7.92679 9.50854 8.04453 9.51236 8.14759 9.47219C8.15748 9.46833 8.16725 9.46407 8.17685 9.45941L11.3003 7.96015C11.4327 7.89662 11.5163 7.76678 11.5163 7.62474V3.88325ZM5.74902 3.87472L8.00064 4.95549L10.2523 3.87472L8.00065 2.79395L5.74902 3.87472ZM10.735 7.39298L8.39126 8.51797V5.60651L10.735 4.48152V7.39298ZM5.26626 4.48152L7.61001 5.60651V8.51797L5.26626 7.39298V4.48152Z" fill="white"/>
<path fill-rule="evenodd" clip-rule="evenodd" d="M2.86196 11.2939C3.68917 11.7952 4.79827 12.1651 6.04751 12.3552V13.6247C6.04751 13.763 6.1268 13.8901 6.25382 13.9553C6.38083 14.0206 6.53495 14.0134 6.65482 13.9367L8.99857 12.4367C9.10724 12.3672 9.17252 12.2501 9.17252 12.1247C9.17252 11.9993 9.10724 11.8822 8.99857 11.8127L6.65482 10.3127C6.53495 10.236 6.38083 10.2288 6.25382 10.2941C6.1268 10.3593 6.04751 10.4864 6.04751 10.6247V11.5951C4.92888 11.4122 3.97098 11.0791 3.27905 10.6597C2.48732 10.1798 2.11524 9.63636 2.11524 9.12473C2.11524 8.5704 2.57307 7.97384 3.50569 7.46665C3.6934 7.36457 3.75937 7.13573 3.65303 6.95553C3.5467 6.77533 3.30833 6.71201 3.12062 6.81409C2.10834 7.36459 1.33398 8.15737 1.33398 9.12473C1.33398 10.011 1.97083 10.7537 2.86196 11.2939ZM6.82876 12.924V12.0367C6.82885 12.032 6.82885 12.0274 6.82876 12.0227V11.3254L8.07768 12.1247L6.82876 12.924Z" fill="white"/>
<path d="M10.4219 12.2742C10.2104 12.3153 10.0043 12.184 9.96153 11.9811C9.91873 11.7781 10.0555 11.5802 10.2669 11.5391C11.3749 11.3238 12.3016 10.9595 12.941 10.5168C13.5854 10.0705 13.8861 9.58518 13.8861 9.12476C13.8861 8.57043 13.4282 7.97387 12.4956 7.46668C12.3079 7.3646 12.2419 7.13576 12.3483 6.95556C12.4546 6.77537 12.693 6.71204 12.8807 6.81412C13.893 7.36462 14.6673 8.1574 14.6673 9.12476C14.6673 9.92334 14.147 10.6064 13.398 11.1251C12.6438 11.6473 11.6044 12.0445 10.4219 12.2742Z" fill="white"/>
</svg>