<svg xmlns="http://www.w3.org/2000/svg" width="16" height="16" viewBox="0 0 16 16" fill="none">
  <path d="M2.11523 2.11432H2.77174V1.33307H1.33398V2.77086H2.11523V2.11432Z" fill="white"/>
  <path d="M1.33398 3.71216H2.11523V5.14994H1.33398V3.71216Z" fill="white"/>
  <path d="M1.33398 6.0913H2.11523V7.52908H1.33398V6.0913Z" fill="white"/>
  <path d="M10.8504 1.33307H12.2882V2.11432H10.8504V1.33307Z" fill="white"/>
  <path d="M8.47133 1.33307H9.90909V2.11432H8.47133V1.33307Z" fill="white"/>
  <path d="M6.09221 1.33307H7.52997V2.11432H6.09221V1.33307Z" fill="white"/>
  <path d="M3.7131 1.33307H5.15086V2.11432H3.7131V1.33307Z" fill="white"/>
  <path d="M13.2296 1.33307V2.11432H13.8861V2.77086H14.6673V1.33307H13.2296Z" fill="white"/>
  <path d="M13.8861 3.71216H14.6673V5.14994H13.8861V3.71216Z" fill="white"/>
  <path d="M13.8861 6.0913H14.6673V7.52908H13.8861V6.0913Z" fill="white"/>
  <path d="M13.8861 8.47039H14.6673V9.90817H13.8861V8.47039Z" fill="white"/>
  <path d="M13.8861 10.8495H14.6673V12.2873H13.8861V10.8495Z" fill="white"/>
  <path d="M13.8861 13.8852H13.2296V14.6664H14.6673V13.2286H13.8861V13.8852Z" fill="white"/>
  <path d="M10.8504 13.8852H12.2882V14.6664H10.8504V13.8852Z" fill="white"/>
  <path d="M8.47133 13.8852H9.90909V14.6664H8.47133V13.8852Z" fill="white"/>
  <path d="M1.33398 8.47041H7.52997V14.6664H1.33398V8.47041Z" fill="white"/>
  <path d="M10.708 4.35218H11.0958L8.9987 6.44927V6.06151H8.21745V7.78294H9.93888V7.00169H9.55112L11.6482 4.90458V5.29237H12.4295V3.57093H10.708V4.35218Z" fill="white"/>
</svg>