<svg width="22" height="22" viewBox="0 0 22 22" fill="none" xmlns="http://www.w3.org/2000/svg">
<g id="trash 1">
<rect width="22" height="22" rx="5" fill="#313131"/>
<path id="Vector" d="M6.6155 19C6.168 19 5.78683 18.8426 5.472 18.528C5.15733 18.2131 5 17.832 5 17.3845V4.99996H4V3.99996H8V3.23071H14V3.99996H18V4.99996H17V17.3845C17 17.8448 16.8458 18.2291 16.5375 18.5375C16.2292 18.8458 15.8448 19 15.3845 19H6.6155ZM16 4.99996H6V17.3845C6 17.564 6.05767 17.7115 6.173 17.827C6.2885 17.9423 6.436 18 6.6155 18H15.3845C15.5385 18 15.6796 17.9359 15.8077 17.8077C15.9359 17.6795 16 17.5385 16 17.3845V4.99996ZM8.80775 16H9.80775V6.99996H8.80775V16ZM12.1923 16H13.1923V6.99996H12.1923V16Z" fill="#E8EAED"/>
</g>
</svg>
