<svg xmlns="http://www.w3.org/2000/svg" width="18" height="18" viewBox="0 0 18 18" fill="none">
  <g clip-path="url(#clip0_2723_67784)" filter="url(#filter0_d_2723_67784)">
    <path d="M5.545 7.714L5.11 9H4L5.862 4H7.146L9 9H7.833L7.398 7.714H5.545ZM7.179 6.978L6.5 4.956H6.451L5.772 6.978H7.179Z" fill="white"/>
    <path d="M1 3C1 2.46957 1.21071 1.96086 1.58579 1.58579C1.96086 1.21071 2.46957 1 3 1H10C10.5304 1 11.0391 1.21071 11.4142 1.58579C11.7893 1.96086 12 2.46957 12 3V6H15C15.5304 6 16.0391 6.21071 16.4142 6.58579C16.7893 6.96086 17 7.46957 17 8V15C17 15.5304 16.7893 16.0391 16.4142 16.4142C16.0391 16.7893 15.5304 17 15 17H8C7.46957 17 6.96086 16.7893 6.58579 16.4142C6.21071 16.0391 6 15.5304 6 15V12H3C2.46957 12 1.96086 11.7893 1.58579 11.4142C1.21071 11.0391 1 10.5304 1 10V3ZM3 2C2.73478 2 2.48043 2.10536 2.29289 2.29289C2.10536 2.48043 2 2.73478 2 3V10C2 10.2652 2.10536 10.5196 2.29289 10.7071C2.48043 10.8946 2.73478 11 3 11H10C10.2652 11 10.5196 10.8946 10.7071 10.7071C10.8946 10.5196 11 10.2652 11 10V3C11 2.73478 10.8946 2.48043 10.7071 2.29289C10.5196 2.10536 10.2652 2 10 2H3ZM10.138 11.995C10.3307 12.2957 10.5407 12.5777 10.768 12.841C10.02 13.416 9.095 13.842 8 14.133C8.178 14.35 8.451 14.768 8.555 15C9.68 14.641 10.635 14.156 11.441 13.506C12.218 14.171 13.18 14.671 14.371 14.978C14.504 14.724 14.785 14.305 15 14.088C13.875 13.835 12.943 13.394 12.18 12.804C12.861 12.057 13.402 11.153 13.801 10.047H15V9H12V10.047H12.765C12.447 10.891 12.025 11.593 11.493 12.177C11.346 12.0205 11.2074 11.8563 11.078 11.685C10.7956 11.8655 10.4724 11.9721 10.138 11.995Z" fill="white"/>
  </g>
  <defs>
    <filter id="filter0_d_2723_67784" x="0" y="0" width="18" height="18" filterUnits="userSpaceOnUse" color-interpolation-filters="sRGB">
      <feFlood flood-opacity="0" result="BackgroundImageFix"/>
      <feColorMatrix in="SourceAlpha" type="matrix" values="0 0 0 0 0 0 0 0 0 0 0 0 0 0 0 0 0 0 127 0" result="hardAlpha"/>
      <feOffset/>
      <feGaussianBlur stdDeviation="0.5"/>
      <feComposite in2="hardAlpha" operator="out"/>
      <feColorMatrix type="matrix" values="0 0 0 0 0 0 0 0 0 0 0 0 0 0 0 0 0 0 0.65 0"/>
      <feBlend mode="normal" in2="BackgroundImageFix" result="effect1_dropShadow_2723_67784"/>
      <feBlend mode="normal" in="SourceGraphic" in2="effect1_dropShadow_2723_67784" result="shape"/>
    </filter>
    <clipPath id="clip0_2723_67784">
      <rect width="16" height="16" fill="white" transform="translate(1 1)"/>
    </clipPath>
  </defs>
</svg>