<svg width="24" height="24" viewBox="0 0 24 24" fill="none" xmlns="http://www.w3.org/2000/svg">
<g id="trash 1">
<rect width="24" height="24" rx="5" fill="#313131"/>
<path id="Vector" d="M7.6155 20.0002C7.168 20.0002 6.78683 19.8429 6.472 19.5282C6.15733 19.2134 6 18.8322 6 18.3847V6.00021H5V5.00021H9V4.23096H15V5.00021H19V6.00021H18V18.3847C18 18.845 17.8458 19.2294 17.5375 19.5377C17.2292 19.846 16.8448 20.0002 16.3845 20.0002H7.6155ZM17 6.00021H7V18.3847C7 18.5642 7.05767 18.7117 7.173 18.8272C7.2885 18.9425 7.436 19.0002 7.6155 19.0002H16.3845C16.5385 19.0002 16.6796 18.9361 16.8077 18.808C16.9359 18.6798 17 18.5387 17 18.3847V6.00021ZM9.80775 17.0002H10.8078V8.00021H9.80775V17.0002ZM13.1923 17.0002H14.1923V8.00021H13.1923V17.0002Z" fill="#E8EAED"/>
</g>
</svg>
