<svg width="24" height="24" viewBox="0 0 24 24" fill="none" xmlns="http://www.w3.org/2000/svg">
<g id="i-delete">
<rect width="24" height="24" rx="6" fill="#111111" fill-opacity="0.1"/>
<path id="Vector" d="M8.2462 18.5076C7.84727 18.5076 7.50647 18.3663 7.2238 18.0838C6.94127 17.8011 6.8 17.4603 6.8 17.0614V6.9076H6V5.7076H9.6V5H14.4V5.7076H18V6.9076H17.2V17.0614C17.2 17.4655 17.06 17.8076 16.78 18.0876C16.5 18.3676 16.1579 18.5076 15.7538 18.5076H8.2462ZM16 6.9076H8V17.0614C8 17.1333 8.02307 17.1923 8.0692 17.2384C8.11533 17.2845 8.17433 17.3076 8.2462 17.3076H15.7538C15.8154 17.3076 15.8718 17.2819 15.923 17.2306C15.9743 17.1794 16 17.123 16 17.0614V6.9076ZM9.9232 15.7076H11.123V8.5076H9.9232V15.7076ZM12.877 15.7076H14.0768V8.5076H12.877V15.7076Z" fill="white"/>
</g>
</svg>
