<svg width="29" height="28" viewBox="0 0 29 28" fill="none" xmlns="http://www.w3.org/2000/svg">
<g id="twitter" clip-path="url(#clip0_803_14817)">
<rect id="Rectangle 8072" x="6.87793" y="6" width="17" height="16" fill="white"/>
<path id="Vector" d="M9.92578 8.34766L18.4833 19.5652H19.7958L11.3258 8.34766H9.92578Z" fill="#333333"/>
<path id="Vector_2" d="M14.8779 0C7.14293 0 0.87793 6.265 0.87793 14C0.87793 21.735 7.14293 28 14.8779 28C22.6129 28 28.8779 21.735 28.8779 14C28.8779 6.265 22.6129 0 14.8779 0ZM17.8354 21L14.1079 16.1175L9.83793 21H7.47543L13.0054 14.665L7.17793 7.0175H12.0604L15.4379 11.48L19.3404 7.0175H21.7029L16.5404 12.9325L22.6304 21H17.8704H17.8354Z" fill="#333333"/>
</g>
<defs>
<clipPath id="clip0_803_14817">
<rect width="28" height="28" fill="white" transform="translate(0.87793)"/>
</clipPath>
</defs>
</svg>
