<svg width="21" height="20" viewBox="0 0 21 20" fill="none" xmlns="http://www.w3.org/2000/svg">
<g id="Icon">
<path id="Vector" fill-rule="evenodd" clip-rule="evenodd" d="M6.4068 11.2539C6.56276 11.098 6.77426 11.0104 6.99478 11.0104C7.21531 11.0104 7.42681 11.098 7.58276 11.2539L10.3214 13.9926L13.0601 11.2539C13.1368 11.1745 13.2286 11.1111 13.33 11.0675C13.4315 11.0239 13.5406 11.001 13.6511 11C13.7615 10.9991 13.871 11.0201 13.9732 11.0619C14.0754 11.1037 14.1683 11.1655 14.2464 11.2436C14.3244 11.3217 14.3862 11.4145 14.428 11.5167C14.4698 11.6189 14.4909 11.7285 14.4899 11.8389C14.4889 11.9493 14.466 12.0584 14.4224 12.1599C14.3788 12.2614 14.3155 12.3531 14.236 12.4299L10.9094 15.7565C10.7534 15.9124 10.5419 16 10.3214 16C10.1009 16 9.8894 15.9124 9.73344 15.7565L6.4068 12.4299C6.25089 12.2739 6.1633 12.0624 6.1633 11.8419C6.1633 11.6214 6.25089 11.4099 6.4068 11.2539Z" fill="#9CA3AF"/>
<path id="Vector_2" fill-rule="evenodd" clip-rule="evenodd" d="M14.2464 8.74586C14.0905 8.90177 13.879 8.98936 13.6585 8.98936C13.4379 8.98936 13.2264 8.90177 13.0705 8.74586L10.3318 6.0072L7.59316 8.74586C7.51644 8.82529 7.42468 8.88865 7.32321 8.93224C7.22174 8.97582 7.11261 8.99876 7.00219 8.99972C6.89176 9.00068 6.78225 8.97964 6.68004 8.93782C6.57783 8.89601 6.48497 8.83425 6.40689 8.75617C6.3288 8.67808 6.26705 8.58523 6.22523 8.48302C6.18341 8.38081 6.16237 8.2713 6.16333 8.16087C6.16429 8.05044 6.18723 7.94131 6.23082 7.83985C6.27441 7.73838 6.33776 7.64661 6.4172 7.56989L9.74383 4.24325C9.89979 4.08734 10.1113 3.99976 10.3318 3.99976C10.5523 3.99976 10.7638 4.08734 10.9198 4.24325L14.2464 7.56989C14.4024 7.72585 14.4899 7.93735 14.4899 8.15788C14.4899 8.3784 14.4024 8.5899 14.2464 8.74586Z" fill="#9CA3AF"/>
</g>
</svg>
