<svg width="32" height="32" viewBox="0 0 32 32" fill="none" xmlns="http://www.w3.org/2000/svg">
<path d="M27.2941 4H4.70588C4.31603 4 4 4.31603 4 4.70588V27.2941C4 27.684 4.31603 28 4.70588 28H27.2941C27.684 28 28 27.684 28 27.2941V4.70588C28 4.31603 27.684 4 27.2941 4Z" stroke="#9E9E9E" stroke-width="2" stroke-miterlimit="10"/>
<path d="M19.9997 14.6668C21.4724 14.6668 22.6663 13.4729 22.6663 12.0002C22.6663 10.5274 21.4724 9.3335 19.9997 9.3335C18.5269 9.3335 17.333 10.5274 17.333 12.0002C17.333 13.4729 18.5269 14.6668 19.9997 14.6668Z" stroke="#9E9E9E" stroke-width="2" stroke-miterlimit="10" stroke-linecap="round"/>
<path d="M28 23.0947L23.0588 18.1824L18.1176 22.393L11.1224 16L4 22.393V26.5964C4 27.3754 4.63529 28.007 5.41882 27.9999L26.5953 27.9017C27.3718 27.9017 28 27.2701 28 26.4982V23.0947Z" stroke="#9E9E9E" stroke-width="2" stroke-linecap="round" stroke-linejoin="round"/>
</svg>
