<svg width="24" height="24" viewBox="0 0 24 24" fill="none" xmlns="http://www.w3.org/2000/svg">
<path d="M20.4706 3H3.52941C3.23703 3 3 3.23703 3 3.52941V20.4706C3 20.763 3.23703 21 3.52941 21H20.4706C20.763 21 21 20.763 21 20.4706V3.52941C21 3.23703 20.763 3 20.4706 3Z" stroke="white" stroke-width="2" stroke-miterlimit="10"/>
<path d="M15 11C16.1046 11 17 10.1046 17 9C17 7.89543 16.1046 7 15 7C13.8954 7 13 7.89543 13 9C13 10.1046 13.8954 11 15 11Z" stroke="white" stroke-width="2" stroke-miterlimit="10" stroke-linecap="round"/>
<path d="M21 17.321L17.2941 13.6368L13.5882 16.7947L8.34177 12L3 16.7947V19.9473C3 20.5315 3.47647 21.0052 4.06412 21L19.9465 20.9263C20.5288 20.9263 21 20.4526 21 19.8736V17.321Z" stroke="white" stroke-width="2" stroke-linecap="round" stroke-linejoin="round"/>
</svg>
