<svg width="6" height="31" viewBox="0 0 6 31" fill="none" xmlns="http://www.w3.org/2000/svg">
<path id="Line 41" d="M3 5.66667C4.47276 5.66667 5.66667 4.47276 5.66667 3C5.66667 1.52724 4.47276 0.333334 3 0.333334C1.52724 0.333334 0.333335 1.52724 0.333334 3C0.333334 4.47276 1.52724 5.66667 3 5.66667ZM3.5 31L3.5 30L2.5 30L2.5 31L3.5 31ZM3.5 28L3.5 26L2.5 26L2.5 28L3.5 28ZM3.5 24L3.5 22L2.5 22L2.5 24L3.5 24ZM3.5 20L3.5 18L2.5 18L2.5 20L3.5 20ZM3.5 16L3.5 14L2.5 14L2.5 16L3.5 16ZM3.5 12L3.5 10L2.5 10L2.5 12L3.5 12ZM3.5 8L3.5 6L2.5 6L2.5 8L3.5 8ZM3.5 4L3.5 3L2.5 3L2.5 4L3.5 4Z" fill="white"/>
</svg>
