<svg xmlns="http://www.w3.org/2000/svg" width="30" height="30" viewBox="0 0 30 30" fill="none">
  <g filter="url(#filter0_bd_28_57108)">
    <rect x="5" y="5" width="16" height="16" rx="8" fill="url(#paint0_linear_28_57108)" shape-rendering="crispEdges"/>
    <rect x="4.5" y="4.5" width="17" height="17" rx="8.5" stroke="url(#paint1_linear_28_57108)" shape-rendering="crispEdges"/>
    <path fill-rule="evenodd" clip-rule="evenodd" d="M13 16C13.5523 16 14 16.4477 14 17C14 17.5523 13.5523 18 13 18C12.4477 18 12 17.5523 12 17C12 16.4477 12.4477 16 13 16ZM13 12C13.5523 12 14 12.4477 14 13C14 13.5523 13.5523 14 13 14C12.4477 14 12 13.5523 12 13C12 12.4477 12.4477 12 13 12ZM14 9C14 8.44771 13.5523 8 13 8C12.4477 8 12 8.44771 12 9C12 9.55229 12.4477 10 13 10C13.5523 10 14 9.55229 14 9Z" fill="white"/>
  </g>
  <defs>
    <filter id="filter0_bd_28_57108" x="-46" y="-46" width="118" height="118" filterUnits="userSpaceOnUse" color-interpolation-filters="sRGB">
      <feFlood flood-opacity="0" result="BackgroundImageFix"/>
      <feGaussianBlur in="BackgroundImageFix" stdDeviation="25"/>
      <feComposite in2="SourceAlpha" operator="in" result="effect1_backgroundBlur_28_57108"/>
      <feColorMatrix in="SourceAlpha" type="matrix" values="0 0 0 0 0 0 0 0 0 0 0 0 0 0 0 0 0 0 127 0" result="hardAlpha"/>
      <feOffset dx="2" dy="2"/>
      <feGaussianBlur stdDeviation="3"/>
      <feComposite in2="hardAlpha" operator="out"/>
      <feColorMatrix type="matrix" values="0 0 0 0 0 0 0 0 0 0 0 0 0 0 0 0 0 0 0.35 0"/>
      <feBlend mode="normal" in2="effect1_backgroundBlur_28_57108" result="effect2_dropShadow_28_57108"/>
      <feBlend mode="normal" in="SourceGraphic" in2="effect2_dropShadow_28_57108" result="shape"/>
    </filter>
    <linearGradient id="paint0_linear_28_57108" x1="5" y1="5.2" x2="16.9438" y2="23.6289" gradientUnits="userSpaceOnUse">
      <stop stop-color="white" stop-opacity="0.2"/>
      <stop offset="0.52" stop-color="white" stop-opacity="0.3"/>
      <stop offset="1" stop-color="white" stop-opacity="0.2"/>
    </linearGradient>
    <linearGradient id="paint1_linear_28_57108" x1="6.175" y1="4.56" x2="15.0379" y2="23.2303" gradientUnits="userSpaceOnUse">
      <stop stop-color="white" stop-opacity="0.6"/>
      <stop offset="0.36" stop-color="white" stop-opacity="0.3"/>
      <stop offset="0.7" stop-color="white" stop-opacity="0.3"/>
      <stop offset="1" stop-color="white" stop-opacity="0.6"/>
    </linearGradient>
  </defs>
</svg>