<svg width="38" height="38" viewBox="0 0 38 38" fill="none" xmlns="http://www.w3.org/2000/svg">
<g clip-path="url(#clip0_2938_17259)">
<rect width="38" height="38" rx="19" fill="#E7E0EC"/>
<path fill-rule="evenodd" clip-rule="evenodd" d="M25.4959 17.7722C26.3579 16.4881 26.8199 14.9773 26.8236 13.4308C26.8261 12.4018 26.6255 11.3824 26.2335 10.4311C25.8414 9.47969 25.2656 8.615 24.5388 7.88651C23.8121 7.15803 22.9488 6.58006 21.9984 6.18571C21.048 5.79136 20.0291 5.58838 19.0001 5.58838C17.4535 5.58838 15.9417 6.04676 14.6555 6.90558C13.3694 7.76441 12.3666 8.98516 11.7739 10.4136C11.1812 11.8421 11.0252 13.4142 11.3255 14.9313C11.6259 16.4484 12.3691 17.8424 13.4614 18.9373C14.5536 20.0322 15.9459 20.7788 17.4622 21.0828C18.9786 21.3868 20.551 21.2346 21.9809 20.6453C23.4108 20.0561 24.634 19.0562 25.4959 17.7722ZM13.4297 23.4337C15.1926 22.7203 17.0823 22.3531 18.9907 22.3531C20.9006 22.3507 22.7923 22.7161 24.5574 23.4284C26.3224 24.1407 27.9262 25.186 29.2767 26.5043C30.6273 27.8225 31.6981 29.388 32.4279 31.1108C33.1577 32.8337 33.532 34.6802 33.5295 36.5446C33.5295 37.5234 33.1311 38.4622 32.422 39.1544C31.7129 39.8466 30.7511 40.2354 29.7483 40.2354H8.25195C7.24911 40.2354 6.28733 39.8466 5.57821 39.1544C4.86909 38.4622 4.47072 37.5234 4.47072 36.5446C4.46823 34.6818 4.84195 32.8368 5.57054 31.1151C6.29912 29.3934 7.36827 27.8288 8.71682 26.5108C10.0654 25.1928 11.6669 24.1471 13.4297 23.4337Z" fill="#AEA9B4"/>
</g>
<rect x="0.5" y="0.5" width="37" height="37" rx="18.5" stroke="#E7E0EC"/>
<defs>
<clipPath id="clip0_2938_17259">
<rect width="38" height="38" rx="19" fill="white"/>
</clipPath>
</defs>
</svg>
