<svg xmlns="http://www.w3.org/2000/svg" width="13" height="14" viewBox="0 0 13 14" fill="none">
  <path d="M9.75004 11.875V10.7917C9.75004 10.217 9.52177 9.66593 9.11544 9.2596C8.70911 8.85327 8.15801 8.625 7.58337 8.625H3.25004C2.6754 8.625 2.1243 8.85327 1.71798 9.2596C1.31165 9.66593 1.08337 10.217 1.08337 10.7917V11.875" stroke="#333333" stroke-linecap="round" stroke-linejoin="round"/>
  <path d="M5.41667 6.45833C6.61328 6.45833 7.58333 5.48828 7.58333 4.29167C7.58333 3.09505 6.61328 2.125 5.41667 2.125C4.22005 2.125 3.25 3.09505 3.25 4.29167C3.25 5.48828 4.22005 6.45833 5.41667 6.45833Z" stroke="#333333" stroke-linecap="round" stroke-linejoin="round"/>
  <path fill-rule="evenodd" clip-rule="evenodd" d="M10.5625 2.66675C10.4129 2.66675 10.2916 2.788 10.2916 2.93758V4.29175H8.93746C8.78788 4.29175 8.66663 4.413 8.66663 4.56258C8.66663 4.71216 8.78788 4.83341 8.93746 4.83341H10.2916V6.18758C10.2916 6.33716 10.4129 6.45841 10.5625 6.45841C10.712 6.45841 10.8333 6.33716 10.8333 6.18758V4.83341H12.1875C12.337 4.83341 12.4583 4.71216 12.4583 4.56258C12.4583 4.413 12.337 4.29175 12.1875 4.29175H10.8333V2.93758C10.8333 2.788 10.712 2.66675 10.5625 2.66675Z" fill="#333333"/>
</svg>