<svg width="14" height="14" viewBox="0 0 14 14" fill="none" xmlns="http://www.w3.org/2000/svg">
<path fill-rule="evenodd" clip-rule="evenodd" d="M5.64946 3.5C5.64946 2.80964 6.2091 2.25 6.89946 2.25C7.58981 2.25 8.14946 2.80964 8.14946 3.5C8.14946 4.19036 7.58981 4.75 6.89946 4.75C6.2091 4.75 5.64946 4.19036 5.64946 3.5ZM6.89946 1.25C5.65681 1.25 4.64946 2.25736 4.64946 3.5C4.64946 4.74264 5.65681 5.75 6.89946 5.75C8.1421 5.75 9.14946 4.74264 9.14946 3.5C9.14946 2.25736 8.1421 1.25 6.89946 1.25ZM11.7339 11.75H2.26598C2.54488 9.73007 4.51313 8.08333 6.9998 8.08333C9.48767 8.08333 11.4579 9.72795 11.7339 11.75ZM6.9998 7.08333C4.03461 7.08333 1.51454 9.11053 1.25362 11.7984L1.25359 11.7984L1.25316 11.8034C1.21449 12.2484 1.53344 12.75 2.08182 12.75H11.9178C12.4647 12.75 12.7905 12.2528 12.7461 11.7991C12.4885 9.10657 9.96413 7.08333 6.9998 7.08333Z" fill="#EEEEEE"/>
</svg>
