<svg width="18" height="18" viewBox="0 0 18 18" fill="none" xmlns="http://www.w3.org/2000/svg">
<path fill-rule="evenodd" clip-rule="evenodd" d="M7.4793 4.8C7.4793 4.0268 8.1061 3.4 8.8793 3.4C9.65249 3.4 10.2793 4.0268 10.2793 4.8C10.2793 5.5732 9.65249 6.2 8.8793 6.2C8.1061 6.2 7.4793 5.5732 7.4793 4.8ZM8.8793 2C7.3329 2 6.0793 3.2536 6.0793 4.8C6.0793 6.3464 7.3329 7.6 8.8793 7.6C10.4257 7.6 11.6793 6.3464 11.6793 4.8C11.6793 3.2536 10.4257 2 8.8793 2ZM14.5644 14.6H3.43548C3.81958 12.2852 6.10398 10.4 8.99971 10.4C11.8971 10.4 14.1837 12.283 14.5644 14.6ZM8.99971 9C5.39955 9 2.32371 11.4627 2.00476 14.7484L2.00472 14.7484L2.00411 14.7554C1.95369 15.3357 2.36994 16 3.09813 16H14.9013C15.6268 16 16.0527 15.342 15.9948 14.7494C15.6799 11.4579 12.5987 9 8.99971 9Z" fill="#212121"/>
</svg>
