<svg width="10" height="10" viewBox="0 0 10 10" fill="none" xmlns="http://www.w3.org/2000/svg">
<g id="Views" clip-path="url(#clip0_3209_9390)">
<path id="Vector" d="M1.25 6.08317C1.25 5.8498 1.25 5.73313 1.29541 5.644C1.33536 5.56559 1.3991 5.50188 1.4775 5.46192C1.56663 5.4165 1.68331 5.4165 1.91667 5.4165H2.25C2.48335 5.4165 2.60003 5.4165 2.68916 5.46192C2.76756 5.50188 2.8313 5.56559 2.87125 5.644C2.91667 5.73313 2.91667 5.8498 2.91667 6.08317V8.08317C2.91667 8.31655 2.91667 8.43321 2.87125 8.52234C2.8313 8.60075 2.76756 8.66446 2.68916 8.70442C2.60003 8.74984 2.48335 8.74984 2.25 8.74984H1.91667C1.68331 8.74984 1.56663 8.74984 1.4775 8.70442C1.3991 8.66446 1.33536 8.60075 1.29541 8.52234C1.25 8.43321 1.25 8.31655 1.25 8.08317V6.08317Z" fill="#CCCCCC" fill-opacity="0.8" stroke="black" stroke-width="66.6667" stroke-linecap="round" stroke-linejoin="round"/>
<path id="Vector_2" d="M4.16699 1.91667C4.16699 1.68331 4.16699 1.56663 4.21241 1.4775C4.25237 1.3991 4.31608 1.33536 4.39449 1.29541C4.48362 1.25 4.60028 1.25 4.83366 1.25H5.16699C5.40037 1.25 5.51703 1.25 5.60616 1.29541C5.68458 1.33536 5.74828 1.3991 5.78824 1.4775C5.83366 1.56663 5.83366 1.68331 5.83366 1.91667V8.08333C5.83366 8.31671 5.83366 8.43337 5.78824 8.5225C5.74828 8.60092 5.68458 8.66463 5.60616 8.70458C5.51703 8.75 5.40037 8.75 5.16699 8.75H4.83366C4.60028 8.75 4.48362 8.75 4.39449 8.70458C4.31608 8.66463 4.25237 8.60092 4.21241 8.5225C4.16699 8.43337 4.16699 8.31671 4.16699 8.08333V1.91667Z" fill="#CCCCCC" fill-opacity="0.8" stroke="black" stroke-width="66.6667" stroke-linecap="round" stroke-linejoin="round"/>
<path id="Vector_3" d="M7.08301 4.41667C7.08301 4.18329 7.08301 4.06663 7.12842 3.9775C7.16838 3.8991 7.23209 3.83536 7.31051 3.79541C7.39963 3.75 7.5163 3.75 7.74967 3.75H8.08301C8.31638 3.75 8.43305 3.75 8.52217 3.79541C8.60059 3.83536 8.6643 3.8991 8.70426 3.9775C8.74967 4.06663 8.74967 4.18329 8.74967 4.41667V8.08333C8.74967 8.31671 8.74967 8.43337 8.70426 8.5225C8.6643 8.60092 8.60059 8.66463 8.52217 8.70458C8.43305 8.75 8.31638 8.75 8.08301 8.75H7.74967C7.5163 8.75 7.39963 8.75 7.31051 8.70458C7.23209 8.66463 7.16838 8.60092 7.12842 8.5225C7.08301 8.43337 7.08301 8.31671 7.08301 8.08333V4.41667Z" fill="#CCCCCC" fill-opacity="0.8" stroke="black" stroke-width="66.6667" stroke-linecap="round" stroke-linejoin="round"/>
</g>
<defs>
<clipPath id="clip0_3209_9390">
<rect width="10" height="10" fill="white"/>
</clipPath>
</defs>
</svg>
