<svg width="38" height="38" viewBox="0 0 38 38" fill="none" xmlns="http://www.w3.org/2000/svg">
<g id="Frame 554">
<g id="Vector" filter="url(#filter0_d_1760_17317)">
<path d="M17.6667 31C17.6667 31 16 31 16 29.3333C16 27.6667 17.6667 22.6667 24.3333 22.6667C31 22.6667 32.6667 27.6667 32.6667 29.3333C32.6667 31 31 31 31 31H17.6667ZM24.3333 21C25.6594 21 26.9312 20.4732 27.8689 19.5355C28.8066 18.5979 29.3333 17.3261 29.3333 16C29.3333 14.6739 28.8066 13.4021 27.8689 12.4645C26.9312 11.5268 25.6594 11 24.3333 11C23.0073 11 21.7355 11.5268 20.7978 12.4645C19.8601 13.4021 19.3333 14.6739 19.3333 16C19.3333 17.3261 19.8601 18.5979 20.7978 19.5355C21.7355 20.4732 23.0073 21 24.3333 21ZM14.6933 31C14.4464 30.4797 14.3232 29.9092 14.3333 29.3333C14.3333 27.075 15.4667 24.75 17.56 23.1333C16.5153 22.8107 15.4266 22.6533 14.3333 22.6667C7.66667 22.6667 6 27.6667 6 29.3333C6 31 7.66667 31 7.66667 31H14.6933ZM13.5 21C14.6051 21 15.6649 20.561 16.4463 19.7796C17.2277 18.9982 17.6667 17.9384 17.6667 16.8333C17.6667 15.7283 17.2277 14.6685 16.4463 13.8871C15.6649 13.1057 14.6051 12.6667 13.5 12.6667C12.3949 12.6667 11.3351 13.1057 10.5537 13.8871C9.77232 14.6685 9.33333 15.7283 9.33333 16.8333C9.33333 17.9384 9.77232 18.9982 10.5537 19.7796C11.3351 20.561 12.3949 21 13.5 21Z" fill="#F4F8FB"/>
</g>
</g>
<defs>
<filter id="filter0_d_1760_17317" x="5" y="10" width="28.6666" height="22" filterUnits="userSpaceOnUse" color-interpolation-filters="sRGB">
<feFlood flood-opacity="0" result="BackgroundImageFix"/>
<feColorMatrix in="SourceAlpha" type="matrix" values="0 0 0 0 0 0 0 0 0 0 0 0 0 0 0 0 0 0 127 0" result="hardAlpha"/>
<feOffset/>
<feGaussianBlur stdDeviation="0.5"/>
<feComposite in2="hardAlpha" operator="out"/>
<feColorMatrix type="matrix" values="0 0 0 0 0 0 0 0 0 0 0 0 0 0 0 0 0 0 0.45 0"/>
<feBlend mode="normal" in2="BackgroundImageFix" result="effect1_dropShadow_1760_17317"/>
<feBlend mode="normal" in="SourceGraphic" in2="effect1_dropShadow_1760_17317" result="shape"/>
</filter>
</defs>
</svg>
