<svg xmlns="http://www.w3.org/2000/svg" width="36" height="36" viewBox="0 0 36 36" fill="none">
  <path d="M13.8 10.375C13.8 7.95875 15.6804 6 18 6C20.3196 6 22.2 7.95875 22.2 10.375V17.6667C22.2 20.0829 20.3196 22.0417 18 22.0417C15.6804 22.0417 13.8 20.0829 13.8 17.6667V10.375Z" fill="#FC2D7C"/>
  <path d="M11.7 15.4792C12.0866 15.4792 12.4 15.8056 12.4 16.2083V17.6667C12.4 20.8883 14.9072 23.5 18 23.5C21.0928 23.5 23.6 20.8883 23.6 17.6667V16.2083C23.6 15.8056 23.9134 15.4792 24.3 15.4792C24.6866 15.4792 25 15.8056 25 16.2083V17.6667C25 21.4476 22.2373 24.5565 18.7 24.9223V27.875H22.9C23.2866 27.875 23.6 28.2015 23.6 28.6042C23.6 29.0069 23.2866 29.3333 22.9 29.3333H13.1C12.7134 29.3333 12.4 29.0069 12.4 28.6042C12.4 28.2015 12.7134 27.875 13.1 27.875H17.3V24.9223C13.7627 24.5565 11 21.4476 11 17.6667V16.2083C11 15.8056 11.3134 15.4792 11.7 15.4792Z" fill="#FC2D7C"/>
</svg>