<svg xmlns="http://www.w3.org/2000/svg" width="36" height="36" viewBox="0 0 36 36" fill="none">
  <rect x="0.5" y="0.5" width="35" height="35" rx="17.5" stroke="#FC2D7C"/>
  <path fill-rule="evenodd" clip-rule="evenodd" d="M13 11C12.4477 11 12 11.4477 12 12V24C12 24.5523 12.4477 25 13 25H15C15.5523 25 16 24.5523 16 24V12C16 11.4477 15.5523 11 15 11H13ZM21 11C20.4477 11 20 11.4477 20 12V24C20 24.5523 20.4477 25 21 25H23C23.5523 25 24 24.5523 24 24V12C24 11.4477 23.5523 11 23 11H21Z" fill="#FC2D7C"/>
</svg>