<svg width="13" height="12" viewBox="0 0 13 12" fill="none" xmlns="http://www.w3.org/2000/svg">
<path d="M8.89355 3.78931C10.4838 4.49106 10.4838 6.73668 9.24694 7.57878" stroke="white" stroke-linecap="round"/>
<path d="M10.1348 2.10522C12.2551 3.43076 12.2551 7.67248 10.6059 9.26312" stroke="white" stroke-linecap="round"/>
<path d="M0 7.05263V4.73684C0 3.63227 0.895431 2.73684 2 2.73684H2.39901C2.72516 2.73684 3.04636 2.65708 3.33461 2.50451L5.13088 1.55377C6.46288 0.848766 8.06648 1.81438 8.06648 3.32144V8.55791C8.06648 10.0926 6.40938 11.0555 5.07608 10.2955L3.35609 9.31508C3.05434 9.14308 2.71301 9.05263 2.36568 9.05263H2C0.895431 9.05263 0 8.1572 0 7.05263Z" fill="white"/>
</svg>
