<svg width="16" height="16" viewBox="0 0 16 16" fill="none" xmlns="http://www.w3.org/2000/svg">
<g clip-path="url(#clip0_75_344)">
<path d="M7.33335 9.99996V4.66663H8.66669V9.99996H7.33335Z" fill="#FFAD0D"/>
<path d="M7.33335 12V10.6666H8.66669V12H7.33335Z" fill="#FFAD0D"/>
<path d="M15.3334 7.99996C15.3334 12.05 12.0501 15.3333 8.00002 15.3333C3.94993 15.3333 0.666687 12.05 0.666687 7.99996C0.666687 3.94987 3.94993 0.666626 8.00002 0.666626C12.0501 0.666626 15.3334 3.94987 15.3334 7.99996ZM14 7.99996C14 4.68625 11.3137 1.99996 8.00002 1.99996C4.68631 1.99996 2.00002 4.68625 2.00002 7.99996C2.00002 11.3137 4.68631 14 8.00002 14C11.3137 14 14 11.3137 14 7.99996Z" fill="#FFAD0D"/>
</g>
<defs>
<clipPath id="clip0_75_344">
<rect width="16" height="16" fill="white"/>
</clipPath>
</defs>
</svg>
