<svg xmlns="http://www.w3.org/2000/svg" width="25" height="52" viewBox="0 0 25 52" fill="none">
  <g clip-path="url(#clip0_2573_58483)">
    <path d="M24.8347 48.9987C24.7324 48.7079 24.1392 48.641 23.9877 48.6919C23.8178 48.7491 23.9896 48.5616 23.3752 48.4134C23.1095 48.3493 23.4471 47.9234 23.0234 47.9358C22.7102 47.945 23.3853 47.179 22.1907 46.8681C21.2328 46.6189 22.8428 46.6313 21.931 44.7727C21.6201 44.1393 21.4759 43.4915 21.5883 42.7919C21.7831 41.58 21.1444 40.7546 20.8565 38.991C20.7851 38.5547 20.851 37.6668 20.466 36.8087C20.1275 36.0542 20.4061 35.803 20.2228 35.0707C20.2214 35.0654 18.9642 30.1483 18.8053 28.4263C18.7251 27.5609 19.0963 28.0597 18.8831 27.3734C18.2807 25.4379 18.7772 24.4375 19.0627 23.6222C19.1166 23.4679 20.3039 30.7389 20.7009 31.4612C20.7939 31.6311 20.7239 31.7673 20.6143 31.8939C20.4535 32.0794 20.5429 32.4841 20.7847 32.5642C21.2848 32.7301 21.0412 33.0798 21.9558 33.1908C22.3427 33.2377 22.6959 33.1536 22.7328 32.8042C22.7931 32.2293 22.9819 32.0882 22.7733 31.6792C22.3606 30.8691 21.6463 29.5966 21.6984 28.0325C21.7836 25.4852 21.0569 24.7977 21.4018 23.6815C21.7209 22.649 21.2424 22.0588 21.7859 20.7752C21.8034 20.7335 21.8158 20.6598 21.8416 20.6554C22.1737 20.5997 22.0746 20.3465 22.1023 20.1722C22.3699 18.4718 20.9247 17.0143 19.6918 16.6741C19.1428 16.5227 19.0466 16.1353 19.0678 15.7022C19.0936 15.1673 19.083 14.6296 19.2069 14.1008C19.2161 14.0623 19.5624 13.0779 19.619 13.1028C19.8521 13.2037 19.9147 13.1444 20.2914 12.037C20.3527 11.8572 20.2831 11.7526 20.1749 11.753C20.1841 11.7506 20.1933 11.7482 20.203 11.7466C20.3006 11.7309 20.2477 11.7386 20.2854 11.6721C20.3112 11.6268 20.3158 11.6384 20.279 11.5763C20.2523 11.5306 20.273 11.4862 20.2514 11.4397C20.2311 11.3952 20.2127 11.3608 20.2219 11.3103C20.2343 11.3007 20.2481 11.2922 20.2629 11.2854C20.2228 11.2442 20.2113 11.2253 20.2145 11.1532C20.2154 11.1328 20.2265 11.1248 20.2431 11.1236C20.2822 11.1644 20.3306 11.1997 20.3868 11.2197C20.4489 11.2434 20.518 11.2422 20.5783 11.2269C20.4899 11.2333 20.4126 11.2025 20.3541 11.1536C20.3679 11.1584 20.3799 11.162 20.3868 11.1616C20.3849 11.0663 20.2859 11.0302 20.2624 10.9409C20.2532 10.9064 20.2131 10.7313 20.2357 10.7041C20.2481 10.7033 20.2587 10.7053 20.2675 10.7089C20.3085 10.7914 20.3518 10.878 20.4406 10.9297C20.3601 10.8547 20.3393 10.7558 20.2988 10.6592C20.2947 10.6244 20.291 10.5927 20.291 10.5927C20.2997 10.5939 20.3085 10.5959 20.3168 10.5979C20.3656 10.6188 20.4116 10.6472 20.4526 10.6833C20.5521 10.7666 20.6318 10.8756 20.716 10.9789C20.6755 10.894 20.635 10.8079 20.5797 10.7269C20.5807 10.7225 20.5807 10.7181 20.5811 10.7137C20.6424 10.755 20.7082 10.7926 20.7851 10.8055C20.6916 10.7686 20.6304 10.7005 20.5599 10.6348C20.5226 10.5743 20.4439 10.529 20.3743 10.4982C20.2997 10.4541 20.221 10.4164 20.1413 10.3832C20.0966 10.3647 20.0515 10.3471 20.0064 10.3307L20.0008 10.3423C19.9967 10.3363 19.993 10.3299 19.9912 10.3227C20.0736 10.281 20.1325 10.2197 20.1933 10.1616C20.1266 10.2017 20.0607 10.247 19.9916 10.2754C19.9842 10.259 19.9608 10.2574 19.9202 10.2706C19.9175 10.2417 19.9009 10.2237 19.8696 10.2173C19.8263 10.2033 19.766 10.1656 19.7904 10.1207C19.8364 10.1191 19.8829 10.1135 19.9276 10.0991C19.9939 10.0791 20.0483 10.0314 20.0695 9.97571C19.9971 10.0787 19.8613 10.0779 19.7448 10.0603C19.6867 10.0442 19.6158 10.0422 19.596 9.99254C19.6154 10.0002 19.6365 10.0066 19.6614 10.0074C19.696 10.0114 19.7342 9.98533 19.7411 9.95889C19.7586 9.9076 19.748 9.86073 19.7397 9.81465C19.7369 9.86033 19.7337 9.91041 19.7107 9.94607C19.6886 9.98172 19.6481 9.96049 19.6094 9.93525C19.5338 9.88156 19.4689 9.80905 19.404 9.73853C19.3717 9.70287 19.34 9.66682 19.3068 9.63036C19.2902 9.61193 19.2736 9.5939 19.2552 9.57507C19.2451 9.56545 19.2373 9.55664 19.2198 9.54382C19.1921 9.52739 19.1903 9.52819 19.1742 9.52018C19.1456 9.50736 19.1157 9.49654 19.0857 9.48693C19.0563 9.46689 19.0263 9.44726 18.9955 9.42843C19.0526 9.36833 19.048 9.285 19.0378 9.22049C19.0328 9.29101 19.0107 9.36994 18.9545 9.40399C18.8034 9.31625 18.6404 9.24654 18.4709 9.19485C18.5349 9.08187 18.5446 8.96368 18.5699 8.84909C18.5151 8.96088 18.4751 9.08427 18.4 9.17402C18.347 9.1596 18.2936 9.14678 18.2402 9.13596C18.2079 9.07386 18.1628 9.01376 18.1191 9.01777C18.1112 9.01416 18.1025 9.01096 18.0928 9.00855C18.0721 9.00495 18.0541 9.00575 18.0385 9.00855C18.0573 8.97009 18.0772 8.93123 18.0956 8.89116C18.1412 8.79501 18.1739 8.67762 18.1301 8.57665C18.1504 8.74092 18.0362 8.86031 17.9542 9.00375C17.9487 9.00054 17.9427 8.99733 17.9367 8.99533C17.9178 8.93804 17.9012 8.88075 17.8971 8.82025C17.9233 8.80623 17.9496 8.7902 17.9726 8.76776C17.9979 8.74012 18.0122 8.71448 18.0274 8.68643C18.0564 8.63114 18.0748 8.57305 18.0891 8.51495C18.061 8.56864 18.0297 8.62113 17.9924 8.6684C17.9551 8.71969 17.9164 8.75013 17.8547 8.76977C17.8386 8.77578 17.8216 8.78139 17.8041 8.7878C17.8478 8.68363 17.8639 8.57104 17.8409 8.46568C17.834 8.58587 17.7893 8.69485 17.7207 8.7894C17.7142 8.7926 17.7073 8.79621 17.699 8.80102C17.676 8.81464 17.6548 8.82826 17.635 8.84228C17.5853 8.71648 17.489 8.59068 17.3449 8.55262C17.4803 8.62393 17.5365 8.75574 17.5646 8.88275C17.5655 8.88635 17.566 8.89036 17.5669 8.89397C17.536 8.91961 17.507 8.94685 17.4757 8.9781C17.4531 9.00094 17.4181 9.0358 17.3804 9.06705C17.361 9.06705 17.3421 9.06705 17.3228 9.06705C17.2482 9.06625 17.1703 9.06865 17.093 9.07626C17.0022 9.06865 16.9115 9.06865 16.8222 9.07266C16.8678 9.08027 16.9129 9.08788 16.9585 9.09589C16.9194 9.10351 16.8807 9.11312 16.8429 9.12474C16.7683 9.14557 16.6964 9.16641 16.6237 9.15919C16.5505 9.15238 16.4782 9.11953 16.4095 9.08508C16.468 9.13275 16.5316 9.18003 16.614 9.20166C16.6978 9.2241 16.7853 9.21048 16.8627 9.19846C16.9341 9.18484 17.0055 9.17843 17.0769 9.17522C16.9134 9.2217 16.7572 9.2866 16.614 9.36954C16.5845 9.35551 16.5541 9.34229 16.5205 9.33228C16.4634 9.31465 16.4192 9.31945 16.3718 9.32266C16.3271 9.32707 16.2847 9.33548 16.2437 9.34389C16.2097 9.30343 16.1765 9.25495 16.1424 9.23332C16.1466 9.24373 16.1507 9.25375 16.1553 9.26376C16.1175 9.21288 16.0862 9.15759 16.065 9.0975C16.0724 9.18924 16.1088 9.27819 16.1599 9.35952C16.1452 9.36192 16.1309 9.36353 16.1166 9.36473C16.036 9.37514 15.9531 9.3475 15.9002 9.283C15.9324 9.35591 16.0227 9.4104 16.1166 9.41241C16.1438 9.41441 16.1705 9.41441 16.1968 9.41361C16.2161 9.44045 16.2373 9.46609 16.2589 9.49093C16.2787 9.51297 16.2995 9.5342 16.3216 9.55503C16.2106 9.55664 16.0954 9.5354 15.9831 9.50616C16.0752 9.55263 16.1793 9.5935 16.2893 9.61193C16.2691 9.63116 16.2493 9.65079 16.2299 9.67122C16.1899 9.68244 16.1507 9.69526 16.1143 9.71209C16.0517 9.72571 15.9909 9.74053 15.931 9.75095C15.8491 9.76578 15.7671 9.77379 15.6874 9.75696C15.6077 9.74174 15.5345 9.69847 15.4737 9.64198C15.5184 9.70888 15.5838 9.77018 15.6708 9.80223C15.7569 9.83589 15.8537 9.83909 15.943 9.83348C15.9568 9.83268 15.9706 9.83148 15.9845 9.82988C15.932 9.86754 15.8868 9.90841 15.8412 9.94687C15.745 10.0294 15.6312 10.1079 15.4875 10.0879C15.5525 10.1107 15.6294 10.1123 15.6989 10.0911C15.7652 10.0727 15.8237 10.0394 15.8781 10.0046C15.879 10.007 15.8799 10.0094 15.8813 10.0118C15.8854 10.0058 15.891 9.99935 15.8974 9.99214C15.9518 9.95688 16.0056 9.91642 16.0586 9.88637C16.0245 9.93805 15.9932 9.99254 15.9646 10.0494C15.9462 10.0607 15.9273 10.0723 15.9085 10.0831C15.8283 10.1304 15.8145 10.1917 15.756 10.2486C15.7464 10.2582 15.7358 10.2678 15.7247 10.2778C15.651 10.2846 15.5783 10.2874 15.5152 10.2482C15.5502 10.2878 15.61 10.3026 15.6644 10.307C15.6731 10.3078 15.6814 10.3083 15.6902 10.3087C15.6602 10.3355 15.6298 10.3635 15.6054 10.3932C15.5437 10.4673 15.6087 10.4825 15.6096 10.5166C15.6027 10.5162 15.5958 10.5154 15.5888 10.5142C15.4608 10.4893 15.3945 10.3407 15.3636 10.2113C15.3632 10.2802 15.3696 10.3507 15.3968 10.4192C15.4152 10.4681 15.4493 10.5186 15.5009 10.5534C15.5 10.5835 15.5327 10.6019 15.5598 10.6288C15.5658 10.6348 15.5677 10.6428 15.5667 10.6524C15.5129 10.6809 15.4558 10.6997 15.4 10.6929C15.3664 10.6572 15.3314 10.6228 15.2909 10.5931C15.29 10.6228 15.3107 10.6488 15.3369 10.6732C15.2554 10.6336 15.1905 10.5575 15.1301 10.4845C15.173 10.5711 15.2209 10.6616 15.319 10.7221C15.3503 10.741 15.389 10.7522 15.4286 10.755C15.4378 10.767 15.4433 10.7786 15.4424 10.791C15.4359 10.8006 15.4281 10.8091 15.4203 10.8175C15.4166 10.8183 15.4125 10.8191 15.4088 10.8195C15.3208 10.8347 15.2278 10.876 15.1711 10.9397C15.114 11.0014 15.0717 11.0663 15.0201 11.1284C15.0855 11.0787 15.1444 11.0202 15.2075 10.9733C15.2296 10.9565 15.2531 10.9433 15.2775 10.9329C15.2619 10.9497 15.2494 10.9689 15.2421 10.9918C15.1942 11.0398 15.1555 11.0943 15.1306 11.1528C15.1937 11.0675 15.2757 11.0086 15.3669 10.9633C15.3659 10.9709 15.3646 10.9781 15.3636 10.9857C15.3438 11.1055 15.3181 11.2269 15.2517 11.3255C15.2186 11.374 15.1716 11.4144 15.1103 11.4333C15.0491 11.4529 14.9786 11.4505 14.9105 11.4377C14.9736 11.4637 15.0454 11.4813 15.1209 11.4705C15.1965 11.4609 15.2655 11.418 15.3121 11.3648C15.3646 11.3047 15.3991 11.2374 15.424 11.1676C15.4217 11.2173 15.4148 11.2654 15.3899 11.3091C15.3696 11.3443 15.2982 11.4641 15.2729 11.5446C15.2688 11.5483 15.2642 11.5515 15.26 11.5551C15.2061 11.5955 15.1486 11.6376 15.0763 11.648C15.1426 11.6524 15.2066 11.6272 15.2642 11.5983C15.2646 11.6039 15.2665 11.6088 15.2688 11.6124C15.2665 11.6092 15.2665 11.6031 15.2688 11.5959C15.2748 11.5931 15.2803 11.5899 15.2863 11.5871C15.3503 11.5527 15.4097 11.5122 15.4659 11.4693C15.4792 11.4589 15.4926 11.4485 15.506 11.4381C15.5239 11.515 15.5391 11.5815 15.5142 11.6733C15.3332 11.5647 15.2835 11.6564 15.3038 11.7846C15.3227 11.9028 15.4673 12.777 15.6441 12.9333C15.7726 13.0471 16.206 14.2402 16.2143 14.3063C16.2806 14.8504 15.5534 15.5042 15.249 15.1425C14.2781 13.9894 13.9903 14.344 13.7914 13.6969C13.6223 13.1472 13.1466 13.2963 13.0596 12.741C12.8472 11.388 12.6469 10.9701 12.0367 10.1207C11.3749 9.20006 11.6641 8.00774 10.4087 5.24968C10.2765 4.95961 10.0941 4.34943 10.1379 3.93315L10.2249 3.9023C10.2199 3.86865 10.2355 3.83499 10.2562 3.80575C10.2853 3.76568 10.3198 3.72281 10.3645 3.69877C10.7836 3.47121 11.0046 3.05934 11.4315 2.83859C11.5568 2.77368 11.6678 2.68554 11.776 2.599C11.8704 2.52368 11.9879 2.43193 11.8916 2.31213C11.8041 2.20396 11.6581 2.19555 11.5149 2.24122C11.339 2.29731 11.1967 2.39026 11.0636 2.50805C10.6482 2.87424 10.0674 2.80814 9.76807 2.36903C9.60274 2.12623 9.50004 1.86221 9.41668 1.59017C9.25089 1.0501 9.05976 0.516434 8.81061 0H8.58909C8.45737 0.139425 8.52369 0.286463 8.56698 0.4331C8.70929 0.913476 8.84929 1.39385 8.99298 1.87383C9.01417 1.94474 9.05884 2.02207 8.95337 2.06053C8.85344 2.09699 8.80048 2.02086 8.76041 1.95997C8.53566 1.62022 8.31046 1.28047 8.09539 0.935912C7.95815 0.715957 7.7859 0.518838 7.60675 0.325326C7.53215 0.244395 7.44188 0.188705 7.32122 0.256014C7.18904 0.329733 7.20977 0.428292 7.28207 0.52605C7.64682 1.01885 7.91762 1.55451 8.22388 2.07415C8.27316 2.15749 8.39566 2.27407 8.26671 2.3498C8.13269 2.42872 8.05808 2.2877 7.99177 2.20997C7.65649 1.81734 7.32905 1.41989 6.99608 1.02606C6.94173 0.961954 6.8814 0.899453 6.81278 0.847369C6.7437 0.795685 6.6585 0.794483 6.58527 0.84817C6.51804 0.89785 6.52402 0.962755 6.56179 1.02325C6.61475 1.10779 6.67278 1.18952 6.73173 1.27085C7.01772 1.66309 7.30602 2.05452 7.59017 2.44755C7.62748 2.49924 7.70577 2.56294 7.65926 2.61783C7.59156 2.69716 7.50958 2.61542 7.4382 2.59259C7.12595 2.49243 6.91318 2.27407 6.66863 2.09378C6.56962 2.02086 6.47428 1.94554 6.35362 1.90067C6.28086 1.87343 6.20901 1.86461 6.15559 1.92912C6.11046 1.984 6.13118 2.0433 6.17862 2.08256C6.46369 2.31975 6.65758 2.63666 7.01542 2.80934C7.23924 2.91751 7.40826 3.06976 7.54366 3.25766C7.83656 3.66472 8.09354 4.09101 8.41546 4.48204C9.09752 6.91156 9.20898 9.06825 9.70175 10.305C10.2954 11.7963 10.3069 12.9036 10.3801 13.4461C10.5293 14.5495 10.2935 14.1761 10.4271 14.7939C10.6003 15.5956 10.8448 15.7911 10.7974 16.3801C10.7232 17.3007 11.251 17.7559 11.2736 18.3492C11.3049 19.1878 11.6673 20.9635 11.0521 22.8125C10.5445 24.3369 10.5832 24.982 10.2756 25.7997C10.0403 26.4243 9.68195 27.2324 9.91913 27.4948C10.2811 27.8951 7.25858 34.2321 7.20056 35.0707C7.15358 35.7437 7.00252 35.4228 6.2827 37.3459C5.80604 38.62 6.21914 38.0062 6.05013 38.6893C5.69044 40.142 4.92272 41.5643 4.85318 42.8745C4.76107 44.6125 3.94914 45.5576 3.72762 46.3977C3.4582 47.4206 4.31343 47.3224 3.5563 47.7848C3.13168 48.044 2.41323 48.3193 2.45883 49.2692C2.4685 49.4659 2.39297 49.5368 2.18435 49.55C2.01763 49.5605 1.86243 49.9234 1.99414 49.9751C2.22441 50.0649 1.96559 50.2652 1.67499 50.2876C1.17898 50.3261 1.47695 50.6582 1.24576 50.621C0.963451 50.5753 0.729036 50.7247 0.46837 50.7652C0.106845 50.8217 0.108227 50.8293 0 51.1202V51.7644C0.370275 51.9163 0.771867 51.9247 1.16471 51.9507C2.7066 52.0525 3.28043 52.0381 4.41428 51.5525C5.23036 51.2027 5.38649 51.3245 6.33658 50.9279C6.73725 50.7608 6.63317 50.2768 6.88509 50.1406C7.11858 50.014 8.37447 41.9922 12.7275 34.0298C13.3267 32.934 14.5259 33.0474 14.986 34.3531C15.4419 35.6468 15.3448 36.4937 15.9499 37.1083C16.5868 37.755 16.1014 38.1152 16.993 39.4085C17.3274 39.8936 17.5204 42.7995 18.1412 43.6934C18.2715 43.8809 18.2149 45.5892 18.9775 47.8966C19.0199 48.0244 19.059 48.1554 19.0756 48.2876C19.1387 48.7892 19.5481 48.8273 19.6425 49.0733C19.9672 49.9158 20.676 49.675 21.463 50.1402C22.4177 50.7047 24.4893 49.9042 25.0005 49.6706V49.5096C24.9042 49.3509 24.8945 49.169 24.8351 49.0004L24.8347 48.9987Z" fill="white"/>
  </g>
  <defs>
    <clipPath id="clip0_2573_58483">
      <rect width="25" height="52" fill="white" transform="translate(0 -0.000976562)"/>
    </clipPath>
  </defs>
</svg>