<svg width="28" height="28" viewBox="0 0 28 28" fill="none" xmlns="http://www.w3.org/2000/svg">
<g id="whatsapp" clip-path="url(#clip0_803_14810)">
<rect id="Rectangle 8070" x="6.3623" y="5" width="17" height="18" fill="white"/>
<path id="Vector" d="M23.8 4.0775C21.21 1.4525 17.675 0 13.9825 0C6.3525 0 0.1225 6.23 0.105 13.8775C0.105 16.3275 0.7525 18.7075 1.96 20.825L0 28.0175L7.35 26.0925C9.38 27.195 11.6725 27.79 13.9825 27.79C21.63 27.79 27.86 21.56 27.86 13.9125C27.86 10.2375 26.39 6.7025 23.7825 4.095L23.8 4.0775ZM21.5075 18.5325C21.21 19.3375 19.8275 20.09 19.1625 20.1775C18.5675 20.265 17.815 20.3 16.975 20.0375C16.4675 19.88 15.82 19.67 14.9975 19.3025C11.515 17.7975 9.24 14.2975 9.0825 14.07C8.9075 13.8425 7.665 12.1975 7.665 10.4825C7.665 8.7675 8.5575 7.9275 8.8725 7.595C9.1 7.3325 9.45 7.175 9.8 7.1575C10.0275 7.1575 10.2725 7.1575 10.465 7.1575C10.675 7.1575 10.9725 7.07 11.235 7.7525C11.5325 8.435 12.215 10.15 12.3025 10.325C12.39 10.5 12.4425 10.6925 12.3375 10.9375C12.215 11.165 12.1625 11.3225 11.9875 11.515C11.8125 11.7075 11.62 11.97 11.4625 12.1275C11.2875 12.3025 11.1125 12.495 11.305 12.8275C11.515 13.1775 12.1975 14.315 13.23 15.225C14.56 16.415 15.68 16.7825 16.0125 16.9575C16.3625 17.1325 16.5725 17.0975 16.765 16.87C16.9575 16.6425 17.6225 15.855 17.8675 15.5225C18.095 15.1725 18.3225 15.2425 18.6375 15.3475C18.9525 15.47 20.6675 16.31 21 16.485C21.35 16.66 21.5775 16.7475 21.665 16.8875C21.7525 17.0275 21.7525 17.7275 21.4725 18.5325H21.5075Z" fill="#00D25C"/>
</g>
<defs>
<clipPath id="clip0_803_14810">
<rect width="27.8775" height="28" fill="white"/>
</clipPath>
</defs>
</svg>
