<svg width="167" height="162" viewBox="0 0 167 162" fill="none" xmlns="http://www.w3.org/2000/svg">
<g id="Property 1=Variant3">
<g id="Vector" filter="url(#filter0_di_4229_8876)">
<path d="M125 60.5341C125 48.6412 115.35 39 103.447 39C95.6108 39 88.7719 43.1927 84.9997 49.4418C81.2273 43.1927 74.3886 39 66.5522 39C54.6492 39 45 48.6412 45 60.5341C45 63.2529 45.5255 65.8433 46.4455 68.2386C53.572 88.7199 84.9999 111.195 84.9999 111.195C84.9999 111.195 116.428 88.7199 123.554 68.2386C124.474 65.8435 125 63.2529 125 60.5341Z" fill="#FE438B"/>
</g>
<path id="Vector_2" d="M94.9999 5.36898C94.9999 2.40378 92.7082 0 89.8812 0C88.0201 0 86.3958 1.04534 85.4999 2.60338C84.604 1.04534 82.9798 0 81.1186 0C78.2917 0 76 2.40378 76 5.36898C76 6.04683 76.1248 6.6927 76.3433 7.28989C78.0358 12.3964 85.5 18 85.5 18C85.5 18 92.9641 12.3964 94.6567 7.28989C94.8752 6.69275 94.9999 6.04683 94.9999 5.36898Z" fill="#FE438B" fill-opacity="0.2"/>
<path id="Vector_3" d="M18.9999 29.0707C18.9999 26.2702 16.7082 24 13.8812 24C12.0201 24 10.3958 24.9873 9.49993 26.4588C8.60398 24.9873 6.97978 24 5.11864 24C2.29169 24 0 26.2702 0 29.0707C0 29.7109 0.1248 30.3209 0.343299 30.8849C2.03584 35.7077 9.49998 41 9.49998 41C9.49998 41 16.9641 35.7077 18.6567 30.8849C18.8752 30.3209 18.9999 29.7109 18.9999 29.0707Z" fill="#FE438B" fill-opacity="0.2"/>
<path id="Vector_4" d="M167 29.0707C167 26.2702 164.708 24 161.881 24C160.02 24 158.396 24.9873 157.5 26.4588C156.604 24.9873 154.98 24 153.119 24C150.292 24 148 26.2702 148 29.0707C148 29.7109 148.125 30.3209 148.343 30.8849C150.036 35.7077 157.5 41 157.5 41C157.5 41 164.964 35.7077 166.657 30.8849C166.875 30.3209 167 29.7109 167 29.0707Z" fill="#FE438B" fill-opacity="0.2"/>
<path id="Vector_5" d="M18.9999 109.071C18.9999 106.27 16.7082 104 13.8812 104C12.0201 104 10.3958 104.987 9.49993 106.459C8.60398 104.987 6.97978 104 5.11864 104C2.29169 104 0 106.27 0 109.071C0 109.711 0.1248 110.321 0.343299 110.885C2.03584 115.708 9.49998 121 9.49998 121C9.49998 121 16.9641 115.708 18.6567 110.885C18.8752 110.321 18.9999 109.711 18.9999 109.071Z" fill="#FE438B" fill-opacity="0.2"/>
<path id="Vector_6" d="M94.9999 139.071C94.9999 136.27 92.7082 134 89.8812 134C88.0201 134 86.3958 134.987 85.4999 136.459C84.604 134.987 82.9798 134 81.1186 134C78.2917 134 76 136.27 76 139.071C76 139.711 76.1248 140.321 76.3433 140.885C78.0358 145.708 85.5 151 85.5 151C85.5 151 92.9641 145.708 94.6567 140.885C94.8752 140.321 94.9999 139.711 94.9999 139.071Z" fill="#FE438B" fill-opacity="0.2"/>
<path id="Vector_7" d="M167 109.071C167 106.27 164.708 104 161.881 104C160.02 104 158.396 104.987 157.5 106.459C156.604 104.987 154.98 104 153.119 104C150.292 104 148 106.27 148 109.071C148 109.711 148.125 110.321 148.343 110.885C150.036 115.708 157.5 121 157.5 121C157.5 121 164.964 115.708 166.657 110.885C166.875 110.321 167 109.711 167 109.071Z" fill="#FE438B" fill-opacity="0.2"/>
</g>
<defs>
<filter id="filter0_di_4229_8876" x="5" y="9" width="160" height="152.195" filterUnits="userSpaceOnUse" color-interpolation-filters="sRGB">
<feFlood flood-opacity="0" result="BackgroundImageFix"/>
<feColorMatrix in="SourceAlpha" type="matrix" values="0 0 0 0 0 0 0 0 0 0 0 0 0 0 0 0 0 0 127 0" result="hardAlpha"/>
<feOffset dy="10"/>
<feGaussianBlur stdDeviation="20"/>
<feComposite in2="hardAlpha" operator="out"/>
<feColorMatrix type="matrix" values="0 0 0 0 0 0 0 0 0 0 0 0 0 0 0 0 0 0 0.25 0"/>
<feBlend mode="normal" in2="BackgroundImageFix" result="effect1_dropShadow_4229_8876"/>
<feBlend mode="normal" in="SourceGraphic" in2="effect1_dropShadow_4229_8876" result="shape"/>
<feColorMatrix in="SourceAlpha" type="matrix" values="0 0 0 0 0 0 0 0 0 0 0 0 0 0 0 0 0 0 127 0" result="hardAlpha"/>
<feOffset dy="10"/>
<feGaussianBlur stdDeviation="20"/>
<feComposite in2="hardAlpha" operator="arithmetic" k2="-1" k3="1"/>
<feColorMatrix type="matrix" values="0 0 0 0 0.941042 0 0 0 0 0.0462676 0 0 0 0 0.387751 0 0 0 0.7 0"/>
<feBlend mode="normal" in2="shape" result="effect2_innerShadow_4229_8876"/>
</filter>
</defs>
</svg>
