<svg width="32" height="32" viewBox="0 0 32 32" fill="none" xmlns="http://www.w3.org/2000/svg">
<path fill-rule="evenodd" clip-rule="evenodd" d="M14.4614 7.53846C14.4614 6.68879 15.1502 6 15.9998 6C16.8495 6 17.5383 6.68879 17.5383 7.53846V7.78444C18.5193 7.95829 19.6135 8.30775 20.592 8.91828C22.1604 9.89698 23.4234 11.5474 23.4234 14.1425V22.6425H26V23.6425H18.3079V23.6923C18.3079 24.9668 17.2748 26 16.0002 26C14.7257 26 13.6926 24.9668 13.6926 23.6923V23.6425H6V22.6425H8.57726V14.1425C8.57726 13.0465 8.95198 11.4275 10.0773 10.073C11.0033 8.95828 12.4128 8.05312 14.4614 7.75071V7.53846ZM9.57726 14.1425C9.57726 13.2384 9.89484 11.8574 10.8465 10.712C11.7815 9.58651 13.366 8.64247 16.0003 8.64247C17.0873 8.64247 18.7196 8.92865 20.0626 9.76666C21.3787 10.5879 22.4234 11.9376 22.4234 14.1425V22.6425L9.57726 22.6425V14.1425Z" fill="#D9D9D9"/>
</svg>
