<svg width="32" height="32" viewBox="0 0 32 32" fill="none" xmlns="http://www.w3.org/2000/svg">
<g clip-path="url(#clip0_2165_10406)">
<path fill-rule="evenodd" clip-rule="evenodd" d="M18.5714 13.8571C18.5714 15.2773 17.4201 16.4286 16 16.4286C14.5798 16.4286 13.4286 15.2773 13.4286 13.8571C13.4286 12.437 14.5798 11.2857 16 11.2857C17.4201 11.2857 18.5714 12.437 18.5714 13.8571ZM19.5714 13.8571C19.5714 15.8296 17.9724 17.4286 16 17.4286C14.0275 17.4286 12.4286 15.8296 12.4286 13.8571C12.4286 11.8847 14.0275 10.2857 16 10.2857C17.9724 10.2857 19.5714 11.8847 19.5714 13.8571ZM21.4286 23.1428C21.4286 23.8879 20.9755 24.6849 19.991 25.3413C19.0134 25.993 17.6053 26.4286 16 26.4286C14.3947 26.4286 12.9866 25.993 12.009 25.3413C11.0244 24.6849 10.5714 23.8879 10.5714 23.1428C10.5714 22.3978 11.0244 21.6008 12.009 20.9444C12.9866 20.2927 14.3947 19.8571 16 19.8571C17.6053 19.8571 19.0134 20.2927 19.991 20.9444C20.9755 21.6008 21.4286 22.3978 21.4286 23.1428ZM22.4286 23.1428C22.4286 25.5098 19.5504 27.4286 16 27.4286C12.4496 27.4286 9.57141 25.5098 9.57141 23.1428C9.57141 20.7759 12.4496 18.8571 16 18.8571C19.5504 18.8571 22.4286 20.7759 22.4286 23.1428Z" fill="#DDDDDD"/>
</g>
<rect x="6.5" y="6.5" width="19" height="19" rx="9.5" stroke="#DDDDDD"/>
<defs>
<clipPath id="clip0_2165_10406">
<rect x="6" y="6" width="20" height="20" rx="10" fill="white"/>
</clipPath>
</defs>
</svg>
