<svg width="32" height="32" viewBox="0 0 32 32" fill="none" xmlns="http://www.w3.org/2000/svg">
<path d="M7.11111 12.5556L9.33333 25.8889H22.6667L24.8889 12.5556M7.11111 12.5556L9.01804 14.0811C10.258 15.073 10.8779 15.569 11.5028 15.646C12.0503 15.7134 12.6033 15.5748 13.0543 15.2571C13.569 14.8946 13.8818 14.1648 14.5072 12.7053L16 9.22222M7.11111 12.5556C7.72476 12.5556 8.22222 12.0581 8.22222 11.4444C8.22222 10.8308 7.72476 10.3333 7.11111 10.3333C6.49747 10.3333 6 10.8308 6 11.4444C6 12.0581 6.49747 12.5556 7.11111 12.5556ZM24.8889 12.5556L22.982 14.0811C21.742 15.073 21.1221 15.569 20.4971 15.646C19.9497 15.7134 19.3967 15.5748 18.9457 15.2571C18.431 14.8946 18.1182 14.1648 17.4928 12.7053L16 9.22222M24.8889 12.5556C25.5026 12.5556 26 12.0581 26 11.4444C26 10.8308 25.5026 10.3333 24.8889 10.3333C24.2752 10.3333 23.7778 10.8308 23.7778 11.4444C23.7778 12.0581 24.2752 12.5556 24.8889 12.5556ZM16 9.22222C16.6137 9.22222 17.1111 8.72476 17.1111 8.11111C17.1111 7.49747 16.6137 7 16 7C15.3863 7 14.8889 7.49747 14.8889 8.11111C14.8889 8.72476 15.3863 9.22222 16 9.22222ZM16 8.11111H16.0111M24.8889 11.4444H24.9M7.11111 11.4444H7.12222" stroke="#DDDDDD" stroke-linecap="round" stroke-linejoin="round"/>
</svg>
