<svg width="32" height="32" viewBox="0 0 32 32" fill="none" xmlns="http://www.w3.org/2000/svg">
<rect x="6.75" y="6.75" width="18.5" height="18.5" rx="7.25" stroke="url(#paint0_linear_2165_10344)" stroke-width="1.5"/>
<path fill-rule="evenodd" clip-rule="evenodd" d="M16 10C15.5858 10 15.25 10.3358 15.25 10.75V15.25H10.75C10.3358 15.25 10 15.5858 10 16C10 16.4142 10.3358 16.75 10.75 16.75H15.25V21.25C15.25 21.6642 15.5858 22 16 22C16.4142 22 16.75 21.6642 16.75 21.25V16.75H21.25C21.6642 16.75 22 16.4142 22 16C22 15.5858 21.6642 15.25 21.25 15.25H16.75V10.75C16.75 10.3358 16.4142 10 16 10Z" fill="url(#paint1_linear_2165_10344)"/>
<defs>
<linearGradient id="paint0_linear_2165_10344" x1="6" y1="6.9375" x2="24.4375" y2="25.375" gradientUnits="userSpaceOnUse">
<stop stop-color="#FF5697"/>
<stop offset="1" stop-color="#FC2D7C"/>
</linearGradient>
<linearGradient id="paint1_linear_2165_10344" x1="11.125" y1="10" x2="20.875" y2="21.25" gradientUnits="userSpaceOnUse">
<stop stop-color="#FF5697"/>
<stop offset="1" stop-color="#FD317F"/>
</linearGradient>
</defs>
</svg>
