<svg xmlns="http://www.w3.org/2000/svg" width="18" height="18" viewBox="0 0 18 18" fill="none">
  <path fill-rule="evenodd" clip-rule="evenodd" d="M8.99981 0C8.50276 0 8.09982 0.402943 8.09982 0.899999V8.10001H0.9C0.402944 8.10001 0 8.50296 0 9.00001C0 9.49707 0.402943 9.90001 0.899999 9.90001H8.09982V17.1C8.09982 17.5971 8.50276 18 8.99981 18C9.49687 18 9.89982 17.5971 9.89982 17.1V9.90001H17.1C17.5971 9.90001 18 9.49707 18 9.00001C18 8.50296 17.5971 8.10001 17.1 8.10001H9.89982V0.9C9.89982 0.402944 9.49687 0 8.99981 0Z" fill="white"/>
</svg>