<svg width="32" height="32" viewBox="0 0 32 32" fill="none" xmlns="http://www.w3.org/2000/svg">
<g clip-path="url(#clip0_530_82)">
<path fill-rule="evenodd" clip-rule="evenodd" d="M7.2815 31.2637V10.6659H0.435938V31.2636H7.2815V31.2637ZM3.85944 7.85461C6.24588 7.85461 7.73244 6.27161 7.73244 4.29505C7.68731 2.27455 6.24588 0.736237 3.90419 0.736237C1.56213 0.736299 0.03125 2.27461 0.03125 4.29511C0.03125 6.27167 1.517 7.85467 3.81438 7.85467L3.85944 7.85461ZM11.0703 31.2637C11.0703 31.2637 11.1601 12.5985 11.0703 10.6659H17.9169V13.653H17.8714C18.7717 12.2474 20.3936 10.1822 24.0864 10.1822C28.5918 10.1822 31.9687 13.1262 31.9687 19.453V31.2637H25.1232V20.2445C25.1232 17.4757 24.1327 15.5863 21.6546 15.5863C19.7638 15.5863 18.6369 16.86 18.142 18.0913C17.9609 18.5295 17.9169 19.1451 17.9169 19.7607V31.2637H11.0703Z" fill="#837985"/>
</g>
<defs>
<clipPath id="clip0_530_82">
<rect width="32" height="32" fill="white"/>
</clipPath>
</defs>
</svg>
