<svg width="32" height="32" viewBox="0 0 32 32" fill="none" xmlns="http://www.w3.org/2000/svg">
<g clip-path="url(#clip0_530_95)">
<path d="M20.4298 13.844C20.5063 14.5943 20.5502 15.3204 20.5502 16C20.5502 17.2721 20.3965 18.7087 20.1613 20.1611C18.7089 20.3963 17.2723 20.55 16.0002 20.55C14.7338 20.55 13.2977 20.3967 11.839 20.1607C11.6039 18.7083 11.4502 17.272 11.4502 16C11.4502 15.3207 11.494 14.5944 11.5707 13.844C13.1016 14.0891 14.6289 14.25 16.0002 14.25C17.3717 14.25 18.8989 14.0891 20.4298 13.844Z" fill="#111111"/>
<path d="M22.5004 13.4659C22.5951 14.3439 22.6501 15.1987 22.6501 16C22.6501 17.1692 22.5331 18.4519 22.3467 19.7537C24.9901 19.2021 27.4335 18.4975 28.7424 18.0963C29.1653 17.9667 29.3316 17.9151 29.5545 17.8259C29.666 17.7813 29.7681 17.736 29.9013 17.6724C29.9665 17.124 30.0001 16.5659 30.0001 16C30.0001 14.504 29.7655 13.0628 29.3311 11.7113L29.2179 11.7469C27.8492 12.1633 25.2871 12.8993 22.5004 13.4659Z" fill="#111111"/>
<path d="M28.5357 9.7593C27.1599 10.1763 24.7722 10.8539 22.2134 11.3814C21.6239 7.79901 20.5908 4.22601 20.0938 2.60797C23.7897 3.73636 26.8365 6.35289 28.5357 9.7593Z" fill="#111111"/>
<path d="M20.1493 11.7631C18.7007 11.9971 17.2687 12.15 16.0003 12.15C14.7319 12.15 13.3 11.9971 11.8516 11.7631C12.4066 8.3734 13.3974 4.91075 13.9041 3.25777C14.0337 2.83475 14.0853 2.66859 14.1745 2.44557C14.219 2.33416 14.2643 2.23197 14.3279 2.09885C14.8763 2.03357 15.4345 2 16.0003 2C16.5915 2 17.1741 2.03664 17.7461 2.10777C17.7582 2.15419 17.7694 2.19572 17.7805 2.23501C17.8133 2.35111 17.8646 2.51427 17.9507 2.78805L17.9598 2.81681C18.3917 4.18964 19.5362 8.01868 20.1493 11.7631Z" fill="#111111"/>
<path d="M9.7871 11.3813C10.3738 7.81477 11.4002 4.26102 11.8963 2.64242L11.9068 2.60797C8.21074 3.73634 5.16398 6.35288 3.46484 9.75929C4.84062 10.1763 7.22831 10.8538 9.7871 11.3813Z" fill="#111111"/>
<path d="M2.66912 11.7113C2.23464 13.0629 2 14.504 2 16C2 16.5852 2.03591 17.162 2.10564 17.7284L2.32628 17.802L2.32804 17.8025L2.3302 17.8033L2.33172 17.8037C2.40273 17.8273 4.48407 18.5147 7.22504 19.1967C7.99848 19.3891 8.81743 19.5792 9.65341 19.7535C9.467 18.4517 9.35 17.1692 9.35 16C9.35 15.1984 9.40499 14.3436 9.49963 13.4659C6.71237 12.8992 4.14957 12.1628 2.78129 11.7465L2.77177 11.7436L2.66912 11.7113Z" fill="#111111"/>
<path d="M15.9997 22.65C17.1689 22.65 18.4516 22.5329 19.7535 22.3465C19.2019 24.99 18.4972 27.4333 18.096 28.7421C17.9664 29.1652 17.9148 29.3313 17.8256 29.5544C17.7811 29.6659 17.7357 29.768 17.6721 29.9012C17.1237 29.9664 16.5656 30 15.9997 30C15.4339 30 14.8757 29.9664 14.3273 29.9012C14.2637 29.768 14.2184 29.6659 14.1739 29.5544C14.0847 29.3315 14.0331 29.1652 13.9035 28.7423C13.5023 27.4335 12.7977 24.9903 12.2461 22.3471C13.5436 22.5328 14.8265 22.65 15.9997 22.65Z" fill="#111111"/>
<path d="M6.71844 21.2345C4.98514 20.8032 3.50891 20.37 2.6084 20.0936C3.96388 24.5336 7.46686 28.0365 11.9069 29.392L11.8963 29.3576C11.4632 27.9443 10.6257 25.0556 10.0297 21.9712C8.87044 21.7471 7.7434 21.4895 6.71844 21.2345Z" fill="#111111"/>
<path d="M29.3577 20.1041C27.9444 20.5373 25.0555 21.3748 21.9709 21.9708C21.3749 25.0553 20.5375 27.9441 20.1043 29.3576L20.0938 29.392C24.5337 28.0365 28.0367 24.5336 29.3921 20.0936L29.3577 20.1041Z" fill="#111111"/>
<path d="M2.14746 17.764C2.19593 17.7703 2.23543 17.7769 2.24854 17.7799C2.26002 17.7827 2.27801 17.7875 2.28453 17.7892L2.29894 17.7933L2.3067 17.7957L2.31486 17.7983L2.3217 17.8004C2.31786 17.7992 2.24007 17.7797 2.14746 17.764Z" fill="#111111"/>
<path d="M20.4298 13.844C20.5063 14.5943 20.5502 15.3204 20.5502 16C20.5502 17.2721 20.3965 18.7087 20.1613 20.1611C18.7089 20.3963 17.2723 20.55 16.0002 20.55C14.7338 20.55 13.2977 20.3967 11.839 20.1607C11.6039 18.7083 11.4502 17.272 11.4502 16C11.4502 15.3207 11.494 14.5944 11.5707 13.844C13.1016 14.0891 14.6289 14.25 16.0002 14.25C17.3717 14.25 18.8989 14.0891 20.4298 13.844Z" fill="#111111"/>
<path d="M22.5004 13.4659C22.5951 14.3439 22.6501 15.1987 22.6501 16C22.6501 17.1692 22.5331 18.4519 22.3467 19.7537C24.9901 19.2021 27.4335 18.4975 28.7424 18.0963C29.1653 17.9667 29.3316 17.9151 29.5545 17.8259C29.666 17.7813 29.7681 17.736 29.9013 17.6724C29.9665 17.124 30.0001 16.5659 30.0001 16C30.0001 14.504 29.7655 13.0628 29.3311 11.7113L29.2179 11.7469C27.8492 12.1633 25.2871 12.8993 22.5004 13.4659Z" fill="#111111"/>
<path d="M28.5357 9.7593C27.1599 10.1763 24.7722 10.8539 22.2134 11.3814C21.6239 7.79901 20.5908 4.22601 20.0938 2.60797C23.7897 3.73636 26.8365 6.35289 28.5357 9.7593Z" fill="#111111"/>
<path d="M20.1493 11.7631C18.7007 11.9971 17.2687 12.15 16.0003 12.15C14.7319 12.15 13.3 11.9971 11.8516 11.7631C12.4066 8.3734 13.3974 4.91075 13.9041 3.25777C14.0337 2.83475 14.0853 2.66859 14.1745 2.44557C14.219 2.33416 14.2643 2.23197 14.3279 2.09885C14.8763 2.03357 15.4345 2 16.0003 2C16.5915 2 17.1741 2.03664 17.7461 2.10777C17.7582 2.15419 17.7694 2.19572 17.7805 2.23501C17.8133 2.35111 17.8646 2.51427 17.9507 2.78805L17.9598 2.81681C18.3917 4.18964 19.5362 8.01868 20.1493 11.7631Z" fill="#111111"/>
<path d="M9.7871 11.3813C10.3738 7.81477 11.4002 4.26102 11.8963 2.64242L11.9068 2.60797C8.21074 3.73634 5.16398 6.35288 3.46484 9.75929C4.84062 10.1763 7.22831 10.8538 9.7871 11.3813Z" fill="#111111"/>
<path d="M2.66912 11.7113C2.23464 13.0629 2 14.504 2 16C2 16.5852 2.03591 17.162 2.10564 17.7284L2.32628 17.802L2.32804 17.8025L2.3302 17.8033L2.33172 17.8037C2.40273 17.8273 4.48407 18.5147 7.22504 19.1967C7.99848 19.3891 8.81743 19.5792 9.65341 19.7535C9.467 18.4517 9.35 17.1692 9.35 16C9.35 15.1984 9.40499 14.3436 9.49963 13.4659C6.71237 12.8992 4.14957 12.1628 2.78129 11.7465L2.77177 11.7436L2.66912 11.7113Z" fill="#111111"/>
<path d="M15.9997 22.65C17.1689 22.65 18.4516 22.5329 19.7535 22.3465C19.2019 24.99 18.4972 27.4333 18.096 28.7421C17.9664 29.1652 17.9148 29.3313 17.8256 29.5544C17.7811 29.6659 17.7357 29.768 17.6721 29.9012C17.1237 29.9664 16.5656 30 15.9997 30C15.4339 30 14.8757 29.9664 14.3273 29.9012C14.2637 29.768 14.2184 29.6659 14.1739 29.5544C14.0847 29.3315 14.0331 29.1652 13.9035 28.7423C13.5023 27.4335 12.7977 24.9903 12.2461 22.3471C13.5436 22.5328 14.8265 22.65 15.9997 22.65Z" fill="#111111"/>
<path d="M6.71844 21.2345C4.98514 20.8032 3.50891 20.37 2.6084 20.0936C3.96388 24.5336 7.46686 28.0365 11.9069 29.392L11.8963 29.3576C11.4632 27.9443 10.6257 25.0556 10.0297 21.9712C8.87044 21.7471 7.7434 21.4895 6.71844 21.2345Z" fill="#111111"/>
<path d="M29.3577 20.1041C27.9444 20.5373 25.0555 21.3748 21.9709 21.9708C21.3749 25.0553 20.5375 27.9441 20.1043 29.3576L20.0938 29.392C24.5337 28.0365 28.0367 24.5336 29.3921 20.0936L29.3577 20.1041Z" fill="#111111"/>
<path d="M2.14746 17.764C2.19593 17.7703 2.23543 17.7769 2.24854 17.7799C2.26002 17.7827 2.27801 17.7875 2.28453 17.7892L2.29894 17.7933L2.3067 17.7957L2.31486 17.7983L2.3217 17.8004C2.31786 17.7992 2.24007 17.7797 2.14746 17.764Z" fill="#111111"/>
</g>
<defs>
<clipPath id="clip0_530_95">
<rect width="32" height="32" fill="white"/>
</clipPath>
</defs>
</svg>
